<svg xmlns="http://www.w3.org/2000/svg" width="272" height="52" viewBox="0 0 272 52"><g transform="translate(-308 -4521)"><rect width="272" height="52" rx="26" transform="translate(308 4521)" opacity="0.68"/><g transform="translate(-90)"><g transform="translate(-364 3384)"><path d="M11.55-4.7a31.219,31.219,0,0,1-3.225.375C7.125-4.225,5.9-4.2,5-4.2H4.525V-15.825H10.1V-17.5h-7c-.4,0-.525.125-.525.525V-2.9c0,.4.1.5.525.5H4.275a47.72,47.72,0,0,0,7.275-.575Zm7.9-14.2H17.525v7.925h-2.95v-7.55h-1.9V2.2h1.9V-9.075h2.95V3.25H19.45Zm9.875,9.85c-.025-1.275-.05-2.375-.05-3.475-.025-1.1-.05-2.2-.05-3.5H36.05c-.025,1.3-.05,2.4-.05,3.5-.025,1.1-.05,2.2-.05,3.475Zm13.5,7.825H37.55v-5.4h-1.9v5.4H29.825v-5.4H27.9v5.4H22.475v1.7h20.35ZM41-9.05H37.875c0-1.275.05-2.375.05-3.475.025-1.1.05-2.2.075-3.5h2.475V-17.7h-15.7v1.675H27.25c0,1.3.025,2.4.05,3.5,0,1.1.025,2.2.05,3.475h-3.1v1.675H41Zm14.225.9v-4.4h6.2v4.4ZM70.05-18.875H68.075v3.35h-4.75v-2.6h-1.9v3.875h-6.2v-3.875h-1.95v11.15c0,.4.1.525.5.525h8.9c.4,0,.525-.125.525-.525v-2.2h4.875V-2.7H70.05ZM63.2-10.8v-3.075h4.875V-10.8ZM70.575,1.1H57.7V-4.025H55.675v6.3c0,.4.125.525.525.525H70.575Zm23.1-2.275H84.55v-2.7A8.8,8.8,0,0,0,88.8-5.15a3.223,3.223,0,0,0,1.675-2.825,3.45,3.45,0,0,0-2-3,9.959,9.959,0,0,0-4.975-1.15,10.231,10.231,0,0,0-5.025,1.15,3.517,3.517,0,0,0-1.975,3A3.249,3.249,0,0,0,78.15-5.15a8.908,8.908,0,0,0,4.3,1.3v2.675H73.325V.55h20.35ZM81.75-10.35a4.7,4.7,0,0,1,.825-.125c.3-.025.6-.05.925-.05a7.537,7.537,0,0,1,3.2.625,2.179,2.179,0,0,1,1.45,1.95A2.174,2.174,0,0,1,86.7-6.025a7.537,7.537,0,0,1-3.2.625,7.423,7.423,0,0,1-3.225-.625A2.147,2.147,0,0,1,78.85-7.95a2.121,2.121,0,0,1,1.425-1.925A4.871,4.871,0,0,1,81.75-10.35Zm6.125-7.975H79.05v1.7h8.825Zm3.975,3.3H75.1v1.675H91.85ZM102.8-18.05h-2.05v4.15a13.7,13.7,0,0,1-1.575,6.6A13.369,13.369,0,0,1,94.45-2.425,14.781,14.781,0,0,1,96.175-1.1a13.712,13.712,0,0,0,3.35-3.275,12.361,12.361,0,0,0,2.25-4.225A13.958,13.958,0,0,0,104.3-4.375a16.955,16.955,0,0,0,3.075,2.725c.175-.175.4-.425.675-.7.275-.225.55-.525.825-.725a12.51,12.51,0,0,1-4.65-4.55A11.372,11.372,0,0,1,102.8-13.55Zm9.9,9.425h3.275V-10.4H112.7v-8.5h-1.975V3.275H112.7Zm30.875,1.1a13.76,13.76,0,0,1-5.5-3.2,7.72,7.72,0,0,1-2.675-5.45V-18h-2.125v1.825a7.432,7.432,0,0,1-2.625,5.425,13.878,13.878,0,0,1-5.6,3.225L126.525-6c3.4-1.275,6.45-3.625,7.85-6.725a10.421,10.421,0,0,0,3.2,4.075A17.078,17.078,0,0,0,142.2-6.025Zm.95,6.275H135.35V-6.825h-2.025V-1.25h-9.15V.45h20.35Zm3.175-.375a19.369,19.369,0,0,0,5.725-6.6A20.825,20.825,0,0,0,155.4-16.9c0-.4-.125-.525-.525-.525H147.35v1.675h6.05a15.029,15.029,0,0,1-7.325,12.925ZM164.75-18.9h-1.925v8.15H159.85v-7.775h-1.925V2.225h1.925V-8.85h2.975V3.275h1.925Z" transform="translate(797 1172)" fill="#fff"/></g><path d="M1437.011,1229.627l8.99,8.989-8.99,8.989" transform="translate(-811 3308.873)" fill="none" stroke="#fff" stroke-linecap="round" stroke-linejoin="round" stroke-width="2"/><path d="M1437.011,1229.627l8.99,8.989-8.99,8.989" transform="translate(-820 3308.873)" fill="none" stroke="#fff" stroke-linecap="round" stroke-linejoin="round" stroke-width="2"/></g></g></svg>