<svg xmlns="http://www.w3.org/2000/svg" width="76" height="29" viewBox="0 0 76 29"><g transform="translate(-543 -1430)"><g transform="translate(-8)"><rect width="76" height="29" rx="14.5" transform="translate(551 1430)" fill="#efefef"/><g transform="translate(171 194)"><path d="M-12-3.468a36.531,36.531,0,0,1-6.834.6h-.221V-10.8H-13.6v-1.173h-6.46c-.272,0-.357.085-.357.357v9.605c0,.272.068.34.357.34h.612c1.292,0,2.669-.034,3.961-.153A26.782,26.782,0,0,0-12-2.278Zm2.669-9.384h-1.343v4.947h-4.182v1.173h4.182V2.21h1.343Zm5.61,7.5V-8.466H3.655v3.111ZM6.885-.85H.646V-4.182H4.641c.272,0,.357-.085.357-.357v-7.7H3.655V-9.6H-3.723V-12.24H-5.066v7.7c0,.272.085.357.357.357H-.748V-.85h-6.2V.323H6.885Zm2.6-.1a13.282,13.282,0,0,0,4.556-4.4,12.474,12.474,0,0,0,1.938-6.273c0-.272-.085-.357-.357-.357H9.282v1.173h5.2A10.815,10.815,0,0,1,8.4-1.853ZM20.5-12.852h-1.36V2.21H20.5Z" transform="translate(414 1256)" fill="#4d5256"/><path d="M1437.011,1229.626l5.156,5.156-5.156,5.156" transform="translate(-994 15.898)" fill="none" stroke="#4d5256" stroke-linecap="round" stroke-linejoin="round" stroke-width="1.5"/></g></g></g></svg>