<svg xmlns="http://www.w3.org/2000/svg" width="168" height="168" viewBox="0 0 168 168">
    <g fill="none" fill-rule="evenodd">
        <path fill="#FFF" fill-opacity=".01" d="M0 0h168v168H0z" opacity=".5"/>
        <path fill="#3949AB" fill-rule="nonzero" d="M136 72v39a3 3 0 0 1 6 0v37a8 8 0 0 1-8 8H34a8 8 0 0 1-8-8V20a8 8 0 0 1 8-8h65l43 43v17a3 3 0 0 1-6 0zM96 18.176a2 2 0 0 0-.82-.176H34a2 2 0 0 0-2 2v128a2 2 0 0 0 2 2h100a2 2 0 0 0 2-2V58.24a2 2 0 0 0-.431-1.24H102a6 6 0 0 1-6-6V18.176zM44.5 103h52a2.5 2.5 0 1 1 0 5h-52a2.5 2.5 0 1 1 0-5zm0-17h67a2.5 2.5 0 1 1 0 5h-67a2.5 2.5 0 1 1 0-5zm0-17h67a2.5 2.5 0 1 1 0 5h-67a2.5 2.5 0 1 1 0-5zM42 123v-3a4 4 0 0 1 4-4h3a2 2 0 0 1 0 4h-3v3a2 2 0 0 1-4 0zm7 13a2 2 0 0 1 0 4h-3a4 4 0 0 1-4-4v-3a2 2 0 0 1 4 0v3h3zm35-3a2 2 0 0 1 4 0v3a4 4 0 0 1-4 4h-3a2 2 0 0 1 0-4h3v-3zm-3-13a2 2 0 0 1 0-4h3a4 4 0 0 1 4 4v3a2 2 0 0 1-4 0v-3h-3zm-14 4v10a2 2 0 0 1-4 0v-10h-3a2 2 0 0 1 0-4h10a2 2 0 0 1 0 4h-3z"/>
        <path fill="#3949AB" fill-rule="nonzero" d="M134.916 98.665l-7.66-6.428-25.113 29.927.295 7.427 7.366-1 25.112-29.926zm3.856-4.597l3.857-4.596-7.66-6.428-3.857 4.596 7.66 6.428zm-2.888-16.782l12.257 10.284a2 2 0 0 1 .247 2.818l-35.5 42.306a2 2 0 0 1-1.263.696l-13.965 1.895-.559-14.082a2 2 0 0 1 .467-1.365l35.499-42.306a2 2 0 0 1 2.817-.246z"/>
    </g>
</svg>
