<svg xmlns="http://www.w3.org/2000/svg" width="168" height="168" viewBox="0 0 168 168">
    <g fill="none" fill-rule="evenodd">
        <path fill="#FFF" fill-opacity=".01" d="M0 0h168v168H0z" opacity=".5"/>
        <path fill="#3949AB" fill-rule="nonzero" d="M132 134c-11.046 0-20-8.954-20-20s8.954-20 20-20 20 8.954 20 20-8.954 20-20 20zm0-5c8.284 0 15-6.716 15-15 0-8.284-6.716-15-15-15-8.284 0-15 6.716-15 15 0 8.284 6.716 15 15 15zm0-5c-5.523 0-10-4.477-10-10s4.477-10 10-10 10 4.477 10 10-4.477 10-10 10zm0-5a5 5 0 1 0 0-10 5 5 0 0 0 0 10zm0 24.538L118 158c.025-12.7.025-20.366 0-23 3.17 2.39 7.837 3.644 14 3.761 6.163-.117 10.83-1.37 14-3.761-.025 2.634-.025 10.3 0 23l-14-14.462zM110 156H34a8 8 0 0 1-8-8V20a8 8 0 0 1 8-8h65l43 43v31a3 3 0 0 1-6 0V58.24a2 2 0 0 0-.431-1.24H102a6 6 0 0 1-6-6V18.176a2 2 0 0 0-.82-.176H34a2 2 0 0 0-2 2v128a2 2 0 0 0 2 2h76a3 3 0 0 1 0 6zm-65.5-36h52a2.5 2.5 0 1 1 0 5h-52a2.5 2.5 0 1 1 0-5zm0-17h52a2.5 2.5 0 1 1 0 5h-52a2.5 2.5 0 1 1 0-5zm0-17h67a2.5 2.5 0 1 1 0 5h-67a2.5 2.5 0 1 1 0-5zm0-17h67a2.5 2.5 0 1 1 0 5h-67a2.5 2.5 0 1 1 0-5z"/>
    </g>
</svg>
