<svg xmlns="http://www.w3.org/2000/svg" width="168" height="168" viewBox="0 0 168 168">
    <g fill="none" fill-rule="evenodd">
        <path fill="#FFF" fill-opacity=".01" d="M0 0h168v168H0z" opacity=".5"/>
        <g fill="#3949AB" fill-rule="nonzero">
            <path d="M157 123v25a2 2 0 1 1 4 0v4.966a3.034 3.034 0 0 1-3.034 3.034h-37.932a3.034 3.034 0 0 1-3.034-3.034v-49.932a3.034 3.034 0 0 1 3.034-3.034h24.656L161 116.722V123a2 2 0 1 1-4 0zm-14-18.988a.654.654 0 0 0-.124-.012h-21.222a.654.654 0 0 0-.654.654v46.692c0 .361.293.654.654.654h34.692a.654.654 0 0 0 .654-.654V119h-11.857a2.143 2.143 0 0 1-2.143-2.143v-12.845zM125.5 140h13a1.5 1.5 0 0 1 0 3h-13a1.5 1.5 0 0 1 0-3zm0-7h21a1.5 1.5 0 0 1 0 3h-21a1.5 1.5 0 0 1 0-3zm0-7h21a1.5 1.5 0 0 1 0 3h-21a1.5 1.5 0 0 1 0-3z"/>
            <path d="M158.426 136.664l-2.298-1.929-8.815 10.505.112 2.201 2.186-.272 8.815-10.505zm1.286-1.532l2.25-2.682-2.299-1.928-2.25 2.681 2.299 1.929zm.256-7.618l4.903 4.114a.791.791 0 0 1 .11 1.114l-13.891 16.554a.773.773 0 0 1-.498.27l-5.528.688-.282-5.563a.773.773 0 0 1 .18-.537l13.89-16.554a.791.791 0 0 1 1.116-.086z"/>
        </g>
        <path fill="#3949AB" fill-rule="nonzero" d="M93.324 151.452v-16.833a2.274 2.274 0 0 0-4.547 0v16.833H70.801l11.626-41.503 10.268 4.278c.044.019.097.038.143.055.549.189 13.479 4.829 13.479 21.169v16.001H93.324zm-27.245 0H52.392L43.274 118.9a40.755 40.755 0 0 0 7.587 2.51c2.402.54 5.251.939 8.425.939 4.722 0 10.163-.883 15.923-3.493l-9.13 32.596zm-22.455 0H29.088v-16.833a2.274 2.274 0 0 0-4.547 0v16.833H11.547v-16.001c0-16.339 12.929-20.98 13.471-21.166.051-.018.101-.036.151-.057l10.812-4.505 1.465 5.23.001.005 10.223 36.494h-4.046zm5.514-45.245a2.274 2.274 0 0 0 1.745-2.211v-7.694a23.68 23.68 0 0 0 6.027.778h4.652c2.068 0 4.075-.267 5.988-.767v7.683c0 1.042.708 1.95 1.718 2.204l8.861 2.233-1.244 4.441c-7.908 4.628-16.263 6.021-24.848 4.139-5.206-1.141-8.993-3.218-10.44-4.099l-1.287-4.595 8.828-2.112zM37.746 73.369V56.813c3.894-1.23 13.633-4.803 21.328-11.773 2.949 3.119 9.854 9.061 21.651 11.896v16.433c0 10.567-8.597 19.165-19.164 19.165H56.91c-10.567-.001-19.164-8.598-19.164-19.165zm-4.547-13.7v12.303c-2.922-.525-5.148-3.081-5.148-6.151 0-3.072 2.226-5.627 5.148-6.152zm52.073 12.302V59.669c2.922.525 5.148 3.081 5.148 6.152 0 3.07-2.226 5.625-5.148 6.15zM29.864 94.147c-6.309-8.541-9.766-19.429-9.766-30.867-.001-25.768 17.557-46.732 39.137-46.732 8.872 0 17.24 3.462 24.199 10.012 9.494 8.936 14.939 22.32 14.939 36.719 0 11.413-3.46 22.329-9.763 30.869-3.283-1.328-7.044-2.433-11.089-3.259a23.68 23.68 0 0 0 7.527-14.306c5.545-.451 9.919-5.105 9.919-10.762 0-5.584-4.258-10.192-9.697-10.747a2.27 2.27 0 0 0-1.817-2.19c-15.489-3.158-22.302-12.386-22.365-12.472a2.273 2.273 0 0 0-3.481-.269c-8.839 9.072-22.569 12.732-22.705 12.767a2.274 2.274 0 0 0-1.7 2.163c-5.44.555-9.698 5.163-9.698 10.747 0 5.659 4.374 10.312 9.919 10.763a23.681 23.681 0 0 0 7.528 14.306c-4.045.827-7.805 1.931-11.087 3.258zm72.777 21.137c-3.789-3.579-7.604-5.045-8.255-5.278L81.4 104.594a2.293 2.293 0 0 0-.319-.106l-8.984-2.264v-7.621c.132-.066.262-.133.393-.201.265.177.57.304.905.358 5.673.905 10.863 2.372 15.008 4.242a2.263 2.263 0 0 0 2.9-.939c.09-.083.176-.172.254-.273 7.329-9.453 11.364-21.709 11.364-34.51 0-15.649-5.967-30.24-16.37-40.031l-.004-.004C78.841 15.994 69.141 12 59.235 12 35.147 12 15.55 35.004 15.55 63.28c0 13.083 4.193 25.539 11.806 35.071.015.02.033.037.049.056l.045.05c.059.065.121.125.184.182l.035.03c.244.207.524.354.82.441l.02.006c.096.027.192.048.291.063l.018.003c.105.015.21.024.316.024.023 0 .046-.004.069-.005a2.202 2.202 0 0 0 .362-.04c.089-.017.178-.039.265-.067.045-.015.088-.033.131-.05.036-.014.072-.026.107-.042 4.195-1.892 9.453-3.37 15.205-4.274.289-.045.555-.145.793-.284l.27.139v7.619l-9.526 2.28a2.209 2.209 0 0 0-.345.113l-12.986 5.411c-.651.233-4.467 1.7-8.256 5.278C11.471 118.827 7 125.201 7 135.451v18.274a2.274 2.274 0 0 0 2.274 2.274h33.89l.006.001h65.422a2.278 2.278 0 0 0 2.273-2.278v-18.271c0-10.25-4.472-16.624-8.224-20.167z"/>
    </g>
</svg>
