<svg xmlns="http://www.w3.org/2000/svg" width="168" height="168" viewBox="0 0 168 168">
    <g fill="none" fill-rule="evenodd">
        <path fill="#FFF" fill-opacity=".01" d="M0 0h168v168H0z" opacity=".5"/>
        <path fill="#3949AB" fill-rule="nonzero" d="M134.019 72.336H134V34c0-1.105-.787-2-1.758-2H19.758c-.971 0-1.758.895-1.758 2v74c0 1.105.787 2 1.758 2h81.006v.01a3 3 0 1 1 0 5.982v.008H81v15h20a5 5 0 1 1 0 10H51a5 5 0 1 1 0-10h20v-15H19.111c-3.927 0-7.111-3.582-7.111-8V34c0-4.418 3.184-8 7.111-8H132.89c3.927 0 7.111 3.582 7.111 8v38.336h-.019a3 3 0 0 1-5.962 0zm-83.117-.439H49a1.5 1.5 0 0 1 0-3h1.902l-.951-1.647a1.5 1.5 0 1 1 2.598-1.5l.951 1.647.951-1.647a1.5 1.5 0 1 1 2.598 1.5l-.95 1.647H58a1.5 1.5 0 0 1 0 3h-1.902l.951 1.647a1.5 1.5 0 0 1-2.598 1.5l-.951-1.647-.951 1.647a1.5 1.5 0 0 1-2.598-1.5l.95-1.647zm15 0H64a1.5 1.5 0 0 1 0-3h1.902l-.951-1.647a1.5 1.5 0 1 1 2.598-1.5l.951 1.647.951-1.647a1.5 1.5 0 1 1 2.598 1.5l-.95 1.647H73a1.5 1.5 0 0 1 0 3h-1.902l.951 1.647a1.5 1.5 0 0 1-2.598 1.5l-.951-1.647-.951 1.647a1.5 1.5 0 0 1-2.598-1.5l.95-1.647zm15 0H79a1.5 1.5 0 0 1 0-3h1.902l-.951-1.647a1.5 1.5 0 1 1 2.598-1.5l.951 1.647.951-1.647a1.5 1.5 0 1 1 2.598 1.5l-.95 1.647H88a1.5 1.5 0 0 1 0 3h-1.902l.951 1.647a1.5 1.5 0 0 1-2.598 1.5l-.951-1.647-.951 1.647a1.5 1.5 0 0 1-2.598-1.5l.95-1.647zm15 0H94a1.5 1.5 0 0 1 0-3h1.902l-.951-1.647a1.5 1.5 0 1 1 2.598-1.5l.951 1.647.951-1.647a1.5 1.5 0 1 1 2.598 1.5l-.95 1.647H103a1.5 1.5 0 0 1 0 3h-1.902l.951 1.647a1.5 1.5 0 1 1-2.598 1.5l-.951-1.647-.951 1.647a1.5 1.5 0 0 1-2.598-1.5l.95-1.647zM120 105v-6c0-8.837 7.163-16 16-16s16 7.163 16 16v6h4a4 4 0 0 1 4 4v28a4 4 0 0 1-4 4h-40a4 4 0 0 1-4-4v-28a4 4 0 0 1 4-4h4zm5 0h22v-6c0-6.075-4.925-11-11-11s-11 4.925-11 11v6zm7.981 22.481l-8.75-8.75a2.46 2.46 0 0 0-3.5 0 2.46 2.46 0 0 0 0 3.5l10.475 10.475a2.49 2.49 0 0 0 3.525 0l16.5-16.475a2.46 2.46 0 0 0 0-3.5 2.46 2.46 0 0 0-3.5 0l-14.75 14.75z"/>
    </g>
</svg>
