<svg id="Layer_1" data-name="Layer 1" xmlns="http://www.w3.org/2000/svg" viewBox="0 0 192 192"><defs><style>.cls-1{fill:#15376c;}</style></defs><title>컬러수정_BI_RGB_v001</title><path class="cls-1" d="M91.65,109.23c-.5,0-12.76-.39-13.2-.39a6.42,6.42,0,0,0-1.58,0c-.51.26-.63.66-1.27.66s-2.59-.27-4-.4a40.74,40.74,0,0,0-4.29.13c-.38,0-1-.39-1.46-.39-.63,0-5.3.66-5.93.66-.45,0-2-.14-3-.27a.86.86,0,0,0-.83-.66c-.5,0-1.13.93-1.7.93H45.15c-.32,0-1.39.39-1.9.39-2.52,0-3.47-2.37-3.47-4a17.91,17.91,0,0,1,.95-3,1.86,1.86,0,0,1,1.39-.92c.38,0,1.45.46,2.27.52,2,.07,5.37.6,5.88.6s8.59-.47,9.16-.47c0,.14,3.41-.65,3.73-.52A1.56,1.56,0,0,0,64.42,101c.57-2.57-.44-4.61-.13-6.59.32-.59,1.58-.33,2.41-.33s2.14-.53,2.65-.53c3,0,1.58.86,3.47,4.35,0,.2-.12.86-.56,1-.07.86.12,2,.12,3,1.14.65,3.35.65,4.93.65H92.16c.5,0,.88-.52,1.51-.52,2.15,0,2.91,2,2.91,3.49C96.58,109.76,93.93,109.23,91.65,109.23ZM88.75,91.1H82.24c-.51,0-1.14-.52-1.71-.52s-4.17.72-4.67.72-1.52-.86-2-.86-2.85.86-3.35.86H62.65c-.44,0-1.2-.39-1.83-.39s-10.93,1.51-11.5,1.51c-1.9,0-2.72-3.29-2.91-4.61.32-5.67.32-6,0-6.2.51-1.65.38-3.63.64-5.34,0-.79-.13-2.44.37-3.1a3.11,3.11,0,0,1,1.71-.86c1,0,1.77.86,4.3.86,1.45,0,1.77-.46,3.47-.72a60.46,60.46,0,0,1,7-.33c.82-.07,2-.27,2.52-.27s.7.27,1,.46c2.85-.19,9.29,0,9.92,0a11.3,11.3,0,0,0,1.52-.52,9.82,9.82,0,0,1,2-.14c.63,0,1.89.2,2.4.2a8,8,0,0,0,2.4-.72,13.9,13.9,0,0,0,.25-3c0-.79.51-2.64-.5-3-2.4-.33-6.64-.52-7.14-.52-.32,0-8.59,1-9.16,1s-1.65-.47-2.15-.47-3.67.47-4.23.47-4-.47-4.55-.47-8.91.66-9.48.66a10.64,10.64,0,0,1-2.4-1.18c-.51-1,1.13-3.17,1.58-4.62,2.27,0,5.3.46,5.94.46s2.84-.46,3.28-.46c.63,0,4.74.66,5.44.66.44,0,5.68-.92,8.46-1.32.44.4.63,1.12,1.2,1.12s1.77-1,2.28-1,2.9,1,3.28,1,2.72-1.38,3.23-1.38a6.32,6.32,0,0,1,1.64.66c.25,0,.12-.27.63-.27s1.71-.39,2.15-.39.5.39,1,.39.44-.13,1.07-.13,2.59.66,3.86.93a2.24,2.24,0,0,1,.69.92c0,1.12.25,2.64.38,3.89-.13.2-.13.66-.25.92a44,44,0,0,1,.76,7.78c0,1.12-.51,3.49-.89,3.63a85.16,85.16,0,0,1-11.56,1c-.57,0-1.71-.6-2.34-.6s-4.67.27-6.57.13a43.22,43.22,0,0,0-6.32.47c-.82.06-2.59.32-3.22.32a9.7,9.7,0,0,1-1.26-.32,44.92,44.92,0,0,0-5.69.19c-1.26,0-1.77,2.44-1.77,2.84s-.13,3.82,1.26,3.82a29.79,29.79,0,0,1,3.86-.13c.38,0,.88.4,1.39.4s2.21-.66,2.84-.66S67.45,85,68,85s2-1.32,2.65-1.32c.38,0,1.77.79,2.59.92,1.58,0,4.93.27,5.44.27s3.73-1.19,4.23-1.19,4.61.66,5.12.66.82-.13,1.39-.13,2,.39,3.22.52c.44.4.82,2.84.82,3.5C93.42,92,90.71,91.1,88.75,91.1ZM48.5,79.1c.63-.33.63-1,0-1Zm7-2.83v-.46H54.19v.46Zm6.83,30.06v.93h.82a1,1,0,0,0,.19-.53C63.28,106.4,62.65,106.33,62.34,106.33Zm13-31.18a2.27,2.27,0,0,0-.25-.66l-.51.66Zm11.82-6.86c0,.27.38.66.5.93a1.57,1.57,0,0,0,.44-.66A2.39,2.39,0,0,0,87.17,68.29Z"/><path class="cls-1" d="M148.94,107a2.84,2.84,0,0,1-.75,1.4.47.47,0,0,1-.38.16c-1.63,0-.4-.2-1.92-.27-.61-.06-4.63-.4-5.12-.4s-.61.54-.73.68c-.49,0-1.22.33-1.71.33s-2.68-1.08-3.54-1.22c-2.56,0,1.34.89-6.28.89-.49,0-8.57-.34-9.06-.34s-.61.47-.86.47c-8.65,0-6.46-.47-7.56-.47-1.4,0-.18.67-10.18.67-.31,0-1.34-.2-1.83-.2s-2.13.68-2.56.68c-1.89,0-1.28-2.38-1.28-2.92a1.8,1.8,0,0,1-.31-1.09c0-.61.19-2,.19-2.71a21.78,21.78,0,0,1,3.53-.07h5.61c.25,0,.61.21,1,.21a6.59,6.59,0,0,0,1.71-.55,30.81,30.81,0,0,1,3.47,0c1.28,0,2.93.21,4.33.21.18,0,.61-.48,1.1-.48.91,0,.36.82,1,.14l.31-3.33a13.67,13.67,0,0,0-2.32-.48c-.49,0-5.18-.13-5.67-.13s-2.19.61-2.74.61-5.55.2-6.16.2c-.37,0-1.89.07-2.5-.61A7.51,7.51,0,0,1,96.52,95a3.06,3.06,0,0,1,.79-1.9c.49-.48.8.13,1.28.13s2.14-1.15,2.63-.81c1.09.68,1.46,1,2.07,1,.43,0,4-.27,4.39-.27,1.28,0,.91-.68.91-1.16s1.1-.34.8-1.76a28.84,28.84,0,0,1-.06-3.4c0-.67-.74-.81-.74-1.35,0-1.9,0-1.23-2-1.23-.36,0-1.28.21-1.71.21s-.79-.34-1.4-.34-1.34.34-1.83.34-.61-.34-1.09-.34-1.35.34-1.83.34c-2.14,0-2.75-1.49-2.63-5a3.47,3.47,0,0,1,2-1.35,21,21,0,0,1,3.84-.28c.55,0,.3,1.16.79,1.57a27.42,27.42,0,0,1,3.11-1.09c2.26,0,10.12.34,14.63.34.49,0,1.22-.54,1.71-.54s1.22.54,1.83.54c.43,0,1-.48,1.65-.68a31.62,31.62,0,0,1,3.35.47c.61,0,1.71-.27,2.2-.27h9.08c.43,0,.61-.68,1.16-.68,1.89,0,2,1.29,2,2.52v2c-.12.48.37,1.5-.12,1.84-.73.54-1.4.27-1.95.27s-2.8-.54-3.41-.54c-.37,0-1.41.34-1.9.34s-1.82-.21-2.31-.21a2.66,2.66,0,0,0-2.14.54c.06.28-1,.82-.91,1.16.24,1.7,1.1.81.91,2.71-.18.82.13,1,.19,1.84,0,.2.06,2.51,0,2.58.61.47,1.64.13,2.13.13s1.77.48,2.26.48,1.95-.61,2.44-.61,1.58-.55,2.07-.55c.91,0,3.05.55,3.05,2.38,0,.54.36,3.73-.19,4.28s-2.74.2-3.29.2-2-.07-2.38-.07c-.61,0-6.83-.27-7.31-.27s-6.34.27-6.83.27c.06.14-.43,2.51.12,3.26a4.22,4.22,0,0,0,2,.48c.49,0,5.16-.28,5.77-.28.37,0,1.28.48,1.89.48s3.54-.68,4-.68,4.88.68,5.36.68,2.87-.68,3.24-.68,1.52.2,2.31.2c.73.68.67.68.73,1.5C149.43,104.05,148.94,106.23,148.94,107Zm-9,25.6c-.49,0-.68-.55-1.22-.55-7.44,0-11.28.27-13.3.21L114.14,132l-10.06.06c-.43,0-1,.55-1.34.55-.61,0-3.72-.14-5.55-.14v-6.86a16.5,16.5,0,0,1,.49-2.85,2.58,2.58,0,0,1-.37-1.08v-7.81c0-.54,1-1.83,1.41-1.83,1.52-.07,4.51-.34,4.93-.34s7.32.41,7.81.41,3.23-.48,3.54-.48l4.94.07c.36,0,2.19-.68,3.53-.41a39.88,39.88,0,0,0,12.93.2c.73-.13,1.95.48,2.44.48s.73-.41,1-.68a9,9,0,0,1,2.32,0c1.71,0,.73,2.58.73,3.26a13.54,13.54,0,0,0,.61,1.36c-.12,1.35-.24,3.6-.24,4.07v5.63a32.34,32.34,0,0,0,.73,6.18C142.8,131.89,140.48,132.57,139.94,132.57ZM98.11,96.32a.61.61,0,0,0,.42.4,1.67,1.67,0,0,0,1.1-1.08C98.84,95.37,98.35,96,98.11,96.32Zm3.53,9.84.19,1.09a.85.85,0,0,0,.73-.82C102.44,106.16,101.83,106.16,101.64,106.16Zm.61,13.1-.24-.34-.25.21.13.54Zm34.15,3.06a21.72,21.72,0,0,0,.12-2.72,3.51,3.51,0,0,0-.85-1.9,3.25,3.25,0,0,0-1.59-.34,15.92,15.92,0,0,0-3.72-.34c-.49,0-2.92.14-3.41.14s-1.22-.48-1.77-.48-1.22.48-1.83.48c-3.78,0-7.26.2-10.31.2-1.4,0-2.62-.2-3.41-.14-1.52.14-4.21-.2-5.24,0s-.31,3.33-.31,4.76c0,.68.12,3,.18,3.93,2.44.28,4.88.07,7.2.14,1.22.07,3.29.07,3.84.07s1.22-.61,1.71-.55c4.14.28,15.24.34,15.55.34,1,0,3.84-.54,4.14-1.22C136.7,124,136.4,122.86,136.4,122.32Zm-32,7a.64.64,0,0,0,.42.41,1.69,1.69,0,0,0,1.1-1.09C105.12,128.36,104.63,129,104.39,129.31Zm1.4-49.63a1.6,1.6,0,0,0-.86,1.43c.37-.27,1.16-.75,1.35-1.15C106.09,80,105.79,79.68,105.79,79.68Zm19.45,10.53-.12-2.38a9.2,9.2,0,0,1,.3-2.78c-2.19-1.5.67-1.56-2.07-1.56-.49,0-1.46.54-1.83.54h-5c-2.13,0-1.22,2.58-1.22,3.39a19.24,19.24,0,0,0,.18,3c0,1-.73.88-.54,1.49.48,1.16.48,1,2.56,1.23l2.44-.07c.73-.82,1.82.07,2.19.07a8.72,8.72,0,0,0,3-.55c0-.2.79-.68.67-.88C125.3,91.9,125.42,90.41,125.24,90.21ZM116,114.51c0,.2.86,1.15.86,1.15.3-.34.24-1.15.48-1A2.5,2.5,0,0,0,116,114.51Zm4-32.59a1.3,1.3,0,0,0,.48.89c.13-.21.49-.48.49-.55Zm7.25-.88-1-.54v1Zm2.91,24c0,.21.79,1.09.79,1.09.37-.27.31-1.09.55-1A2,2,0,0,0,130.22,105.07Zm5.2-7.74-.06-1.15-.42.14.18,1.15ZM137,114.44a1.68,1.68,0,0,0-.18-.68H136a.79.79,0,0,0,.12.89Zm3.29,4.69.49.67a1.78,1.78,0,0,0,.49-1Zm7.11-13.38a4.86,4.86,0,0,1-1,.48,1.81,1.81,0,0,0,1.22.2A1.62,1.62,0,0,0,147.41,105.75Z"/><path class="cls-1" d="M96,156.59A60.59,60.59,0,1,1,156.59,96,60.66,60.66,0,0,1,96,156.59ZM96,39.85A56.15,56.15,0,1,0,152.15,96,56.22,56.22,0,0,0,96,39.85Z"/></svg>