<svg xmlns="http://www.w3.org/2000/svg" xmlns:xlink="http://www.w3.org/1999/xlink" width="62.222" height="71.334" viewBox="0 0 62.222 71.334"><defs><clipPath id="a"><path d="M1002.183,158.572l-6.634,63.663-24.793-1.047-3.061-61.836Z" transform="translate(-967.694 -158.572)" fill="none"/></clipPath><clipPath id="b"><path d="M1013.25,160.267l-15.414,62.124,27.946,2.863,5.558-61.662Z" transform="translate(-997.836 -160.267)" fill="none"/></clipPath></defs><g transform="translate(0 0.5)"><rect width="44.995" height="57.224" transform="translate(16.727)" fill="#e6e6e6"/><rect width="44.995" height="57.224" transform="translate(16.727)" stroke-width="1" stroke="#383838" stroke-linecap="round" stroke-linejoin="round" fill="none"/><g transform="translate(0 4.242)"><g clip-path="url(#a)"><g transform="translate(4.576 2.816)"><rect width="43.393" height="57.224" stroke-width="1" stroke="#383838" stroke-linecap="round" stroke-linejoin="round" fill="#fff"/><line x2="12.543" transform="translate(25.202 8.589)" fill="none" stroke="#383838" stroke-linejoin="round" stroke-width="1"/><line x2="12.543" transform="translate(25.202 13.89)" fill="none" stroke="#383838" stroke-linejoin="round" stroke-width="1"/><line x2="12.543" transform="translate(25.202 19.19)" fill="none" stroke="#383838" stroke-linejoin="round" stroke-width="1"/><line x2="12.543" transform="translate(25.202 24.491)" fill="none" stroke="#383838" stroke-linejoin="round" stroke-width="1"/><line x2="32.023" transform="translate(5.722 29.766)" fill="none" stroke="#383838" stroke-linejoin="round" stroke-width="1"/><line x2="32.023" transform="translate(5.722 43.645)" fill="none" stroke="#383838" stroke-linejoin="round" stroke-width="1"/><line x2="32.023" transform="translate(5.722 48.484)" fill="none" stroke="#383838" stroke-linejoin="round" stroke-width="1"/><rect width="32.023" height="4.255" transform="translate(5.722 34.53)" fill="#15376c"/></g></g><line x1="5.963" y2="57.224" transform="translate(28.232 2.816)" stroke-width="1" stroke="#383838" stroke-linecap="round" stroke-linejoin="round" fill="none"/></g><g transform="translate(28.527 5.847)"><g clip-path="url(#b)"><g transform="translate(-22.549 -1.367)"><rect width="57.224" height="43.393" transform="translate(0 56.669) rotate(-82.015)" stroke-width="1" stroke="#383838" stroke-linecap="round" stroke-linejoin="round" fill="#fff"/><rect width="16.47" height="15.237" transform="translate(10.135 25.611) rotate(-82.015)" fill="#e6e6e6"/><line x2="12.421" y2="1.742" transform="translate(31.714 12.007)" fill="none" stroke="#383838" stroke-linejoin="round" stroke-width="1"/><line x2="12.421" y2="1.742" transform="translate(30.977 17.256)" fill="none" stroke="#383838" stroke-linejoin="round" stroke-width="1"/><line x2="12.421" y2="1.742" transform="translate(30.241 22.505)" fill="none" stroke="#383838" stroke-linejoin="round" stroke-width="1"/><line x2="12.421" y2="1.742" transform="translate(29.505 27.754)" fill="none" stroke="#383838" stroke-linejoin="round" stroke-width="1"/><line x2="31.712" y2="4.448" transform="translate(9.481 30.273)" fill="none" stroke="#383838" stroke-linejoin="round" stroke-width="1"/><line x2="31.712" y2="4.448" transform="translate(7.553 44.016)" fill="none" stroke="#383838" stroke-linejoin="round" stroke-width="1"/><line x2="31.712" y2="4.448" transform="translate(6.881 48.809)" fill="none" stroke="#383838" stroke-linejoin="round" stroke-width="1"/><rect width="4.255" height="32.023" transform="translate(8.228 39.204) rotate(-82.015)" fill="#15376c"/></g></g><line x1="13.854" y2="55.841" transform="translate(0.877 2.748)" stroke-width="1" stroke="#383838" stroke-linecap="round" stroke-linejoin="round" fill="none"/></g><g transform="translate(9.827 17.055)"><path d="M990.81,185.794h1.426v-8.062h2.19l-3.361-2.311v-3.115h-1.991v1.746l-2.822-1.941-8.174,5.622h2.254v8.062H990.81Z" transform="translate(-978.077 -172.111)" fill="#ffc7c0"/></g><g transform="translate(9.827 17.055)"><path d="M990.81,185.794h1.426v-8.062h2.19l-3.361-2.311v-3.115h-1.991v1.746l-2.822-1.941-8.174,5.622h2.254v8.062H990.81Z" transform="translate(-978.077 -172.111)" fill="none" stroke="#383838" stroke-linecap="round" stroke-linejoin="round" stroke-width="1"/></g></g></svg>