<svg xmlns="http://www.w3.org/2000/svg" width="61.244" height="72.652" viewBox="0 0 61.244 72.652"><g transform="translate(0.5 0.5)"><path d="M850.535,240.32a18.821,18.821,0,1,0,0,26.616A18.824,18.824,0,0,0,850.535,240.32Zm-3.18,23.436a14.323,14.323,0,1,1,0-20.256A14.321,14.321,0,0,1,847.355,263.756Z" transform="translate(-812.085 -234.808)" fill="#ffcd73"/><g transform="translate(37.248 30.927)"><path d="M871.007,281.605h0l-12.919-12.917a4.1,4.1,0,0,0-5.8,5.8L865.2,287.408h0Z" transform="translate(-851.084 -267.486)" fill="#e6e6e6"/><path d="M874.191,287.424a1.863,1.863,0,0,0,0-2.634l-2.385-2.385h0l-5.8,5.8h0l2.385,2.385a1.862,1.862,0,0,0,2.634,0Z" transform="translate(-851.884 -268.286)" fill="#15376c"/><path d="M871.007,281.605h0l-12.919-12.917a4.1,4.1,0,0,0-5.8,5.8L865.2,287.408h0Z" transform="translate(-851.084 -267.486)" fill="none" stroke="#383838" stroke-linecap="round" stroke-linejoin="round" stroke-width="1"/><path d="M874.191,287.424a1.863,1.863,0,0,0,0-2.634l-2.385-2.385h0l-5.8,5.8h0l2.385,2.385a1.862,1.862,0,0,0,2.634,0Z" transform="translate(-851.884 -268.286)" fill="none" stroke="#383838" stroke-linecap="round" stroke-linejoin="round" stroke-width="1"/></g><g transform="translate(0 32.091)"><path d="M833.04,305.433h0l-3.714-31.2h0Z" transform="translate(-812.67 -269.011)" fill="#ffc7c0"/><path d="M842.633,305.529h0l-.414,3.14h-8.6l-.372-3.14h0L835.9,278.6v0l-.38-2.578.006,0a20.857,20.857,0,0,0,2.5.151,20.63,20.63,0,0,0,2.251-.121l-.393,2.545v0l1.745,16.92.1,1.025Z" transform="translate(-812.88 -269.107)" fill="#ffc7c0"/><path d="M847.2,274.143l-.621,4.88-3.411,26.405h0l3.408-26.409.624-4.877Z" transform="translate(-813.412 -269.007)" fill="#ffc7c0"/><path d="M811.727,308.274V282.66a14.855,14.855,0,0,1,9.734-13.944" transform="translate(-811.727 -268.716)" fill="none" stroke="#383838" stroke-linecap="round" stroke-linejoin="round" stroke-width="1"/><line y2="21.264" transform="translate(48.763 18.294)" stroke-width="1" stroke="#383838" stroke-linecap="round" stroke-linejoin="round" fill="none"/><line y2="17.264" transform="translate(7.417 22.295)" stroke-width="1" stroke="#383838" stroke-linecap="round" stroke-linejoin="round" fill="none"/><line y2="17.264" transform="translate(41.338 22.295)" stroke-width="1" stroke="#383838" stroke-linecap="round" stroke-linejoin="round" fill="none"/><path d="M840.4,276.049l-.366,2.545h-4.011l-.375-2.575a20.857,20.857,0,0,0,2.5.151c.75,0,1.4-.046,2.251-.121C840.411,276.049,840.393,276.052,840.4,276.049Z" transform="translate(-813.009 -269.107)" fill="none" stroke="#383838" stroke-linecap="round" stroke-linejoin="round" stroke-width="1"/><path d="M842.219,308.815v0l.413-3.137h0l-.91-8.987-.1-1.025L839.9,278.743H835.9l-2.647,26.932h0l.372,3.14" transform="translate(-812.88 -269.253)" fill="none" stroke="#383838" stroke-linecap="round" stroke-linejoin="round" stroke-width="1"/><path d="M832.867,275.451l-2.985,3.244-.557-4.466A20.4,20.4,0,0,0,832.867,275.451Z" transform="translate(-812.67 -269.011)" fill="none" stroke="#383838" stroke-linecap="round" stroke-linejoin="round" stroke-width="1"/><path d="M847.2,274.143l-.614,4.879-3.279-3.523a19.957,19.957,0,0,0,3.5-1.174h0C846.944,274.267,847.074,274.206,847.2,274.143Z" transform="translate(-813.42 -269.007)" fill="none" stroke="#383838" stroke-linecap="round" stroke-linejoin="round" stroke-width="1"/><path d="M829.325,274.229l3.714,31.2.372,3.137" transform="translate(-812.67 -269.011)" fill="none" stroke="#383838" stroke-linecap="round" stroke-linejoin="round" stroke-width="1"/><path d="M847.173,274.143l-4.032,31.285-.413,3.137" transform="translate(-813.388 -269.007)" fill="none" stroke="#383838" stroke-linecap="round" stroke-linejoin="round" stroke-width="1"/></g><path d="M861.019,252.361" transform="translate(-814.369 -235.749)" fill="none" stroke="#383838" stroke-linecap="round" stroke-linejoin="round" stroke-width="1"/><path d="M850.535,240.32a18.821,18.821,0,1,0,0,26.616A18.824,18.824,0,0,0,850.535,240.32Zm-3.18,3.18a14.323,14.323,0,1,0,0,20.256A14.326,14.326,0,0,0,847.355,243.5Z" transform="translate(-812.085 -234.808)" fill="none" stroke="#383838" stroke-linecap="round" stroke-linejoin="round" stroke-width="1"/><g transform="translate(19.902 12.905)"><line x2="10.714" y2="10.714" fill="none" stroke="#383838" stroke-linecap="round" stroke-linejoin="round" stroke-width="1"/><line x1="10.714" y2="10.714" fill="none" stroke="#383838" stroke-linecap="round" stroke-linejoin="round" stroke-width="1"/></g><path d="M847.609,243.754a14.323,14.323,0,1,0,0,20.256A14.326,14.326,0,0,0,847.609,243.754Z" transform="translate(-812.34 -235.063)" fill="none" stroke="#383838" stroke-linecap="round" stroke-linejoin="round" stroke-width="1"/></g></svg>