<svg xmlns="http://www.w3.org/2000/svg" width="72.99" height="68.666" viewBox="0 0 72.99 68.666"><g transform="translate(0.5 0.5)"><g transform="translate(12.476)"><line y2="5.805" transform="translate(58.44 28.165)" stroke-width="1" stroke="#383838" stroke-linecap="round" stroke-linejoin="round" fill="none"/><path d="M949.939,101.027a27.634,27.634,0,0,1-3.041-.316l-.063-.012c-.146-.026-.284-.054-.412-.081-.774-.169-1.227-.372-1.227-.59v-5.1l-7.08-3.2a.186.186,0,0,1,0-.34l4.7-2.128-.661-1.092-3.065-3.308h-18.63l-6.814,7.354a18.777,18.777,0,0,0,13.771,31.542h4.717a18.778,18.778,0,0,0,18.777-18.777,19.071,19.071,0,0,0-.186-2.644Z" transform="translate(-908.644 -63.392)" fill="#e6e6e6"/><g transform="translate(-909.422 -64.161)" fill="#ffcd73" stroke-miterlimit="10"><path d="M 933.8336791992188 111.8587493896484 L 933.2819213867188 111.8587493896484 C 933.0171508789063 111.8587493896484 932.8345336914063 111.8351821899414 932.684326171875 111.7147445678711 L 932.6808471679688 111.7119369506836 L 932.6773681640625 111.7090530395508 C 932.5297241210938 111.5862350463867 932.4688110351563 111.4128570556641 932.4139404296875 111.1552429199219 L 931.0374145507813 105.1014022827148 L 930.036865234375 105.1014022827148 C 929.8128051757813 106.0257263183594 929.5897216796875 106.9745483398438 929.3724365234375 107.9274978637695 C 929.1397094726563 108.9565048217773 928.8907470703125 110.0380401611328 928.6326293945313 111.1411972045898 C 928.579833984375 111.3830718994141 928.524658203125 111.5479736328125 928.4019775390625 111.6695861816406 C 928.2275390625 111.8439788818359 927.981689453125 111.8587493896484 927.764404296875 111.8587493896484 L 927.2476806640625 111.8587493896484 C 926.993896484375 111.8587493896484 926.7921142578125 111.8313598632813 926.6341552734375 111.6985473632813 C 926.4827270507813 111.5723724365234 926.4178466796875 111.3909606933594 926.3631591796875 111.1403198242188 L 924.9712524414063 105.1014022827148 L 923.4033813476563 105.1014022827148 C 923.245361328125 105.1014022827148 923.0066528320313 105.1014022827148 922.8336791992188 104.9280624389648 C 922.6752319335938 104.7695922851563 922.6620483398438 104.5689544677734 922.6620483398438 104.3600769042969 L 922.6620483398438 104.1187438964844 C 922.6620483398438 103.9093627929688 922.6752319335938 103.7082748413086 922.8340454101563 103.5494155883789 L 922.8386840820313 103.5448150634766 L 922.8433837890625 103.5403366088867 C 923.0018920898438 103.3898620605469 923.19873046875 103.3774032592773 923.4033813476563 103.3774032592773 L 924.5667114257813 103.3774032592773 C 924.452880859375 102.8834075927734 924.3385620117188 102.3800201416016 924.2252807617188 101.8743057250977 C 924.0419921875 101.0559616088867 923.8896484375 100.3828964233398 923.74609375 99.75713348388672 C 923.6692504882813 99.46904754638672 923.6123657226563 99.16958618164063 923.8015747070313 98.93965911865234 C 923.9791870117188 98.72300720214844 924.252685546875 98.70500183105469 924.5409545898438 98.70500183105469 L 924.869384765625 98.70500183105469 C 925.1493530273438 98.70500183105469 925.3550415039063 98.73146057128906 925.5140380859375 98.86283874511719 C 925.6631469726563 98.98551177978516 925.7304077148438 99.16250610351563 925.8018188476563 99.44498443603516 L 925.803466796875 99.45157623291016 L 925.804931640625 99.45819854736328 L 926.6827392578125 103.3774032592773 L 928.434326171875 103.3774032592773 C 928.5680541992188 102.7872009277344 928.703369140625 102.1944427490234 928.8378295898438 101.6103057861328 C 929.0083618164063 100.8688278198242 929.186279296875 100.133903503418 929.36669921875 99.42601776123047 C 929.4349365234375 99.16752624511719 929.5057983398438 98.98551940917969 929.651611328125 98.86418914794922 L 929.6539306640625 98.86225891113281 L 929.6563110351563 98.86035919189453 C 929.8151245117188 98.73142242431641 930.021240234375 98.70500183105469 930.2818603515625 98.70500183105469 L 930.8847045898438 98.70500183105469 C 931.1456909179688 98.70500183105469 931.35205078125 98.73137664794922 931.5108642578125 98.86004638671875 L 931.5136108398438 98.86225891113281 L 931.5162963867188 98.864501953125 C 931.6715087890625 98.99391174316406 931.7359008789063 99.18286895751953 931.788330078125 99.44530487060547 L 932.6807861328125 103.3774032592773 L 934.4497680664063 103.3774032592773 C 934.5848388671875 102.7800827026367 934.7269897460938 102.1762237548828 934.8736572265625 101.5770645141602 C 935.053466796875 100.8396682739258 935.2232666015625 100.1096038818359 935.3783569335938 99.40757751464844 C 935.4342651367188 99.15066528320313 935.4954833984375 98.97719573974609 935.6419067382813 98.85508728027344 L 935.6458129882813 98.851806640625 L 935.6498413085938 98.84860229492188 C 935.7999877929688 98.72850799560547 935.9824829101563 98.70500183105469 936.2470092773438 98.70500183105469 L 936.6605834960938 98.70500183105469 C 936.9093017578125 98.70500183105469 937.1665649414063 98.72228240966797 937.33837890625 98.92874908447266 L 937.3414306640625 98.93244934082031 L 937.3444213867188 98.93620300292969 C 937.5138549804688 99.14799499511719 937.474609375 99.41016387939453 937.4244995117188 99.63926696777344 L 937.42333984375 99.64468383789063 L 937.4219970703125 99.65006256103516 L 936.52001953125 103.3774032592773 L 937.695068359375 103.3774032592773 C 937.9205322265625 103.3774032592773 938.0784301757813 103.3979644775391 938.218505859375 103.5030288696289 C 938.4534301757813 103.6792831420898 938.4534301757813 103.9761047363281 938.4534301757813 104.1187438964844 L 938.4534301757813 104.3771057128906 C 938.4534301757813 104.5025482177734 938.4534301757813 104.79541015625 938.2222290039063 104.9720077514648 C 938.0667114257813 105.0912933349609 937.8765869140625 105.1014022827148 937.695068359375 105.1014022827148 L 936.1395874023438 105.1014022827148 C 935.9288940429688 105.9646682739258 935.7074584960938 106.8969573974609 935.4659423828125 107.9378890991211 C 935.2178955078125 109.0108413696289 934.9600830078125 110.0949172973633 934.6997680664063 111.1596908569336 C 934.645263671875 111.4148330688477 934.584228515625 111.5869064331055 934.4373779296875 111.7090530395508 L 934.4337158203125 111.7121276855469 L 934.429931640625 111.7151260375977 C 934.27978515625 111.8352432250977 934.0975952148438 111.8587493896484 933.8336791992188 111.8587493896484 Z M 927.0504150390625 105.1014022827148 C 927.195556640625 105.7229232788086 927.3377075195313 106.3282165527344 927.47607421875 106.9174575805664 C 927.5057373046875 107.0438690185547 927.53564453125 107.1710739135742 927.5656127929688 107.2989730834961 L 928.0957641601563 105.1014022827148 L 927.0504150390625 105.1014022827148 Z M 933.049560546875 105.1014022827148 C 933.1214599609375 105.4100036621094 933.1926879882813 105.7150726318359 933.2630615234375 106.0165328979492 L 933.4754638671875 106.9267959594727 L 933.557373046875 107.2781677246094 L 934.06494140625 105.1014022827148 L 933.049560546875 105.1014022827148 Z M 930.4636840820313 103.3774032592773 L 930.651123046875 103.3774032592773 C 930.619384765625 103.2425842285156 930.5880737304688 103.1097869873047 930.55712890625 102.9790878295898 C 930.5255737304688 103.1132354736328 930.4944458007813 103.2460098266602 930.4636840820313 103.3774032592773 Z" stroke="none"/><path d="M 924.5409545898438 99.20500183105469 C 924.3346557617188 99.20500183105469 924.21630859375 99.22203826904297 924.1879272460938 99.25705718994141 C 924.1595458984375 99.29112243652344 924.1727905273438 99.41794586181641 924.2314453125 99.63656616210938 C 924.392333984375 100.3378524780273 924.5523071289063 101.0467071533203 924.7131958007813 101.765022277832 C 924.8740844726563 102.4833526611328 925.0349731445313 103.1874771118164 925.1958618164063 103.8774032592773 L 923.4033813476563 103.8774032592773 C 923.2775268554688 103.8774032592773 923.20556640625 103.8859252929688 923.1876220703125 103.9029693603516 C 923.1705932617188 103.9199829101563 923.1620483398438 103.9919128417969 923.1620483398438 104.1187438964844 L 923.1620483398438 104.3600769042969 C 923.1620483398438 104.4859466552734 923.1705932617188 104.5578765869141 923.1876220703125 104.5749053955078 C 923.20556640625 104.5928955078125 923.2775268554688 104.6014022827148 923.4033813476563 104.6014022827148 L 925.3690795898438 104.6014022827148 L 926.8511352539063 111.0312881469727 C 926.8861083984375 111.1921768188477 926.9202270507813 111.2868118286133 926.9552001953125 111.3152084350586 C 926.9893188476563 111.3445434570313 927.0867919921875 111.3587493896484 927.2476806640625 111.3587493896484 L 927.764404296875 111.3587493896484 C 927.92529296875 111.3587493896484 928.0209350585938 111.3445434570313 928.0492553710938 111.3152084350586 C 928.07861328125 111.2868118286133 928.10986328125 111.1921768188477 928.1448364257813 111.0312881469727 C 928.3975219726563 109.9514389038086 928.6445922851563 108.8791656494141 928.8849487304688 107.8163528442383 C 929.1272583007813 106.753532409668 929.3799438476563 105.6812591552734 929.6439819335938 104.6014022827148 L 931.4364624023438 104.6014022827148 L 932.9024047851563 111.0483245849609 C 932.9365234375 111.2092132568359 932.9686889648438 111.3010177612305 932.9971313476563 111.3246765136719 C 933.0254516601563 111.3473892211914 933.1201171875 111.3587493896484 933.2819213867188 111.3587493896484 L 933.8336791992188 111.3587493896484 C 933.9945678710938 111.3587493896484 934.0892333984375 111.3473892211914 934.1176147460938 111.3246765136719 C 934.1460571289063 111.3010177612305 934.17822265625 111.2092132568359 934.2122802734375 111.0483245849609 C 934.476318359375 109.9684753417969 934.7318725585938 108.8933563232422 934.9788818359375 107.8248672485352 C 935.226806640625 106.7563629150391 935.4814453125 105.6812591552734 935.7473754882813 104.6014022827148 L 937.695068359375 104.6014022827148 C 937.8209228515625 104.6014022827148 937.8956909179688 104.5928955078125 937.9183959960938 104.5749053955078 C 937.9411010742188 104.5578765869141 937.9534301757813 104.4916229248047 937.9534301757813 104.3771057128906 L 937.9534301757813 104.1187438964844 C 937.9534301757813 103.9919128417969 937.9411010742188 103.9199829101563 937.9183959960938 103.9029693603516 C 937.8956909179688 103.8859252929688 937.8209228515625 103.8774032592773 937.695068359375 103.8774032592773 L 935.8845825195313 103.8774032592773 L 936.93603515625 99.53246307373047 C 936.9710083007813 99.37251281738281 936.9766845703125 99.27692413330078 936.9539794921875 99.24853515625 C 936.9303588867188 99.22014617919922 936.8328857421875 99.20500183105469 936.6605834960938 99.20500183105469 L 936.2470092773438 99.20500183105469 C 936.0861206054688 99.20500183105469 935.9905395507813 99.21636199951172 935.962158203125 99.23906707763672 C 935.9337768554688 99.26273345947266 935.901611328125 99.35452270507813 935.8665771484375 99.51541900634766 C 935.7066650390625 100.2394180297852 935.5372314453125 100.9662628173828 935.3593139648438 101.6959381103516 C 935.1804809570313 102.4265670776367 935.0110473632813 103.152458190918 934.8501586914063 103.8774032592773 L 932.2815551757813 103.8774032592773 L 931.2992553710938 99.54949188232422 C 931.26513671875 99.37724304199219 931.2301635742188 99.27692413330078 931.1961059570313 99.24853515625 C 931.1610717773438 99.22014617919922 931.0579223632813 99.20500183105469 930.8847045898438 99.20500183105469 L 930.2818603515625 99.20500183105469 C 930.109619140625 99.20500183105469 930.0064086914063 99.22014617919922 929.971435546875 99.24853515625 C 929.9373168945313 99.27692413330078 929.8966674804688 99.37724304199219 929.8511962890625 99.54949188232422 C 929.6666870117188 100.2734985351563 929.4915771484375 100.9984436035156 929.3250732421875 101.7224426269531 C 929.158447265625 102.4464492797852 928.9947509765625 103.1647644042969 928.8338623046875 103.8774032592773 L 926.2823486328125 103.8774032592773 L 925.3170166015625 99.56747436523438 C 925.2706298828125 99.38387298583984 925.2308959960938 99.27692413330078 925.1958618164063 99.24853515625 C 925.1618041992188 99.22014617919922 925.0529174804688 99.20500183105469 924.869384765625 99.20500183105469 L 924.5409545898438 99.20500183105469 M 931.2822265625 103.8774032592773 L 929.833251953125 103.8774032592773 C 929.94873046875 103.3833847045898 930.0689086914063 102.868537902832 930.1957397460938 102.3338241577148 C 930.3215942382813 101.7991027832031 930.4427490234375 101.2852020263672 930.5581665039063 100.7911758422852 C 930.68408203125 101.3429336547852 930.80517578125 101.8596725463867 930.9197387695313 102.3432846069336 C 931.0352172851563 102.8250045776367 931.1553344726563 103.3370056152344 931.2822265625 103.8774032592773 M 927.55810546875 109.4621429443359 C 927.3621826171875 108.6236267089844 927.1729125976563 107.8135147094727 926.9893188476563 107.0317764282227 C 926.8057250976563 106.2500457763672 926.615478515625 105.4399261474609 926.4204711914063 104.6014022827148 L 928.730712890625 104.6014022827148 L 927.55810546875 109.4621429443359 M 933.557373046875 109.4801254272461 C 933.3614501953125 108.6406784057617 933.1721801757813 107.8277053833008 932.988525390625 107.0402984619141 C 932.8049926757813 106.2528839111328 932.61474609375 105.4399261474609 932.4197387695313 104.6014022827148 L 934.6949462890625 104.6014022827148 L 933.557373046875 109.4801254272461 M 924.5409545898438 98.20500183105469 L 924.869384765625 98.20500183105469 C 925.1986694335938 98.20500183105469 925.543212890625 98.23812866210938 925.8328857421875 98.47769927978516 C 926.1127319335938 98.70854949951172 926.2105102539063 99.02151489257813 926.2865600585938 99.32250213623047 L 926.2898559570313 99.33566284179688 L 926.2928466796875 99.34891510009766 L 927.0831298828125 102.8774032592773 L 928.0350952148438 102.8774032592773 C 928.1399536132813 102.4159393310547 928.2455444335938 101.954460144043 928.3505249023438 101.4981689453125 C 928.5219116210938 100.7529678344727 928.7008056640625 100.0141983032227 928.8821411132813 99.30254364013672 L 928.8832397460938 99.29839324951172 L 928.8843383789063 99.29426574707031 C 928.9740600585938 98.9542236328125 929.0845336914063 98.68560791015625 929.3318481445313 98.47983551025391 L 929.3364868164063 98.47597503662109 L 929.3411865234375 98.47216796875 C 929.63037109375 98.23737335205078 929.9641723632813 98.20500183105469 930.2818603515625 98.20500183105469 L 930.8847045898438 98.20500183105469 C 931.2025146484375 98.20500183105469 931.5364990234375 98.23729705810547 931.8256225585938 98.4715576171875 L 931.8311157226563 98.47597503662109 L 931.8364868164063 98.48048400878906 C 932.1168212890625 98.71420288085938 932.2149658203125 99.03123474121094 932.2772827148438 99.34068298339844 L 933.0800170898438 102.8774032592773 L 934.051025390625 102.8774032592773 C 934.1597290039063 102.4050369262695 934.2724609375 101.93017578125 934.3880004882813 101.4581985473633 C 934.5668334960938 100.724723815918 934.73583984375 99.99823760986328 934.89013671875 99.29974365234375 C 934.9501342773438 99.02416229248047 935.0385131835938 98.70726776123047 935.3216552734375 98.47110748291016 L 935.3295288085938 98.46454620361328 L 935.3375244140625 98.45814514160156 C 935.6295776367188 98.22456359863281 935.9600830078125 98.20500183105469 936.2470092773438 98.20500183105469 L 936.6605834960938 98.20500183105469 C 936.896240234375 98.20500183105469 937.3865966796875 98.20500183105469 937.7227172851563 98.60896301269531 L 937.7289428710938 98.61644744873047 L 937.7349853515625 98.62404632568359 C 938.0673828125 99.03973388671875 937.9591674804688 99.53469848632813 937.9129638671875 99.74605560302734 L 937.9105834960938 99.75688934326172 L 937.907958984375 99.76767730712891 L 937.1554565429688 102.8774032592773 L 937.695068359375 102.8774032592773 C 937.966552734375 102.8774032592773 938.2542114257813 102.9047470092773 938.5185546875 103.1030960083008 C 938.9534301757813 103.4291458129883 938.9534301757813 103.9301452636719 938.9534301757813 104.1187438964844 L 938.9534301757813 104.3771057128906 C 938.9534301757813 104.5420074462891 938.9534301757813 105.0414505004883 938.527587890625 105.367919921875 C 938.2241821289063 105.6013870239258 937.8806762695313 105.6014022827148 937.695068359375 105.6014022827148 L 936.5326538085938 105.6014022827148 C 936.3501586914063 106.3551940917969 936.158935546875 107.163459777832 935.9530029296875 108.050895690918 C 935.7051391601563 109.1231307983398 935.4473876953125 110.206901550293 935.1871948242188 111.2714385986328 C 935.1234130859375 111.5673522949219 935.0254516601563 111.8702392578125 934.7571411132813 112.0934219360352 L 934.749755859375 112.0995788574219 L 934.7423095703125 112.1055755615234 C 934.4502563476563 112.3391876220703 934.1201782226563 112.3587493896484 933.8336791992188 112.3587493896484 L 933.2819213867188 112.3587493896484 C 932.99462890625 112.3587493896484 932.6636962890625 112.3391265869141 932.3715209960938 112.1048126220703 L 932.364501953125 112.0991821289063 L 932.3576049804688 112.0934219360352 C 932.0868530273438 111.8682098388672 931.9895629882813 111.5617218017578 931.9257202148438 111.2632064819336 L 930.6383056640625 105.6014022827148 L 930.4305419921875 105.6014022827148 C 930.238037109375 106.4020309448242 930.0468139648438 107.2187957763672 929.8599243164063 108.0386352539063 C 929.6273193359375 109.0670547485352 929.3783569335938 110.1486511230469 929.1202392578125 111.2519607543945 C 929.0648193359375 111.5051345825195 928.9856567382813 111.7919158935547 928.7589111328125 112.0197448730469 C 928.4231567382813 112.3587341308594 927.9789428710938 112.3587493896484 927.764404296875 112.3587493896484 L 927.2476806640625 112.3587493896484 C 926.9486694335938 112.3587493896484 926.6046142578125 112.3256988525391 926.3145751953125 112.0830612182617 C 926.0400390625 111.8546829223633 925.9407348632813 111.5486373901367 925.87548828125 111.2507171630859 L 924.5733642578125 105.6014022827148 L 923.4033813476563 105.6014022827148 C 923.207275390625 105.6014022827148 922.7991943359375 105.6014022827148 922.479736328125 105.2812271118164 C 922.1620483398438 104.9635467529297 922.1620483398438 104.5559539794922 922.1620483398438 104.3600769042969 L 922.1620483398438 104.1187438964844 C 922.1620483398438 103.922492980957 922.1620483398438 103.5141372680664 922.480712890625 103.1956558227539 L 922.4898071289063 103.1865692138672 L 922.4991455078125 103.1777191162109 C 922.8154907226563 102.8774032592773 923.2125854492188 102.8774032592773 923.4033813476563 102.8774032592773 L 923.939208984375 102.8774032592773 C 923.8717651367188 102.5810699462891 923.8043212890625 102.2826385498047 923.7373657226563 101.9835739135742 C 923.5555419921875 101.1716461181641 923.4039916992188 100.5019607543945 923.2608642578125 99.87796783447266 C 923.1875610351563 99.60402679443359 923.0526123046875 99.06206512451172 923.4161376953125 98.62120819091797 C 923.7584228515625 98.20500183105469 924.26708984375 98.20500183105469 924.5409545898438 98.20500183105469 Z" stroke="none" fill="#383838"/></g><path d="M921.8,76.553l-7.956-14.376h32.419l-7.956,14.376Z" transform="translate(-908.923 -62.177)" fill="#e6e6e6"/><path d="M968.637,91.387,954.285,84.9a.183.183,0,0,0-.154,0L939.78,91.387a.186.186,0,0,0,0,.34l7.08,3.2v5.1c0,.592,3.336,1.074,7.453,1.074s7.453-.482,7.453-1.074V94.836l6.871-3.109A.186.186,0,0,0,968.637,91.387Z" transform="translate(-910.307 -63.393)" fill="#ffc7c0"/><path d="M968.637,91.727l-6.871,3.109V92.948c0-.592-3.336-1.074-7.453-1.074s-7.453.482-7.453,1.074v1.984l-7.08-3.2a.186.186,0,0,1,0-.34L954.131,84.9a.183.183,0,0,1,.154,0l14.351,6.492A.186.186,0,0,1,968.637,91.727Z" transform="translate(-910.307 -63.393)" fill="none" stroke="#383838" stroke-linecap="round" stroke-linejoin="round" stroke-width="1"/><path d="M962.174,93.345c0-.593-3.337-1.074-7.454-1.074s-7.454.481-7.454,1.074v7.08c0,.592,3.337,1.074,7.453,1.074s7.453-.482,7.453-1.074v-7.08Z" transform="translate(-910.714 -63.79)" fill="none" stroke="#383838" stroke-linecap="round" stroke-linejoin="round" stroke-width="1"/><path d="M962.174,100.826c0,.592-3.337,1.074-7.454,1.074s-7.454-.482-7.454-1.074,3.337-1.074,7.454-1.074S962.174,100.233,962.174,100.826Z" transform="translate(-910.714 -64.191)" fill="none" stroke="#383838" stroke-linecap="round" stroke-linejoin="round" stroke-width="1"/><path d="M971.406,99.144a1.074,1.074,0,1,1-1.074-1.074A1.074,1.074,0,0,1,971.406,99.144Z" transform="translate(-911.893 -64.1)" fill="none" stroke="#383838" stroke-linecap="round" stroke-linejoin="round" stroke-width="1"/><path d="M950.73,102.333a19.071,19.071,0,0,1,.186,2.644,18.778,18.778,0,0,1-18.777,18.777h-4.718a18.777,18.777,0,0,1-13.77-31.542l6.814-7.354h18.63l3.065,3.308" transform="translate(-908.644 -63.392)" fill="none" stroke="#383838" stroke-linecap="round" stroke-linejoin="round" stroke-width="1"/><rect width="16.172" height="3.311" transform="translate(13.05 16.44)" stroke-width="1" stroke="#383838" stroke-linecap="round" stroke-linejoin="round" fill="#f2f2f2"/><path d="M914.053,62.177l7.831,14.376h16.371l7.831-14.376Z" transform="translate(-908.934 -62.177)" fill="none" stroke="#383838" stroke-linecap="round" stroke-linejoin="round" stroke-width="1"/></g><path d="M957.5,129.54H906.942v-8.634l-11.48,12.084H957.5Z" transform="translate(-895.462 -65.324)" fill="#15376c" stroke="#383838" stroke-linejoin="round" stroke-width="1"/></g></svg>