<svg xmlns="http://www.w3.org/2000/svg" width="72.061" height="73.074" viewBox="0 0 72.061 73.074"><g transform="translate(0.5 0.5)"><path d="M855.8,112.141a32.712,32.712,0,0,1-3.631-.378l-.076-.015q-.261-.047-.491-.1c-.924-.2-1.465-.444-1.465-.7v-6.085l-8.454-3.826a.222.222,0,0,1,0-.406l5.616-2.54-.788-1.3-3.661-3.95H820.609l-8.136,8.781a22.421,22.421,0,0,0,16.443,37.662h5.632a22.422,22.422,0,0,0,22.419-22.42,22.774,22.774,0,0,0-.221-3.157Z" transform="translate(-806.495 -67.204)" fill="#e6e6e6"/><path d="M822.209,82.918l-9.5-17.165h38.708l-9.5,17.165Z" transform="translate(-806.828 -65.753)" fill="#e6e6e6"/><path d="M856.746,113.7a22.916,22.916,0,0,1,.221,3.157,22.422,22.422,0,0,1-22.419,22.42h-5.632a22.421,22.421,0,0,1-16.443-37.662l8.136-8.781h22.244l3.661,3.95" transform="translate(-806.495 -67.204)" fill="none" stroke="#383838" stroke-linecap="round" stroke-linejoin="round" stroke-width="1"/><rect width="19.309" height="3.954" transform="translate(15.582 19.629)" stroke-width="1" stroke="#383838" stroke-linecap="round" stroke-linejoin="round" fill="#f2f2f2"/><path d="M812.954,65.753l9.35,17.165h19.548l9.35-17.165Z" transform="translate(-806.841 -65.753)" fill="none" stroke="#383838" stroke-linecap="round" stroke-linejoin="round" stroke-width="1"/><path d="M878.126,100.631l-17.136-7.752a.215.215,0,0,0-.184,0l-17.136,7.752a.222.222,0,0,0,0,.406l8.454,3.826v6.085c0,.708,3.983,1.282,8.9,1.282s8.9-.574,8.9-1.282v-6.2l8.2-3.711A.222.222,0,0,0,878.126,100.631Z" transform="translate(-808.48 -67.205)" fill="#aae0ec"/><path d="M878.126,101.037l-8.2,3.711v-2.253c0-.708-3.984-1.282-8.9-1.282s-8.9.574-8.9,1.282v2.369l-8.454-3.826a.222.222,0,0,1,0-.406l17.136-7.752a.217.217,0,0,1,.185,0l17.135,7.752A.222.222,0,0,1,878.126,101.037Z" transform="translate(-808.48 -67.205)" fill="none" stroke="#383838" stroke-linecap="round" stroke-linejoin="round" stroke-width="1"/><path d="M870.41,102.968c0-.709-3.984-1.283-8.9-1.283s-8.9.574-8.9,1.283v8.453c0,.708,3.983,1.282,8.9,1.282s8.9-.574,8.9-1.282v-8.453Z" transform="translate(-808.967 -67.678)" fill="none" stroke="#383838" stroke-linecap="round" stroke-linejoin="round" stroke-width="1"/><path d="M870.41,111.9c0,.708-3.984,1.282-8.9,1.282s-8.9-.574-8.9-1.282,3.984-1.282,8.9-1.282S870.41,111.192,870.41,111.9Z" transform="translate(-808.967 -68.157)" fill="none" stroke="#383838" stroke-linecap="round" stroke-linejoin="round" stroke-width="1"/><line y2="6.931" transform="translate(69.778 33.629)" stroke-width="1" stroke="#383838" stroke-linecap="round" stroke-linejoin="round" fill="none"/><path d="M881.435,109.892a1.283,1.283,0,1,1-1.283-1.282A1.283,1.283,0,0,1,881.435,109.892Z" transform="translate(-810.374 -68.05)" fill="none" stroke="#383838" stroke-linecap="round" stroke-linejoin="round" stroke-width="1"/><g transform="translate(16.406 41.843)"><g transform="translate(-823.83 -109.965)" fill="#ffcd73" stroke-miterlimit="10"><path d="M 836.5714721679688 124.9772033691406 L 835.9127197265625 124.9772033691406 C 835.6185913085938 124.9772033691406 835.4173583984375 124.9522705078125 835.25927734375 124.8248672485352 C 835.1018676757813 124.6980361938477 835.0343627929688 124.5049514770508 834.9713134765625 124.2145156860352 L 833.3104248046875 116.9081268310547 L 831.961669921875 116.9081268310547 C 831.6810302734375 118.0644149780273 831.4086303710938 119.2229614257813 831.1505737304688 120.3576431274414 C 830.87939453125 121.554801940918 830.5902709960938 122.8104019165039 830.266845703125 124.1953811645508 C 830.2080078125 124.4662094116211 830.1478271484375 124.6493911743164 830.0181884765625 124.7786407470703 C 829.854248046875 124.9432678222656 829.6226196289063 124.9772033691406 829.3258056640625 124.9772033691406 L 828.707763671875 124.9772033691406 C 828.42724609375 124.9772033691406 828.2061157226563 124.9486846923828 828.0390625 124.8097839355469 C 827.87841796875 124.6766586303711 827.8078002929688 124.4755020141602 827.7466430664063 124.1947784423828 L 826.0669555664063 116.9081268310547 L 824.11767578125 116.9081268310547 C 823.8889770507813 116.9081268310547 823.670166015625 116.8944931030273 823.5060424804688 116.7297668457031 C 823.3435668945313 116.5675201416016 823.3300170898438 116.3484573364258 823.3300170898438 116.1194763183594 L 823.3300170898438 115.8317718505859 C 823.3300170898438 115.607177734375 823.3429565429688 115.3920669555664 823.498779296875 115.2289581298828 L 823.50244140625 115.2250900268555 L 823.5062255859375 115.2213134765625 C 823.6702880859375 115.0567474365234 823.8890991210938 115.0431213378906 824.11767578125 115.0431213378906 L 825.6290893554688 115.0431213378906 C 825.4842529296875 114.415885925293 825.3385009765625 113.7752685546875 825.1941528320313 113.131233215332 C 825.0075073242188 112.2980651855469 824.814453125 111.4464340209961 824.6202392578125 110.5997695922852 C 824.5330200195313 110.2699508666992 824.4722290039063 109.9545669555664 824.6621704101563 109.7154998779297 L 824.6682739257813 109.7077789306641 L 824.6747436523438 109.7003021240234 C 824.8441772460938 109.5035018920898 825.0967407226563 109.4649963378906 825.4757690429688 109.4649963378906 L 825.8675537109375 109.4649963378906 C 826.2328491210938 109.4649963378906 826.423095703125 109.5082702636719 826.5695190429688 109.6246490478516 L 826.5771484375 109.6307067871094 L 826.5845336914063 109.6370620727539 C 826.7191162109375 109.7528076171875 826.79833984375 109.9200820922852 826.8873901367188 110.2762832641602 L 826.8888549804688 110.2821807861328 L 826.8901977539063 110.2881164550781 L 827.9563598632813 115.0431213378906 L 830.2029418945313 115.0431213378906 C 830.39404296875 114.199348449707 830.5504150390625 113.5134811401367 830.7009887695313 112.8587188720703 C 830.9009399414063 111.9884719848633 831.1133422851563 111.1118011474609 831.3322143554688 110.2531814575195 C 831.4214477539063 109.9135894775391 831.5042114257813 109.7465972900391 831.638671875 109.6334915161133 L 831.64404296875 109.6289825439453 L 831.6495361328125 109.6246185302734 C 831.8162841796875 109.4921417236328 832.0424194335938 109.4649963378906 832.3306274414063 109.4649963378906 L 833.0508422851563 109.4649963378906 C 833.3424682617188 109.4649963378906 833.57080078125 109.4927597045898 833.7373657226563 109.6282501220703 L 833.7405395507813 109.6308364868164 L 833.74365234375 109.6334915161133 C 833.9048461914063 109.7690811157227 833.974853515625 109.9782791137695 834.0346069335938 110.2715301513672 L 835.1176147460938 115.0431213378906 L 837.38525390625 115.0431213378906 C 837.5588989257813 114.2725524902344 837.7306518554688 113.5418167114258 837.90771484375 112.8203811645508 C 838.1185913085938 111.9540939331055 838.32177734375 111.082145690918 838.5113525390625 110.2297515869141 C 838.5731811523438 109.938232421875 838.6409301757813 109.7437896728516 838.8016357421875 109.615852355957 C 838.9594116210938 109.4897384643555 839.1602172851563 109.4649963378906 839.4532470703125 109.4649963378906 L 839.9463500976563 109.4649963378906 C 840.2182006835938 109.4649963378906 840.4985961914063 109.4824295043945 840.6771240234375 109.6907730102539 L 840.6868286132813 109.7021179199219 L 840.6958618164063 109.7140426635742 C 840.8603515625 109.9309921264648 840.820556640625 110.2017364501953 840.7657470703125 110.4604568481445 L 840.7642211914063 110.4675369262695 L 840.7625732421875 110.4745635986328 L 839.6554565429688 115.0431213378906 L 841.1823120117188 115.0431213378906 C 841.431884765625 115.0431213378906 841.6050415039063 115.0648803710938 841.7515869140625 115.1761169433594 C 841.9909057617188 115.3576736450195 841.9909057617188 115.6660766601563 841.9909057617188 115.8317718505859 L 841.9909057617188 116.1402969360352 C 841.9909057617188 116.2889022827148 841.9909057617188 116.5967102050781 841.7487182617188 116.7772598266602 C 841.6028442382813 116.8866348266602 841.4302978515625 116.9081268310547 841.1823120117188 116.9081268310547 L 839.2485961914063 116.9081268310547 C 838.9627075195313 118.0815048217773 838.686767578125 119.2441329956055 838.4271240234375 120.3695602416992 C 838.1216430664063 121.6903762817383 837.8135375976563 122.9850082397461 837.5112915039063 124.2177047729492 C 837.4505615234375 124.5024795532227 837.3844604492188 124.6928100585938 837.2301635742188 124.8206100463867 L 837.2249145507813 124.8249588012695 L 837.2195434570313 124.8291625976563 C 837.0614624023438 124.9529800415039 836.8621826171875 124.9772033691406 836.5714721679688 124.9772033691406 Z M 828.3499145507813 116.9081268310547 C 828.5330810546875 117.6922912597656 828.7116088867188 118.4552993774414 828.8859252929688 119.1962509155273 C 828.9520874023438 119.4772872924805 829.018798828125 119.7614669799805 829.086181640625 120.0486907958984 L 829.8435668945313 116.9081268310547 L 828.3499145507813 116.9081268310547 Z M 835.5131225585938 116.9081268310547 L 835.6754760742188 117.6038970947266 C 835.8023071289063 118.1477203369141 835.9269409179688 118.6819610595703 836.0494384765625 119.2064819335938 L 836.241943359375 120.0318222045898 L 836.97021484375 116.9081268310547 L 835.5131225585938 116.9081268310547 Z M 832.425537109375 115.0431213378906 L 832.8937377929688 115.0431213378906 C 832.8133544921875 114.7018508911133 832.7351684570313 114.3708267211914 832.658935546875 114.0500564575195 C 832.5773315429688 114.3962554931641 832.4999389648438 114.7249755859375 832.425537109375 115.0431213378906 Z" stroke="none"/><path d="M 825.4757690429688 109.9649963378906 C 825.229736328125 109.9649963378906 825.0886840820313 109.9858169555664 825.0536499023438 110.0265197753906 C 825.0205688476563 110.0681610107422 825.03662109375 110.2195892333984 825.105712890625 110.479850769043 C 825.2978515625 111.3174133300781 825.489990234375 112.1644515991211 825.6820678710938 113.0218963623047 C 825.8742065429688 113.8793334960938 826.0663452148438 114.7197418212891 826.2584838867188 115.5431213378906 L 824.11767578125 115.5431213378906 C 823.9672241210938 115.5431213378906 823.8810424804688 115.5535430908203 823.8602905273438 115.574348449707 C 823.8403930664063 115.5951766967773 823.8300170898438 115.6803436279297 823.8300170898438 115.8317718505859 L 823.8300170898438 116.1194763183594 C 823.8300170898438 116.2708969116211 823.8403930664063 116.3570327758789 823.8602905273438 116.3768997192383 C 823.8810424804688 116.3977279663086 823.9672241210938 116.4081268310547 824.11767578125 116.4081268310547 L 826.4647827148438 116.4081268310547 L 828.2345581054688 124.0853805541992 C 828.2762451171875 124.2774963378906 828.31689453125 124.3910675048828 828.3585205078125 124.4251403808594 C 828.3992309570313 124.4592132568359 828.515625 124.4772033691406 828.707763671875 124.4772033691406 L 829.3258056640625 124.4772033691406 C 829.5179443359375 124.4772033691406 829.6314697265625 124.4592132568359 829.66455078125 124.4251403808594 C 829.6995849609375 124.3910675048828 829.7374877929688 124.2774963378906 829.7791137695313 124.0853805541992 C 830.080078125 122.7963790893555 830.3753051757813 121.5168304443359 830.6630249023438 120.2467575073242 C 830.95166015625 118.9776229858398 831.2536010742188 117.6980895996094 831.5687866210938 116.4081268310547 L 833.7095336914063 116.4081268310547 L 835.4594116210938 124.1061935424805 C 835.5010375976563 124.2983169555664 835.5389404296875 124.4080963134766 835.572998046875 124.435546875 C 835.6070556640625 124.4629898071289 835.7196655273438 124.4772033691406 835.9127197265625 124.4772033691406 L 836.5714721679688 124.4772033691406 C 836.7635498046875 124.4772033691406 836.8761596679688 124.4629898071289 836.9111938476563 124.435546875 C 836.9443359375 124.4080963134766 836.983154296875 124.2983169555664 837.0238037109375 124.1061935424805 C 837.3399047851563 122.8171920776367 837.6446533203125 121.5338668823242 837.93994140625 120.2571563720703 C 838.2342529296875 118.9814071655273 838.5399780273438 117.6980895996094 838.8560180664063 116.4081268310547 L 841.1823120117188 116.4081268310547 C 841.3328247070313 116.4081268310547 841.4218139648438 116.3977279663086 841.44921875 116.3768997192383 C 841.4766845703125 116.3570327758789 841.4909057617188 116.2775268554688 841.4909057617188 116.1402969360352 L 841.4909057617188 115.8317718505859 C 841.4909057617188 115.6803436279297 841.4766845703125 115.5951766967773 841.44921875 115.574348449707 C 841.4218139648438 115.5535430908203 841.3328247070313 115.5431213378906 841.1823120117188 115.5431213378906 L 839.0198364257813 115.5431213378906 L 840.276611328125 110.3568115234375 C 840.3173217773438 110.1647033691406 840.323974609375 110.0511169433594 840.2974243164063 110.01611328125 C 840.26904296875 109.9829864501953 840.1526489257813 109.9649963378906 839.9463500976563 109.9649963378906 L 839.4532470703125 109.9649963378906 C 839.2611694335938 109.9649963378906 839.1475830078125 109.9792022705078 839.113525390625 110.0066528320313 C 839.0784912109375 110.0341033935547 839.0405883789063 110.1438674926758 838.9999389648438 110.3359985351563 C 838.8078002929688 111.2000579833984 838.6052856445313 112.0688705444336 838.393310546875 112.9395599365234 C 838.1793823242188 113.8112030029297 837.977783203125 114.6790466308594 837.7857055664063 115.5431213378906 L 834.7183837890625 115.5431213378906 L 833.5457763671875 110.3766860961914 C 833.504150390625 110.1713180541992 833.4634399414063 110.0511169433594 833.4218139648438 110.01611328125 C 833.381103515625 109.9829864501953 833.2571411132813 109.9649963378906 833.0508422851563 109.9649963378906 L 832.3306274414063 109.9649963378906 C 832.1251831054688 109.9649963378906 832.0022583007813 109.9829864501953 831.9605712890625 110.01611328125 C 831.9189453125 110.0511169433594 831.8706665039063 110.1713180541992 831.8167114257813 110.3766860961914 C 831.59619140625 111.2417068481445 831.3870239257813 112.1057662963867 831.1882934570313 112.9707870483398 C 830.9895629882813 113.8348617553711 830.7946166992188 114.6932525634766 830.6024780273438 115.5431213378906 L 827.5560302734375 115.5431213378906 L 826.4022827148438 110.3975067138672 C 826.347412109375 110.1779479980469 826.2991943359375 110.0511169433594 826.2584838867188 110.01611328125 C 826.216796875 109.9829864501953 826.0872192382813 109.9649963378906 825.8675537109375 109.9649963378906 L 825.4757690429688 109.9649963378906 M 833.5249633789063 115.5431213378906 L 831.7958984375 115.5431213378906 C 831.9321899414063 114.9535064697266 832.0769653320313 114.3392868041992 832.2274780273438 113.7014236450195 C 832.3788452148438 113.0625915527344 832.5227661132813 112.4493179321289 832.659912109375 111.858757019043 C 832.8114013671875 112.5174560546875 832.9552001953125 113.1354675292969 833.0924682617188 113.7118301391602 C 833.229736328125 114.2881927490234 833.37353515625 114.8986206054688 833.5249633789063 115.5431213378906 M 829.0787353515625 122.2124404907227 C 828.8450317382813 121.2111434936523 828.6188354492188 120.2439117431641 828.3992309570313 119.3107604980469 C 828.1796875 118.3776016235352 827.9534912109375 117.4094314575195 827.7197265625 116.4081268310547 L 830.4784545898438 116.4081268310547 L 829.0787353515625 122.2124404907227 M 836.2421264648438 122.2332611083984 C 836.0083618164063 121.2319564819336 835.7821044921875 120.2609634399414 835.5625610351563 119.3202209472656 C 835.343017578125 118.3804473876953 835.1168212890625 117.4094314575195 834.883056640625 116.4081268310547 L 837.6002197265625 116.4081268310547 L 836.2421264648438 122.2332611083984 M 825.4757690429688 108.9649963378906 L 825.8675537109375 108.9649963378906 C 826.2730712890625 108.9649963378906 826.6004638671875 109.010612487793 826.880615234375 109.2331924438477 L 826.8958129882813 109.2452697753906 L 826.9105224609375 109.2579193115234 C 827.1626586914063 109.4747695922852 827.2742309570313 109.761962890625 827.3724365234375 110.1550598144531 L 827.3753662109375 110.166862487793 L 827.3780517578125 110.1787185668945 L 828.3566284179688 114.5431213378906 L 829.8035888671875 114.5431213378906 C 829.9559326171875 113.8718643188477 830.0868530273438 113.2982177734375 830.2137451171875 112.7466506958008 C 830.41455078125 111.872673034668 830.6278686523438 110.9921112060547 830.8477172851563 110.1296615600586 L 830.8486328125 110.126106262207 L 830.8495483398438 110.1225662231445 C 830.9464721679688 109.7537231445313 831.0630493164063 109.4643096923828 831.3169555664063 109.2507705688477 L 831.32763671875 109.2417984008789 L 831.3385620117188 109.2331161499023 C 831.6351318359375 108.9974822998047 831.9906616210938 108.9649963378906 832.3306274414063 108.9649963378906 L 833.0508422851563 108.9649963378906 C 833.3954467773438 108.9649963378906 833.75537109375 108.9983596801758 834.0529174804688 109.2404022216797 L 834.0592041015625 109.2455368041992 L 834.0654296875 109.2507705688477 C 834.36474609375 109.5024719238281 834.4596557617188 109.8541717529297 834.5234375 110.1662521362305 L 835.516845703125 114.5431213378906 L 836.9859619140625 114.5431213378906 C 837.1304321289063 113.9110870361328 837.2744750976563 113.3029556274414 837.422119140625 112.7012023925781 C 837.6318969726563 111.8396224975586 837.8341064453125 110.9716644287109 838.0228881835938 110.1230392456055 C 838.0883178710938 109.8149642944336 838.1847534179688 109.4675140380859 838.49072265625 109.2242660522461 C 838.7908935546875 108.9850997924805 839.144775390625 108.9649963378906 839.4532470703125 108.9649963378906 L 839.9463500976563 108.9649963378906 C 840.2145385742188 108.9649963378906 840.713623046875 108.9649963378906 841.0567626953125 109.3654327392578 L 841.076171875 109.3880920410156 L 841.09423828125 109.4118576049805 C 841.41064453125 109.8291091918945 841.305419921875 110.3255386352539 841.2548828125 110.5641174316406 L 841.2518920898438 110.5782623291016 L 841.2484741210938 110.5923233032227 L 840.2910766601563 114.5431213378906 L 841.1823120117188 114.5431213378906 C 841.4544067382813 114.5431213378906 841.7685546875 114.5612564086914 842.0538940429688 114.7778930664063 C 842.4909057617188 115.1093673706055 842.4909057617188 115.6342010498047 842.4909057617188 115.8317718505859 L 842.4909057617188 116.1402969360352 C 842.4909057617188 116.3353729248047 842.4909057617188 116.8517761230469 842.0429077148438 117.1816101074219 C 841.7605590820313 117.3904647827148 841.450927734375 117.4081268310547 841.1823120117188 117.4081268310547 L 839.6416015625 117.4081268310547 C 839.3892211914063 118.4498443603516 839.1453247070313 119.4806137084961 838.9143676757813 120.4819488525391 C 838.60888671875 121.8025817871094 838.3009033203125 123.0967712402344 837.9987182617188 124.3294067382813 C 837.9345703125 124.6288146972656 837.8394775390625 124.9651565551758 837.549072265625 125.2056732177734 L 837.53857421875 125.2143707275391 L 837.52783203125 125.2227783203125 C 837.2281494140625 125.4575424194336 836.8770141601563 125.4772033691406 836.5714721679688 125.4772033691406 L 835.9127197265625 125.4772033691406 C 835.6026611328125 125.4772033691406 835.2466430664063 125.4568786621094 834.9454956054688 125.2141799926758 C 834.6461181640625 124.9728851318359 834.5494995117188 124.6280746459961 834.483154296875 124.3228530883789 L 832.9113159179688 117.4081268310547 L 832.3551635742188 117.4081268310547 C 832.107666015625 118.4348907470703 831.8672485351563 119.4611358642578 831.6381225585938 120.4685287475586 C 831.3670043945313 121.665412902832 831.077880859375 122.9208221435547 830.7545776367188 124.3055801391602 C 830.677734375 124.65771484375 830.58544921875 124.9203338623047 830.3695068359375 125.1343994140625 C 830.025390625 125.477180480957 829.5538330078125 125.4772033691406 829.3258056640625 125.4772033691406 L 828.707763671875 125.4772033691406 C 828.3870849609375 125.4772033691406 828.0189819335938 125.4435119628906 827.7191162109375 125.1940078735352 C 827.4344482421875 124.9576568603516 827.3291625976563 124.6267471313477 827.2586059570313 124.303352355957 L 825.6690673828125 117.4081268310547 L 824.11767578125 117.4081268310547 C 823.8934326171875 117.4081268310547 823.47607421875 117.4081268310547 823.1517944335938 117.082649230957 C 822.8300170898438 116.7613296508789 822.8300170898438 116.3438034057617 822.8300170898438 116.1194763183594 L 822.8300170898438 115.8317718505859 C 822.8300170898438 115.6127700805664 822.8300170898438 115.2051315307617 823.13720703125 114.8835678100586 L 823.1445922851563 114.8758392333984 L 823.1521606445313 114.8682632446289 C 823.4763793945313 114.5431213378906 823.8935546875 114.5431213378906 824.11767578125 114.5431213378906 L 825.0011596679688 114.5431213378906 C 824.902587890625 114.1122589111328 824.8040771484375 113.6770706176758 824.706298828125 113.2405471801758 C 824.5204467773438 112.4109344482422 824.3281860351563 111.5629577636719 824.1348266601563 110.7198791503906 C 824.0476684570313 110.3911972045898 823.9131469726563 109.8545074462891 824.2706909179688 109.4044876098633 L 824.2828979492188 109.3890914916992 L 824.2957153320313 109.3741836547852 C 824.6206665039063 108.9966201782227 825.0752563476563 108.9649963378906 825.4757690429688 108.9649963378906 Z" stroke="none" fill="#383838"/></g></g></g></svg>