<svg xmlns="http://www.w3.org/2000/svg" width="70.352" height="68.161" viewBox="0 0 70.352 68.161"><g transform="translate(0 0)"><g transform="translate(0.776 0.482)"><path d="M375.458,181.251V165.468a5.568,5.568,0,0,1,11.135.018v15.765Z" transform="translate(-375.458 -159.98)" fill="#15376c"/></g><g transform="translate(5.472 0.001)"><path d="M444.736,227.64H393.32a6.739,6.739,0,0,1-6.731-6.731v-54.7a5.775,5.775,0,0,0-5.77-5.769.481.481,0,0,1,0-.962h51.416a6.739,6.739,0,0,1,6.731,6.731v54.7a5.776,5.776,0,0,0,5.77,5.769.481.481,0,0,1,0,.962Zm-60.453-67.2a6.732,6.732,0,0,1,3.267,5.769v54.7a5.775,5.775,0,0,0,5.769,5.769h47.951A6.735,6.735,0,0,1,438,220.908v-54.7a5.775,5.775,0,0,0-5.769-5.769Z" transform="translate(-380.338 -159.48)" fill="#383838"/></g><g transform="translate(5.47)"><path d="M381.053,160.45c-.014,0-.028,0-.054,0-.042,0-.086,0-.129,0h-.053a.481.481,0,0,1,0-.962h.308a.481.481,0,1,1,0,.962h-.015A.332.332,0,0,1,381.053,160.45Z" transform="translate(-380.336 -159.479)" fill="#383838"/></g><g transform="translate(33.656 12.41)"><path d="M433.412,173.335H410.1a.481.481,0,1,1,0-.961h23.309a.481.481,0,1,1,0,.961Z" transform="translate(-409.622 -172.374)" fill="#383838"/></g><g transform="translate(33.656 18.58)"><path d="M433.412,179.746H410.1a.481.481,0,1,1,0-.961h23.309a.481.481,0,1,1,0,.961Z" transform="translate(-409.622 -178.785)" fill="#383838"/></g><g transform="translate(33.656 24.751)"><path d="M433.412,186.157H410.1a.481.481,0,1,1,0-.961h23.309a.481.481,0,1,1,0,.961Z" transform="translate(-409.622 -185.196)" fill="#383838"/></g><g transform="translate(33.656 30.922)"><path d="M433.412,192.569H410.1a.481.481,0,1,1,0-.961h23.309a.481.481,0,1,1,0,.961Z" transform="translate(-409.622 -191.608)" fill="#383838"/></g><g transform="translate(33.656 37.092)"><path d="M433.412,198.98H410.1a.481.481,0,1,1,0-.961h23.309a.481.481,0,1,1,0,.961Z" transform="translate(-409.622 -198.019)" fill="#383838"/></g><g transform="translate(0 0.008)"><path d="M386.855,181.7H375.133a.481.481,0,0,1-.481-.481V166.2a6.353,6.353,0,1,1,12.684.016v15.01A.481.481,0,0,1,386.855,181.7Zm-11.24-.962h10.759V166.213a5.745,5.745,0,0,0-5.561-5.766,5.8,5.8,0,0,0-5.2,5.749Z" transform="translate(-374.652 -159.487)" fill="#383838"/></g></g><g transform="translate(34.137 48.229)"><path d="M431.46,217.906h-.922v-.922h.922Zm1.972,0h-.922v-.922h.922Zm-3.816,0h-.922v-.922h.922Zm-1.844,0h-.922v-.922h.922Zm-1.844,0h-.922v-.922h.922Zm-1.844,0h-.922v-.922h.922Zm-1.844,0h-.923v-.922h.923Zm-1.845,0h-.922v-.922h.922Zm-1.844,0h-.922v-.922h.922Zm-1.844,0h-.922v-.922h.922Zm-1.844,0h-.922v-.922h.922Zm-1.844,0H412.1v-.922h.922Zm-1.975,0h-.922v-.922h.922Zm0-1.713h-.922v-.922h.922Zm0-1.844h-.922v-.922h.922Zm0-1.844h-.922v-.922h.922Zm18.441-1.992h-.922v-.922h.922Zm1.962,0h-.922v-.922h.922Zm-3.806,0h-.922v-.922h.922Zm-1.844,0h-.922v-.922h.922Zm-1.844,0h-.922v-.922h.922Zm-1.844,0h-.922v-.922h.922Zm-1.844,0h-.922v-.922h.922Zm-1.844,0H417.5v-.922h.922Zm-1.844,0h-.922v-.922h.922Zm-1.845,0h-.922v-.922h.922Zm-1.844,0h-.922v-.922h.922Zm-1.844,0h-.922v-.922h.922Zm22.388,5.68h-.922v-.922h.922Zm0-1.844h-.922v-.922h.922Zm0-1.844h-.922v-.922h.922Zm0-1.992h-.922v-.922h.922Z" transform="translate(-410.122 -209.591)" fill="#383838"/></g><g transform="translate(35.981 50.221)"><rect width="19.493" height="4.61" fill="#ffa400"/></g><g transform="translate(20.074 11.758)"><path d="M401.585,174.566l-.651,2.9a.141.141,0,0,1-.033.068.18.18,0,0,1-.089.013h-.642c-.06,0-.094,0-.1-.013a.209.209,0,0,1-.029-.068l-.658-2.9h-.6l-.659,2.9a.163.163,0,0,1-.028.068.21.21,0,0,1-.1.013h-.642a.181.181,0,0,1-.09-.013.134.134,0,0,1-.032-.068l-.652-2.9h-.959a.1.1,0,0,1-.073-.028.087.087,0,0,1-.034-.069v-.561a.086.086,0,0,1,.034-.068.1.1,0,0,1,.073-.029h.8l-.455-2a.105.105,0,0,1,0-.085c.011-.019.052-.029.122-.029h.61a.185.185,0,0,1,.081.013c.016.008.03.031.04.068l.448,2.034h.9l.464-2.034c.01-.038.022-.061.037-.068a.153.153,0,0,1,.077-.013h.683a.161.161,0,0,1,.077.013c.013.008.025.031.037.068L400,173.81h.9l.448-2.034c.011-.038.024-.061.04-.068a.187.187,0,0,1,.082-.013h.609c.071,0,.112.01.122.029a.113.113,0,0,1,0,.085l-.455,2h.788c.07,0,.107.032.107.1v.561a.087.087,0,0,1-.034.069.106.106,0,0,1-.073.028Zm-3.887,1.261.285-1.261h-.561Zm1.26-2.016h.244l-.122-.553Zm1.505,2.016.276-1.261h-.561Z" transform="translate(-395.51 -171.696)" fill="#383838"/></g><g transform="translate(20.074 22.139)"><path d="M401.585,185.353l-.651,2.895a.151.151,0,0,1-.033.069.2.2,0,0,1-.089.012h-.642a.228.228,0,0,1-.1-.012.231.231,0,0,1-.029-.069l-.658-2.895h-.6l-.659,2.895a.176.176,0,0,1-.028.069.231.231,0,0,1-.1.012h-.642a.2.2,0,0,1-.09-.012.143.143,0,0,1-.032-.069l-.652-2.895h-.959a.1.1,0,0,1-.073-.029.087.087,0,0,1-.034-.069v-.561a.086.086,0,0,1,.034-.068.1.1,0,0,1,.073-.029h.8l-.455-2a.105.105,0,0,1,0-.085c.011-.019.052-.029.122-.029h.61a.185.185,0,0,1,.081.013q.025.012.04.069l.448,2.033h.9l.464-2.033c.01-.038.022-.062.037-.069a.153.153,0,0,1,.077-.013h.683a.161.161,0,0,1,.077.013c.013.008.025.031.037.069L400,184.6h.9l.448-2.033q.016-.058.04-.069a.188.188,0,0,1,.082-.013h.609c.071,0,.112.01.122.029a.114.114,0,0,1,0,.085l-.455,2h.788c.07,0,.107.033.107.1v.561a.087.087,0,0,1-.034.069.107.107,0,0,1-.073.029Zm-3.887,1.261.285-1.261h-.561Zm1.26-2.017h.244l-.122-.553Zm1.505,2.017.276-1.261h-.561Z" transform="translate(-395.51 -182.482)" fill="#383838"/></g><g transform="translate(20.074 49.456)"><path d="M401.585,213.736l-.651,2.9a.141.141,0,0,1-.033.068.18.18,0,0,1-.089.013h-.642c-.06,0-.094,0-.1-.013a.209.209,0,0,1-.029-.068l-.658-2.9h-.6l-.659,2.9a.163.163,0,0,1-.028.068.21.21,0,0,1-.1.013h-.642a.181.181,0,0,1-.09-.013.134.134,0,0,1-.032-.068l-.652-2.9h-.959a.1.1,0,0,1-.073-.028.088.088,0,0,1-.034-.069v-.561a.089.089,0,0,1,.034-.069.1.1,0,0,1,.073-.028h.8l-.455-2a.105.105,0,0,1,0-.085c.011-.019.052-.029.122-.029h.61a.185.185,0,0,1,.081.013c.016.008.03.031.04.068l.448,2.034h.9l.464-2.034c.01-.038.022-.061.037-.068a.153.153,0,0,1,.077-.013h.683a.161.161,0,0,1,.077.013c.013.008.025.031.037.068L400,212.98h.9l.448-2.034c.011-.038.024-.061.04-.068a.187.187,0,0,1,.082-.013h.609c.071,0,.112.01.122.029a.113.113,0,0,1,0,.085l-.455,2h.788c.07,0,.107.032.107.1v.561a.088.088,0,0,1-.034.069.106.106,0,0,1-.073.028ZM397.7,215l.285-1.261h-.561Zm1.26-2.016h.244l-.122-.553ZM400.463,215l.276-1.261h-.561Z" transform="translate(-395.51 -210.866)" fill="#383838"/></g></svg>