<svg xmlns="http://www.w3.org/2000/svg" width="68.612" height="64.957" viewBox="0 0 68.612 64.957"><g transform="translate(0.382 0.58)"><path d="M760.687,99.131a9.259,9.259,0,1,1-18.517,0,9.248,9.248,0,0,1,9.259-9.259,9.2,9.2,0,0,1,4.525,1.183l-1.307,1.088L753.31,93.26a3.514,3.514,0,0,0,3.92,5.792l1.818-.98,1.455-.789A9.293,9.293,0,0,1,760.687,99.131Z" transform="translate(-717.574 -70.511)" fill="#ffcd73"/><g transform="translate(0 0.008)"><path d="M776.892,116.492l-18.811,7.934c-3.527,1.488-7.058,2.214-10.817,1.065a3.54,3.54,0,0,0,4.075-4.781l0,0-.01-.021a3.529,3.529,0,0,0-.611-.993c-.03-.035-.062-.067-.093-.1a3.566,3.566,0,0,0-.338-.315c-.035-.028-.068-.058-.1-.085a3.5,3.5,0,0,0-.5-.322l-12.866-6.713a2.478,2.478,0,0,0-1.146-.281h-19.5V126.2h9.335l18.261,7.895a17.014,17.014,0,0,0,14.2-.318l21.92-10.664a3.635,3.635,0,0,0-3-6.617Z" transform="translate(-716.181 -71.698)" fill="#e6e6e6"/><path d="M783.924,78.707H772.888l-18.26-7.894a16.759,16.759,0,0,0-1.593-.588c-.076-.024-.151-.051-.227-.074-.051-.015-.1-.035-.152-.049l0,.009a17.008,17.008,0,0,0-12.222,1.019L718.51,81.794a3.635,3.635,0,0,0,3,6.617L737.7,81.584l.042,0a9.769,9.769,0,0,0,.962,11.157l2.42,2.828.029-.011a9.526,9.526,0,0,1,5.584-6.157l-.017,0a6.073,6.073,0,0,1,.172-6.11,5.249,5.249,0,0,1,4.461-2.483h1.365a4.651,4.651,0,0,1,2.976,8.224l-1.12.935-1.306,1.088-.22-.055c-1.559,1.239-3.515,3.457-1.723,5.921,2.729,3.753,7.8-.726,7.8-.726l2.825-1.525a13.723,13.723,0,0,1,6.507-1.643h15.912l0-14.312h-.443ZM756.9,97.393l-.136.074.3-.164Z" transform="translate(-716.196 -69.423)" fill="#e6e6e6"/></g><g transform="translate(0.416 40.193)"><path d="M716.621,111.884H735.7a2.477,2.477,0,0,1,1.145.281l12.866,6.713a3.554,3.554,0,0,1,1.91,3.151h0a3.554,3.554,0,0,1-5.082,3.207l-11.467-5.465" transform="translate(-716.621 -111.884)" fill="none" stroke="#383838" stroke-linecap="round" stroke-linejoin="round" stroke-width="1"/><path d="M716.621,126.441h8.919l18.261,7.895a17.014,17.014,0,0,0,14.2-.318l21.92-10.664a3.635,3.635,0,0,0,1.723-4.761h0a3.633,3.633,0,0,0-4.725-1.855L758.1,124.671c-4.531,1.911-9.067,2.581-14.086-.392h0" transform="translate(-716.621 -112.129)" fill="none" stroke="#383838" stroke-linecap="round" stroke-linejoin="round" stroke-width="1"/><g transform="translate(32.8 6.843)"><path d="M751.278,119.114l.291.152a3.548,3.548,0,0,1,1.655,1.835" transform="translate(-751.278 -119.114)" fill="none" stroke="#383838" stroke-linecap="round" stroke-linejoin="round" stroke-width="1"/></g></g><g transform="translate(0.269)"><path d="M783.926,78.707H772.888l-18.261-7.895a17.016,17.016,0,0,0-14.2.318L718.51,81.794a3.634,3.634,0,0,0-1.723,4.761h0a3.634,3.634,0,0,0,4.725,1.856L737.7,81.584" transform="translate(-716.465 -69.415)" fill="none" stroke="#383838" stroke-linecap="round" stroke-linejoin="round" stroke-width="1"/><path d="M742.255,95.6l-2.42-2.828a9.771,9.771,0,0,1-.953-11.176l1.059-1.818,2.638-4.537a10.541,10.541,0,0,1,3.727-3.77,10.4,10.4,0,0,1,7.45-1.264l.03-.072a16.567,16.567,0,0,1,1.971.711l18.261,7.894h11.038" transform="translate(-717.596 -69.445)" fill="none" stroke="#383838" stroke-linecap="round" stroke-linejoin="round" stroke-width="1"/><path d="M785.6,93.664H770.128a13.723,13.723,0,0,0-6.507,1.643L760.8,96.832l-1.455.789-1.818.98a3.514,3.514,0,0,1-3.92-5.792l1.336-1.117,1.307-1.088,1.12-.935a4.651,4.651,0,0,0-2.976-8.224h-1.365a5.249,5.249,0,0,0-4.461,2.483,6.073,6.073,0,0,0-.172,6.11" transform="translate(-718.137 -70.059)" fill="none" stroke="#383838" stroke-linecap="round" stroke-linejoin="round" stroke-width="1"/></g><g transform="translate(24.596 19.361)"><path d="M761.062,97.35l-1.455.789-1.818.98a3.514,3.514,0,0,1-3.92-5.792l1.336-1.117,1.307-1.088" transform="translate(-742.729 -89.939)" fill="none" stroke="#383838" stroke-linecap="round" stroke-linejoin="round" stroke-width="1"/><path d="M760.687,99.131a9.259,9.259,0,1,1-18.517,0,9.248,9.248,0,0,1,9.259-9.259,9.2,9.2,0,0,1,4.525,1.183l-1.307,1.088L753.31,93.26a3.514,3.514,0,0,0,3.92,5.792l1.818-.98,1.455-.789A9.293,9.293,0,0,1,760.687,99.131Z" transform="translate(-742.17 -89.872)" fill="none" stroke="#383838" stroke-linecap="round" stroke-linejoin="round" stroke-width="1"/></g><path d="M753.046,98.683h-.2l-.085-.376a3.348,3.348,0,0,1-.518-1.789,3.241,3.241,0,0,1,.033-.336l0-.015a.161.161,0,0,0-.045-.085.22.22,0,0,0-.1-.015h-.845a.208.208,0,0,0-.1.015.144.144,0,0,0-.045.085l-.573,2.516h-1.118l-.554-2.516a.131.131,0,0,0-.05-.085.246.246,0,0,0-.1-.015H748c-.087,0-.138.011-.151.036a.14.14,0,0,0,0,.105l.563,2.475h-.985a.136.136,0,0,0-.091.036.108.108,0,0,0-.04.085V99.5a.11.11,0,0,0,.04.085.135.135,0,0,0,.091.035h1.187l.805,3.582a.2.2,0,0,0,.04.086.246.246,0,0,0,.111.015h.795a.277.277,0,0,0,.126-.015.245.245,0,0,0,.035-.086l.815-3.582h.745l.815,3.582a.292.292,0,0,0,.035.086.28.28,0,0,0,.127.015h.794a.24.24,0,0,0,.111-.015A.187.187,0,0,0,754,103.2l.778-3.461A3.146,3.146,0,0,1,753.046,98.683Zm-3.049,2.5-.342-1.56h.694Zm1.56-2.5.151-.684.15.684Zm1.862,2.5-.352-1.56h.694Z" transform="translate(-717.848 -70.843)" fill="#383838"/><line y2="7.384" transform="translate(41.35 39.651)" stroke-width="1" stroke="#383838" stroke-linecap="round" stroke-linejoin="round" fill="none"/><line y2="4.073" transform="translate(37.31 41.551)" stroke-width="1" stroke="#383838" stroke-linecap="round" stroke-linejoin="round" fill="none"/></g></svg>