<svg xmlns="http://www.w3.org/2000/svg" width="94.241" height="66.938" viewBox="0 0 94.241 66.938"><g transform="translate(-933.5 -1388.066)"><path d="M772.638,632.873v-25.9c0-.127.005-.253.014-.379a4.99,4.99,0,0,1,2.953-4.1l10.12-4.656a6.535,6.535,0,0,0,2.529-1.981,6.621,6.621,0,0,0,.8-1.406l3.548-8.512a4.169,4.169,0,0,0-3.025-5.692h0a4.17,4.17,0,0,0-4.459,2.046l-2.853,5.081-.015.027a3.872,3.872,0,0,1-3.37,1.895c-2.278.006-6.978.019-7.692.019h-13.7l-5.4.135c-3.246,0-11.1,3.486-11.1,11.593v9.087a5.881,5.881,0,0,0,2.048,4.46l3.5,3.611v14.673" transform="translate(193.009 821.631)" fill="#e6e6e6"/><g transform="translate(193.009 821.631)"><circle cx="9.114" cy="9.114" r="9.114" transform="translate(806.532 570.917)" fill="#ffcd73"/><path d="M759.918,589.314a9.109,9.109,0,1,1,9.108-9.109A9.119,9.119,0,0,1,759.918,589.314Z" fill="#ffcd73"/><circle cx="9.114" cy="9.114" r="9.114" transform="translate(802.757 580.031) rotate(-45)" fill="none" stroke="#383838" stroke-linecap="round" stroke-linejoin="round" stroke-width="1"/><path d="M823.9,599.379v6.681a16.535,16.535,0,0,1-1.218,6.227l-.3.742a5.211,5.211,0,0,0,4.827,7.174h0a5.21,5.21,0,0,0,4.9-3.449l1.142-3.176a16.535,16.535,0,0,0,.973-5.589v-8.407a10.439,10.439,0,0,0-10.439-10.439h-10" fill="none" stroke="#383838" stroke-linecap="round" stroke-linejoin="round" stroke-width="1"/><path d="M823.9,599.379v6.681a16.535,16.535,0,0,1-1.218,6.227l-.3.742a5.211,5.211,0,0,0,4.827,7.174h0a5.21,5.21,0,0,0,4.9-3.449l1.142-3.176a16.535,16.535,0,0,0,.973-5.589v-8.407a10.439,10.439,0,0,0-10.439-10.439h-10" fill="none" stroke="#383838" stroke-linecap="round" stroke-linejoin="round" stroke-width="1"/><path d="M789.571,593.216l11.212,8.14a6.526,6.526,0,0,1,2.693,5.284v26.088" fill="none" stroke="#383838" stroke-linecap="round" stroke-linejoin="round" stroke-width="1"/><path d="M782.031,587.743l-.324-.237a4.809,4.809,0,0,1,5.32-8l1.154.7" fill="none" stroke="#383838" stroke-linecap="round" stroke-linejoin="round" stroke-width="1"/><path d="M792.686,582.936l8.672,5.262a6.532,6.532,0,0,0,3.388.946h19.046a10.44,10.44,0,0,1,10.44,10.44v8.406a16.556,16.556,0,0,1-.975,5.59l-1.143,3.173a5.207,5.207,0,0,1-4.9,3.45,5.352,5.352,0,0,1-1.194-.135,5.213,5.213,0,0,1-3.635-7.038l.3-.742a16.556,16.556,0,0,0,1.219-6.23v-6.681" fill="none" stroke="#383838" stroke-linecap="round" stroke-linejoin="round" stroke-width="1"/><line x1="10.001" transform="translate(813.79 589.143)" stroke-width="1" stroke="#383838" stroke-linecap="round" stroke-linejoin="round" fill="none"/><path d="M823.9,599.379v6.681a16.535,16.535,0,0,1-1.218,6.227l-.3.742a5.211,5.211,0,0,0,4.827,7.174h0a5.21,5.21,0,0,0,4.9-3.449l1.142-3.176a16.535,16.535,0,0,0,.973-5.589" fill="none" stroke="#383838" stroke-linecap="round" stroke-linejoin="round" stroke-width="1"/><line y1="9.854" transform="translate(803.476 608.193)" stroke-width="1" stroke="#383838" stroke-linecap="round" stroke-linejoin="round" fill="none"/><line y2="12.526" transform="translate(828.113 620.203)" stroke-width="1" stroke="#383838" stroke-linecap="round" stroke-linejoin="round" fill="none"/><line y1="5.345" transform="translate(815.885 627.384)" stroke-width="1" stroke="#383838" stroke-linecap="round" stroke-linejoin="round" fill="none"/><line y2="15.911" transform="translate(746.542 602.289)" stroke-width="1" stroke="#383838" stroke-linecap="round" stroke-linejoin="round" fill="none"/><line y2="30.584" transform="translate(746.542 602.289)" stroke-width="1" stroke="#383838" stroke-linecap="round" stroke-linejoin="round" fill="none"/><circle cx="9.108" cy="9.108" r="9.108" transform="translate(748.001 575.314) rotate(-22.682)" fill="none" stroke="#383838" stroke-linecap="round" stroke-linejoin="round" stroke-width="1"/><path d="M746.542,618.2l-3.5-3.611a5.881,5.881,0,0,1-2.048-4.46v-9.087c0-8.107,7.855-11.593,11.1-11.593l5.4-.135h13.7c.714,0,5.414-.013,7.692-.019a3.872,3.872,0,0,0,3.37-1.895l.015-.027,2.853-5.081a4.17,4.17,0,0,1,4.459-2.046h0a4.169,4.169,0,0,1,3.025,5.692l-3.548,8.512a6.621,6.621,0,0,1-.8,1.406,6.535,6.535,0,0,1-2.529,1.981l-10.12,4.656a4.99,4.99,0,0,0-2.953,4.1c-.009.126-.014.252-.014.379v25.9" fill="none" stroke="#383838" stroke-linecap="round" stroke-linejoin="round" stroke-width="1"/><line y1="5.342" transform="translate(759.018 627.531)" stroke-width="1" stroke="#383838" stroke-linecap="round" stroke-linejoin="round" fill="none"/><path d="M794.926,582.061l1.122-7.464-5.8,1.753-.712-5.2-4.385,3.017-3.347-3.417-1.16,4.814-5.367-.55,2.012,4.253-4.242,2.518,4.77,3.984s-1.689-6.818,5.1-8.839a6.131,6.131,0,0,1,6.094,1.519,5.208,5.208,0,0,1,3.322.585A7.46,7.46,0,0,1,794.926,582.061Z" fill="#15376c"/><path d="M777.821,585.771l-4.77-3.984,4.243-2.518-2.012-4.253,5.366.55,1.161-4.815,3.346,3.418,4.385-3.017.712,5.2,5.8-1.753-1.122,7.464" fill="none" stroke="#383838" stroke-linecap="round" stroke-linejoin="round" stroke-width="1"/></g></g></svg>