<svg xmlns="http://www.w3.org/2000/svg" width="84.5" height="57.832" viewBox="0 0 84.5 57.832"><g transform="translate(0.5 0.5)"><g transform="translate(14.565 7.461)"><path d="M764.39,257.54a46.726,46.726,0,0,1-24.865,7.165h-3.269v17.737h3.269A46.734,46.734,0,0,1,764.39,289.6l6.751,4.243a3.812,3.812,0,0,0,5.84-3.228v-34.1a3.812,3.812,0,0,0-5.84-3.227Z" transform="translate(-729.493 -252.707)" fill="none" stroke="#383838" stroke-linecap="round" stroke-linejoin="round" stroke-width="1"/><path d="M735,282.817h1.046V265.08H735a5.718,5.718,0,0,0-5.718,5.718v6.3A5.719,5.719,0,0,0,735,282.817Z" transform="translate(-729.281 -253.083)" fill="#15376c"/><path d="M735,282.817h1.046V265.08H735a5.718,5.718,0,0,0-5.718,5.718v6.3A5.719,5.719,0,0,0,735,282.817Z" transform="translate(-729.281 -253.083)" fill="none" stroke="#383838" stroke-linecap="round" stroke-linejoin="round" stroke-width="1"/><path d="M745.435,283.745v13.046H741.1l-4.844-13.421h3.271A46.022,46.022,0,0,1,745.435,283.745Z" transform="translate(-729.493 -253.638)" fill="none" stroke="#383838" stroke-linecap="round" stroke-linejoin="round" stroke-width="1"/><line x2="13.831" transform="translate(55.105 20.865)" stroke-width="1" stroke="#383838" stroke-linecap="round" stroke-linejoin="round" fill="none"/><line y1="5.368" x2="9.875" transform="translate(53.738 3.786)" stroke-width="1" stroke="#383838" stroke-linecap="round" stroke-linejoin="round" fill="none"/><line x2="9.875" y2="5.368" transform="translate(53.738 31.82)" stroke-width="1" stroke="#383838" stroke-linecap="round" stroke-linejoin="round" fill="none"/></g><path d="M762.767,253.334a28.416,28.416,0,1,0,0,40.186A28.421,28.421,0,0,0,762.767,253.334Zm-35.387,4.8a21.613,21.613,0,0,1,27.806-2.326l-30.134,30.134A21.614,21.614,0,0,1,727.38,258.131Zm30.594,30.6a21.616,21.616,0,0,1-27.811,2.325L760.3,260.916A21.627,21.627,0,0,1,757.974,288.726Z" transform="translate(-714.261 -245.013)" fill="#ffc7c0"/><path d="M762.767,253.334a28.416,28.416,0,1,0,0,40.186A28.421,28.421,0,0,0,762.767,253.334Zm-35.387,4.8a21.613,21.613,0,0,1,27.806-2.326l-30.134,30.134A21.614,21.614,0,0,1,727.38,258.131Zm30.594,30.6a21.616,21.616,0,0,1-27.811,2.325L760.3,260.916A21.627,21.627,0,0,1,757.974,288.726Z" transform="translate(-714.261 -245.013)" fill="none" stroke="#383838" stroke-linecap="round" stroke-linejoin="round" stroke-width="1"/></g></svg>