<svg xmlns="http://www.w3.org/2000/svg" width="77.268" height="88.477" viewBox="0 0 77.268 88.477"><g transform="translate(-1041.063 -537.662)"><g transform="translate(1041.766 566.865)"><rect width="13.978" height="30.621" transform="translate(45.643 8.859) rotate(-39.329)" fill="#ffc7c0"/><rect width="30.621" height="13.978" transform="translate(0 23.686) rotate(-50.671)" fill="#15376c"/><rect width="13.978" height="30.621" transform="translate(45.643 8.859) rotate(-39.329)" stroke-width="1" stroke="#383838" stroke-linecap="round" stroke-linejoin="round" fill="none"/><circle cx="2.562" cy="2.562" r="2.562" transform="translate(52.324 6.551)" fill="#fff" stroke="#383838" stroke-linecap="round" stroke-linejoin="round" stroke-width="1"/><path d="M1080.043,625.952a2.257,2.257,0,0,0,1.045.485l-1.682,1.439-.89.728a2.314,2.314,0,0,1-3.261-.325l-.76-.927a2.32,2.32,0,0,1,.148-3.1c.028-.028.055-.055.085-.083l-.776.634a3.227,3.227,0,0,1-4.537-.449l-1.063-1.3a2.659,2.659,0,0,1-.192-.263.725.725,0,0,1-.06-.1,1.841,1.841,0,0,1-.1-.173c-.024-.043-.043-.091-.064-.133s-.048-.1-.069-.149-.04-.109-.058-.16-.03-.085-.046-.13c-.018-.061-.033-.124-.048-.188-.007-.034-.018-.07-.025-.106-.015-.07-.024-.142-.033-.213-.006-.026-.008-.054-.012-.082-.009-.082-.011-.16-.015-.242,0-.019,0-.037,0-.055,0-.087,0-.176.007-.264a.118.118,0,0,0,0-.03c.006-.1.018-.191.033-.287l0,0a3.2,3.2,0,0,1,1-1.845l-.006-.006-.688.563a3.225,3.225,0,0,1-4.541-.449l-1.061-1.3c-.069-.084-.133-.173-.193-.26-.007-.012-.012-.022-.018-.034-.048-.075-.1-.154-.14-.232l-.036-.073c-.034-.066-.065-.134-.094-.2l-.037-.091c-.021-.064-.046-.124-.064-.188-.012-.036-.021-.073-.033-.109-.015-.061-.03-.118-.043-.175-.008-.043-.015-.082-.024-.124s-.015-.106-.022-.16-.011-.094-.015-.139-.006-.091-.006-.137-.006-.109-.006-.163c0-.028,0-.055.006-.079a3.168,3.168,0,0,1,.206-1.018c.03-.083.066-.164.1-.246l.009-.018c.04-.079.079-.152.124-.228a.134.134,0,0,1,.015-.027c.043-.073.091-.142.14-.212l.021-.03c.052-.066.1-.133.158-.2a.034.034,0,0,1,.009-.012l-.039-.03-.233.191a3.214,3.214,0,0,1-2.054.73c-.1,0-.207-.007-.309-.015a3.283,3.283,0,0,1-.609-.121,3.215,3.215,0,0,1-1.569-1.045l-.949-1.157a3.242,3.242,0,0,1-.718-1.745,3.2,3.2,0,0,1,0-.619,2.366,2.366,0,0,1,.046-.305,3.209,3.209,0,0,1,1.118-1.873l.809-.724.781,1.839Z" transform="translate(-1042.494 -570.367)" fill="none" stroke="#383838" stroke-linecap="round" stroke-linejoin="round" stroke-width="1"/><path d="M1103.442,605.971a3.529,3.529,0,0,0-.012-.47c-.012-.1-.027-.206-.045-.305a3.214,3.214,0,0,0-1.12-1.87l-8.432-6.974-7.373-6.044-1.007-.823c-.136-.113-.267-.225-.394-.34l-2.245,2.833a7.519,7.519,0,0,1-8.549,2.305c-.076-.03-.152-.061-.227-.094a6.457,6.457,0,0,1-.812-.4c-.091-.051-.179-.1-.267-.157s-.176-.115-.261-.173a3.132,3.132,0,0,1-.257-.185l-.279-.463,9.57-11.959c-.069,0,.381-.008,1.021-.01l4.881-.015,3.677-.067,15.045,18.362Z" transform="translate(-1043.327 -569.041)" fill="none" stroke="#383838" stroke-linecap="round" stroke-linejoin="round" stroke-width="1"/><g transform="translate(12.831 11.718)"><path d="M1087.18,621.769l-.011-.011a1.074,1.074,0,0,0,.12.09A1.159,1.159,0,0,1,1087.18,621.769Z" transform="translate(-1056.927 -582.864)" fill="#e6e6e6"/><path d="M1088.912,622.061c.052-.018.1-.039.149-.061l-.061.028C1088.97,622.037,1088.942,622.048,1088.912,622.061Z" transform="translate(-1057.017 -582.876)" fill="#e6e6e6"/><path d="M1090.41,617.459l.088.082-.091-.076Z" transform="translate(-1057.094 -582.643)" fill="#e6e6e6"/><path d="M1090.592,617.492l-.124-.1.006-.006Z" transform="translate(-1057.097 -582.639)" fill="#e6e6e6"/><path d="M1090.472,617.383l.12.109-.125-.1Z" transform="translate(-1057.097 -582.639)" fill="#e6e6e6"/><path d="M1090.592,617.492l-.124-.1.006-.006Z" transform="translate(-1057.097 -582.639)" fill="#e6e6e6"/><path d="M1074.015,580.824l-3.68-.065-15.044,18.36,3.391,7.97,20.437,16.81.889.729a2.316,2.316,0,0,0,3.26-.323l.761-.929a2.316,2.316,0,0,0-.323-3.26l-.114-.094" transform="translate(-1055.291 -580.759)" fill="none" stroke="#383838" stroke-linecap="round" stroke-linejoin="round" stroke-width="1"/><path d="M1084.536,624.047a.782.782,0,0,1,0,.082.976.976,0,0,0-.014-.16A.719.719,0,0,1,1084.536,624.047Z" transform="translate(-1056.792 -582.977)" fill="#e6e6e6"/></g><rect width="30.621" height="13.978" transform="translate(0 23.686) rotate(-50.671)" stroke-width="1" stroke="#383838" stroke-linecap="round" stroke-linejoin="round" fill="none"/><circle cx="2.562" cy="2.562" r="2.562" transform="matrix(0.522, -0.853, 0.853, 0.522, 17.452, 9.961)" fill="#fff" stroke="#383838" stroke-linecap="round" stroke-linejoin="round" stroke-width="1"/><path d="M1102.564,606.12a3.21,3.21,0,0,1-.718,1.745l-.948,1.157a3.193,3.193,0,0,1-1.57,1.048,3.332,3.332,0,0,1-.605.118c-.1.012-.206.015-.309.019h-.012a3.211,3.211,0,0,1-2.042-.73l-.236-.193-.036.033.008.009c.055.064.106.131.155.2a.289.289,0,0,0,.025.03c.048.069.1.142.139.211.007.01.01.019.015.028.046.076.085.152.121.228a.1.1,0,0,1,.01.021,2.358,2.358,0,0,1,.105.242,3.274,3.274,0,0,1,.207,1.018c0,.028,0,.052,0,.079a1.635,1.635,0,0,1,0,.167c0,.043,0,.088-.007.134s-.009.094-.015.142-.011.105-.021.157-.018.082-.028.124a1.787,1.787,0,0,1-.043.175c-.009.036-.018.073-.029.109-.019.064-.043.124-.067.188-.011.03-.021.061-.036.094-.028.066-.061.137-.094.2-.012.024-.021.046-.033.069-.043.079-.091.157-.139.233a.12.12,0,0,1-.021.033,2.87,2.87,0,0,1-.192.261l-1.06,1.3a3.231,3.231,0,0,1-4.541.452l-.688-.558h0a3.2,3.2,0,0,1,.894,1.409,3.371,3.371,0,0,1,.145.812,3.223,3.223,0,0,1-.724,2.2l-1.061,1.294a2.991,2.991,0,0,1-.391.4,2.663,2.663,0,0,1-.285.218l0,0a2.975,2.975,0,0,1-.46.261l0,0a3.122,3.122,0,0,1-.324.127,3.212,3.212,0,0,1-2.6-.239,3.1,3.1,0,0,1-.473-.321l-.866-.71a2.317,2.317,0,0,1,.324,3.26l-.761.931a2.317,2.317,0,0,1-3.26.321l-21.328-17.537-3.39-7.971,15.041-18.362,3.681.067,4.878.015,1.975.01-9.7,12.116.387.294a7.519,7.519,0,0,0,10.392-1.282l2.245-2.833c.127.115.258.227.394.34l1.007.823,7.373,6.044,8.432,6.974a3.214,3.214,0,0,1,1.12,1.87c.018.1.033.2.045.305A3.272,3.272,0,0,1,1102.564,606.12Z" transform="translate(-1042.46 -569.041)" fill="none" stroke="#383838" stroke-linecap="round" stroke-linejoin="round" stroke-width="1"/></g><g transform="translate(1060.461 538.369)"><ellipse cx="13.607" cy="13.596" rx="13.607" ry="13.596" transform="matrix(0.708, -0.707, 0.707, 0.708, 0, 19.229)" fill="#ffcd73"/><ellipse cx="13.607" cy="13.596" rx="13.607" ry="13.596" transform="matrix(0.708, -0.707, 0.707, 0.708, 0, 19.229)" stroke-width="1" stroke="#383838" stroke-linecap="round" stroke-linejoin="round" fill="none"/><g transform="translate(10.887 13.324)"><g transform="translate(-1072.949 -552.414)" fill="#fff" stroke-miterlimit="10"><path d="M 1084.9951171875 566.634521484375 L 1084.372802734375 566.634521484375 C 1084.090209960938 566.634521484375 1083.896240234375 566.6105346679688 1083.741088867188 566.4879150390625 L 1083.736938476563 566.484619140625 L 1083.732788085938 566.481201171875 C 1083.579711914063 566.3547973632813 1083.515014648438 566.1688232421875 1083.45556640625 565.8906860351563 L 1081.890502929688 559.00537109375 L 1080.65869140625 559.00537109375 C 1080.392700195313 560.0997924804688 1080.136962890625 561.18798828125 1079.89697265625 562.2455444335938 C 1079.62548828125 563.442626953125 1079.344116210938 564.6633911132813 1079.060546875 565.873779296875 C 1078.9951171875 566.177978515625 1078.931640625 566.3261108398438 1078.818969726563 566.4387817382813 C 1078.655883789063 566.601318359375 1078.431274414063 566.634521484375 1078.143920898438 566.634521484375 L 1077.560424804688 566.634521484375 C 1077.288818359375 566.634521484375 1077.074096679688 566.6063232421875 1076.91015625 566.46923828125 C 1076.752685546875 566.3380737304688 1076.682250976563 566.1361694335938 1076.62548828125 565.87353515625 L 1075.041381835938 559.00537109375 L 1073.22021484375 559.00537109375 C 1073.00244140625 559.00537109375 1072.793701171875 558.9926147460938 1072.63232421875 558.8387451171875 L 1072.623779296875 558.8306274414063 L 1072.61572265625 558.8221435546875 C 1072.461669921875 558.6608276367188 1072.448974609375 558.451416015625 1072.448974609375 558.2330932617188 L 1072.448974609375 557.9608154296875 C 1072.448974609375 557.7424926757813 1072.461669921875 557.5331420898438 1072.61572265625 557.371826171875 L 1072.623779296875 557.3633422851563 L 1072.63232421875 557.355224609375 C 1072.793701171875 557.2013549804688 1073.00244140625 557.1885986328125 1073.22021484375 557.1885986328125 L 1074.615234375 557.1885986328125 C 1074.481079101563 556.6073608398438 1074.346069335938 556.0123291015625 1074.212158203125 555.4125366210938 C 1074.0048828125 554.490234375 1073.832153320313 553.7296752929688 1073.669189453125 553.0205688476563 C 1073.584106445313 552.6983032226563 1073.525634765625 552.389892578125 1073.721313476563 552.15380859375 C 1073.904663085938 551.932373046875 1074.196533203125 551.9140014648438 1074.504760742188 551.9140014648438 L 1074.874755859375 551.9140014648438 C 1075.174682617188 551.9140014648438 1075.393676757813 551.9405517578125 1075.55810546875 552.07275390625 L 1075.563720703125 552.0772705078125 L 1075.569091796875 552.0819091796875 C 1075.702270507813 552.1953735351563 1075.779907226563 552.357421875 1075.8662109375 552.701171875 L 1075.867797851563 552.7073364257813 L 1075.869140625 552.7135620117188 L 1076.871704101563 557.1885986328125 L 1078.951782226563 557.1885986328125 C 1079.095581054688 556.552734375 1079.2490234375 555.879638671875 1079.418212890625 555.143310546875 C 1079.60400390625 554.3353881835938 1079.8046875 553.506591796875 1080.014770507813 552.6798095703125 C 1080.1005859375 552.3543701171875 1080.180786132813 552.1934814453125 1080.311645507813 552.0819091796875 L 1080.317016601563 552.0772705078125 L 1080.322631835938 552.07275390625 C 1080.486572265625 551.9409790039063 1080.706420898438 551.9140014648438 1080.986083984375 551.9140014648438 L 1081.667236328125 551.9140014648438 C 1081.946899414063 551.9140014648438 1082.166748046875 551.9409790039063 1082.330688476563 552.07275390625 L 1082.336547851563 552.0775146484375 L 1082.34228515625 552.0823974609375 C 1082.4990234375 552.2164916992188 1082.566284179688 552.41748046875 1082.622802734375 552.6980590820313 L 1083.64208984375 557.1885986328125 L 1085.742431640625 557.1885986328125 C 1085.8955078125 556.50927734375 1086.0595703125 555.8112182617188 1086.231201171875 555.1082153320313 C 1086.434204101563 554.27587890625 1086.62646484375 553.4509887695313 1086.802734375 552.6566772460938 C 1086.86181640625 552.3802490234375 1086.926635742188 552.1932373046875 1087.08056640625 552.0667114257813 L 1087.083374023438 552.0643310546875 L 1087.086303710938 552.06201171875 C 1087.241577148438 551.938232421875 1087.436157226563 551.9140014648438 1087.7197265625 551.9140014648438 L 1088.186401367188 551.9140014648438 C 1088.450561523438 551.9140014648438 1088.72314453125 551.931396484375 1088.899169921875 552.1394653320313 L 1088.906372070313 552.1480102539063 L 1088.913208007813 552.1568603515625 C 1089.081298828125 552.3745727539063 1089.038940429688 552.6500854492188 1088.985961914063 552.8912353515625 L 1088.984741210938 552.8964233398438 L 1088.983520507813 552.901611328125 L 1087.946166992188 557.1885986328125 L 1089.354125976563 557.1885986328125 C 1089.594116210938 557.1885986328125 1089.761108398438 557.2092895507813 1089.904052734375 557.315185546875 C 1090.146484375 557.4970092773438 1090.146484375 557.7987060546875 1090.146484375 557.9608154296875 L 1090.146484375 558.2520751953125 C 1090.146484375 558.396484375 1090.146484375 558.6969604492188 1089.906616210938 558.8768920898438 C 1089.761108398438 558.9846801757813 1089.594116210938 559.00537109375 1089.354125976563 559.00537109375 L 1087.547729492188 559.00537109375 C 1087.287841796875 560.0735473632813 1087.028686523438 561.1656494140625 1086.776245117188 562.2571411132813 C 1086.493530273438 563.4805297851563 1086.202270507813 564.7046508789063 1085.910400390625 565.8953857421875 C 1085.850952148438 566.1710815429688 1085.7861328125 566.3556518554688 1085.634155273438 566.4811401367188 L 1085.63037109375 566.4843139648438 L 1085.626586914063 566.4873657226563 C 1085.471435546875 566.6104125976563 1085.277587890625 566.634521484375 1084.9951171875 566.634521484375 Z M 1077.256225585938 559.00537109375 C 1077.412353515625 559.6727905273438 1077.564819335938 560.323974609375 1077.71337890625 560.958251953125 L 1077.755004882813 561.1358642578125 C 1077.80908203125 561.3654174804688 1077.863525390625 561.5971069335938 1077.918579101563 561.8310546875 L 1078.599853515625 559.00537109375 L 1077.256225585938 559.00537109375 Z M 1084.029174804688 559.00537109375 C 1084.199340820313 559.7364501953125 1084.365966796875 560.4500732421875 1084.528564453125 561.1455078125 L 1084.683349609375 561.8102416992188 L 1085.337524414063 559.00537109375 L 1084.029174804688 559.00537109375 Z M 1081.10986328125 557.1885986328125 L 1081.48388671875 557.1885986328125 C 1081.419921875 556.9169311523438 1081.357543945313 556.6522216796875 1081.296508789063 556.3945922851563 C 1081.233032226563 556.6639404296875 1081.170776367188 556.9285888671875 1081.10986328125 557.1885986328125 Z" stroke="none"/><path d="M 1074.504760742188 552.4140014648438 C 1074.272338867188 552.4140014648438 1074.138549804688 552.4338989257813 1074.106323242188 552.4728393554688 C 1074.074096679688 552.51171875 1074.089233398438 552.6539916992188 1074.154663085938 552.9006958007813 C 1074.336791992188 553.6928100585938 1074.51806640625 554.4934692382813 1074.7001953125 555.3036499023438 C 1074.88134765625 556.1156616210938 1075.062622070313 556.9097290039063 1075.244750976563 557.6885986328125 L 1073.22021484375 557.6885986328125 C 1073.077880859375 557.6885986328125 1072.997314453125 557.6980590820313 1072.977416992188 557.717041015625 C 1072.958374023438 557.7369995117188 1072.948974609375 557.8175659179688 1072.948974609375 557.9608154296875 L 1072.948974609375 558.2330932617188 C 1072.948974609375 558.3763427734375 1072.958374023438 558.4569702148438 1072.977416992188 558.4769287109375 C 1072.997314453125 558.4959106445313 1073.077880859375 558.50537109375 1073.22021484375 558.50537109375 L 1075.439208984375 558.50537109375 L 1077.113525390625 565.7645263671875 C 1077.152465820313 565.9457397460938 1077.19140625 566.052978515625 1077.230346679688 566.085205078125 C 1077.268188476563 566.117431640625 1077.379272460938 566.134521484375 1077.560424804688 566.134521484375 L 1078.143920898438 566.134521484375 C 1078.325927734375 566.134521484375 1078.43310546875 566.117431640625 1078.465454101563 566.085205078125 C 1078.497680664063 566.052978515625 1078.533813476563 565.9457397460938 1078.572631835938 565.7645263671875 C 1078.858154296875 564.5455322265625 1079.13720703125 563.3350219726563 1079.409423828125 562.1349487304688 C 1079.681640625 560.9348754882813 1079.96728515625 559.725341796875 1080.265991210938 558.50537109375 L 1082.28955078125 558.50537109375 L 1083.943969726563 565.7835083007813 C 1083.982788085938 565.9656372070313 1084.018920898438 566.0690307617188 1084.051147460938 566.0956420898438 C 1084.08349609375 566.1212158203125 1084.189697265625 566.134521484375 1084.372802734375 566.134521484375 L 1084.9951171875 566.134521484375 C 1085.17626953125 566.134521484375 1085.283569335938 566.1212158203125 1085.315795898438 566.0956420898438 C 1085.348022460938 566.0690307617188 1085.384033203125 565.9656372070313 1085.422973632813 565.7835083007813 C 1085.721801757813 564.564453125 1086.01025390625 563.3511352539063 1086.2890625 562.1444702148438 C 1086.567993164063 560.938720703125 1086.8564453125 559.725341796875 1087.155151367188 558.50537109375 L 1089.354125976563 558.50537109375 C 1089.497436523438 558.50537109375 1089.580932617188 558.4959106445313 1089.606567382813 558.4769287109375 C 1089.633178710938 558.4569702148438 1089.646484375 558.382080078125 1089.646484375 558.2520751953125 L 1089.646484375 557.9608154296875 C 1089.646484375 557.8175659179688 1089.633178710938 557.7369995117188 1089.606567382813 557.717041015625 C 1089.580932617188 557.6980590820313 1089.497436523438 557.6885986328125 1089.354125976563 557.6885986328125 L 1087.310791015625 557.6885986328125 L 1088.49755859375 552.7839965820313 C 1088.537353515625 552.602783203125 1088.543090820313 552.49560546875 1088.517456054688 552.46240234375 C 1088.490966796875 552.4310913085938 1088.380859375 552.4140014648438 1088.186401367188 552.4140014648438 L 1087.7197265625 552.4140014648438 C 1087.53759765625 552.4140014648438 1087.430297851563 552.42724609375 1087.398071289063 552.4529418945313 C 1087.365844726563 552.4794311523438 1087.329833984375 552.5828247070313 1087.290893554688 552.7650146484375 C 1087.109619140625 553.5818481445313 1086.91796875 554.4024047851563 1086.716918945313 555.226806640625 C 1086.515869140625 556.0502319335938 1086.32421875 556.870849609375 1086.14306640625 557.6885986328125 L 1083.242919921875 557.6885986328125 L 1082.133911132813 552.8029174804688 C 1082.094970703125 552.6085205078125 1082.05615234375 552.49560546875 1082.017333984375 552.46240234375 C 1081.978393554688 552.4310913085938 1081.861694335938 552.4140014648438 1081.667236328125 552.4140014648438 L 1080.986083984375 552.4140014648438 C 1080.79150390625 552.4140014648438 1080.674926757813 552.4310913085938 1080.635986328125 552.46240234375 C 1080.597045898438 552.49560546875 1080.550659179688 552.6085205078125 1080.499389648438 552.8029174804688 C 1080.291625976563 553.6206665039063 1080.093383789063 554.4384155273438 1079.905517578125 555.2552490234375 C 1079.717651367188 556.072998046875 1079.53271484375 556.8840942382813 1079.3515625 557.6885986328125 L 1076.471313476563 557.6885986328125 L 1075.381225585938 552.8228759765625 C 1075.3291015625 552.6151123046875 1075.28369140625 552.49560546875 1075.244750976563 552.46240234375 C 1075.205810546875 552.4310913085938 1075.08251953125 552.4140014648438 1074.874755859375 552.4140014648438 L 1074.504760742188 552.4140014648438 M 1082.114990234375 557.6885986328125 L 1080.4794921875 557.6885986328125 C 1080.609497070313 557.1307373046875 1080.745971679688 556.5501708984375 1080.888305664063 555.9468383789063 C 1081.030639648438 555.342529296875 1081.167358398438 554.762939453125 1081.297241210938 554.205078125 C 1081.439575195313 554.827392578125 1081.576049804688 555.4108276367188 1081.706176757813 555.956298828125 C 1081.836059570313 556.5008544921875 1081.9716796875 557.0785522460938 1082.114990234375 557.6885986328125 M 1077.911499023438 563.993408203125 C 1077.6904296875 563.046630859375 1077.475952148438 562.1321411132813 1077.268188476563 561.2498779296875 C 1077.0615234375 560.3675537109375 1076.847045898438 559.4521484375 1076.6259765625 558.50537109375 L 1079.234741210938 558.50537109375 L 1077.911499023438 563.993408203125 M 1084.682983398438 564.0133056640625 C 1084.463012695313 563.0665283203125 1084.24853515625 562.1482543945313 1084.041625976563 561.2593383789063 C 1083.833862304688 560.3704833984375 1083.61962890625 559.4521484375 1083.3994140625 558.50537109375 L 1085.967529296875 558.50537109375 L 1084.682983398438 564.0133056640625 M 1074.504760742188 551.4140014648438 L 1074.874755859375 551.4140014648438 C 1075.195068359375 551.4140014648438 1075.562622070313 551.434814453125 1075.871337890625 551.68310546875 L 1075.882568359375 551.6920776367188 L 1075.8935546875 551.701416015625 C 1076.144897460938 551.915771484375 1076.255004882813 552.1962890625 1076.351196289063 552.5795288085938 L 1076.354248046875 552.5918579101563 L 1076.357055664063 552.604248046875 L 1077.272094726563 556.6885986328125 L 1078.552368164063 556.6885986328125 C 1078.670532226563 556.1676635742188 1078.795776367188 555.61962890625 1078.930908203125 555.0313720703125 C 1079.117553710938 554.2196655273438 1079.319213867188 553.3871459960938 1079.530151367188 552.5567016601563 L 1079.53125 552.5523071289063 L 1079.532470703125 552.5479125976563 C 1079.626098632813 552.1926879882813 1079.739379882813 551.9127807617188 1079.987182617188 551.701416015625 L 1079.998168945313 551.6920776367188 L 1080.009399414063 551.68310546875 C 1080.303466796875 551.4465942382813 1080.652587890625 551.4140014648438 1080.986083984375 551.4140014648438 L 1081.667236328125 551.4140014648438 C 1082.000732421875 551.4140014648438 1082.349853515625 551.4465942382813 1082.643920898438 551.68310546875 L 1082.65576171875 551.6925659179688 L 1082.667236328125 551.7024536132813 C 1082.945678710938 551.9404907226563 1083.046264648438 552.2705688476563 1083.11181640625 552.5933227539063 L 1084.041381835938 556.6885986328125 L 1085.343383789063 556.6885986328125 C 1085.47119140625 556.1304321289063 1085.605834960938 555.5616455078125 1085.745483398438 554.9896240234375 C 1085.947387695313 554.1618041992188 1086.138549804688 553.3414916992188 1086.31396484375 552.5514526367188 C 1086.377319335938 552.2557983398438 1086.47021484375 551.9210815429688 1086.763061523438 551.680419921875 L 1086.768798828125 551.6757202148438 L 1086.774658203125 551.6710815429688 C 1087.072143554688 551.4338989257813 1087.41845703125 551.4140014648438 1087.7197265625 551.4140014648438 L 1088.186401367188 551.4140014648438 C 1088.43115234375 551.4140014648438 1088.940307617188 551.4140014648438 1089.280883789063 551.8165283203125 L 1089.29541015625 551.8336181640625 L 1089.30908203125 551.851318359375 C 1089.6337890625 552.2720336914063 1089.526123046875 552.7626953125 1089.474243164063 552.9984741210938 L 1089.472045898438 553.0088500976563 L 1089.469482421875 553.0191650390625 L 1088.581665039063 556.6885986328125 L 1089.354125976563 556.6885986328125 C 1089.617309570313 556.6885986328125 1089.921508789063 556.7059326171875 1090.201538085938 556.9132690429688 L 1090.2041015625 556.9151611328125 L 1090.206665039063 556.9170532226563 C 1090.646484375 557.2470092773438 1090.646484375 557.7655639648438 1090.646484375 557.9608154296875 L 1090.646484375 558.2520751953125 C 1090.646484375 558.4239501953125 1090.646484375 558.9469604492188 1090.206665039063 559.2769165039063 L 1090.2041015625 559.27880859375 L 1090.201538085938 559.2807006835938 C 1089.921508789063 559.488037109375 1089.617309570313 559.50537109375 1089.354125976563 559.50537109375 L 1087.94091796875 559.50537109375 C 1087.712646484375 560.4495239257813 1087.4853515625 561.4098510742188 1087.263305664063 562.369873046875 C 1086.980712890625 563.5928344726563 1086.689453125 564.8167114257813 1086.397705078125 566.0073852539063 C 1086.33447265625 566.2998046875 1086.240600585938 566.6287841796875 1085.95263671875 566.86669921875 L 1085.945068359375 566.8729248046875 L 1085.937377929688 566.8790283203125 C 1085.64013671875 567.1148071289063 1085.295166015625 567.134521484375 1084.9951171875 567.134521484375 L 1084.372802734375 567.134521484375 C 1084.072875976563 567.134521484375 1083.72802734375 567.1148681640625 1083.431030273438 566.8801879882813 L 1083.422729492188 566.87353515625 L 1083.414428710938 566.8667602539063 C 1083.123168945313 566.626220703125 1083.030395507813 566.2930908203125 1082.96728515625 565.9984741210938 L 1081.491333007813 559.50537109375 L 1081.052124023438 559.50537109375 C 1080.81982421875 560.4683227539063 1080.596069335938 561.4241943359375 1080.384643554688 562.356201171875 C 1080.113159179688 563.5530395507813 1079.831787109375 564.7734985351563 1079.54833984375 565.983642578125 C 1079.4765625 566.3156127929688 1079.384399414063 566.5805053710938 1079.172485351563 566.7924194335938 C 1078.829223632813 567.134521484375 1078.366333007813 567.134521484375 1078.143920898438 567.134521484375 L 1077.560424804688 567.134521484375 C 1077.244873046875 567.134521484375 1076.882446289063 567.1005249023438 1076.585083007813 566.84912109375 C 1076.307373046875 566.614990234375 1076.205322265625 566.2951049804688 1076.1376953125 565.98291015625 L 1074.6435546875 559.50537109375 L 1073.22021484375 559.50537109375 C 1073.005737304688 559.50537109375 1072.606689453125 559.50537109375 1072.287109375 559.2003784179688 L 1072.270141601563 559.1842651367188 L 1072.254028320313 559.1673583984375 C 1071.948974609375 558.8477172851563 1071.948974609375 558.4478759765625 1071.948974609375 558.2330932617188 L 1071.948974609375 557.9608154296875 C 1071.948974609375 557.7460327148438 1071.948974609375 557.3462524414063 1072.254028320313 557.026611328125 L 1072.270141601563 557.0097045898438 L 1072.287109375 556.9935913085938 C 1072.606689453125 556.6885986328125 1073.005737304688 556.6885986328125 1073.22021484375 556.6885986328125 L 1073.987548828125 556.6885986328125 C 1073.899536132813 556.30322265625 1073.811645507813 555.913330078125 1073.724243164063 555.5213623046875 C 1073.51806640625 554.6043090820313 1073.346069335938 553.8468017578125 1073.183837890625 553.140869140625 C 1073.102661132813 552.8345947265625 1072.964965820313 552.2828979492188 1073.336303710938 551.8347778320313 C 1073.6845703125 551.4140014648438 1074.218139648438 551.4140014648438 1074.504760742188 551.4140014648438 Z" stroke="none" fill="#383838"/></g></g></g></g></svg>