<svg xmlns="http://www.w3.org/2000/svg" width="70.63" height="64.302" viewBox="0 0 70.63 64.302"><g transform="translate(0.823 0.482)"><rect width="50.381" height="63.339" fill="#e6e6e6"/></g><g transform="translate(0 0)"><path d="M416.782,111.4h-51.06a.482.482,0,0,1-.481-.481V47.577a.482.482,0,0,1,.481-.481h51.06a.481.481,0,0,1,.481.481v63.34A.481.481,0,0,1,416.782,111.4Zm-50.579-.962h50.1V48.058H366.2Z" transform="translate(-365.241 -47.096)" fill="#383838"/></g><g transform="translate(16.551 18.945)"><path d="M410.493,67.742H382.919a.481.481,0,1,1,0-.961h27.573a.481.481,0,1,1,0,.961Z" transform="translate(-382.438 -66.781)" fill="#383838"/></g><g transform="translate(7.853 24.266)"><path d="M410.152,73.271h-36.27a.481.481,0,1,1,0-.961h36.27a.481.481,0,1,1,0,.961Z" transform="translate(-373.401 -72.31)" fill="#383838"/></g><g transform="translate(7.853 29.586)"><path d="M410.152,78.8h-36.27a.481.481,0,1,1,0-.961h36.27a.481.481,0,1,1,0,.961Z" transform="translate(-373.401 -77.837)" fill="#383838"/></g><g transform="translate(7.853 34.905)"><path d="M410.152,84.325h-36.27a.481.481,0,1,1,0-.961h36.27a.481.481,0,1,1,0,.961Z" transform="translate(-373.401 -83.364)" fill="#383838"/></g><g transform="translate(7.853 40.225)"><path d="M410.152,89.853h-36.27a.481.481,0,1,1,0-.961h36.27a.481.481,0,1,1,0,.961Z" transform="translate(-373.401 -88.892)" fill="#383838"/></g><g transform="translate(7.853 45.545)"><path d="M410.152,95.38h-36.27a.481.481,0,1,1,0-.961h36.27a.481.481,0,1,1,0,.961Z" transform="translate(-373.401 -94.419)" fill="#383838"/></g><g transform="translate(7.853 56.608)"><path d="M386.185,106.875h-12.3a.481.481,0,1,1,0-.961h12.3a.481.481,0,1,1,0,.961Z" transform="translate(-373.401 -105.914)" fill="#383838"/></g><g transform="translate(31.821 56.608)"><path d="M411.088,106.875h-12.3a.481.481,0,1,1,0-.961h12.3a.481.481,0,1,1,0,.961Z" transform="translate(-398.305 -105.914)" fill="#383838"/></g><g transform="translate(8.335 6.24)"><rect width="12.303" height="5.429" fill="#15376c"/></g><g transform="translate(7.853 5.758)"><path d="M386.185,59.471h-12.3a.482.482,0,0,1-.481-.481V53.56a.481.481,0,0,1,.481-.481h12.3a.481.481,0,0,1,.481.481v5.43A.482.482,0,0,1,386.185,59.471Zm-11.821-.962H385.7V54.041h-11.34Z" transform="translate(-373.401 -53.079)" fill="#383838"/></g><g transform="translate(58.937 1.042)"><g transform="translate(0.482 2.767)"><rect width="6.248" height="20.112" fill="#ffc7c0"/></g><g transform="translate(0.482 22.88)"><path d="M433.227,71.952H426.98c0,28.861,2.578,36.823,2.578,36.823h1.09S433.227,99.15,433.227,71.952Z" transform="translate(-426.98 -71.952)" fill="#ffc7c0"/></g><g transform="translate(0 2.286)"><path d="M433.207,71.628H426.96a.481.481,0,0,1-.481-.481V51.035a.481.481,0,0,1,.481-.481h6.247a.481.481,0,0,1,.481.481V71.147A.481.481,0,0,1,433.207,71.628Zm-5.766-.962h5.285V51.516h-5.285Z" transform="translate(-426.479 -50.554)" fill="#383838"/></g><g transform="translate(0 22.397)"><path d="M430.629,109.237h-1.091a.482.482,0,0,1-.457-.334c-.107-.327-2.6-8.363-2.6-36.97a.481.481,0,0,1,.481-.481h6.247a.481.481,0,0,1,.481.481c0,26.95-2.568,36.85-2.595,36.947A.48.48,0,0,1,430.629,109.237Zm-.725-.962h.345c.441-1.963,2.45-12.213,2.477-35.861h-5.285C427.467,97.329,429.45,106.5,429.9,108.274Z" transform="translate(-426.479 -71.451)" fill="#383838"/></g><path d="M435.782,71.539a.481.481,0,0,1-.481-.481V49.141h-7.859v1.8a.481.481,0,0,1-.962,0V48.66a.481.481,0,0,1,.481-.481h8.822a.481.481,0,0,1,.481.481v22.4A.482.482,0,0,1,435.782,71.539Z" transform="translate(-426.479 -48.179)" fill="#383838"/><g transform="translate(8.821 20.321)"><path d="M438.036,73.688h-1.91a.481.481,0,0,1-.481-.481V69.774a.481.481,0,0,1,.481-.481h1.91a.481.481,0,0,1,.481.481v3.433A.481.481,0,0,1,438.036,73.688Zm-1.429-.962h.948V70.255h-.948Z" transform="translate(-435.644 -69.293)" fill="#383838"/></g><g transform="translate(2.577 59.221)"><path d="M430.621,112.636h-.983a.482.482,0,0,1-.481-.481v-1.961a.482.482,0,0,1,.481-.481h.983a.482.482,0,0,1,.481.481v1.961A.482.482,0,0,1,430.621,112.636Zm-.5-.962h.02l-.02-1Z" transform="translate(-429.157 -109.712)" fill="#383838"/></g></g></svg>