<svg xmlns="http://www.w3.org/2000/svg" width="61.596" height="54.873" viewBox="0 0 61.596 54.873"><g transform="translate(20.051 31.006)"><path d="M682.124,91.64v23.342h-18.26a4.09,4.09,0,0,0,.539-.038,3.992,3.992,0,0,0,3.31-4.926L665.059,98.4a5.179,5.179,0,0,0-2.616-3.421l-6.276-3.343Z" transform="translate(-656.167 -91.64)" fill="#15376c"/></g><g transform="translate(56.36 6.548)"><rect width="4.712" height="31.045" fill="#e6e6e6"/></g><g transform="translate(56.36 37.593)"><path d="M690.766,97.918l1.65,16.755h3.062V97.918" transform="translate(-690.766 -97.918)" fill="#e6e6e6"/></g><g transform="translate(0.525 6.548)"><rect width="3.999" height="33.581" fill="#e6e6e6"/></g><g transform="translate(0.525 40.129)"><path d="M641.56,100.334l-1.4,14.219h-2.6V100.334" transform="translate(-637.561 -100.334)" fill="#e6e6e6"/></g><g transform="translate(4.524 36.51)"><path d="M641.372,96.885h14.775l2.17,17.838h-3.855L652.82,100.5H641.372Z" transform="translate(-641.372 -96.885)" fill="#e6e6e6"/></g><g transform="translate(41.274 0.899)"><path d="M681.91,73.99a5.519,5.519,0,1,1,5.519-5.519A5.525,5.525,0,0,1,681.91,73.99Z" transform="translate(-676.391 -62.952)" fill="#ffcd73"/></g><g transform="translate(6.724 1.421)"><path d="M648.5,73.511a5.031,5.031,0,1,1,5.031-5.031,5,5,0,0,1-5.031,5.031Z" transform="translate(-643.468 -63.449)" fill="#ffcd73"/></g><g transform="translate(40.375 0)"><path d="M681.951,74.929a6.417,6.417,0,1,1,6.417-6.416A6.424,6.424,0,0,1,681.951,74.929Zm0-11.784a5.367,5.367,0,1,0,5.368,5.368A5.374,5.374,0,0,0,681.951,63.144Z" transform="translate(-675.534 -62.095)" fill="#383838"/></g><g transform="translate(38.955 15.163)"><path d="M682.771,88.883h-5.453a3.138,3.138,0,0,1,0-6.277h1.388a5.027,5.027,0,0,0,4.481-2.725l1.579-3.054a.524.524,0,1,1,.931.483l-1.579,3.054a6.07,6.07,0,0,1-5.412,3.292h-1.388a2.089,2.089,0,0,0,0,4.178h5.453a5.027,5.027,0,0,0,4.476-2.719l3.871-7.452a.525.525,0,0,1,.932.485L688.178,85.6A6.075,6.075,0,0,1,682.771,88.883Z" transform="translate(-674.181 -76.544)" fill="#383838"/></g><g transform="translate(30.495 11.785)"><path d="M681.631,104.854a.591.591,0,0,1-.06,0,.523.523,0,0,1-.462-.58l.6-5.2a.524.524,0,0,1,.521-.464h3.453a5.784,5.784,0,0,0,5.775-5.779V79.251a4.882,4.882,0,0,0-4.878-4.877h-5.548a5.353,5.353,0,0,0-4.468,2.4l-4.229,6.386a.524.524,0,0,1-.438.236h-3.737a2.261,2.261,0,0,0-1.23.36.524.524,0,1,1-.569-.88,3.3,3.3,0,0,1,1.8-.529h3.455l4.075-6.152a6.4,6.4,0,0,1,5.343-2.869h5.548a5.933,5.933,0,0,1,5.927,5.926v13.58a6.835,6.835,0,0,1-6.824,6.829H682.7l-.547,4.73A.524.524,0,0,1,681.631,104.854Z" transform="translate(-666.12 -73.325)" fill="#383838"/></g><g transform="translate(30.273 25.853)"><path d="M677.883,88.379h-9.714a3.456,3.456,0,0,1-.347-.016,3.325,3.325,0,0,1-1.714-.7.525.525,0,1,1,.648-.825,2.28,2.28,0,0,0,1.177.476,1.949,1.949,0,0,0,.235.01h9.714a.525.525,0,1,1,0,1.049Z" transform="translate(-665.908 -86.73)" fill="#383838"/></g><g transform="translate(49.637 32.803)"><path d="M684.884,98.665a.525.525,0,0,1-.006-1.049,5.777,5.777,0,0,0,5.37-3.907.525.525,0,1,1,.993.339,6.825,6.825,0,0,1-6.348,4.616Z" transform="translate(-684.36 -93.353)" fill="#383838"/></g><g transform="translate(45.082 12.31)"><path d="M682.413,76.25l1.008-2.425h-3.4l1.027,2.425Z" transform="translate(-680.019 -73.825)" fill="#ffc7c0"/></g><g transform="translate(44.784 14.735)"><path d="M679.735,83a5.56,5.56,0,0,0,3.425-2.471v0l.135-.227.005-.012-.873-4.149h-1.369Z" transform="translate(-679.735 -76.136)" fill="#ffc7c0"/></g><g transform="translate(44.556 11.785)"><path d="M682.437,76.8h-1.368a.523.523,0,0,1-.483-.32l-1.026-2.424a.525.525,0,0,1,.484-.729h3.4a.525.525,0,0,1,.485.726l-1.008,2.424A.523.523,0,0,1,682.437,76.8Zm-1.02-1.049h.67l.572-1.375h-1.825Z" transform="translate(-679.518 -73.325)" fill="#383838"/></g><g transform="translate(44.259 14.21)"><path d="M679.76,83.547a.526.526,0,0,1-.515-.624l1.323-6.861a.524.524,0,0,1,.515-.425h1.37a.524.524,0,0,1,.513.416l.873,4.149a.528.528,0,0,1-.047.348.39.39,0,0,1-.027.049l-.133.222a6.048,6.048,0,0,1-3.747,2.71A.508.508,0,0,1,679.76,83.547Zm1.756-6.861-1.072,5.559a4.994,4.994,0,0,0,2.293-1.971l.034-.055-.744-3.533Z" transform="translate(-679.235 -75.636)" fill="#383838"/></g><g transform="translate(19.525 30.48)"><path d="M682.147,115.529h-18.26a.525.525,0,1,1,0-1.049,3.8,3.8,0,0,0,.472-.031,3.339,3.339,0,0,0,2.329-1.418,3.62,3.62,0,0,0,.536-2.871L664.57,98.545a4.65,4.65,0,0,0-2.351-3.075l-6.276-3.343a.525.525,0,0,1,.245-.988h25.958a.525.525,0,0,1,.525.525V115A.525.525,0,0,1,682.147,115.529Zm-15.366-1.049h14.841V92.188H658.292l4.421,2.356a5.7,5.7,0,0,1,2.882,3.767l2.653,11.612a4.671,4.671,0,0,1-.7,3.7A4.485,4.485,0,0,1,666.782,114.479Z" transform="translate(-655.666 -91.139)" fill="#383838"/></g><g transform="translate(17.492 26.439)"><path d="M684.173,92.379H656.286a.515.515,0,0,1-.247-.062l-2.034-1.084a.523.523,0,0,1-.277-.462V87.814a.524.524,0,0,1,.525-.525h29.919a.525.525,0,0,1,.525.525v4.04A.525.525,0,0,1,684.173,92.379Zm-27.757-1.049h27.232V88.338h-28.87v2.117Z" transform="translate(-653.729 -87.289)" fill="#383838"/></g><g transform="translate(31.719 26.438)"><path d="M677.815,88.352H668.1a3.171,3.171,0,0,1-.347-.018.525.525,0,0,1,.058-1.046h10a.525.525,0,0,1,.525.525v.015A.525.525,0,0,1,677.815,88.352Z" transform="translate(-667.286 -87.288)" fill="#383838"/></g><g transform="translate(55.833 6.022)"><path d="M695.5,99.928h-4.713a.525.525,0,0,1-.525-.525V68.358a.526.526,0,0,1,.525-.525H695.5a.526.526,0,0,1,.525.525V99.4A.525.525,0,0,1,695.5,99.928Zm-4.188-1.049h3.664v-30h-3.664Z" transform="translate(-690.264 -67.833)" fill="#383838"/></g><g transform="translate(55.834 37.068)"><path d="M695.5,115.222H692.44a.524.524,0,0,1-.523-.473l-1.651-16.755a.525.525,0,1,1,1.044-.1l1.6,16.283h2.061V97.942a.525.525,0,1,1,1.049,0V114.7A.526.526,0,0,1,695.5,115.222Z" transform="translate(-690.264 -97.417)" fill="#383838"/></g><g transform="translate(49.637 32.803)"><path d="M691.081,98.668h0l-6.2,0a.525.525,0,0,1-.006-1.049,5.777,5.777,0,0,0,5.37-3.907.524.524,0,0,1,.5-.356h.337a.526.526,0,0,1,.525.525v4.266a.525.525,0,0,1-.525.525Zm-2.666-1.05h2.141V95.481A6.875,6.875,0,0,1,688.415,97.618Z" transform="translate(-684.36 -93.353)" fill="#383838"/></g><g transform="translate(5.603 0.301)"><path d="M648.552,74.683a6.151,6.151,0,1,1,6.15-6.152A6.158,6.158,0,0,1,648.552,74.683Zm0-11.252a5.1,5.1,0,1,0,5.1,5.1A5.107,5.107,0,0,0,648.552,63.431Z" transform="translate(-642.4 -62.382)" fill="#383838"/></g><g transform="translate(3.999 11.554)"><path d="M665.884,89.042h-4.919a3.953,3.953,0,0,1-3.085-1.47L652.893,81.4a.525.525,0,1,1,.816-.659l4.987,6.169a2.907,2.907,0,0,0,2.269,1.08h4.919a2.463,2.463,0,0,0,2.463-2.458,2.467,2.467,0,0,0-2.463-2.462h-1.763a3.948,3.948,0,0,1-3.33-1.812l-2.771-4.287a6.148,6.148,0,0,0-5.184-2.819h-5.709l-3.322.083a5.769,5.769,0,0,0-2.192.569.524.524,0,1,1-.436-.954,6.693,6.693,0,0,1,2.615-.663l3.32-.084h5.723a7.189,7.189,0,0,1,6.066,3.3l2.769,4.287a2.9,2.9,0,0,0,2.449,1.332h1.763a3.515,3.515,0,0,1,3.512,3.511A3.513,3.513,0,0,1,665.884,89.042Z" transform="translate(-640.872 -73.105)" fill="#383838"/></g><g transform="translate(10.312 39.605)"><path d="M653.842,115.1a4.2,4.2,0,0,1-4.108-3.751l-.988-8.123a3.205,3.205,0,0,0-1.327-2.222l-.31-.217a.525.525,0,0,1,.3-.954h5.134a.525.525,0,0,1,.522.465l1.445,12.523h0l.192,1.677a.524.524,0,0,1-.474.582A2.7,2.7,0,0,1,653.842,115.1Zm-5.019-14.217a4.264,4.264,0,0,1,.966,2.215l.987,8.124a3.163,3.163,0,0,0,2.82,2.817l-1.516-13.156Z" transform="translate(-646.887 -99.834)" fill="#383838"/></g><g transform="translate(0 6.023)"><path d="M641.583,102.463h-4a.524.524,0,0,1-.525-.525V68.359a.524.524,0,0,1,.525-.525h4a.525.525,0,0,1,.525.525v33.58A.524.524,0,0,1,641.583,102.463Zm-3.473-1.049h2.948V68.883H638.11Z" transform="translate(-637.061 -67.834)" fill="#383838"/></g><g transform="translate(0 39.603)"><path d="M640.182,115.1h-2.6a.524.524,0,0,1-.525-.525V100.358a.525.525,0,0,1,1.049,0v13.693h1.6l1.355-13.746a.525.525,0,0,1,1.044.1l-1.4,14.219A.523.523,0,0,1,640.182,115.1Z" transform="translate(-637.061 -99.832)" fill="#383838"/></g><g transform="translate(3.998 35.984)"><path d="M658.34,115.271h-3.855a.523.523,0,0,1-.521-.464l-1.589-13.754H641.4a.525.525,0,0,1-.525-.525V96.909a.526.526,0,0,1,.525-.525h14.775a.525.525,0,0,1,.521.462l2.17,17.837a.533.533,0,0,1-.128.411A.527.527,0,0,1,658.34,115.271Zm-3.387-1.049h2.794l-2.041-16.788H641.92V100h10.924a.524.524,0,0,1,.521.464Z" transform="translate(-640.871 -96.384)" fill="#383838"/></g><g transform="translate(5.187 20.808)"><path d="M664.56,115.985a4.482,4.482,0,0,1-4.373-3.473l-2.373-10.825a.429.429,0,0,0-.793-.121.525.525,0,0,1-.978-.2l-.391-3.221H642.529a.525.525,0,0,1,0-1.049h13.586a.525.525,0,0,1,.522.461l.34,2.8a1.487,1.487,0,0,1,1.864,1.1l2.371,10.819a3.437,3.437,0,0,0,3.821,2.623,3.338,3.338,0,0,0,2.332-1.418,3.62,3.62,0,0,0,.536-2.871L665.246,99a4.65,4.65,0,0,0-2.351-3.075l-8.31-4.428a.523.523,0,0,1-.277-.463V82.448a.525.525,0,0,1,1.049,0V90.72l8.03,4.28a5.7,5.7,0,0,1,2.882,3.767l2.653,11.612a4.671,4.671,0,0,1-.7,3.7,4.369,4.369,0,0,1-3.054,1.86A4.659,4.659,0,0,1,664.56,115.985Z" transform="translate(-642.004 -81.923)" fill="#383838"/></g><g transform="translate(17.491 20.806)"><path d="M663.983,115.986a.525.525,0,1,1,0-1.049,3.8,3.8,0,0,0,.472-.033,3.343,3.343,0,0,0,2.33-1.42,3.623,3.623,0,0,0,.535-2.869L664.666,99a4.65,4.65,0,0,0-2.351-3.075L654.006,91.5a.524.524,0,0,1-.278-.463v-8.59a.525.525,0,0,1,1.049,0v8.275L662.809,95a5.7,5.7,0,0,1,2.882,3.767l2.653,11.612a4.669,4.669,0,0,1-.7,3.7,4.374,4.374,0,0,1-3.055,1.862A4.828,4.828,0,0,1,663.983,115.986Z" transform="translate(-653.728 -81.921)" fill="#383838"/></g><g transform="translate(3.999 11.554)"><path d="M665.884,89.042h-4.919a3.953,3.953,0,0,1-3.085-1.47L652.893,81.4a.525.525,0,1,1,.816-.659l4.987,6.169a2.907,2.907,0,0,0,2.269,1.08h4.919a2.463,2.463,0,0,0,2.463-2.458,2.467,2.467,0,0,0-2.463-2.462h-1.763a3.948,3.948,0,0,1-3.33-1.812l-2.771-4.287a6.148,6.148,0,0,0-5.184-2.819h-5.709l-3.322.083a5.769,5.769,0,0,0-2.192.569.524.524,0,1,1-.436-.954,6.693,6.693,0,0,1,2.615-.663l3.32-.084h5.723a7.189,7.189,0,0,1,6.066,3.3l2.769,4.287a2.9,2.9,0,0,0,2.449,1.332h1.763a3.515,3.515,0,0,1,3.512,3.511A3.513,3.513,0,0,1,665.884,89.042Z" transform="translate(-640.872 -73.105)" fill="#383838"/></g><g transform="translate(30.273 21.264)"><path d="M666.433,88a.526.526,0,0,1-.315-.947,2.427,2.427,0,0,0,.831-1.107,2.376,2.376,0,0,0,.161-.866,2.594,2.594,0,0,0-.084-.642,2.437,2.437,0,0,0-.637-1.1.571.571,0,0,1-.1-.772.487.487,0,0,1,.7-.1c.049.041.1.086.14.129a3.5,3.5,0,0,1,.91,1.573,3.587,3.587,0,0,1,.12.91,3.529,3.529,0,0,1-1.413,2.815A.531.531,0,0,1,666.433,88Z" transform="translate(-665.908 -82.357)" fill="#383838"/></g><g transform="translate(30.273 21.264)"><path d="M666.433,88a.526.526,0,0,1-.315-.947,2.427,2.427,0,0,0,.831-1.107,2.376,2.376,0,0,0,.161-.866,2.594,2.594,0,0,0-.084-.642,2.437,2.437,0,0,0-.637-1.1.571.571,0,0,1-.1-.772.487.487,0,0,1,.7-.1c.049.041.1.086.14.129a3.5,3.5,0,0,1,.91,1.573,3.587,3.587,0,0,1,.12.91,3.529,3.529,0,0,1-1.413,2.815A.531.531,0,0,1,666.433,88Z" transform="translate(-665.908 -82.357)" fill="#383838"/></g></svg>