<svg xmlns="http://www.w3.org/2000/svg" width="65.871" height="66.95" viewBox="0 0 65.871 66.95"><g transform="translate(-1050.059 -693.278)"><g transform="translate(1066 726.646)"><path d="M547.734,154.988a.263.263,0,0,1-.263-.239,2.928,2.928,0,0,0-5.836,0,.263.263,0,0,1-.263.239h-5.9v2.953h18.166v-2.953Z" transform="translate(-515.47 -185.428)" fill="#15376c"/></g><g transform="translate(1050.059 693.319)"><g transform="translate(24.508 0)"><g transform="translate(4.278 9.262)"><path d="M549.809,162.576v-.311h9.845v44.381H541.739v-7.072A13.088,13.088,0,0,0,529.206,186.5l-.215-.009h-.111c-.077,0-.151,0-.228,0h-1.531v-2a10.763,10.763,0,0,0,1.175-.958,10.937,10.937,0,0,0-1.175-16.914v-4.35h9.845v.311l2.35,1.594h8.141l2.351-1.594" transform="translate(-527.122 -162.265)" fill="#e6e6e6"/></g><g transform="translate(0 5.853)"><path d="M563.108,209.4H541.072a.432.432,0,0,1-.433-.433v-9.929A12.619,12.619,0,0,0,528.521,186.4l-.308-.009c-.089,0-.133.005-.228,0h-4.2a.434.434,0,0,1-.433-.433v-.622a.435.435,0,0,1,.29-.408,10.354,10.354,0,0,0,2.565-1.325,10.562,10.562,0,0,0,1.129-.919,10.5,10.5,0,0,0,0-15.326,10.558,10.558,0,0,0-1.127-.92,10.684,10.684,0,0,0-3.7-1.657.431.431,0,0,1-.333-.421v-5.6a.432.432,0,0,1,.433-.433h40.5a.432.432,0,0,1,.433.433v50.214A.432.432,0,0,1,563.108,209.4Zm-21.6-.865h21.17V159.19H523.043v4.83c.3.081.6.174.887.277a11.343,11.343,0,0,1,3.995,2.428,11.406,11.406,0,0,1,3.595,8.293,11.385,11.385,0,0,1-7.016,10.506h3.482c.083,0,.164,0,.247,0h.093l.231.01A13.482,13.482,0,0,1,541.5,199.043Z" transform="translate(-522.178 -158.325)" fill="#383838"/></g><g transform="translate(1.608 31.484)"><path d="M524.036,189.328v.621h2.67v-2A10.848,10.848,0,0,1,524.036,189.328Z" transform="translate(-524.036 -187.948)" fill="#ffc7c0"/></g><g transform="translate(11.066)"><path d="M553.488,158.279H535.4a.433.433,0,0,1-.433-.433v-2.941a.433.433,0,0,1,.433-.433h5.724a3.348,3.348,0,0,1,6.64,0h5.723a.433.433,0,0,1,.433.433v2.941A.433.433,0,0,1,553.488,158.279Zm-17.655-.865h17.222v-2.076h-5.444a.7.7,0,0,1-.693-.635,2.482,2.482,0,0,0-4.947,0,.7.7,0,0,1-.694.635h-5.444Zm11.948-2.781h0Z" transform="translate(-534.968 -151.56)" fill="#383838"/></g><g transform="translate(3.844 8.83)"><path d="M559.585,207.01H541.672a.432.432,0,0,1-.433-.433v-7.072a12.62,12.62,0,0,0-12.119-12.642l-.213-.009h-.094c-.09,0-.157,0-.228,0h-1.531a.433.433,0,0,1-.433-.433v-2a.433.433,0,0,1,.184-.353,10.656,10.656,0,0,0,1.128-.919,10.5,10.5,0,0,0,0-15.326,10.571,10.571,0,0,0-1.127-.92.432.432,0,0,1-.184-.353V162.2a.433.433,0,0,1,.433-.433h9.6a.433.433,0,0,1,0,.865h-9.171v3.695a11.385,11.385,0,0,1,4.633,9.158,11.375,11.375,0,0,1-4.633,9.158v1.346h1.1c.082,0,.163,0,.247,0l.324.009A13.483,13.483,0,0,1,542.1,199.505v6.639h17.048V162.63H549.98a.433.433,0,0,1,0-.865h9.606a.432.432,0,0,1,.433.433v44.379A.433.433,0,0,1,559.585,207.01Z" transform="translate(-526.621 -161.765)" fill="#383838"/></g><g transform="translate(13.689 4.923)"><path d="M548.924,163.924h-8.141a.426.426,0,0,1-.243-.074l-2.351-1.594a.433.433,0,0,1-.19-.357v-4.216a.433.433,0,0,1,.865,0v3.987l2.051,1.39h7.875l2.051-1.39v-3.987a.433.433,0,0,1,.865,0V161.9a.433.433,0,0,1-.19.357l-2.351,1.594A.426.426,0,0,1,548.924,163.924Z" transform="translate(-537.999 -157.25)" fill="#383838"/></g></g><g transform="translate(0 11.179)"><g transform="translate(18.383 25.139)"><path d="M523.271,220.486l-2.332-21.958,1.777-4.993h-7.052l1.765,4.993L515.1,220.486l.4,3.206h7.37Z" transform="translate(-515.099 -193.535)" fill="#ffc7c0"/></g><g transform="translate(11.11)"><path d="M518.064,187.219a11.37,11.37,0,1,1,11.369-11.37A11.384,11.384,0,0,1,518.064,187.219Zm0-21.874a10.5,10.5,0,1,0,10.5,10.5A10.517,10.517,0,0,0,518.064,165.345Z" transform="translate(-506.693 -164.48)" fill="#383838"/></g><g transform="translate(12.97 1.859)"><path d="M518.354,185.651a9.511,9.511,0,1,1,9.511-9.511A9.522,9.522,0,0,1,518.354,185.651Z" transform="translate(-508.842 -166.628)" fill="#ffcd73"/></g><g transform="translate(0 21.873)"><path d="M537.253,223.615a.433.433,0,0,1-.433-.433v-19.9a12.667,12.667,0,0,0-12.651-12.652h-16.8a12.667,12.667,0,0,0-12.653,12.652v19.9a.433.433,0,1,1-.865,0v-19.9A13.533,13.533,0,0,1,507.37,189.76h16.8a13.533,13.533,0,0,1,13.517,13.517v19.9A.433.433,0,0,1,537.253,223.615Z" transform="translate(-493.852 -189.76)" fill="#383838"/></g><g transform="translate(18.515 24.705)"><path d="M520.984,198.891h-3.533a.433.433,0,0,1-.408-.288l-1.767-4.993a.433.433,0,0,1,.408-.577h7.066a.433.433,0,0,1,.408.577l-1.767,4.993A.433.433,0,0,1,520.984,198.891Zm-3.228-.865h2.923l1.46-4.128H516.3Z" transform="translate(-515.251 -193.033)" fill="#383838"/></g><g transform="translate(17.937 29.699)"><path d="M523.036,224.835a.472.472,0,0,1-.06,0,.433.433,0,0,1-.37-.488l.264-1.934L520.5,199.67H517.75l-2.3,22.079.335,2.6a.433.433,0,1,1-.858.111l-.341-2.646a.437.437,0,0,1,0-.1l2.344-22.518a.432.432,0,0,1,.431-.387h3.532a.432.432,0,0,1,.431.388l2.412,23.178a.465.465,0,0,1,0,.1l-.27,1.986A.434.434,0,0,1,523.036,224.835Z" transform="translate(-514.584 -198.805)" fill="#383838"/></g><g transform="translate(14.033 21.873)"><path d="M511.769,199.939a.419.419,0,0,1-.129-.021.433.433,0,0,1-.3-.355l-1.266-9.313a.434.434,0,0,1,.429-.491h3.47a.433.433,0,0,1,.408.289l1.766,4.992a.434.434,0,0,1-.089.437l-3.97,4.32A.434.434,0,0,1,511.769,199.939ZM511,190.625l1.075,7.909,3.17-3.45-1.576-4.459Z" transform="translate(-510.071 -189.76)" fill="#383838"/></g><g transform="translate(24.838 21.874)"><path d="M527.287,200.236a.432.432,0,0,1-.317-.138l-4.295-4.618a.43.43,0,0,1-.091-.439l1.767-4.992a.432.432,0,0,1,.408-.288h3.834a.432.432,0,0,1,.429.49l-1.306,9.611a.436.436,0,0,1-.3.355A.456.456,0,0,1,527.287,200.236Zm-3.8-5.153,3.494,3.757,1.116-8.214h-3.034Z" transform="translate(-522.559 -189.761)" fill="#383838"/></g><g transform="translate(14.033 21.875)"><path d="M514.748,223.615a.434.434,0,0,1-.429-.378l-4.245-32.989a.432.432,0,0,1,.857-.111l4.246,32.989a.433.433,0,0,1-.374.485A.4.4,0,0,1,514.748,223.615Z" transform="translate(-510.071 -189.762)" fill="#383838"/></g><g transform="translate(25.956 21.874)"><path d="M524.285,223.615a.45.45,0,0,1-.059,0,.433.433,0,0,1-.371-.487l4.483-32.989a.442.442,0,0,1,.487-.37.432.432,0,0,1,.37.486l-4.482,32.989A.435.435,0,0,1,524.285,223.615Z" transform="translate(-523.851 -189.762)" fill="#383838"/></g><g transform="translate(5.953 41.445)"><path d="M501.165,226.663a.433.433,0,0,1-.433-.433V212.814a.432.432,0,1,1,.864,0v13.417A.433.433,0,0,1,501.165,226.663Z" transform="translate(-500.732 -212.381)" fill="#383838"/></g><g transform="translate(37.29 41.445)"><path d="M537.383,226.663a.433.433,0,0,1-.433-.433V212.814a.432.432,0,1,1,.864,0v13.417A.433.433,0,0,1,537.383,226.663Z" transform="translate(-536.95 -212.381)" fill="#383838"/></g></g><g transform="translate(0 11.179)"><g transform="translate(11.545 0.433)"><path d="M518.132,186.854a10.936,10.936,0,1,1,10.936-10.936A10.949,10.949,0,0,1,518.132,186.854Z" transform="translate(-507.195 -164.981)" fill="#ffcd73"/></g><g transform="translate(11.11)"><path d="M518.064,187.219a11.37,11.37,0,1,1,11.369-11.37A11.384,11.384,0,0,1,518.064,187.219Zm0-21.874a10.5,10.5,0,1,0,10.5,10.5A10.517,10.517,0,0,0,518.064,165.345Z" transform="translate(-506.693 -164.48)" fill="#383838"/></g><g transform="translate(0 21.873)"><path d="M537.253,223.615a.433.433,0,0,1-.433-.433v-19.9a12.667,12.667,0,0,0-12.651-12.652h-16.8a12.667,12.667,0,0,0-12.653,12.652v19.9a.433.433,0,1,1-.865,0v-19.9A13.533,13.533,0,0,1,507.37,189.76h16.8a13.533,13.533,0,0,1,13.517,13.517v19.9A.433.433,0,0,1,537.253,223.615Z" transform="translate(-493.852 -189.76)" fill="#383838"/></g><g transform="translate(17.937 29.699)"><path d="M523.036,224.835a.472.472,0,0,1-.06,0,.433.433,0,0,1-.37-.488l.264-1.934L520.5,199.67H517.75l-2.3,22.079.335,2.6a.433.433,0,1,1-.858.111l-.341-2.646a.437.437,0,0,1,0-.1l2.344-22.518a.432.432,0,0,1,.431-.387h3.532a.432.432,0,0,1,.431.388l2.412,23.178a.465.465,0,0,1,0,.1l-.27,1.986A.434.434,0,0,1,523.036,224.835Z" transform="translate(-514.584 -198.805)" fill="#383838"/></g><g transform="translate(14.033 21.873)"><path d="M511.769,199.939a.419.419,0,0,1-.129-.021.433.433,0,0,1-.3-.355l-1.266-9.313a.434.434,0,0,1,.429-.491h3.47a.433.433,0,0,1,.408.289l1.766,4.992a.434.434,0,0,1-.089.437l-3.97,4.32A.434.434,0,0,1,511.769,199.939ZM511,190.625l1.075,7.909,3.17-3.45-1.576-4.459Z" transform="translate(-510.071 -189.76)" fill="#383838"/></g><g transform="translate(24.838 21.874)"><path d="M527.287,200.236a.432.432,0,0,1-.317-.138l-4.295-4.618a.43.43,0,0,1-.091-.439l1.767-4.992a.432.432,0,0,1,.408-.288h3.834a.432.432,0,0,1,.429.49l-1.306,9.611a.436.436,0,0,1-.3.355A.456.456,0,0,1,527.287,200.236Zm-3.8-5.153,3.494,3.757,1.116-8.214h-3.034Z" transform="translate(-522.559 -189.761)" fill="#383838"/></g><g transform="translate(14.033 21.875)"><path d="M514.748,223.615a.434.434,0,0,1-.429-.378l-4.245-32.989a.432.432,0,0,1,.857-.111l4.246,32.989a.433.433,0,0,1-.374.485A.4.4,0,0,1,514.748,223.615Z" transform="translate(-510.071 -189.762)" fill="#383838"/></g><g transform="translate(25.956 21.874)"><path d="M524.285,223.615a.45.45,0,0,1-.059,0,.433.433,0,0,1-.371-.487l4.483-32.989a.442.442,0,0,1,.487-.37.432.432,0,0,1,.37.486l-4.482,32.989A.435.435,0,0,1,524.285,223.615Z" transform="translate(-523.851 -189.762)" fill="#383838"/></g><g transform="translate(5.953 41.445)"><path d="M501.165,226.663a.433.433,0,0,1-.433-.433V212.814a.432.432,0,1,1,.864,0v13.417A.433.433,0,0,1,501.165,226.663Z" transform="translate(-500.732 -212.381)" fill="#383838"/></g><g transform="translate(37.29 41.445)"><path d="M537.383,226.663a.433.433,0,0,1-.433-.433V212.814a.432.432,0,1,1,.864,0v13.417A.433.433,0,0,1,537.383,226.663Z" transform="translate(-536.95 -212.381)" fill="#383838"/></g></g><g transform="translate(40.605 16.366)"><rect width="16.442" height="0.864" fill="#383838"/></g><g transform="translate(40.605 19.185)"><rect width="16.442" height="0.864" fill="#383838"/></g><g transform="translate(35.368 16.366)"><rect width="2.353" height="0.864" fill="#383838"/></g><g transform="translate(40.605 25.311)"><rect width="16.442" height="0.864" fill="#383838"/></g><g transform="translate(40.605 28.131)"><rect width="16.442" height="0.864" fill="#383838"/></g><g transform="translate(35.368 25.311)"><rect width="2.353" height="0.864" fill="#383838"/></g><g transform="translate(40.605 33.704)"><rect width="16.442" height="0.864" fill="#383838"/></g><g transform="translate(43.505 36.523)"><rect width="13.542" height="0.864" fill="#383838"/></g><g transform="translate(45.992 42.649)"><rect width="11.054" height="0.864" fill="#383838"/></g><g transform="translate(45.992 45.469)"><rect width="11.054" height="0.864" fill="#383838"/></g></g></g></svg>