<svg xmlns="http://www.w3.org/2000/svg" width="68.362" height="70.499" viewBox="0 0 68.362 70.499"><g transform="translate(37.413 16.817)"><path d="M683.719,184.865c-1.363,1.643-3.632,5.058-6.787,6.623a.385.385,0,0,1-.061.028,17.655,17.655,0,0,1-6.727,1.544c-.184.007-.371.011-.555.011-.382,0-.765-.011-1.14-.038-5.293-.333-9.953-4.131-12.991-8.093v0c.527-5.009,6.842-8.2,9.914-8.2H673.8C677.564,176.733,683.155,179.894,683.719,184.865Z" transform="translate(-655.457 -176.733)" fill="#e6e6e6"/></g><g transform="translate(0 0)"><g transform="translate(34.723)"><g transform="translate(2 2.999)"><g transform="translate(7.847 0.481)"><path d="M669.563,176.213a6.669,6.669,0,1,1,6.67-6.67A6.629,6.629,0,0,1,669.563,176.213Z" transform="translate(-662.893 -162.875)" fill="#ffcd73"/></g><g transform="translate(7.365)"><path d="M669.543,176.676a7.15,7.15,0,1,1,7.151-7.151A7.159,7.159,0,0,1,669.543,176.676Zm0-13.338a6.188,6.188,0,1,0,6.188,6.187A6.195,6.195,0,0,0,669.543,163.337Z" transform="translate(-662.392 -162.375)" fill="#383838"/></g><g transform="translate(12.437 13.819)"><path d="M670.672,179.782l1.267-3.048h-4.277l1.291,3.048Z" transform="translate(-667.663 -176.734)" fill="#ffc7c0"/></g><g transform="translate(11.732 16.866)"><path d="M672.5,190.4l-1.974,2.773c-.169.007-.342.01-.51.01-.351,0-.7-.01-1.047-.036l-2.042-2.782,2-10.469h1.721S671.918,186.8,672.5,190.4Z" transform="translate(-666.93 -179.9)" fill="#ffc7c0"/></g><g transform="translate(11.955 13.337)"><path d="M670.652,180.243h-1.717a.481.481,0,0,1-.444-.294L667.2,176.9a.482.482,0,0,1,.443-.669h4.277a.48.48,0,0,1,.444.666l-1.267,3.048A.482.482,0,0,1,670.652,180.243Zm-1.4-.962h1.078l.866-2.086h-2.828Z" transform="translate(-667.162 -176.233)" fill="#383838"/></g><g transform="translate(11.25 16.385)"><path d="M670,193.649c-.362,0-.726-.011-1.082-.037a.48.48,0,0,1-.353-.2l-2.041-2.783a.479.479,0,0,1-.085-.373l2-10.469a.48.48,0,0,1,.473-.391h1.72a.48.48,0,0,1,.472.394c.014.068,1.279,6.945,1.858,10.514a.488.488,0,0,1-.083.356l-1.973,2.772a.477.477,0,0,1-.374.2C670.354,193.645,670.174,193.649,670,193.649Zm-.792-.982c.347.018.7.025,1.05.016l1.719-2.416c-.506-3.1-1.478-8.421-1.75-9.905H669.3l-1.883,9.871Z" transform="translate(-666.429 -179.4)" fill="#383838"/></g><g transform="translate(0 13.338)"><path d="M669.56,193.531c-.363,0-.727-.012-1.083-.038A16.814,16.814,0,0,1,656.2,186.93l-.024-.034a16.992,16.992,0,0,1-1.374-2.112.478.478,0,0,1-.04-.367,11.449,11.449,0,0,1,10.927-8.184h7.743a11.453,11.453,0,0,1,10.932,8.184.48.48,0,0,1-.041.368c-.236.426-.486.844-.757,1.246-.2.265-.411.544-.657.842a20.11,20.11,0,0,1-6.389,5.153,1.162,1.162,0,0,1-.117.05,16.51,16.51,0,0,1-6.313,1.442C669.914,193.526,669.735,193.531,669.56,193.531Zm-12.576-7.156a15.861,15.861,0,0,0,11.559,6.159,12.941,12.941,0,0,0,1.509.024,15.693,15.693,0,0,0,6-1.375,19.147,19.147,0,0,0,6.112-4.92c.234-.285.439-.551.615-.787.207-.306.409-.638.6-.978a10.485,10.485,0,0,0-9.95-7.3h-7.743a10.484,10.484,0,0,0-9.946,7.3,15.867,15.867,0,0,0,1.221,1.844C656.97,186.352,656.978,186.363,656.984,186.375Z" transform="translate(-654.74 -176.234)" fill="#383838"/></g></g><path d="M669.482,192.892c-.363,0-.727-.011-1.083-.037a16.814,16.814,0,0,1-12.279-6.563l-.024-.034a16.815,16.815,0,1,1,28.148-2.113c-.238.428-.488.846-.759,1.248-.2.265-.411.544-.657.842a20.11,20.11,0,0,1-6.389,5.153,1.162,1.162,0,0,1-.117.05,16.51,16.51,0,0,1-6.313,1.442C669.836,192.888,669.656,192.892,669.482,192.892Zm-12.576-7.155a15.861,15.861,0,0,0,11.559,6.159,12.941,12.941,0,0,0,1.509.024,15.693,15.693,0,0,0,6-1.375,19.147,19.147,0,0,0,6.112-4.92c.234-.285.439-.551.615-.787.243-.359.478-.755.7-1.154a15.882,15.882,0,1,0-26.517,2.02C656.892,185.714,656.9,185.726,656.906,185.737Z" transform="translate(-652.662 -159.259)" fill="#383838"/><g transform="translate(0 0.001)"><path d="M669.482,192.893A16.816,16.816,0,1,1,686.3,176.077,16.837,16.837,0,0,1,669.482,192.893Zm0-32.67a15.854,15.854,0,1,0,15.856,15.855A15.874,15.874,0,0,0,669.482,160.222Z" transform="translate(-652.662 -159.26)" fill="#383838"/></g></g><g transform="translate(0 36.865)"><g transform="translate(2.001 2.999)"><g transform="translate(7.846 0.481)"><path d="M633.484,214.518a6.67,6.67,0,1,1,6.67-6.67A6.629,6.629,0,0,1,633.484,214.518Z" transform="translate(-626.814 -201.18)" fill="#ffcd73"/></g><g transform="translate(0.689 13.818)"><path d="M647.64,223.169c-1.364,1.643-3.633,5.058-6.788,6.622a.425.425,0,0,1-.06.029,17.663,17.663,0,0,1-6.727,1.544c-.185.007-.372.011-.556.011-.382,0-.764-.011-1.139-.039-5.293-.332-9.953-4.131-12.992-8.092v0c.527-5.009,6.842-8.2,9.915-8.2h8.43C641.485,215.038,647.077,218.2,647.64,223.169Z" transform="translate(-619.378 -215.038)" fill="#e6e6e6"/></g><g transform="translate(7.364)"><path d="M633.465,214.98a7.15,7.15,0,1,1,7.151-7.15A7.159,7.159,0,0,1,633.465,214.98Zm0-13.337a6.187,6.187,0,1,0,6.188,6.187A6.2,6.2,0,0,0,633.465,201.642Z" transform="translate(-626.313 -200.68)" fill="#383838"/></g><g transform="translate(12.436 13.819)"><path d="M634.593,218.086l1.267-3.048h-4.277l1.291,3.048Z" transform="translate(-631.584 -215.039)" fill="#15376c"/></g><g transform="translate(11.731 16.866)"><path d="M636.424,228.71l-1.974,2.773c-.168.007-.341.01-.51.01-.351,0-.7-.01-1.047-.036l-2.042-2.783,2-10.468h1.72S635.839,225.1,636.424,228.71Z" transform="translate(-630.851 -218.205)" fill="#15376c"/></g><g transform="translate(11.954 13.336)"><path d="M634.573,218.547h-1.717a.48.48,0,0,1-.444-.293l-1.292-3.048a.483.483,0,0,1,.443-.67h4.278a.482.482,0,0,1,.444.667l-1.267,3.048A.481.481,0,0,1,634.573,218.547Zm-1.4-.962h1.078l.867-2.086h-2.83Z" transform="translate(-631.083 -214.537)" fill="#383838"/></g><g transform="translate(11.249 16.384)"><path d="M633.921,231.954c-.363,0-.726-.011-1.082-.037a.481.481,0,0,1-.353-.2l-2.042-2.783a.48.48,0,0,1-.085-.374l2-10.469a.48.48,0,0,1,.472-.391h1.722a.481.481,0,0,1,.473.394c.013.069,1.278,6.946,1.858,10.514a.486.486,0,0,1-.083.356l-1.974,2.773a.48.48,0,0,1-.374.2C634.275,231.95,634.1,231.954,633.921,231.954Zm-.792-.983c.347.019.7.027,1.049.017l1.72-2.417c-.507-3.1-1.478-8.421-1.75-9.905h-.922l-1.883,9.872Z" transform="translate(-630.35 -217.704)" fill="#383838"/></g><g transform="translate(0 13.338)"><path d="M633.482,231.836c-.364,0-.727-.012-1.083-.038a16.81,16.81,0,0,1-12.279-6.563.31.31,0,0,1-.028-.039,16.739,16.739,0,0,1-1.37-2.106.478.478,0,0,1-.04-.367,11.445,11.445,0,0,1,10.927-8.184h7.743a11.447,11.447,0,0,1,10.93,8.184.477.477,0,0,1-.04.368c-.246.448-.5.867-.757,1.246-.2.264-.411.544-.657.843a20.114,20.114,0,0,1-6.388,5.151,1.263,1.263,0,0,1-.117.051,16.5,16.5,0,0,1-6.315,1.442C633.836,231.831,633.656,231.836,633.482,231.836Zm-12.572-7.152a15.852,15.852,0,0,0,11.555,6.155,13.354,13.354,0,0,0,1.508.024,15.685,15.685,0,0,0,6-1.375,19.165,19.165,0,0,0,6.111-4.92c.233-.285.44-.551.614-.786.208-.308.41-.639.6-.979a10.483,10.483,0,0,0-9.949-7.3h-7.743a10.479,10.479,0,0,0-9.946,7.3,15.765,15.765,0,0,0,1.221,1.844Z" transform="translate(-618.662 -214.539)" fill="#383838"/></g></g><g transform="translate(0.001)"><path d="M633.4,231.2c-.364,0-.727-.011-1.083-.037a16.81,16.81,0,0,1-12.279-6.563.31.31,0,0,1-.028-.039,16.816,16.816,0,1,1,28.15-2.107c-.247.45-.5.869-.758,1.248-.2.264-.411.544-.657.843a20.114,20.114,0,0,1-6.388,5.151,1.263,1.263,0,0,1-.117.051,16.5,16.5,0,0,1-6.315,1.442C633.757,231.193,633.578,231.2,633.4,231.2Zm-12.572-7.151a15.852,15.852,0,0,0,11.555,6.155,13.354,13.354,0,0,0,1.508.024,15.685,15.685,0,0,0,6-1.375,19.165,19.165,0,0,0,6.111-4.92c.233-.285.44-.551.614-.786.243-.36.479-.755.7-1.155a15.858,15.858,0,1,0-27.833,0,15.686,15.686,0,0,0,1.318,2.019Z" transform="translate(-616.584 -197.564)" fill="#383838"/></g><g transform="translate(0 0.001)"><path d="M633.4,231.2a16.816,16.816,0,1,1,16.818-16.816A16.837,16.837,0,0,1,633.4,231.2Zm0-32.67a15.854,15.854,0,1,0,15.856,15.854A15.874,15.874,0,0,0,633.4,198.527Z" transform="translate(-616.583 -197.565)" fill="#383838"/></g></g><g transform="translate(38.608 38.125)"><path d="M671.722,217.959H657.18a.482.482,0,0,1-.481-.481v-4.784a.482.482,0,0,1,.481-.481h9.276v-6.978h-2.435a.481.481,0,0,1-.344-.818l5.308-5.406a.5.5,0,0,1,.687,0l5.308,5.406a.481.481,0,0,1-.343.818H672.2v12.243A.482.482,0,0,1,671.722,217.959ZM657.661,217h13.58V204.753a.481.481,0,0,1,.481-.481h1.768l-4.161-4.238-4.161,4.238h1.769a.482.482,0,0,1,.481.481v7.94a.482.482,0,0,1-.481.481h-9.276Z" transform="translate(-656.699 -198.873)" fill="#383838"/></g><g transform="translate(11.102 12.333)"><path d="M633.909,191.167a.482.482,0,0,1-.345-.144l-5.308-5.4a.481.481,0,0,1,.343-.819h2.435V172.555a.482.482,0,0,1,.481-.481h14.541a.483.483,0,0,1,.481.481v4.785a.482.482,0,0,1-.481.481h-9.275V184.8h2.434a.482.482,0,0,1,.345.819l-5.309,5.4A.479.479,0,0,1,633.909,191.167Zm-4.162-5.406L633.908,190l4.161-4.238H636.3a.481.481,0,0,1-.481-.481v-7.94a.482.482,0,0,1,.481-.481h9.275v-3.823H632V185.28a.481.481,0,0,1-.481.481Z" transform="translate(-628.119 -172.074)" fill="#383838"/></g></g><g transform="translate(38.608 38.125)"><path d="M671.722,217.959H657.18a.482.482,0,0,1-.481-.481v-4.784a.482.482,0,0,1,.481-.481h9.276v-6.978h-2.435a.481.481,0,0,1-.344-.818l5.308-5.406a.5.5,0,0,1,.687,0l5.308,5.406a.481.481,0,0,1-.343.818H672.2v12.243A.482.482,0,0,1,671.722,217.959ZM657.661,217h13.58V204.753a.481.481,0,0,1,.481-.481h1.768l-4.161-4.238-4.161,4.238h1.769a.482.482,0,0,1,.481.481v7.94a.482.482,0,0,1-.481.481h-9.276Z" transform="translate(-656.699 -198.873)" fill="#383838"/></g><g transform="translate(11.102 12.333)"><path d="M633.909,191.167a.482.482,0,0,1-.345-.144l-5.308-5.4a.481.481,0,0,1,.343-.819h2.435V172.555a.482.482,0,0,1,.481-.481h14.541a.483.483,0,0,1,.481.481v4.785a.482.482,0,0,1-.481.481h-9.275V184.8h2.434a.482.482,0,0,1,.345.819l-5.309,5.4A.479.479,0,0,1,633.909,191.167Zm-4.162-5.406L633.908,190l4.161-4.238H636.3a.481.481,0,0,1-.481-.481v-7.94a.482.482,0,0,1,.481-.481h9.275v-3.823H632V185.28a.481.481,0,0,1-.481.481Z" transform="translate(-628.119 -172.074)" fill="#383838"/></g></svg>