<svg xmlns="http://www.w3.org/2000/svg" width="65.496" height="65.862" viewBox="0 0 65.496 65.862"><g transform="translate(-1049.667 -1668.634)"><g transform="translate(1050 1668.634)"><g transform="translate(16.994 0)"><g transform="translate(4.367 4.229)"><g transform="translate(0.48 0.449)"><rect width="18.19" height="20.422" fill="#e6e6e6"/></g><g transform="translate(0 2.709)"><g transform="translate(5.584 0.85)"><path d="M407.589,428.64a4.228,4.228,0,1,1,4.228-4.228A4.233,4.233,0,0,1,407.589,428.64Z" transform="translate(-403.361 -420.184)" fill="#ffcd73"/></g><g transform="translate(0.448 9.697)"><path d="M397.643,438.547c0-1.9-.248-3.972.741-5.681A5.583,5.583,0,0,1,402.1,430.2a11.788,11.788,0,0,1,2.288-.105c1.938,0,3.878-.026,5.814,0a5.619,5.619,0,0,1,5.632,5.441c.03,1,0,2.009,0,3.012" transform="translate(-397.615 -430.082)" fill="#fff"/></g><g transform="translate(4.733)"><path d="M407.487,429.388a5.077,5.077,0,1,1,5.078-5.077A5.083,5.083,0,0,1,407.487,429.388Zm0-9.261a4.184,4.184,0,1,0,4.184,4.184A4.188,4.188,0,0,0,407.487,420.127Z" transform="translate(-402.409 -419.233)" fill="#383838"/></g><g transform="translate(0 9.251)"><path d="M415.783,438.941a.448.448,0,0,1-.447-.447c0-.333,0-.666.007-1,.006-.668.013-1.335-.007-2a5.146,5.146,0,0,0-5.191-5.006c-1.29-.017-2.578-.012-3.868-.005l-1.941.006-.421,0a8.988,8.988,0,0,0-1.78.1,5.158,5.158,0,0,0-3.418,2.451,8.535,8.535,0,0,0-.695,4.5c.007.324.014.646.014.964a.447.447,0,1,1-.894,0c0-.311-.007-.627-.014-.945a9.191,9.191,0,0,1,.814-4.962,6.067,6.067,0,0,1,4.019-2.88,9.855,9.855,0,0,1,1.962-.117l.412,0,1.937-.006c1.3,0,2.59-.011,3.884.006a6.1,6.1,0,0,1,6.073,5.872c.021.678.014,1.359.008,2.037,0,.331-.007.661-.007.99A.448.448,0,0,1,415.783,438.941Z" transform="translate(-397.114 -429.583)" fill="#383838"/></g><g transform="translate(5.97 9.261)"><path d="M405.324,438.942a.447.447,0,0,1-.442-.391L403.8,430.1a.447.447,0,0,1,.443-.5h1.092a.441.441,0,0,1,.341.16l1.432,1.7a.445.445,0,0,1,.047.509l-1.81,3.158.425,3.316a.447.447,0,0,1-.386.5A.414.414,0,0,1,405.324,438.942Zm-.577-8.454.406,3.164,1.067-1.862-1.1-1.3Z" transform="translate(-403.794 -429.594)" fill="#383838"/></g><g transform="translate(10.324 9.261)"><path d="M410.55,438.942a.415.415,0,0,1-.057,0,.447.447,0,0,1-.386-.5l.425-3.317-1.809-3.157a.445.445,0,0,1,.046-.509l1.432-1.7a.443.443,0,0,1,.342-.16h1.091a.447.447,0,0,1,.442.5l-1.084,8.453A.449.449,0,0,1,410.55,438.942Zm-.9-7.152,1.066,1.861.407-3.163h-.376Z" transform="translate(-408.664 -429.594)" fill="#383838"/></g><g transform="translate(9.382 12.02)"><path d="M408.058,439.287a.447.447,0,0,1-.447-.447v-5.712a.446.446,0,1,1,.893,0v5.712A.446.446,0,0,1,408.058,439.287Z" transform="translate(-407.611 -432.681)" fill="#383838"/></g><g transform="translate(8.494 10.893)"><path d="M407.952,433.441h-.006a.446.446,0,0,1-.336-.159l-.889-1.059a.447.447,0,0,1,.686-.575l.556.662.657-.74a.447.447,0,0,1,.668.594l-1,1.127A.447.447,0,0,1,407.952,433.441Z" transform="translate(-406.617 -431.42)" fill="#383838"/></g></g><g transform="translate(0.032)"><path d="M415.786,437.519H397.6a.447.447,0,0,1-.447-.447V416.649a.448.448,0,0,1,.447-.447h18.19a.448.448,0,0,1,.447.447v20.423A.447.447,0,0,1,415.786,437.519Zm-17.743-.894h17.3V417.1h-17.3Z" transform="translate(-397.15 -416.202)" fill="#383838"/></g><g transform="translate(24.317 3.733)"><rect width="14.601" height="0.893" fill="#383838"/></g><g transform="translate(24.317 8.363)"><rect width="14.601" height="0.893" fill="#383838"/></g><g transform="translate(24.317 12.995)"><rect width="14.601" height="0.893" fill="#383838"/></g><g transform="translate(24.317 17.626)"><rect width="14.601" height="0.893" fill="#383838"/></g><g transform="translate(0.544 27.783)"><rect width="3.444" height="0.893" fill="#383838"/></g><g transform="translate(8.112 27.783)"><rect width="30.805" height="0.893" fill="#383838"/></g><g transform="translate(8.112 32.692)"><rect width="30.805" height="0.893" fill="#383838"/></g><g transform="translate(0.544 38.212)"><rect width="3.444" height="0.893" fill="#383838"/></g><g transform="translate(8.112 38.212)"><rect width="30.805" height="0.893" fill="#383838"/></g><g transform="translate(8.112 43.121)"><rect width="30.805" height="0.893" fill="#383838"/></g><g transform="translate(0.544 48.64)"><rect width="3.444" height="0.893" fill="#383838"/></g><g transform="translate(8.112 48.64)"><rect width="30.805" height="0.893" fill="#383838"/></g><g transform="translate(8.112 53.549)"><rect width="30.805" height="0.893" fill="#383838"/></g></g><path d="M439.949,477.333H392.675a.446.446,0,0,1-.447-.447V411.918a.446.446,0,0,1,.447-.447h47.274a.446.446,0,0,1,.447.447v64.968A.446.446,0,0,1,439.949,477.333Zm-46.827-.894H439.5V412.365h-46.38Z" transform="translate(-392.228 -411.471)" fill="#383838"/></g></g><g transform="translate(810.959 1261.464)"><g transform="translate(239.208 414.997)"><rect width="5.813" height="14.94" transform="translate(4.172 2.127)" fill="#15376c"/><path d="M243.867,438.27h5.813c0,26.851-2.4,34.259-2.4,34.259h-1.014S243.867,463.574,243.867,438.27Z" transform="translate(-239.695 -417.432)" fill="#ffc7c0"/><rect width="5.813" height="18.712" transform="translate(4.172 2.127)" stroke-width="1" stroke="#383838" stroke-linecap="round" stroke-linejoin="round" fill="none"/><path d="M243.867,438.27h5.813c0,26.851-2.4,34.259-2.4,34.259h-1.014S243.867,463.574,243.867,438.27Z" transform="translate(-239.695 -417.432)" fill="none" stroke="#383838" stroke-linecap="round" stroke-linejoin="round" stroke-width="1"/><path d="M249.4,417.124V415h-8.207v20.839" transform="translate(-239.415 -414.997)" fill="none" stroke="#383838" stroke-linecap="round" stroke-linejoin="round" stroke-width="1"/><rect width="1.778" height="3.193" transform="translate(0 18.906)" stroke-width="1" stroke="#383838" stroke-linecap="round" stroke-linejoin="round" fill="none"/><rect width="0.913" height="1.825" transform="translate(6.673 55.097)" stroke-width="1" stroke="#383838" stroke-linecap="round" stroke-linejoin="round" fill="none"/></g><line x2="5.389" transform="translate(243.591 431.979)" stroke-width="1" stroke="#383838" stroke-linecap="round" stroke-linejoin="round" fill="none"/></g></g></svg>