<svg xmlns="http://www.w3.org/2000/svg" width="70.021" height="72.302" viewBox="0 0 70.021 72.302"><g transform="translate(0 0)"><g transform="translate(0.482 49.496)"><path d="M536.857,331.676l2.5,3.1a4.005,4.005,0,0,0,3.116,1.488h5.729a3.476,3.476,0,0,0,3.476-3.475h0a3.476,3.476,0,0,0-3.476-3.476h-2.055a4.008,4.008,0,0,1-3.367-1.832l-3.224-4.99a7.8,7.8,0,0,0-6.547-3.565h-6.651l-3.881.1c-2.335,0-7.985,2.507-7.985,8.338v6.536a4.23,4.23,0,0,0,1.473,3.207l2.52,2.6H536.6Z" transform="translate(-514.495 -318.921)" fill="#e6e6e6"/></g><g transform="translate(8.015 36.865)"><path d="M528.4,317.957a6.081,6.081,0,1,1,6.081-6.081,6.043,6.043,0,0,1-6.081,6.081Z" transform="translate(-522.322 -305.796)" fill="#ffcd73"/></g><g transform="translate(49.632 36.394)"><path d="M572.115,318.409a6.551,6.551,0,1,1,6.55-6.551A6.558,6.558,0,0,1,572.115,318.409Z" transform="translate(-565.564 -305.307)" fill="#ffcd73"/></g><g transform="translate(3.994 58.346)"><path d="M518.625,340.522a.481.481,0,0,1-.481-.481V328.6a.481.481,0,1,1,.961,0V340.04A.481.481,0,0,1,518.625,340.522Z" transform="translate(-518.144 -328.116)" fill="#383838"/></g><g transform="translate(29.933 3.311)"><path d="M557.214,281.461h-2.786a.481.481,0,0,1-.481-.481v-3.748a2.551,2.551,0,1,0-5.1,0v3.748a.481.481,0,0,1-.481.481h-2.785a.48.48,0,0,1-.481-.481v-3.748a6.3,6.3,0,1,1,12.6,0v3.748A.481.481,0,0,1,557.214,281.461Zm-2.305-.962h1.824v-3.266a5.337,5.337,0,1,0-10.674,0V280.5h1.823v-3.266a3.514,3.514,0,1,1,7.028,0Z" transform="translate(-545.096 -270.932)" fill="#383838"/></g><g transform="translate(29.412 13.362)"><rect width="13.371" height="10.095" fill="#ffc7c0"/></g><g transform="translate(28.929 12.88)"><path d="M557.906,291.932H544.534a.481.481,0,0,1-.481-.481V281.356a.481.481,0,0,1,.481-.481h13.372a.481.481,0,0,1,.481.481v10.095A.481.481,0,0,1,557.906,291.932Zm-12.891-.962h12.409v-9.132H545.015Z" transform="translate(-544.053 -280.875)" fill="#383838"/></g><g transform="translate(32.733 15.468)"><path d="M550.52,288.532h-.013a.483.483,0,0,1-.344-.158l-2.033-2.243a.481.481,0,1,1,.713-.646l1.694,1.868,3.645-3.648a.481.481,0,0,1,.681.679l-4,4.006A.48.48,0,0,1,550.52,288.532Z" transform="translate(-548.005 -283.564)" fill="#383838"/></g><g transform="translate(12.732)"><path d="M573.472,299.042a.487.487,0,0,1-.392-.2l-3.853-5.382a11.343,11.343,0,0,1-6.75,2.2H538.7a11.345,11.345,0,0,1-6.673-2.143l-3.815,5.328a.472.472,0,0,1-.538.177.479.479,0,0,1-.334-.455l-.116-19.588A11.492,11.492,0,0,1,538.7,267.492h23.777a11.491,11.491,0,0,1,11.476,11.48v19.589a.48.48,0,0,1-.333.457A.463.463,0,0,1,573.472,299.042ZM538.7,268.454a10.528,10.528,0,0,0-10.514,10.517l.107,18.1,3.238-4.521a.482.482,0,0,1,.689-.1,10.4,10.4,0,0,0,6.481,2.239h23.777a10.393,10.393,0,0,0,6.552-2.3.505.505,0,0,1,.367-.1.48.48,0,0,1,.325.2l3.269,4.567v-18.09a10.527,10.527,0,0,0-10.513-10.517Z" transform="translate(-527.223 -267.492)" fill="#383838"/></g><g transform="translate(7.062 35.913)"><path d="M528.365,318.872a7.032,7.032,0,1,1,7.031-7.033A7.04,7.04,0,0,1,528.365,318.872Zm0-13.1a6.07,6.07,0,1,0,6.069,6.069A6.076,6.076,0,0,0,528.365,305.769Z" transform="translate(-521.332 -304.807)" fill="#383838"/></g><g transform="translate(0 49.014)"><path d="M518.469,340.158a.482.482,0,0,1-.346-.146l-2.52-2.6a4.675,4.675,0,0,1-1.609-3.542v-6.535c0-6.2,6.056-8.82,8.465-8.82l3.871-.1h6.663a8.247,8.247,0,0,1,6.953,3.786l3.224,4.989a3.509,3.509,0,0,0,2.961,1.613h2.056a3.957,3.957,0,1,1,0,7.914h-5.73a4.475,4.475,0,0,1-3.492-1.667l-5.806-7.183a.482.482,0,0,1,.75-.6l5.806,7.182a3.51,3.51,0,0,0,2.742,1.31h5.73a3,3,0,1,0,0-5.99h-2.056a4.469,4.469,0,0,1-3.771-2.053l-3.224-4.989a7.285,7.285,0,0,0-6.143-3.345h-6.651l-3.87.1c-2.148,0-7.516,2.337-7.516,7.858v6.535a3.745,3.745,0,0,0,1.306,2.842l2.551,2.626a.482.482,0,0,1-.345.817Z" transform="translate(-513.994 -318.42)" fill="#383838"/></g><g transform="translate(34.655 59.535)"><path d="M550.486,337a.481.481,0,0,1-.1-.952,3,3,0,0,0,2.153-2.874,2.971,2.971,0,0,0-.877-2.114,3.006,3.006,0,0,0-1.3-.766.48.48,0,0,1-.333-.593.488.488,0,0,1,.594-.333,3.974,3.974,0,0,1,1.723,1.011,3.955,3.955,0,0,1-1.723,6.6A.462.462,0,0,1,550.486,337Zm0-.481h0Z" transform="translate(-550.002 -329.352)" fill="#383838"/></g><g transform="translate(22.362 62.093)"><path d="M537.71,340.669a.482.482,0,0,1-.481-.481v-7.7a.481.481,0,0,1,.962,0v7.7A.482.482,0,0,1,537.71,340.669Z" transform="translate(-537.229 -332.01)" fill="#383838"/></g><g transform="translate(49.15 35.913)"><path d="M572.1,318.872a7.032,7.032,0,1,1,7.031-7.033A7.041,7.041,0,0,1,572.1,318.872Zm0-13.1a6.07,6.07,0,1,0,6.069,6.069A6.077,6.077,0,0,0,572.1,305.769Z" transform="translate(-565.063 -304.807)" fill="#383838"/></g><g transform="translate(34.656 49.013)"><path d="M550.485,329.9a.482.482,0,0,1-.133-.945,3.952,3.952,0,0,1,1.079-.15h2.056a3.514,3.514,0,0,0,2.961-1.612l3.224-4.991a8.246,8.246,0,0,1,6.952-3.785h3.571a.481.481,0,0,1,0,.962h-3.571a7.288,7.288,0,0,0-6.143,3.344l-3.223,4.991a4.473,4.473,0,0,1-3.771,2.053h-2.056a2.915,2.915,0,0,0-.812.114A.494.494,0,0,1,550.485,329.9Z" transform="translate(-550.004 -318.419)" fill="#383838"/></g><g transform="translate(34.655 61.773)"><path d="M557.16,337.22h-5.727a3.862,3.862,0,0,1-1.067-.148.48.48,0,0,1,.116-.946h0a.52.52,0,0,1,.133.017,2.882,2.882,0,0,0,.813.115h5.727a3.5,3.5,0,0,0,2.743-1.309l2.505-3.094a.481.481,0,0,1,.747.606l-2.5,3.093A4.464,4.464,0,0,1,557.16,337.22Z" transform="translate(-550.002 -331.677)" fill="#383838"/></g><g transform="translate(54.367 49.013)"><path d="M580.613,341.708a4.227,4.227,0,0,1-3.917-5.82l.218-.533a11.343,11.343,0,0,0,.841-4.3v-4.8a.481.481,0,0,1,.962,0v4.8a12.32,12.32,0,0,1-.911,4.658l-.218.533a3.264,3.264,0,0,0,3.025,4.495,3.27,3.27,0,0,0,3.071-2.162l.821-2.283a11.358,11.358,0,0,0,.671-3.854V326.4a7.029,7.029,0,0,0-7.022-7.022h-7.188a.481.481,0,1,1,0-.962h7.188a7.994,7.994,0,0,1,7.984,7.984v6.044a12.3,12.3,0,0,1-.729,4.18l-.82,2.283A4.238,4.238,0,0,1,580.613,341.708Z" transform="translate(-570.484 -318.419)" fill="#383838"/></g><g transform="translate(22.362 62.093)"><path d="M537.71,340.669a.482.482,0,0,1-.481-.481v-7.7a.481.481,0,0,1,.962,0v7.7A.482.482,0,0,1,537.71,340.669Z" transform="translate(-537.229 -332.01)" fill="#383838"/></g><g transform="translate(34.656 49.013)"><path d="M550.485,329.9a.482.482,0,0,1-.133-.945,3.952,3.952,0,0,1,1.079-.15h2.056a3.514,3.514,0,0,0,2.961-1.612l3.224-4.991a8.246,8.246,0,0,1,6.952-3.785h3.571a.481.481,0,0,1,0,.962h-3.571a7.288,7.288,0,0,0-6.143,3.344l-3.223,4.991a4.473,4.473,0,0,1-3.771,2.053h-2.056a2.915,2.915,0,0,0-.812.114A.494.494,0,0,1,550.485,329.9Z" transform="translate(-550.004 -318.419)" fill="#383838"/></g><g transform="translate(34.655 61.773)"><path d="M557.16,337.22h-5.727a3.862,3.862,0,0,1-1.067-.148.48.48,0,0,1,.116-.946h0a.52.52,0,0,1,.133.017,2.882,2.882,0,0,0,.813.115h5.727a3.5,3.5,0,0,0,2.743-1.309l2.505-3.094a.481.481,0,0,1,.747.606l-2.5,3.093A4.464,4.464,0,0,1,557.16,337.22Z" transform="translate(-550.002 -331.677)" fill="#383838"/></g><g transform="translate(54.457 49.593)"><path d="M573.239,321.717l1.121-2.7h-3.783l1.142,2.7Z" transform="translate(-570.577 -319.021)" fill="#15376c"/></g><g transform="translate(53.831 52.289)"><path d="M574.857,331.117l-2.413,3.393-2.518-3.427,1.768-9.26h1.521S574.341,327.927,574.857,331.117Z" transform="translate(-569.927 -321.823)" fill="#15376c"/></g><g transform="translate(53.975 49.111)"><path d="M573.219,322.179H571.7a.483.483,0,0,1-.444-.294l-1.142-2.7a.481.481,0,0,1,.444-.668h3.782a.48.48,0,0,1,.445.665l-1.121,2.7A.482.482,0,0,1,573.219,322.179Zm-1.2-.962h.88l.721-1.733h-2.336Z" transform="translate(-570.077 -318.521)" fill="#383838"/></g><g transform="translate(53.349 51.808)"><path d="M572.424,334.972a.48.48,0,0,1-.387-.2l-2.518-3.427a.478.478,0,0,1-.084-.374l1.766-9.259a.48.48,0,0,1,.473-.392H573.2a.481.481,0,0,1,.473.395c.012.061,1.132,6.144,1.643,9.3a.481.481,0,0,1-.083.355l-2.413,3.393a.48.48,0,0,1-.389.2Zm-2-4.025,2,2.721,1.911-2.688c-.442-2.714-1.283-7.326-1.534-8.695h-.723Z" transform="translate(-569.427 -321.323)" fill="#383838"/></g><g transform="translate(46.953 59.197)"><path d="M563.261,340.556a.482.482,0,0,1-.481-.481V329.481a.481.481,0,1,1,.961,0v10.593A.481.481,0,0,1,563.261,340.556Z" transform="translate(-562.78 -329)" fill="#383838"/></g></g><g transform="translate(0 49.014)"><path d="M518.469,340.158a.482.482,0,0,1-.346-.146l-2.52-2.6a4.675,4.675,0,0,1-1.609-3.542v-6.535c0-6.2,6.056-8.82,8.465-8.82l3.871-.1h6.663a8.247,8.247,0,0,1,6.953,3.786l3.224,4.989a3.509,3.509,0,0,0,2.961,1.613h2.056a3.957,3.957,0,1,1,0,7.914h-5.73a4.475,4.475,0,0,1-3.492-1.667l-5.806-7.183a.482.482,0,0,1,.75-.6l5.806,7.182a3.51,3.51,0,0,0,2.742,1.31h5.73a3,3,0,1,0,0-5.99h-2.056a4.469,4.469,0,0,1-3.771-2.053l-3.224-4.989a7.285,7.285,0,0,0-6.143-3.345h-6.651l-3.87.1c-2.148,0-7.516,2.337-7.516,7.858v6.535a3.745,3.745,0,0,0,1.306,2.842l2.551,2.626a.482.482,0,0,1-.345.817Z" transform="translate(-513.994 -318.42)" fill="#383838"/></g></svg>