<svg id="그룹_307" data-name="그룹 307" xmlns="http://www.w3.org/2000/svg" width="135.75" height="31.576" viewBox="0 0 135.75 31.576">
  <g id="그룹_304" data-name="그룹 304">
    <path id="패스_22" data-name="패스 22" d="M38.428,119.848c-.132,0-3.325-.1-3.441-.1a1.647,1.647,0,0,0-.412,0c-.132.069-.165.172-.329.172-.132,0-.675-.069-1.037-.1a10.5,10.5,0,0,0-1.12.034c-.1,0-.263-.1-.379-.1-.165,0-1.383.172-1.548.172-.115,0-.527-.034-.774-.069a.222.222,0,0,0-.214-.172c-.132,0-.3.241-.444.241h-2.42c-.082,0-.362.1-.494.1a.965.965,0,0,1-.905-1.048,4.726,4.726,0,0,1,.247-.79.487.487,0,0,1,.362-.241c.1,0,.379.12.593.138.527.017,1.4.155,1.531.155s2.239-.12,2.387-.12c0,.034.889-.172.971-.137a.409.409,0,0,0,.329-.275c.148-.67-.115-1.2-.033-1.718.082-.155.412-.086.626-.086.2,0,.56-.137.691-.137.79,0,.412.223.905,1.134,0,.052-.033.223-.148.258-.016.223.033.515.033.79a3.042,3.042,0,0,0,1.284.172H38.56c.132,0,.231-.137.4-.137a.812.812,0,0,1,.757.911C39.712,119.986,39.021,119.848,38.428,119.848Zm-.757-4.724h-1.7c-.132,0-.3-.138-.445-.138-.132,0-1.087.189-1.218.189s-.4-.223-.527-.223-.741.223-.873.223H30.872c-.115,0-.313-.1-.478-.1-.132,0-2.848.4-3,.4-.494,0-.708-.859-.757-1.2.082-1.477.082-1.563,0-1.615a9.742,9.742,0,0,0,.165-1.392,1.66,1.66,0,0,1,.1-.807.8.8,0,0,1,.445-.223,5.273,5.273,0,0,0,1.12.223,5.3,5.3,0,0,0,.905-.189,16.057,16.057,0,0,1,1.827-.086c.214-.017.51-.069.659-.069.132,0,.181.069.263.12.741-.052,2.42,0,2.585,0a2.711,2.711,0,0,0,.4-.137,2.716,2.716,0,0,1,.51-.034c.165,0,.494.051.626.051a2.092,2.092,0,0,0,.626-.189,3.577,3.577,0,0,0,.066-.773c0-.206.132-.687-.132-.773-.626-.086-1.729-.137-1.86-.137-.082,0-2.239.258-2.387.258-.132,0-.428-.12-.56-.12s-.955.12-1.1.12c-.132,0-1.054-.12-1.185-.12-.148,0-2.321.172-2.47.172a2.787,2.787,0,0,1-.626-.309c-.132-.258.3-.825.411-1.2.593,0,1.383.12,1.548.12.148,0,.741-.12.856-.12.165,0,1.235.172,1.416.172.115,0,1.482-.24,2.206-.343.115.1.165.292.313.292.132,0,.461-.258.593-.258s.757.258.856.258c.132,0,.708-.361.84-.361a1.612,1.612,0,0,1,.428.172c.066,0,.033-.069.165-.069s.445-.1.56-.1c.132,0,.132.1.263.1s.115-.034.28-.034c.132,0,.675.172,1,.24a.615.615,0,0,1,.181.241c0,.292.066.687.1,1.014-.033.051-.033.172-.066.24a11.424,11.424,0,0,1,.2,2.027,1.977,1.977,0,0,1-.231.945,22.183,22.183,0,0,1-3.013.258c-.148,0-.444-.155-.609-.155-.132,0-1.218.069-1.712.034a11.212,11.212,0,0,0-1.646.12c-.214.017-.675.086-.84.086a2.338,2.338,0,0,1-.329-.086,11.713,11.713,0,0,0-1.482.052c-.329,0-.461.636-.461.739,0,.12-.033,1,.329,1a7.6,7.6,0,0,1,1-.034c.1,0,.23.1.362.1s.576-.172.741-.172c.132,0,1.251.034,1.383.034s.527-.344.692-.344c.1,0,.461.206.675.241.412,0,1.284.069,1.416.069.148,0,.971-.309,1.1-.309.165,0,1.2.172,1.333.172s.214-.034.362-.034c.132,0,.51.1.84.137a2.3,2.3,0,0,1,.214.91C38.889,115.348,38.182,115.124,37.671,115.124ZM27.184,112c.165-.086.165-.258,0-.258Zm1.827-.739v-.12h-.346v.12Zm1.778,7.833v.24H31a.258.258,0,0,0,.049-.137C31.036,119.11,30.872,119.093,30.79,119.093Zm3.391-8.125a.592.592,0,0,0-.066-.172l-.132.172Zm3.079-1.787c0,.069.1.172.132.241a.416.416,0,0,0,.115-.172A.667.667,0,0,0,37.259,109.181Z" transform="translate(-23.773 -100.612)" fill="#fff"/>
    <path id="패스_23" data-name="패스 23" d="M268.681,190.842a.737.737,0,0,1-.2.364.131.131,0,0,1-.1.042c-.424,0-.1-.053-.5-.071-.159-.018-1.208-.106-1.335-.106-.111,0-.159.141-.19.177-.127,0-.318.088-.445.088s-.7-.283-.922-.318c-.667,0,.35.23-1.636.23-.127,0-2.235-.089-2.362-.089s-.159.124-.222.124c-2.256,0-1.684-.124-1.97-.124a9.6,9.6,0,0,1-2.653.177c-.079,0-.349-.053-.477-.053s-.556.177-.667.177c-.492,0-.333-.619-.333-.761a.471.471,0,0,1-.079-.283c0-.159.048-.531.048-.707a5.578,5.578,0,0,1,.921-.018h1.462c.064,0,.159.053.254.053a1.769,1.769,0,0,0,.445-.142,7.741,7.741,0,0,1,.906,0c.334,0,.763.053,1.128.053.048,0,.159-.124.286-.124.238,0,.1.212.254.035l.079-.867a3.65,3.65,0,0,0-.6-.124c-.127,0-1.351-.035-1.478-.035s-.572.159-.715.159c-.127,0-1.446.053-1.6.053-.1,0-.493.018-.651-.159a1.96,1.96,0,0,1-.3-.884.8.8,0,0,1,.207-.5c.127-.124.207.035.334.035s.556-.3.683-.212c.286.177.381.248.54.248.111,0,1.033-.071,1.144-.071.334,0,.238-.177.238-.3,0-.088.286-.088.207-.46a7.961,7.961,0,0,1-.016-.884c0-.177-.191-.212-.191-.354,0-.5,0-.318-.508-.318-.1,0-.334.053-.445.053-.127,0-.207-.088-.365-.088-.127,0-.35.088-.477.088s-.159-.088-.286-.088c-.159,0-.349.088-.477.088-.556,0-.715-.389-.683-1.291a.914.914,0,0,1,.524-.354,5.666,5.666,0,0,1,1-.071c.143,0,.08.3.207.407a7.342,7.342,0,0,1,.81-.283c.588,0,2.637.088,3.813.088.127,0,.318-.141.445-.141s.318.141.477.141c.111,0,.27-.124.429-.177a8.5,8.5,0,0,1,.874.124c.159,0,.445-.071.572-.071h2.367c.111,0,.159-.177.3-.177.492,0,.524.336.524.654v.513c-.032.124.1.389-.032.478-.191.141-.365.071-.508.071-.127,0-.731-.142-.89-.142-.1,0-.366.088-.493.088-.111,0-.477-.053-.6-.053a.683.683,0,0,0-.556.142c.016.071-.27.212-.238.3.064.442.286.212.238.708-.048.212.032.265.048.477,0,.053.016.655,0,.672.159.124.429.035.556.035.111,0,.461.124.588.124.111,0,.508-.159.636-.159s.413-.141.54-.141c.238,0,.794.141.794.619,0,.141.1.973-.048,1.114-.127.177-.715.053-.858.053-.127,0-.508-.018-.62-.018-.159,0-1.78-.071-1.907-.071s-1.652.071-1.78.071c.016.035-.111.654.032.849a1.1,1.1,0,0,0,.509.124c.127,0,1.345-.071,1.5-.071.1,0,.333.124.492.124.127,0,.922-.177,1.049-.177s1.271.177,1.4.177c.111,0,.747-.177.842-.177.127,0,.4.053.6.053.191.177.175.177.191.389A6.368,6.368,0,0,1,268.681,190.842Zm-2.346,6.668c-.127,0-.175-.141-.318-.141-1.939,0-2.939.071-3.464.053l-2.939-.071c-.1,0-2.463.018-2.622.018-.111,0-.27.141-.349.141-.159,0-.969-.035-1.446-.035v-1.787a4.182,4.182,0,0,1,.127-.743.7.7,0,0,1-.1-.283v-2.034c0-.141.254-.478.366-.478.4-.018,1.176-.088,1.287-.088.143,0,1.907.106,2.034.106s.842-.124.922-.124c.159,0,1.128.018,1.287.018a2.8,2.8,0,0,1,.922-.106,10.419,10.419,0,0,0,3.368.053c.191-.035.509.124.635.124.159,0,.191-.106.27-.177a2.294,2.294,0,0,1,.6,0c.445,0,.19.672.19.849a3.46,3.46,0,0,0,.159.354c-.032.354-.064.938-.064,1.061v1.468a8.356,8.356,0,0,0,.191,1.61C267.081,197.333,266.477,197.51,266.334,197.51Zm-10.9-9.446a.167.167,0,0,0,.111.106.44.44,0,0,0,.286-.283C255.626,187.817,255.5,187.994,255.435,188.064Zm.922,2.565.048.283a.218.218,0,0,0,.191-.212C256.563,190.629,256.4,190.629,256.357,190.629Zm.159,3.414-.064-.088-.064.053.032.141Zm8.9.8a5.529,5.529,0,0,0,.032-.708.911.911,0,0,0-.223-.5.84.84,0,0,0-.413-.088,4.164,4.164,0,0,0-.969-.088c-.127,0-.763.035-.89.035-.143,0-.318-.124-.461-.124-.127,0-.318.124-.477.124-.985,0-1.891.053-2.685.053-.365,0-.683-.053-.89-.035-.4.035-1.1-.053-1.366,0-.286.088-.079.867-.079,1.238,0,.177.032.8.048,1.026.636.071,1.271.018,1.875.035.318.018.858.018,1,.018.127,0,.318-.159.445-.141,1.08.071,3.972.088,4.052.088.27,0,1-.141,1.08-.318C265.492,195.281,265.413,194.981,265.413,194.839Zm-8.341,1.822a.167.167,0,0,0,.111.106.439.439,0,0,0,.286-.283C257.262,196.413,257.135,196.59,257.071,196.661Zm.366-12.93a.412.412,0,0,0-.223.371c.1-.071.3-.194.35-.3C257.516,183.8,257.437,183.731,257.437,183.731Zm5.068,2.742-.032-.619a2.359,2.359,0,0,1,.08-.725c-.572-.389.175-.407-.54-.407-.127,0-.381.142-.477.142h-1.3c-.556,0-.318.672-.318.884a4.947,4.947,0,0,0,.047.778c0,.247-.19.23-.143.389.127.3.127.265.667.318l.635-.018c.191-.212.477.018.572.018a2.269,2.269,0,0,0,.779-.141c0-.053.207-.177.175-.23C262.521,186.915,262.553,186.526,262.505,186.473Zm-2.4,6.332c0,.053.222.3.222.3.079-.088.064-.3.127-.265A.673.673,0,0,0,260.106,192.8Zm1.049-8.49a.33.33,0,0,0,.127.23c.032-.053.127-.124.127-.141Zm1.891-.23-.254-.142v.248Zm.757,6.262c0,.053.207.283.207.283.1-.071.079-.283.143-.248A.517.517,0,0,0,263.8,190.346Zm1.356-2.016-.016-.3-.111.035.047.3Zm.413,4.458a.432.432,0,0,0-.048-.177h-.207a.2.2,0,0,0,.032.23Zm.858,1.221.127.177a.465.465,0,0,0,.127-.248Zm1.854-3.485a1.3,1.3,0,0,1-.27.124.475.475,0,0,0,.318.053A.433.433,0,0,0,268.283,190.523Z" transform="translate(-239.098 -172.194)" fill="#fff"/>
    <path id="패스_24" data-name="패스 24" d="M22.475,39.481A15.788,15.788,0,1,1,38.263,23.693,15.806,15.806,0,0,1,22.475,39.481Zm0-30.419A14.631,14.631,0,1,0,37.106,23.693,14.647,14.647,0,0,0,22.475,9.062Z" transform="translate(-6.687 -7.905)" fill="#fff"/>
  </g>
  <g id="그룹_306" data-name="그룹 306" transform="translate(37.27 8.391)">
    <g id="그룹_305" data-name="그룹 305">
      <path id="패스_25" data-name="패스 25" d="M616.062,146.464h2.851v11.867h5.779v2.389h-8.631Z" transform="translate(-616.062 -146.194)" fill="#fff"/>
      <path id="패스_26" data-name="패스 26" d="M790.091,157.059h-4.623l-1,3.66h-2.89l4.566-14.256h3.352l4.585,14.256h-2.986Zm-.617-2.215-.424-1.56c-.443-1.483-.828-3.121-1.252-4.662h-.077c-.366,1.56-.79,3.179-1.214,4.662l-.424,1.56Z" transform="translate(-771.231 -146.194)" fill="#fff"/>
      <path id="패스_27" data-name="패스 27" d="M985.924,146.464h2.909l1.137,6.955c.212,1.5.443,3.024.655,4.546h.077c.289-1.522.6-3.063.906-4.546l1.657-6.955h2.427l1.657,6.955c.308,1.464.6,3.005.906,4.546h.1c.212-1.541.424-3.063.636-4.546l1.117-6.955h2.716l-2.639,14.256h-3.545l-1.6-7.051c-.231-1.117-.443-2.215-.616-3.294h-.077c-.193,1.079-.385,2.177-.616,3.294l-1.561,7.051h-3.487Z" transform="translate(-962.806 -146.194)" fill="#fff"/>
      <path id="패스_28" data-name="패스 28" d="M1360.408,146.464h8.784v2.37h-5.933v3.718h5.066v2.389h-5.066v5.779h-2.851Z" transform="translate(-1313.884 -146.194)" fill="#fff"/>
      <path id="패스_29" data-name="패스 29" d="M1525.615,149.489c0-4.643,2.6-7.34,6.376-7.34s6.377,2.716,6.377,7.34-2.6,7.455-6.377,7.455S1525.615,154.112,1525.615,149.489Zm9.844,0c0-3.063-1.349-4.893-3.468-4.893s-3.468,1.83-3.468,4.893c0,3.044,1.349,4.989,3.468,4.989S1535.459,152.533,1535.459,149.489Z" transform="translate(-1468.765 -142.149)" fill="#fff"/>
      <path id="패스_30" data-name="패스 30" d="M1782.109,160.72l-2.928-5.394H1777.2v5.394h-2.852V146.464h4.97c2.986,0,5.356,1.04,5.356,4.315a4.081,4.081,0,0,1-2.716,4.1l3.333,5.837Zm-4.912-7.648h1.849c1.83,0,2.832-.771,2.832-2.292,0-1.541-1-2.061-2.832-2.061H1777.2Z" transform="translate(-1701.949 -146.194)" fill="#fff"/>
      <path id="패스_31" data-name="패스 31" d="M1984.55,146.464h3.159l2.428,6.666c.308.886.578,1.83.867,2.755h.1c.308-.925.558-1.869.867-2.755l2.369-6.666h3.159V160.72h-2.6v-5.953c0-1.348.212-3.333.347-4.681h-.077l-1.156,3.352-2.2,5.991h-1.637l-2.215-5.991-1.137-3.352h-.077c.134,1.348.366,3.333.366,4.681v5.953h-2.562Z" transform="translate(-1899.016 -146.194)" fill="#fff"/>
    </g>
  </g>
</svg>
