<svg xmlns="http://www.w3.org/2000/svg" width="85.654" height="85.654" viewBox="0 0 85.654 85.654">
  <g id="그룹_1785" data-name="그룹 1785" transform="translate(-779.5 -2482)">
    <g id="그룹_1725" data-name="그룹 1725" transform="translate(-346.5 218.092)">
      <ellipse id="타원_23" data-name="타원 23" cx="42.827" cy="42.827" rx="42.827" ry="42.827" transform="translate(1126 2263.908)" fill="#f1f3f6"/>
      <rect id="사각형_452" data-name="사각형 452" width="6" height="18" transform="translate(1178 2303)" fill="#ffe872"/>
      <rect id="사각형_453" data-name="사각형 453" width="42" height="4" transform="translate(1148 2288)" fill="#bfbfbf"/>
      <rect id="사각형_454" data-name="사각형 454" width="13" height="3" transform="translate(1153 2297)" fill="#ffc7c0"/>
      <g id="그룹_1693" data-name="그룹 1693" transform="translate(84.049 1935.85)">
        <g id="그룹_1677" data-name="그룹 1677" transform="translate(1063.499 355.875)">
          <path id="패스_1150" data-name="패스 1150" d="M1106.4,396.063h-3.157v-1.32h1.837v-27.6h-40.263v27.6h25.55v1.32H1063.5V365.817h42.9Z" transform="translate(-1063.499 -365.817)" fill="#15376c"/>
        </g>
        <g id="그룹_1678" data-name="그룹 1678" transform="translate(1067.959 378.759)">
          <rect id="사각형_445" data-name="사각형 445" width="17.014" height="1.32" fill="#15376c"/>
        </g>
        <g id="그룹_1679" data-name="그룹 1679" transform="translate(1067.959 371.506)">
          <rect id="사각형_446" data-name="사각형 446" width="22.62" height="1.32" transform="translate(0 0)" fill="#15376c"/>
        </g>
        <g id="그룹_1680" data-name="그룹 1680" transform="translate(1067.959 375.133)">
          <rect id="사각형_447" data-name="사각형 447" width="22.62" height="1.32" transform="translate(0 0)" fill="#15376c"/>
        </g>
        <g id="그룹_1681" data-name="그룹 1681" transform="translate(1067.959 367.658)">
          <rect id="사각형_448" data-name="사각형 448" width="22.62" height="1.32" transform="translate(0 0)" fill="#15376c"/>
        </g>
        <g id="그룹_1682" data-name="그룹 1682" transform="translate(1063.499 350.977)">
          <path id="패스_1151" data-name="패스 1151" d="M1106.4,357.195h-42.9v-6.218h42.9Zm-41.583-1.32h40.263V352.3h-40.263Z" transform="translate(-1063.499 -350.977)" fill="#15376c"/>
        </g>
        <g id="그룹_1683" data-name="그룹 1683" transform="translate(1066.059 353.391)">
          <rect id="사각형_449" data-name="사각형 449" width="1.578" height="1.32" transform="translate(0 0)" fill="#15376c"/>
        </g>
        <g id="그룹_1684" data-name="그룹 1684" transform="translate(1068.791 353.391)">
          <rect id="사각형_450" data-name="사각형 450" width="1.579" height="1.32" transform="translate(0 0)" fill="#15376c"/>
        </g>
        <g id="그룹_1685" data-name="그룹 1685" transform="translate(1071.523 353.391)">
          <rect id="사각형_451" data-name="사각형 451" width="1.579" height="1.32" transform="translate(0 0)" fill="#15376c"/>
        </g>
        <g id="그룹_1687" data-name="그룹 1687" transform="translate(1068.143 360.192)">
          <g id="그룹_1686" data-name="그룹 1686" transform="translate(0)">
            <path id="패스_1152" data-name="패스 1152" d="M1091.978,383.378h-14.407V378.9h14.407Zm-13.087-1.32h11.767v-1.84h-11.767Z" transform="translate(-1077.571 -378.898)" fill="#15376c"/>
          </g>
        </g>
        <g id="그룹_1692" data-name="그룹 1692" transform="translate(1093.045 359.678)">
          <g id="그룹_1688" data-name="그룹 1688" transform="translate(0.004 0)">
            <path id="패스_1153" data-name="패스 1153" d="M1159.333,385.052v-.845l-2.487-4.25-2.487,4.25v.845h-1.32v-1.2l3.807-6.506,3.807,6.506v1.2Z" transform="translate(-1153.038 -377.343)" fill="#15376c"/>
          </g>
          <g id="그룹_1689" data-name="그룹 1689" transform="translate(0.003 6.665)">
            <path id="패스_1154" data-name="패스 1154" d="M1154.354,416.492h-1.32V397.54h7.615v18.952h-1.32V398.859h-4.975Z" transform="translate(-1153.034 -397.539)" fill="#15376c"/>
          </g>
          <g id="그룹_1690" data-name="그룹 1690" transform="translate(0 29.783)">
            <path id="패스_1155" data-name="패스 1155" d="M1159.292,476.342h-4.915a1.265,1.265,0,0,1-1.352-1.184v-1.509h1.32v1.371l.031,0h4.915l.035,0v-1.372h1.32v1.509A1.265,1.265,0,0,1,1159.292,476.342Z" transform="translate(-1153.026 -473.648)" fill="#15376c"/>
          </g>
          <g id="그룹_1691" data-name="그룹 1691" transform="translate(0.002 25.123)">
            <path id="패스_1156" data-name="패스 1156" d="M1153.032,458.418v-4.951h7.617v4.95Zm1.32-3.631V457.1h4.977v-2.31Z" transform="translate(-1153.032 -453.467)" fill="#15376c"/>
          </g>
        </g>
      </g>
    </g>
  </g>
</svg>
