<?xml version="1.0" encoding="utf-8"?>
<!-- Generator: Adobe Illustrator 23.0.3, SVG Export Plug-In . SVG Version: 6.00 Build 0)  -->
<svg version="1.1" id="레이어_1" xmlns="http://www.w3.org/2000/svg" xmlns:xlink="http://www.w3.org/1999/xlink" x="0px"
	 y="0px" width="78.9px" height="57.7px" viewBox="0 0 78.9 57.7" style="enable-background:new 0 0 78.9 57.7;"
	 xml:space="preserve">
<style type="text/css">
	.st0{fill:none;stroke:#15376C;stroke-width:1.5;stroke-linejoin:round;}
	.st1{fill:#FFE872;stroke:#15376C;stroke-width:1.5;stroke-linejoin:round;}
	.st2{enable-background:new    ;}
	.st3{fill:#15376C;}
</style>
<g id="그룹_1767" transform="translate(-802.035 -1351.345)">
	<g id="그룹_392" transform="translate(802.785 1352.095)">
		<g id="그룹_400" transform="translate(0 0)">
			<g id="그룹_399" transform="translate(0 11.021)">
				<g id="그룹_398" transform="translate(0 0)">
					<g id="그룹_397">
						<g id="그룹_396">
							<g id="그룹_395" transform="translate(7.979)">
								<g id="그룹_394">
									<g id="그룹_393" transform="translate(1.33)">
										<path id="사각형_182" class="st0" d="M14,23.9H2c-1.1,0-2-0.9-2-2V2c0-1.1,0.9-2,2-2h12c1.1,0,2,0.9,2,2v19.9
											C16,23,15.1,23.9,14,23.9z"/>
										<path id="패스_428" class="st0" d="M16,10.6c0,0-4,0-4-4c0,0,0,4-12,4"/>
									</g>
									<path id="패스_429" class="st0" d="M1.3,12H0v4h1.3"/>
									<path id="패스_430" class="st0" d="M17.3,16h1.3v-4h-1.3"/>
								</g>
								<path id="패스_431" class="st0" d="M12,23.9v1.3c0,1.5-1.2,2.7-2.7,2.7l0,0c-1.5,0-2.7-1.2-2.7-2.7v-1.3"/>
							</g>
							<path id="패스_432" class="st0" d="M23.9,26.6h25.3c2.2,0,4,1.8,4,4l0,0c0,2.2-1.8,4-4,4H31.9v10.6H0v-8
								c0-5.9,4.8-10.6,10.6-10.6c0,0,0,0,0,0"/>
							<path id="패스_433" class="st0" d="M5.3,27.9l12,12l13.3-13.3"/>
							<line id="선_22" class="st0" x1="17.3" y1="45.2" x2="17.3" y2="39.9"/>
							<line id="선_23" class="st0" x1="6.6" y1="45.2" x2="6.6" y2="39.9"/>
						</g>
					</g>
				</g>
			</g>
			<path id="패스_434" class="st1" d="M36.1,0H75c1.3,0,2.4,1.1,2.4,2.4v17.5c0,1.3-1.1,2.4-2.4,2.4H45.7l-7.2,7.2v-7.2h-2.4
				c-1.3,0-2.4-1.1-2.4-2.4V2.4C33.7,1.1,34.7,0,36.1,0L36.1,0z"/>
			<line id="선_24" class="st0" x1="45.2" y1="37.6" x2="45.2" y2="45.6"/>
		</g>
	</g>
	<g class="st2">
		<path class="st3" d="M851.5,1367.6v-8.8h-3.3v-1.2h7.9v1.2h-3.3v8.8H851.5z"/>
		<path class="st3" d="M858.5,1367.6v-10h1.3v10H858.5z"/>
		<path class="st3" d="M862.8,1367.6v-10h3.8c0.7,0,1.2,0,1.5,0.1c0.5,0.1,0.9,0.2,1.2,0.5c0.3,0.2,0.6,0.6,0.8,1
			c0.2,0.4,0.3,0.9,0.3,1.4c0,0.9-0.3,1.6-0.8,2.2c-0.5,0.6-1.5,0.9-2.9,0.9h-2.6v4.1H862.8z M864.1,1362.3h2.6
			c0.9,0,1.5-0.2,1.8-0.5c0.4-0.3,0.5-0.8,0.5-1.3c0-0.4-0.1-0.8-0.3-1.1c-0.2-0.3-0.5-0.5-0.8-0.6c-0.2-0.1-0.6-0.1-1.2-0.1h-2.6
			V1362.3z"/>
	</g>
</g>
</svg>
