<svg xmlns="http://www.w3.org/2000/svg" width="78.912" height="57.734" viewBox="0 0 78.912 57.734">
  <g id="그룹_1767" data-name="그룹 1767" transform="translate(-802.035 -1351.345)">
    <g id="그룹_392" data-name="그룹 392" transform="translate(802.785 1352.095)">
      <g id="그룹_400" data-name="그룹 400" transform="translate(0 0)">
        <g id="그룹_399" data-name="그룹 399" transform="translate(0 11.021)">
          <g id="그룹_398" data-name="그룹 398" transform="translate(0 0)">
            <g id="그룹_397" data-name="그룹 397">
              <g id="그룹_396" data-name="그룹 396">
                <g id="그룹_395" data-name="그룹 395" transform="translate(7.979)">
                  <g id="그룹_394" data-name="그룹 394">
                    <g id="그룹_393" data-name="그룹 393" transform="translate(1.33)">
                      <rect id="사각형_182" data-name="사각형 182" width="15.958" height="23.936" rx="2" transform="translate(15.958 23.936) rotate(180)" fill="none" stroke="#15376c" stroke-linejoin="round" stroke-width="1.5"/>
                      <path id="패스_428" data-name="패스 428" d="M-937.921,392.175s-3.99,0-3.99-3.989c0,0,0,3.989-11.968,3.989" transform="translate(953.879 -381.537)" fill="none" stroke="#15376c" stroke-linejoin="round" stroke-width="1.5"/>
                    </g>
                    <path id="패스_429" data-name="패스 429" d="M-956.378,403.5h-1.33v3.989h1.33" transform="translate(957.708 -391.534)" fill="none" stroke="#15376c" stroke-linejoin="round" stroke-width="1.5"/>
                    <path id="패스_430" data-name="패스 430" d="M-907.928,407.492h1.33V403.5h-1.33" transform="translate(925.216 -391.534)" fill="none" stroke="#15376c" stroke-linejoin="round" stroke-width="1.5"/>
                  </g>
                  <path id="패스_431" data-name="패스 431" d="M-933.243,437.965v1.33a2.66,2.66,0,0,1-2.66,2.66h0a2.66,2.66,0,0,1-2.66-2.66v-1.33" transform="translate(945.211 -414.029)" fill="none" stroke="#15376c" stroke-linejoin="round" stroke-width="1.5"/>
                </g>
                <path id="패스_432" data-name="패스 432" d="M-956.746,445.623h25.266a3.99,3.99,0,0,1,3.99,3.99h0a3.99,3.99,0,0,1-3.99,3.989h-17.287V464.24h-31.915v-7.979a10.638,10.638,0,0,1,10.638-10.639" transform="translate(980.683 -419.027)" fill="none" stroke="#15376c" stroke-linejoin="round" stroke-width="1.5"/>
                <path id="패스_433" data-name="패스 433" d="M-965.366,446.953l11.969,11.968,13.3-13.3" transform="translate(970.685 -419.027)" fill="none" stroke="#15376c" stroke-linejoin="round" stroke-width="1.5"/>
                <line id="선_22" data-name="선 22" y1="5.319" transform="translate(17.288 39.894)" fill="none" stroke="#15376c" stroke-linejoin="round" stroke-width="1.5"/>
                <line id="선_23" data-name="선 23" y1="5.319" transform="translate(6.649 39.894)" fill="none" stroke="#15376c" stroke-linejoin="round" stroke-width="1.5"/>
              </g>
            </g>
          </g>
        </g>
        <path id="패스_434" data-name="패스 434" d="M-886.37,342.249h38.932a2.412,2.412,0,0,1,2.412,2.412v17.455a2.412,2.412,0,0,1-2.412,2.412h-29.284l-7.236,7.236v-7.236h-2.412a2.412,2.412,0,0,1-2.412-2.412V344.661A2.412,2.412,0,0,1-886.37,342.249Z" transform="translate(922.439 -342.249)" fill="#ffe872" stroke="#15376c" stroke-linejoin="round" stroke-width="1.5"/>
        <line id="선_24" data-name="선 24" y2="7.979" transform="translate(45.213 37.617)" fill="none" stroke="#15376c" stroke-linejoin="round" stroke-width="1.5"/>
      </g>
    </g>
    <text id="TIP" transform="translate(847.897 1367.583)" fill="#15376c" font-size="14" font-family="KoPubWorldDotumPB, KoPubWorldDotum_Pro" letter-spacing="0.05em"><tspan x="0" y="0">TIP</tspan></text>
  </g>
</svg>
