<svg id="Layer_1" data-name="Layer 1" xmlns="http://www.w3.org/2000/svg" viewBox="0 0 2191.67 512"><defs><style>.cls-1{fill:#15376c;}.cls-2{fill:#5a6266;}</style></defs><title>컬러수정_BI_RGB_v001</title><path class="cls-1" d="M241.16,315.67c-2.1,0-53.2-1.65-55-1.65-2.1,0-4.74-.55-6.58,0-2.11,1.1-2.64,2.75-5.27,2.75-2.11,0-10.8-1.1-16.59-1.65-5.27-.55-15.28.55-17.92.55-1.58,0-4.21-1.65-6.05-1.65-2.64,0-22.13,2.75-24.76,2.75-1.85,0-8.43-.55-12.38-1.1a3.55,3.55,0,0,0-3.43-2.75c-2.1,0-4.74,3.85-7.11,3.85H47.3c-1.32,0-5.79,1.65-7.9,1.65-10.54,0-14.49-9.89-14.49-16.76,0-1.93,2.64-9.08,3.95-12.65,1.06-1.92,3.69-3.85,5.8-3.85,1.58,0,6.06,1.93,9.48,2.2,8.43.28,22.39,2.48,24.5,2.48s35.82-1.93,38.19-1.93c0,.55,14.22-2.75,15.54-2.2,1.84-.55,4.48-1.37,5.27-4.39,2.37-10.72-1.85-19.24-.53-27.49,1.32-2.47,6.59-1.37,10-1.37,3.16,0,9-2.2,11.06-2.2,12.65,0,6.59,3.57,14.49,18.14,0,.82-.53,3.57-2.37,4.12-.26,3.57.53,8.25.53,12.64,4.74,2.75,14,2.75,20.54,2.75h61.9c2.11,0,3.69-2.2,6.32-2.2,9,0,12.12,8.25,12.12,14.57C261.71,317.87,250.65,315.67,241.16,315.67Zm-12.11-75.58H201.92c-2.11,0-4.74-2.2-7.11-2.2-2.11,0-17.39,3-19.5,3s-6.32-3.58-8.42-3.58-11.86,3.58-14,3.58H120.26c-1.84,0-5-1.66-7.63-1.66-2.11,0-45.57,6.33-47.94,6.33-7.91,0-11.33-13.74-12.12-19.24,1.32-23.64,1.32-25,0-25.84,2.11-6.87,1.58-15.11,2.63-22.26,0-3.3-.52-10.17,1.58-12.92,1.06-1.37,5-3.57,7.12-3.57,4.21,0,7.37,3.57,17.91,3.57,6,0,7.37-1.92,14.48-3,9.49-1.65,19.5-.82,29.24-1.37,3.43-.28,8.17-1.1,10.54-1.1,2.1,0,2.89,1.1,4.21,1.92,11.86-.82,38.72,0,41.36,0,1.58,0,5-1.92,6.32-2.2a43.43,43.43,0,0,1,8.16-.55c2.64,0,7.91.83,10,.83s7.11-1.65,10-3c1.06-4.12,1.06-10.16,1.06-12.37,0-3.29,2.1-11-2.11-12.36-10-1.38-27.66-2.2-29.77-2.2-1.31,0-35.82,4.12-38.19,4.12-2.11,0-6.85-1.92-9-1.92S122.9,134,120.53,134c-2.11,0-16.86-1.92-19-1.92-2.37,0-37.14,2.75-39.51,2.75-2.11,0-6.06-3-10-5-2.1-4.12,4.74-13.19,6.59-19.24,9.48,0,22.12,1.92,24.76,1.92,2.37,0,11.85-1.92,13.69-1.92,2.64,0,19.76,2.75,22.66,2.75,1.84,0,23.7-3.85,35.29-5.5,1.85,1.65,2.64,4.67,5,4.67,2.1,0,7.37-4.12,9.48-4.12s12.12,4.12,13.7,4.12c2.1,0,11.32-5.77,13.43-5.77s5.27,2.2,6.85,2.75c1.05,0,.53-1.1,2.63-1.1s7.11-1.65,9-1.65c2.11,0,2.11,1.65,4.21,1.65s1.85-.55,4.48-.55c2.11,0,10.8,2.75,16.07,3.85a9.79,9.79,0,0,1,2.89,3.85c0,4.67,1.06,11,1.58,16.21-.52.83-.52,2.75-1,3.85,2.64,9.9,3.16,30.23,3.16,32.43,0,4.67-2.11,14.57-3.69,15.12-16.06,3.3-46.09,4.12-48.2,4.12-2.37,0-7.11-2.47-9.74-2.47-2.11,0-19.49,1.1-27.4.55-7.63-.55-17.65,1.1-26.34,1.92-3.42.28-10.8,1.38-13.43,1.38-1.84,0-3.42-1.1-5.27-1.38-7.11-.82-21.07.83-23.71.83-5.26,0-7.37,10.16-7.37,11.81,0,1.93-.53,15.94,5.27,15.94,2.1,0,10-1.1,16.07-.55,1.57,0,3.68,1.65,5.79,1.65s9.22-2.74,11.85-2.74c2.11,0,20,.54,22.13.54s8.43-5.49,11.06-5.49c1.58,0,7.38,3.3,10.8,3.85,6.59,0,20.55,1.1,22.66,1.1,2.36,0,15.54-4.95,17.64-4.95,2.63,0,19.23,2.75,21.34,2.75s3.42-.55,5.79-.55c2.11,0,8.17,1.65,13.44,2.2,1.84,1.64,3.42,11.81,3.42,14.56C248.54,243.66,237.21,240.09,229.05,240.09Zm-167.79-50c2.64-1.37,2.64-4.12,0-4.12ZM90.5,178.25v-1.92H85v1.92ZM119,303.58v3.85h3.42a4.14,4.14,0,0,0,.79-2.2C122.9,303.85,120.26,303.58,119,303.58Zm54.26-130a9.38,9.38,0,0,0-1.06-2.75l-2.1,2.75ZM222.46,145c0,1.11,1.58,2.75,2.11,3.85a6.59,6.59,0,0,0,1.84-2.74A10.64,10.64,0,0,0,222.46,145Z"/><path class="cls-1" d="M480,306.26c0,1.67-1.81,4.35-3.14,5.82a2.13,2.13,0,0,1-1.57.68c-6.79-.06-1.65-.86-8-1.13-2.54-.28-19.32-1.7-21.35-1.7-1.78,0-2.54,2.27-3.05,2.83-2,0-5.09,1.42-7.12,1.42s-11.18-4.53-14.74-5.1c-10.68,0,5.59,3.68-26.18,3.68-2,0-35.76-1.41-37.8-1.41s-2.54,2-3.55,2c-36.1,0-27-2-31.52-2-5.85,0-.77,2.83-42.46,2.83-1.27,0-5.59-.85-7.62-.85s-8.9,2.83-10.68,2.83c-7.88,0-5.34-9.91-5.34-12.17a7.62,7.62,0,0,1-1.27-4.53c0-2.55.77-8.49.77-11.32,5.08-.85,12.2-.28,14.74-.28h23.38c1,0,2.55.85,4.07.85,2,0,4.58-1.42,7.12-2.27,3.81-.56,9.66,0,14.49,0,5.34,0,12.2.85,18,.85.76,0,2.54-2,4.57-2,3.82,0,1.53,3.4,4.07.57L347.12,272c-2-.57-7.62-2-9.66-2s-21.6-.57-23.64-.57S304.67,272,302.38,272c-2,0-23.13.85-25.67.85-1.53,0-7.88.28-10.42-2.55-2.55-2.26-4.83-11.88-4.83-14.15,0-2,1.27-6.22,3.3-7.92,2-2,3.31.56,5.34.56S279,244,281,245.41c4.58,2.83,6.1,4,8.64,4,1.78,0,16.53-1.13,18.3-1.13,5.34,0,3.82-2.83,3.82-4.81,0-1.42,4.57-1.42,3.3-7.36-.51-1.7-.25-11.61-.25-14.15,0-2.83-3-3.4-3-5.66,0-7.93,0-5.1-8.14-5.1-1.52,0-5.33.85-7.11.85-2,0-3.31-1.41-5.85-1.41-2,0-5.59,1.41-7.63,1.41s-2.54-1.41-4.57-1.41c-2.55,0-5.59,1.41-7.63,1.41-8.9,0-11.44-6.22-10.93-20.66,2-2.83,5.85-5.37,8.39-5.66,4.58-1.13,14.23-1.13,16-1.13,2.29,0,1.28,4.81,3.31,6.51,2-.56,10.93-4.53,13-4.53,9.41,0,42.2,1.42,61,1.42,2,0,5.09-2.27,7.12-2.27s5.08,2.27,7.62,2.27c1.78,0,4.33-2,6.87-2.83,1.52-.57,11.95,2,14,2,2.54,0,7.12-1.13,9.15-1.13h37.88c1.78,0,2.54-2.83,4.83-2.83,7.88,0,8.38,5.37,8.38,10.47v8.21c-.5,2,1.53,6.22-.5,7.64-3.05,2.26-5.85,1.13-8.14,1.13-2,0-11.69-2.27-14.23-2.27-1.53,0-5.85,1.42-7.88,1.42-1.78,0-7.63-.85-9.66-.85-2.54,0-6.1-.57-8.9,2.26.25,1.14-4.32,3.4-3.81,4.81,1,7.08,4.57,3.4,3.81,11.33-.76,3.39.51,4.24.76,7.64,0,.85.26,10.47,0,10.75,2.54,2,6.87.57,8.9.57,1.78,0,7.37,2,9.4,2,1.78,0,8.14-2.55,10.17-2.55s6.61-2.26,8.65-2.26c3.81,0,12.71,2.26,12.71,9.9,0,2.27,1.52,15.57-.77,17.83-2,2.83-11.44.85-13.72.85-2,0-8.14-.28-9.92-.28-2.54,0-28.47-1.13-30.5-1.13s-26.44,1.13-28.47,1.13c.25.56-1.78,10.47.51,13.58.76,1.13,6.35,2,8.13,2,2,0,21.52-1.13,24.06-1.13,1.53,0,5.34,2,7.88,2,2,0,14.75-2.83,16.78-2.83s20.34,2.83,22.37,2.83c1.78,0,11.95-2.83,13.47-2.83,2,0,6.36.85,9.66.85,3.06,2.83,2.8,2.83,3.06,6.23C482,294.08,480,303.14,480,306.26ZM442.45,413c-2,0-2.8-2.27-5.09-2.27-31,0-47,1.13-55.41.85l-47-1.13c-1.52,0-39.4.28-41.94.28-1.78,0-4.32,2.27-5.59,2.27-2.55,0-15.51-.57-23.14-.57V383.8c-.51-2.27,1.53-7.93,2-11.89,0-.28-1.53-2.26-1.53-4.53V334.84c0-2.27,4.07-7.64,5.85-7.64,6.35-.29,18.81-1.42,20.59-1.42,2.28,0,30.5,1.7,32.54,1.7s13.47-2,14.74-2c2.54,0,18,.28,20.59.28,1.52,0,9.15-2.83,14.74-1.7,24.15,5.1,51.35,1.42,53.89.85,3.05-.56,8.14,2,10.17,2,2.54,0,3.05-1.7,4.32-2.83,2.8-.85,7.63,0,9.66,0,7.12,0,3,10.76,3,13.59.26,1.69,2,4,2.54,5.66-.5,5.66-1,15-1,17V383.8a133.51,133.51,0,0,0,3.05,25.75C454.39,410.12,444.73,413,442.45,413ZM268.07,261.82a2.64,2.64,0,0,0,1.78,1.7c1.77-.28,4.32-2.83,4.57-4.53C271.12,257.86,269.08,260.69,268.07,261.82Zm14.74,41,.76,4.52c1.78,0,3.05-2,3.05-3.39C286.11,302.86,283.57,302.86,282.81,302.86Zm2.54,54.62-1-1.42-1,.85.51,2.27ZM427.7,370.21a88.34,88.34,0,0,0,.51-11.32c0-2.83-2.54-7.07-3.56-7.92-2-1.42-5.84-1.42-6.61-1.42-4.32-1.41-13.47-1.41-15.5-1.41s-12.21.56-14.24.56c-2.28,0-5.08-2-7.37-2-2,0-5.08,2-7.63,2-15.76,0-30.25.85-43,.85-5.84,0-10.93-.85-14.23-.56-6.36.56-17.54-.85-21.86,0-4.58,1.41-1.27,13.86-1.27,19.81,0,2.83.5,12.73.76,16.41,10.17,1.13,20.34.29,30,.57,5.08.28,13.72.28,16,.28,2,0,5.08-2.55,7.12-2.26,17.28,1.13,63.55,1.41,64.82,1.41,4.32,0,16-2.26,17.28-5.09C429,377.29,427.7,372.48,427.7,370.21ZM294.25,399.36a2.66,2.66,0,0,0,1.78,1.7c1.78-.28,4.32-2.83,4.57-4.53C297.3,395.4,295.26,398.23,294.25,399.36Zm5.84-206.87a6.58,6.58,0,0,0-3.55,5.94c1.52-1.13,4.83-3.11,5.59-4.81C301.37,193.62,300.09,192.49,300.09,192.49Zm81.09,43.86-.5-9.9A37.66,37.66,0,0,1,382,214.84c-9.16-6.22,2.79-6.51-8.65-6.51-2,0-6.1,2.27-7.62,2.27H344.83c-8.89,0-5.08,10.75-5.08,14.15-.51,4.53.76,10.19.76,12.45,0,4-3.05,3.68-2.28,6.23,2,4.81,2,4.24,10.67,5.09l10.17-.28c3.05-3.4,7.63.28,9.15.28,3,0,9.91-.85,12.46-2.26,0-.85,3.3-2.83,2.79-3.68C381.44,243.43,382,237.2,381.18,236.35ZM342.8,337.67c0,.85,3.56,4.81,3.56,4.81,1.27-1.42,1-4.81,2-4.25A10.75,10.75,0,0,0,342.8,337.67Zm16.78-135.84a5.24,5.24,0,0,0,2,3.67c.51-.84,2-2,2-2.26Zm30.25-3.68-4.07-2.27v4Zm12.11,100.18c0,.85,3.31,4.53,3.31,4.53,1.52-1.13,1.27-4.53,2.29-4C404,297.48,403,298.33,401.94,298.33Zm21.7-32.26-.26-4.81-1.78.56.76,4.81Zm6.61,71.31a6.82,6.82,0,0,0-.77-2.82h-3.3c-.51,1.41-.51,2.82.51,3.67ZM444,356.91l2,2.83c1-1.13,2-2.83,2-4Zm29.66-55.75c-1,.85-3.05,1.41-4.32,2a7.56,7.56,0,0,0,5.08.85A6.9,6.9,0,0,0,473.63,301.16Z"/><path class="cls-1" d="M259.29,513.1C120,513.1,6.69,399.79,6.69,260.5S120,7.91,259.29,7.91s252.6,113.31,252.6,252.59S398.57,513.1,259.29,513.1Zm0-486.68c-129.08,0-234.08,105-234.08,234.08s105,234.09,234.08,234.09,234.08-105,234.08-234.09S388.36,26.42,259.29,26.42Z"/><path class="cls-2" d="M616.06,146.46h45.62V336.33h92.46v38.22H616.06Z"/><path class="cls-2" d="M917.81,316h-74l-16,58.57H781.58l73-228.09h53.63l73.36,228.09H933.84ZM908,280.54l-6.79-25c-7.08-23.73-13.25-49.93-20-74.59H879.9c-5.86,25-12.64,50.86-19.42,74.59l-6.78,25Z"/><path class="cls-2" d="M985.92,146.46h46.55l18.18,111.27c3.39,24,7.09,48.39,10.48,72.74h1.23c4.63-24.35,9.56-49,14.49-72.74l26.51-111.27h38.83l26.51,111.27c4.93,23.43,9.55,48.08,14.48,72.74h1.54c3.4-24.66,6.79-49,10.18-72.74l17.87-111.27h43.46L1214,374.55h-56.72l-25.58-112.81c-3.7-17.88-7.09-35.45-9.86-52.71h-1.23c-3.09,17.26-6.17,34.83-9.87,52.71l-25,112.81H1030Z"/><path class="cls-2" d="M1360.41,146.46H1501v37.91H1406v59.49h81.07v38.22H1406v92.47h-45.61Z"/><path class="cls-2" d="M1525.61,259.58c0-74.28,41.61-117.43,102-117.43s102,43.46,102,117.43-41.61,119.28-102,119.28S1525.61,333.55,1525.61,259.58Zm157.5,0c0-49-21.57-78.29-55.48-78.29s-55.47,29.28-55.47,78.29c0,48.7,21.57,79.83,55.47,79.83S1683.11,308.28,1683.11,259.58Z"/><path class="cls-2" d="M1898.56,374.55l-46.85-86.31H1820v86.31h-45.61V146.46h79.52c47.77,0,85.68,16.65,85.68,69,0,34.21-17.26,55.47-43.46,65.65l53.32,93.39ZM1820,252.18h29.59c29.28,0,45.31-12.33,45.31-36.67,0-24.66-16-33-45.31-33H1820Z"/><path class="cls-2" d="M1984.55,146.46h50.55l38.83,106.65c4.93,14.18,9.25,29.28,13.87,44.07h1.54c4.94-14.79,8.94-29.89,13.87-44.07l37.91-106.65h50.55V374.55h-41.61V279.31c0-21.58,3.39-53.33,5.55-74.9h-1.23L2135.89,258l-35.14,95.85h-26.2L2039.11,258l-18.19-53.63h-1.23c2.15,21.57,5.85,53.32,5.85,74.9v95.24h-41Z"/></svg>