<svg id="레이어_1" data-name="레이어 1" xmlns="http://www.w3.org/2000/svg" viewBox="0 0 36 36"><defs><style>.cls-1{fill:#c7cfdc;}</style></defs><title>my</title><circle class="cls-1" cx="18" cy="13.87" r="4.12"/><path class="cls-1" d="M26.9,26.25a.48.48,0,0,0,.45-.65C25.92,22,23.29,19.16,18,19.16S10.08,22,8.65,25.6a.48.48,0,0,0,.45.65Z"/><path class="cls-1" d="M22.26,1.13A12.62,12.62,0,0,1,34.88,13.74v8.52A12.63,12.63,0,0,1,22.26,34.88H13.74A12.62,12.62,0,0,1,1.13,22.26V13.74A12.62,12.62,0,0,1,13.74,1.13h8.52m0-1.13H13.74A13.74,13.74,0,0,0,0,13.74v8.52A13.74,13.74,0,0,0,13.74,36h8.52A13.74,13.74,0,0,0,36,22.26V13.74A13.74,13.74,0,0,0,22.26,0Z"/></svg>