<svg id="레이어_1" data-name="레이어 1" xmlns="http://www.w3.org/2000/svg" viewBox="0 0 76 32"><defs><style>.cls-1{fill:#babcbe;stroke:#babcbe;}.cls-2{fill:#e6e6e6;}</style></defs><title>오타수정요청</title><rect class="cls-1" x="0.5" y="0.5" width="75" height="31" rx="3"/><path class="cls-2" d="M17.51,18.84v.93h-9v-.93h3.92v-1.9c-1.82-.17-3.08-1.17-3.08-2.64,0-1.62,1.54-2.66,3.65-2.66s3.65,1,3.65,2.66c0,1.47-1.28,2.49-3.09,2.65v1.89ZM13,16.06c1.47,0,2.54-.68,2.54-1.76S14.47,12.54,13,12.54s-2.55.68-2.55,1.76S11.51,16.06,13,16.06Z"/><path class="cls-2" d="M19.62,17.74a25.38,25.38,0,0,0,4.19-.29l.11.92a28.07,28.07,0,0,1-4.63.3h-.8V11.91h4.64v.94H19.62v1.84h3.32v.92H19.62Zm7.7-1.86H25.77V21H24.64V11h1.13V15h1.55Z"/><path class="cls-2" d="M38.06,17.49h-4V21H33V17.49H29.08v-.93h9Zm-.83-1.86a5,5,0,0,1-3.65-2.24,5,5,0,0,1-3.66,2.24l-.44-.91c2-.29,3.49-1.51,3.49-2.82v-.53h1.2v.53c0,1.29,1.5,2.53,3.5,2.82Z"/><path class="cls-2" d="M44,16.65a3.83,3.83,0,0,1-2.31-2.12,4.12,4.12,0,0,1-2.46,2.39l-.58-.9a3.51,3.51,0,0,0,2.43-3.24v-.14H39v-.92h5.31v.92H42.23v.13a3.24,3.24,0,0,0,2.33,3Zm2.92,2.47c0,1.19-1.27,1.88-3.34,1.88s-3.36-.69-3.36-1.88,1.28-1.88,3.36-1.88S46.92,17.94,46.92,19.12Zm-1.13,0c0-.65-.81-1-2.21-1s-2.22.35-2.22,1,.8,1,2.22,1S45.79,19.77,45.79,19.12Zm0-5.57v-2.5h1.13V17H45.75v-2.5H44v-.92Z"/><path class="cls-2" d="M58.65,18.84v.93h-9v-.93h2.1V16.26a2.29,2.29,0,0,1-1.26-2c0-1.58,1.52-2.59,3.65-2.59s3.65,1,3.65,2.59a2.3,2.3,0,0,1-1.26,2v2.58Zm-7.06-4.62c0,1.06,1,1.72,2.55,1.72s2.54-.66,2.54-1.72-1-1.7-2.54-1.7S51.59,13.18,51.59,14.22Zm1.29,4.62h2.51V16.68a5.5,5.5,0,0,1-1.25.14,6.33,6.33,0,0,1-1.26-.13Z"/><path class="cls-2" d="M64.61,16.69a3.84,3.84,0,0,1-2.42-1.89,3.88,3.88,0,0,1-2.44,2.14l-.55-.88a3.1,3.1,0,0,0,2.38-2.89v-.09H59.49v-.9h2.09V11h1.15v1.18h2.08v.9H62.72v.09a3,3,0,0,0,2.42,2.65Zm2.88,2.44c0,1.16-1.27,1.86-3.35,1.86s-3.35-.7-3.35-1.86,1.27-1.85,3.35-1.85S67.49,18,67.49,19.13Zm-1.13,0c0-.63-.8-1-2.22-1s-2.21.34-2.21,1,.8,1,2.21,1S66.36,19.75,66.36,19.13Zm0-5.34V11h1.13v6H66.32V14.73h-1.8v-.94Z"/></svg>