<svg id="레이어_1" data-name="레이어 1" xmlns="http://www.w3.org/2000/svg" viewBox="0 0 76 32"><defs><style>.cls-1{fill:#435062;stroke:#435062;}.cls-2{isolation:isolate;}.cls-3{fill:#fff;}</style></defs><title>버튼</title><rect class="cls-1" x="0.5" y="0.5" width="75" height="31" rx="3"/><g class="cls-2"><g class="cls-2"><path class="cls-3" d="M19.65,16.55a4.86,4.86,0,0,1-3-2.64,5.11,5.11,0,0,1-3.1,2.89l-.75-1.14a4.26,4.26,0,0,0,3.11-4v-.22H13.25V10.24H20v1.18H17.39v.22a4.09,4.09,0,0,0,3,3.8Zm-5.14,1.12h8.32v4.41H21.39V18.83H14.51Zm10.11-3.83H22.83v3.21H21.39V9.42h1.44v3.23h1.79Z"/><path class="cls-3" d="M32.57,16.38a4.89,4.89,0,0,1-2.88-2.68,5.26,5.26,0,0,1-3.16,3.06l-.75-1.17a4.42,4.42,0,0,0,3.14-4.24V10.1h1.45v1.18a4.11,4.11,0,0,0,3,4Zm3.8,3.28c0,1.52-1.63,2.42-4.27,2.42s-4.26-.9-4.26-2.42,1.62-2.43,4.26-2.43S36.37,18.13,36.37,19.66Zm-1.45,0c0-.83-1-1.29-2.82-1.29s-2.82.46-2.82,1.29,1,1.28,2.82,1.28S34.92,20.48,34.92,19.66Zm-.05-6.53H32.31V12h2.56V9.42h1.44v7.46H34.87Z"/><path class="cls-3" d="M43.1,11.38h2.95v1.17H38.64V11.38h3V9.61H43.1Zm2.44,5a3.15,3.15,0,1,1-3.14-3A2.94,2.94,0,0,1,45.54,16.41Zm-1.38,0a1.77,1.77,0,1,0-1.76,1.76A1.68,1.68,0,0,0,44.16,16.41Zm6.32-.69H48.53v6.37H47.08V9.43h1.45v5.08h1.95Z"/><path class="cls-3" d="M58.3,10.76c0,3.77-1.51,7-5.85,9.06l-.77-1.15c3.32-1.59,4.89-3.82,5.14-6.73H52.31V10.76ZM62,9.43V22.08H60.59V9.43Z"/></g></g></svg>