<svg xmlns="http://www.w3.org/2000/svg" xmlns:xlink="http://www.w3.org/1999/xlink" width="134" height="68.547" viewBox="0 0 134 68.547">
  <defs>
    <filter id="합치기_1" x="0" y="0" width="134" height="68.547" filterUnits="userSpaceOnUse">
      <feOffset dx="1" dy="1" input="SourceAlpha"/>
      <feGaussianBlur stdDeviation="1.5" result="blur"/>
      <feFlood flood-opacity="0.161"/>
      <feComposite operator="in" in2="blur"/>
      <feComposite in="SourceGraphic"/>
    </filter>
  </defs>
  <g id="그룹_1716" data-name="그룹 1716" transform="translate(-1747.5 -235.673)">
    <g transform="matrix(1, 0, 0, 1, 1747.5, 235.67)" filter="url(#합치기_1)">
      <g id="합치기_1-2" data-name="합치기 1" transform="translate(3.5 3.5)" fill="#fff8cf">
        <path d="M 58.60542297363281 59.29648208618164 C 58.30077743530273 59.29648208618164 58.04492950439453 59.13057327270508 57.92103958129883 58.85269546508789 L 53.92322158813477 49.89759063720703 L 53.85711669921875 49.74949645996094 L 53.6949462890625 49.74949645996094 L 3.000607252120972 49.74949645996094 C 1.483914971351624 49.74949645996094 0.2500072419643402 48.51598739624023 0.2500072419643402 46.99980545043945 L 0.2500072419643402 2.999696731567383 C 0.2500072419643402 1.483004331588745 1.483914971351624 0.249096691608429 3.000607252120972 0.249096691608429 L 122.0004043579102 0.249096691608429 C 123.5166091918945 0.249096691608429 124.750114440918 1.483004331588745 124.750114440918 2.999696731567383 L 124.750114440918 46.99980545043945 C 124.750114440918 48.51598739624023 123.5166091918945 49.74949645996094 122.0004043579102 49.74949645996094 L 63.51655960083008 49.74949645996094 L 63.35439300537109 49.74949645996094 L 63.28828430175781 49.89759063720703 L 59.29053115844727 58.85258865356445 C 59.16629791259766 59.13049697875977 58.91017532348633 59.29648208618164 58.60542297363281 59.29648208618164 Z" stroke="none"/>
        <path d="M 58.60541915893555 59.04647064208984 C 58.68157196044922 59.04647064208984 58.93957138061523 59.02512359619141 59.06223678588867 58.75069046020508 L 63.05998611450195 49.79568862915039 L 63.19220352172852 49.49950408935547 L 63.51655197143555 49.49950408935547 L 122.0004043579102 49.49950408935547 C 123.3787384033203 49.49950408935547 124.5001068115234 48.37813949584961 124.5001068115234 46.99980545043945 L 124.5001068115234 2.99970555305481 C 124.5001068115234 1.620872378349304 123.3787384033203 0.4991056621074677 122.0004043579102 0.4991056621074677 L 3.000603437423706 0.4991056621074677 C 1.621770024299622 0.4991056621074677 0.5000033974647522 1.620872378349304 0.5000033974647522 2.99970555305481 L 0.5000033974647522 46.99980545043945 C 0.5000033974647522 48.37813949584961 1.621770024299622 49.49950408935547 3.000603437423706 49.49950408935547 L 53.6949348449707 49.49950408935547 L 54.019287109375 49.49950408935547 L 54.15150451660156 49.79567337036133 L 58.14936828613281 58.75090408325195 C 58.27165222167969 59.02515411376953 58.52935409545898 59.04647064208984 58.60541915893555 59.04647064208984 M 58.60541915893555 59.54647064208984 C 58.23696899414063 59.54647064208984 57.86865234375 59.34915542602539 57.69270324707031 58.95450592041016 L 53.6949348449707 49.99950408935547 L 3.000603437423706 49.99950408935547 C 1.343703389167786 49.99950408935547 3.405761617614189e-06 48.65670394897461 3.405761617614189e-06 46.99980545043945 L 3.405761617614189e-06 2.99970555305481 C 3.405761617614189e-06 1.342805624008179 1.343703389167786 -0.0008943318971432745 3.000603437423706 -0.0008943318971432745 L 122.0004043579102 -0.0008943318971432745 C 123.6564025878906 -0.0008943318971432745 125.0001068115234 1.342805624008179 125.0001068115234 2.99970555305481 L 125.0001068115234 46.99980545043945 C 125.0001068115234 48.65670394897461 123.6564025878906 49.99950408935547 122.0004043579102 49.99950408935547 L 63.51655197143555 49.99950408935547 L 59.51880264282227 58.95450592041016 C 59.34240341186523 59.34915542602539 58.97385406494141 59.54647064208984 58.60541915893555 59.54647064208984 Z" stroke="none" fill="#484848"/>
      </g>
    </g>
    <path id="패스_1176" data-name="패스 1176" d="M-23.928-8.64H-27.72v-1.3h-1v1.3H-32.58v.792h8.652Zm-1.824,3.2c0,.66-.888,1.044-2.46,1.044S-30.7-4.776-30.7-5.436s.912-1.044,2.484-1.044S-25.752-6.1-25.752-5.436Zm-5.964,0c0,1.152,1.308,1.788,3.5,1.788,2.172,0,3.48-.636,3.48-1.788s-1.308-1.8-3.48-1.8C-30.408-7.236-31.716-6.588-31.716-5.436Zm8.388,2.544h-9.756v.8h4.368V.9h1V-2.088h4.392Zm2.16-5.82v.792h4.044c-.2,2.556-1.644,4.62-4.536,6l.528.8c3.576-1.752,5-4.488,5-7.6Zm7.212-1.164V.888h.984V-9.876Zm9.684,5.268a3.626,3.626,0,0,1-2.616-3.3v-.42h2.376V-9.12h-5.772v.792h2.412V-7.9a3.809,3.809,0,0,1-2.7,3.492l.516.78A4.524,4.524,0,0,0-7.368-6.24a4.349,4.349,0,0,0,2.592,2.4ZM-9.18-2.016h6.024V.9h.984V-2.808H-9.18Zm8.6-5.028h-1.6v-2.82h-.984v6.48h.984V-6.228h1.6Zm9.2,3.54h1v-6.36h-1v2.28H6.288v.8h2.34ZM7.068-4.776A3.691,3.691,0,0,1,4.452-8.2V-9.264H3.468v1.1A3.922,3.922,0,0,1,.744-4.488l.516.8A4.552,4.552,0,0,0,3.984-6.42,4.406,4.406,0,0,0,6.54-4.008ZM6.072.1c-1.62,0-2.6-.468-2.6-1.248s.984-1.26,2.6-1.26,2.6.468,2.6,1.26S7.692.1,6.072.1Zm0-3.276c-2.208,0-3.588.732-3.588,2.028S3.864.876,6.072.876,9.648.132,9.648-1.152,8.28-3.18,6.072-3.18Zm9.12.852a1.614,1.614,0,0,1-1.68-1.656,1.617,1.617,0,0,1,1.68-1.668,1.62,1.62,0,0,1,1.692,1.668A1.617,1.617,0,0,1,15.192-2.328Zm0-4.14a2.454,2.454,0,0,0-2.6,2.484,2.437,2.437,0,0,0,2.6,2.472A2.444,2.444,0,0,0,17.82-3.984,2.46,2.46,0,0,0,15.192-6.468Zm.48-3.276h-.984v1.6H11.976v.792h6.348v-.792H15.672Zm6.42,4.3H20.328V-9.864h-.984V.888h.984V-4.62h1.764Zm5.664.756H24.78V-8.148h2.976Zm3.432-2.484v1.5H28.716v-1.5Zm-2.472,2.3h2.472v2.856h1V-9.864h-1V-7.98H28.716v-.948H23.808v5.016h4.908ZM26.244-.156V-2.712H25.26V.648h7.176v-.8ZM-46.542,17h4.824v-.912h-1.764V8.2h-.84a5.573,5.573,0,0,1-1.824.624v.7h1.56v6.564h-1.956Zm9.18.156c1.668,0,2.736-1.524,2.736-4.584s-1.068-4.536-2.736-4.536-2.748,1.476-2.748,4.536S-39.042,17.156-37.362,17.156Zm0-.876c-1.008,0-1.68-1.116-1.68-3.708,0-2.568.672-3.648,1.68-3.648s1.668,1.08,1.668,3.648C-35.694,15.164-36.366,16.28-37.362,16.28Zm6.9.876c1.668,0,2.736-1.524,2.736-4.584s-1.068-4.536-2.736-4.536-2.748,1.476-2.748,4.536S-32.142,17.156-30.462,17.156Zm0-.876c-1.008,0-1.68-1.116-1.68-3.708,0-2.568.672-3.648,1.68-3.648s1.668,1.08,1.668,3.648C-28.794,15.164-29.466,16.28-30.462,16.28Zm6.024-2.688c1.212,0,2-1.02,2-2.8s-.792-2.76-2-2.76-1.992,1-1.992,2.76S-25.638,13.592-24.438,13.592Zm0-.684c-.684,0-1.164-.708-1.164-2.112s.48-2.088,1.164-2.088,1.176.684,1.176,2.088S-23.742,12.908-24.438,12.908Zm.264,4.248h.732l4.86-9.12h-.744Zm5.868,0c1.2,0,1.992-1.008,1.992-2.784s-.792-2.76-1.992-2.76-2,1-2,2.76S-19.506,17.156-18.306,17.156Zm0-.672c-.7,0-1.176-.708-1.176-2.112s.48-2.088,1.176-2.088,1.164.684,1.164,2.088S-17.622,16.484-18.306,16.484Zm6.852-8.244v.8H-7.59a7.57,7.57,0,0,1-.348,1.9l-4.068.264.18.852,3.588-.336a7.641,7.641,0,0,1-3.8,3.624l.552.78A8.127,8.127,0,0,0-6.618,8.24Zm7.284-1.1v4.308H-6.654v.8H-4.17v5.64h.984V7.136ZM1.65,9.08h1.8v5.232c-.612.024-1.212.048-1.8.06Zm2.748,0H5.6V8.288H-.5V9.08H.7v5.3C.186,14.4-.306,14.4-.762,14.4l.108.828a46.611,46.611,0,0,0,6.864-.408l-.06-.72c-.564.072-1.152.132-1.752.156ZM7.086,7.136V17.888H8.07V7.136ZM20.262,12.92H18.63a17.609,17.609,0,0,0,.384-4.14V7.8h-7.26v.8h6.312v.18c0,.432,0,.864-.024,1.332l-6.6.252.132.828,6.408-.312a13.4,13.4,0,0,1-.324,2.04H10.53v.8h4.38v4.164h.984V13.724h4.368ZM24.03,14.7h-.984v2.952h7.4v-.8H24.03Zm1.284-6.288H27.99v2.448H25.314Zm1.848,4.548V11.648h3.4v-.792H28.974V8.408h1.62V7.616H22.7v.792H24.33v2.448h-1.6v.792h3.444v1.308H21.786v.792h9.732v-.792ZM37.938,8.048c1.764,0,2.772.408,2.772,1.128S39.7,10.3,37.938,10.3,35.166,9.9,35.166,9.176,36.174,8.048,37.938,8.048Zm0,2.988c2.364,0,3.78-.648,3.78-1.86S40.3,7.3,37.938,7.3s-3.78.66-3.78,1.872S35.574,11.036,37.938,11.036Zm-2.7,4.872h6.324V13.484h-7.32v.744H40.59v.96H34.278v2.58h7.608V17H35.238Zm-2.172-4.14v.792H42.81v-.792Zm12.216,2.58h.756l.144-5.088.036-1.248H45.1l.036,1.248Zm.372,2.808a.786.786,0,0,0,.792-.828.794.794,0,1,0-1.584,0A.793.793,0,0,0,45.654,17.156Z" transform="translate(1815 260)"/>
  </g>
</svg>
