<svg id="레이어_1" data-name="레이어 1" xmlns="http://www.w3.org/2000/svg" viewBox="0 0 76 32"><defs><style>.cls-1{fill:#435062;stroke:#435062;}.cls-2{isolation:isolate;}.cls-3{fill:#fff;}</style></defs><title>버튼</title><rect class="cls-1" x="0.5" y="0.5" width="75" height="31" rx="3"/><g class="cls-2"><g class="cls-2"><path class="cls-3" d="M24.38,17.62h-5v4.47H17.91V17.62H13V16.45H24.38Zm-1.05-2.36a6.41,6.41,0,0,1-4.65-2.86A6.36,6.36,0,0,1,14,15.26l-.56-1.17c2.58-.36,4.45-1.92,4.45-3.58V9.84h1.53v.67c0,1.64,1.9,3.22,4.45,3.58Z"/><path class="cls-3" d="M32.64,16.56a4.92,4.92,0,0,1-2.94-2.7,5.26,5.26,0,0,1-3.12,3l-.75-1.15a4.45,4.45,0,0,0,3.1-4.12v-.18H26.25V10.28H33v1.17H30.39v.17a4.12,4.12,0,0,0,3,3.8Zm3.73,3.14c0,1.51-1.63,2.39-4.26,2.39s-4.27-.88-4.27-2.39,1.62-2.4,4.27-2.4S36.37,18.2,36.37,19.7Zm-1.45,0c0-.83-1-1.28-2.81-1.28s-2.83.45-2.83,1.28S30.3,21,32.11,21,34.92,20.52,34.92,19.7Zm-.05-7.09V9.43h1.44V17H34.87V13.79H32.63V12.61Z"/><path class="cls-3" d="M43.1,11.38h2.95v1.17H38.64V11.38h3V9.61H43.1Zm2.44,5a3.15,3.15,0,1,1-3.14-3A2.94,2.94,0,0,1,45.54,16.41Zm-1.38,0a1.77,1.77,0,1,0-1.76,1.76A1.68,1.68,0,0,0,44.16,16.41Zm6.32-.69H48.53v6.37H47.08V9.43h1.45v5.08h1.95Z"/><path class="cls-3" d="M58.3,10.76c0,3.77-1.51,7-5.85,9.06l-.77-1.15c3.32-1.59,4.89-3.82,5.14-6.73H52.31V10.76ZM62,9.43V22.08H60.59V9.43Z"/></g></g></svg>