<svg xmlns="http://www.w3.org/2000/svg" width="72.638" height="72.973" viewBox="0 0 72.638 72.973"><g transform="translate(-1152.326 -282.159)"><g transform="translate(1152.326 282.159)"><g transform="translate(0)"><g transform="translate(24.828 0.725)"><circle cx="12.407" cy="12.407" r="12.407" fill="#fff"/></g><g transform="translate(13.479 67.266)"><path d="M684.345,184.342H645.552a3.54,3.54,0,0,1-3.541-3.54V179.36h45.873V180.8A3.54,3.54,0,0,1,684.345,184.342Z" transform="translate(-642.012 -179.36)" fill="#15376c"/></g><g transform="translate(13.479 35.328)"><rect width="45.873" height="31.939" rx="1.93" transform="translate(0 0)" fill="#15376c"/></g><g transform="translate(12.755 34.603)"><path d="M683.765,145.094H644.581a4.073,4.073,0,0,1-4.069-4.068v-25.25a4.073,4.073,0,0,1,4.069-4.069h39.185a4.073,4.073,0,0,1,4.068,4.069v25.25A4.073,4.073,0,0,1,683.765,145.094Zm-39.185-31.939a2.623,2.623,0,0,0-2.62,2.62v25.25a2.623,2.623,0,0,0,2.62,2.62h39.185a2.623,2.623,0,0,0,2.62-2.62v-25.25a2.623,2.623,0,0,0-2.62-2.62Z" transform="translate(-640.512 -111.707)"/></g><g transform="translate(12.755 66.542)"><path d="M683.569,184.29H644.776a4.27,4.27,0,0,1-4.265-4.265V177.86h47.321v2.166A4.27,4.27,0,0,1,683.569,184.29Zm-41.608-4.982v.717a2.819,2.819,0,0,0,2.816,2.816h38.792a2.819,2.819,0,0,0,2.816-2.816v-.717Z" transform="translate(-640.512 -177.86)"/></g><g transform="translate(30.794 46.615)"><circle cx="4.673" cy="4.673" r="4.673" transform="translate(0 9.095) rotate(-76.718)" fill="#fff"/></g><g transform="translate(31.019 46.84)"><path d="M683.738,147.844a5.4,5.4,0,1,1,5.4-5.4A5.4,5.4,0,0,1,683.738,147.844Zm0-9.345a3.948,3.948,0,1,0,3.948,3.948A3.953,3.953,0,0,0,683.738,138.5Z" transform="translate(-678.341 -137.051)"/></g><g transform="translate(0 24.813)"><path d="M672.723,131.194V105.289a2.626,2.626,0,0,0-2.622-2.623H630.917a2.622,2.622,0,0,0-2.619,2.619v25.03l-10.2-7a9.2,9.2,0,0,1-1.342-14.065L631.219,94.6a10.768,10.768,0,0,1,7.6-3.171H662.2a10.765,10.765,0,0,1,7.6,3.17l14.312,14.659a9.165,9.165,0,0,1,2.622,6.437v.285a9.259,9.259,0,0,1-3.64,7.336Zm-41.807-29.977H670.1a4.075,4.075,0,0,1,4.071,4.071v22.985l8.043-6.113a7.8,7.8,0,0,0,3.068-6.182v-.285a7.728,7.728,0,0,0-2.21-5.426L668.764,95.613a9.3,9.3,0,0,0-6.564-2.737H638.82a9.31,9.31,0,0,0-6.571,2.741l-14.466,14.651a7.757,7.757,0,0,0,1.132,11.852l7.934,5.445V105.285A4.072,4.072,0,0,1,630.917,101.218Z" transform="translate(-614.094 -91.428)"/></g><g transform="translate(24.104)"><path d="M677.15,66.3A13.131,13.131,0,1,1,690.28,53.167,13.145,13.145,0,0,1,677.15,66.3Zm0-24.814a11.683,11.683,0,1,0,11.682,11.683A11.7,11.7,0,0,0,677.15,41.483Z" transform="translate(-664.019 -40.035)"/></g></g></g></g></svg>