<svg xmlns="http://www.w3.org/2000/svg" width="63" height="66" viewBox="0 0 63 66"><g transform="translate(-601 -276)"><g transform="translate(273.207 242.837)"><g transform="translate(347.678 51.465)"><path d="M384.629,84.741V96h5.141V84.741Zm2.571,3.17a.942.942,0,1,1,.943-.942A.943.943,0,0,1,387.2,87.911Z" transform="translate(-384.629 -84.741)" fill="#dfdfdf"/></g><g transform="translate(345.567 63.032)"><path d="M405.919,151.439a7.7,7.7,0,0,0-1.107-2.149l-9.458-13.715H386.3l-9.458,13.715A7.65,7.65,0,0,0,383,161.476h15.644a7.651,7.651,0,0,0,7.27-10.037Zm-14.938,4.771a6.848,6.848,0,1,1,6.848-6.848A6.848,6.848,0,0,1,390.981,156.21Z" transform="translate(-375.353 -135.575)" fill="#15376c"/></g><g transform="translate(353.468 42.004)"><path d="M425.529,43.163l-2.383,8.39-.36,1.592h-7.27a3.668,3.668,0,0,1-3.051-1.587l0,0-2.386-8.39Z" transform="translate(-410.076 -43.163)" fill="#15376c"/></g><g transform="translate(347.336 51.124)"><path d="M388.612,95.186H383.47a.341.341,0,0,1-.341-.341V83.582a.341.341,0,0,1,.341-.341h5.141a.341.341,0,0,1,.341.341V94.845A.341.341,0,0,1,388.612,95.186Zm-4.8-.683h4.459V83.924h-4.459Z" transform="translate(-383.129 -83.241)"/></g><g transform="translate(348.965 52.409)"><path d="M391.568,91.455a1.284,1.284,0,1,1,1.284-1.284A1.285,1.285,0,0,1,391.568,91.455Zm0-1.885a.6.6,0,1,0,.6.6A.6.6,0,0,0,391.568,89.57Z" transform="translate(-390.284 -88.887)"/></g><g transform="translate(352.477 50.054)"><path d="M420.5,91.858H408.886a.339.339,0,0,1-.158-.039L405.9,90.342a.341.341,0,0,1-.183-.3V81.309a.342.342,0,0,1,.128-.266l3.034-2.43a.342.342,0,0,1,.506.09,3.3,3.3,0,0,0,2.763,1.426h9.47a1.531,1.531,0,0,1,1.261.675h0a1.507,1.507,0,0,1,.266.853v.551a1.545,1.545,0,0,1-.749,1.308c.018.018.034.036.051.055a1.546,1.546,0,0,1,.383,1.01V85.2a1.529,1.529,0,0,1-.8,1.341,1.524,1.524,0,0,1,.4,1.032v.616a1.53,1.53,0,0,1-.928,1.405,1.188,1.188,0,0,1,.182.633v.441A1.2,1.2,0,0,1,420.5,91.858Zm-11.533-.683H420.5a.511.511,0,0,0,.511-.511v-.441a.511.511,0,0,0-.511-.511.341.341,0,1,1,0-.683h.411a.847.847,0,0,0,.846-.846v-.616a.85.85,0,0,0-.8-.846.341.341,0,0,1,.02-.682h.327a.845.845,0,0,0,.845-.845V84.58a.847.847,0,0,0-.7-.832.341.341,0,0,1-.276-.4.362.362,0,0,1,.339-.3h.112a.856.856,0,0,0,.844-.846v-.551a.827.827,0,0,0-.147-.468h0a.849.849,0,0,0-.7-.378h-9.47a4.006,4.006,0,0,1-3.118-1.444l-2.63,2.106v8.36Z" transform="translate(-405.722 -78.538)"/></g><g transform="translate(366.193 54.569)"><rect width="2.072" height="0.683" transform="translate(0 0)"/></g><g transform="translate(365.581 57.557)"><rect width="2.154" height="0.683" transform="translate(0 0)"/></g><g transform="translate(364.969 60.545)"><rect width="2.289" height="0.683" transform="translate(0)"/></g><g transform="translate(336.793 48.561)"><path d="M347.687,86.487c-1.245,0-2.469,0-3.681-.009-2.437-.008-4.74-.017-7.132.009l-.008-.683c2.4-.026,4.7-.018,7.142-.009,1.1,0,2.21.008,3.337.009V75.153l-10.553-2.51.158-.664,10.815,2.572a.341.341,0,0,1,.262.332V86.146A.341.341,0,0,1,347.687,86.487Z" transform="translate(-336.793 -71.979)"/></g><g transform="translate(357.155 62.691)"><rect width="7.771" height="0.683" transform="translate(0 0)"/></g><g transform="translate(353.127 41.663)"><path d="M421.626,52.327h-7.27a4.022,4.022,0,0,1-3.339-1.745c-.005-.008-.01-.016-.014-.025a.386.386,0,0,1-.028-.07L408.59,42.1a.341.341,0,0,1,.328-.435H424.37a.341.341,0,0,1,.329.435l-2.383,8.39-.356,1.574A.342.342,0,0,1,421.626,52.327Zm-10.009-2.075a3.323,3.323,0,0,0,2.739,1.393h7l.3-1.326,2.264-7.973H409.37Z" transform="translate(-408.577 -41.663)"/></g><g transform="translate(345.226 62.691)"><path d="M397.49,160.659H381.846a7.992,7.992,0,0,1-6.437-12.729l9.452-13.707a.341.341,0,0,1,.281-.148h9.052a.34.34,0,0,1,.281.148l9.458,13.715a7.991,7.991,0,0,1-6.443,12.721Zm-12.169-25.9-9.357,13.568a7.377,7.377,0,0,0-1.429,4.342,7.307,7.307,0,0,0,7.31,7.308H397.49a7.309,7.309,0,0,0,5.887-11.642l-9.362-13.576Z" transform="translate(-373.853 -134.075)"/></g><g transform="translate(354.706 70.33)"><path d="M422,180.626c-.2,0-.407-.01-.609-.028l.063-.68c.181.017.365.025.547.025h.1l.013.683Zm.827-.052-.087-.677a5.785,5.785,0,0,0,.634-.117l.16.664A6.581,6.581,0,0,1,422.83,180.574Zm-2.148-.083a6.383,6.383,0,0,1-.7-.185l.213-.649a5.736,5.736,0,0,0,.622.166Zm3.546-.256-.234-.641a5.848,5.848,0,0,0,.592-.254l.3.611A6.476,6.476,0,0,1,424.228,180.234Zm-4.914-.19a6.449,6.449,0,0,1-.638-.335l.351-.586a5.772,5.772,0,0,0,.57.3Zm6.2-.45-.37-.573a5.955,5.955,0,0,0,.522-.379l.43.53A6.614,6.614,0,0,1,425.515,179.594Zm-7.435-.288a6.574,6.574,0,0,1-.548-.467l.471-.495a5.8,5.8,0,0,0,.491.418Zm8.55-.619-.487-.478a5.939,5.939,0,0,0,.426-.484l.536.422A6.559,6.559,0,0,1,426.63,178.687Zm-9.592-.372a6.493,6.493,0,0,1-.432-.575l.568-.379a5.747,5.747,0,0,0,.387.515Zm10.481-.758-.58-.36a5.806,5.806,0,0,0,.309-.565l.616.293A6.5,6.5,0,0,1,427.519,177.557Zm-11.28-.437a6.544,6.544,0,0,1-.3-.657l.637-.245a5.827,5.827,0,0,0,.264.588Zm11.9-.861-.645-.224a5.661,5.661,0,0,0,.176-.619l.666.15A6.387,6.387,0,0,1,428.137,176.259Zm-12.413-.481a6.447,6.447,0,0,1-.142-.706l.675-.1a5.906,5.906,0,0,0,.127.631Zm12.729-.923-.679-.075a5.869,5.869,0,0,0,.035-.643q0-.2-.013-.392l.681-.046q.014.217.015.438A6.617,6.617,0,0,1,428.453,174.855Zm-12.935-.5q0-.108,0-.218c0-.168.006-.336.019-.5l.681.052c-.011.147-.017.3-.017.449,0,.066,0,.131,0,.2Zm12.2-1.25a5.719,5.719,0,0,0-.149-.626l.654-.195a6.342,6.342,0,0,1,.167.7Zm-11.42-.056-.671-.127a6.472,6.472,0,0,1,.173-.7l.653.2A5.715,5.715,0,0,0,416.3,173.049Zm11.053-1.177a5.8,5.8,0,0,0-.284-.578l.6-.335a6.448,6.448,0,0,1,.318.646Zm-10.675-.052-.626-.273a6.5,6.5,0,0,1,.324-.643l.591.34A5.935,5.935,0,0,0,416.677,171.82Zm10.044-1.069a5.879,5.879,0,0,0-.4-.5l.507-.457a6.556,6.556,0,0,1,.451.56Zm-9.4-.046-.55-.4a6.589,6.589,0,0,1,.457-.556l.5.462A5.839,5.839,0,0,0,417.319,170.705Zm8.541-.909a5.924,5.924,0,0,0-.5-.4l.395-.557a6.607,6.607,0,0,1,.563.448Zm-7.67-.038-.448-.515a6.46,6.46,0,0,1,.568-.442l.388.561A5.813,5.813,0,0,0,418.19,169.758Zm6.62-.705a5.725,5.725,0,0,0-.581-.28l.262-.63a6.542,6.542,0,0,1,.649.313Zm-5.562-.028-.325-.6a6.512,6.512,0,0,1,.651-.307l.256.632A5.952,5.952,0,0,0,419.247,169.025Zm4.375-.466a5.871,5.871,0,0,0-.628-.144l.116-.673a6.414,6.414,0,0,1,.7.162Zm-3.182-.015-.183-.658a6.469,6.469,0,0,1,.7-.154l.109.674A5.773,5.773,0,0,0,420.439,168.543Zm1.914-.2a5.965,5.965,0,0,0-.645,0l-.034-.682a6.7,6.7,0,0,1,.719,0Z" transform="translate(-415.514 -167.648)"/></g><g transform="translate(357.751 73.986)"><path d="M435.785,186.121c0,.053-.005.084-.016.092a.24.24,0,0,1-.1.012h-.907q-.185.754-.357,1.5t-.357,1.5a.3.3,0,0,1-.044.129.3.3,0,0,1-.132.016h-.257a.3.3,0,0,1-.132-.016.3.3,0,0,1-.044-.129l-.682-3h-.835q-.185.754-.353,1.5t-.345,1.5a.349.349,0,0,1-.044.132.242.242,0,0,1-.132.02H430.8a.267.267,0,0,1-.136-.02.29.29,0,0,1-.048-.132l-.69-2.994h-.915a.082.082,0,0,1-.113-.112V186a.209.209,0,0,1,.012-.1.215.215,0,0,1,.1-.012h.835q-.113-.482-.225-.983t-.225-.991q-.04-.152-.02-.177c.013-.016.068-.024.165-.024h.152a.319.319,0,0,1,.152.02.367.367,0,0,1,.056.148l.449,2.007h1.188q.112-.5.229-1t.245-1.011a.349.349,0,0,1,.056-.14.293.293,0,0,1,.145-.02h.281a.292.292,0,0,1,.144.02.312.312,0,0,1,.048.14l.457,2.015h1.2q.113-.506.237-1.015t.237-1.015a.127.127,0,0,1,.177-.145h.193c.08,0,.126.007.136.02s.008.058-.008.132l-.489,2.023h.843a.248.248,0,0,1,.1.012c.011.008.016.042.016.1Zm-4.294.1h-1.076q.137.586.265,1.132t.265,1.132Zm1.188-.337q-.088-.377-.169-.715t-.169-.722q-.08.345-.168.718t-.169.719Zm1.589.337h-1.06q.136.586.265,1.135l.265,1.136Z" transform="translate(-428.899 -183.713)" stroke="#000" stroke-miterlimit="10" stroke-width="0.2"/></g></g><rect width="63" height="66" transform="translate(601 276)" fill="#fff" opacity="0.6"/></g></svg>