<svg xmlns="http://www.w3.org/2000/svg" width="63" height="66" viewBox="0 0 63 66"><g transform="translate(-873 -276)"><g transform="translate(0 1)"><g transform="translate(921.021 304.362)"><rect width="13.918" height="2.527" transform="matrix(0.288, -0.958, 0.958, 0.288, 0.446, 13.771)" fill="none"/><rect width="13.918" height="2.527" transform="matrix(0.288, -0.958, 0.958, 0.288, 0.446, 13.771)" fill="#15376c"/><path d="M1051.576,120.594l-3.1-.934,4.221-14.009,3.1.934Zm-2.214-1.411,1.737.523,3.81-12.643-1.736-.523Z" transform="translate(-1048.474 -105.651)"/></g><path d="M913.537,28.912,912.3,25.894a7.988,7.988,0,0,0-10.153,0l-1.2,2.923h-.379l-7.732-4,14.269-6.768,14.342,6.767ZM900.5,27.941l1.018-2.485.059-.055a8.72,8.72,0,0,1,11.288,0l.059.055.989,2.418Z" transform="translate(-9.497 263.455)" fill="#15376c"/><g transform="translate(881.627 281.5)"><g transform="translate(0 22.246)"><path d="M887.44,139.332V120.765a11.813,11.813,0,0,1,11.813-11.813h11.4A9.3,9.3,0,0,1,918.926,114l1.333,2.59a5.518,5.518,0,0,0,4.906,2.993h3.92a3.627,3.627,0,0,1,3.592,3.124h0a3.627,3.627,0,0,1-3.592,4.131H919.84A5.518,5.518,0,0,1,915.017,124l-2.455-4.417h-.31v19.754" transform="translate(-887.067 -108.579)" fill="#fff"/><path d="M911.5,132.578h-.746v-14.5h.9l2.562,4.61a5.147,5.147,0,0,0,4.5,2.646h9.245a3.254,3.254,0,0,0,0-6.509h-3.92a5.868,5.868,0,0,1-5.238-3.195l-1.333-2.59a8.892,8.892,0,0,0-7.936-4.841H898.126a11.453,11.453,0,0,0-11.44,11.44v12.939h-.746V119.638a12.2,12.2,0,0,1,12.186-12.186h11.405a9.635,9.635,0,0,1,8.6,5.246l1.334,2.59a5.124,5.124,0,0,0,4.574,2.79h3.92a4,4,0,0,1,0,8h-9.245a5.894,5.894,0,0,1-5.149-3.03l-2.066-3.717Z" transform="translate(-885.94 -107.452)"/></g><g transform="translate(8.7 11.671)"><path d="M934.919,65.54l-6.238,1.476-6.324-1.5a7.223,7.223,0,1,0,12.561.02Z" transform="translate(-921.279 -65.378)" fill="#dfdfdf"/><path d="M928.252,76.022a7.344,7.344,0,0,1-6.379-10.993l.046-.081,6.386,1.511,6.3-1.491.046.081a7.352,7.352,0,0,1-6.4,10.972Zm-6.209-10.788a7.1,7.1,0,0,0,6.209,10.54h0a7.1,7.1,0,0,0,6.227-10.519l-6.175,1.461Z" transform="translate(-920.903 -64.948)" fill="#dfdfdf"/></g><g transform="translate(13.797 22.62)"><path d="M944.651,112.255l1.373-3.3H941.39l1.4,3.3Z" transform="translate(-941.39 -108.952)" fill="#dfdfdf"/></g><g transform="translate(13.031 25.923)"><path d="M944.349,133.612l-2.955,4.156-3.083-4.2,2.164-11.343h1.864S943.717,129.7,944.349,133.612Z" transform="translate(-938.311 -122.228)" fill="#dfdfdf"/></g><g transform="translate(8.451 7.795)"><path d="M927.5,64.569a7.6,7.6,0,0,1,0-15.2h0a7.6,7.6,0,0,1,0,15.2Zm0-14.452h0a6.853,6.853,0,1,0,0,13.705h0a6.853,6.853,0,1,0,0-13.705Z" transform="translate(-919.903 -49.371)"/></g><g transform="translate(25.186 22.62)"><path d="M987.159,108.952" transform="translate(-987.159 -108.952)" fill="none" stroke="#000" stroke-miterlimit="10" stroke-width="3"/></g><g transform="translate(25.186 22.62)"><path d="M987.159,108.952" transform="translate(-987.159 -108.952)" fill="none" stroke="#000" stroke-miterlimit="10" stroke-width="3"/></g><g transform="translate(13.234 22.246)"><path d="M943.2,111.5h-2.358l-1.715-4.049h5.756Zm-1.863-.746H942.7l1.063-2.556h-3.511Z" transform="translate(-939.126 -107.452)"/></g><g transform="translate(12.634 25.55)"><path d="M940.2,137.278l-3.485-4.745,2.253-11.806h2.483l.057.306c.013.075,1.386,7.525,2.011,11.392l.024.151Zm-2.691-4.924,2.682,3.65,2.567-3.61c-.561-3.441-1.667-9.5-1.928-10.919h-1.244Z" transform="translate(-936.715 -120.728)"/></g><g transform="translate(6.542 34.346)"><path d="M0,0H.746V13.026H0Z" transform="translate(0 0)"/></g><g transform="translate(2.185 6.783)"><rect width="0.746" height="4.223"/></g><g transform="translate(8.557 5.283)"><path d="M934.806,42.748a8.351,8.351,0,0,0-10.776,0l-1.646,4.018,7.034,1.664,7.034-1.664Z" transform="translate(-921.873 -40.404)" fill="#15376c"/><path d="M927.875,47.685l-.086-.02L920.331,45.9l1.842-4.5.059-.055a8.72,8.72,0,0,1,11.287,0l.059.055,1.842,4.5Zm-6.523-2.31,6.523,1.543,6.523-1.543-1.447-3.533a7.988,7.988,0,0,0-10.151,0Z" transform="translate(-920.331 -39.276)"/></g><g transform="translate(1.717)"><path d="M913.537,28.912,912.3,25.894a7.988,7.988,0,0,0-10.153,0l-1.2,2.923h-.379l-7.732-4,14.269-6.768,14.342,6.767Zm-19.016-4.07,5.983,3.1,1.018-2.485.059-.055a8.72,8.72,0,0,1,11.288,0l.059.055.989,2.418,5.851-3.03-12.658-5.973Z" transform="translate(-892.841 -18.045)"/></g><g transform="translate(1.489 11.006)"><rect width="2.171" height="2.652" rx="1.085" fill="#15376c"/></g><g transform="translate(1.065 13.635)"><path d="M892.246,72.845h-1.031a22.922,22.922,0,0,0-.994,6.344h3.018A22.922,22.922,0,0,0,892.246,72.845Z" transform="translate(-890.222 -72.845)" fill="#15376c"/></g><g transform="translate(1.116 10.633)"><path d="M892.127,64.178h-.488a1.216,1.216,0,0,1-1.214-1.214v-.97a1.216,1.216,0,0,1,1.214-1.214h.488a1.216,1.216,0,0,1,1.214,1.214v.97A1.216,1.216,0,0,1,892.127,64.178Zm-.488-2.652a.469.469,0,0,0-.468.468v.97a.469.469,0,0,0,.468.468h.488a.468.468,0,0,0,.468-.468v-.97a.468.468,0,0,0-.468-.468Z" transform="translate(-890.424 -60.779)"/></g><g transform="translate(0.692 13.262)"><path d="M892.486,78.436h-3.764v-.373a23.062,23.062,0,0,1,1.012-6.46l.084-.257h1.571l.084.257a23.062,23.062,0,0,1,1.012,6.46Zm-3.014-.746h2.263a23.087,23.087,0,0,0-.892-5.6h-.478A23.082,23.082,0,0,0,889.472,77.69Z" transform="translate(-888.722 -71.346)"/></g></g></g><rect width="63" height="66" transform="translate(873 276)" fill="#fff" opacity="0.6"/></g></svg>