<svg xmlns="http://www.w3.org/2000/svg" width="63" height="66" viewBox="0 0 63 66"><g transform="translate(-1144 -276)"><g transform="translate(1144.999 282.159)"><g transform="translate(7.327)"><g transform="translate(16.107 0.47)"><circle cx="8.049" cy="8.049" r="8.049" fill="none"/></g><g transform="translate(8.744 43.639)"><path d="M669.475,182.592H644.309a2.3,2.3,0,0,1-2.3-2.3v-.935h29.76v.935A2.3,2.3,0,0,1,669.475,182.592Z" transform="translate(-642.012 -179.36)" fill="#15376c"/></g><g transform="translate(8.744 22.919)"><rect width="29.76" height="20.72" rx="1.93" transform="translate(0 0)" fill="#15376c"/></g><g transform="translate(8.275 22.449)"><path d="M668.572,133.367H643.151a2.642,2.642,0,0,1-2.64-2.639V114.346a2.642,2.642,0,0,1,2.64-2.639h25.421a2.642,2.642,0,0,1,2.639,2.639v16.381A2.642,2.642,0,0,1,668.572,133.367Zm-25.421-20.72a1.7,1.7,0,0,0-1.7,1.7v16.381a1.7,1.7,0,0,0,1.7,1.7h25.421a1.7,1.7,0,0,0,1.7-1.7V114.346a1.7,1.7,0,0,0-1.7-1.7Z" transform="translate(-640.512 -111.707)"/></g><g transform="translate(8.275 43.169)"><path d="M668.445,182.032H643.279a2.77,2.77,0,0,1-2.767-2.767V177.86h30.7v1.405A2.77,2.77,0,0,1,668.445,182.032ZM641.452,178.8v.465a1.829,1.829,0,0,0,1.827,1.827h25.166a1.829,1.829,0,0,0,1.827-1.827V178.8Z" transform="translate(-640.512 -177.86)"/></g><g transform="translate(19.977 30.241)"><circle cx="3.031" cy="3.031" r="3.031" transform="translate(0 5.901) rotate(-76.718)" fill="#fff"/></g><g transform="translate(20.123 30.387)"><path d="M681.842,144.053a3.5,3.5,0,1,1,3.5-3.5A3.5,3.5,0,0,1,681.842,144.053Zm0-6.063a2.561,2.561,0,1,0,2.561,2.561A2.565,2.565,0,0,0,681.842,137.991Z" transform="translate(-678.341 -137.051)"/></g><g transform="translate(0 16.097)"><path d="M652.129,117.226V100.42a1.7,1.7,0,0,0-1.7-1.7h-25.42a1.7,1.7,0,0,0-1.7,1.7v16.238l-6.618-4.542a5.969,5.969,0,0,1-.87-9.125l9.384-9.5a6.986,6.986,0,0,1,4.931-2.057H645.3a6.984,6.984,0,0,1,4.928,2.056l9.285,9.51a5.946,5.946,0,0,1,1.7,4.176v.185a6.007,6.007,0,0,1-2.362,4.759ZM625.008,97.779h25.42a2.644,2.644,0,0,1,2.641,2.641v14.912l5.218-3.966a5.062,5.062,0,0,0,1.991-4.011v-.185a5.014,5.014,0,0,0-1.434-3.52l-9.283-9.507a6.036,6.036,0,0,0-4.258-1.776H630.135a6.04,6.04,0,0,0-4.263,1.778l-9.385,9.5a5.032,5.032,0,0,0,.734,7.689l5.147,3.532V100.418A2.642,2.642,0,0,1,625.008,97.779Z" transform="translate(-614.094 -91.428)"/></g><g transform="translate(15.637)"><path d="M672.537,57.073a8.519,8.519,0,1,1,8.519-8.519A8.528,8.528,0,0,1,672.537,57.073Zm0-16.1a7.579,7.579,0,1,0,7.579,7.579A7.588,7.588,0,0,0,672.537,40.975Z" transform="translate(-664.019 -40.035)"/></g></g></g><rect width="63" height="66" transform="translate(1144 276)" fill="#fff" opacity="0.6"/></g></svg>