<svg xmlns="http://www.w3.org/2000/svg" width="60.059" height="71.375" viewBox="0 0 60.059 71.375"><g transform="translate(-610 -284.5)"><g transform="translate(634.171 297.581)"><path d="M426.846,97.575h-16.6a.484.484,0,0,1-.226-.056l-4.034-2.11a.487.487,0,0,1-.262-.432V82.5a.489.489,0,0,1,.183-.381l4.337-3.473a.488.488,0,0,1,.723.129,4.715,4.715,0,0,0,3.948,2.037h13.534a2.188,2.188,0,0,1,1.8.965h0a2.154,2.154,0,0,1,.38,1.22v.787a2.208,2.208,0,0,1-1.071,1.869c.025.025.049.051.073.078a2.209,2.209,0,0,1,.548,1.444v.881a2.185,2.185,0,0,1-1.136,1.916,2.178,2.178,0,0,1,.575,1.475v.88a2.186,2.186,0,0,1-1.327,2.008,1.7,1.7,0,0,1,.261.905C428.551,96.81,427.786,97.575,426.846,97.575Z" transform="translate(-405.722 -78.538)" fill="#fff"/></g><g transform="translate(610 284.5)"><g transform="translate(16.318 14.695)"><path d="M384.629,84.741v16.884h7.707V84.741Zm3.854,4.752A1.413,1.413,0,1,1,389.9,88.08,1.413,1.413,0,0,1,388.483,89.493Z" transform="translate(-384.629 -84.741)" fill="#dfdfdf"/></g><g transform="translate(13.153 32.035)"><path d="M421.174,159.357a11.546,11.546,0,0,0-1.66-3.221l-14.179-20.561h-13.57l-14.179,20.561a11.468,11.468,0,0,0,9.238,18.268h23.453a11.469,11.469,0,0,0,10.9-15.047Zm-22.394,7.152a10.266,10.266,0,1,1,10.266-10.266A10.266,10.266,0,0,1,398.78,166.509Z" transform="translate(-375.353 -135.575)" fill="#15376c"/></g><g transform="translate(24.998 0.512)"><path d="M433.241,43.163,429.668,55.74l-.54,2.386h-10.9a5.5,5.5,0,0,1-4.574-2.38l0-.006-3.576-12.577Z" transform="translate(-410.076 -43.163)" fill="#15376c"/></g><g transform="translate(15.806 14.183)"><path d="M391.348,101.149h-7.708a.512.512,0,0,1-.512-.512V83.753a.512.512,0,0,1,.512-.512h7.708a.512.512,0,0,1,.512.512v16.884A.512.512,0,0,1,391.348,101.149Zm-7.2-1.023h6.684V84.264h-6.684Z" transform="translate(-383.129 -83.241)"/></g><g transform="translate(18.247 16.109)"><path d="M392.209,92.736a1.925,1.925,0,1,1,1.924-1.925A1.927,1.927,0,0,1,392.209,92.736Zm0-2.826a.9.9,0,1,0,.9.9A.9.9,0,0,0,392.209,89.91Z" transform="translate(-390.284 -88.887)"/></g><g transform="translate(23.513 12.579)"><path d="M427.88,98.506H410.465a.508.508,0,0,1-.237-.058L406,96.234a.511.511,0,0,1-.274-.453V82.692a.513.513,0,0,1,.192-.4l4.549-3.643a.512.512,0,0,1,.758.135,4.946,4.946,0,0,0,4.142,2.137h14.2a2.3,2.3,0,0,1,1.89,1.012h0a2.259,2.259,0,0,1,.4,1.279v.826A2.316,2.316,0,0,1,430.724,86c.026.027.052.054.076.082a2.317,2.317,0,0,1,.574,1.514v.924a2.292,2.292,0,0,1-1.192,2.01,2.284,2.284,0,0,1,.6,1.547V93a2.293,2.293,0,0,1-1.392,2.107,1.781,1.781,0,0,1,.273.95v.662A1.791,1.791,0,0,1,427.88,98.506Zm-17.289-1.023H427.88a.766.766,0,0,0,.765-.765v-.662a.766.766,0,0,0-.765-.765.512.512,0,1,1,0-1.023h.616A1.269,1.269,0,0,0,429.763,93v-.923a1.274,1.274,0,0,0-1.2-1.268.512.512,0,0,1,.03-1.022h.491a1.267,1.267,0,0,0,1.267-1.267V87.6a1.269,1.269,0,0,0-1.055-1.247.512.512,0,0,1-.414-.6.542.542,0,0,1,.508-.444h.168a1.284,1.284,0,0,0,1.266-1.268v-.826a1.24,1.24,0,0,0-.221-.7h0a1.274,1.274,0,0,0-1.045-.566h-14.2a6.006,6.006,0,0,1-4.675-2.165l-3.942,3.157V95.471Z" transform="translate(-405.722 -78.538)"/></g><g transform="translate(44.074 19.347)"><rect width="3.107" height="1.023" transform="translate(0 0)"/></g><g transform="translate(43.157 23.827)"><rect width="3.229" height="1.023" transform="translate(0 0)"/></g><g transform="translate(42.239 28.306)"><rect width="3.431" height="1.023" transform="translate(0)"/></g><g transform="translate(0 10.341)"><path d="M353.124,93.728c-1.867,0-3.7-.007-5.519-.013-3.654-.013-7.105-.025-10.692.013L336.9,92.7c3.594-.039,7.049-.026,10.707-.013,1.65.006,3.313.012,5,.013V76.737l-15.819-3.762.236-1,16.213,3.856a.512.512,0,0,1,.393.5V93.217A.512.512,0,0,1,353.124,93.728Z" transform="translate(-336.793 -71.979)"/></g><g transform="translate(30.525 31.523)"><rect width="11.65" height="1.023" transform="translate(0 0)"/></g><g transform="translate(24.486 0)"><path d="M428.14,57.65h-10.9a6.029,6.029,0,0,1-5.006-2.616c-.008-.012-.015-.024-.021-.037a.587.587,0,0,1-.043-.1L408.6,42.315a.511.511,0,0,1,.492-.652h23.165a.512.512,0,0,1,.493.652l-3.573,12.577-.534,2.359A.512.512,0,0,1,428.14,57.65Zm-15-3.111a4.982,4.982,0,0,0,4.106,2.088h10.489l.45-1.987,3.394-11.953h-21.81Z" transform="translate(-408.577 -41.663)"/></g><g transform="translate(12.642 31.523)"><path d="M409.288,173.927H385.835a11.981,11.981,0,0,1-9.65-19.082l14.17-20.548a.511.511,0,0,1,.421-.221h13.57a.51.51,0,0,1,.421.221l14.179,20.561a11.98,11.98,0,0,1-9.659,19.07ZM391.045,135.1l-14.027,20.34a11.06,11.06,0,0,0-2.142,6.51A10.955,10.955,0,0,0,385.835,172.9h23.453a10.957,10.957,0,0,0,8.825-17.453L404.078,135.1Z" transform="translate(-373.853 -134.075)"/></g><g transform="translate(26.853 42.975)"><path d="M425.242,187.1c-.3,0-.611-.014-.914-.042l.094-1.02c.272.026.547.038.819.038h.145l.02,1.023Zm1.24-.078-.13-1.015a8.682,8.682,0,0,0,.95-.175l.241.995A9.867,9.867,0,0,1,426.482,187.025Zm-3.221-.124a9.581,9.581,0,0,1-1.045-.278l.319-.973a8.617,8.617,0,0,0,.933.248Zm5.316-.384-.351-.961a8.773,8.773,0,0,0,.888-.381l.456.916A9.7,9.7,0,0,1,428.577,186.517Zm-7.366-.286a9.668,9.668,0,0,1-.956-.5l.526-.878a8.665,8.665,0,0,0,.855.449Zm9.3-.675-.555-.86a8.935,8.935,0,0,0,.782-.568l.645.794A9.934,9.934,0,0,1,430.507,185.556Zm-11.147-.432a9.853,9.853,0,0,1-.822-.7l.705-.742a8.7,8.7,0,0,0,.736.626Zm12.817-.928-.73-.717a8.913,8.913,0,0,0,.639-.726l.8.633A9.829,9.829,0,0,1,432.178,184.2Zm-14.379-.557a9.724,9.724,0,0,1-.648-.863l.851-.568a8.633,8.633,0,0,0,.58.772Zm15.712-1.137-.869-.54a8.689,8.689,0,0,0,.463-.847l.924.44A9.751,9.751,0,0,1,433.511,182.5Zm-16.91-.655a9.808,9.808,0,0,1-.443-.984l.955-.367a8.727,8.727,0,0,0,.4.881Zm17.836-1.291-.967-.336a8.483,8.483,0,0,0,.264-.929l1,.224A9.586,9.586,0,0,1,434.437,180.557Zm-18.609-.721a9.682,9.682,0,0,1-.214-1.058l1.012-.146a8.849,8.849,0,0,0,.191.947Zm19.083-1.383-1.017-.113a8.824,8.824,0,0,0,.053-.964q0-.3-.02-.588l1.021-.068q.021.325.022.656A9.922,9.922,0,0,1,434.911,178.452Zm-19.392-.75q-.005-.163-.005-.327c0-.251.01-.5.028-.751l1.021.078c-.017.221-.026.448-.026.673,0,.1,0,.2,0,.294Zm18.29-1.874a8.568,8.568,0,0,0-.223-.939l.981-.292a9.5,9.5,0,0,1,.25,1.051Zm-17.12-.083-1.005-.191a9.709,9.709,0,0,1,.26-1.048l.978.3A8.564,8.564,0,0,0,416.69,175.745Zm16.57-1.764a8.7,8.7,0,0,0-.426-.866l.892-.5a9.673,9.673,0,0,1,.476.969Zm-16-.078-.938-.409a9.774,9.774,0,0,1,.486-.964l.887.51A8.926,8.926,0,0,0,417.257,173.9Zm15.058-1.6a8.809,8.809,0,0,0-.606-.752l.76-.685a9.826,9.826,0,0,1,.676.84Zm-14.1-.069-.825-.606a9.865,9.865,0,0,1,.686-.833l.753.693A8.746,8.746,0,0,0,418.219,172.231Zm12.8-1.363a8.879,8.879,0,0,0-.756-.6l.592-.835a9.912,9.912,0,0,1,.844.671Zm-11.5-.057-.672-.772a9.7,9.7,0,0,1,.851-.663l.582.842A8.694,8.694,0,0,0,419.525,170.811Zm9.924-1.057a8.583,8.583,0,0,0-.87-.42l.393-.945a9.792,9.792,0,0,1,.972.469Zm-8.339-.042-.487-.9a9.757,9.757,0,0,1,.976-.459l.384.948A8.938,8.938,0,0,0,421.11,169.712Zm6.558-.7a8.8,8.8,0,0,0-.941-.216l.173-1.009a9.613,9.613,0,0,1,1.052.242Zm-4.771-.023-.275-.986a9.691,9.691,0,0,1,1.055-.231l.163,1.01A8.652,8.652,0,0,0,422.9,168.99Zm2.87-.3a8.933,8.933,0,0,0-.967,0l-.05-1.022a10.048,10.048,0,0,1,1.078.005Z" transform="translate(-415.514 -167.648)"/></g><g transform="translate(31.419 48.456)"><path d="M439.223,187.323c0,.08-.008.126-.024.138a.36.36,0,0,1-.156.018h-1.36q-.277,1.131-.535,2.25t-.535,2.25a.456.456,0,0,1-.067.193.444.444,0,0,1-.2.024h-.385a.447.447,0,0,1-.2-.024.454.454,0,0,1-.066-.193l-1.023-4.5h-1.251q-.277,1.131-.529,2.244t-.517,2.244a.524.524,0,0,1-.067.2c-.02.02-.086.03-.2.03h-.361a.4.4,0,0,1-.2-.03.433.433,0,0,1-.072-.2l-1.035-4.488h-1.372a.313.313,0,0,1-.15-.018.31.31,0,0,1-.018-.15v-.169a.313.313,0,0,1,.018-.15.322.322,0,0,1,.15-.018h1.251q-.169-.722-.337-1.474t-.337-1.486q-.06-.228-.03-.265c.02-.024.1-.036.247-.036h.229a.479.479,0,0,1,.229.03.548.548,0,0,1,.084.222l.674,3.008h1.781q.168-.746.343-1.5t.367-1.516a.523.523,0,0,1,.084-.21.44.44,0,0,1,.217-.03h.421a.439.439,0,0,1,.217.03.469.469,0,0,1,.072.21l.686,3.02h1.793q.169-.758.355-1.522t.355-1.522a.19.19,0,0,1,.265-.217h.289c.12,0,.188.01.2.03s.012.086-.012.2l-.734,3.032h1.263a.371.371,0,0,1,.156.018c.016.012.024.062.024.15Zm-6.437.157h-1.612q.2.879.4,1.7t.4,1.7Zm1.781-.505q-.132-.566-.253-1.071t-.253-1.083q-.12.518-.252,1.077t-.253,1.077Zm2.382.505H435.36q.2.879.4,1.7l.4,1.7Z" transform="translate(-428.899 -183.713)" stroke="#000" stroke-miterlimit="10" stroke-width="0.2"/></g></g></g></svg>