<svg xmlns="http://www.w3.org/2000/svg" width="72" height="73.01" viewBox="0 0 72 73.01"><g transform="translate(-881.627 -282.5)"><g transform="translate(881.627 282.5)"><g transform="translate(60.601 35.072)"><rect width="21.665" height="3.933" transform="matrix(0.288, -0.958, 0.958, 0.288, 0.694, 21.436)" fill="none"/><rect width="21.665" height="3.933" transform="matrix(0.288, -0.958, 0.958, 0.288, 0.694, 21.436)" fill="#15376c"/><path d="M1053.3,128.911l-4.829-1.454,6.571-21.807,4.829,1.454Zm-3.446-2.2,2.7.814,5.93-19.681-2.7-.814Z" transform="translate(-1048.474 -105.651)"/></g><path d="M925.056,34.961l-1.922-4.7a12.433,12.433,0,0,0-15.8,0l-1.864,4.55h-.59l-12.036-6.233,22.212-10.536,22.325,10.534ZM904.769,33.45l1.585-3.869.092-.086a13.574,13.574,0,0,1,17.572,0l.092.086,1.54,3.764Z" transform="translate(-890.168 -18.045)" fill="#15376c"/><g transform="translate(0 0)"><g transform="translate(0 33.898)"><path d="M925.324,146.563h-1.15v-22.57h1.392l3.947,7.176a7.918,7.918,0,0,0,6.929,4.118h14.246a4.993,4.993,0,0,0,3.784-1.742,5.075,5.075,0,0,0-3.784-8.39h-6.04a9.032,9.032,0,0,1-8.071-4.973l-2.055-4.032a13.686,13.686,0,0,0-12.229-7.535H904.719a17.739,17.739,0,0,0-17.628,17.808v20.142h-1.15V126.422a18.9,18.9,0,0,1,18.779-18.97h17.574a14.829,14.829,0,0,1,13.251,8.166l2.055,4.032a7.887,7.887,0,0,0,7.048,4.343h6.04a6.24,6.24,0,0,1,4.652,10.314,6.137,6.137,0,0,1-4.652,2.141H936.442a9.068,9.068,0,0,1-7.934-4.716l-3.183-5.787Z" transform="translate(-885.94 -107.452)"/></g><g transform="translate(13.342 17.932)"><path d="M942.442,65.552l-9.71,2.3-9.843-2.329a11.243,11.243,0,1,0,19.553.032Z" transform="translate(-921.21 -65.298)" fill="#fff"/><path d="M932.343,82.186a11.432,11.432,0,0,1-9.929-17.112l.072-.126,9.94,2.351,9.806-2.32.071.127a11.445,11.445,0,0,1-9.958,17.08Zm-9.664-16.794A11.049,11.049,0,0,0,932.343,81.8h0a11.058,11.058,0,0,0,9.693-16.375L932.426,67.7Z" transform="translate(-920.903 -64.948)" fill="#fff"/></g><g transform="translate(21.237 34.835)"><path d="M946.465,114.093l2.138-5.14h-7.212l2.177,5.14Z" transform="translate(-941.391 -108.952)" fill="#dfdfdf"/></g><g transform="translate(20.049 39.621)"><path d="M947.71,139.949l-4.6,6.469-4.8-6.534,3.369-17.656h2.9S946.726,133.866,947.71,139.949Z" transform="translate(-938.311 -122.228)" fill="#dfdfdf"/></g><g transform="translate(12.957 11.956)"><path d="M931.731,73.029a11.829,11.829,0,0,1,0-23.658h0a11.829,11.829,0,0,1,0,23.658Zm0-22.5h0a10.667,10.667,0,1,0,0,21.334h0a10.667,10.667,0,1,0,0-21.334Z" transform="translate(-919.903 -49.371)"/></g><g transform="translate(38.81 34.861)"><path d="M987.159,108.952" transform="translate(-987.159 -108.952)" fill="none" stroke="#000" stroke-miterlimit="10" stroke-width="3"/></g><g transform="translate(38.81 34.861)"><path d="M987.159,108.952" transform="translate(-987.159 -108.952)" fill="none" stroke="#000" stroke-miterlimit="10" stroke-width="3"/></g><g transform="translate(20.363 34.254)"><path d="M945.466,113.755H941.8l-2.669-6.3h8.96Zm-2.9-1.162h2.125l1.655-3.979H940.88Z" transform="translate(-939.126 -107.452)"/></g><g transform="translate(19.434 39.04)"><path d="M942.14,146.491l-5.425-7.386,3.507-18.377h3.865l.088.476c.021.116,2.157,11.714,3.131,17.733l.038.235Zm-4.189-7.666,4.174,5.682,4-5.62c-.873-5.357-2.595-14.78-3-17h-1.936Z" transform="translate(-936.715 -120.728)"/></g><g transform="translate(10.183 52.733)"><path d="M0,0H1.162V20.277H0Z" transform="translate(0 0)"/></g><g transform="translate(3.401 10.559)"><rect width="1.162" height="6.574"/></g><g transform="translate(13.121 8.223)"><path d="M941.72,43.845a13,13,0,0,0-16.774,0L922.384,50.1l10.949,2.59,10.948-2.59Z" transform="translate(-921.589 -40.196)" fill="#15376c"/><path d="M932.075,52.366l-.134-.031-11.61-2.747,2.867-7,.092-.086a13.573,13.573,0,0,1,17.569,0l.092.086,2.868,7Zm-10.153-3.6,10.153,2.4,10.153-2.4-2.252-5.5a12.434,12.434,0,0,0-15.8,0Z" transform="translate(-920.331 -39.276)"/></g><g transform="translate(2.673)"><path d="M925.056,34.961l-1.922-4.7a12.433,12.433,0,0,0-15.8,0l-1.864,4.55h-.59l-12.036-6.233,22.212-10.536,22.325,10.534Zm-29.6-6.335,9.313,4.823,1.585-3.869.092-.086a13.574,13.574,0,0,1,17.572,0l.092.086,1.54,3.764,9.108-4.717-19.7-9.3Z" transform="translate(-892.841 -18.045)"/></g><g transform="translate(2.318 16.953)"><rect width="3.379" height="4.128" rx="1.689" fill="#15376c"/></g><g transform="translate(1.659 20.982)"><path d="M893.373,72.845h-1.6a35.681,35.681,0,0,0-1.547,9.875h4.7A35.681,35.681,0,0,0,893.373,72.845Z" transform="translate(-890.222 -72.845)" fill="#15376c"/></g><g transform="translate(1.737 16.375)"><path d="M893.075,66.069h-.76a1.892,1.892,0,0,1-1.891-1.89v-1.51a1.893,1.893,0,0,1,1.891-1.89h.76a1.892,1.892,0,0,1,1.89,1.89v1.51A1.892,1.892,0,0,1,893.075,66.069Zm-.76-4.128a.73.73,0,0,0-.729.728v1.51a.73.73,0,0,0,.729.728h.76a.729.729,0,0,0,.728-.728v-1.51a.729.729,0,0,0-.728-.728Z" transform="translate(-890.424 -60.779)"/></g><g transform="translate(1.078 20.404)"><path d="M894.581,82.383h-5.859V81.8A35.9,35.9,0,0,1,890.3,71.745l.131-.4h2.446l.131.4A35.9,35.9,0,0,1,894.581,81.8Zm-4.691-1.162h3.523a35.936,35.936,0,0,0-1.389-8.713h-.744A35.927,35.927,0,0,0,889.89,81.221Z" transform="translate(-888.722 -71.346)"/></g></g></g></g></svg>