<svg xmlns="http://www.w3.org/2000/svg" width="31.014" height="49.433" viewBox="0 0 31.014 49.433"><g transform="translate(-182.732 -273.531)"><path d="M193.985,299.894a2.89,2.89,0,0,0,1.088-2.263v-.445a.171.171,0,0,0-.011-.04c0-.014-.006-.031-.011-.046l-2.007-5.74h4.1v12.527H193.17a.6.6,0,1,0,0,1.206h9.153a.6.6,0,1,0,0-1.206H198.35V291.36h4.1l-1.742,4.95-.275.785a.233.233,0,0,1-.012.045.2.2,0,0,1-.01.03c0,.011,0,.009,0,.013v.447a2.9,2.9,0,1,0,5.792,0q0-.036,0-.071V297.2a.589.589,0,0,0-.015-.063.05.05,0,0,0-.009-.034l-2.287-6.541a.019.019,0,0,0-.008-.015c-.006,0-.01-.023-.014-.033s-.013-.025-.019-.038-.013-.025-.022-.037l-.017-.026-.009-.014-.016-.018-.029-.033-.02-.019a.214.214,0,0,0-.033-.029l-.026-.022-.018-.014-.015-.009-.037-.022-.038-.019-.033-.014-.016-.006-.037-.011-.025-.007-.038-.006h-5.054v-.716a.6.6,0,0,0-1.207,0v.709h-5.083l-.038.008h-.023l-.036.01-.016.008-.036.014-.035.018-.038.021-.017.01-.016.013a.224.224,0,0,0-.025.021l-.036.029-.019.022a.4.4,0,0,0-.028.032v.005l-.011.012-.01.015-.017.026-.022.037c-.006.013-.014.025-.019.038l-.014.033a.02.02,0,0,1-.009.016l-2.288,6.539a.053.053,0,0,1-.01.037.569.569,0,0,0-.015.062.412.412,0,0,0-.005.064v.373a2.884,2.884,0,0,0,4.689,2.279Zm10.959-1.926q-.015.066-.036.133a1.631,1.631,0,0,1-.057.164c-.018.042-.037.083-.056.124s-.056.1-.087.149-.049.073-.076.109-.076.09-.117.132-.059.064-.092.093a1.741,1.741,0,0,1-.139.11c-.033.026-.068.052-.1.074a1.743,1.743,0,0,1-.165.087.884.884,0,0,1-.106.053h0a1.658,1.658,0,0,1-.2.061c-.033.008-.065.021-.1.027a1.769,1.769,0,0,1-.32.032,1.787,1.787,0,0,1-.284-.026h-.033a1.739,1.739,0,0,1-.254-.071l-.041-.015a1.554,1.554,0,0,1-.233-.117l-.039-.023a1.766,1.766,0,0,1-.207-.149l-.026-.024a1.574,1.574,0,0,1-.188-.192,1.739,1.739,0,0,1-.152-.22l-.016-.027a1.636,1.636,0,0,1-.108-.233l-.012-.051a1.667,1.667,0,0,1-.065-.253V297.9h3.322A.175.175,0,0,1,204.944,297.968Zm-.221-1.277h-2.874l1.438-4.107Zm-12.547-4.107,1.437,4.107H190.74Zm-.423,6.679a1.843,1.843,0,0,1-.2-.06c-.038-.015-.073-.036-.109-.053a1.821,1.821,0,0,1-.164-.085c-.036-.024-.07-.051-.1-.076s-.093-.071-.137-.11-.063-.062-.093-.094a1.654,1.654,0,0,1-.117-.129,1.023,1.023,0,0,1-.077-.115,1.7,1.7,0,0,1-.086-.148c-.02-.041-.04-.082-.057-.124s-.041-.108-.058-.163-.024-.088-.033-.133a.326.326,0,0,0-.011-.071h3.323v.019a1.546,1.546,0,0,1-.064.252l-.015.042a1.673,1.673,0,0,1-.108.232l-.016.027a1.649,1.649,0,0,1-.153.221,1.748,1.748,0,0,1-.187.192l-.023.029a1.891,1.891,0,0,1-.207.149l-.039.023a1.864,1.864,0,0,1-.232.117l-.042.015a1.729,1.729,0,0,1-.254.071h-.032a1.63,1.63,0,0,1-.605,0C191.819,299.283,191.786,299.27,191.753,299.262Z" transform="translate(0.498 1.189)" fill="#ffa400" stroke="#ffa400" stroke-width="0.5"/><path d="M209.023,286.422a15.155,15.155,0,0,0-10.783-4.465h-.008a15.276,15.276,0,0,0-15.251,15.251v.065c0,.146,0,.292.008.432,0,.053,0,.1.006.156L183,298c0,.066.005.135.011.2.006.084.015.19.024.286l.017.207c.008.072.016.146.025.219l.032.274c.011.084.024.164.036.246l.037.243c.013.073.026.147.04.221l.03.165c.006.035.012.069.018.1.014.068.028.136.044.206l.059.275c.026.109.055.228.085.342l.035.133c.028.107.059.215.1.342l.037.128c.036.115.071.23.109.345l.039.12c.039.118.081.233.129.365.012.033.024.066.035.092.043.117.09.233.136.347l.041.109c.049.117.1.232.148.348l.042.1c.053.117.107.232.161.347l.044.093c.057.115.114.231.175.345l.045.087c.06.117.122.23.186.344l.046.083c.065.113.131.227.2.339l.049.08c.069.113.139.224.21.336l.049.074c.072.111.145.22.218.326l.05.072c.073.11.151.22.233.329l.053.071c.08.107.161.211.244.317l.054.067c.082.1.167.208.255.311l.055.067c.086.1.175.2.264.3l.059.064c.09.1.18.2.272.293l.062.064c.093.1.187.192.283.286l.065.063c.095.092.191.182.289.274l.069.061c.1.09.2.177.3.262l.076.065c.1.085.2.168.3.25l.082.066.307.24.084.061c.1.079.208.154.314.228l.509.348c.1.063.2.125.292.183v3.5a.7.7,0,0,0-.6.729.7.7,0,0,0,.6.646v1.357a.694.694,0,0,0,0,1.375v.53a.392.392,0,0,0,.011.1.325.325,0,0,0,.027.112l.017.051c.011.022.022.044.041.077l.021.038a.907.907,0,0,0,.083.1l1.223,1.22a.879.879,0,0,0,.115.09l.056.029.033.017a.669.669,0,0,0,.27.056h1.833a2.512,2.512,0,0,0,2.415,1.821h3.64a2.513,2.513,0,0,0,2.415-1.821h1.833a.7.7,0,0,0,.3-.071c.022-.011.041-.021.084-.046a.967.967,0,0,0,.1-.084l1.213-1.212a.948.948,0,0,0,.083-.1l.036-.064c.009-.016.019-.036.027-.053a.312.312,0,0,0,.02-.064c.006-.022.014-.043.021-.07a.855.855,0,0,0,.013-.136v-1.126a.7.7,0,0,0,.607-.713.686.686,0,0,0-.605-.668v-1.352a.684.684,0,0,0,.423-.207.691.691,0,0,0,.194-.494.68.68,0,0,0-.213-.489.692.692,0,0,0-.4-.191v-2.894c.088-.054.177-.11.266-.168l.141-.091c.094-.062.186-.124.278-.189l.129-.091c.094-.066.188-.135.279-.2l.5-.391c.094-.074.187-.151.278-.231l.1-.084c.093-.08.183-.161.273-.243l.093-.084c.091-.084.18-.167.269-.254l.084-.083c.09-.087.177-.177.264-.267l.07-.073a3.776,3.776,0,0,0,.288-.283l.074-.083c.084-.095.167-.19.249-.286l.07-.082c.082-.1.162-.2.242-.3l.065-.081c.079-.1.156-.2.233-.305l.064-.085c.071-.1.145-.2.222-.31l.332-.491c.069-.107.137-.217.2-.326l.054-.09c.065-.108.129-.218.191-.326l.053-.094c.061-.11.122-.221.181-.334l.049-.095c.053-.1.1-.2.17-.338l.047-.1c.054-.111.11-.229.159-.341.012-.029.025-.057.045-.108.05-.111.1-.228.146-.343l.044-.108c.046-.11.091-.229.135-.346l.041-.114c.041-.11.082-.228.12-.341l.04-.125c.037-.109.074-.227.11-.342l.037-.13c.033-.109.066-.227.1-.341l.035-.138c.028-.109.058-.224.084-.339l.032-.145c.025-.11.049-.219.07-.327l.036-.194c.018-.1.038-.2.053-.292.01-.058.017-.112.026-.173l.01-.066c.014-.085.026-.167.037-.249.006-.041.011-.082.015-.123l.012-.106c.011-.089.022-.178.03-.267l.019-.227c.008-.09.016-.178.022-.268.005-.065.008-.123.01-.18l.016-.324c0-.078,0-.154,0-.231l0-.265A15.157,15.157,0,0,0,209.023,286.422Zm-8.758,34.241a1.069,1.069,0,0,1-.212.022h-3.639a1.068,1.068,0,0,1-.207-.021l-.04-.009a1.113,1.113,0,0,1-.182-.056l-.036-.009a1.165,1.165,0,0,1-.172-.1,1.308,1.308,0,0,1-.165-.137c-.028-.031-.055-.063-.081-.1h5.4c-.015.019-.03.038-.046.056l-.054.053a1.23,1.23,0,0,1-.155.126,1.083,1.083,0,0,1-.2.1,1.007,1.007,0,0,1-.183.057ZM191.413,309.3a.825.825,0,0,0-.1-.072A13.866,13.866,0,1,1,212.1,297.21a13.915,13.915,0,0,1-6.944,12.015.909.909,0,0,0-.11.083.564.564,0,0,0-.066.07l-.027.031c-.011.015-.019.029-.032.05l-.039.072-.023.058-.013.07a.545.545,0,0,0-.012.071l-.023.119.016.623H191.651v-.728a.172.172,0,0,0-.01-.057l-.015-.069a.733.733,0,0,0-.05-.121l-.069-.1A.743.743,0,0,0,191.413,309.3Zm.03.24Zm13.378,7.74v.785l-.8.8H192.452l-.8-.8v-.278Zm-13.171-.888v-1.34l5.329-.205,7.844-.3v1.341Zm13.169-4.524v1.289l-13.173.5v-1.794Zm-14.4,6.666Zm.062.127Z" transform="translate(0 0.645)" fill="#ffa400" stroke="#ffa400" stroke-width="0.5"/><path d="M197.121,279.075a.738.738,0,0,0,.738-.738v-4.216a.738.738,0,1,0-1.475,0v4.216A.738.738,0,0,0,197.121,279.075Z" transform="translate(1.164 0.397)" fill="#ffa400" stroke="#ffa400" stroke-width="0.5"/><path d="M207.392,282.27a.736.736,0,0,0,.6-.314l2.42-3.453a.738.738,0,0,0-1.209-.847l-2.419,3.453a.736.736,0,0,0,.6,1.16Z" transform="translate(0.994 0.331)" fill="#ffa400" stroke="#ffa400" stroke-width="0.5"/><path d="M186.915,281.957a.737.737,0,1,0,1.208-.847l-2.42-3.453a.737.737,0,1,0-1.208.847Z" transform="translate(1.363 0.331)" fill="#ffa400" stroke="#ffa400" stroke-width="0.5"/></g></svg>