<svg xmlns="http://www.w3.org/2000/svg" width="88.476" height="23.698" viewBox="0 0 88.476 23.698"><path d="M-25.738-19.924a1.39,1.39,0,0,1,.357.272.7.7,0,0,1,.051.544.905.905,0,0,0,.1.408q.068.17.119.323a.407.407,0,0,1,.017.255.688.688,0,0,1-.17.578l.1.238a2.112,2.112,0,0,0-.034.408v.646l.136.272-.2,1.836a3.705,3.705,0,0,0-.068.782,1.406,1.406,0,0,1-.17.748l.034.272a.642.642,0,0,1-.034.2l-.068.2q-.068.816-.1,1.734t-.1,1.734a3.064,3.064,0,0,1-.153.425q-.085.187-.153.357a1.339,1.339,0,0,0-.2.544l-.2.578-.068.34-.068.34L-27-5.61a1.706,1.706,0,0,1-.357.9,1.7,1.7,0,0,1-1.037.7,1.381,1.381,0,0,1-.663-.1,1.231,1.231,0,0,1-.323-.374l-.1-.136-.068-.442-.068-.2-.068-.408q-.238-.238-.068-.425t.272-.289l-.034-.51v-.51l-.034-.17-.034-.238.2-.374q.034-.476.068-.884t.068-.884a.411.411,0,0,1,.051-.238,1.277,1.277,0,0,1,.119-.136.884.884,0,0,1-.136-.612q-.714.17-1.428.408t-1.19.408a1.067,1.067,0,0,1-.425.255,1.4,1.4,0,0,1-.425.085q-.748,0-.969-.289a.931.931,0,0,1-.221-.561q0-.408.17-.459t.374-.119a.278.278,0,0,0,.17-.1,1.511,1.511,0,0,1,.187-.153.48.48,0,0,0,.153-.153q.2-.068.646-.221t1.02-.34q.578-.187,1.224-.374t1.258-.357l.034-.034a.551.551,0,0,1,.1-.34,1.1,1.1,0,0,0,0-.544q-.034-.238-.051-.459a.865.865,0,0,1,.051-.391q.068-.51.119-.867a6.284,6.284,0,0,1,.119-.629q.068-.34.1-.646t.068-.68q0-.068.017-.289t.017-.289q.034-.136.068-.255t.1-.289v-.289a.644.644,0,0,1,.034-.255.877.877,0,0,1,.391-.493,1.388,1.388,0,0,1,.595-.255q.17-.136.391-.323t.527.119Zm-7.514,12.58a.729.729,0,0,0-.187.034,1.122,1.122,0,0,0-.187.068l-.136-.068q-.476.136-.935.238t-1,.272l-.306.136h-.34l-.68.442a3.3,3.3,0,0,0-.714.238l-.748.34-3.026,1.19a.955.955,0,0,1-.187-.017.942.942,0,0,1-.221-.085l-.34.034a1.547,1.547,0,0,1-.408.017.544.544,0,0,1-.408-.255l-.136-.2a.353.353,0,0,1-.034-.272,1.372,1.372,0,0,1,.425-.51q.357-.306.731-.578.986-.374,2.074-.748l2.176-.748a.788.788,0,0,0-.017-.153.232.232,0,0,1,.017-.153l-.034-.17v-.238l.034-.136v-.306a2.566,2.566,0,0,1-.034-.476,6.137,6.137,0,0,1,.1-.918l.1-.646.034-.374.034-.272a3.954,3.954,0,0,1,.017-.459.625.625,0,0,1,.051-.187.817.817,0,0,0,.034-.255.817.817,0,0,1,.034-.255l.034-.1.136-.714a1.9,1.9,0,0,1,.255-.578.849.849,0,0,1,.8-.374.78.78,0,0,1,.561.255,1.16,1.16,0,0,1,.323.629,2.1,2.1,0,0,1,.1.323,1.25,1.25,0,0,0,.1.289.468.468,0,0,1,.051.272,1.8,1.8,0,0,0-.017.2l-.1.85q-.034.17-.051.34a.477.477,0,0,0,.017.238.642.642,0,0,0-.034.2.788.788,0,0,1-.017.153.788.788,0,0,0-.017.153l-.068.408-.1.408-.068.408a2.5,2.5,0,0,1-.2.578q-.136.272-.2.442l-.034.034q.646-.2,1.224-.357t1.122-.289a1.459,1.459,0,0,1,.374-.068,1.618,1.618,0,0,1,.442.1,1.049,1.049,0,0,1,.289.374.788.788,0,0,1-.017.272.784.784,0,0,0-.068.272v.17l-.306.374Zm-2.176-10.4a2.366,2.366,0,0,1,1.088-.068.657.657,0,0,1,.408.306,1.026,1.026,0,0,1,.051.969,1.291,1.291,0,0,1-.595.561,1.489,1.489,0,0,1-.493.136,1.532,1.532,0,0,1-.459,0,.283.283,0,0,0-.272.068.326.326,0,0,1-.238.1q-.374.034-1,.153a5.485,5.485,0,0,0-.969.255,1.365,1.365,0,0,1-.561.238,3.985,3.985,0,0,1-.527.034l-1.088.544-1.7.34-.612.2-.306.1a3.025,3.025,0,0,0-.578.068,2.96,2.96,0,0,1-.527.017.755.755,0,0,1-.425-.255q-.374-.578-.085-.9a3.037,3.037,0,0,1,.765-.595q1.224-.408,2.278-.731t2.023-.612q.969-.289,1.9-.51T-35.428-17.748ZM-30.4-1.054l.884-.17.34.034.374-.1,1.122-.255.527-.119.238-.051a2.824,2.824,0,0,0,.289-.085q.578.136.595.425a1.851,1.851,0,0,1-.051.561l-.034.306-.408.2q-.476.17-1.343.391t-1.615.357l-.816.272a2.339,2.339,0,0,1-.612.119q-.306.017-.578.051t-.51.068a2.448,2.448,0,0,0-.51.136,1.221,1.221,0,0,1-.765-.646,2.563,2.563,0,0,1-.119-.782,2.3,2.3,0,0,0,.051-.272,2.294,2.294,0,0,1,.051-.272,5.665,5.665,0,0,1,.153-.561,2.009,2.009,0,0,0,.085-.629l.1-.408.17-.34.136-.374a1.534,1.534,0,0,1,.238-.323,4.151,4.151,0,0,1,.391-.374q.221-.187.425-.34a.96.96,0,0,1,.374-.187,1.187,1.187,0,0,1,.527.408,1.245,1.245,0,0,1,.187.544,6.353,6.353,0,0,1,.085.68,2.361,2.361,0,0,1-.017.782l.034.646Zm-11.22-6.154a.953.953,0,0,1-.289-.391.8.8,0,0,1-.051-.425v-.068a.139.139,0,0,1-.034-.1v-.2l.034-.136V-8.84a2.181,2.181,0,0,1-.051-.34,2.367,2.367,0,0,1,.051-.578,1.261,1.261,0,0,0,.051-.255,2.188,2.188,0,0,1,.051-.289l.068-.306a1.113,1.113,0,0,1-.068-.272l.136-.238q.034-.17.051-.34a.754.754,0,0,1,.051-.238,2.294,2.294,0,0,0,.051-.272q.017-.136.051-.306l.034-.238.068-.17v-.238a2.061,2.061,0,0,1,.221-.561.693.693,0,0,1,.731-.323h.034a1.307,1.307,0,0,1,.51.323.707.707,0,0,1,.272.493l.085.255a1.854,1.854,0,0,0,.085.221.817.817,0,0,1,.068.476q-.034.17-.068.391a2.584,2.584,0,0,1-.1.425,1.191,1.191,0,0,0-.068.374v.238l-.2.952-.1.374q-.068.238-.153.561a4.417,4.417,0,0,1-.255.7.816.816,0,0,1-.17.255,1.75,1.75,0,0,1-.34.289,2.4,2.4,0,0,1-.408.221A.555.555,0,0,1-41.616-7.208Zm12.648-8.6q0,.034-.034.255a4.532,4.532,0,0,1-.1.476q-.068.255-.153.493a.927.927,0,0,1-.187.34.31.31,0,0,1-.221.17,1.217,1.217,0,0,1-.255.034q-.34,0-.442-.153a1.49,1.49,0,0,1-.17-.357,4.032,4.032,0,0,1-.442.1,1.8,1.8,0,0,0-.374.1q-.782.272-1.564.612a1.232,1.232,0,0,1-.578.119q-.272-.017-.544-.6a1.6,1.6,0,0,1-.119-.544.489.489,0,0,1,.323-.476l.374-.2q.68-.34,1.462-.646a15.952,15.952,0,0,1,1.666-.544.548.548,0,0,1,.34.068,3.521,3.521,0,0,1,.459.238,2.69,2.69,0,0,1,.391.289Q-28.968-15.878-28.968-15.81ZM-5.338-3.128A4.906,4.906,0,0,1-5.78-2.074a2.156,2.156,0,0,1-.612.714,1.442,1.442,0,0,1-.9.782,3.053,3.053,0,0,1-1.275.136V-1.5A9,9,0,0,1-8.551-2.72a5.794,5.794,0,0,1,.323-1.462.505.505,0,0,1-.034-.323A2.865,2.865,0,0,0-8.228-5a.416.416,0,0,1,.1-.306,1.086,1.086,0,0,0,.068-.255,2.008,2.008,0,0,0,0-.527,9.688,9.688,0,0,1,.034-1.428q.068-.646.17-1.292a4.588,4.588,0,0,0,.1-.544q.034-.272.068-.51v-.272q0-.34,0-.731a2.774,2.774,0,0,1,.068-.663,2.445,2.445,0,0,1,.2-.884,1.243,1.243,0,0,0,.085-.323,1.774,1.774,0,0,1,.085-.357.917.917,0,0,1-.017-.459q.051-.187.085-.357a.424.424,0,0,0,.034-.187q0-.119,0-.187.136-1.088.272-2.091a11.214,11.214,0,0,1,.34-1.683.938.938,0,0,0,.034-.187q0-.051,0-.323l.34-.238a1.764,1.764,0,0,1,.051-.391,1.807,1.807,0,0,1,.391-.629,1.646,1.646,0,0,1,.323-.153q.153-.051.459-.119a1.1,1.1,0,0,1,.272.085.647.647,0,0,1,.17.119.277.277,0,0,0,.2.068,3.206,3.206,0,0,1,.374.7q.136.357.238.731l.1.272a.484.484,0,0,1-.085.289.431.431,0,0,0-.085.255l.034.1a1.52,1.52,0,0,1,.034.357,1.12,1.12,0,0,1-.136.493,1.2,1.2,0,0,1,.119.714,5.174,5.174,0,0,1-.187.816q-.068.238-.1.408l-.068.34a1.805,1.805,0,0,1-.017.255,1.805,1.805,0,0,0-.017.255q-.034.238-.051.459t-.017.493q-.068.476-.085.7a3.306,3.306,0,0,1-.051.391,1.118,1.118,0,0,0-.034.272v.306q0,.272-.017.612a1.967,1.967,0,0,1-.187.714.872.872,0,0,0-.085.306q-.017.17-.051.442a3.054,3.054,0,0,0-.034.493,3.223,3.223,0,0,1-.068.629.741.741,0,0,1-.119.289A.748.748,0,0,0-5-7.48a1.32,1.32,0,0,1,.068.17,1.319,1.319,0,0,0,.068.17,2.755,2.755,0,0,1-.034.952q-.1.544-.17,1.156-.068.34-.1.612t-.068.612l-.17.476Zm-10.3-8.908.306.034a.684.684,0,0,0,.187-.017.377.377,0,0,1,.119-.017,2.929,2.929,0,0,1,.476-.034h.442a1.628,1.628,0,0,1,1.241.391,1.952,1.952,0,0,1,.425,1.173,2,2,0,0,1-.323,1.088,11.99,11.99,0,0,0-.595,1.054l-.884,1.428-.1.068v.17l-.714,1.156a.647.647,0,0,0-.119.17,1.9,1.9,0,0,1-.119.2q.408-.068.765-.119A6.01,6.01,0,0,0-13.8-5.44q.34-.068.68-.17t.646-.17q.136-.068.391-.187t.629-.323h.1a1.111,1.111,0,0,0,.119-.068.362.362,0,0,1,.187-.034.924.924,0,0,1,.255.034.755.755,0,0,1,.289.2v.306a.993.993,0,0,1-.187.527,1.478,1.478,0,0,1-.459.459,1.582,1.582,0,0,1-.408.272q-.34.17-1.156.476l-.34.085a.664.664,0,0,0-.136.051l-.374.136a1.6,1.6,0,0,1-.357.119q-.119.017-.289.051l-.782.1a5.7,5.7,0,0,1-.867.068h-1.173a.682.682,0,0,1-.476-.187,1.048,1.048,0,0,1-.2-.765.911.911,0,0,1-.034-.408q.034-.136.1-.34l.17-.51a12.225,12.225,0,0,1,.7-1.258q.425-.68.969-1.462l.136-.034.034-.136q.238-.374.493-.782t.527-.782l.1-.136q-.408.034-1.054.034t-1.394.068l-.51.034a.817.817,0,0,1-.255.034h-.323A1.911,1.911,0,0,1-18.5-10.2a3.5,3.5,0,0,1-.68-.272.591.591,0,0,1-.119-.187q-.051-.119-.085-.187l-.068-.2a1.077,1.077,0,0,1,.051-.391,1.262,1.262,0,0,1,.153-.255q.068-.17.2-.476l.272-.612.51-1.258.272-.646.068-.17.34-.816q.068-.17-.017-.2a.418.418,0,0,0-.153-.034q-.646.068-1.224.136t-1.292.2a.9.9,0,0,1-.51-.1.783.783,0,0,1-.425-.2.653.653,0,0,1-.153-.306.675.675,0,0,1,.255-.6,1.35,1.35,0,0,1,.663-.323.139.139,0,0,0,.1-.034.625.625,0,0,1,.187-.051.626.626,0,0,0,.187-.051,3.428,3.428,0,0,1,.51-.119q.306-.051.578-.085.476-.068,1.071-.1t1.1-.034a.559.559,0,0,1,.136.017.559.559,0,0,0,.136.017.378.378,0,0,0,.17.034,1.194,1.194,0,0,1,.646.17.557.557,0,0,1,.068.085.557.557,0,0,0,.068.085.266.266,0,0,0,.068.051q.034.017.136.085a.885.885,0,0,1,.136.238q.034.1.068.238a.445.445,0,0,1,.2.442,2.994,2.994,0,0,1-.2,1.054,9.564,9.564,0,0,1-.408,1.02q-.068.136-.119.255t-.119.289q-.17.374-.306.7t-.34.765Zm36.652-7.548.34.2q.17.1.1.578a.753.753,0,0,0,.034.238l.136.408a.726.726,0,0,1,.034.374.778.778,0,0,1-.136.306.416.416,0,0,1,.1.306,1,1,0,0,0-.068.374,1.727,1.727,0,0,1-.017.272q-.017.1-.051.272a3.217,3.217,0,0,1-.1.952l.136.136q-.034.374-.051.782t-.051.68q-.034.272-.051.544a4.726,4.726,0,0,1-.051.476,2.929,2.929,0,0,1-.034.476q-.034.17-.051.34a.389.389,0,0,1-.085.238l.034.272a1.054,1.054,0,0,0-.068.2q-.034.1-.068.221a.924.924,0,0,0-.034.255q-.068.782-.136,1.8T20.74-6.868a1.394,1.394,0,0,1-.17.544,1.011,1.011,0,0,0-.136.51q-.068.51-.136.918a4.38,4.38,0,0,1-.238.85l-.136.1a4.03,4.03,0,0,1-.272.918,1.4,1.4,0,0,1-.34.51.966.966,0,0,1-.51.17q-.34.034-.408.034a.814.814,0,0,1-.544-.34l-.306-.714q-.068-.17-.085-.221a.88.88,0,0,1-.017-.221,2.623,2.623,0,0,0-.017-.289.409.409,0,0,1,.153-.323,1.219,1.219,0,0,0,.034-.425v-1a3.187,3.187,0,0,1,.017-.374,1.8,1.8,0,0,0,.017-.2,2.73,2.73,0,0,0,.306-1.156,10.4,10.4,0,0,0,0-1.19q-.1-.238-.034-.323a.575.575,0,0,1,.238-.153,2.222,2.222,0,0,1-.068-.289,1.544,1.544,0,0,1,0-.459.8.8,0,0,1,.1-.306.941.941,0,0,0,.1-.374q-.136-.068-.136-.306-.782.17-1.5.357t-1.292.391a1.322,1.322,0,0,1-.646.306v.561q0,.323-.034.663l-.272.476.068.136a.4.4,0,0,0,.068.1,14.1,14.1,0,0,1-.119,1.632q-.119.986-.289,1.938l.034.374-.1.1.068.136a6.315,6.315,0,0,1-.527.969,3.62,3.62,0,0,1-.6.731,1.442,1.442,0,0,1-.9.782,3.422,3.422,0,0,1-1.377.136v-.952q0-.51.017-1.054a8.6,8.6,0,0,1,.357-1.768,1.758,1.758,0,0,1-.017-.425,2.229,2.229,0,0,1,.051-.357,5.246,5.246,0,0,1,.034-.578l.068-.612a9.476,9.476,0,0,1-.017-1.5q.051-.714.153-1.36.034-.2.068-.425t.068-.459V-11.9a2.929,2.929,0,0,1,.034-.476q.034-.1.085-.289t.119-.391a2.905,2.905,0,0,0,.119-.374,3.954,3.954,0,0,0,.085-.51,2.549,2.549,0,0,1,.017-.884,5.882,5.882,0,0,1,.153-.612q.1-1.02.221-2.057a8.082,8.082,0,0,1,.357-1.717l.1-.476.272-.306a.726.726,0,0,1,.034-.374,2.433,2.433,0,0,1,.34-.578l.238-.238a1.673,1.673,0,0,1,.238-.255.978.978,0,0,1,.408-.187.719.719,0,0,1,.408.221,2.485,2.485,0,0,0,.17.255l.136.2a2.988,2.988,0,0,1,.238.442l.136.34a1.5,1.5,0,0,0,.17.612l.2.408a.4.4,0,0,1-.068.255l-.2.255a1.8,1.8,0,0,1,.1.374.821.821,0,0,1-.136.51,1.038,1.038,0,0,1,.153.7l-.119.833a1.767,1.767,0,0,0-.085.425q-.017.221-.051.459a6.61,6.61,0,0,0-.1.782q-.034.442-.068.782-.034.578-.068.85t-.068.442l-.034.136v.2q.578-.2,1.479-.442a19.763,19.763,0,0,1,1.989-.408v-.306a3.758,3.758,0,0,0,.085-.561,3,3,0,0,1,.085-.527q.1-.578.17-1.173t.1-1.581a2.257,2.257,0,0,1,.2-.884l.068-.272V-18.7a1.03,1.03,0,0,1,.272-.357q.2-.187.408-.357l.1-.1a1.554,1.554,0,0,1,.408-.289q.238-.119.442.153ZM3.128-8.466a8,8,0,0,1,.391-2.023,4.9,4.9,0,0,1,.7-1.445,1.887,1.887,0,0,1,.629-.51,6.58,6.58,0,0,1,.816-.357,3.88,3.88,0,0,1,.833-.2,5.661,5.661,0,0,1,.68-.051.721.721,0,0,1,.408.272,2.387,2.387,0,0,1,.357.578,4.323,4.323,0,0,1,.255.765,5.54,5.54,0,0,1,.136.833,11.131,11.131,0,0,1-.017,1.394A5.236,5.236,0,0,1,8.058-7.99,9.585,9.585,0,0,1,7.48-6.681a1.141,1.141,0,0,1-.918.629,1.95,1.95,0,0,1-.238-.017,1.95,1.95,0,0,0-.238-.017,1.812,1.812,0,0,0-.408-.034,3.393,3.393,0,0,0-.408.068A1.118,1.118,0,0,1,5-6.018H4.76a1.1,1.1,0,0,1-.7-.255A2.029,2.029,0,0,1,3.536-6.9a3.8,3.8,0,0,1-.323-.8A2.085,2.085,0,0,1,3.128-8.466Zm4.794-6.29a6.877,6.877,0,0,0-.952.136q-.476.1-1.156.306l-.272.2-.34.034a1.336,1.336,0,0,1-.238.187.908.908,0,0,1-.306.119,2.183,2.183,0,0,0-.391.034,3.775,3.775,0,0,0-.527.153q-.34.119-.884.323t-1.428.51a.667.667,0,0,1-.2-.017.484.484,0,0,1-.1-.085,1.079,1.079,0,0,0-.306.068.835.835,0,0,1-.306.068A.513.513,0,0,1,.2-12.852a1.991,1.991,0,0,1-.272-.238.435.435,0,0,1-.1-.442,1.1,1.1,0,0,1,.408-.527,2.912,2.912,0,0,1,.782-.493q1.768-.646,3.553-1.156t3.417-.816a1.422,1.422,0,0,1,.374-.017q.17.017.374.051a1.362,1.362,0,0,1,.272.561,2.207,2.207,0,0,1-.034.357q-.068.2-.153.425a1.235,1.235,0,0,1-.357.459ZM4.352-22a1.273,1.273,0,0,1,0,.425,1.122,1.122,0,0,1-.068.187.882.882,0,0,1,.306.442,5.034,5.034,0,0,1,.034.714v.884q0,.51-.034.918a3.66,3.66,0,0,1-.136.748,1.774,1.774,0,0,0-.085.357,3.664,3.664,0,0,0-.017.391,1.911,1.911,0,0,1-.068.442.912.912,0,0,1-.306.476,2.2,2.2,0,0,1-1.054-.255,1.338,1.338,0,0,1-.544-1.173.33.33,0,0,1-.136-.2,1,1,0,0,1-.034-.238,1.264,1.264,0,0,0-.034-.306.607.607,0,0,1-.051-.153.234.234,0,0,0-.051-.119,2.42,2.42,0,0,1-.119-.442,5.081,5.081,0,0,1-.051-.85,5.255,5.255,0,0,1,.17-1.309,3.381,3.381,0,0,1,.544-1.173,1.663,1.663,0,0,1,.34-.255,1,1,0,0,1,.51-.119.8.8,0,0,1,.595.221A1.263,1.263,0,0,1,4.352-22Zm2.04,10.846a1.058,1.058,0,0,0-.714.306,1.881,1.881,0,0,0-.51.782,1.569,1.569,0,0,1,.2.442q0,.1,0,.255a.527.527,0,0,1-.034.221.784.784,0,0,0-.034.374.9.9,0,0,0,.17.408.729.729,0,0,0,.476.34,4.807,4.807,0,0,0,.221-.544q.119-.34.238-.731a6.818,6.818,0,0,0,.187-.765,3.831,3.831,0,0,0,.068-.68Q6.664-11.152,6.392-11.152Zm35.87,7.684a4.906,4.906,0,0,1-.442,1.054,2.156,2.156,0,0,1-.612.714,1.442,1.442,0,0,1-.9.782,3.053,3.053,0,0,1-1.275.136V-1.836a9,9,0,0,1,.017-1.224,5.794,5.794,0,0,1,.323-1.462.506.506,0,0,1-.034-.323,2.865,2.865,0,0,0,.034-.493.416.416,0,0,1,.1-.306,1.086,1.086,0,0,0,.068-.255,2.008,2.008,0,0,0,0-.527,9.689,9.689,0,0,1,.034-1.428q.068-.646.17-1.292a4.587,4.587,0,0,0,.1-.544q.034-.272.068-.51v-1a2.774,2.774,0,0,1,.068-.663,2.445,2.445,0,0,1,.2-.884.6.6,0,0,0,.068-.272q-.578.17-1.156.323t-1.1.306q-.527.153-.952.272a5.587,5.587,0,0,0-.663.221,1.142,1.142,0,0,1-.425.2,1.71,1.71,0,0,1-.425.068q-.748-.034-.952-.323a1.252,1.252,0,0,1-.238-.561q.034-.408.2-.459a3.049,3.049,0,0,1,.374-.085q.068,0,.2-.136a.888.888,0,0,1,.187-.136.369.369,0,0,0,.153-.136q.17-.068.7-.221t1.241-.34q.714-.187,1.53-.391t1.53-.374q.136-1.02.272-1.989a10.164,10.164,0,0,1,.34-1.615.937.937,0,0,0,.034-.187V-18.9l.34-.238a1.764,1.764,0,0,1,.051-.391,1.807,1.807,0,0,1,.391-.629,1.646,1.646,0,0,1,.323-.153q.153-.051.459-.119a1.1,1.1,0,0,1,.272.085.647.647,0,0,1,.17.119.277.277,0,0,0,.2.068,3.206,3.206,0,0,1,.374.7q.136.357.238.731l.1.272a.484.484,0,0,1-.085.289.431.431,0,0,0-.085.255l.034.1a1.52,1.52,0,0,1,.034.357,1.12,1.12,0,0,1-.136.493,1.2,1.2,0,0,1,.119.714,5.174,5.174,0,0,1-.187.816q-.068.238-.1.408l-.068.34a1.805,1.805,0,0,1-.017.255,1.8,1.8,0,0,0-.017.255q-.034.238-.051.459t-.017.493q-.068.476-.085.7a3.307,3.307,0,0,1-.051.391,1.117,1.117,0,0,0-.034.272v.306q0,.272-.017.612a1.967,1.967,0,0,1-.187.714.872.872,0,0,0-.085.306q-.017.17-.051.442a3.055,3.055,0,0,0-.034.493,3.222,3.222,0,0,1-.068.629.741.741,0,0,1-.119.289.748.748,0,0,0-.119.255,1.32,1.32,0,0,1,.068.17,1.319,1.319,0,0,0,.068.17,2.755,2.755,0,0,1-.034.952q-.1.544-.17,1.156-.068.34-.1.612t-.068.612l-.17.476ZM25.7-6.018a2.219,2.219,0,0,1,.238-.646.34.34,0,0,1,0-.408.151.151,0,0,1,.017-.068.667.667,0,0,0,.017-.2l.034-.068a.735.735,0,0,0,.17-.374v-.306a1.086,1.086,0,0,0,.068-.255,2.855,2.855,0,0,1,.1-.391q.238-.68.595-1.768t.731-2.006a1.618,1.618,0,0,1-.1-.442l.306-.476a1.676,1.676,0,0,0,.153-.34,4.637,4.637,0,0,1,.221-.51q.068-.17.17-.459t.2-.6l.306-.578.034-.136a4,4,0,0,1,.255-.9q.187-.459.867-.425a2.5,2.5,0,0,1,.595.221q.391.187.323.187a.9.9,0,0,1,.17.425.87.87,0,0,0,.068.323v.476a2.356,2.356,0,0,1-.1.68,6.581,6.581,0,0,0-.17.714v.408q-.068.17-.221.629l-.34,1.02-.374,1.122q-.187.561-.323.935l-.17.51a2.9,2.9,0,0,0-.119.374l-.119.476a.57.57,0,0,0-.119.2,2.832,2.832,0,0,1-.119.272,2.916,2.916,0,0,0-.153.408,2.917,2.917,0,0,1-.153.408l-.136.068a4.415,4.415,0,0,1-.374.408.7.7,0,0,0-.051.221,1.261,1.261,0,0,1-.051.255q-.034.17-.068.289a1.269,1.269,0,0,1-.136.289,2.376,2.376,0,0,1-.272.306l-.1.1a.1.1,0,0,1-.068.034q-.068.17-.136.357t-.136.221A.7.7,0,0,1,27.013-5a1.054,1.054,0,0,0-.255.034,1.118,1.118,0,0,1-.272.034.88.88,0,0,1-.221-.017.28.28,0,0,0-.085-.017.753.753,0,0,1-.238.034H25.7Zm10.472-.2a.815.815,0,0,1-.255.306.738.738,0,0,1-.357.068,1.853,1.853,0,0,1-.374-.085,1.818,1.818,0,0,1-.374-.221.936.936,0,0,0-.391-.238q-.221-.068-.459-.136a.842.842,0,0,0-.255-.085.582.582,0,0,1-.289-.187L32.334-7.854l-.34-.2-.1-.136a2.739,2.739,0,0,1-.34-.323q-.2-.221-.34-.391l-.17-.068q-.136-.374-.187-.51a.651.651,0,0,1-.051-.2.559.559,0,0,1,.017-.136.46.46,0,0,0-.051-.238.718.718,0,0,1,.2-.612,1.37,1.37,0,0,1,.408-.136,2.669,2.669,0,0,1,.578-.068.653.653,0,0,0,.221.085,1.6,1.6,0,0,1,.255.085.892.892,0,0,1,.153.1.892.892,0,0,0,.153.1.933.933,0,0,0,.119.051,1.57,1.57,0,0,1,.221.119,8.414,8.414,0,0,1,.7.493,5.256,5.256,0,0,0,.493.357l.17.238a.82.82,0,0,1,.442.34l.17.17a.533.533,0,0,1,.1.136l.034.034.238.238a4.847,4.847,0,0,1,.442.544,1.887,1.887,0,0,0,.119.255.79.79,0,0,0,.119.153,1.987,1.987,0,0,0,.1.663A.53.53,0,0,1,36.176-6.222Z" transform="translate(44.445 22.61)"/></svg>