<svg xmlns="http://www.w3.org/2000/svg" width="322.176" height="33.887" viewBox="0 0 322.176 33.887"><defs><style>.a{opacity:0.23;}.b{fill:#15376c;}</style></defs><g transform="translate(-799 -185.591)"><g class="a" transform="translate(588.195 -168.879)"><path class="b" d="M214.495,412.651a24.009,24.009,0,0,0,4.33-.2A20.085,20.085,0,0,0,214.495,412.651Z" transform="translate(-1.734 -24.341)"/><path class="b" d="M222.7,412.482l.024-.006-.057,0Z" transform="translate(-5.574 -24.374)"/><path class="b" d="M815.266,384.346l-1.338-.1C814.375,384.291,814.83,384.332,815.266,384.346Z" transform="translate(-283.458 -6.909)"/><path class="b" d="M295.234,383.461l.22-.316c3.832-.174,1.144.3,4.681.068,1.354-.484,5.892-.179,7.1-.455-.025.036,1.711-.018,1.611.121a13.766,13.766,0,0,1,2.873-.223c.392-.08-.3-.059-.6-.118l2.5-.167c.986.044,1.237.174.172.233l8.826-.2,13.554-.265,13.655-.213c4.054-.055,7.351-.113,9.119-.168-.914-.163-3.1-.011-3.933-.277,1.867-.184,2.756.013,3.577-.163.728.4,4.116.051,5.542.455l.532-.24.933.134a89.819,89.819,0,0,1,9.178-.149c4.224-.063,6.229-.4,8.581-.3-.349,0-1.283-.138-.189-.2.188.2,2.914-.161,3.449.047,1.072-.029,4.548-.012,3.37-.29.591.139,3.692.188,1.847.315,1.046.006,2.06.044,2.812-.02L393.308,381c3.532-.053,5.459.169,7.76-.086l-1.306-.113a19.759,19.759,0,0,1,4.71.242l-2.169.085c3.5,0,5.625-.031,8.531-.164l-1.037-.013c1.851-.129,7.621-.238,13.363-.294s11.454-.084,13.172-.214l-1.566-.252,2.95-.116c-.348-.011-1.45.67-1.738.593,3.149.048,12.92.258,22.63.577s19.358.743,22.26.951c2.336.23.392.362.362.4,2.863.054,1.253-.171,3.679-.038.659.07-.153.163-.528.176a13.558,13.558,0,0,0,2.137.049c-1.323-.141-.735-.382-1.283-.582l3.122.174-.155.162a25.764,25.764,0,0,1,4.871-.129c5.17.336,10.8.582,16,.916a11.256,11.256,0,0,1-2.293.094c.7.044,1.763.078,2.4.186-1.237-.25,2.2,0,1.223-.127,3.857-.191,8.746.475,12.142.405.331-.358,7.977-5.922,8.038-6.361,1.048.074,2.089.148,2.405.205a20.305,20.305,0,0,0-3.415-.311l-.218.224c-2.53-.077-.573-.178-3.035-.318-.108-.2,2.161-.1,4.157.008a24.478,24.478,0,0,0-4.321-.225c-1.678-.185.216-.225-1.807-.433a47.431,47.431,0,0,1-5.029-.174l.033-.032c-4.023-.439-6.223-.074-9.9-.481l.405-.042c-1.3-.185-3.885-.179-6.231-.43.669.077,1.239.249-.182.193-2.7-.266-4.563-.242-6.53-.5l-1.923.091c-4.721-.261-16.42-.785-28.141-1.175s-23.463-.651-28.226-.746l.375-.022c-7.258-.134-18.342-.316-29.508-.3-11.107.029-22.276.107-29.759.291-2.317-.172-5.509-.109-7.925-.145,1.344.069.886.2-.162.2-7.36.055-.5.134-7.936.292-2.141.06-5.8.128-10.2.2l-14.653.231-24.144.436c-4.07.391-9.184.4-13.174.721l.4-.081c-2.147.12-9.3.406-16.55.707l-10.315.485c-3.048.163-5.5.315-6.746.411H269c-4.33.427-3.772.088-7.211.2.487.279-3.215.7-4.632.816l.045-.071c-2.134.2-6.953.76-10.475,1.076l.115-.179c-2.92.4-8.469.724-10.582.9-4.843.328-12.356.6-18.773,1.418l-4.256-.112-.6.1a8.262,8.262,0,0,0-1.757,3.246c-.33,1.655.436,3.365,4.777,3.61l-.106.179,1.671-.169c2.023-.094,2.919-.37,2.811-.191l-2.756.222c2.027-.129.632.084-.121.247.845-.058,1.666-.11,2.346-.117.387-.1-.3-.044-.624-.053a34.933,34.933,0,0,1,3.9-.484c2.07-.165.176.257,2.591.07,12.747-.926,25.115-1.635,38-2.49.3.053-.048.069-.417.125,3.877-.3,7.333-.478,10.863-.761a7.061,7.061,0,0,1,1.568.159c-.3-.056,4.585-.346,9.584-.62,2.5-.144,5.03-.253,6.955-.338S295.153,383.456,295.234,383.461Z" transform="translate(0 0)"/></g><path d="M-136.34-1.972a1.186,1.186,0,0,1-.663.7,2.06,2.06,0,0,1-.935.153q0-.884-.017-1.632a4.688,4.688,0,0,1,.289-1.632.3.3,0,0,0,.136-.034q.1-.068.034-.2-.136,0-.119-.255t.017-.459a1.273,1.273,0,0,1,.136-.357,1.5,1.5,0,0,0,.034-.765,7.609,7.609,0,0,1,.1-1.921q.17-.9.272-1.785v-.816a4.569,4.569,0,0,1,.068-.816,1.9,1.9,0,0,1,.119-.663,5.972,5.972,0,0,0,.221-.8q-.884.34-1.836.7t-1.734.7a.935.935,0,0,1-.357.238.786.786,0,0,1-.459.1,1.71,1.71,0,0,1-.935.017q-.255-.119-.221-.221-.068-.238.17-.238a.556.556,0,0,0,.408-.17.369.369,0,0,0,.136-.153.622.622,0,0,1,.272-.221,18.923,18.923,0,0,1,1.751-.748q1.309-.51,2.907-1.054a.559.559,0,0,1,.017-.136.559.559,0,0,0,.017-.136q.136-1.054.272-2.04a11.246,11.246,0,0,1,.34-1.666,1.493,1.493,0,0,0,.034-.221v-.221l.34-.238a1.24,1.24,0,0,0,.017-.357.955.955,0,0,1,.289-.561l.238-.119a1.135,1.135,0,0,1,.306-.085.959.959,0,0,1,.323.17.34.34,0,0,0,.187.1,1.535,1.535,0,0,1,.238.493q.1.323.2.7l.1.238a.467.467,0,0,1-.1.238.332.332,0,0,0-.068.238,1.044,1.044,0,0,0,.068.357q.068.187-.2.561a.959.959,0,0,1,.136,1,8.159,8.159,0,0,0-.306,1.309q-.034.374-.068.714t-.034.714q-.068.714-.119.952a2.118,2.118,0,0,0-.051.442,2.492,2.492,0,0,0,0,.595,1.593,1.593,0,0,1-.136.8,1.332,1.332,0,0,0-.17.714,9.576,9.576,0,0,1-.136,1.326,1.11,1.11,0,0,1-.119.323,1.109,1.109,0,0,0-.119.323l.136.306a6.985,6.985,0,0,1-.119,1.5q-.153.918-.255,1.836l-.1.34-.068.136.068.1a4.878,4.878,0,0,1-.425.986A1.713,1.713,0,0,1-136.34-1.972Zm-9.112-14.246A.346.346,0,0,1-145.3-16q.017.119.051.289a7.627,7.627,0,0,1,0,1.02l-.34.238a.528.528,0,0,0,.136.221q.068.051-.034.323l-.2.374a.377.377,0,0,1-.017.119.28.28,0,0,0-.017.085v.068q-.17.578-.34,1.122.034.136-.085.1t-.051.1a.222.222,0,0,0-.1.1.6.6,0,0,0-.068.272,2.316,2.316,0,0,0-.119.493,1.83,1.83,0,0,1-.119.459.231.231,0,0,1-.068.17.1.1,0,0,1-.068.034v.306a.452.452,0,0,1-.1.272l-.306.272q.034.136-.017.153t-.017.153a.918.918,0,0,1-.119.374q-.119.238-.391.85l-.306.816a5.3,5.3,0,0,1-.306.714l-.272.544a4.987,4.987,0,0,0-.2.476.4.4,0,0,1-.238.2.161.161,0,0,0-.136.17,1.319,1.319,0,0,1-.068.17.3.3,0,0,1-.17.2,1.315,1.315,0,0,1-.578.1l-.272-.34a1.014,1.014,0,0,1-.153-.289.162.162,0,0,1,.085-.221h.238l-.034-.408.272-.442-.034-.306.34-.476.816-2.04a.079.079,0,0,1,.051-.085.155.155,0,0,0,.085-.085q.034-.068,0-.1t0-.1q.238-.68.493-1.36a12.52,12.52,0,0,0,.425-1.36q.034-.136.153-.476t.238-.782q.119-.442.238-.935t.221-.969q-.17.034-.408.1l-.476.136q-.238.068-.442.136l-.306.1a.582.582,0,0,0-.34.17.385.385,0,0,1-.136.136,3.2,3.2,0,0,1-.51.17,3.469,3.469,0,0,0-.748.306,1.118,1.118,0,0,1-.272.034.269.269,0,0,1-.17-.034.488.488,0,0,1-.153-.612.9.9,0,0,1,.459-.476.166.166,0,0,1,.119-.034.211.211,0,0,0,.153-.068,5.267,5.267,0,0,1,.731-.272,3.131,3.131,0,0,0,.663-.272l.408-.17q.476-.17.935-.306a6.286,6.286,0,0,1,1.139-.2.5.5,0,0,1,.459.085A1.321,1.321,0,0,1-145.452-16.218ZM-141.3-5.576a1.993,1.993,0,0,0-.408-.153.678.678,0,0,1-.374-.289l-.306-.2-.136-.068-.136-.068a1.889,1.889,0,0,0-.306-.153.9.9,0,0,1-.374-.323q-.272-.306-.527-.646t-.425-.544a.132.132,0,0,0-.085-.136,1.042,1.042,0,0,1-.187-.1l-.034-.17a.947.947,0,0,1-.374-.408,4.879,4.879,0,0,0-.34-.51l-.136-.068q-.17-.374-.1-.493a.663.663,0,0,0,.034-.391v-.2q0-.068.238-.238.068-.1.153-.051t.017-.051h.442a.3.3,0,0,0,.17.085.855.855,0,0,1,.272.119l.272.306a.787.787,0,0,1,.17.1.783.783,0,0,0,.2.1,3.388,3.388,0,0,0,.442.493,4.348,4.348,0,0,1,.408.425.973.973,0,0,0,.2.289.458.458,0,0,0,.306.187q.1.034.136.221a.681.681,0,0,0,.2.357q0,.068.153.187a.762.762,0,0,1,.221.255h-.1q-.068,0-.068.1a.139.139,0,0,0,.1.034.135.135,0,0,1,.085.017.069.069,0,0,0,.051.017.665.665,0,0,1,.051.136.664.664,0,0,0,.051.136q.068.17.153.34A.6.6,0,0,0-141-6.7a.474.474,0,0,1,0,.255.5.5,0,0,0-.034.187q0,.034.068.034h.1a.391.391,0,0,1-.119.2q-.119.136-.187.2a.351.351,0,0,0-.068.136Q-141.236-5.644-141.3-5.576Zm28.356-16.218a.715.715,0,0,0,.374.306q.17.034.1.374a2.48,2.48,0,0,0,.17.476.715.715,0,0,1,.068.51q0,.2-.119.255a.143.143,0,0,0-.085.187.1.1,0,0,0,.068.034l.068.068a.981.981,0,0,0-.068.493,1.32,1.32,0,0,1-.068.561l.1.51-.136.85q-.034.374-.051.527t-.034.238a.969.969,0,0,1-.051.17,1.644,1.644,0,0,0-.068.323,2.95,2.95,0,0,1,.034.408q0,.374-.17.442-.136.136-.068.119t.034.289a.559.559,0,0,0-.034.17.069.069,0,0,1-.017.051.069.069,0,0,0-.017.051v.068L-113.186-12a2.124,2.124,0,0,1-.272.663,2.339,2.339,0,0,0-.272.561,6.738,6.738,0,0,0-.17.765,2.075,2.075,0,0,1-.17.561.908.908,0,0,0-.238.17q-.238.2-.2.34a.454.454,0,0,1-.136.442,2.038,2.038,0,0,1-.408.374l-.544.238q-.374,0-.442-.085t-.238-.289l-.034-.238a.48.48,0,0,0-.1-.323.34.34,0,0,1-.1-.187q.068-.306-.017-.289t.085-.119q.1,0,.153-.2a2.617,2.617,0,0,0,.068-.459q.017-.255.017-.51v-.391a.26.26,0,0,0,.017-.153l-.051-.153.17-.306.136-.85a.328.328,0,0,1,.136-.17q.1-.068.1-.136a.415.415,0,0,0-.119-.272q-.119-.136-.017-.476a.2.2,0,0,1,.085-.187.79.79,0,0,0,.153-.119q-.884.2-1.9.527t-1.836.629a.6.6,0,0,1-.289.187,1.056,1.056,0,0,1-.357.085.978.978,0,0,1-.7-.17.512.512,0,0,1-.153-.34q0-.272.187-.238a.345.345,0,0,0,.323-.1.369.369,0,0,0,.136-.153.468.468,0,0,1,.2-.187q.374-.17,1.462-.544t2.38-.68a.91.91,0,0,1,.34-.068h.34a1.065,1.065,0,0,0,.2-.272.121.121,0,0,1-.017-.1q.017-.034.119-.2a1.02,1.02,0,0,0,.034-.595,1.8,1.8,0,0,1,0-.7q.1-.51.187-.85t.17-.629a5.047,5.047,0,0,0,.136-.6q.051-.306.085-.816v-.238h.136a.269.269,0,0,0-.034-.17l-.034-.034a.585.585,0,0,1,.051-.306,1.082,1.082,0,0,0,.119-.272v-.442q.034-.136.136-.136a.261.261,0,0,1,.1.034q0-.136.187-.221a1.649,1.649,0,0,1,.357-.119,1.038,1.038,0,0,0,.255-.187Q-113.05-21.9-112.948-21.794Zm-13.668,7.31.85-.136.952-.17.51-.1q.238-.034.34-.051a2.022,2.022,0,0,1,.306-.017,1.657,1.657,0,0,1,.442.391q.17.221-.068.629-.034.1-.085.238t-.119.306l-.2.612-.34.612-.782,1.36-.2.136-.034.238-.68,1.122-.408.816a.947.947,0,0,0,.391-.017q.255-.051.459-.085l.578-.085a4.888,4.888,0,0,0,.68-.153q.476-.1.7-.153t.391-.085l.748-.2a.5.5,0,0,1,.306-.1l.306.068v.2a1.254,1.254,0,0,1-.136.221,1.136,1.136,0,0,1-.2.187.67.67,0,0,1-.238.17.427.427,0,0,0-.17.1,1.37,1.37,0,0,1-.221.119,2.856,2.856,0,0,1-.391.119l-.2.1-.238.068a.84.84,0,0,1-.272.085.84.84,0,0,0-.272.085l-.306.1-.578.034a.968.968,0,0,0-.323.085.829.829,0,0,1-.255.085l-1.224.2h-.51l-.374-.136a1.227,1.227,0,0,1-.238-.153q-.1-.085-.1-.459a.169.169,0,0,0-.034-.17.225.225,0,0,1-.034-.2q.068-.17.119-.289t.119-.289a8.2,8.2,0,0,0,.867-1.343,11.719,11.719,0,0,1,.833-1.377l.2-.136.1-.272q.238-.374.459-.714t.493-.714l.068-.17a2.69,2.69,0,0,0-.561.136,1.6,1.6,0,0,1-.527.1,1.984,1.984,0,0,0-.561.085q-.289.085-.493.153l-.68.17a2.817,2.817,0,0,0-.357.17.956.956,0,0,1-.425.136.707.707,0,0,1-.272-.034l-.272-.136.034-.1a1.447,1.447,0,0,1-.136-.2l-.068-.136a.332.332,0,0,1,.068-.238,1.114,1.114,0,0,0,.136-.17l.51-.612.1-.2.238-.408.714-1.02.34-.68.1-.1.034-.2.374-.748.136-.306q-.68.2-1.224.425t-1.19.493q-.17.068-.221.034A.278.278,0,0,0-129-17.2q-.374-.034-.34-.238a.52.52,0,0,1,.1-.272.831.831,0,0,1,.374-.306l.2-.136a5.347,5.347,0,0,1,.51-.255q.272-.119.68-.289a8.276,8.276,0,0,1,1.02-.357l1.02-.289.17.068a.362.362,0,0,1,.187.034.824.824,0,0,1,.119.1q.068.068.119.051t.255.085a.489.489,0,0,1,.136.408q0,.1.051.085t.051.153a1.211,1.211,0,0,1-.051.425q-.051.119-.187.391l-.34.442a3.949,3.949,0,0,0-.374.612,2.117,2.117,0,0,1-.272.442q-.272.34-.442.578a3.1,3.1,0,0,0-.306.544ZM-111.622-.918q.544-.1.544.17a.888.888,0,0,1-.1.578,1.214,1.214,0,0,1-.34.34q-.2.2-.442-.034-.136-.136-.17.017t-.1.153a2,2,0,0,0-.476-.017,1.044,1.044,0,0,0-.476.119q-.17.17-.255.119a.286.286,0,0,0-.221-.017,4.482,4.482,0,0,1-.493.153q-.323.085-.7.187t-.731.2q-.357.1-.561.17a1.144,1.144,0,0,0-.255.136.573.573,0,0,1-.323.1,3.583,3.583,0,0,0-.408.017.14.14,0,0,1-.17-.119.607.607,0,0,1,.068-.51.718.718,0,0,1,.34-.238q.476-.17.969-.34t1-.34l.442-1.5a2.074,2.074,0,0,0,.17-.51,3.528,3.528,0,0,0,.136-.442.908.908,0,0,1,.119-.306.565.565,0,0,0,.085-.306,1.99,1.99,0,0,1,.187-.8,3.771,3.771,0,0,0,.255-.765l.068-.408.068-.136a1.354,1.354,0,0,1,.085-.391,5.666,5.666,0,0,0,.153-.561l-2.618.884a.491.491,0,0,0-.306.187.286.286,0,0,1-.272.119,1.433,1.433,0,0,1-.238-.034.153.153,0,0,1-.136-.2q-.068-.306.34-.612a1.855,1.855,0,0,1,.153-.136,1.855,1.855,0,0,0,.153-.136l.816-.323q.476-.187,1-.374t1.071-.357q.544-.17,1.02-.272l.153-.051q.051-.017.119.051a.211.211,0,0,0,.153.068q.085,0,.085.034a.109.109,0,0,0,.068.1.4.4,0,0,1,.1.068.484.484,0,0,0,.1.085q.034.017.034.153a.417.417,0,0,0-.017.306.423.423,0,0,1,.017.272l-.1.646-.646,2.278q-.17.544-.476,1.309t-.612,1.581q.442-.136.816-.221T-111.622-.918Zm-8.364,2.006a3.541,3.541,0,0,1-.187-.357.721.721,0,0,1,.085-.561q-.2.034-.136-.085a.256.256,0,0,0,0-.255.232.232,0,0,0,.017-.153.788.788,0,0,1-.017-.153.559.559,0,0,1-.034-.17,4.537,4.537,0,0,1,.051-.544q.051-.374.119-.85t.136-.969a6.917,6.917,0,0,1,.17-.867q.034-.034-.068-.306l.17-.306a1.245,1.245,0,0,1,.068-.663,5.036,5.036,0,0,0,.17-.867l.034-.238a.1.1,0,0,0,.119-.085,1.166,1.166,0,0,0,.017-.221q0-.136.017-.306a.844.844,0,0,1,.153-.374,1.351,1.351,0,0,1,.187-.255.876.876,0,0,1,.391-.153q.272-.068.323,0t.119-.034l.136.068a1.319,1.319,0,0,0,.17.068.332.332,0,0,0,.068.238.332.332,0,0,1,.068.238l.306.646a.666.666,0,0,0,.068.153.445.445,0,0,1,0,.255q-.068.374-.136.918a3.831,3.831,0,0,1-.17.816.974.974,0,0,0-.051.425.775.775,0,0,0,.085.357.5.5,0,0,1-.085.442,1.663,1.663,0,0,0-.221.578q-.068.068-.034.306a.733.733,0,0,1-.1.476h-.068a.06.06,0,0,0-.068.068.1.1,0,0,1,.068.034q.034.034-.034.17a1.129,1.129,0,0,0-.085.2.664.664,0,0,1-.051.136,1.532,1.532,0,0,0-.272.544,3.531,3.531,0,0,1-.136.442.557.557,0,0,1-.187.255A.592.592,0,0,0-119,.374q-.068.1,0,.17a.1.1,0,0,0,.068.034,2.026,2.026,0,0,1-.272.2,2.084,2.084,0,0,1-.374.2.818.818,0,0,0-.221.085A.215.215,0,0,1-119.986,1.088ZM-116.314-17a.265.265,0,0,1-.238.1q-.17,0-.2-.1a1.263,1.263,0,0,1-.051-.221.4.4,0,0,0-.068-.187q-.051-.068-.221-.034a7.079,7.079,0,0,0-.952.221q-.51.153-.68.221a.534.534,0,0,0-.323.2.374.374,0,0,1-.187.17l-.136-.068a.921.921,0,0,1-.255.153q-.187.085-.357.153a2.334,2.334,0,0,1-.476.085q-.238.017-.306-.289-.1-.17-.187-.323a.2.2,0,0,1,.017-.255,1.25,1.25,0,0,0,.255-.17.622.622,0,0,1,.255-.136q.612-.306,1.564-.731a10.675,10.675,0,0,1,2.006-.663q.068-.034.221.051t.306.187a1.9,1.9,0,0,1,.289.238q.136.136.136.2a1.428,1.428,0,0,1-.1.544A1.548,1.548,0,0,1-116.314-17Zm21.9,16.048a1.186,1.186,0,0,1-.663.7,2.06,2.06,0,0,1-.935.153q0-.884-.017-1.632a4.688,4.688,0,0,1,.289-1.632.3.3,0,0,0,.136-.034q.1-.068.034-.2-.136,0-.119-.255t.017-.459a1.273,1.273,0,0,1,.136-.357,1.5,1.5,0,0,0,.034-.765,7.609,7.609,0,0,1,.1-1.921q.17-.9.272-1.785v-.816a4.569,4.569,0,0,1,.068-.816,2.037,2.037,0,0,1,.136-.731,5.491,5.491,0,0,0,.238-.867,1.71,1.71,0,0,1,.017-.731,1.733,1.733,0,0,0,.085-.459q.136-1.054.272-2.04a11.246,11.246,0,0,1,.34-1.666,1.492,1.492,0,0,0,.034-.221v-.221l.34-.238a1.24,1.24,0,0,0,.017-.357.955.955,0,0,1,.289-.561l.238-.119a1.135,1.135,0,0,1,.306-.085.959.959,0,0,1,.323.17.34.34,0,0,0,.187.1,1.536,1.536,0,0,1,.238.493q.1.323.2.7l.1.238a.467.467,0,0,1-.1.238.332.332,0,0,0-.068.238,1.044,1.044,0,0,0,.068.357q.068.187-.2.561a.959.959,0,0,1,.136,1,8.158,8.158,0,0,0-.306,1.309q-.034.374-.068.714t-.034.714q-.068.714-.119.952a2.118,2.118,0,0,0-.051.442,2.493,2.493,0,0,0,0,.6,1.593,1.593,0,0,1-.136.8,1.332,1.332,0,0,0-.17.714,9.576,9.576,0,0,1-.136,1.326,1.109,1.109,0,0,1-.119.323,1.109,1.109,0,0,0-.119.323l.136.306a6.985,6.985,0,0,1-.119,1.5q-.153.918-.255,1.836l-.1.34-.068.136.068.1a4.878,4.878,0,0,1-.425.986A1.713,1.713,0,0,1-94.418-.952Zm-10.064-5.78a7.729,7.729,0,0,1,.374-1.938,4.763,4.763,0,0,1,.646-1.36,1.676,1.676,0,0,1,.544-.459,3.985,3.985,0,0,1,.714-.306,4.445,4.445,0,0,1,.748-.17,4.714,4.714,0,0,1,.612-.051q.306.068.561.731a5.188,5.188,0,0,1,.323,1.377,10.518,10.518,0,0,1-.017,1.36,5.94,5.94,0,0,1-.221,1.156,8.224,8.224,0,0,1-.493,1.156.96.96,0,0,1-.731.544,2.183,2.183,0,0,1-.391-.034,2.62,2.62,0,0,0-.459-.034,2.794,2.794,0,0,0-.459.051,2.794,2.794,0,0,1-.459.051.838.838,0,0,1-.561-.221,1.932,1.932,0,0,1-.425-.527,2.6,2.6,0,0,1-.255-.663A1.937,1.937,0,0,1-104.482-6.732Zm.578-13.43a.8.8,0,0,1-.051.374.411.411,0,0,0-.051.238.161.161,0,0,0,.136.17.233.233,0,0,1,.17.2,5.576,5.576,0,0,1,.034.765v.969q0,.51-.034.935a4.352,4.352,0,0,1-.136.8,2.392,2.392,0,0,0-.085.408q-.017.17-.017.476a2.137,2.137,0,0,1-.034.34.549.549,0,0,1-.136.306,1.2,1.2,0,0,1-.765-.255,1.615,1.615,0,0,1-.391-1.139q-.17-.034-.17-.272V-16a1.432,1.432,0,0,0-.034-.255,3.631,3.631,0,0,0-.17-.561,3.519,3.519,0,0,1-.1-1.071,5.86,5.86,0,0,1,.136-1.241,3,3,0,0,1,.408-1.037,4.141,4.141,0,0,1,.34-.306.585.585,0,0,1,.374-.136.465.465,0,0,1,.391.153A1.762,1.762,0,0,1-103.9-20.162Zm4.216,6.9a.994.994,0,0,1-.34-.034.208.208,0,0,0-.153.051q-.051.051-.085-.085l-.544.068q-.238.068-.544.17l-.561.187q-.255.085-.425.153t-.136.068a.114.114,0,0,1-.1-.051.114.114,0,0,0-.1-.051q-.136-.068-.272.136a.544.544,0,0,1-.408.238,1.86,1.86,0,0,0-.8.153q-.323.153-.561.255l-1.8.612a.114.114,0,0,1-.1-.051.114.114,0,0,0-.1-.051.866.866,0,0,0-.476.051.4.4,0,0,1-.34.017q-.034,0-.153-.1a.265.265,0,0,1-.085-.272.844.844,0,0,1,.323-.357,3.408,3.408,0,0,1,.663-.391q1.734-.612,3.5-1.122t3.4-.816A.373.373,0,0,1-99.6-14.5a.564.564,0,0,0,.221.051.423.423,0,0,1,.1.323q-.034.119-.1.493l-.153.153A.842.842,0,0,0-99.688-13.26Zm13.77,2.958q.136.272-.034.238a.324.324,0,0,0-.306.1q-.136.136-.085.238t-.085.1a2.764,2.764,0,0,1-.765.459q-.561.255-1.224.493a11.338,11.338,0,0,1-1.343.391,4.223,4.223,0,0,1-1.19.119,1.165,1.165,0,0,1-.7-.187A.455.455,0,0,1-91.8-8.67q0-.272.187-.238a.345.345,0,0,0,.323-.1,1.663,1.663,0,0,0,.17-.1.419.419,0,0,1,.238-.068,7.166,7.166,0,0,0,1.7-.391,10.663,10.663,0,0,0,2.074-.935,1.275,1.275,0,0,1,.578-.136h.442Zm-17.272,2.04q.2.068.272.408a1.993,1.993,0,0,1-.051.408,1.178,1.178,0,0,0-.017.442.789.789,0,0,0,.085.255,1.4,1.4,0,0,0,.238.357,1.69,1.69,0,0,0,.374.306.922.922,0,0,0,.493.136,3.416,3.416,0,0,0,.221-.476q.153-.374.306-.833a8.372,8.372,0,0,0,.255-.952,2.994,2.994,0,0,0,.068-.867q0-.714-.612-.714a1.4,1.4,0,0,0-1,.459A2.4,2.4,0,0,0-103.19-8.262ZM-71.6-4.182a1.122,1.122,0,0,1,.272-.255,1.18,1.18,0,0,0,.2-.153,2.586,2.586,0,0,1,.136-.527q.068-.153-.1-.391-.136-.034-.289-.085a.671.671,0,0,0-.391.017q-1.156.136-2.465.34t-2.652.459q-1.343.255-2.686.561T-82.11-3.6a4.575,4.575,0,0,0-.935.357q-.425.221-.459.391a.308.308,0,0,0,.068.34q.136.136.2.136a.761.761,0,0,0,.476-.017,1.325,1.325,0,0,1,.646-.017.226.226,0,0,1,.136.051.226.226,0,0,0,.136.051l2.55-.612q.34-.1.8-.272a2.765,2.765,0,0,1,1.1-.136.638.638,0,0,0,.561-.2q.221-.238.391-.17a.2.2,0,0,1,.136.068.231.231,0,0,0,.17.068q-.068-.034.272-.1l.833-.17q.493-.1,1.02-.2t.833-.17l.748-.1q.068.17.136.119a.239.239,0,0,1,.2-.017A1.975,1.975,0,0,0-71.6-4.182Zm-4.454-12q0-.1.017-.34T-75.99-17a3.039,3.039,0,0,0,.034-.425q0-.187-.034-.187a.209.209,0,0,1-.119-.034.209.209,0,0,0-.119-.034q-.2.068-.6.17t-.867.255q-.476.153-.986.306a9.478,9.478,0,0,0-.918.323,2.5,2.5,0,0,0-.34.119,1.138,1.138,0,0,1-.442.085.139.139,0,0,0-.1-.034.3.3,0,0,1-.136-.034q-.238-.1-.238-.136,0-.068.136-.119t-.034-.085q.17-.068.187-.153t.051-.221a.427.427,0,0,1,.17-.1.858.858,0,0,0,.2-.1q.578-.238.986-.391t1.088-.391a1.254,1.254,0,0,0,.221-.136q.085-.068.187-.136l.17.068q.068.034.17-.068a.535.535,0,0,1,.2-.136,1.976,1.976,0,0,1,.476-.187q.306-.085.6-.153l.51-.119a2.187,2.187,0,0,1,.255-.051l.544.1a.73.73,0,0,1,.629.306,3.14,3.14,0,0,1,.391.782.879.879,0,0,1,.136.425,2.889,2.889,0,0,1-.068.527q0,.1-.034.8t-.085,1.564q-.051.867-.1,1.7a11.463,11.463,0,0,1-.119,1.207q-.068.272-.17.629a6.939,6.939,0,0,0-.17.765.6.6,0,0,1-.221.425,1.138,1.138,0,0,1-.391.119.813.813,0,0,1-.289.017,2.383,2.383,0,0,0-.255-.017.592.592,0,0,1-.221-.187.732.732,0,0,0-.187-.187l-.136-.068q0-.442-.017-1.292t-.017-1.751v-2.941Zm-2.04,4.352a1.291,1.291,0,0,1-.136.459.3.3,0,0,0-.034.255q-.034.2.085.272a.251.251,0,0,1,.119.238q0,.272-.051.918t-.119,1.156q-.068.612-.136,1.088a6,6,0,0,1-.2.918q-.068.272-.119.493a4.6,4.6,0,0,0-.085.561q-.034.136-.085.391a.7.7,0,0,1-.119.323,1,1,0,0,1-.663-.357A2.042,2.042,0,0,1-79.9-6.46a.308.308,0,0,1-.068-.34.321.321,0,0,0,.017-.187.873.873,0,0,1,.017-.289q-.034-.17-.068-.323a2.7,2.7,0,0,1-.051-.357,3.792,3.792,0,0,1,0-.51q.017-.306.085-.782a8.15,8.15,0,0,1,.2-1.479,3.833,3.833,0,0,1,.476-1.207,3,3,0,0,1,.357-.306.451.451,0,0,1,.357-.1.321.321,0,0,1,.323.187Q-78.166-11.968-78.1-11.832Zm14.45,7.412a1.7,1.7,0,0,1,.255.561,1.712,1.712,0,0,1,.051.629,2.685,2.685,0,0,1-.1.408q-.068.2-.238.578a6.471,6.471,0,0,1-.153.663q-.085.289-.187.561,0,.136-.323.255t-.323.255l-.17.1a.231.231,0,0,0-.17.068V0q-.136.136-.272.289a5.706,5.706,0,0,1-.442.425,1.4,1.4,0,0,0-.238.323,1.4,1.4,0,0,1-.238.323,1.3,1.3,0,0,0-.374.051q-.17.051-.34.119t-.323.119a1.015,1.015,0,0,1-.323.051,2.735,2.735,0,0,1-.221-.493,1.556,1.556,0,0,1-.085-.493.8.8,0,0,1,.119-.408,1.834,1.834,0,0,1,.289-.374,3.337,3.337,0,0,1,.391-.34q.187-.136.357-.272a.676.676,0,0,1,.1-.408,2.553,2.553,0,0,1,.238-.272,3.3,3.3,0,0,0,.408-.476,2.6,2.6,0,0,0,.272-.714.431.431,0,0,1,.085-.255.431.431,0,0,0,.085-.255.373.373,0,0,1,.136-.238.533.533,0,0,1,.136-.1l.068-.408.1-.2.17-.136a.394.394,0,0,0,.068-.272q0-.1.153-.119a2.383,2.383,0,0,1,.255-.017,1.238,1.238,0,0,1,.425.068A1.044,1.044,0,0,0-63.648-4.42Zm30.294-15.47a1.224,1.224,0,0,0,.408.34q.17.068.136.408a1.687,1.687,0,0,0,.136.527,1.151,1.151,0,0,1,.1.561q.034.238-.085.289t-.085.221a.1.1,0,0,0,.068.034l.034.068a1.528,1.528,0,0,0-.034.544,1.978,1.978,0,0,1-.034.612l.17.306-.136,1.19q-.034.408-.051.51a1.043,1.043,0,0,0-.017.136.151.151,0,0,1-.017.068,1.84,1.84,0,0,0-.051.306,3.139,3.139,0,0,1,.034.442q0,.442-.17.51-.17.136-.085.119t.085.323a.559.559,0,0,1-.034.17l-.068.2-.2,3.468a2.35,2.35,0,0,1-.272.714,1.815,1.815,0,0,0-.238.612q-.136.578-.187.85t-.119.612a2.219,2.219,0,0,0-.238.2.888.888,0,0,0-.136.187.2.2,0,0,0-.034.187.892.892,0,0,1-.17.493,1.379,1.379,0,0,1-.374.391l-.544.272a.754.754,0,0,1-.459-.085,2.885,2.885,0,0,1-.255-.323l-.068-.272a.437.437,0,0,0-.068-.357.34.34,0,0,1-.1-.187,1.126,1.126,0,0,0-.017-.238.216.216,0,0,0-.051-.1q-.034-.034-.017-.051a1.2,1.2,0,0,1,.119-.085q.1,0,.136-.221a3.26,3.26,0,0,0,.034-.493q0-.272,0-.561t0-.425a.684.684,0,0,0-.017-.187l-.051-.153.2-.34.136-1.836a.221.221,0,0,1,.119-.2q.119-.068.119-.136a.769.769,0,0,0-.153-.323.615.615,0,0,1-.017-.527.289.289,0,0,1,.187-.306q.187-.068.255-.442a.346.346,0,0,0-.17-.289q-.17-.119-.136-.221,0-.1.17-.187a.485.485,0,0,0,.238-.323.354.354,0,0,1,.017-.136q.017-.034.085-.2a1.76,1.76,0,0,0,.034-.442q-.952.34-1.955.714t-1.819.748a.935.935,0,0,1-.357.238.786.786,0,0,1-.459.1,1.71,1.71,0,0,1-.935.017q-.255-.119-.221-.221-.068-.238.17-.238a.556.556,0,0,0,.408-.17.37.37,0,0,0,.136-.153.622.622,0,0,1,.272-.221q.476-.238,1.785-.748t2.941-1.054q.068-.578.136-.935t.119-.646q.051-.289.085-.561t.068-.68l.034-.272h.136a.231.231,0,0,0-.068-.17l-.034-.034a.571.571,0,0,1,.017-.34,1.11,1.11,0,0,0,.119-.306,2.817,2.817,0,0,1,.034-.51q0-.136.1-.136a.261.261,0,0,1,.1.034q0-.136.187-.238a1.273,1.273,0,0,1,.357-.136,1.043,1.043,0,0,0,.255-.2Q-33.456-19.992-33.354-19.89ZM-44.3-17.51a.346.346,0,0,1,.153.221q.017.119.051.289a7.624,7.624,0,0,1,0,1.02l-.34.238a.528.528,0,0,0,.136.221q.068.051-.034.323l-.2.374a.377.377,0,0,1-.017.119.28.28,0,0,0-.017.085v.068q-.17.578-.34,1.122.034.136-.085.1t-.051.1a.222.222,0,0,0-.1.1.6.6,0,0,0-.068.272,2.316,2.316,0,0,0-.119.493,1.83,1.83,0,0,1-.119.459.231.231,0,0,1-.068.17.1.1,0,0,1-.068.034v.306a.452.452,0,0,1-.1.272l-.306.272q.034.136-.017.153t-.017.153a.918.918,0,0,1-.119.374q-.119.238-.391.85l-.306.816a5.3,5.3,0,0,1-.306.714l-.272.544a4.991,4.991,0,0,0-.2.476.4.4,0,0,1-.238.2.161.161,0,0,0-.136.17,1.32,1.32,0,0,1-.068.17.3.3,0,0,1-.17.2,1.315,1.315,0,0,1-.578.1l-.272-.34a1.015,1.015,0,0,1-.153-.289.162.162,0,0,1,.085-.221h.238l-.034-.408.272-.442-.034-.306.34-.476.816-2.04a.079.079,0,0,1,.051-.085.155.155,0,0,0,.085-.085q.034-.068,0-.1t0-.1q.238-.68.493-1.36a12.522,12.522,0,0,0,.425-1.36q.034-.136.153-.476t.238-.782q.119-.442.238-.935t.221-.969q-.17.034-.408.1l-.476.136q-.238.068-.442.136l-.306.1a.582.582,0,0,0-.34.17.385.385,0,0,1-.136.136,3.2,3.2,0,0,1-.51.17,3.469,3.469,0,0,0-.748.306,1.118,1.118,0,0,1-.272.034.269.269,0,0,1-.17-.034.488.488,0,0,1-.153-.612.9.9,0,0,1,.459-.476.166.166,0,0,1,.119-.034.211.211,0,0,0,.153-.068,5.266,5.266,0,0,1,.731-.272,3.131,3.131,0,0,0,.663-.272l.408-.17q.476-.17.935-.306a6.286,6.286,0,0,1,1.139-.2.5.5,0,0,1,.459.085A1.321,1.321,0,0,1-44.3-17.51ZM-41.31-4.318a1.949,1.949,0,0,1-.459-.17.549.549,0,0,1-.255-.374q-.2.068-.187-.034t-.119-.17a.319.319,0,0,0-.17-.2,1.319,1.319,0,0,0-.17-.068q-.068-.1-.255-.357t-.391-.595l-.408-.68a6,6,0,0,1-.34-.646.122.122,0,0,0-.119-.068.345.345,0,0,1-.187-.068v-.34a.81.81,0,0,1-.34-.425,6.312,6.312,0,0,0-.34-.629l-.1-.17q.1-.034.068-.085a1,1,0,0,0-.119-.136.842.842,0,0,1-.153-.221.463.463,0,0,1-.034-.306.474.474,0,0,1,.034-.2.866.866,0,0,1,.34-.2.565.565,0,0,1,.306-.085q.1.017.1-.085h.442a.82.82,0,0,0,.289.119.389.389,0,0,1,.221.119l.408.408a1.013,1.013,0,0,1,.136.1q.034.034.2.17.272.272.578.6a1.174,1.174,0,0,1,.34.527.623.623,0,0,0,.136.289.952.952,0,0,1,.17.357,1.033,1.033,0,0,1,.085.34q-.017.034.153.272a1.1,1.1,0,0,0,.187.221.645.645,0,0,1,.187.357h-.068q-.034,0-.034.068a.03.03,0,0,0,.034.034.139.139,0,0,1,.034.1.337.337,0,0,1,.034.153.337.337,0,0,0,.034.153.9.9,0,0,0,.119.425q.119.221.153.289a.474.474,0,0,0,0,.255.5.5,0,0,1,.034.187l.034.238-.272.34A1,1,0,0,1-41.31-4.318Zm3.5,3.842a1.739,1.739,0,0,0,.255-.034l.391-.068q.2-.034.374-.068a1.054,1.054,0,0,0,.238-.068.884.884,0,0,1,.272.034l.408-.1.51-.1,1.632-.408q.34.068.272.323t-.1.425l-.136.068-.136.068a11.743,11.743,0,0,1-1.139.357,13.968,13.968,0,0,1-1.683.323q-.068-.034-.187.068a.429.429,0,0,1-.289.1.6.6,0,0,1-.17.051,1.405,1.405,0,0,0-.272.085,2.835,2.835,0,0,1-1.088.153,2.138,2.138,0,0,0-.986.153A.778.778,0,0,1-40.1.459,1.765,1.765,0,0,1-40.188-.1,9.111,9.111,0,0,1-40-1a1.116,1.116,0,0,0-.051-.8q.1,0,.1-.034.068-.068.051-.119a.155.155,0,0,1,.017-.119q0-.136.306-.034.034-.1-.1-.17t-.068-.136q.034-.1.136-.34t.136-.34h.068q.1,0,.1-.034a.085.085,0,0,0,0-.136l-.068-.068a1.317,1.317,0,0,1,.425-.442,1.96,1.96,0,0,1,.6-.34.746.746,0,0,1,.374.646l.068.544q.034.2.051.408t.017.238a.442.442,0,0,0-.051.357,2.71,2.71,0,0,1,.017.731.754.754,0,0,1,.034.238q0,.1,0,.221A1.054,1.054,0,0,0-37.808-.476ZM-20.5-10.234q-.2.068-.17.068a.153.153,0,0,1-.136-.051q-.034-.051-.068-.051-.2-.1-.391.136a.73.73,0,0,1-.527.272,2.175,2.175,0,0,0-1.071.119q-.459.187-.731.289l-2.38.646a.163.163,0,0,1-.119-.051.163.163,0,0,0-.119-.051,1.1,1.1,0,0,0-.629.034.641.641,0,0,1-.459.034q-.068,0-.187-.136a.285.285,0,0,1-.017-.34q0-.17.408-.391a3.368,3.368,0,0,1,.85-.323q1.122-.34,2.4-.663t2.618-.629q1.343-.306,2.652-.544t2.5-.374a.588.588,0,0,1,.34-.034q.17.034.306.068a.489.489,0,0,1,.034.391,2.586,2.586,0,0,0-.136.527q-.1,0-.408.374a.726.726,0,0,1-.442,0,.6.6,0,0,0-.187-.034.6.6,0,0,1-.187-.034l-.68.068q-.34.1-1.054.238t-1.292.272q.068.34.1.442a4.023,4.023,0,0,0,.153.442.9.9,0,0,1,.085.306v.425q0,.255-.017.51t-.034.459a.871.871,0,0,1-.051.272,7.725,7.725,0,0,1-.2,1.088,5.292,5.292,0,0,0-.17.986,1.006,1.006,0,0,1-.238.782,1.269,1.269,0,0,1-.612.272,1.52,1.52,0,0,1-.357.034q-.221,0-.221-.034a1.273,1.273,0,0,1-.238-.408q-.068-.2-.1-.136a.893.893,0,0,0,.017-.323,1.122,1.122,0,0,1,.119-.527,3.9,3.9,0,0,1,.068-1.224q.136-.714.306-1.36t.323-1.1a3.4,3.4,0,0,0,.153-.527Zm1.836-5.338q.51-.068.442.2a.955.955,0,0,1-.051.629,1.313,1.313,0,0,1-.289.323q-.17.2-.34-.068-.17-.17-.187,0t-.085.136a1.711,1.711,0,0,0-.391-.034.814.814,0,0,0-.425.1q-.17.17-.221.119a.264.264,0,0,0-.187-.051q-.136.034-.51.136t-.8.2q-.425.1-.8.221t-.544.153a.844.844,0,0,0-.187.153.393.393,0,0,1-.289.119.944.944,0,0,0-.357-.051q-.119.017-.153-.119a1.012,1.012,0,0,1,.068-.561.537.537,0,0,1,.272-.255q.51-.17,1.105-.374t1.241-.374l.034-.1a1.739,1.739,0,0,1,.034-.255q.034-.187.068-.357.034-.2.1-.476a.757.757,0,0,1,.068-.34,1.208,1.208,0,0,0,.1-.34,2.111,2.111,0,0,1,.136-.867,3.761,3.761,0,0,0,.2-.867l.068-.442.034-.17q.034-.136.085-.408t.119-.578l-2.38,1.088a.862.862,0,0,0-.34.187.289.289,0,0,1-.238.085,1.2,1.2,0,0,1-.255-.051.218.218,0,0,1-.187-.221.875.875,0,0,1,.34-.646.607.607,0,0,0,.17-.17,1.114,1.114,0,0,1,.136-.17q.238-.136.7-.34t.986-.442q.527-.238,1.071-.442a8.96,8.96,0,0,1,.952-.306l.153-.051q.051-.017.119.051a.3.3,0,0,0,.17.085q.1.017.1.085a.153.153,0,0,0,.051.136.557.557,0,0,1,.085.068q.1.068.136.085t.034.187a1.221,1.221,0,0,0,.034.323,1.064,1.064,0,0,1,.034.289l-.068.748q-.476,1.666-.782,2.635t-.476,1.581q.306-.068.578-.1A3.383,3.383,0,0,0-18.666-15.572Zm-7.82,2.414a1.553,1.553,0,0,1-.221-.272.551.551,0,0,1-.051-.374,1.119,1.119,0,0,1,.068-.34h-.1q-.136,0-.136-.1,0-.068.034-.085t.034-.085a3.187,3.187,0,0,0-.017-.374q-.017-.136-.051-.289T-27-15.47a3.332,3.332,0,0,1,0-.68q.034-.578.119-1.207t.119-1.105a.206.206,0,0,0-.051-.1.621.621,0,0,1-.085-.238l.136-.306a.583.583,0,0,1-.034-.238q.034-.272.1-.68a4.274,4.274,0,0,0,.068-.68l.034-.238q.136,0,.136-.17a.559.559,0,0,0-.034-.17.544.544,0,0,1,0-.272,1.42,1.42,0,0,1,.17-.527q.17-.357.748-.323a.5.5,0,0,1,.17.017.151.151,0,0,0,.068.017.139.139,0,0,0,.1-.034,2.3,2.3,0,0,1,.357.272.862.862,0,0,1,.255.408q.068.272.17.6a1.176,1.176,0,0,1,.068.527q-.034.51-.085,1.088t-.085.85a1.407,1.407,0,0,0,.1.527,1.274,1.274,0,0,1,.1.323.9.9,0,0,1-.136.442,1.5,1.5,0,0,0-.17.612,1.8,1.8,0,0,0,.017.2,2.191,2.191,0,0,1,.017.272.3.3,0,0,0-.034.136.3.3,0,0,1-.034.136h-.068q-.1,0-.1.068a.03.03,0,0,0,.034.034q0,.034.017.034t.017.034a2.633,2.633,0,0,1-.391,1.309,1.431,1.431,0,0,0-.323.7q.136.136.136.17v.068a2.263,2.263,0,0,1-.561.289,1.86,1.86,0,0,1-.527.153ZM-21.216-.17l.442-.17.51-.1,1.19-.374.85-.238.476-.17q.476.068.51.306t.068.408a1.188,1.188,0,0,1-.153.136.824.824,0,0,0-.119.1l-.1.1a1.013,1.013,0,0,1-.136.1.423.423,0,0,1-.187.1.784.784,0,0,0-.221.1q-.578.2-1.309.442t-1.479.476a1.251,1.251,0,0,0-.323.068q-.221.068-.459.136a1.776,1.776,0,0,0-.374.272,1.066,1.066,0,0,1-.272.2,2.841,2.841,0,0,1-.561.272q-.289.1-.561.2a1.092,1.092,0,0,1-.6-.6,2.537,2.537,0,0,1-.17-.833A7.673,7.673,0,0,1-24.174-.1a2.883,2.883,0,0,0-.034-.782l.136-.136a.192.192,0,0,0,.017-.136A.141.141,0,0,1-24-1.292q0-.068.34-.068.034-.136-.136-.17t-.1-.17q.034-.136.136-.425a4.033,4.033,0,0,1,.17-.425h.1a.2.2,0,0,0,.136-.068q.034-.068-.085-.153t-.085-.119q.068-.17.17-.476a1.038,1.038,0,0,1,.374-.51l.374-.136a.819.819,0,0,1,.408.068.328.328,0,0,1,.136.17.419.419,0,0,1,.017.2.278.278,0,0,0,.051.2,5.3,5.3,0,0,0,.034.646q.034.272.051.459t.017.255a.955.955,0,0,0-.034.221,1.475,1.475,0,0,0,.017.2q.017.119.034.306t.017.493l.068.272a1.054,1.054,0,0,1,.034.255.424.424,0,0,0,.034.187Zm23.9-2.754.136-.68.2-1.088.544-3.2q-.272.068-.7.221t-.8.323q-.068.034-.357.136l-.391.136L.068-6.664Q-.2-6.6-.255-6.477t-.255.119a1.433,1.433,0,0,1-.238-.034.189.189,0,0,1-.17-.2.806.806,0,0,1,.306-.612l.136-.136L-.34-7.48q.272-.1.68-.272t.952-.374a.533.533,0,0,1-.1-.136L1.156-8.5a.48.48,0,0,0-.1-.323.34.34,0,0,1-.1-.187Q1.02-9.316.935-9.3t.085-.119q.1,0,.153-.2a2.617,2.617,0,0,0,.068-.459q.017-.255.017-.51t0-.391a.26.26,0,0,0,.017-.153l-.051-.153.17-.306.136-.85a.328.328,0,0,1,.136-.17q.1-.068.1-.136a.415.415,0,0,0-.119-.272q-.119-.136-.017-.476a.311.311,0,0,1,.2-.289q.17-.051.238-.391a.247.247,0,0,0-.119-.272q-.153-.1-.153-.2t.17-.17a.426.426,0,0,0,.238-.306.121.121,0,0,1-.017-.1q.017-.034.119-.2a.407.407,0,0,0,.051-.272q-.017-.17-.017-.34-.918.34-1.9.714t-1.768.714a.935.935,0,0,1-.357.238.786.786,0,0,1-.459.1,1.71,1.71,0,0,1-.935.017q-.255-.119-.221-.221-.068-.238.17-.238a.556.556,0,0,0,.408-.17.369.369,0,0,0,.136-.153.622.622,0,0,1,.272-.221q.476-.238,1.785-.765T2.414-17.1l.17-.68q.068-.272.136-.527t.119-.544q.051-.289.085-.765v-.238H3.06a.269.269,0,0,0-.034-.17l-.034-.034a.585.585,0,0,1,.051-.306,1.082,1.082,0,0,0,.119-.272v-.442q.034-.136.136-.136a.261.261,0,0,1,.1.034q0-.136.187-.221a1.649,1.649,0,0,1,.357-.119,1.038,1.038,0,0,0,.255-.187q.221-.187.323-.085a.715.715,0,0,0,.374.306q.17.034.1.374a2.48,2.48,0,0,0,.17.476.715.715,0,0,1,.068.51q0,.2-.119.255a.143.143,0,0,0-.085.187.1.1,0,0,0,.068.034l.068.068a.981.981,0,0,0-.068.493,1.32,1.32,0,0,1-.068.561l.1.51L5-17.17q-.034.374-.051.527t-.034.238a.969.969,0,0,1-.051.17,1.644,1.644,0,0,0-.068.323,2.95,2.95,0,0,1,.034.408q0,.374-.17.442-.136.136-.068.119t.034.289a.559.559,0,0,0-.034.17.069.069,0,0,1-.017.051.069.069,0,0,0-.017.051v.068L4.284-12a2.124,2.124,0,0,1-.272.663,2.339,2.339,0,0,0-.272.561,6.738,6.738,0,0,0-.17.765,2.076,2.076,0,0,1-.17.561.908.908,0,0,0-.238.17q-.238.2-.2.34a.584.584,0,0,1-.034.238q.476-.136.867-.255a6.818,6.818,0,0,1,.765-.187L4.709-9.2q.051-.017.119.051A.231.231,0,0,0,5-9.078q.1,0,.1.034a.109.109,0,0,0,.068.1.4.4,0,0,1,.1.068.484.484,0,0,0,.1.085q.034.017.034.153a.71.71,0,0,0,.051.306.613.613,0,0,1,.051.272l-.034.646Q5.3-6.29,5.219-5.78t-.1.714a2.1,2.1,0,0,1-.034.272q-.017.068-.051.34l-.1.68L4.862-3.3l-.306.408q.136.17.221.272t-.085.374a.753.753,0,0,1,.034.238q0,.068-.136.221a3.9,3.9,0,0,1-.306.306,3.465,3.465,0,0,0-.289.289l-.119.136q-.34,0-.731.034t-.391-.442a.831.831,0,0,0-.068-.391.419.419,0,0,1-.068-.187Zm-8.4-15.368a.249.249,0,0,1,.153.187,1.806,1.806,0,0,1,.017.255,1.758,1.758,0,0,1,.017.425,3,3,0,0,1-.085.493l-.408.17a.6.6,0,0,0,.153.2q.085.068-.085.272l-.238.34a.377.377,0,0,1-.017.119.28.28,0,0,0-.017.085v.034l-.2.476a3.791,3.791,0,0,1-.272.51l-.221.221a.357.357,0,0,0-.119.255,1.393,1.393,0,0,0-.153.425.915.915,0,0,1-.187.391q0,.034-.1.136a.1.1,0,0,1-.068.034,2.086,2.086,0,0,1-.017.289.389.389,0,0,1-.119.221l-.374.2-.034.272a1.86,1.86,0,0,1-.153.306q-.119.2-.493.748l-.391.68q-.255.442-.357.612a3.519,3.519,0,0,1-.306.476q-.136.17-.306.408l-.374.306a.533.533,0,0,1-.1.136q-.136.136-.2.136a1.166,1.166,0,0,1-.612.034,2.95,2.95,0,0,1-.272-.306.8.8,0,0,1-.136-.255q-.034-.119.1-.187h.272l-.034-.374.34-.374-.034-.272a2.147,2.147,0,0,1,.221-.2,1.63,1.63,0,0,0,.187-.17q.272-.442.51-.884t.51-.884l.17-.1.034-.17q.272-.612.6-1.207a12.193,12.193,0,0,0,.561-1.173,7.019,7.019,0,0,0,.527-1.071q.357-.833.629-1.649a2.241,2.241,0,0,0-.425.051q-.255.051-.527.1t-.493.085a2.156,2.156,0,0,0-.323.068.874.874,0,0,0-.391.1.892.892,0,0,1-.153.1q-.136.034-.527.085a3.648,3.648,0,0,0-.833.221h-.306a.269.269,0,0,1-.17-.034.416.416,0,0,1-.119-.578.774.774,0,0,1,.527-.374h.136a.231.231,0,0,0,.17-.068q.374-.068.782-.153t.748-.187l.408-.136q.51-.068,1.037-.153a7.646,7.646,0,0,1,1.207-.085.637.637,0,0,1,.493.119A1.321,1.321,0,0,1-5.712-18.292Zm3.026,10.03a2.1,2.1,0,0,0-.323-.1A.638.638,0,0,1-3.332-8.6l-.238-.17a.72.72,0,0,0-.391-.238.814.814,0,0,1-.425-.272,3.45,3.45,0,0,1-.425-.612q-.187-.34-.357-.612a.109.109,0,0,0-.1-.068.2.2,0,0,1-.136-.068l-.034-.2a.916.916,0,0,1-.306-.391q-.17-.323-.272-.493l-.17-.1a.821.821,0,0,1-.034-.51.71.71,0,0,0,0-.442.715.715,0,0,1,.017-.17,1.018,1.018,0,0,1,.187-.272l.17-.17a.559.559,0,0,0,.136-.017l.2-.051a.211.211,0,0,0,.153.068.345.345,0,0,1,.187.068l.272.306a1.787,1.787,0,0,1,.272.17,4.968,4.968,0,0,1,.442.425,2.743,2.743,0,0,1,.34.425.573.573,0,0,0,.136.289q.136.187.272.119a.492.492,0,0,1,.1.255.8.8,0,0,0,.17.357.729.729,0,0,0,.136.17.908.908,0,0,1,.17.238.1.1,0,0,0-.068.034.2.2,0,0,0-.034.136h.068a.139.139,0,0,1,.1.034.675.675,0,0,1,.068.306l.136.34a.388.388,0,0,0,.136.2.408.408,0,0,1,.034.272.559.559,0,0,0-.034.17.06.06,0,0,0,.068.068h.068a.55.55,0,0,1-.085.221q-.085.153-.153.255a.327.327,0,0,0-.068.153A.187.187,0,0,1-2.686-8.262Zm25.3,6.63a1.186,1.186,0,0,1-.663.7,2.06,2.06,0,0,1-.935.153q0-.884-.017-1.632a4.688,4.688,0,0,1,.289-1.632.3.3,0,0,0,.136-.034q.1-.068.034-.2-.136,0-.119-.255T21.352-5a1.273,1.273,0,0,1,.136-.357,1.5,1.5,0,0,0,.034-.765,7.609,7.609,0,0,1,.1-1.921q.17-.9.272-1.785v-.816a4.569,4.569,0,0,1,.068-.816,2.038,2.038,0,0,1,.136-.731,5.491,5.491,0,0,0,.238-.867,1.71,1.71,0,0,1,.017-.731,1.732,1.732,0,0,0,.085-.459q.136-1.054.272-2.04a11.246,11.246,0,0,1,.34-1.666,1.493,1.493,0,0,0,.034-.221q0-.051,0-.221l.34-.238a1.24,1.24,0,0,0,.017-.357.955.955,0,0,1,.289-.561l.238-.119a1.135,1.135,0,0,1,.306-.085.959.959,0,0,1,.323.17.34.34,0,0,0,.187.1,1.536,1.536,0,0,1,.238.493q.1.323.2.7l.1.238a.467.467,0,0,1-.1.238.332.332,0,0,0-.068.238,1.044,1.044,0,0,0,.068.357q.068.187-.2.561a.959.959,0,0,1,.136,1,8.158,8.158,0,0,0-.306,1.309q-.034.374-.068.714t-.034.714q-.068.714-.119.952a2.118,2.118,0,0,0-.051.442,2.493,2.493,0,0,0,0,.6,1.593,1.593,0,0,1-.136.8,1.332,1.332,0,0,0-.17.714,9.577,9.577,0,0,1-.136,1.326,1.109,1.109,0,0,1-.119.323,1.109,1.109,0,0,0-.119.323l.136.306a6.985,6.985,0,0,1-.119,1.5q-.153.918-.255,1.836l-.1.34-.068.136.068.1a4.878,4.878,0,0,1-.425.986A1.713,1.713,0,0,1,22.61-1.632ZM10.268-7.378a2.459,2.459,0,0,0-.034-.357,2.459,2.459,0,0,1-.034-.357l.136-.068a.184.184,0,0,0,.085-.068q.017-.034-.051-.034-.136-.136-.068-.085t.068-.085a.431.431,0,0,0-.085-.255.431.431,0,0,1-.085-.255.851.851,0,0,1,.1-.442.851.851,0,0,0,.1-.442v-.34q-.136-.136-.068-.1t.068-.238a12.617,12.617,0,0,1,.34-1.326q.2-.646.442-1.258a2.852,2.852,0,0,1,1.8-1.8q.544-.17.68.068.068.068-.136.17a2.983,2.983,0,0,0-.578.442,1.158,1.158,0,0,0-.306.51q-.136.374-.272.884a1.9,1.9,0,0,1,.884-.1.589.589,0,0,1,.459.391.37.37,0,0,0,.391.289q.238,0,.612.629a3.935,3.935,0,0,1,.34,2.023A5.485,5.485,0,0,1,13.5-5.644a1.934,1.934,0,0,1-.238.187.638.638,0,0,1-.374.119.851.851,0,0,0-.442.1.851.851,0,0,1-.442.1,1.267,1.267,0,0,1-.85-.289,2.761,2.761,0,0,1-.408-.391,6.231,6.231,0,0,1-.289-.765A6.3,6.3,0,0,1,10.268-7.378Zm2.652-4.114a1.456,1.456,0,0,0-.816.136,18.519,18.519,0,0,0-.17,2.482,3.468,3.468,0,0,0,.34,1.768.73.73,0,0,0,.136.238.332.332,0,0,0,.238.068A.617.617,0,0,0,13.09-7a2.976,2.976,0,0,0,.663-1.122,4.044,4.044,0,0,0,.255-1.36,3.553,3.553,0,0,0-.2-1.377A1.2,1.2,0,0,0,12.92-11.492Zm28.526,7.31a1.122,1.122,0,0,1,.272-.255,1.18,1.18,0,0,0,.2-.153,2.586,2.586,0,0,1,.136-.527q.068-.153-.1-.391-.136-.034-.289-.085a.671.671,0,0,0-.391.017q-1.156.136-2.465.34t-2.652.459q-1.343.255-2.686.561T30.94-3.6a4.575,4.575,0,0,0-.935.357q-.425.221-.459.391a.308.308,0,0,0,.068.34q.136.136.2.136a.761.761,0,0,0,.476-.017,1.325,1.325,0,0,1,.646-.017.226.226,0,0,1,.136.051.226.226,0,0,0,.136.051l2.55-.612q.34-.1.8-.272a2.765,2.765,0,0,1,1.1-.136.638.638,0,0,0,.561-.2q.221-.238.391-.17a.2.2,0,0,1,.136.068.231.231,0,0,0,.17.068q-.068-.034.272-.1l.833-.17q.493-.1,1.02-.2t.833-.17l.748-.1q.068.17.136.119a.239.239,0,0,1,.2-.017A1.975,1.975,0,0,0,41.446-4.182Zm-4.454-12q0-.1.017-.34T37.06-17a3.04,3.04,0,0,0,.034-.425q0-.187-.034-.187a.209.209,0,0,1-.119-.034.21.21,0,0,0-.119-.034q-.2.068-.595.17t-.867.255q-.476.153-.986.306a9.477,9.477,0,0,0-.918.323,2.5,2.5,0,0,0-.34.119,1.138,1.138,0,0,1-.442.085.139.139,0,0,0-.1-.034.3.3,0,0,1-.136-.034q-.238-.1-.238-.136,0-.068.136-.119T32.3-16.83q.17-.068.187-.153t.051-.221a.427.427,0,0,1,.17-.1.858.858,0,0,0,.2-.1q.578-.238.986-.391t1.088-.391a1.254,1.254,0,0,0,.221-.136q.085-.068.187-.136l.17.068q.068.034.17-.068a.535.535,0,0,1,.2-.136,1.976,1.976,0,0,1,.476-.187q.306-.085.6-.153l.51-.119a2.187,2.187,0,0,1,.255-.051l.544.1a.73.73,0,0,1,.629.306,3.14,3.14,0,0,1,.391.782.879.879,0,0,1,.136.425,2.889,2.889,0,0,1-.068.527q0,.1-.034.8T39.287-14.6q-.051.867-.1,1.7a11.462,11.462,0,0,1-.119,1.207q-.068.272-.17.629a6.938,6.938,0,0,0-.17.765.6.6,0,0,1-.221.425,1.138,1.138,0,0,1-.391.119.813.813,0,0,1-.289.017,2.383,2.383,0,0,0-.255-.017.592.592,0,0,1-.221-.187.732.732,0,0,0-.187-.187l-.136-.068q0-.442-.017-1.292t-.017-1.751v-2.941Zm-2.04,4.352a1.291,1.291,0,0,1-.136.459.3.3,0,0,0-.034.255q-.034.2.085.272a.251.251,0,0,1,.119.238q0,.272-.051.918t-.119,1.156q-.068.612-.136,1.088a6,6,0,0,1-.2.918q-.068.272-.119.493a4.6,4.6,0,0,0-.085.561q-.034.136-.085.391a.7.7,0,0,1-.119.323,1,1,0,0,1-.663-.357A2.042,2.042,0,0,1,33.15-6.46a.308.308,0,0,1-.068-.34.321.321,0,0,0,.017-.187.873.873,0,0,1,.017-.289q-.034-.17-.068-.323A2.7,2.7,0,0,1,33-7.956a3.791,3.791,0,0,1,0-.51q.017-.306.085-.782a8.149,8.149,0,0,1,.2-1.479,3.833,3.833,0,0,1,.476-1.207,3,3,0,0,1,.357-.306.451.451,0,0,1,.357-.1.321.321,0,0,1,.323.187Q34.884-11.968,34.952-11.832ZM49.4-4.42a1.7,1.7,0,0,1,.255.561,1.712,1.712,0,0,1,.051.629,2.685,2.685,0,0,1-.1.408q-.068.2-.238.578a6.471,6.471,0,0,1-.153.663q-.085.289-.187.561,0,.136-.323.255t-.323.255l-.17.1a.231.231,0,0,0-.17.068V0q-.136.136-.272.289a5.707,5.707,0,0,1-.442.425,1.4,1.4,0,0,0-.238.323,1.4,1.4,0,0,1-.238.323,1.3,1.3,0,0,0-.374.051q-.17.051-.34.119t-.323.119a1.015,1.015,0,0,1-.323.051,2.735,2.735,0,0,1-.221-.493,1.556,1.556,0,0,1-.085-.493.8.8,0,0,1,.119-.408,1.835,1.835,0,0,1,.289-.374,3.338,3.338,0,0,1,.391-.34q.187-.136.357-.272a.676.676,0,0,1,.1-.408,2.553,2.553,0,0,1,.238-.272,3.3,3.3,0,0,0,.408-.476,2.6,2.6,0,0,0,.272-.714.431.431,0,0,1,.085-.255.431.431,0,0,0,.085-.255.373.373,0,0,1,.136-.238.533.533,0,0,1,.136-.1l.068-.408.1-.2.17-.136a.394.394,0,0,0,.068-.272q0-.1.153-.119a2.383,2.383,0,0,1,.255-.017,1.238,1.238,0,0,1,.425.068A1.044,1.044,0,0,0,49.4-4.42ZM81.056-19.89a1.224,1.224,0,0,0,.408.34q.17.068.136.408a1.687,1.687,0,0,0,.136.527,1.151,1.151,0,0,1,.1.561q.034.238-.085.289t-.085.221a.1.1,0,0,0,.068.034l.034.068a1.528,1.528,0,0,0-.034.544,1.978,1.978,0,0,1-.034.612l.17.306-.136,1.19q-.034.408-.051.51a1.044,1.044,0,0,0-.017.136.151.151,0,0,1-.017.068,1.84,1.84,0,0,0-.051.306,3.139,3.139,0,0,1,.034.442q0,.442-.17.51-.17.136-.085.119t.085.323a.559.559,0,0,1-.034.17l-.068.2-.2,3.468a2.35,2.35,0,0,1-.272.714,1.815,1.815,0,0,0-.238.612q-.136.578-.187.85t-.119.612a2.22,2.22,0,0,0-.238.2.888.888,0,0,0-.136.187.2.2,0,0,0-.034.187.892.892,0,0,1-.17.493,1.379,1.379,0,0,1-.374.391l-.544.272a.754.754,0,0,1-.459-.085,2.885,2.885,0,0,1-.255-.323l-.068-.272A.437.437,0,0,0,78-5.049a.34.34,0,0,1-.1-.187,1.127,1.127,0,0,0-.017-.238.216.216,0,0,0-.051-.1q-.034-.034-.017-.051a1.2,1.2,0,0,1,.119-.085q.1,0,.136-.221a3.259,3.259,0,0,0,.034-.493v-.986a.684.684,0,0,0-.017-.187l-.051-.153.2-.34.136-1.836a.221.221,0,0,1,.119-.2q.119-.068.119-.136a.769.769,0,0,0-.153-.323.615.615,0,0,1-.017-.527.2.2,0,0,1,.085-.187.492.492,0,0,0,.153-.153q-.884.2-1.938.527t-1.938.663a.6.6,0,0,1-.289.187,1.056,1.056,0,0,1-.357.085.978.978,0,0,1-.7-.17.512.512,0,0,1-.153-.34q0-.272.187-.238a.345.345,0,0,0,.323-.1A.37.37,0,0,0,73.95-11a.468.468,0,0,1,.2-.187q.374-.17,1.462-.544T78-12.41a.87.87,0,0,1,.323-.068h.323q.068-.068.17-.153a.628.628,0,0,0,.17-.255A.354.354,0,0,1,79-13.022q.017-.034.085-.2a1.62,1.62,0,0,0,0-.663,2.168,2.168,0,0,1,0-.765q.068-.578.136-.935t.119-.646q.051-.289.085-.561t.068-.68l.034-.272h.136a.231.231,0,0,0-.068-.17l-.034-.034a.571.571,0,0,1,.017-.34A1.11,1.11,0,0,0,79.7-18.6a2.816,2.816,0,0,1,.034-.51q0-.136.1-.136a.261.261,0,0,1,.1.034q0-.136.187-.238a1.273,1.273,0,0,1,.357-.136,1.043,1.043,0,0,0,.255-.2Q80.954-19.992,81.056-19.89ZM74.018-7.65a.848.848,0,0,0-.374.068q-.1-.068-.17-.017t-.068-.119l-.646.17q-.238.1-.544.2t-.561.2l-.425.17q-.17.068-.1.068a.387.387,0,0,1-.153-.085A.094.094,0,0,0,70.856-7q-.17-.034-.306.2a.47.47,0,0,1-.442.238,3.647,3.647,0,0,0-.833.255q-.323.153-.6.289L65.722-4.862a.3.3,0,0,1-.136-.034l-.136-.068a.76.76,0,0,0-.476.068.467.467,0,0,1-.34.068q-.068.034-.2-.085a.369.369,0,0,1-.068-.391q0-.1.289-.357a5.3,5.3,0,0,1,.663-.493q.986-.374,2.091-.748t2.261-.748v-.034a.1.1,0,0,1-.068-.034v-.238l.034-.068v-.068a1.359,1.359,0,0,0-.017-.493,2.94,2.94,0,0,1,.017-.833q.068-.476.153-.969t.153-.9a.213.213,0,0,0,.017-.136q-.017-.034-.085-.136l.136-.272a.129.129,0,0,1-.017-.119.956.956,0,0,0,.017-.187q.034-.2.068-.425t.068-.459a.237.237,0,0,1,.017-.1.151.151,0,0,0,.017-.068l.034-.238q.1.068.1-.1v-.306a1.022,1.022,0,0,1,.034-.17.948.948,0,0,1,.119-.272,1.031,1.031,0,0,1,.2-.238.378.378,0,0,1,.323-.068.134.134,0,0,1,.085.017.069.069,0,0,0,.051.017.1.1,0,0,0,.068.034q.068,0,.068-.034.136,0,.255.2a.754.754,0,0,1,.119.374l.2.612a.666.666,0,0,0,.068.153.343.343,0,0,1,0,.221q-.034.374-.119.9t-.119.731a.917.917,0,0,0-.017.459,1.474,1.474,0,0,1,.051.221,1.85,1.85,0,0,1-.119.408,1.81,1.81,0,0,0-.119.442v.442q-.034.17-.068.153t-.1.051v.17a2.716,2.716,0,0,1-.306.918q.748-.2,1.411-.391l1.275-.357A.749.749,0,0,1,74-8.891a1.3,1.3,0,0,1,.289.085.29.29,0,0,1,.085.306,2.789,2.789,0,0,0-.085.442ZM76.6-.476a1.739,1.739,0,0,0,.255-.034l.391-.068q.2-.034.374-.068a1.054,1.054,0,0,0,.238-.068.884.884,0,0,1,.272.034l.408-.1.51-.1,1.632-.408q.34.068.272.323t-.1.425l-.136.068-.136.068a11.744,11.744,0,0,1-1.139.357,13.968,13.968,0,0,1-1.683.323Q77.69.238,77.571.34a.429.429,0,0,1-.289.1.6.6,0,0,1-.17.051,1.405,1.405,0,0,0-.272.085,2.835,2.835,0,0,1-1.088.153,2.138,2.138,0,0,0-.986.153.778.778,0,0,1-.459-.425A1.765,1.765,0,0,1,74.222-.1a9.114,9.114,0,0,1,.187-.9,1.116,1.116,0,0,0-.051-.8q.1,0,.1-.034.068-.068.051-.119a.155.155,0,0,1,.017-.119q0-.136.306-.034.034-.1-.1-.17t-.068-.136q.034-.1.136-.34t.136-.34H75q.1,0,.1-.034a.085.085,0,0,0,0-.136l-.068-.068a1.317,1.317,0,0,1,.425-.442,1.96,1.96,0,0,1,.6-.34.746.746,0,0,1,.374.646l.068.544q.034.2.051.408t.017.238a.442.442,0,0,0-.051.357,2.71,2.71,0,0,1,.017.731.753.753,0,0,1,.034.238v.221A1.054,1.054,0,0,0,76.6-.476ZM71.91-17.408a1.877,1.877,0,0,1,.8-.119.46.46,0,0,1,.289.153.669.669,0,0,1,.034.68,3.179,3.179,0,0,1-.476.51,1.02,1.02,0,0,1-.816,0A.627.627,0,0,0,71.5-16.2a.108.108,0,0,0-.085.068.213.213,0,0,1-.051.085.139.139,0,0,1-.1.034q-.374.034-1.088.17a4.3,4.3,0,0,0-1.054.306.876.876,0,0,1-.527.187,1.758,1.758,0,0,0-.425.017l-1.088.544-1.7.34a1.676,1.676,0,0,0-.425.136,2.791,2.791,0,0,1-.493.17,5.97,5.97,0,0,0-.782.085.383.383,0,0,1-.374-.085q-.238-.374-.051-.6a1.638,1.638,0,0,1,.527-.391q1.224-.408,2.295-.731t2.04-.612q.969-.289,1.9-.51T71.91-17.408ZM65.62-7.072a.937.937,0,0,1-.1-.544.419.419,0,0,1,.068-.238h-.1v-.2l.034-.068V-8.16a1.25,1.25,0,0,0-.017-.476,2.375,2.375,0,0,1,.017-.748q.068-.442.153-.884t.153-.782a.377.377,0,0,0-.017-.119l-.051-.153.136-.238q-.068,0,0-.272.034-.17.068-.289a2.892,2.892,0,0,0,.068-.357v-.136l.034-.238q.068,0,.136-.1a1.044,1.044,0,0,0-.017-.136.275.275,0,0,1,.017-.17,1.875,1.875,0,0,1,.1-.374.4.4,0,0,1,.476-.272.3.3,0,0,0,.136.034.03.03,0,0,1,.034.034.03.03,0,0,0,.034-.034.481.481,0,0,1,.255.187.518.518,0,0,1,.119.323l.136.544a1.013,1.013,0,0,0,.1.136q.034.034,0,.2-.068.34-.153.748t-.119.578a.955.955,0,0,0,.017.408,1.185,1.185,0,0,1,.051.2,2.009,2.009,0,0,1-.119.374,2.009,2.009,0,0,0-.119.374v.442q-.034.1-.068.1t-.1.068v.17a3.7,3.7,0,0,1-.187.68,2.474,2.474,0,0,1-.187.408.513.513,0,0,1-.17.2.2.2,0,0,0-.1.17v.136q0,.034.034,0a2.229,2.229,0,0,1-.34.272.447.447,0,0,1-.34.1q-.034,0-.034-.017T65.62-7.072ZM77.826-14.62a.265.265,0,0,1-.238.1q-.17,0-.2-.1a1.263,1.263,0,0,1-.051-.221.4.4,0,0,0-.068-.187q-.051-.068-.221-.034a7.079,7.079,0,0,0-.952.221q-.51.153-.68.221a.534.534,0,0,0-.323.2.374.374,0,0,1-.187.17l-.136-.068a.921.921,0,0,1-.255.153q-.187.085-.357.153a2.334,2.334,0,0,1-.476.085q-.238.017-.306-.289-.1-.17-.187-.323a.2.2,0,0,1,.017-.255,1.25,1.25,0,0,0,.255-.17.622.622,0,0,1,.255-.136q.612-.306,1.564-.731a10.675,10.675,0,0,1,2.006-.663q.068-.034.221.051t.306.187a1.9,1.9,0,0,1,.289.238q.136.136.136.2a1.428,1.428,0,0,1-.1.544A1.548,1.548,0,0,1,77.826-14.62ZM100.64-1.632a1.186,1.186,0,0,1-.663.7,2.06,2.06,0,0,1-.935.153q0-.884-.017-1.632a4.688,4.688,0,0,1,.289-1.632.3.3,0,0,0,.136-.034q.1-.068.034-.2-.136,0-.119-.255T99.382-5a1.273,1.273,0,0,1,.136-.357,1.5,1.5,0,0,0,.034-.765,7.609,7.609,0,0,1,.1-1.921q.17-.9.272-1.785,0-.374,0-.816a4.568,4.568,0,0,1,.068-.816,2.037,2.037,0,0,1,.136-.731,5.492,5.492,0,0,0,.238-.867,1.71,1.71,0,0,1,.017-.731,1.733,1.733,0,0,0,.085-.459q.136-1.054.272-2.04a11.245,11.245,0,0,1,.34-1.666,1.492,1.492,0,0,0,.034-.221v-.221l.34-.238a1.24,1.24,0,0,0,.017-.357.955.955,0,0,1,.289-.561l.238-.119a1.135,1.135,0,0,1,.306-.085.959.959,0,0,1,.323.17.34.34,0,0,0,.187.1,1.536,1.536,0,0,1,.238.493q.1.323.2.7l.1.238a.467.467,0,0,1-.1.238.332.332,0,0,0-.068.238,1.044,1.044,0,0,0,.068.357q.068.187-.2.561a.959.959,0,0,1,.136,1,8.158,8.158,0,0,0-.306,1.309q-.034.374-.068.714t-.034.714q-.068.714-.119.952a2.118,2.118,0,0,0-.051.442,2.493,2.493,0,0,0,0,.6,1.593,1.593,0,0,1-.136.8,1.332,1.332,0,0,0-.17.714,9.576,9.576,0,0,1-.136,1.326,1.109,1.109,0,0,1-.119.323,1.109,1.109,0,0,0-.119.323l.136.306a6.985,6.985,0,0,1-.119,1.5q-.153.918-.255,1.836l-.1.34-.068.136.068.1a4.878,4.878,0,0,1-.425.986A1.713,1.713,0,0,1,100.64-1.632ZM90.542-12q-.034.136-.051.221t.085.085q.272,0,.544-.017t.51-.017l.306.068a1.126,1.126,0,0,0,.238-.017.465.465,0,0,1,.1-.017,3.247,3.247,0,0,1,.459-.034h.425a1.344,1.344,0,0,1,1,.306,1.362,1.362,0,0,1,.323.884.209.209,0,0,0,.034.119.253.253,0,0,1,0,.187q-.034.1-.085.238a2.83,2.83,0,0,1-.119.272l-.374.578-.34.612-.782,1.36-.2.136-.034.238L91.9-5.678,91.63-5.1l-.034.238a1.7,1.7,0,0,0,.68,0q.238-.034.6-.1a6.948,6.948,0,0,0,.7-.17q.476-.1.782-.187t.476-.119q.1-.034.408-.153a3.986,3.986,0,0,0,.68-.357,1.112,1.112,0,0,0,.119-.068.362.362,0,0,1,.187-.034.354.354,0,0,1,.2.034v.136a.151.151,0,0,0,.017.068.121.121,0,0,1-.017.1,1.445,1.445,0,0,1-.221.306,2.073,2.073,0,0,1-.289.272.67.67,0,0,1-.238.17.427.427,0,0,0-.17.1,1.754,1.754,0,0,1-.323.153,4.246,4.246,0,0,1-.493.153l-.2.1-.238.068a.84.84,0,0,1-.272.085.84.84,0,0,0-.272.085q-.068.034-.153.085t-.153.085a.321.321,0,0,1-.187.017.32.32,0,0,0-.187.017l-.782.1a5.592,5.592,0,0,1-.85.068H90.236A.306.306,0,0,1,90-3.961a.814.814,0,0,1-.1-.493.169.169,0,0,0-.034-.17.225.225,0,0,1-.034-.2q.068-.17.1-.289t.1-.289q.374-.68.765-1.36t.867-1.36l.2-.136.1-.272q.238-.374.459-.714t.493-.714a.388.388,0,0,0,.1-.408q0-.068-.034-.068t-.1-.068a.3.3,0,0,0-.153-.085,1.68,1.68,0,0,0-.289-.017q-.272,0-.561.017t-.561.017h-.561a3.054,3.054,0,0,0-.493.034l-.544.034a2.493,2.493,0,0,1-.51.034,3.139,3.139,0,0,1-.442-.034,1.435,1.435,0,0,1-.442-.136l.034-.1a1.446,1.446,0,0,1-.136-.2l-.068-.136a.506.506,0,0,1,.051-.255q.051-.085.119-.187l.306-.714.1-.068.1-.408.476-1.224.238-.578.1-.1.034-.2L90-15.538q.2-.476-.017-.612a.739.739,0,0,0-.493-.1q-.68.068-1.275.136t-1.275.2a.354.354,0,0,1-.2-.034.369.369,0,0,0-.136-.068q-.374-.1-.289-.289a.921.921,0,0,1,.153-.255.893.893,0,0,1,.442-.2l.238-.1q.272-.068.561-.119t.731-.119q.51-.068,1.071-.1t1.071-.034a.6.6,0,0,1,.221.034.6.6,0,0,0,.221.034.851.851,0,0,1,.442.1.533.533,0,0,1,.1.136.568.568,0,0,0,.238.17.253.253,0,0,1,.068.187v.255q0,.1.1.068t.1.136a2.541,2.541,0,0,1-.238,1.088l-.238.238.136.068q-.1.272-.221.527t-.255.561q-.238.578-.408.952T90.542-12Zm37.366-7.412a.49.49,0,0,0,.34.17q.17,0,.136.374-.068.136.085.442a1.006,1.006,0,0,1,.119.578q-.034.2-.119.238t-.085.17a.1.1,0,0,1,.068.034.278.278,0,0,1,.1.17,1.616,1.616,0,0,0-.068.442,2.925,2.925,0,0,1-.068.544,1.324,1.324,0,0,1,0,.425q-.034.255-.1.629l.136.17q-.068.816-.1,1.343t-.1,1v.442q0,.408-.136.51-.17.068-.085.068t.085.238a1.319,1.319,0,0,0-.068.17,1.112,1.112,0,0,0-.068.272q-.068.782-.136,1.87t-.17,2.142a3.309,3.309,0,0,1-.17.629,2.148,2.148,0,0,0-.136.493q-.068.476-.119.85a3.01,3.01,0,0,1-.187.714.533.533,0,0,1-.1.136.283.283,0,0,0-.1.272.817.817,0,0,1-.136.578,1.581,1.581,0,0,1-.34.51.619.619,0,0,1-.323.1q-.255.034-.323.034-.238-.034-.289-.136a.8.8,0,0,0-.153-.2l-.136-.374a.189.189,0,0,0-.034-.238.194.194,0,0,1-.068-.2q0-.272-.068-.238t.068-.1q.1-.034.136-.238a2.808,2.808,0,0,0,.034-.459v-.867a.5.5,0,0,0-.017-.17.331.331,0,0,1,.017-.17l.034-.306a3.047,3.047,0,0,0,.306-1.224,11.626,11.626,0,0,0,0-1.258q-.068-.1.051-.136a.3.3,0,0,0,.187-.17.6.6,0,0,0-.085-.289.854.854,0,0,1-.017-.527.306.306,0,0,1,.1-.272q.1-.068.1-.34.034-.238-.068-.289a.145.145,0,0,1-.068-.187.2.2,0,0,1,.068-.136.73.73,0,0,0,.136-.238q-.85.17-1.751.391t-1.683.493l-.374.187a.648.648,0,0,1-.408.085h-.1v.612q0,.34-.034.816a2.379,2.379,0,0,1-.17.34.656.656,0,0,0-.1.34l.136.238a12.945,12.945,0,0,1-.119,1.53q-.119.952-.289,1.9l.034.306-.1.1.068.2a6.731,6.731,0,0,1-.493.935,1.589,1.589,0,0,1-.561.6,1.25,1.25,0,0,1-.663.714,1.857,1.857,0,0,1-1,.136q0-.884-.017-1.666a5.28,5.28,0,0,1,.255-1.666.145.145,0,0,0,.136,0q.1-.068.034-.2-.136,0-.1-.272a1.823,1.823,0,0,1,.1-.442.932.932,0,0,1,.017-.391,5.626,5.626,0,0,0,.085-.8,6.392,6.392,0,0,1,.017-1.921q.153-.9.255-1.819a4.871,4.871,0,0,0,0-.816,3.416,3.416,0,0,1,.034-.85,4.12,4.12,0,0,1,.2-.731,3.946,3.946,0,0,0,.2-.9,2.271,2.271,0,0,1,.017-.833,3.913,3.913,0,0,1,.153-.561q.1-1.054.221-2.04a8.733,8.733,0,0,1,.357-1.7v-.476l.408-.2a1.91,1.91,0,0,1-.034-.374,1,1,0,0,1,.272-.544.938.938,0,0,0,.306-.323.5.5,0,0,1,.34-.255q.17.034.289.357t.255.323a1.194,1.194,0,0,1,.2.51,3.066,3.066,0,0,0,.2.646l.17.306q0,.17-.1.2t-.17.238a.533.533,0,0,0,.085.374q.119.2-.187.578a.966.966,0,0,1,.2,1,8.079,8.079,0,0,0-.238,1.343,6.621,6.621,0,0,0-.1.8q-.034.459-.068.8a7.852,7.852,0,0,1-.085,1.02q-.051.238-.085.442,0,.1.017.289a1.848,1.848,0,0,1-.017.425,10.238,10.238,0,0,1,1.632-.527q1.122-.289,2.516-.527a2.086,2.086,0,0,0-.017-.289.662.662,0,0,1,.017-.255q.068-.51.136-.9t.119-.816q.051-.425.1-.935t.085-1.258l.068-.272h.136a.2.2,0,0,0-.068-.136.1.1,0,0,0-.068-.034.584.584,0,0,1,.1-.306.657.657,0,0,0,.1-.34v-.442a.133.133,0,0,1,.136-.1h.068a.456.456,0,0,1,.153-.238q.119-.1.255-.238.034,0,.187-.153T127.908-19.414ZM110.738-8.432a7.729,7.729,0,0,1,.374-1.938,4.763,4.763,0,0,1,.646-1.36,1.676,1.676,0,0,1,.544-.459,3.985,3.985,0,0,1,.714-.306,4.445,4.445,0,0,1,.748-.17,4.714,4.714,0,0,1,.612-.051q.306.068.561.731a5.188,5.188,0,0,1,.323,1.377,10.518,10.518,0,0,1-.017,1.36,5.94,5.94,0,0,1-.221,1.156,8.224,8.224,0,0,1-.493,1.156.96.96,0,0,1-.731.544,2.183,2.183,0,0,1-.391-.034,2.62,2.62,0,0,0-.459-.034,2.794,2.794,0,0,0-.459.051,2.794,2.794,0,0,1-.459.051.838.838,0,0,1-.561-.221,1.932,1.932,0,0,1-.425-.527,2.6,2.6,0,0,1-.255-.663A1.937,1.937,0,0,1,110.738-8.432Zm.578-13.43a.8.8,0,0,1-.051.374.411.411,0,0,0-.051.238.161.161,0,0,0,.136.17.233.233,0,0,1,.17.2,5.576,5.576,0,0,1,.034.765v.969q0,.51-.034.935a4.352,4.352,0,0,1-.136.8A2.392,2.392,0,0,0,111.3-17q-.017.17-.017.476a2.137,2.137,0,0,1-.034.34.549.549,0,0,1-.136.306,1.2,1.2,0,0,1-.765-.255,1.615,1.615,0,0,1-.391-1.139q-.17-.034-.17-.272V-17.7a1.432,1.432,0,0,0-.034-.255,3.631,3.631,0,0,0-.17-.561,3.519,3.519,0,0,1-.1-1.071,5.86,5.86,0,0,1,.136-1.241,3,3,0,0,1,.408-1.037,4.141,4.141,0,0,1,.34-.306.585.585,0,0,1,.374-.136.465.465,0,0,1,.391.153A1.762,1.762,0,0,1,111.316-21.862Zm4.216,6.9a.994.994,0,0,1-.34-.034.208.208,0,0,0-.153.051q-.051.051-.085-.085l-.544.068q-.238.068-.544.17l-.561.187q-.255.085-.425.153t-.136.068a.114.114,0,0,1-.1-.051.114.114,0,0,0-.1-.051q-.136-.068-.272.136a.544.544,0,0,1-.408.238,1.86,1.86,0,0,0-.8.153q-.323.153-.561.255l-1.8.612a.114.114,0,0,1-.1-.051.114.114,0,0,0-.1-.051.866.866,0,0,0-.476.051.4.4,0,0,1-.34.017q-.034,0-.153-.1a.265.265,0,0,1-.085-.272.844.844,0,0,1,.323-.357,3.408,3.408,0,0,1,.663-.391q1.734-.612,3.5-1.122t3.4-.816a.373.373,0,0,1,.289-.017.564.564,0,0,0,.221.051.423.423,0,0,1,.1.323q-.034.119-.1.493l-.153.153A.842.842,0,0,0,115.532-14.96Zm-3.5,5q.2.068.272.408a1.993,1.993,0,0,1-.051.408,1.178,1.178,0,0,0-.017.442.789.789,0,0,0,.085.255,1.4,1.4,0,0,0,.238.357,1.69,1.69,0,0,0,.374.306.922.922,0,0,0,.493.136,3.416,3.416,0,0,0,.221-.476q.153-.374.306-.833a8.372,8.372,0,0,0,.255-.952,2.994,2.994,0,0,0,.068-.867q0-.714-.612-.714a1.4,1.4,0,0,0-1,.459A2.4,2.4,0,0,0,112.03-9.962Zm36.21,8.33a1.186,1.186,0,0,1-.663.7,2.06,2.06,0,0,1-.935.153q0-.884-.017-1.632a4.688,4.688,0,0,1,.289-1.632.3.3,0,0,0,.136-.034q.1-.068.034-.2-.136,0-.119-.255T146.982-5a1.273,1.273,0,0,1,.136-.357,1.5,1.5,0,0,0,.034-.765,7.609,7.609,0,0,1,.1-1.921q.17-.9.272-1.785v-.816a4.569,4.569,0,0,1,.068-.816,2.037,2.037,0,0,1,.136-.731,5.494,5.494,0,0,0,.238-.867,1.054,1.054,0,0,1-.034-.255v-.221q-1.02.238-2.159.544t-2.023.578a.764.764,0,0,1-.374.2.991.991,0,0,1-.476.068,1.581,1.581,0,0,1-.918-.085q-.238-.153-.238-.255-.034-.238.221-.221a.592.592,0,0,0,.425-.119.48.48,0,0,0,.153-.153.559.559,0,0,1,.289-.187q.238-.1.731-.255t1.156-.323q.663-.17,1.445-.374t1.6-.374a1.119,1.119,0,0,1,.34-.068q.1-.986.238-1.87a10.371,10.371,0,0,1,.34-1.53,1.493,1.493,0,0,0,.034-.221v-.221l.34-.238a1.24,1.24,0,0,0,.017-.357.955.955,0,0,1,.289-.561l.238-.119a1.135,1.135,0,0,1,.306-.085.959.959,0,0,1,.323.17.34.34,0,0,0,.187.1,1.536,1.536,0,0,1,.238.493q.1.323.2.7l.1.238a.467.467,0,0,1-.1.238.332.332,0,0,0-.068.238,1.044,1.044,0,0,0,.068.357q.068.187-.2.561a.959.959,0,0,1,.136,1,8.157,8.157,0,0,0-.306,1.309q-.034.374-.068.714t-.034.714q-.068.714-.119.952a2.118,2.118,0,0,0-.051.442,2.494,2.494,0,0,0,0,.6,1.593,1.593,0,0,1-.136.8,1.332,1.332,0,0,0-.17.714,9.576,9.576,0,0,1-.136,1.326,1.109,1.109,0,0,1-.119.323,1.11,1.11,0,0,0-.119.323l.136.306a6.985,6.985,0,0,1-.119,1.5q-.153.918-.255,1.836l-.1.34-.068.136.068.1a4.878,4.878,0,0,1-.425.986A1.713,1.713,0,0,1,148.24-1.632ZM133.314-5.984a3.145,3.145,0,0,1,.1-.374.954.954,0,0,1,.238-.374q-.17-.136-.17-.17a1.112,1.112,0,0,1,.068-.119.362.362,0,0,0,.034-.187.139.139,0,0,0,.034-.1.815.815,0,0,0,.17-.476v-.306q.068-.2.221-.714t.357-1.139q.2-.629.442-1.292t.442-1.173a.069.069,0,0,1,.017-.051.069.069,0,0,0,.017-.051.56.56,0,0,0-.034-.17,1.319,1.319,0,0,0-.068-.17l.306-.442q.068-.238.34-.884t.442-1.122l.136-.272q.1,0,.136-.238t.085-.51a1.419,1.419,0,0,1,.2-.51.48.48,0,0,1,.493-.2.8.8,0,0,1,.374.17,1.114,1.114,0,0,1,.17.136h.1a.829.829,0,0,0,.085.255q.051.085.119.187v.1a.363.363,0,0,0,0,.221.363.363,0,0,1,0,.221.379.379,0,0,1-.034.17l-.2,1.156q0,.034-.017.034t-.017.034v.306q-.068.17-.2.629t-.323,1.02L137-11.271q-.187.561-.323.935a4.086,4.086,0,0,1-.17.527q-.1.255-.272.8a1.022,1.022,0,0,0-.153.374,4.419,4.419,0,0,1-.221.612.1.1,0,0,1-.068-.034l-.068-.068a.03.03,0,0,0-.034.034v.034a.069.069,0,0,1-.017.051.069.069,0,0,0-.017.051.387.387,0,0,1-.119.34q-.153.17-.289.306a1.1,1.1,0,0,0-.17.595.774.774,0,0,1-.136.493.839.839,0,0,1-.306.289.361.361,0,0,0-.2.323.154.154,0,0,0,.034.17.1.1,0,0,1,.034.068q-.136.034-.391.085a.794.794,0,0,1-.357.017,1.069,1.069,0,0,1-.17-.017,1.069,1.069,0,0,0-.17-.017.139.139,0,0,1-.1.034Zm9.69-.1a4.032,4.032,0,0,0-.442-.1.949.949,0,0,1-.442-.238l-.306-.17a.213.213,0,0,0-.085-.051.933.933,0,0,1-.119-.051.3.3,0,0,0-.136-.034,1.041,1.041,0,0,0-.34-.119.8.8,0,0,1-.408-.221,4.2,4.2,0,0,1-.663-.6q-.289-.323-.527-.595L139.2-8.4l-.068-.17a1.743,1.743,0,0,1-.408-.374q-.272-.306-.442-.51l-.2-.068q-.17-.34-.1-.459a.492.492,0,0,0-.034-.391.955.955,0,0,0-.017-.187q-.017-.085.153-.255a.138.138,0,0,1,.17-.068q.1.034.068-.034a1.572,1.572,0,0,1,.187-.051q.085-.017.221-.051a.366.366,0,0,0,.2.068.581.581,0,0,1,.272.1l.408.272.17.085.17.085q.272.17.612.408a3.952,3.952,0,0,1,.51.408q0,.1.2.289t.34.119a.368.368,0,0,1,.187.238.625.625,0,0,0,.221.306q0,.068.2.17a.575.575,0,0,1,.272.238.1.1,0,0,0-.068.034.2.2,0,0,0-.068.136h.1a.2.2,0,0,1,.136.034q.068.034.136.272a.968.968,0,0,0,.221.323l.221.221a.275.275,0,0,1,.034.221.18.18,0,0,0,0,.153q0,.068.1.068h.068q.034.068-.068.2a.885.885,0,0,0-.136.238q-.068.1-.085.136A.484.484,0,0,1,143-6.086Z" transform="translate(960 208)"/></g></svg>