<svg xmlns="http://www.w3.org/2000/svg" width="119.563" height="25.201" viewBox="0 0 119.563 25.201">
  <path id="패스_1144" data-name="패스 1144" d="M-42.738-19.924a1.39,1.39,0,0,1,.357.272.7.7,0,0,1,.051.544.905.905,0,0,0,.1.408q.068.17.119.323a.407.407,0,0,1,.017.255.688.688,0,0,1-.17.578l.1.238a2.111,2.111,0,0,0-.034.408v.646l.136.272-.2,1.836a3.706,3.706,0,0,0-.068.782,1.406,1.406,0,0,1-.17.748l.034.272a.642.642,0,0,1-.034.2l-.068.2q-.068.816-.1,1.734t-.1,1.734a3.064,3.064,0,0,1-.153.425q-.085.187-.153.357a1.339,1.339,0,0,0-.2.544l-.2.578-.068.34-.068.34L-44-5.61a1.706,1.706,0,0,1-.357.9,1.7,1.7,0,0,1-1.037.7,1.381,1.381,0,0,1-.663-.1,1.231,1.231,0,0,1-.323-.374l-.1-.136-.068-.442-.068-.2-.068-.408q-.238-.238-.068-.425t.272-.289l-.034-.51v-.51l-.034-.17-.034-.238.2-.374q.034-.476.068-.884t.068-.884a.411.411,0,0,1,.051-.238,1.277,1.277,0,0,1,.119-.136,1.635,1.635,0,0,1-.119-.357,1.2,1.2,0,0,1,.017-.527,1.664,1.664,0,0,1,.442-.646l-.068-.068a.521.521,0,0,1-.238-.442.313.313,0,0,1,.153-.272.77.77,0,0,0,.255-.306.134.134,0,0,0-.017-.085q-.017-.017.017-.085-.952.374-1.887.765t-1.513.6q-.17.068-.408.153a3,3,0,0,1-.408.119,1.359,1.359,0,0,1-.952-.187.8.8,0,0,1-.272-.493q-.034-.408.136-.459a3.049,3.049,0,0,1,.374-.085l.2-.136.153-.153.153-.153q.17-.068.646-.272t1.122-.459q.646-.255,1.377-.527t1.411-.51q.1-.782.2-1.258.068-.34.1-.646t.068-.68q0-.068.017-.289t.017-.289q.034-.136.068-.255t.1-.289v-.289a.644.644,0,0,1,.034-.255.877.877,0,0,1,.391-.493,1.388,1.388,0,0,1,.6-.255q.17-.136.391-.323t.527.119ZM-54.91-18.19a.98.98,0,0,1,.85.289,1.427,1.427,0,0,1,.442.867,11.592,11.592,0,0,1,0,1.258l-.238.136a.771.771,0,0,1-.068.612l-.136.306a.377.377,0,0,1-.017.119.28.28,0,0,0-.017.085v.068l-.34,1.02q0,.272-.1.306l-.2.272-.238.884a3.436,3.436,0,0,1-.187.544q-.119.272-.357.748a3.672,3.672,0,0,0-.238.663,3.64,3.64,0,0,1-.34.8q-.2.51-.374,1.02a5.47,5.47,0,0,1-.442.986,2.823,2.823,0,0,1-.153.323,2.823,2.823,0,0,0-.153.323.491.491,0,0,1-.153.153.79.79,0,0,0-.153.119q-.034.068-.119.289A.474.474,0,0,1-58-5.712a1.747,1.747,0,0,1-.85.1,2.131,2.131,0,0,1-.408-.544,1.137,1.137,0,0,1-.153-.493.456.456,0,0,1,.255-.425v-.17l.272-.442-.034-.34.408-.578q.2-.51.374-.952t.374-.952l.136-.238v-.17q.2-.578.34-.969t.221-.646l.153-.459.136-.408a8.636,8.636,0,0,0,.391-1.1,15.822,15.822,0,0,0,.425-1.751q-.578.2-.782.272t-.374.136a.427.427,0,0,0-.17.1l-.119.119a.208.208,0,0,1-.153.051,5.022,5.022,0,0,0-1.19.476,1.077,1.077,0,0,1-.476.034.478.478,0,0,1-.34-.136.787.787,0,0,1-.255-.952,1.187,1.187,0,0,1,.663-.68q.306-.136.51-.2t.374-.136q.2-.068.459-.17l.425-.17.374-.17.136-.034q.476-.17.918-.289A7.14,7.14,0,0,1-54.91-18.19ZM-47.4-1.054l.884-.17.34.034.374-.1,1.122-.255.527-.119.238-.051a2.823,2.823,0,0,0,.289-.085q.578.136.595.425a1.852,1.852,0,0,1-.051.561l-.034.306-.408.2q-.476.17-1.343.391t-1.615.357l-.816.272a2.339,2.339,0,0,1-.612.119q-.306.017-.578.051t-.51.068a2.448,2.448,0,0,0-.51.136,1.221,1.221,0,0,1-.765-.646,2.563,2.563,0,0,1-.119-.782,2.294,2.294,0,0,0,.051-.272,2.294,2.294,0,0,1,.051-.272,5.665,5.665,0,0,1,.153-.561,2.009,2.009,0,0,0,.085-.629l.1-.408.17-.34.136-.374a1.534,1.534,0,0,1,.238-.323,4.152,4.152,0,0,1,.391-.374q.221-.187.425-.34a.96.96,0,0,1,.374-.187,1.187,1.187,0,0,1,.527.408,1.245,1.245,0,0,1,.187.544,6.352,6.352,0,0,1,.085.68,2.36,2.36,0,0,1-.017.782l.034.646Zm-3.876-3.162a1.375,1.375,0,0,1-.782-.442q-.2-.034-.306-.374l-.2-.1a.261.261,0,0,0-.1-.034q-.068-.1-.238-.323t-.374-.527l-.408-.612a2.88,2.88,0,0,1-.306-.578l-.272-.2-.136-.306a1.28,1.28,0,0,1-.306-.51q-.034-.068-.136-.238t-.272-.51a1.158,1.158,0,0,1-.136-.714.675.675,0,0,1,.476-.612.6.6,0,0,1,.17-.051.3.3,0,0,0,.17-.085,1.582,1.582,0,0,1,.918.068,1.152,1.152,0,0,1,.374.17l.306.374q.17.068.221.085a1.351,1.351,0,0,1,.255.187q.272.272.561.6a1.159,1.159,0,0,1,.323.629.888.888,0,0,1,.136.187,2.34,2.34,0,0,1,.136.289.675.675,0,0,1,.068.306l.034.034a.266.266,0,0,1,.051.068.484.484,0,0,0,.085.1.8.8,0,0,1,.17.272q.068.17.238.646l-.034.034a1.14,1.14,0,0,0,.272.646q-.034.136-.051.221a.5.5,0,0,0,.051.255l.034.34-.374.476a1.9,1.9,0,0,0-.255.153A.615.615,0,0,1-51.272-4.216Zm25.33-6.256a.734.734,0,0,1-.442,0,1.39,1.39,0,0,0-.442-.068l-.646.068q-.442.068-.918.153t-.918.153a2.578,2.578,0,0,0,.17.476A1.207,1.207,0,0,1-29-9.146a3.755,3.755,0,0,1,0,.714q-.034.374-.068.612-.034.272-.068.51a2.527,2.527,0,0,1-.1.442,5.66,5.66,0,0,0-.2,1.054A1.365,1.365,0,0,1-29.8-4.777a1.908,1.908,0,0,1-.765.357.847.847,0,0,1-.561-.068,1.456,1.456,0,0,1-.425-.238A1.181,1.181,0,0,1-31.79-5.1a1.107,1.107,0,0,1-.1-.306q0-.1,0-.306a1.386,1.386,0,0,1,.1-.476,3.736,3.736,0,0,1,.051-.918q.085-.51.2-1.02a9.54,9.54,0,0,1,.272-.952q.153-.442.255-.748h-.068l-.068.068a3.582,3.582,0,0,1-.306.2.851.851,0,0,1-.442.1,1.659,1.659,0,0,0-.68.068q-.306.1-.544.2l-.442.17-2.38.646a.823.823,0,0,1-.476-.1A.451.451,0,0,0-36.7-8.5q-.119.034-.221.068a.474.474,0,0,1-.2.034h-.238q-.136,0-.408-.255a.541.541,0,0,1-.136-.629,1,1,0,0,1,.544-.578,4.3,4.3,0,0,1,.952-.408q1.122-.34,2.4-.663t2.618-.629q1.343-.306,2.686-.544t2.533-.374a.713.713,0,0,1,.34-.051,2.15,2.15,0,0,1,.306.051.559.559,0,0,1,.136.017.465.465,0,0,0,.1.017,1.311,1.311,0,0,1,.136.986.607.607,0,0,0-.051.153q-.017.085-.085.459a.521.521,0,0,0-.442.238Zm-2.72-5.372a.79.79,0,0,1,.629.1.5.5,0,0,1,.221.408,1.642,1.642,0,0,1-.1.782,1.135,1.135,0,0,1-.374.476.425.425,0,0,1-.34.153.818.818,0,0,1-.34-.119,1.951,1.951,0,0,1-.459.068.715.715,0,0,0-.323.068.251.251,0,0,1-.238.119,2.486,2.486,0,0,0-.306-.017q-.2.034-.561.119l-.714.17q-.357.085-.663.187t-.442.136a.775.775,0,0,1-.306.17,1.077,1.077,0,0,1-.476.034,1.077,1.077,0,0,1-.391-.051q-.119-.051-.187-.357a1.131,1.131,0,0,1,.119-.816,1.337,1.337,0,0,1,.459-.374q.442-.17.935-.306t.969-.306q.1-.34.187-.7t.153-.663a.419.419,0,0,0,.068-.238,1.182,1.182,0,0,1,.051-.527l.153-.459q.1-.408.17-.748l.2-1.088a8.087,8.087,0,0,0-.748.357q-.272.153-.714.357a.73.73,0,0,0-.238.136,1.4,1.4,0,0,0-.2.119.388.388,0,0,1-.272.017,2.106,2.106,0,0,1-.459-.085q-.323-.085-.289-.527a1.266,1.266,0,0,1,.476-.918l.272-.272q.544-.272,1.581-.731a19.113,19.113,0,0,1,1.887-.731.62.62,0,0,1,.544.1,2.22,2.22,0,0,1,.238.2,1.351,1.351,0,0,0,.2.17,1.326,1.326,0,0,1,.221.153q.051.051.017.391a.452.452,0,0,0,.034.238,1.432,1.432,0,0,1,.034.255v.153l-.1.782q-.374,1.36-.646,2.227t-.442,1.479Zm-8.024,2.924a2.458,2.458,0,0,1-.272-.391,1.115,1.115,0,0,1-.1-.527q-.136-.034-.136-.51a.069.069,0,0,1,.017-.051.069.069,0,0,0,.017-.051.59.59,0,0,0,.017-.238q-.017-.1-.051-.238-.034-.17-.068-.442a4.4,4.4,0,0,1,0-.782q.034-.306.068-.646t.1-.68q.034-.272.051-.476a1.973,1.973,0,0,0-.017-.442.253.253,0,0,1-.068-.187.7.7,0,0,0-.034-.221l.136-.306v-.238q0-.1.017-.323a3.305,3.305,0,0,1,.051-.391,2.356,2.356,0,0,0,.1-.68l.034-.476.068-.1.034-.272a1.453,1.453,0,0,1,.051-.34.97.97,0,0,1,.187-.374,1.237,1.237,0,0,1,.391-.306,1.19,1.19,0,0,1,.663-.1h.238a1.133,1.133,0,0,1,.68.374,1.424,1.424,0,0,1,.34.578l.1.408a2.584,2.584,0,0,1,.1.425,2.459,2.459,0,0,1,.034.357q0,.272-.017.629a3.249,3.249,0,0,1-.085.629,2.289,2.289,0,0,1-.034.374,2.046,2.046,0,0,0-.034.306.622.622,0,0,0,0,.289.75.75,0,0,0,.1.255.237.237,0,0,0,.017.1.237.237,0,0,1,.017.1.139.139,0,0,0,.034.1,4.088,4.088,0,0,0-.272,1.054,1.013,1.013,0,0,0-.017.306,1.069,1.069,0,0,1,.017.17,1.571,1.571,0,0,0-.051.187.931.931,0,0,1-.119.255,2.741,2.741,0,0,1-.238,1.037q-.2.425-.442.9a.8.8,0,0,1,.1.34v.136a4.183,4.183,0,0,1-.765.391,1.579,1.579,0,0,1-.7.187Zm5.3,12.376q.272-.068.425-.119a1.854,1.854,0,0,0,.221-.085l.476-.1a5.819,5.819,0,0,0,.595-.187,5.819,5.819,0,0,1,.6-.187l.884-.238.51-.17q.68.068.8.425a4.8,4.8,0,0,1,.187.833l-.34.17-.1.1a1.854,1.854,0,0,0-.136.153.359.359,0,0,1-.17.119l-.306.136q-.578.2-1.377.493t-1.547.527a1.764,1.764,0,0,0-.391.051,2.681,2.681,0,0,0-.391.119,1,1,0,0,0-.306.238,1.982,1.982,0,0,1-.714.459q-.408.153-.85.289a.941.941,0,0,1-.561-.34,2.172,2.172,0,0,1-.357-.663,3.243,3.243,0,0,1-.17-.8q-.034-.408-.034-.782a2.326,2.326,0,0,1,.051-.544q.051-.2.255-.782a1.019,1.019,0,0,1,.17-.544q.034-.1.068-.238t.068-.306q.068-.238.221-.646a1.466,1.466,0,0,1,.527-.68l.578-.238q.646.068.782.289a.922.922,0,0,1,.136.493q.034.748.068,1.309t.1,1.071Zm23.834-2.55.34-1.768q.068-.374.119-.663T-7-6.069q.034-.255.085-.527t.119-.68q-.51.17-.935.323t-.765.289l-1.428.51a1.351,1.351,0,0,1-.2.17.556.556,0,0,1-.306.068,2.675,2.675,0,0,1-.425-.068q-.323-.068-.323-.51a1.129,1.129,0,0,1,.1-.442,1.541,1.541,0,0,1,.408-.51,2.822,2.822,0,0,1,.612-.34q.51-.238,1.224-.51a.787.787,0,0,1-.1-.17l-.034-.374a.274.274,0,0,0-.1-.221q-.1-.085-.1-.391l.238-1.156v-.408a.237.237,0,0,0-.017-.1,1.25,1.25,0,0,1-.051-.136l.2-.374q.034-.306.085-.612a1.568,1.568,0,0,1,.221-.578.505.505,0,0,1-.136-.374.835.835,0,0,1,.068-.306l.136-.34q.1-.17.238-.374a.385.385,0,0,0-.1-.255.34.34,0,0,1-.1-.187.436.436,0,0,1,.272-.408.184.184,0,0,1,.068-.085.054.054,0,0,0,.034-.051v-.034a1.7,1.7,0,0,1,.136-.306q-.952.374-1.887.765t-1.513.6q-.17.068-.408.153a3,3,0,0,1-.408.119,1.359,1.359,0,0,1-.952-.187.8.8,0,0,1-.272-.493q-.034-.408.136-.459a3.049,3.049,0,0,1,.374-.085l.2-.136.153-.153.153-.153q.17-.068.646-.272t1.139-.459q.663-.255,1.394-.544t1.411-.493l.17-.68a6.1,6.1,0,0,1,.17-.748,3.006,3.006,0,0,0,.1-.85l.068-.578a1.088,1.088,0,0,1,.17-.476v-.408a.734.734,0,0,1,.221-.357,2.888,2.888,0,0,1,.442-.357,2.789,2.789,0,0,1,.51-.272,1.253,1.253,0,0,1,.459-.1.423.423,0,0,1,.306.136q.272,0,.374.357a4.034,4.034,0,0,0,.272.7,2.288,2.288,0,0,1,.17.816,1.486,1.486,0,0,1-.034.323q-.034.153-.068.357a.738.738,0,0,0-.034.391,1.32,1.32,0,0,1-.068.561q.034.136.051.238t.051.238l-.136.918q-.034.442-.051.595a1.869,1.869,0,0,1-.034.221.665.665,0,0,1-.051.136,1.244,1.244,0,0,0-.068.306v.136a1.068,1.068,0,0,0,.017.17,1.069,1.069,0,0,1,.017.17,1.064,1.064,0,0,1-.034.289.229.229,0,0,1-.1.153l-.068.34q-.068.612-.17,1.343t-.17,1.377a5.644,5.644,0,0,1-.357.816,3.7,3.7,0,0,0-.221.442l-.34.816-.34.578a.787.787,0,0,1-.1.17q.34-.1.646-.187t.578-.153a.378.378,0,0,1,.17-.034.423.423,0,0,1,.306.136.151.151,0,0,1,.068.017.151.151,0,0,0,.068.017.1.1,0,0,0,.068.034l.238.238q.17,0,.272.391a2.7,2.7,0,0,1,.1.663l-.034.68q-.2,1.258-.272,1.734t-.085.629l-.017.153-.034.272-.1.68a1.217,1.217,0,0,1-.034.255,1.217,1.217,0,0,0-.034.255l-.238.306.17.17a.231.231,0,0,1,.068.17,2,2,0,0,1-.136.476.909.909,0,0,1-.238.476,6.2,6.2,0,0,1-.51.578l-.306.306a2.478,2.478,0,0,0-.408.034,2.289,2.289,0,0,1-.374.034.872.872,0,0,1-.68-.306,1.657,1.657,0,0,1-.272-1.088Zm-8.806-15.912a1.067,1.067,0,0,1,1.037.476,1.842,1.842,0,0,1,.255.85,6.411,6.411,0,0,1-.1,1.02l-.238.1v.068a3.414,3.414,0,0,1-.17.544,9.926,9.926,0,0,1-.748,1.462,1.359,1.359,0,0,0-.306.459q-.1.255-.187.51t-.187.527a1.437,1.437,0,0,1-.34.51l-.272.136v.136a.96.96,0,0,1-.187.374q-.153.2-.527.816-.306.51-.646,1.071t-.714,1.1l-.374.306a.687.687,0,0,1-.408.357,1.464,1.464,0,0,1-.578.153l-.136-.017a.807.807,0,0,1-.306-.119,1.09,1.09,0,0,1-.323-.323,1.029,1.029,0,0,1-.153-.6.437.437,0,0,1,.306-.408v-.2l.34-.374-.034-.238a2.657,2.657,0,0,0,.816-1q.306-.629.646-1.207l.17-.17q.578-1.088,1.173-2.244A19.107,19.107,0,0,0-17.51-17.34q-.51.1-.867.153a2.465,2.465,0,0,0-.527.119q-.306.1-.442.136a1.474,1.474,0,0,0-.221.051q-.187.051-.408.1l-.442.1q-.221.051-.323.085a1.116,1.116,0,0,1-.816-.221.674.674,0,0,1-.2-.459.815.815,0,0,1,.255-.595,1.387,1.387,0,0,1,.629-.357h.17a3.648,3.648,0,0,1,.833-.221,4.276,4.276,0,0,0,.8-.187A10.092,10.092,0,0,1-17.7-18.9Q-17.1-18.972-16.354-19.006Zm3.74,10.948a.783.783,0,0,1-.306-.1,3.8,3.8,0,0,1-.408-.238q-.2-.136-.374-.255l-.17-.119a2.687,2.687,0,0,1-.561-.493,4.364,4.364,0,0,1-.493-.663,1.568,1.568,0,0,0-.153-.187q-.187-.221-.255-.289l-.034-.136a1.067,1.067,0,0,1-.289-.391q-.119-.255-.187-.425l-.2-.2a1.765,1.765,0,0,0-.068-.221.5.5,0,0,1-.034-.187v-.442a.151.151,0,0,0-.017-.068.237.237,0,0,1-.017-.1,1.264,1.264,0,0,1,.034-.306.843.843,0,0,1,.238-.34l.272-.272a1.064,1.064,0,0,0,.289-.034,1.064,1.064,0,0,1,.289-.034,1.129,1.129,0,0,0,.2.085,1.018,1.018,0,0,1,.272.187l.2.2a1.148,1.148,0,0,1,.238.221q.17.187.34.391t.306.374l.136.17q.2.374.425.714t.391.646q.238.578.34.9a1.313,1.313,0,0,1,.034.663,3.47,3.47,0,0,1-.238.85Zm26.656,4.93A4.906,4.906,0,0,1,13.6-2.074a2.156,2.156,0,0,1-.612.714,1.442,1.442,0,0,1-.9.782,3.053,3.053,0,0,1-1.275.136V-1.5a9,9,0,0,1,.017-1.224,5.794,5.794,0,0,1,.323-1.462.505.505,0,0,1-.034-.323A2.865,2.865,0,0,0,11.152-5a.416.416,0,0,1,.1-.306,1.086,1.086,0,0,0,.068-.255,2.008,2.008,0,0,0,0-.527,9.688,9.688,0,0,1,.034-1.428q.068-.646.17-1.292a4.588,4.588,0,0,0,.1-.544q.034-.272.068-.51v-1a2.774,2.774,0,0,1,.068-.663,2.445,2.445,0,0,1,.2-.884,1.243,1.243,0,0,0,.085-.323,1.774,1.774,0,0,1,.085-.357.917.917,0,0,1-.017-.459q.051-.187.085-.357a.424.424,0,0,0,.034-.187v-.187q.136-1.088.272-2.091a11.214,11.214,0,0,1,.34-1.683.937.937,0,0,0,.034-.187q0-.051,0-.323l.34-.238a1.764,1.764,0,0,1,.051-.391,1.807,1.807,0,0,1,.391-.629,1.646,1.646,0,0,1,.323-.153q.153-.051.459-.119a1.1,1.1,0,0,1,.272.085.647.647,0,0,1,.17.119.277.277,0,0,0,.2.068,3.206,3.206,0,0,1,.374.7q.136.357.238.731l.1.272a.484.484,0,0,1-.085.289.431.431,0,0,0-.085.255l.034.1a1.52,1.52,0,0,1,.034.357,1.12,1.12,0,0,1-.136.493,1.2,1.2,0,0,1,.119.714,5.174,5.174,0,0,1-.187.816q-.068.238-.1.408l-.068.34a1.805,1.805,0,0,1-.017.255,1.805,1.805,0,0,0-.017.255q-.034.238-.051.459t-.017.493q-.068.476-.085.7a3.306,3.306,0,0,1-.051.391,1.118,1.118,0,0,0-.034.272v.306q0,.272-.017.612a1.967,1.967,0,0,1-.187.714.872.872,0,0,0-.085.306q-.017.17-.051.442a3.054,3.054,0,0,0-.034.493,3.223,3.223,0,0,1-.068.629.741.741,0,0,1-.119.289.748.748,0,0,0-.119.255,1.319,1.319,0,0,1,.068.17,1.319,1.319,0,0,0,.068.17,2.755,2.755,0,0,1-.034.952q-.1.544-.17,1.156-.068.34-.1.612t-.068.612l-.17.476ZM.068-7.31a1.73,1.73,0,0,0-.034-.34A2.331,2.331,0,0,1,0-8.092l.1-.34a1.558,1.558,0,0,1,0-1.02A2.629,2.629,0,0,0,.17-9.707,1.217,1.217,0,0,0,.2-9.962Q.17-10.03.119-10.149T.2-10.472v-.1a11.879,11.879,0,0,1,.357-1.309q.221-.663.459-1.343A3.265,3.265,0,0,1,3.026-15.2a1.147,1.147,0,0,1,.629-.085.663.663,0,0,1,.459.323.365.365,0,0,1,.017.357,1.433,1.433,0,0,1-.323.289l-.2.136a1.991,1.991,0,0,0-.272.238,1.845,1.845,0,0,0-.34.68.873.873,0,0,1,.289-.017,1.405,1.405,0,0,0,.187.017q.442.068.527.289a1.112,1.112,0,0,0,.255.391.748.748,0,0,1,.408.17,1.624,1.624,0,0,1,.442.527,3.2,3.2,0,0,1,.323.935,6.819,6.819,0,0,1,.119,1.36A5.809,5.809,0,0,1,3.876-5.406a1.191,1.191,0,0,1-.561.34Q3.026-5,2.652-4.9a1.457,1.457,0,0,1-.51.1,1.579,1.579,0,0,1-1.054-.374,2.476,2.476,0,0,1-.51-.51,6.558,6.558,0,0,1-.323-.833A6.3,6.3,0,0,1,.068-7.31Zm2.89-3.842h-.17a.784.784,0,0,0-.272.068,19.152,19.152,0,0,0-.1,1.972,8.139,8.139,0,0,0,.068,1.105,1.964,1.964,0,0,0,.238.765.1.1,0,0,0,.034.068.03.03,0,0,0,.034.034.294.294,0,0,0,.2-.1,2.612,2.612,0,0,0,.6-1.02,3.785,3.785,0,0,0,.221-1.224,3.25,3.25,0,0,0-.153-1.156A.927.927,0,0,0,2.958-11.152ZM36.142-3.468A4.906,4.906,0,0,1,35.7-2.414a2.156,2.156,0,0,1-.612.714,1.442,1.442,0,0,1-.9.782,3.053,3.053,0,0,1-1.275.136V-1.836a9,9,0,0,1,.017-1.224,5.794,5.794,0,0,1,.323-1.462.506.506,0,0,1-.034-.323,2.865,2.865,0,0,0,.034-.493.416.416,0,0,1,.1-.306,1.086,1.086,0,0,0,.068-.255,2.008,2.008,0,0,0,0-.527,9.688,9.688,0,0,1,.034-1.428q.068-.646.17-1.292a4.587,4.587,0,0,0,.1-.544q.034-.272.068-.51v-.272q0-.34,0-.731a2.774,2.774,0,0,1,.068-.663,2.708,2.708,0,0,1,.17-.782q-.612.2-1.292.408t-1.292.408q-.612.2-1.1.374t-.765.272a1.067,1.067,0,0,1-.425.255,1.4,1.4,0,0,1-.425.085q-.748,0-.969-.289a.931.931,0,0,1-.221-.561q0-.408.17-.459t.374-.119a.278.278,0,0,0,.17-.1,1.511,1.511,0,0,1,.187-.153.48.48,0,0,0,.153-.153q.17-.068.816-.289t1.5-.476q.85-.255,1.785-.527t1.649-.476v-.17q.136-1.088.272-2.091a11.214,11.214,0,0,1,.34-1.683.937.937,0,0,0,.034-.187V-18.9l.34-.238a1.764,1.764,0,0,1,.051-.391,1.807,1.807,0,0,1,.391-.629,1.646,1.646,0,0,1,.323-.153q.153-.051.459-.119a1.1,1.1,0,0,1,.272.085.647.647,0,0,1,.17.119.277.277,0,0,0,.2.068,3.206,3.206,0,0,1,.374.7q.136.357.238.731l.1.272a.484.484,0,0,1-.085.289.431.431,0,0,0-.085.255l.034.1a1.52,1.52,0,0,1,.034.357,1.12,1.12,0,0,1-.136.493,1.2,1.2,0,0,1,.119.714,5.173,5.173,0,0,1-.187.816q-.068.238-.1.408l-.068.34a1.805,1.805,0,0,1-.017.255,1.805,1.805,0,0,0-.017.255q-.034.238-.051.459t-.017.493q-.068.476-.085.7a3.306,3.306,0,0,1-.051.391,1.118,1.118,0,0,0-.034.272v.306q0,.272-.017.612a1.967,1.967,0,0,1-.187.714.872.872,0,0,0-.085.306q-.017.17-.051.442a3.054,3.054,0,0,0-.034.493,3.222,3.222,0,0,1-.068.629.74.74,0,0,1-.119.289.748.748,0,0,0-.119.255,1.319,1.319,0,0,1,.068.17,1.319,1.319,0,0,0,.068.17,2.755,2.755,0,0,1-.034.952q-.1.544-.17,1.156-.068.34-.1.612t-.068.612l-.17.476ZM19.788-7.99a1.73,1.73,0,0,0-.034-.34,2.331,2.331,0,0,1-.034-.442l.1-.34a1.558,1.558,0,0,1,0-1.02,2.629,2.629,0,0,0,.068-.255,1.217,1.217,0,0,0,.034-.255q-.034-.068-.085-.187t.085-.323v-.1a11.88,11.88,0,0,1,.357-1.309q.221-.663.459-1.343a3.265,3.265,0,0,1,2.006-1.972,1.147,1.147,0,0,1,.629-.085.663.663,0,0,1,.459.323.365.365,0,0,1,.017.357,1.433,1.433,0,0,1-.323.289l-.2.136a1.991,1.991,0,0,0-.272.238,1.845,1.845,0,0,0-.34.68A.873.873,0,0,1,23-13.957a1.406,1.406,0,0,0,.187.017q.442.068.527.289a1.112,1.112,0,0,0,.255.391.748.748,0,0,1,.408.17,1.624,1.624,0,0,1,.442.527,3.2,3.2,0,0,1,.323.935,6.819,6.819,0,0,1,.119,1.36A5.809,5.809,0,0,1,23.6-6.086a1.191,1.191,0,0,1-.561.34q-.289.068-.663.17a1.457,1.457,0,0,1-.51.1,1.579,1.579,0,0,1-1.054-.374,2.476,2.476,0,0,1-.51-.51,6.558,6.558,0,0,1-.323-.833A6.3,6.3,0,0,1,19.788-7.99Zm2.89-3.842h-.17a.784.784,0,0,0-.272.068,19.152,19.152,0,0,0-.1,1.972A8.139,8.139,0,0,0,22.2-8.687a1.964,1.964,0,0,0,.238.765.1.1,0,0,0,.034.068.03.03,0,0,0,.034.034.294.294,0,0,0,.2-.1,2.612,2.612,0,0,0,.6-1.02,3.785,3.785,0,0,0,.221-1.224,3.25,3.25,0,0,0-.153-1.156A.927.927,0,0,0,22.678-11.832ZM57.9-3.468a4.906,4.906,0,0,1-.442,1.054,2.156,2.156,0,0,1-.612.714,1.442,1.442,0,0,1-.9.782,3.053,3.053,0,0,1-1.275.136V-1.836a9,9,0,0,1,.017-1.224,5.794,5.794,0,0,1,.323-1.462.506.506,0,0,1-.034-.323,2.865,2.865,0,0,0,.034-.493.416.416,0,0,1,.1-.306,1.086,1.086,0,0,0,.068-.255,2.008,2.008,0,0,0,0-.527,9.688,9.688,0,0,1,.034-1.428q.068-.646.17-1.292a4.587,4.587,0,0,0,.1-.544q.034-.272.068-.51v-.272q0-.34,0-.731a2.774,2.774,0,0,1,.068-.663,2.445,2.445,0,0,1,.2-.884.6.6,0,0,0,.068-.272q-.578.17-1.156.323t-1.1.306q-.527.153-.952.272a5.586,5.586,0,0,0-.663.221,1.142,1.142,0,0,1-.425.2,1.71,1.71,0,0,1-.425.068q-.748-.034-.952-.323a1.252,1.252,0,0,1-.238-.561q.034-.408.2-.459a3.049,3.049,0,0,1,.374-.085q.068,0,.2-.136a.888.888,0,0,1,.187-.136.369.369,0,0,0,.153-.136q.17-.068.7-.221t1.241-.34q.714-.187,1.53-.391t1.53-.374q.136-1.02.272-1.989a10.164,10.164,0,0,1,.34-1.615.937.937,0,0,0,.034-.187V-18.9l.34-.238a1.764,1.764,0,0,1,.051-.391,1.807,1.807,0,0,1,.391-.629,1.646,1.646,0,0,1,.323-.153q.153-.051.459-.119a1.1,1.1,0,0,1,.272.085.647.647,0,0,1,.17.119.277.277,0,0,0,.2.068,3.206,3.206,0,0,1,.374.7q.136.357.238.731l.1.272a.484.484,0,0,1-.085.289.431.431,0,0,0-.085.255l.034.1a1.52,1.52,0,0,1,.034.357,1.12,1.12,0,0,1-.136.493,1.2,1.2,0,0,1,.119.714,5.173,5.173,0,0,1-.187.816q-.068.238-.1.408l-.068.34a1.805,1.805,0,0,1-.017.255,1.805,1.805,0,0,0-.017.255q-.034.238-.051.459t-.017.493q-.068.476-.085.7a3.306,3.306,0,0,1-.051.391,1.118,1.118,0,0,0-.034.272v.306q0,.272-.017.612a1.967,1.967,0,0,1-.187.714.872.872,0,0,0-.085.306q-.017.17-.051.442a3.054,3.054,0,0,0-.034.493,3.222,3.222,0,0,1-.068.629.74.74,0,0,1-.119.289.748.748,0,0,0-.119.255,1.319,1.319,0,0,1,.068.17,1.319,1.319,0,0,0,.068.17,2.755,2.755,0,0,1-.034.952q-.1.544-.17,1.156-.068.34-.1.612T58-4.148l-.17.476ZM41.344-6.018a2.219,2.219,0,0,1,.238-.646.34.34,0,0,1,0-.408A.151.151,0,0,1,41.6-7.14a.667.667,0,0,0,.017-.2l.034-.068a.735.735,0,0,0,.17-.374v-.306a1.086,1.086,0,0,0,.068-.255,2.855,2.855,0,0,1,.1-.391q.238-.68.595-1.768t.731-2.006a1.618,1.618,0,0,1-.1-.442l.306-.476a1.677,1.677,0,0,0,.153-.34,4.636,4.636,0,0,1,.221-.51q.068-.17.17-.459t.2-.6l.306-.578.034-.136a4,4,0,0,1,.255-.9q.187-.459.867-.425a2.5,2.5,0,0,1,.6.221q.391.187.323.187a.9.9,0,0,1,.17.425.87.87,0,0,0,.068.323v.476a2.356,2.356,0,0,1-.1.68,6.58,6.58,0,0,0-.17.714v.408q-.068.17-.221.629l-.34,1.02-.374,1.122q-.187.561-.323.935l-.17.51a2.905,2.905,0,0,0-.119.374l-.119.476a.57.57,0,0,0-.119.2,2.832,2.832,0,0,1-.119.272,2.917,2.917,0,0,0-.153.408,2.917,2.917,0,0,1-.153.408l-.136.068a4.415,4.415,0,0,1-.374.408.7.7,0,0,0-.051.221,1.261,1.261,0,0,1-.051.255q-.034.17-.068.289a1.269,1.269,0,0,1-.136.289,2.376,2.376,0,0,1-.272.306l-.1.1a.1.1,0,0,1-.068.034q-.068.17-.136.357t-.136.221A.7.7,0,0,1,42.653-5a1.054,1.054,0,0,0-.255.034,1.118,1.118,0,0,1-.272.034.88.88,0,0,1-.221-.017.28.28,0,0,0-.085-.017.753.753,0,0,1-.238.034h-.238Zm10.472-.2a.815.815,0,0,1-.255.306.738.738,0,0,1-.357.068,1.853,1.853,0,0,1-.374-.085,1.818,1.818,0,0,1-.374-.221.936.936,0,0,0-.391-.238q-.221-.068-.459-.136a.842.842,0,0,0-.255-.085.582.582,0,0,1-.289-.187L47.974-7.854l-.34-.2-.1-.136a2.738,2.738,0,0,1-.34-.323q-.2-.221-.34-.391l-.17-.068q-.136-.374-.187-.51a.651.651,0,0,1-.051-.2.559.559,0,0,1,.017-.136.46.46,0,0,0-.051-.238.718.718,0,0,1,.2-.612,1.37,1.37,0,0,1,.408-.136,2.669,2.669,0,0,1,.578-.068.653.653,0,0,0,.221.085,1.6,1.6,0,0,1,.255.085.892.892,0,0,1,.153.1.892.892,0,0,0,.153.1.933.933,0,0,0,.119.051,1.57,1.57,0,0,1,.221.119,8.414,8.414,0,0,1,.7.493,5.256,5.256,0,0,0,.493.357l.17.238a.82.82,0,0,1,.442.34l.17.17a.533.533,0,0,1,.1.136l.034.034.238.238a4.846,4.846,0,0,1,.442.544,1.887,1.887,0,0,0,.119.255.79.79,0,0,0,.119.153,1.987,1.987,0,0,0,.1.663A.53.53,0,0,1,51.816-6.222Z" transform="translate(59.894 22.719)"/>
</svg>
