<svg xmlns="http://www.w3.org/2000/svg" width="87.264" height="24.344" viewBox="0 0 87.264 24.344"><path d="M-27.438-3.468a4.906,4.906,0,0,1-.442,1.054,2.156,2.156,0,0,1-.612.714,1.442,1.442,0,0,1-.9.782,3.053,3.053,0,0,1-1.275.136V-1.836a9,9,0,0,1,.017-1.224,5.794,5.794,0,0,1,.323-1.462.506.506,0,0,1-.034-.323,2.865,2.865,0,0,0,.034-.493.416.416,0,0,1,.1-.306,1.086,1.086,0,0,0,.068-.255,2.008,2.008,0,0,0,0-.527,9.688,9.688,0,0,1,.034-1.428q.068-.646.17-1.292a4.587,4.587,0,0,0,.1-.544q.034-.272.068-.51v-.272q0-.34,0-.731a2.774,2.774,0,0,1,.068-.663,2.471,2.471,0,0,1,.136-.782q-.884.34-1.734.663t-1.292.527a1.286,1.286,0,0,1-.408.272,2.134,2.134,0,0,1-.408.136q-.748.068-.986-.221a1.118,1.118,0,0,1-.272-.561q-.034-.408.136-.476t.374-.136q.068,0,.136-.1.068-.068.187-.17a.631.631,0,0,0,.153-.17q.136-.068.612-.255t1.122-.425q.646-.238,1.36-.493t1.36-.459v-.1q.136-1.088.272-2.091a11.214,11.214,0,0,1,.34-1.683.937.937,0,0,0,.034-.187V-18.9l.34-.238a1.764,1.764,0,0,1,.051-.391,1.807,1.807,0,0,1,.391-.629,1.646,1.646,0,0,1,.323-.153q.153-.051.459-.119a1.1,1.1,0,0,1,.272.085.647.647,0,0,1,.17.119.277.277,0,0,0,.2.068,3.206,3.206,0,0,1,.374.7q.136.357.238.731l.1.272a.484.484,0,0,1-.085.289.431.431,0,0,0-.085.255l.034.1a1.52,1.52,0,0,1,.034.357,1.12,1.12,0,0,1-.136.493,1.2,1.2,0,0,1,.119.714,5.174,5.174,0,0,1-.187.816q-.068.238-.1.408l-.068.34a1.805,1.805,0,0,1-.017.255,1.8,1.8,0,0,0-.017.255q-.034.238-.051.459t-.017.493q-.068.476-.085.7a3.306,3.306,0,0,1-.051.391,1.118,1.118,0,0,0-.034.272v.306q0,.272-.017.612a1.967,1.967,0,0,1-.187.714.872.872,0,0,0-.085.306q-.017.17-.051.442a3.054,3.054,0,0,0-.034.493,3.223,3.223,0,0,1-.068.629.74.74,0,0,1-.119.289.748.748,0,0,0-.119.255,1.319,1.319,0,0,1,.068.17,1.319,1.319,0,0,0,.068.17A2.755,2.755,0,0,1-27-6.528q-.1.544-.17,1.156-.068.34-.1.612t-.068.612l-.17.476ZM-38.59-16.9a.948.948,0,0,1,.612.119,1.538,1.538,0,0,1,.374.323,1.56,1.56,0,0,1,.306.714,11.592,11.592,0,0,1,0,1.258l-.238.136a.771.771,0,0,1-.068.612l-.136.306-.034.272a4.084,4.084,0,0,1-.17.527,5.112,5.112,0,0,0-.17.493.469.469,0,0,1-.1.34q-.2.2-.2.238a.835.835,0,0,0-.068.306.753.753,0,0,1-.034.238,4.7,4.7,0,0,1-.272.714q0,.17-.017.357A.729.729,0,0,1-39-9.554l-.238.238a1.191,1.191,0,0,1-.068.374q-.068.2-.238.578-.306.68-.544,1.326a3.61,3.61,0,0,1-.306.714l-.34.68q-.1.2-.17.374a.491.491,0,0,1-.153.153A.79.79,0,0,0-41.208-5q-.034.068-.119.289a.474.474,0,0,1-.357.289,1.747,1.747,0,0,1-.85.1,2.131,2.131,0,0,1-.408-.544,1.137,1.137,0,0,1-.153-.493.456.456,0,0,1,.255-.425v-.17l.272-.442.034-.374.34-.544q.2-.51.374-.952t.374-.952l.136-.238v-.17a2.79,2.79,0,0,1,.17-.493,2.791,2.791,0,0,0,.17-.493q.17-.442.272-.748t.238-.748a8.637,8.637,0,0,0,.391-1.105,15.821,15.821,0,0,0,.425-1.751q-.238.068-.561.153a2.145,2.145,0,0,0-.6.255.427.427,0,0,0-.17.1.6.6,0,0,1-.272.17,5.022,5.022,0,0,0-1.19.476,1.077,1.077,0,0,1-.476.034.478.478,0,0,1-.34-.136.787.787,0,0,1-.255-.952,1.187,1.187,0,0,1,.663-.68.6.6,0,0,0,.17-.068q.1-.034.272-.1t.442-.17q.2-.068.51-.187t.884-.357q.476-.17.918-.289A7.14,7.14,0,0,1-38.59-16.9ZM-34.1-5.542q-.17-.068-.34-.153a.921.921,0,0,1-.306-.255l-.306-.238h-.136l-.238-.1q-.1-.068-.255-.187a1.741,1.741,0,0,1-.289-.289,3.044,3.044,0,0,0-.272-.374,3.06,3.06,0,0,1-.306-.442,3.4,3.4,0,0,0-.306-.34l-.068-.1-.136-.034-.068-.2q-.1-.136-.255-.306a3.265,3.265,0,0,1-.289-.374l-.1-.136-.136-.068a1.539,1.539,0,0,1-.17-.561.715.715,0,0,1,.068-.323A.151.151,0,0,1-38-10.1q.017-.034-.051-.1,0-.374.17-.442a1.055,1.055,0,0,0,.374-.306,1.193,1.193,0,0,0,.34.034h.408l.034.1a2.639,2.639,0,0,1,.34.136l.272.306a1.042,1.042,0,0,0,.187.1q.085.034.221.1-.068-.068.119.136t.289.306a1.7,1.7,0,0,0,.17.153,2.387,2.387,0,0,1,.306.425q0,.136.2.238t.238.187q.034.085.1.221a1.055,1.055,0,0,0,.306.374v.068a.3.3,0,0,0,.051.119q.051.085.119.221l.238.476a2.337,2.337,0,0,0,.17.221.631.631,0,0,0,.17.153v.306l.068.034a.968.968,0,0,1-.068.391q-.068.153-.136.289l-.068.136q-.034.136-.34.306Zm29-16.49q.272,0,.374.357a4.034,4.034,0,0,0,.272.7,2.288,2.288,0,0,1,.17.816,1.486,1.486,0,0,1-.034.323q-.034.153-.068.357a.738.738,0,0,0-.034.391,1.32,1.32,0,0,1-.068.561q.034.136.051.238t.051.238l-.136.918q-.034.442-.051.595a1.869,1.869,0,0,1-.034.221.665.665,0,0,1-.051.136,1.244,1.244,0,0,0-.068.306v.136a1.068,1.068,0,0,0,.017.17,1.069,1.069,0,0,1,.017.17,1.064,1.064,0,0,1-.034.289.229.229,0,0,1-.1.153l-.068.34q-.068.612-.17,1.343t-.17,1.377a5.644,5.644,0,0,1-.357.816,3.7,3.7,0,0,0-.221.442l-.34.816-.34.578A3.292,3.292,0,0,0-6.8-8.6a.822.822,0,0,1-.51.476,1.113,1.113,0,0,1-.476.187q-.2.017-.408.017a.586.586,0,0,1-.459-.17,3.265,3.265,0,0,1-.289-.374l-.034-.374a.274.274,0,0,0-.1-.221q-.1-.085-.1-.391l.238-1.156v-.408a.237.237,0,0,0-.017-.1,1.25,1.25,0,0,1-.051-.136l.2-.374q.034-.306.085-.612a1.568,1.568,0,0,1,.221-.578.505.505,0,0,1-.136-.374v-.068q-.782.2-1.53.425t-1.258.425a1.067,1.067,0,0,1-.425.255,1.4,1.4,0,0,1-.425.085q-.748,0-.969-.289a.931.931,0,0,1-.221-.561q0-.408.17-.459t.374-.119a.278.278,0,0,0,.17-.1,1.511,1.511,0,0,1,.187-.153.48.48,0,0,0,.153-.153,5.334,5.334,0,0,1,.68-.255q.476-.153,1.088-.357t1.292-.391q.68-.187,1.292-.323h.034a.294.294,0,0,1,.1-.2.528.528,0,0,0,.1-.374l-.034-.272V-16.8l.306-1.224a6.1,6.1,0,0,1,.17-.748,3.006,3.006,0,0,0,.1-.85l.068-.578a1.088,1.088,0,0,1,.17-.476v-.408a.734.734,0,0,1,.221-.357,2.888,2.888,0,0,1,.442-.357,2.789,2.789,0,0,1,.51-.272,1.253,1.253,0,0,1,.459-.1A.423.423,0,0,1-5.1-22.032Zm-11.492,4.386q-.476.714-.952,1.411t-.952,1.411l1.734-.34a.884.884,0,0,1,.272-.034,2.445,2.445,0,0,1,.544-.034,1.927,1.927,0,0,1,.612.493q.272.323-.034.935l-.1.238-.1.272-.238.714-.306.578L-17-10.574l-.1.068v.17l-.918,1.5q.306-.034.578-.085t.646-.136l.884-.2,1.224-.289a1.277,1.277,0,0,1,.136-.119.494.494,0,0,1,.272-.051l.646.068v.646a1.844,1.844,0,0,1-.476.578.954.954,0,0,1-.374.238,1.916,1.916,0,0,1-.306.153l-.408.153-.748.272-.17.034-.51.17-.578.034a4.01,4.01,0,0,1-.578.17,4.375,4.375,0,0,1-.578.1,4.375,4.375,0,0,0-.578.1h-.578l-.51-.17A1.054,1.054,0,0,1-20.4-7.4a.978.978,0,0,1-.17-.7.869.869,0,0,1-.085-.238.4.4,0,0,1,.051-.238.664.664,0,0,0,.051-.136A.664.664,0,0,1-20.5-8.84q.034-.068.085-.2t.085-.2a6.967,6.967,0,0,0,.51-.731q.238-.391.476-.833.17-.272.408-.629t.408-.629l.1-.034.034-.136a7.059,7.059,0,0,1,.408-.612q.272-.374.442-.646-.442.136-.952.255a13.3,13.3,0,0,0-1.292.391,4.991,4.991,0,0,0-.476.2.846.846,0,0,1-.374.1A1.66,1.66,0,0,1-21-12.58a1.07,1.07,0,0,1-.425-.306l-.1-.17-.17-.34a.725.725,0,0,1,.068-.374q.068-.1.2-.272l.476-.544.1-.2.272-.476q.272-.374.493-.663a5.767,5.767,0,0,0,.391-.578q.17-.289.357-.595t.425-.714q-.374.2-1.02.476t-1.02.442l-.476.034a.866.866,0,0,1-.476-.153.508.508,0,0,1-.17-.289.588.588,0,0,1,.034-.34,1.509,1.509,0,0,1,.136-.272,1.353,1.353,0,0,1,.51-.408q.306-.17.646-.34t.748-.34a7.556,7.556,0,0,1,1.1-.425q.527-.153.969-.255l.272.068q.306,0,.323.068t.153.136l.408.136a.775.775,0,0,1,.272.544.846.846,0,0,1,.1.374,1.211,1.211,0,0,1-.051.425A2.5,2.5,0,0,1-16.592-17.646ZM-4.08-1.258a.992.992,0,0,1,.7.085.561.561,0,0,1,.255.391,1.055,1.055,0,0,1-.1.748,2.041,2.041,0,0,1-.442.442.812.812,0,0,1-.391.17A.465.465,0,0,1-4.386.544a.111.111,0,0,0-.136.034.231.231,0,0,1-.17.068A1.153,1.153,0,0,0-5.049.629a.971.971,0,0,0-.357.085q-.17.17-.255.153A1.165,1.165,0,0,0-5.882.85a8.371,8.371,0,0,0-1.19.272q-.544.17-1.224.374l-.068.068-.238.119a.613.613,0,0,1-.272.051,2.661,2.661,0,0,1-.646-.051.474.474,0,0,1-.272-.323A.98.98,0,0,1-9.656.612,1.063,1.063,0,0,1-9.18.238q.408-.17.816-.306t.782-.272q.374-1.224.544-1.768t.272-.816a.151.151,0,0,1,.017-.068.151.151,0,0,0,.017-.068A.1.1,0,0,1-6.7-3.128,1.631,1.631,0,0,1-6.6-3.6l.2-.612a1.754,1.754,0,0,0,.136-.544l.136-.476.068-.408q-.51.17-.8.255t-.765.255l-.1.068a.749.749,0,0,1-.544.238A2.985,2.985,0,0,1-8.7-4.9q-.34-.068-.306-.476-.068-.442.51-.918l.374-.306q.68-.272,1.632-.612t1.938-.612a.714.714,0,0,1,.578.136l.34.272a.4.4,0,0,1,.187.17.935.935,0,0,1,.051.374v.578l-.1.748-.646,2.21a7.772,7.772,0,0,1-.272.748q-.17.408-.34.884-.068.17-.136.323t-.136.323q.272-.068.493-.1A3.748,3.748,0,0,0-4.08-1.258Zm-8.6,2.482q-.1-.17-.187-.34A.681.681,0,0,1-12.92.476Q-13.056.34-12.954,0V-.136a.232.232,0,0,0,.017-.153.788.788,0,0,1-.017-.153.559.559,0,0,1-.034-.17,5.393,5.393,0,0,1,.051-.578q.051-.408.119-.9t.153-1.02q.085-.527.187-.935l-.034-.068.1-.2v-.2a2.606,2.606,0,0,1,.034-.391q.034-.221.068-.425a2.855,2.855,0,0,0,.1-.391,1.739,1.739,0,0,0,.034-.289l.034-.408L-12-6.562a2.95,2.95,0,0,1,.034-.408,1.334,1.334,0,0,1,.2-.51,1.121,1.121,0,0,1,.782-.51h.578l.476.272.238.578a2.823,2.823,0,0,0,.153.323,2.824,2.824,0,0,1,.153.323,1.628,1.628,0,0,1,.085.255.918.918,0,0,1-.017.289q-.034.17-.051.34t-.051.34A1.742,1.742,0,0,0-9.5-4.9q-.017.17-.051.34a1.576,1.576,0,0,0-.034.306.934.934,0,0,0-.085.34.351.351,0,0,0,.051.272,1.048,1.048,0,0,1-.068.646,3.065,3.065,0,0,0-.2.646q-.034.2-.051.357a1.916,1.916,0,0,1-.119.425.368.368,0,0,1-.1.272l-.2.442a.685.685,0,0,0-.2.374q-.034.2-.1.476l-.34.408h.1a2.556,2.556,0,0,1-.476.544,2.561,2.561,0,0,1-.51.374,2.411,2.411,0,0,1-.306.1.5.5,0,0,1-.306-.034ZM-8.228-18.19q0,.034-.034.255a4.532,4.532,0,0,1-.1.476q-.068.255-.153.493a.927.927,0,0,1-.187.34.31.31,0,0,1-.221.17,1.217,1.217,0,0,1-.255.034q-.34,0-.442-.153a1.49,1.49,0,0,1-.17-.357,4.032,4.032,0,0,1-.442.1,1.8,1.8,0,0,0-.374.1l-.884.34q-.442.17-.816.34a1.232,1.232,0,0,1-.578.119q-.272-.017-.544-.595a1.6,1.6,0,0,1-.119-.544.489.489,0,0,1,.323-.476l.374-.2q.68-.34,1.53-.68a15.549,15.549,0,0,1,1.734-.578.548.548,0,0,1,.34.068,3.522,3.522,0,0,1,.459.238,2.69,2.69,0,0,1,.391.289Q-8.228-18.258-8.228-18.19Zm28.9-1.394.34.2q.17.1.1.578a.753.753,0,0,0,.034.238l.136.408a.726.726,0,0,1,.034.374.778.778,0,0,1-.136.306.416.416,0,0,1,.1.306,1,1,0,0,0-.068.374,1.727,1.727,0,0,1-.017.272q-.017.1-.051.272a3.217,3.217,0,0,1-.1.952l.136.136q-.034.374-.051.782t-.051.68q-.034.272-.051.544a4.726,4.726,0,0,1-.051.476,2.929,2.929,0,0,1-.034.476q-.034.17-.051.34a.389.389,0,0,1-.085.238l.034.272a1.054,1.054,0,0,0-.068.2q-.034.1-.068.221a.924.924,0,0,0-.034.255q-.068.782-.136,1.8T20.4-6.868a1.394,1.394,0,0,1-.17.544,1.011,1.011,0,0,0-.136.51q-.068.51-.136.918a4.38,4.38,0,0,1-.238.85l-.136.1a4.03,4.03,0,0,1-.272.918,1.4,1.4,0,0,1-.34.51.966.966,0,0,1-.51.17q-.34.034-.408.034a.814.814,0,0,1-.544-.34L17.2-3.366q-.068-.17-.085-.221a.88.88,0,0,1-.017-.221,2.623,2.623,0,0,0-.017-.289.409.409,0,0,1,.153-.323,1.219,1.219,0,0,0,.034-.425v-1a3.187,3.187,0,0,1,.017-.374,1.8,1.8,0,0,0,.017-.2,2.73,2.73,0,0,0,.306-1.156,10.4,10.4,0,0,0,0-1.19q-.1-.238-.034-.323a.575.575,0,0,1,.238-.153,2.222,2.222,0,0,1-.068-.289,1.544,1.544,0,0,1,0-.459.8.8,0,0,1,.1-.306.941.941,0,0,0,.1-.374q-.136-.068-.136-.306-.782.17-1.5.357t-1.292.391a1.322,1.322,0,0,1-.646.306v.561q0,.323-.034.663l-.272.476.068.136a.4.4,0,0,0,.068.1,14.1,14.1,0,0,1-.119,1.632q-.119.986-.289,1.938l.034.374-.1.1.068.136a6.315,6.315,0,0,1-.527.969,3.62,3.62,0,0,1-.6.731,1.442,1.442,0,0,1-.9.782A3.422,3.422,0,0,1,10.4-1.19v-.952q0-.51.017-1.054a8.6,8.6,0,0,1,.357-1.768,1.758,1.758,0,0,1-.017-.425,2.229,2.229,0,0,1,.051-.357,5.246,5.246,0,0,1,.034-.578l.068-.612a9.476,9.476,0,0,1-.017-1.5q.051-.714.153-1.36.034-.2.068-.425t.068-.459V-11.9a2.929,2.929,0,0,1,.034-.476q.034-.1.085-.289t.119-.391a2.905,2.905,0,0,0,.119-.374,3.954,3.954,0,0,0,.085-.51,2.549,2.549,0,0,1,.017-.884,5.882,5.882,0,0,1,.153-.612q.1-1.02.221-2.057a8.082,8.082,0,0,1,.357-1.717l.1-.476.272-.306a.726.726,0,0,1,.034-.374,2.433,2.433,0,0,1,.34-.578l.238-.238a1.673,1.673,0,0,1,.238-.255.978.978,0,0,1,.408-.187.719.719,0,0,1,.408.221,2.485,2.485,0,0,0,.17.255l.136.2a2.988,2.988,0,0,1,.238.442l.136.34a1.5,1.5,0,0,0,.17.612l.2.408a.4.4,0,0,1-.068.255l-.2.255a1.8,1.8,0,0,1,.1.374.821.821,0,0,1-.136.51,1.038,1.038,0,0,1,.153.7l-.119.833a1.767,1.767,0,0,0-.085.425q-.017.221-.051.459a6.61,6.61,0,0,0-.1.782q-.034.442-.068.782-.034.578-.068.85t-.068.442l-.034.136v.2q.578-.2,1.479-.442a19.763,19.763,0,0,1,1.989-.408v-.306a3.758,3.758,0,0,0,.085-.561,3,3,0,0,1,.085-.527q.1-.578.17-1.173t.1-1.581a2.257,2.257,0,0,1,.2-.884l.068-.272V-18.7a1.03,1.03,0,0,1,.272-.357q.2-.187.408-.357l.1-.1a1.554,1.554,0,0,1,.408-.289q.238-.119.442.153ZM2.788-8.466a8,8,0,0,1,.391-2.023,4.9,4.9,0,0,1,.7-1.445,1.887,1.887,0,0,1,.629-.51,6.58,6.58,0,0,1,.816-.357,3.88,3.88,0,0,1,.833-.2,5.661,5.661,0,0,1,.68-.051.721.721,0,0,1,.408.272,2.387,2.387,0,0,1,.357.578,4.323,4.323,0,0,1,.255.765,5.54,5.54,0,0,1,.136.833,11.131,11.131,0,0,1-.017,1.394A5.236,5.236,0,0,1,7.718-7.99,9.585,9.585,0,0,1,7.14-6.681a1.141,1.141,0,0,1-.918.629,1.95,1.95,0,0,1-.238-.017,1.95,1.95,0,0,0-.238-.017,1.812,1.812,0,0,0-.408-.034,3.393,3.393,0,0,0-.408.068,1.118,1.118,0,0,1-.272.034H4.42a1.1,1.1,0,0,1-.7-.255A2.029,2.029,0,0,1,3.2-6.9a3.8,3.8,0,0,1-.323-.8A2.085,2.085,0,0,1,2.788-8.466Zm4.794-6.29a6.877,6.877,0,0,0-.952.136q-.476.1-1.156.306l-.272.2-.34.034a1.336,1.336,0,0,1-.238.187.908.908,0,0,1-.306.119,2.183,2.183,0,0,0-.391.034,3.775,3.775,0,0,0-.527.153q-.34.119-.884.323t-1.428.51a.667.667,0,0,1-.2-.017.484.484,0,0,1-.1-.085,1.079,1.079,0,0,0-.306.068.835.835,0,0,1-.306.068.513.513,0,0,1-.306-.136,1.991,1.991,0,0,1-.272-.238.435.435,0,0,1-.1-.442A1.1,1.1,0,0,1-.1-14.059a2.912,2.912,0,0,1,.782-.493q1.768-.646,3.553-1.156t3.417-.816a1.422,1.422,0,0,1,.374-.017q.17.017.374.051a1.362,1.362,0,0,1,.272.561,2.207,2.207,0,0,1-.034.357q-.068.2-.153.425a1.235,1.235,0,0,1-.357.459ZM4.012-22a1.273,1.273,0,0,1,0,.425,1.122,1.122,0,0,1-.068.187.882.882,0,0,1,.306.442,5.034,5.034,0,0,1,.034.714v.884q0,.51-.034.918a3.66,3.66,0,0,1-.136.748,1.774,1.774,0,0,0-.085.357,3.664,3.664,0,0,0-.017.391,1.911,1.911,0,0,1-.068.442.912.912,0,0,1-.306.476,2.2,2.2,0,0,1-1.054-.255,1.338,1.338,0,0,1-.544-1.173.33.33,0,0,1-.136-.2,1,1,0,0,1-.034-.238,1.264,1.264,0,0,0-.034-.306.607.607,0,0,1-.051-.153.234.234,0,0,0-.051-.119,2.42,2.42,0,0,1-.119-.442,5.081,5.081,0,0,1-.051-.85,5.255,5.255,0,0,1,.17-1.309,3.381,3.381,0,0,1,.544-1.173,1.663,1.663,0,0,1,.34-.255,1,1,0,0,1,.51-.119.8.8,0,0,1,.595.221A1.263,1.263,0,0,1,4.012-22Zm2.04,10.846a1.058,1.058,0,0,0-.714.306,1.881,1.881,0,0,0-.51.782,1.569,1.569,0,0,1,.2.442q0,.1,0,.255A.527.527,0,0,1,5-9.146a.784.784,0,0,0-.034.374.9.9,0,0,0,.17.408.729.729,0,0,0,.476.34,4.807,4.807,0,0,0,.221-.544q.119-.34.238-.731a6.818,6.818,0,0,0,.187-.765,3.831,3.831,0,0,0,.068-.68Q6.324-11.152,6.052-11.152Zm35.87,7.684a4.906,4.906,0,0,1-.442,1.054,2.156,2.156,0,0,1-.612.714,1.442,1.442,0,0,1-.9.782,3.053,3.053,0,0,1-1.275.136V-1.836a9,9,0,0,1,.017-1.224,5.794,5.794,0,0,1,.323-1.462A.506.506,0,0,1,39-4.845a2.865,2.865,0,0,0,.034-.493.416.416,0,0,1,.1-.306A1.086,1.086,0,0,0,39.2-5.9a2.008,2.008,0,0,0,0-.527,9.688,9.688,0,0,1,.034-1.428q.068-.646.17-1.292a4.587,4.587,0,0,0,.1-.544q.034-.272.068-.51v-.272q0-.34,0-.731a2.774,2.774,0,0,1,.068-.663,2.445,2.445,0,0,1,.2-.884.6.6,0,0,0,.068-.272q-.578.17-1.156.323t-1.1.306q-.527.153-.952.272a5.586,5.586,0,0,0-.663.221,1.142,1.142,0,0,1-.425.2,1.71,1.71,0,0,1-.425.068q-.748-.034-.952-.323A1.252,1.252,0,0,1,34-12.512q.034-.408.2-.459a3.049,3.049,0,0,1,.374-.085q.068,0,.2-.136a.888.888,0,0,1,.187-.136.369.369,0,0,0,.153-.136q.17-.068.7-.221t1.241-.34q.714-.187,1.53-.391t1.53-.374q.136-1.02.272-1.989a10.164,10.164,0,0,1,.34-1.615.937.937,0,0,0,.034-.187V-18.9l.34-.238a1.764,1.764,0,0,1,.051-.391,1.807,1.807,0,0,1,.391-.629,1.646,1.646,0,0,1,.323-.153q.153-.051.459-.119a1.1,1.1,0,0,1,.272.085.647.647,0,0,1,.17.119.277.277,0,0,0,.2.068,3.206,3.206,0,0,1,.374.7q.136.357.238.731l.1.272a.484.484,0,0,1-.085.289.431.431,0,0,0-.085.255l.034.1a1.52,1.52,0,0,1,.034.357,1.12,1.12,0,0,1-.136.493,1.2,1.2,0,0,1,.119.714,5.173,5.173,0,0,1-.187.816q-.068.238-.1.408l-.068.34a1.805,1.805,0,0,1-.017.255,1.805,1.805,0,0,0-.017.255q-.034.238-.051.459t-.017.493q-.068.476-.085.7a3.306,3.306,0,0,1-.051.391,1.118,1.118,0,0,0-.034.272v.306q0,.272-.017.612a1.967,1.967,0,0,1-.187.714.872.872,0,0,0-.085.306q-.017.17-.051.442a3.054,3.054,0,0,0-.034.493,3.222,3.222,0,0,1-.068.629.74.74,0,0,1-.119.289.748.748,0,0,0-.119.255,1.319,1.319,0,0,1,.068.17,1.319,1.319,0,0,0,.068.17,2.755,2.755,0,0,1-.034.952q-.1.544-.17,1.156-.068.34-.1.612t-.068.612l-.17.476ZM25.364-6.018a2.219,2.219,0,0,1,.238-.646.34.34,0,0,1,0-.408.151.151,0,0,1,.017-.068.667.667,0,0,0,.017-.2l.034-.068a.735.735,0,0,0,.17-.374v-.306a1.086,1.086,0,0,0,.068-.255,2.855,2.855,0,0,1,.1-.391q.238-.68.595-1.768t.731-2.006a1.618,1.618,0,0,1-.1-.442l.306-.476a1.676,1.676,0,0,0,.153-.34,4.637,4.637,0,0,1,.221-.51q.068-.17.17-.459t.2-.6l.306-.578.034-.136a4,4,0,0,1,.255-.9q.187-.459.867-.425a2.5,2.5,0,0,1,.595.221q.391.187.323.187a.9.9,0,0,1,.17.425.87.87,0,0,0,.068.323v.476a2.356,2.356,0,0,1-.1.68,6.581,6.581,0,0,0-.17.714v.408q-.068.17-.221.629l-.34,1.02L29.7-11.169q-.187.561-.323.935l-.17.51a2.9,2.9,0,0,0-.119.374l-.119.476a.57.57,0,0,0-.119.2,2.832,2.832,0,0,1-.119.272,2.916,2.916,0,0,0-.153.408,2.917,2.917,0,0,1-.153.408l-.136.068a4.415,4.415,0,0,1-.374.408.7.7,0,0,0-.051.221,1.261,1.261,0,0,1-.051.255q-.034.17-.068.289a1.269,1.269,0,0,1-.136.289,2.376,2.376,0,0,1-.272.306l-.1.1a.1.1,0,0,1-.068.034q-.068.17-.136.357t-.136.221A.7.7,0,0,1,26.673-5a1.054,1.054,0,0,0-.255.034,1.118,1.118,0,0,1-.272.034.88.88,0,0,1-.221-.017.28.28,0,0,0-.085-.017.753.753,0,0,1-.238.034h-.238Zm10.472-.2a.815.815,0,0,1-.255.306.738.738,0,0,1-.357.068,1.853,1.853,0,0,1-.374-.085,1.818,1.818,0,0,1-.374-.221.936.936,0,0,0-.391-.238q-.221-.068-.459-.136a.842.842,0,0,0-.255-.085.582.582,0,0,1-.289-.187L31.994-7.854l-.34-.2-.1-.136a2.739,2.739,0,0,1-.34-.323q-.2-.221-.34-.391l-.17-.068q-.136-.374-.187-.51a.651.651,0,0,1-.051-.2.559.559,0,0,1,.017-.136.46.46,0,0,0-.051-.238.718.718,0,0,1,.2-.612,1.37,1.37,0,0,1,.408-.136,2.669,2.669,0,0,1,.578-.068.653.653,0,0,0,.221.085,1.6,1.6,0,0,1,.255.085.892.892,0,0,1,.153.1.892.892,0,0,0,.153.1.933.933,0,0,0,.119.051,1.57,1.57,0,0,1,.221.119,8.414,8.414,0,0,1,.7.493,5.256,5.256,0,0,0,.493.357l.17.238a.82.82,0,0,1,.442.34l.17.17a.533.533,0,0,1,.1.136l.034.034.238.238a4.846,4.846,0,0,1,.442.544,1.887,1.887,0,0,0,.119.255.79.79,0,0,0,.119.153,1.987,1.987,0,0,0,.1.663A.53.53,0,0,1,35.836-6.222Z" transform="translate(43.573 22.61)"/></svg>