<svg xmlns="http://www.w3.org/2000/svg" width="60" height="60" viewBox="0 0 60 60">
  <g id="그룹_1975" data-name="그룹 1975" transform="translate(-783 -958)">
    <ellipse id="타원_57" data-name="타원 57" cx="30" cy="30" rx="30" ry="30" transform="translate(783 958)" fill="#f1f3f6"/>
    <path id="패스_1300" data-name="패스 1300" d="M379.324,63.214a.474.474,0,0,0-.67,0l-1.145,1.145-8.2-8.2,1.837-1.836a.474.474,0,1,0-.67-.67L368.3,55.825a.469.469,0,0,0-.088.537,2.255,2.255,0,0,1-1.266.37h-2.473a3.713,3.713,0,0,0-2.441.907L360.593,56.2l.034-.034a.5.5,0,0,0,0-.709l-2.77-2.77a.5.5,0,0,0-.709,0L348.1,61.73a.5.5,0,0,0,0,.709l2.77,2.77a.5.5,0,0,0,.689.016l3.925,3.925-.537.537a1.952,1.952,0,0,0,.923,3.277,1.951,1.951,0,0,0,1.679,3.151c0,.048-.005.1-.005.144a1.952,1.952,0,0,0,1.951,1.953h0a1.938,1.938,0,0,0,.917-.229,1.953,1.953,0,0,0,3.3,1l.831-.83a1.952,1.952,0,0,0,3-1.149,1.951,1.951,0,0,0,3.149-1.679,1.953,1.953,0,0,0,1.868-2.863,1.953,1.953,0,0,0,1.005-3.3l-.018-.017,3.722-3.722a.451.451,0,0,0,.573-.065l1.481-1.48A.474.474,0,0,0,379.324,63.214ZM357.5,53.748l2.061,2.061-8.337,8.337-2.061-2.061Zm-1.883,18.028a1,1,0,0,1,0-1.418l.537-.537,1.42,1.42-.553.553A1,1,0,0,1,355.619,71.776Zm1.08,3.1a1,1,0,0,1,0-1.421l.988-.988.023-.023.537-.537,1.419,1.42-1.547,1.548A1.007,1.007,0,0,1,356.7,74.881Zm4.251,1.347-.015.015-.726.726a1,1,0,0,1-.711.3h0a1,1,0,0,1-.708-1.713L360.337,74l1.419,1.419Zm2.091,2.09a1,1,0,0,1-1.432-1.409l.817-.817,1.42,1.42Zm9.855-7.058a1,1,0,0,1-1.42,0l-.006,0L366.714,66.5a.474.474,0,1,0-.67.671l5.5,5.5a1.007,1.007,0,0,1,0,1.42,1.026,1.026,0,0,1-1.42,0h0l-1.571-1.571v0l-3.929-3.929a.474.474,0,1,0-.67.671l2.879,2.879h0l2.623,2.623a1,1,0,1,1-1.42,1.419l-5.5-5.5a.474.474,0,1,0-.671.67l4.492,4.491h0a1,1,0,0,1,0,1.419,1,1,0,0,1-1.419,0l-12.7-12.7,7.69-7.689,1.43,1.43-2.324,2.324a2.363,2.363,0,0,0-.341,2.985,2.336,2.336,0,0,0,1.714,1.024c.074.007.148.011.221.011a2.32,2.32,0,0,0,1.644-.683l1.6-1.6a3.6,3.6,0,0,1,.9-.65l8.129,8.129a1,1,0,0,1,0,1.42Zm-.018-2.778-7.115-7.114a3.562,3.562,0,0,1,.661-.064.474.474,0,1,0,0-.948A4.529,4.529,0,0,0,363.2,61.69l-1.6,1.6a1.376,1.376,0,0,1-2.124-.213,1.432,1.432,0,0,1,.226-1.783L362.5,58.5a2.782,2.782,0,0,1,1.98-.82h2.473a3.217,3.217,0,0,0,1.919-.62l.663.662h0l6.924,6.925h0l.127.128Z" transform="translate(449.084 923.069)" fill="#14366b"/>
  </g>
</svg>
