<svg xmlns="http://www.w3.org/2000/svg" width="60" height="60" viewBox="0 0 60 60">
  <g id="그룹_1938" data-name="그룹 1938" transform="translate(-782.684 -1078.184)">
    <g id="그룹_1754" data-name="그룹 1754" transform="translate(799.105 1095.262)">
      <g id="그룹_390" data-name="그룹 390" transform="translate(0 0)">
        <path id="패스_421" data-name="패스 421" d="M-425.394,51.132a2.341,2.341,0,0,0-1.482-1.482,1.232,1.232,0,0,0-1.264.3l-1.344,1.344-.214-.065a.443.443,0,0,0-.44.11l-1.085,1.086V49.688a3.518,3.518,0,0,0-3.514-3.514h-16.2a3.518,3.518,0,0,0-3.514,3.514.441.441,0,0,0,.441.441h16.2a.441.441,0,0,0,.441-.441,2.634,2.634,0,0,1,2.632-2.631,2.634,2.634,0,0,1,2.632,2.631v3.619l-10.067,10.067c-.009.01-.012.021-.02.031a.419.419,0,0,0-.066.091l-2.046,4.292a1.354,1.354,0,0,1-.416-.269,2.262,2.262,0,0,0-3.195,0,.44.44,0,0,0,0,.623.441.441,0,0,0,.624,0,1.378,1.378,0,0,1,1.947,0,2.311,2.311,0,0,0,1.187.621.4.4,0,0,0,.083.008h0a.437.437,0,0,0,.172-.039c.005,0,.012,0,.017,0l4.645-2.215a.408.408,0,0,0,.089-.064.342.342,0,0,0,.033-.022l12.035-12.035a.441.441,0,0,0,.111-.44l-.065-.214,1.345-1.344A1.234,1.234,0,0,0-425.394,51.132Zm-12.83-1.885h-15.312a2.635,2.635,0,0,1,2.594-2.19h13.877A3.508,3.508,0,0,0-438.223,49.247ZM-443.14,67.4l1.515-3.179.813.245a.9.9,0,0,1,.6.606h0l.245.813Zm3.919-2.114-.142-.47a1.784,1.784,0,0,0-1.194-1.195l-.47-.142,3.512-3.513.923.279a.9.9,0,0,1,.6.606l.279.922Zm4.22-4.22-.142-.469a1.784,1.784,0,0,0-1.195-1.2l-.47-.142,7.106-7.107.923.279a.9.9,0,0,1,.6.606l.279.923Zm8.683-9.29-1.01,1.009v0a1.781,1.781,0,0,0-1.194-1.194h0l1.009-1.01a.356.356,0,0,1,.363-.086,1.457,1.457,0,0,1,.922.921A.356.356,0,0,1-426.317,51.772Z" transform="translate(454.455 -46.174)" fill="#fff"/>
        <path id="패스_422" data-name="패스 422" d="M-374.284,98.656a.441.441,0,0,0-.441-.441h-7.06a.441.441,0,0,0-.441.441.441.441,0,0,0,.441.441h7.06A.441.441,0,0,0-374.284,98.656Z" transform="translate(391.408 -91.6)" fill="#fff"/>
        <path id="패스_423" data-name="패스 423" d="M-369.275,126.753a.442.442,0,0,0-.441.441.442.442,0,0,0,.441.441h4.309a.442.442,0,0,0,.441-.441.442.442,0,0,0-.441-.441Z" transform="translate(380.488 -116.51)" fill="#fff"/>
        <path id="패스_424" data-name="패스 424" d="M-403.865,126.753a.441.441,0,0,0-.441.441.441.441,0,0,0,.441.441h2.108a.442.442,0,0,0,.441-.441.442.442,0,0,0-.441-.441Z" transform="translate(410.681 -116.51)" fill="#fff"/>
        <path id="패스_425" data-name="패스 425" d="M-403.865,156.174h5.212a.442.442,0,0,0,.441-.441.442.442,0,0,0-.441-.442h-5.212a.442.442,0,0,0-.441.442A.441.441,0,0,0-403.865,156.174Z" transform="translate(410.681 -141.421)" fill="#fff"/>
        <path id="패스_426" data-name="패스 426" d="M-403.865,184.72h2.807a.441.441,0,0,0,.441-.441.441.441,0,0,0-.441-.441h-2.807a.441.441,0,0,0-.441.441A.441.441,0,0,0-403.865,184.72Z" transform="translate(410.681 -166.339)" fill="#fff"/>
        <path id="패스_427" data-name="패스 427" d="M-410.562,98.114a.442.442,0,0,0-.441.441V108.95H-429.4V89.3a.441.441,0,0,0-.441-.441.441.441,0,0,0-.441.441v20.087a.442.442,0,0,0,.441.441h19.277a.442.442,0,0,0,.441-.441V98.556A.441.441,0,0,0-410.562,98.114Z" transform="translate(433.353 -83.437)" fill="#fff"/>
      </g>
    </g>
    <ellipse id="타원_57" data-name="타원 57" cx="30" cy="30" rx="30" ry="30" transform="translate(782.684 1078.184)" fill="#f1f3f6"/>
    <g id="그룹_1757" data-name="그룹 1757" transform="translate(729.662 1035.085)">
      <g id="그룹_1643" data-name="그룹 1643" transform="translate(79.474 63.186)">
        <g id="그룹_1642" data-name="그룹 1642" transform="translate(0 0)">
          <path id="패스_1128" data-name="패스 1128" d="M136.561,102.225a4.73,4.73,0,1,1,4.8-4.73A4.771,4.771,0,0,1,136.561,102.225Zm0-8.63a3.9,3.9,0,1,0,3.973,3.9A3.941,3.941,0,0,0,136.561,93.595Z" transform="translate(-131.76 -92.766)" fill="#15376c" stroke="#14366b" stroke-linejoin="round" stroke-width="0.3"/>
        </g>
      </g>
      <g id="그룹_1645" data-name="그룹 1645" transform="translate(69.422 57.5)">
        <g id="그룹_1644" data-name="그룹 1644" transform="translate(0 0)">
          <path id="패스_1129" data-name="패스 1129" d="M91.818,87.329h0a.459.459,0,0,1-.459-.459V75.752l.137-.135A9.929,9.929,0,0,0,94.489,68.5a10.257,10.257,0,0,0-20.511,0c0,.153.005.3.012.457l.006.136L70.87,74.419h2.147v4.62a2.409,2.409,0,0,0,2.429,2.384h5.035v5.448a.459.459,0,0,1-.459.459h0a.459.459,0,0,1-.459-.459v-4.53H75.446a3.328,3.328,0,0,1-3.347-3.3v-3.7H69.631a.208.208,0,0,1-.179-.313l3.617-6.163c0-.12-.008-.24-.008-.361a11.175,11.175,0,0,1,22.346,0,10.834,10.834,0,0,1-3.13,7.635V86.871A.459.459,0,0,1,91.818,87.329Z" transform="translate(-69.422 -57.5)" fill="#15376c" stroke="#14366b" stroke-linejoin="round" stroke-width="0.3"/>
        </g>
      </g>
      <g id="그룹_1651" data-name="그룹 1651" transform="translate(86.832 60.71)">
        <g id="그룹_1646" data-name="그룹 1646" transform="translate(0 11.826)">
          <rect id="사각형_428" data-name="사각형 428" width="0.829" height="1.513" transform="translate(0 0.42) rotate(-30.41)" fill="#15376c" stroke="#14366b" stroke-linejoin="round" stroke-width="0.3"/>
        </g>
        <g id="그룹_1647" data-name="그룹 1647" transform="translate(2.217 9.595)">
          <rect id="사각형_429" data-name="사각형 429" width="0.829" height="1.526" transform="translate(0 0.721) rotate(-60.404)" fill="#15376c" stroke="#14366b" stroke-linejoin="round" stroke-width="0.3"/>
        </g>
        <g id="그룹_1648" data-name="그룹 1648" transform="translate(3.151 6.723)">
          <rect id="사각형_430" data-name="사각형 430" width="1.532" height="0.829" fill="#15376c" stroke="#14366b" stroke-linejoin="round" stroke-width="0.3"/>
        </g>
        <g id="그룹_1649" data-name="그룹 1649" transform="translate(2.147 3.225)">
          <rect id="사각형_431" data-name="사각형 431" width="1.526" height="0.829" transform="translate(0 0.753) rotate(-29.593)" fill="#15376c" stroke="#14366b" stroke-linejoin="round" stroke-width="0.3"/>
        </g>
        <g id="그룹_1650" data-name="그룹 1650" transform="translate(0 0)">
          <rect id="사각형_432" data-name="사각형 432" width="1.513" height="0.829" transform="translate(0 1.305) rotate(-59.597)" fill="#15376c" stroke="#14366b" stroke-linejoin="round" stroke-width="0.3"/>
        </g>
      </g>
    </g>
  </g>
</svg>
