<svg xmlns="http://www.w3.org/2000/svg" width="60" height="60" viewBox="0 0 60 60">
  <g id="그룹_1937" data-name="그룹 1937" transform="translate(-783.117 -987)">
    <g id="그룹_1753" data-name="그룹 1753" transform="translate(799.105 1004)">
      <g id="그룹_390" data-name="그룹 390" transform="translate(0 0)">
        <path id="패스_421" data-name="패스 421" d="M-425.394,51.132a2.341,2.341,0,0,0-1.482-1.482,1.232,1.232,0,0,0-1.264.3l-1.344,1.344-.214-.065a.443.443,0,0,0-.44.11l-1.085,1.086V49.688a3.518,3.518,0,0,0-3.514-3.514h-16.2a3.518,3.518,0,0,0-3.514,3.514.441.441,0,0,0,.441.441h16.2a.441.441,0,0,0,.441-.441,2.634,2.634,0,0,1,2.632-2.631,2.634,2.634,0,0,1,2.632,2.631v3.619l-10.067,10.067c-.009.01-.012.021-.02.031a.419.419,0,0,0-.066.091l-2.046,4.292a1.354,1.354,0,0,1-.416-.269,2.262,2.262,0,0,0-3.195,0,.44.44,0,0,0,0,.623.441.441,0,0,0,.624,0,1.378,1.378,0,0,1,1.947,0,2.311,2.311,0,0,0,1.187.621.4.4,0,0,0,.083.008h0a.437.437,0,0,0,.172-.039c.005,0,.012,0,.017,0l4.645-2.215a.408.408,0,0,0,.089-.064.342.342,0,0,0,.033-.022l12.035-12.035a.441.441,0,0,0,.111-.44l-.065-.214,1.345-1.344A1.234,1.234,0,0,0-425.394,51.132Zm-12.83-1.885h-15.312a2.635,2.635,0,0,1,2.594-2.19h13.877A3.508,3.508,0,0,0-438.223,49.247ZM-443.14,67.4l1.515-3.179.813.245a.9.9,0,0,1,.6.606h0l.245.813Zm3.919-2.114-.142-.47a1.784,1.784,0,0,0-1.194-1.195l-.47-.142,3.512-3.513.923.279a.9.9,0,0,1,.6.606l.279.922Zm4.22-4.22-.142-.469a1.784,1.784,0,0,0-1.195-1.2l-.47-.142,7.106-7.107.923.279a.9.9,0,0,1,.6.606l.279.923Zm8.683-9.29-1.01,1.009v0a1.781,1.781,0,0,0-1.194-1.194h0l1.009-1.01a.356.356,0,0,1,.363-.086,1.457,1.457,0,0,1,.922.921A.356.356,0,0,1-426.317,51.772Z" transform="translate(454.455 -46.174)" fill="#fff"/>
        <path id="패스_422" data-name="패스 422" d="M-374.284,98.656a.441.441,0,0,0-.441-.441h-7.06a.441.441,0,0,0-.441.441.441.441,0,0,0,.441.441h7.06A.441.441,0,0,0-374.284,98.656Z" transform="translate(391.408 -91.6)" fill="#fff"/>
        <path id="패스_423" data-name="패스 423" d="M-369.275,126.753a.442.442,0,0,0-.441.441.442.442,0,0,0,.441.441h4.309a.442.442,0,0,0,.441-.441.442.442,0,0,0-.441-.441Z" transform="translate(380.488 -116.51)" fill="#fff"/>
        <path id="패스_424" data-name="패스 424" d="M-403.865,126.753a.441.441,0,0,0-.441.441.441.441,0,0,0,.441.441h2.108a.442.442,0,0,0,.441-.441.442.442,0,0,0-.441-.441Z" transform="translate(410.681 -116.51)" fill="#fff"/>
        <path id="패스_425" data-name="패스 425" d="M-403.865,156.174h5.212a.442.442,0,0,0,.441-.441.442.442,0,0,0-.441-.442h-5.212a.442.442,0,0,0-.441.442A.441.441,0,0,0-403.865,156.174Z" transform="translate(410.681 -141.421)" fill="#fff"/>
        <path id="패스_426" data-name="패스 426" d="M-403.865,184.72h2.807a.441.441,0,0,0,.441-.441.441.441,0,0,0-.441-.441h-2.807a.441.441,0,0,0-.441.441A.441.441,0,0,0-403.865,184.72Z" transform="translate(410.681 -166.339)" fill="#fff"/>
        <path id="패스_427" data-name="패스 427" d="M-410.562,98.114a.442.442,0,0,0-.441.441V108.95H-429.4V89.3a.441.441,0,0,0-.441-.441.441.441,0,0,0-.441.441v20.087a.442.442,0,0,0,.441.441h19.277a.442.442,0,0,0,.441-.441V98.556A.441.441,0,0,0-410.562,98.114Z" transform="translate(433.353 -83.437)" fill="#fff"/>
      </g>
    </g>
    <path id="패스_1175" data-name="패스 1175" d="M30,0A30,30,0,1,1,0,30,30,30,0,0,1,30,0Z" transform="translate(783.117 987)" fill="#f1f3f6"/>
    <g id="그룹_1756" data-name="그룹 1756" transform="translate(1680.392 639.566)">
      <g id="그룹_1637" data-name="그룹 1637" transform="translate(-879.021 383.01)">
        <g id="그룹_1636" data-name="그룹 1636" transform="translate(0 0)">
          <path id="패스_1122" data-name="패스 1122" d="M-858.316,491.8h-4.573a1.247,1.247,0,0,1-1.214-1.278v-.017a1.25,1.25,0,0,1,1.214-1.278h2.451s0-1.286,4.276-1.286,4.276,1.286,4.276,1.286v6.43s-9.677,1.286-10.288,1.286l-10.288-5.144h0a1.8,1.8,0,0,1,2.417-1.693l5.3,2.336,1.286-.643" transform="translate(872.462 -487.945)" fill="none" stroke="#15376c" stroke-linejoin="round" stroke-width="1"/>
          <rect id="사각형_427" data-name="사각형 427" width="3.858" height="8.359" transform="translate(20.575 0)" fill="none" stroke="#15376c" stroke-linejoin="round" stroke-width="1"/>
        </g>
      </g>
      <g id="그룹_1641" data-name="그룹 1641" transform="translate(-880.306 362.434)">
        <g id="그룹_1640" data-name="그룹 1640">
          <g id="그룹_1639" data-name="그룹 1639">
            <g id="그룹_1638" data-name="그룹 1638" transform="translate(0 5.144)">
              <path id="패스_1123" data-name="패스 1123" d="M-880.306,448.723a3.858,3.858,0,0,0,3.858,3.858,3.858,3.858,0,0,0,3.858-3.858Z" transform="translate(880.306 -439.721)" fill="none" stroke="#15376c" stroke-linejoin="round" stroke-width="1"/>
              <path id="패스_1124" data-name="패스 1124" d="M-880.306,402.814l3.858-9,3.858,9" transform="translate(880.306 -393.812)" fill="none" stroke="#15376c" stroke-linejoin="round" stroke-width="1"/>
              <path id="패스_1125" data-name="패스 1125" d="M-794.018,448.723a3.858,3.858,0,0,0,3.858,3.858,3.858,3.858,0,0,0,3.858-3.858Z" transform="translate(808.163 -439.721)" fill="none" stroke="#15376c" stroke-linejoin="round" stroke-width="1"/>
              <path id="패스_1126" data-name="패스 1126" d="M-794.018,402.814l3.858-9,3.858,9" transform="translate(808.163 -393.812)" fill="none" stroke="#15376c" stroke-linejoin="round" stroke-width="1"/>
            </g>
            <line id="선_31" data-name="선 31" x2="14.146" transform="translate(3.858 5.144)" fill="none" stroke="#15376c" stroke-linejoin="round" stroke-width="1"/>
            <circle id="타원_45" data-name="타원 45" cx="1.286" cy="1.286" r="1.286" transform="translate(9.645)" fill="none" stroke="#15376c" stroke-linejoin="round" stroke-width="1"/>
            <line id="선_32" data-name="선 32" y2="16.075" transform="translate(10.931 2.572)" fill="none" stroke="#15376c" stroke-linejoin="round" stroke-width="1"/>
          </g>
        </g>
      </g>
      <path id="패스_1127" data-name="패스 1127" d="M-843.7,481.109l4.93-4.93,2.572,2.572" transform="translate(-30.605 -95.098)" fill="none" stroke="#15376c" stroke-linejoin="round" stroke-width="1"/>
    </g>
  </g>
</svg>
