<svg xmlns="http://www.w3.org/2000/svg" width="60.566" height="66.48" viewBox="0 0 60.566 66.48">
  <g id="그룹_1660" data-name="그룹 1660" transform="translate(-1144.813 -181.997)">
    <g id="그룹_1654" data-name="그룹 1654" transform="translate(1150.72 187.6)">
      <path id="패스_1126" data-name="패스 1126" d="M1193.336,187.389v5.086h-37.452V242.41H1150.5V187.389Z" transform="translate(-1150.498 -187.389)" fill="#e6e6e6"/>
    </g>
    <g id="그룹_1655" data-name="그룹 1655" transform="translate(1191.062 223.399)">
      <rect id="사각형_422" data-name="사각형 422" width="13.311" height="3.59" transform="translate(0 12.567) rotate(-70.753)" fill="#ffc7c0"/>
    </g>
    <g id="그룹_1656" data-name="그룹 1656" transform="translate(1196.422 211.392)">
      <rect id="사각형_423" data-name="사각형 423" width="9.217" height="3.59" transform="translate(0 8.702) rotate(-70.753)" fill="#15376c"/>
    </g>
    <g id="그룹_1659" data-name="그룹 1659" transform="translate(1163.047 197.461)">
      <g id="그룹_1657" data-name="그룹 1657" transform="translate(2.125 0.52)">
        <rect id="사각형_424" data-name="사각형 424" width="24" height="4.733" fill="#ffcd73"/>
      </g>
      <g id="그룹_1658" data-name="그룹 1658">
        <path id="패스_1127" data-name="패스 1127" d="M1164.427,202.65h24a.52.52,0,0,0,.52-.52V197.4a.52.52,0,0,0-.52-.52h-24a.52.52,0,0,0-.52.52v4.732A.52.52,0,0,0,1164.427,202.65Zm.52-4.732h22.959v3.693h-22.959Z" transform="translate(-1162.3 -196.879)" fill="#383838"/>
        <path id="패스_1128" data-name="패스 1128" d="M1162.88,208.682h27.762a.52.52,0,0,0,0-1.039H1162.88a.52.52,0,0,0,0,1.039Z" transform="translate(-1162.361 -196.458)" fill="#383838"/>
        <path id="패스_1129" data-name="패스 1129" d="M1162.88,213.493h27.762a.52.52,0,0,0,0-1.039H1162.88a.52.52,0,0,0,0,1.039Z" transform="translate(-1162.361 -196.27)" fill="#383838"/>
        <path id="패스_1130" data-name="패스 1130" d="M1162.88,218.305h27.762a.52.52,0,0,0,0-1.039H1162.88a.52.52,0,0,0,0,1.039Z" transform="translate(-1162.361 -196.082)" fill="#383838"/>
        <path id="패스_1131" data-name="패스 1131" d="M1191.162,222.6a.519.519,0,0,0-.52-.52H1162.88a.52.52,0,0,0,0,1.039h27.762A.52.52,0,0,0,1191.162,222.6Z" transform="translate(-1162.361 -195.894)" fill="#383838"/>
        <path id="패스_1132" data-name="패스 1132" d="M1167.148,226.89a.52.52,0,0,0,0,1.039h18.346a.52.52,0,0,0,0-1.039Z" transform="translate(-1162.194 -195.706)" fill="#383838"/>
        <path id="패스_1133" data-name="패스 1133" d="M1187.933,239.613h-8.67a.52.52,0,0,0,0,1.039h8.67a.52.52,0,0,0,0-1.039Z" transform="translate(-1161.721 -195.209)" fill="#383838"/>
        <path id="패스_1134" data-name="패스 1134" d="M1172.609,239.613h-8.67a.52.52,0,0,0,0,1.039h8.67a.52.52,0,0,0,0-1.039Z" transform="translate(-1162.32 -195.209)" fill="#383838"/>
      </g>
    </g>
    <path id="패스_1135" data-name="패스 1135" d="M1205.031,211.317l-4.942-1.726a.531.531,0,0,0-.4.023.515.515,0,0,0-.265.3l-.457,1.309h0l-.212.6V192.685a.518.518,0,0,0-.52-.52h-4.161V187.6a.52.52,0,0,0-.52-.52h-4.868v-4.564a.52.52,0,0,0-.52-.52h-42.839a.52.52,0,0,0-.52.52v55.021a.52.52,0,0,0,.52.52h4.868v4.564a.52.52,0,0,0,.52.52h4.867v4.817a.518.518,0,0,0,.52.52h42.132a.518.518,0,0,0,.52-.52V225.864l.411-1.176c.03-.042.074-.071.091-.122l3.039-8.7a.54.54,0,0,0,.025-.214l1.014-2.9a.52.52,0,0,0-.319-.662l-2.9-1.012.115-.33,3.961,1.383-4.163,11.923a.519.519,0,1,0,.98.343l4.334-12.414A.518.518,0,0,0,1205.031,211.317Zm-13.469,24.274,4.1-11.732,2.407.841-4.1,11.732Zm2.039,1.812a12.318,12.318,0,0,1-1.325,2.3l-.056.077a9.248,9.248,0,0,1-.985,1.1l-.3-.106c-.025-.183-.051-.366-.063-.547,0-.044-.008-.087-.01-.132-.013-.252-.015-.5-.009-.745,0-.081.005-.161.009-.241.009-.2.023-.4.042-.588.005-.05.008-.1.013-.151.026-.231.057-.449.092-.654.01-.061.021-.118.031-.177.029-.158.058-.309.088-.446.008-.039.017-.082.025-.118.034-.151.068-.282.1-.4l1.387.485.949.33Zm3.185-16.631,2.363.826-.74,2.121-2.364-.826Zm2.706-.156-2.363-.825,1.613-4.619,2.364.825ZM1150.2,187.6v49.418h-4.349V183.036h41.8v4.044H1150.72A.52.52,0,0,0,1150.2,187.6Zm5.386,5.085h0V242.1h-4.347V188.119h41.8v4.046h-36.933A.518.518,0,0,0,1155.587,192.685Zm42.132,54.753h-41.093V193.206h41.093v21.6l-7.31,20.938c-.007.023-.052.154-.112.363a12.065,12.065,0,0,0-.36,5.132l.149,1.049a.518.518,0,0,0,.343.418h0a.539.539,0,0,0,.172.028.557.557,0,0,0,.073-.014.57.57,0,0,0,.06-.011.508.508,0,0,0,.224-.117l.768-.729h0a12.224,12.224,0,0,0,3.052-4.593h0l.922-2.639,2.019-5.781Zm4.468-34.543-.741,2.121-2.408-.841.741-2.121Z" fill="#383838"/>
  </g>
</svg>
