<svg xmlns="http://www.w3.org/2000/svg" width="105" height="105" viewBox="0 0 105 105">
  <g id="그룹_237" data-name="그룹 237" transform="translate(-874 -1550)">
    <path id="패스_322" data-name="패스 322" d="M52.5,0A52.5,52.5,0,1,1,0,52.5,52.5,52.5,0,0,1,52.5,0Z" transform="translate(874 1550)" fill="#fff"/>
    <g id="그룹_222" data-name="그룹 222" transform="translate(899 1561)">
      <path id="패스_392" data-name="패스 392" d="M674.1,382.659h-5.694v-6.85a20.864,20.864,0,1,0-41.729,0v6.85h-5.693a1.392,1.392,0,0,0-1.391,1.391v46.73a1.392,1.392,0,0,0,1.391,1.391H674.1a1.391,1.391,0,0,0,1.391-1.391v-46.73A1.391,1.391,0,0,0,674.1,382.659Zm-26.558-24.934a18.1,18.1,0,0,1,18.081,18.084v6.85h-3.361v-6.851a14.721,14.721,0,1,0-29.443,0v6.851h-3.361v-6.85A18.1,18.1,0,0,1,647.545,357.726Zm11.938,24.934H635.606v-6.851a11.939,11.939,0,1,1,23.877,0Zm13.229,46.73H622.378V385.442h50.334Z" transform="translate(-619.595 -354.943)" fill="#545454" stroke="#fff" stroke-width="0.6"/>
      <path id="패스_393" data-name="패스 393" d="M647.518,410.963v14.794h6.171v-2.783H650.3v-2.052h4.524V418.14H650.3v-7.177a6.823,6.823,0,1,0-2.783,0Zm1.391-10.72a4.04,4.04,0,1,1-4.04,4.04A4.045,4.045,0,0,1,648.909,400.244Z" transform="translate(-621.224 -358.023)" fill="#545454" stroke="#fff" stroke-width="0.6"/>
    </g>
  </g>
</svg>
