<svg xmlns="http://www.w3.org/2000/svg" width="105" height="105" viewBox="0 0 105 105">
  <g id="그룹_240" data-name="그룹 240" transform="translate(-566 -1436)">
    <path id="패스_317" data-name="패스 317" d="M52.5,0A52.5,52.5,0,1,1,0,52.5,52.5,52.5,0,0,1,52.5,0Z" transform="translate(566 1436)" fill="#fff"/>
    <g id="그룹_202" data-name="그룹 202" transform="translate(586.141 1453.471)">
      <path id="패스_338" data-name="패스 338" d="M276.786,360.834a6.268,6.268,0,0,0-1.1.1,1.374,1.374,0,0,0-.521-.1H220.672a4.646,4.646,0,0,0-4.641,4.642V425.9a4.645,4.645,0,0,0,4.641,4.641h47.955a4.646,4.646,0,0,0,4.642-4.641v-15.3a1.391,1.391,0,0,0-2.783,0v15.3a1.86,1.86,0,0,1-1.859,1.858H220.672a1.86,1.86,0,0,1-1.858-1.858V365.476a1.861,1.861,0,0,1,1.858-1.859h50.889a6.26,6.26,0,0,0-1.076,3.517v5.2l0,.022c0,.01,0,.019,0,.031v20.586a1.416,1.416,0,0,0,2.783-.344v-18.9h8.427a1.391,1.391,0,0,0,1.391-1.391v-5.2A6.307,6.307,0,0,0,276.786,360.834Zm3.517,10.108h-7.035v-3.809a3.518,3.518,0,0,1,7.035,0Z" transform="translate(-216.031 -360.834)" fill="#545454" stroke="#fff" stroke-width="0.6"/>
      <path id="패스_339" data-name="패스 339" d="M287.062,399.342H252.15a1.39,1.39,0,0,0-.286.031h0a1.322,1.322,0,0,0-.269.087l-.007,0-7.546,3.343h-2.3a1.391,1.391,0,0,0,0,2.783h2.3l7.546,3.341.007,0a1.392,1.392,0,0,0,.3.092c.035.007.07.007.106.01a1.3,1.3,0,0,0,.148.015h34.912a4.853,4.853,0,1,0,0-9.706Zm-36.3,3.529v2.648L247.77,404.2Zm32.931,3.394H253.541v-4.141H283.69Zm3.373,0h-.59v-4.141h.59a2.07,2.07,0,1,1,0,4.141Z" transform="translate(-217.792 -363.624)" fill="#545454" stroke="#fff" stroke-width="0.6"/>
      <g id="그룹_194" data-name="그룹 194" transform="translate(22.554 18.928)">
        <g id="그룹_193" data-name="그룹 193">
          <path id="패스_340" data-name="패스 340" d="M263.379,381.24H241.757a1.411,1.411,0,0,0,0,2.823h21.622a1.411,1.411,0,1,0,0-2.823Z" transform="translate(-240.346 -381.24)" fill="#545454" stroke="#fff" stroke-width="0.6"/>
        </g>
      </g>
      <g id="그룹_196" data-name="그룹 196" transform="translate(22.554 27.544)">
        <g id="그룹_195" data-name="그룹 195">
          <path id="패스_341" data-name="패스 341" d="M263.379,390.529H241.757a1.411,1.411,0,0,0,0,2.823h21.622a1.411,1.411,0,1,0,0-2.823Z" transform="translate(-240.346 -390.529)" fill="#545454" stroke="#fff" stroke-width="0.6"/>
        </g>
      </g>
      <g id="그룹_198" data-name="그룹 198" transform="translate(22.554 56.208)">
        <g id="그룹_197" data-name="그룹 197">
          <path id="패스_342" data-name="패스 342" d="M263.379,421.432H241.757a1.411,1.411,0,0,0,0,2.823h21.622a1.411,1.411,0,1,0,0-2.823Z" transform="translate(-240.346 -421.432)" fill="#545454" stroke="#fff" stroke-width="0.6"/>
        </g>
      </g>
      <g id="그룹_200" data-name="그룹 200" transform="translate(22.554 10.312)">
        <g id="그룹_199" data-name="그룹 199">
          <path id="패스_343" data-name="패스 343" d="M253.176,371.951H241.757a1.412,1.412,0,0,0,0,2.824h11.419a1.412,1.412,0,0,0,0-2.824Z" transform="translate(-240.346 -371.951)" fill="#545454" stroke="#fff" stroke-width="0.6"/>
        </g>
      </g>
      <g id="그룹_201" data-name="그룹 201" transform="translate(8.202 10.331)">
        <path id="패스_344" data-name="패스 344" d="M228.272,381.658a1.4,1.4,0,0,0,.984.407,1.373,1.373,0,0,0,.151-.009,1.392,1.392,0,0,0,1.022-.634l4.662-7.31a1.392,1.392,0,1,0-2.347-1.5l-3.731,5.849-1.765-1.766a1.392,1.392,0,0,0-1.968,1.968Z" transform="translate(-224.873 -371.972)" fill="#545454" stroke="#fff" stroke-width="0.6"/>
        <path id="패스_345" data-name="패스 345" d="M234.665,393.184a1.393,1.393,0,0,0-1.921.426l-3.731,5.848-1.765-1.766a1.392,1.392,0,1,0-1.968,1.968l2.991,2.991a1.394,1.394,0,0,0,2.158-.237l4.662-7.31A1.391,1.391,0,0,0,234.665,393.184Z" transform="translate(-224.873 -373.493)" fill="#545454" stroke="#fff" stroke-width="0.6"/>
        <path id="패스_346" data-name="패스 346" d="M234.665,414.178a1.392,1.392,0,0,0-1.921.426l-3.731,5.848-1.765-1.766a1.392,1.392,0,0,0-1.968,1.968l2.991,2.991a1.394,1.394,0,0,0,2.158-.237l4.662-7.31A1.391,1.391,0,0,0,234.665,414.178Z" transform="translate(-224.873 -375.014)" fill="#545454" stroke="#fff" stroke-width="0.6"/>
      </g>
    </g>
  </g>
</svg>
