<svg xmlns="http://www.w3.org/2000/svg" width="105" height="105" viewBox="0 0 105 105">
  <g id="그룹_132" data-name="그룹 132" transform="translate(-531 -587)">
    <circle id="타원_2" data-name="타원 2" cx="52.5" cy="52.5" r="52.5" transform="translate(531 587)" fill="#fff"/>
    <g id="그룹_45" data-name="그룹 45" transform="translate(552 603)">
      <g id="그룹_39" data-name="그룹 39" transform="translate(0)">
        <path id="패스_212" data-name="패스 212" d="M474.106,711.11H456.744v-2.258a5.057,5.057,0,0,0-5.056-5.058h-.007a5.016,5.016,0,0,0-2.923.934,5.063,5.063,0,0,0-5.054-4.8h0a5.049,5.049,0,0,0-3.985,1.95,5.08,5.08,0,0,0-3.992-1.95h0a5.065,5.065,0,0,0-4.912,3.865,5.022,5.022,0,0,0-3.061-1.031h-.007a5.069,5.069,0,0,0-5.058,5.06v3.287h-6.617a2.315,2.315,0,0,0-2.313,2.312v29.436a2.316,2.316,0,0,0,2.313,2.313h31.152a1.07,1.07,0,0,0,0-2.14H423.253a8.516,8.516,0,0,0-7.362-7.362V720.611a8.515,8.515,0,0,0,7.362-7.362h43.781a8.55,8.55,0,0,0,7.244,7.341v15.1a8.5,8.5,0,0,0-5.9,3.716,1.07,1.07,0,0,0,1.783,1.184,6.348,6.348,0,0,1,4.116-2.722v4.988a.173.173,0,0,1-.173.174h-2.585a1.07,1.07,0,1,0,0,2.14h2.585a2.316,2.316,0,0,0,2.312-2.313V713.422A2.315,2.315,0,0,0,474.106,711.11Zm-53.033,31.922h-5.007a.174.174,0,0,1-.174-.174V737.85A6.352,6.352,0,0,1,421.073,743.032Zm-5.181-24.6v-5.008a.174.174,0,0,1,.174-.173h5.007A6.349,6.349,0,0,1,415.891,718.431Zm8.93-7.32v-3.286a2.926,2.926,0,0,1,2.921-2.923h0a2.923,2.923,0,0,1,2.918,2.852l0,3.357Zm7.983,0v-3.287c0-.031,0-.061,0-.092v-2.739a2.923,2.923,0,0,1,2.917-2.923h0a2.916,2.916,0,0,1,2.919,2.921l0,6.12Zm13.82-2.337v2.337h-5.842l0-6.119a2.926,2.926,0,0,1,2.919-2.922h0a2.922,2.922,0,0,1,2.922,2.922Zm7.981,2.337h-5.842v-2.318a2.924,2.924,0,0,1,2.919-2.86h0a2.922,2.922,0,0,1,2.919,2.919Zm14.608,2.139h4.893a.174.174,0,0,1,.173.173v4.984A6.381,6.381,0,0,1,469.213,713.249Z" transform="translate(-413.753 -699.93)" fill="#545454"/>
      </g>
      <g id="그룹_40" data-name="그룹 40" transform="translate(9.503 23.358)">
        <path id="패스_213" data-name="패스 213" d="M431.641,734.35a3.888,3.888,0,0,0-3.884,3.884v1.937a3.89,3.89,0,0,0,3.884,3.885h1.936a3.889,3.889,0,0,0,3.884-3.885v-1.937a3.887,3.887,0,0,0-3.884-3.884Zm3.681,3.884v1.937a1.748,1.748,0,0,1-1.745,1.746h-1.936a1.749,1.749,0,0,1-1.746-1.746v-1.937a1.749,1.749,0,0,1,1.746-1.745h1.936A1.747,1.747,0,0,1,435.322,738.234Z" transform="translate(-427.757 -734.35)" fill="#545454"/>
      </g>
      <g id="그룹_41" data-name="그룹 41" transform="translate(26.019 17.323)">
        <path id="패스_214" data-name="패스 214" d="M457.4,747.231a1.069,1.069,0,0,0,1.07-1.068v-1.149a5.035,5.035,0,0,0,4.252-4.819c0-2.378-1.4-4.92-5.322-4.92-2.1,0-3.167-.936-3.167-2.781a3,3,0,0,1,3.167-2.781,3.194,3.194,0,0,1,2.974,1.822,1.07,1.07,0,0,0,1.972-.831,5.175,5.175,0,0,0-3.876-3.019v-1.161a1.07,1.07,0,0,0-2.139,0v1.151a5.035,5.035,0,0,0-4.237,4.818c0,2.379,1.394,4.92,5.306,4.92,2.083,0,3.183.961,3.183,2.781a3,3,0,0,1-3.167,2.78,3.192,3.192,0,0,1-2.974-1.82,1.07,1.07,0,0,0-1.973.83A5.176,5.176,0,0,0,456.331,745v1.163A1.069,1.069,0,0,0,457.4,747.231Z" transform="translate(-452.094 -725.456)" fill="#545454"/>
      </g>
      <g id="그룹_42" data-name="그룹 42" transform="translate(7.96 29.185)">
        <path id="패스_215" data-name="패스 215" d="M465.145,743.05a6.069,6.069,0,0,0-7.254,5.956v4.685a8.852,8.852,0,0,1-3.03,6.518,1.069,1.069,0,0,0,1.511,1.512,10.965,10.965,0,0,0,3.658-8.03v-4.685a3.929,3.929,0,0,1,4.712-3.855,4.078,4.078,0,0,1,3.142,4.043v9.243a7.719,7.719,0,0,1-2.277,5.495l-4.719,4.72a8.532,8.532,0,0,0-2.451,5H428.591V763.628a1.069,1.069,0,1,0-2.139,0v10.048a1.06,1.06,0,0,0-.969,1.05v10.568a1.07,1.07,0,0,0,1.069,1.071h4.6a1.07,1.07,0,1,0,0-2.14h-3.528v-8.431h31.722v8.431H446.953a1.07,1.07,0,0,0,0,2.14h13.46a1.071,1.071,0,0,0,1.07-1.071V774.726a1.056,1.056,0,0,0-.872-1.031,6.386,6.386,0,0,1,1.79-3.53l4.72-4.721a9.839,9.839,0,0,0,2.9-7.007v-9.243A6.168,6.168,0,0,0,465.145,743.05Z" transform="translate(-425.483 -742.936)" fill="#545454"/>
      </g>
      <g id="그룹_43" data-name="그룹 43" transform="translate(18.262 70.474)">
        <path id="패스_216" data-name="패스 216" d="M446.129,803.778h-4.4a1.07,1.07,0,1,0,0,2.14h4.4a1.07,1.07,0,0,0,0-2.14Z" transform="translate(-440.663 -803.778)" fill="#545454"/>
      </g>
      <g id="그룹_44" data-name="그룹 44" transform="translate(49.106 26.125)">
        <path id="패스_217" data-name="패스 217" d="M491.316,744.547a1.018,1.018,0,0,1-.923-.586,6.178,6.178,0,0,0-3.565-3.544,1.018,1.018,0,1,1,.607-1.943,8.193,8.193,0,0,1,4.8,4.624,1.017,1.017,0,0,1-.921,1.449Z" transform="translate(-486.113 -738.427)" fill="#545454"/>
      </g>
    </g>
  </g>
</svg>
