<svg xmlns="http://www.w3.org/2000/svg" width="105" height="105" viewBox="0 0 105 105">
  <g id="그룹_184" data-name="그룹 184" transform="translate(-807 -1228)">
    <path id="패스_279" data-name="패스 279" d="M52.5,0A52.5,52.5,0,1,1,0,52.5,52.5,52.5,0,0,1,52.5,0Z" transform="translate(807 1228)" fill="#fff"/>
    <g id="그룹_173" data-name="그룹 173" transform="translate(825.283 1244)">
      <path id="패스_310" data-name="패스 310" d="M1856.834,780.136h11.259a1.121,1.121,0,0,0,1.122-1.122V767.52a1.122,1.122,0,0,0-1.122-1.122h-11.259a1.122,1.122,0,0,0-1.122,1.122v11.494A1.122,1.122,0,0,0,1856.834,780.136Zm1.123-11.494h9.014v9.249h-9.014Z" transform="translate(-1807.963 -716.428)" fill="#545454"/>
      <path id="패스_311" data-name="패스 311" d="M1843.493,732.853l-25.89,26.1,1.594,1.581,4.052-4.086v21.858a1.122,1.122,0,0,0,1.122,1.122h9.146a1.122,1.122,0,0,0,1.122-1.122v-15.85H1839v15.85a1.122,1.122,0,0,0,1.122,1.122h24.1a1.122,1.122,0,0,0,1.121-1.122V756.454l4.049,4.082,1.594-1.581-25.889-26.1A1.158,1.158,0,0,0,1843.493,732.853Zm19.6,21.665v22.668h-21.851V761.337a1.121,1.121,0,0,0-1.122-1.122h-6.6a1.122,1.122,0,0,0-1.122,1.122v15.849h-6.9V754.518h-.327l19.124-19.281,19.124,19.281Z" transform="translate(-1797.449 -707.085)" fill="#545454"/>
      <path id="패스_312" data-name="패스 312" d="M1792.014,765.564v-53.74h8.022a4.175,4.175,0,0,0,4.17-4.171v-8.021h41.549a1.928,1.928,0,0,1,1.925,1.925v25.908h2.245V701.557a4.174,4.174,0,0,0-4.17-4.169h-42.672a1.119,1.119,0,0,0-.793.329L1790.1,709.909a1.119,1.119,0,0,0-.329.793v54.863a4.174,4.174,0,0,0,4.169,4.17h18.288v-2.245h-18.288A1.928,1.928,0,0,1,1792.014,765.564Zm8.022-55.984H1793.6l8.36-8.36v6.434A1.928,1.928,0,0,1,1800.036,709.58Z" transform="translate(-1789.77 -697.388)" fill="#545454"/>
      <path id="패스_313" data-name="패스 313" d="M1861.677,709.975a4.175,4.175,0,0,0-4.171-4.169h-3.048v2.244h3.048a1.928,1.928,0,0,1,1.926,1.925v3.048h2.245Z" transform="translate(-1807.617 -699.71)" fill="#545454"/>
      <rect id="사각형_91" data-name="사각형 91" width="3.048" height="2.244" transform="translate(40.745 6.095)" fill="#545454"/>
      <rect id="사각형_92" data-name="사각형 92" width="44.195" height="2.244" transform="translate(8.742 21.386)" fill="#545454"/>
      <rect id="사각형_93" data-name="사각형 93" width="17.178" height="2.244" transform="translate(8.742 29.006)" fill="#545454"/>
      <rect id="사각형_94" data-name="사각형 94" width="17.178" height="2.244" transform="translate(8.742 36.627)" fill="#545454"/>
      <rect id="사각형_95" data-name="사각형 95" width="9.385" height="2.244" transform="translate(8.742 44.246)" fill="#545454"/>
    </g>
  </g>
</svg>
