<svg xmlns="http://www.w3.org/2000/svg" width="105" height="105" viewBox="0 0 105 105">
  <g id="그룹_236" data-name="그룹 236" transform="translate(-1028 -1550)">
    <path id="패스_324" data-name="패스 324" d="M52.5,0A52.5,52.5,0,1,1,0,52.5,52.5,52.5,0,0,1,52.5,0Z" transform="translate(1028 1550)" fill="#fff"/>
    <g id="그룹_223" data-name="그룹 223" transform="translate(1045.687 1566.668)">
      <path id="패스_394" data-name="패스 394" d="M666.391,623.206a12.468,12.468,0,0,0-.161-2,1.136,1.136,0,0,0-.458-.74,1.15,1.15,0,0,0-.851-.2,1.138,1.138,0,0,0-.939,1.309,10.129,10.129,0,0,1,.133,1.626,9.922,9.922,0,1,1-1.95-5.907,1.127,1.127,0,0,0,.747.45,1.108,1.108,0,0,0,.846-.213,1.14,1.14,0,0,0,.236-1.594,12.2,12.2,0,0,0-22,7.263,11.866,11.866,0,0,0,.1,1.475,9.9,9.9,0,0,1-14.064-1.4,1.124,1.124,0,0,0-.763-.418,1.163,1.163,0,0,0-.837.247,1.137,1.137,0,0,0-.174,1.6,12.17,12.17,0,0,0,16.381,2.408,12.2,12.2,0,0,0,23.755-3.914Z" transform="translate(-611.022 -590.892)" fill="#545454" stroke="#fff" stroke-width="0.6"/>
      <path id="패스_395" data-name="패스 395" d="M643.643,610.626a1.148,1.148,0,0,0,1.58.315,1.141,1.141,0,0,0,.314-1.581,12.2,12.2,0,0,0-21.954,9.87,1.139,1.139,0,0,0,1.1.849,1.088,1.088,0,0,0,.29-.038,1.139,1.139,0,0,0,.812-1.389,9.924,9.924,0,0,1,17.858-8.025Z" transform="translate(-610.65 -589.957)" fill="#545454" stroke="#fff" stroke-width="0.6"/>
      <path id="패스_396" data-name="패스 396" d="M636.581,625.2a1.139,1.139,0,0,0,1.139-1.139v-.6a4.114,4.114,0,0,0,3.193-3.884c0-1.948-1.138-4.031-4.332-4.031-1.375,0-2.043-.574-2.043-1.754a1.917,1.917,0,0,1,2.043-1.751,2.061,2.061,0,0,1,1.924,1.163,1.139,1.139,0,0,0,2.1-.884,4.206,4.206,0,0,0-2.886-2.406v-.6a1.139,1.139,0,1,0-2.277,0v.6a4.063,4.063,0,0,0-3.182,3.88c0,1.949,1.134,4.031,4.32,4.031,1.383,0,2.055.575,2.055,1.753a1.916,1.916,0,0,1-2.044,1.751,2.059,2.059,0,0,1-1.923-1.161,1.139,1.139,0,0,0-2.1.884,4.207,4.207,0,0,0,2.874,2.4v.6A1.14,1.14,0,0,0,636.581,625.2Z" transform="translate(-611.849 -590.518)" fill="#545454" stroke="#fff" stroke-width="0.6"/>
      <path id="패스_397" data-name="패스 397" d="M657.823,632.28a1.14,1.14,0,0,0,1.139-1.14v-.6a4.066,4.066,0,0,0,3.194-3.886c0-1.947-1.138-4.029-4.333-4.029-1.375,0-2.042-.573-2.042-1.752a1.917,1.917,0,0,1,2.042-1.754,2.06,2.06,0,0,1,1.924,1.162,1.133,1.133,0,0,0,.624.615,1.106,1.106,0,0,0,.869-.008,1.139,1.139,0,0,0,.607-1.489,4.211,4.211,0,0,0-2.886-2.408v-.6a1.139,1.139,0,1,0-2.277,0v.6a4.062,4.062,0,0,0-3.182,3.88c0,1.948,1.135,4.031,4.32,4.031,1.383,0,2.056.573,2.056,1.751a1.918,1.918,0,0,1-2.044,1.754,2.061,2.061,0,0,1-1.924-1.16,1.125,1.125,0,0,0-.619-.615,1.138,1.138,0,0,0-1.485.624,1.126,1.126,0,0,0,0,.871,4.211,4.211,0,0,0,2.873,2.4v.6A1.141,1.141,0,0,0,657.823,632.28Z" transform="translate(-614.655 -591.454)" fill="#545454" stroke="#fff" stroke-width="0.6"/>
      <path id="패스_398" data-name="패스 398" d="M668.539,642.968a1.3,1.3,0,0,0-1.3,1.3v12.369H618.859v-57.28h32.29a1.3,1.3,0,0,0,1.3-1.3,7.4,7.4,0,1,1,14.786,0v24.215a1.3,1.3,0,1,0,2.6,0V598.057h0a10.232,10.232,0,0,0-9.472-10.188,1.326,1.326,0,0,0-.3-.037c-.075,0-.146.01-.22.011s-.156-.012-.236-.012h-40.65a10.237,10.237,0,0,0-10.225,10.227,1.3,1.3,0,0,0,1.3,1.3h6.212v58.581a1.3,1.3,0,0,0,1.3,1.3h50.982a1.3,1.3,0,0,0,1.3-1.3V644.27A1.3,1.3,0,0,0,668.539,642.968Zm-49.573-52.533H653.28a10.2,10.2,0,0,0-3.341,6.321H611.457A7.634,7.634,0,0,1,618.967,590.435Z" transform="translate(-608.742 -587.831)" fill="#545454" stroke="#fff" stroke-width="0.6"/>
      <path id="패스_399" data-name="패스 399" d="M695.374,625.514a4.762,4.762,0,0,0-6.532-1.6l-1.218.738a1.264,1.264,0,0,0-.22.169,1.29,1.29,0,0,0-.253.117l-5.5,3.328-5.415,3.278h0l-17.2,10.41c-.034.021-.063.048-.094.071s-.047.033-.069.052a1.291,1.291,0,0,0-.163.166c-.011.014-.025.023-.036.036l-5.534,7.282-1.2.73a1.3,1.3,0,1,0,1.349,2.226l1.2-.728,9.017-1.528c.024,0,.045-.015.069-.02a1.3,1.3,0,0,0,.139-.042,1.346,1.346,0,0,0,.181-.078c.023-.012.048-.017.069-.03l17.2-10.411h0l10.913-6.607a.848.848,0,0,1,.474-.286l1.217-.737a4.756,4.756,0,0,0,1.606-6.532Zm-5.758,6-8.686,5.259-2.23-3.682,8.686-5.259Zm-13.143,2.925,2.23,3.682-14.969,9.063L661.5,643.5ZM657.061,648.71l2.533-3.333,1.6,2.634ZM693.4,628.491a2.141,2.141,0,0,1-.976,1.328l-.578.35-2.23-3.683.578-.35a2.152,2.152,0,0,1,3.205,2.355Z" transform="translate(-614.366 -592.506)" fill="#545454" stroke="#fff" stroke-width="0.6"/>
      <path id="패스_400" data-name="패스 400" d="M627.5,660.873a1.3,1.3,0,0,0,1.795.41,14.626,14.626,0,0,1,5.371-2.045c1.238-.18,1.68.115,1.953.437.132.154.253.326.378.5a3.953,3.953,0,0,0,2.41,1.863,4.193,4.193,0,0,0,.779.071c2.3,0,4.687-1.79,6.358-3.386a1.3,1.3,0,1,0-1.8-1.883c-1.946,1.859-3.755,2.849-4.852,2.639-.218-.042-.507-.443-.786-.829-.165-.229-.331-.455-.506-.662a4.437,4.437,0,0,0-4.324-1.323,17.3,17.3,0,0,0-6.369,2.414A1.3,1.3,0,0,0,627.5,660.873Z" transform="translate(-611.194 -596.899)" fill="#545454" stroke="#fff" stroke-width="0.6"/>
      <path id="패스_401" data-name="패스 401" d="M629.135,641.545a1.3,1.3,0,0,0,1.3-1.3v-5.319a1.3,1.3,0,0,0-2.6,0v5.319A1.3,1.3,0,0,0,629.135,641.545Z" transform="translate(-611.264 -593.88)" fill="#545454" stroke="#fff" stroke-width="0.6"/>
      <path id="패스_402" data-name="패스 402" d="M636.463,646.06a1.3,1.3,0,0,0,1.3-1.3V639.44a1.3,1.3,0,1,0-2.6,0v5.318A1.3,1.3,0,0,0,636.463,646.06Z" transform="translate(-612.232 -594.477)" fill="#545454" stroke="#fff" stroke-width="0.6"/>
      <path id="패스_403" data-name="패스 403" d="M645.093,643.906v-5.318a1.3,1.3,0,1,0-2.6,0v5.318a1.3,1.3,0,1,0,2.6,0Z" transform="translate(-613.2 -594.364)" fill="#545454" stroke="#fff" stroke-width="0.6"/>
    </g>
  </g>
</svg>
