<svg xmlns="http://www.w3.org/2000/svg" width="105" height="105" viewBox="0 0 105 105">
  <g id="그룹_134" data-name="그룹 134" transform="translate(-1077 -587)">
    <circle id="타원_4" data-name="타원 4" cx="52.5" cy="52.5" r="52.5" transform="translate(1077 587)" fill="#fff"/>
    <g id="그룹_54" data-name="그룹 54" transform="translate(1077 604)">
      <g id="그룹_46" data-name="그룹 46" transform="translate(0 45.267)">
        <path id="패스_218" data-name="패스 218" d="M563.26,765.4h0a1.046,1.046,0,0,0,.962,1.043,11.594,11.594,0,0,1,3.549.869L555.3,781.82l-12.468-14.5a11.594,11.594,0,0,1,3.549-.869,1.046,1.046,0,0,0,.962-1.043h0a1.059,1.059,0,0,0-1.144-1.053,13.8,13.8,0,0,0-12.639,13.737v11.585a1.051,1.051,0,0,0,1.051,1.052h41.379a1.052,1.052,0,0,0,1.052-1.052V778.089A13.8,13.8,0,0,0,564.4,764.351,1.059,1.059,0,0,0,563.26,765.4Zm-27.6,12.684a11.676,11.676,0,0,1,5.236-9.732l13.351,15.386v4.879H543.622v-4.262a1.051,1.051,0,0,0-1.051-1.052h0a1.052,1.052,0,0,0-1.052,1.052v4.262h-5.855Zm39.276,10.533h-5.854v-4.262a1.051,1.051,0,0,0-1.051-1.052h0a1.052,1.052,0,0,0-1.052,1.052v4.262H556.354v-4.879l13.35-15.386a11.675,11.675,0,0,1,5.236,9.732Z" transform="translate(-533.561 -764.348)" fill="#545454"/>
      </g>
      <g id="그룹_47" data-name="그룹 47" transform="translate(8.07 13.394)">
        <path id="패스_219" data-name="패스 219" d="M547.556,739.634h.881c.029,0,.056-.008.086-.009v3.382a5.129,5.129,0,0,0,5.124,5.124h1.243v.54a4.235,4.235,0,0,0,8.469,0v-.54H564.6a5.129,5.129,0,0,0,5.124-5.124v-3.381c.026,0,.052.008.079.008h.873a2.1,2.1,0,0,0,2.1-2.1v-4.775a2.1,2.1,0,0,0-2.1-2.1H569.8c-.026,0-.052.007-.079.008V722.5a5.129,5.129,0,0,0-5.124-5.124H553.646a5.129,5.129,0,0,0-5.124,5.124v8.156c-.029,0-.056-.009-.086-.009h-.881a2.1,2.1,0,0,0-2.1,2.1v4.775A2.1,2.1,0,0,0,547.556,739.634Zm22.247-6.879h.873v4.775H569.8Zm-8.548,15.915a2.131,2.131,0,1,1-4.262,0v-.54h4.262Zm3.346-2.643H553.646a3.023,3.023,0,0,1-3.02-3.021V732.2c7.494-.13,11.078-1.638,12.781-3.094a5.622,5.622,0,0,0,4.214,3.008v10.889A3.023,3.023,0,0,1,564.6,746.028Zm-10.954-26.544H564.6a3.023,3.023,0,0,1,3.02,3.021v7.468a3.36,3.36,0,0,1-2.67-3.583,1.052,1.052,0,0,0-2.1,0c0,.036-.738,3.513-12.22,3.714v-7.6A3.023,3.023,0,0,1,553.646,719.484Zm-6.091,13.272h.881v4.775h-.881Z" transform="translate(-545.452 -717.381)" fill="#545454"/>
      </g>
      <g id="그룹_48" data-name="그룹 48" transform="translate(61.139 45.267)">
        <path id="패스_220" data-name="패스 220" d="M653.353,765.4h0a1.046,1.046,0,0,0,.962,1.043,11.593,11.593,0,0,1,3.549.869L645.4,781.82l-12.468-14.5a11.616,11.616,0,0,1,3.549-.868,1.046,1.046,0,0,0,.962-1.043h0a1.059,1.059,0,0,0-1.144-1.053,13.8,13.8,0,0,0-12.639,13.737v11.585a1.052,1.052,0,0,0,1.052,1.052h41.379a1.052,1.052,0,0,0,1.052-1.052V778.089a13.8,13.8,0,0,0-12.64-13.737A1.059,1.059,0,0,0,653.353,765.4Zm-27.6,12.684a11.676,11.676,0,0,1,5.236-9.732l13.351,15.386v4.879H633.715v-4.262a1.051,1.051,0,0,0-1.051-1.052h0a1.052,1.052,0,0,0-1.052,1.052v4.262h-5.854Zm39.276,10.533h-5.854v-4.262a1.051,1.051,0,0,0-1.051-1.052h0a1.052,1.052,0,0,0-1.052,1.052v4.262H646.447v-4.879L659.8,768.357a11.676,11.676,0,0,1,5.236,9.732Z" transform="translate(-623.654 -764.348)" fill="#545454"/>
      </g>
      <g id="그룹_49" data-name="그룹 49" transform="translate(69.216 13.394)">
        <path id="패스_221" data-name="패스 221" d="M637.66,739.634h.881c.027,0,.052-.007.078-.008v3.381a5.129,5.129,0,0,0,5.124,5.124h1.242v.54a4.235,4.235,0,0,0,8.469,0v-.54H654.7a5.129,5.129,0,0,0,5.124-5.124v-3.382c.029,0,.057.009.087.009h.873a2.1,2.1,0,0,0,2.1-2.1v-4.775a2.1,2.1,0,0,0-2.1-2.1h-.873c-.03,0-.058.007-.087.009V722.5a5.129,5.129,0,0,0-5.124-5.124H643.743a5.129,5.129,0,0,0-5.124,5.124v8.156c-.026,0-.051-.008-.078-.008h-.881a2.1,2.1,0,0,0-2.1,2.1v4.775A2.1,2.1,0,0,0,637.66,739.634Zm22.248-6.879h.873v4.775h-.873Zm-8.556,15.915a2.132,2.132,0,0,1-4.263,0v-.54h4.263Zm3.346-2.643H643.743a3.024,3.024,0,0,1-3.021-3.021V732.118a5.623,5.623,0,0,0,4.214-3.008c1.7,1.456,5.286,2.964,12.781,3.094v10.8A3.023,3.023,0,0,1,654.7,746.028Zm-10.954-26.544H654.7a3.023,3.023,0,0,1,3.02,3.021v7.6c-9.679-.175-12.113-2.748-12.22-3.714a1.052,1.052,0,0,0-2.1,0,3.375,3.375,0,0,1-2.671,3.573V722.5A3.024,3.024,0,0,1,643.743,719.484Zm-6.083,13.272h.881v4.775h-.881Z" transform="translate(-635.556 -717.381)" fill="#545454"/>
      </g>
      <g id="그룹_50" data-name="그룹 50" transform="translate(34.294)">
        <path id="패스_222" data-name="패스 222" d="M588.33,715.663h.54v5.314a1.052,1.052,0,0,0,1.8.744l6.057-6.058h5.33a4.239,4.239,0,0,0,4.235-4.235v-9.549a4.239,4.239,0,0,0-4.235-4.235H588.33a4.24,4.24,0,0,0-4.235,4.235v9.549A4.24,4.24,0,0,0,588.33,715.663ZM586.2,701.879a2.134,2.134,0,0,1,2.131-2.132h13.723a2.134,2.134,0,0,1,2.131,2.132v9.549a2.134,2.134,0,0,1-2.131,2.131h-5.766a1.051,1.051,0,0,0-.744.308l-4.571,4.57v-3.827a1.051,1.051,0,0,0-1.051-1.051H588.33a2.134,2.134,0,0,1-2.131-2.131Z" transform="translate(-584.095 -697.644)" fill="#545454"/>
      </g>
      <g id="그룹_51" data-name="그룹 51" transform="translate(44.633 22.224)">
        <path id="패스_223" data-name="패스 223" d="M616.749,753.726v-5.314h.54a4.24,4.24,0,0,0,4.235-4.235v-9.549a4.24,4.24,0,0,0-4.235-4.235H603.566a4.239,4.239,0,0,0-4.235,4.235v9.549a4.239,4.239,0,0,0,4.235,4.235h5.329l6.058,6.058a1.052,1.052,0,0,0,1.8-.744Zm-1.052-7.417a1.051,1.051,0,0,0-1.052,1.051v3.827l-4.57-4.57a1.052,1.052,0,0,0-.744-.308h-5.765a2.134,2.134,0,0,1-2.131-2.132v-9.549a2.134,2.134,0,0,1,2.131-2.132h13.723a2.134,2.134,0,0,1,2.132,2.132v9.549a2.134,2.134,0,0,1-2.132,2.132Z" transform="translate(-599.331 -730.393)" fill="#545454"/>
      </g>
      <g id="그룹_52" data-name="그룹 52" transform="translate(37.984 6.94)">
        <path id="패스_224" data-name="패스 224" d="M592.617,711.7l1.285-1.289,1.283,1.289a1.054,1.054,0,0,0,1.49,0l1.281-1.287,1.281,1.287a1.051,1.051,0,0,0,.745.309h0a1.049,1.049,0,0,0,.745-.31l1.279-1.287.538.542a1.053,1.053,0,0,0,1.488,0h0a1.052,1.052,0,0,0,0-1.487l-1.285-1.291a1.053,1.053,0,0,0-.746-.309h0a1.05,1.05,0,0,0-.746.31l-1.279,1.287-1.281-1.287a1.054,1.054,0,0,0-1.491,0l-1.282,1.287-1.282-1.287a1.051,1.051,0,0,0-.745-.309h0a1.054,1.054,0,0,0-.745.309l-1.285,1.289-.543-.544a1.051,1.051,0,0,0-1.488,0h0a1.052,1.052,0,0,0,0,1.488l1.287,1.291A1.055,1.055,0,0,0,592.617,711.7Z" transform="translate(-589.533 -707.87)" fill="#545454"/>
      </g>
      <g id="그룹_53" data-name="그룹 53" transform="translate(48.324 29.164)">
        <path id="패스_225" data-name="패스 225" d="M617.99,740.928a1.052,1.052,0,0,0-.745-.31h0a1.05,1.05,0,0,0-.745.31l-1.279,1.287-1.281-1.287a1.052,1.052,0,0,0-1.491,0l-1.281,1.287-1.282-1.287a1.052,1.052,0,0,0-.745-.31h0a1.054,1.054,0,0,0-.744.309l-1.286,1.289-.543-.544a1.051,1.051,0,0,0-1.488,0h0a1.052,1.052,0,0,0,0,1.488l1.288,1.291a1.055,1.055,0,0,0,1.49,0l1.285-1.289,1.283,1.289a1.054,1.054,0,0,0,1.49,0l1.282-1.287,1.281,1.287a1.053,1.053,0,0,0,.746.309h0a1.05,1.05,0,0,0,.746-.31l1.279-1.287.539.542a1.052,1.052,0,0,0,1.488,0h0a1.052,1.052,0,0,0,0-1.488Z" transform="translate(-604.77 -740.619)" fill="#545454"/>
      </g>
    </g>
  </g>
</svg>
