<svg xmlns="http://www.w3.org/2000/svg" width="74" height="68.723" viewBox="0 0 74 68.723">
  <g id="그룹_1733" data-name="그룹 1733" transform="translate(-1396.5 -993.602)">
    <g id="그룹_1732" data-name="그룹 1732" transform="translate(167.504 931.577)">
      <g id="그룹_1727" data-name="그룹 1727" transform="translate(1229.496 62.526)">
        <g id="그룹_1725" data-name="그룹 1725" transform="translate(0 30.516)">
          <path id="패스_1166" data-name="패스 1166" d="M1300.232,122.574H1293.6a7.086,7.086,0,0,1-7.086-7.086,14.732,14.732,0,0,0-14.732-14.733h-.446l-5.26,37.143h12.244v-8.656a11.776,11.776,0,0,0,10.3,6.6h11.614a6.635,6.635,0,1,0,0-13.269Z" transform="translate(-1236.877 -100.755)" fill="#e6e6e6"/>
          <path id="패스_1167" data-name="패스 1167" d="M1245.41,100.755h-1.181a14.733,14.733,0,0,0-14.733,14.733V137.9h20.51Z" transform="translate(-1229.496 -100.755)" fill="#e6e6e6"/>
        </g>
        <path id="패스_1168" data-name="패스 1168" d="M1257.482,94.53A12.314,12.314,0,1,1,1269.8,82.215a12.329,12.329,0,0,1-12.314,12.314Z" transform="translate(-1232.658 -64.014)" fill="#ffcd73"/>
        <g id="그룹_1726" data-name="그룹 1726" transform="translate(20.21 33.705)">
          <path id="패스_1169" data-name="패스 1169" d="M1254.815,135.1l2.625-24.724-1.139-3.188-.848-2.433h7.94l-.862,2.433-1.139,3.188,2.625,24.724-.452,3.61h-8.3Z" transform="translate(-1254.815 -104.75)" fill="#ffc7c0"/>
        </g>
        <circle id="타원_42" data-name="타원 42" cx="12.314" cy="12.314" r="12.314" transform="translate(9.054 25.588) rotate(-70.097)" stroke-width="1" stroke="#383838" stroke-linecap="round" stroke-linejoin="round" fill="none"/>
        <line id="선_150" data-name="선 150" y2="13.968" transform="translate(7.278 53.691)" fill="none" stroke="#383838" stroke-linecap="round" stroke-linejoin="round" stroke-width="1"/>
        <path id="패스_1170" data-name="패스 1170" d="M1259.591,104.75h-3.979l1.989,5.622h3.979l1.989-5.622Z" transform="translate(-1234.766 -71.045)" fill="none" stroke="#383838" stroke-linecap="round" stroke-linejoin="round" stroke-width="1"/>
        <path id="패스_1171" data-name="패스 1171" d="M1255.182,140.126l-.384-2.98,2.638-25.353h3.978l2.716,26.1-.3,2.236" transform="translate(-1234.601 -72.466)" fill="none" stroke="#383838" stroke-linecap="round" stroke-linejoin="round" stroke-width="1"/>
        <path id="패스_1172" data-name="패스 1172" d="M1253.2,100.755l1.989,5.622-4.47,4.864-1.425-10.485Z" transform="translate(-1233.49 -70.239)" fill="none" stroke="#383838" stroke-linecap="round" stroke-linejoin="round" stroke-width="1"/>
        <path id="패스_1173" data-name="패스 1173" d="M1266.521,100.755l-1.989,5.622,4.836,5.2,1.47-10.821Z" transform="translate(-1236.565 -70.239)" fill="none" stroke="#383838" stroke-linecap="round" stroke-linejoin="round" stroke-width="1"/>
        <line id="선_151" data-name="선 151" x1="4.78" y1="37.143" transform="translate(15.801 30.516)" fill="none" stroke="#383838" stroke-linecap="round" stroke-linejoin="round" stroke-width="1"/>
        <line id="선_152" data-name="선 152" x1="5.047" y2="37.143" transform="translate(29.226 30.516)" fill="none" stroke="#383838" stroke-linecap="round" stroke-linejoin="round" stroke-width="1"/>
        <path id="패스_1174" data-name="패스 1174" d="M1229.5,137.9v-22.41a14.733,14.733,0,0,1,14.733-14.733H1264.4a14.732,14.732,0,0,1,14.732,14.733h0a7.087,7.087,0,0,0,7.086,7.086h6.632a6.634,6.634,0,0,1,6.635,6.634h0a6.634,6.634,0,0,1-6.635,6.635h-11.614a10.833,10.833,0,0,1-9.844-6.31l-2.666-5.8" transform="translate(-1229.496 -70.239)" fill="none" stroke="#383838" stroke-linecap="round" stroke-linejoin="round" stroke-width="1"/>
        <line id="선_153" data-name="선 153" y1="9.353" transform="translate(41.444 58.306)" fill="none" stroke="#383838" stroke-linecap="round" stroke-linejoin="round" stroke-width="1"/>
        <path id="패스_1175" data-name="패스 1175" d="M1310.661,94.826h-7.037l-5.272,16.582a5.5,5.5,0,0,0-.38,2.008h0a5.5,5.5,0,0,0,5.5,5.5h7.341a5.5,5.5,0,0,0,5.5-5.5h0a5.493,5.493,0,0,0-.38-2.008Z" transform="translate(-1243.312 -69.043)" fill="none" stroke="#383838" stroke-linecap="round" stroke-linejoin="round" stroke-width="1"/>
        <path id="패스_1176" data-name="패스 1176" d="M1307.664,79.42h-7.107l3.732,8.308h6.751l3.732-8.308Z" transform="translate(-1243.834 -65.934)" fill="none" stroke="#383838" stroke-linecap="round" stroke-linejoin="round" stroke-width="1"/>
        <line id="선_154" data-name="선 154" y1="9.4" transform="translate(63.831)" fill="none" stroke="#383838" stroke-linecap="round" stroke-linejoin="round" stroke-width="1"/>
        <line id="선_155" data-name="선 155" y1="5.275" x2="2.287" transform="translate(69.772 4.498)" fill="none" stroke="#383838" stroke-linecap="round" stroke-linejoin="round" stroke-width="1"/>
        <line id="선_156" data-name="선 156" x1="2.287" y1="4.961" transform="translate(55.78 4.812)" fill="none" stroke="#383838" stroke-linecap="round" stroke-linejoin="round" stroke-width="1"/>
        <line id="선_157" data-name="선 157" x2="7.209" transform="translate(60.288 23.871)" fill="none" stroke="#383838" stroke-linecap="round" stroke-linejoin="round" stroke-width="1"/>
      </g>
      <g id="그룹_1731" data-name="그룹 1731" transform="translate(1284.879 95.335)">
        <g id="그룹_1729" data-name="그룹 1729" transform="translate(0 0)">
          <g id="그룹_1728" data-name="그룹 1728">
            <ellipse id="타원_43" data-name="타원 43" cx="6.019" cy="6.014" rx="6.019" ry="6.014" transform="matrix(0.708, -0.707, 0.707, 0.708, 0, 8.506)" fill="#e6e6e6" stroke="#383838" stroke-linecap="round" stroke-linejoin="round" stroke-width="1"/>
          </g>
        </g>
        <g id="그룹_1730" data-name="그룹 1730" transform="translate(4.816 5.894)">
          <g id="패스_1177" data-name="패스 1177" transform="translate(-1304.912 -111.013)" fill="#ffcd73" stroke-miterlimit="10">
            <path d="M 1310.240234375 117.5819778442383 L 1309.96484375 117.5819778442383 C 1309.821166992188 117.5819778442383 1309.656005859375 117.5720367431641 1309.509765625 117.4544372558594 C 1309.362670898438 117.3367462158203 1309.317504882813 117.1765365600586 1309.287353515625 117.0345687866211 L 1308.64453125 114.2070465087891 L 1308.541381835938 114.2070465087891 C 1308.444091796875 114.6129302978516 1308.348876953125 115.0207366943359 1308.257202148438 115.4238739013672 C 1308.143432617188 115.9244613647461 1308.0224609375 116.4486694335938 1307.887451171875 117.0263290405273 C 1307.860595703125 117.1544876098633 1307.821166992188 117.2998199462891 1307.703735351563 117.4159317016602 C 1307.538696289063 117.5819778442383 1307.316772460938 117.5819778442383 1307.210205078125 117.5819778442383 L 1306.95166015625 117.5819778442383 C 1306.800170898438 117.5819778442383 1306.625610351563 117.5650787353516 1306.479614257813 117.4397354125977 C 1306.346923828125 117.3273696899414 1306.297973632813 117.175178527832 1306.265625 117.0274887084961 L 1305.61572265625 114.2070465087891 L 1305.03173828125 114.2070465087891 C 1304.930908203125 114.2070465087891 1304.722778320313 114.2070541381836 1304.563354492188 114.0398254394531 C 1304.411987304688 113.8819198608398 1304.411987304688 113.6829833984375 1304.411987304688 113.5865173339844 L 1304.411987304688 113.4659729003906 C 1304.411987304688 113.3664321899414 1304.411987304688 113.1628723144531 1304.572021484375 113.0045700073242 C 1304.73095703125 112.8454208374023 1304.932983398438 112.8454284667969 1305.03173828125 112.8454284667969 L 1305.298828125 112.8454284667969 C 1305.267700195313 112.7085876464844 1305.234497070313 112.5617141723633 1305.198364257813 112.4005432128906 C 1305.118530273438 112.0458908081055 1305.03955078125 111.6950454711914 1304.9599609375 111.3481674194336 C 1304.92138671875 111.2029113769531 1304.856323242188 110.9417953491211 1305.037231445313 110.7213668823242 C 1305.206665039063 110.5130081176758 1305.462646484375 110.5130081176758 1305.60009765625 110.5130081176758 L 1305.763671875 110.5130081176758 C 1305.927612304688 110.5130081176758 1306.09912109375 110.5292739868164 1306.24365234375 110.6473159790039 L 1306.24853515625 110.6512756347656 L 1306.253295898438 110.6553421020508 C 1306.376708984375 110.7613830566406 1306.430297851563 110.8998641967773 1306.473022460938 111.0751724243164 L 1306.47412109375 111.0795440673828 L 1306.47509765625 111.0839233398438 L 1306.870361328125 112.8454284667969 L 1307.344604492188 112.8454284667969 C 1307.396484375 112.6173706054688 1307.449096679688 112.3879623413086 1307.501953125 112.1575546264648 C 1307.583984375 111.8002777099609 1307.673217773438 111.4315338134766 1307.76708984375 111.0615844726563 C 1307.806030273438 110.9118499755859 1307.859741210938 110.7610549926758 1307.991821289063 110.6509399414063 C 1308.13623046875 110.5298461914063 1308.305297851563 110.5130081176758 1308.466552734375 110.5130081176758 L 1308.768188476563 110.5130081176758 C 1308.931274414063 110.5130081176758 1309.102172851563 110.5300827026367 1309.24755859375 110.6539916992188 C 1309.383544921875 110.7696151733398 1309.432250976563 110.9263687133789 1309.463745117188 111.0793609619141 L 1309.865112304688 112.8454284667969 L 1310.3486328125 112.8454284667969 C 1310.403442382813 112.6076736450195 1310.459716796875 112.370849609375 1310.516845703125 112.1377029418945 C 1310.602661132813 111.7848434448242 1310.687133789063 111.4227294921875 1310.767700195313 111.0620727539063 C 1310.798950195313 110.912353515625 1310.847412109375 110.7586212158203 1310.984008789063 110.6451568603516 L 1310.990356445313 110.6398849487305 L 1310.996826171875 110.6348266601563 C 1311.1416015625 110.5224151611328 1311.304443359375 110.5130081176758 1311.445678710938 110.5130081176758 L 1311.652221679688 110.5130081176758 C 1311.772827148438 110.5130081176758 1312.022216796875 110.5130081176758 1312.188842773438 110.7224044799805 C 1312.353271484375 110.9274368286133 1312.302001953125 111.1730880737305 1312.27978515625 111.2789154052734 L 1312.278198242188 111.2867431640625 L 1312.2763671875 111.2945022583008 L 1311.900024414063 112.8454284667969 L 1312.168701171875 112.8454284667969 C 1312.3046875 112.8454284667969 1312.448608398438 112.8594436645508 1312.580810546875 112.959358215332 C 1312.798095703125 113.1219863891602 1312.798095703125 113.3801727294922 1312.798095703125 113.4659729003906 L 1312.798095703125 113.5952987670898 C 1312.798095703125 113.6766891479492 1312.798095703125 113.9243621826172 1312.588134765625 114.0883255004883 C 1312.4384765625 114.2070465087891 1312.262939453125 114.2070465087891 1312.168701171875 114.2070465087891 L 1311.5888671875 114.2070465087891 C 1311.489990234375 114.6170120239258 1311.39306640625 115.0269088745117 1311.299560546875 115.4299774169922 C 1311.177734375 115.9592742919922 1311.048950195313 116.5005798339844 1310.916870117188 117.0382919311523 C 1310.884765625 117.1891784667969 1310.834594726563 117.3428497314453 1310.695190429688 117.4543685913086 C 1310.549072265625 117.5719985961914 1310.383911132813 117.5819778442383 1310.240234375 117.5819778442383 Z" stroke="none"/>
            <path d="M 1305.60009765625 111.0129928588867 C 1305.4970703125 111.0129928588867 1305.43798828125 111.0209884643555 1305.423706054688 111.0385437011719 C 1305.409301757813 111.0561065673828 1305.416381835938 111.1191787719727 1305.4453125 111.2277221679688 C 1305.525756835938 111.5781326293945 1305.605590820313 111.9325561523438 1305.686157226563 112.2909622192383 C 1305.766845703125 112.6501922607422 1305.8466796875 113.0013885498047 1305.927368164063 113.3454284667969 L 1305.03173828125 113.3454284667969 C 1304.96875 113.3454284667969 1304.932739257813 113.3502349853516 1304.924682617188 113.3590240478516 C 1304.915893554688 113.3669891357422 1304.911987304688 113.4029235839844 1304.911987304688 113.4659729003906 L 1304.911987304688 113.5865173339844 C 1304.911987304688 113.6495666503906 1304.915893554688 113.6854858398438 1304.924682617188 113.6942520141602 C 1304.932739257813 113.7030639648438 1304.96875 113.7070465087891 1305.03173828125 113.7070465087891 L 1306.013549804688 113.7070465087891 L 1306.753540039063 116.9183349609375 C 1306.771118164063 116.9989471435547 1306.788452148438 117.0460586547852 1306.805419921875 117.0604248046875 C 1306.822143554688 117.0747833251953 1306.871459960938 117.0819625854492 1306.95166015625 117.0819625854492 L 1307.210205078125 117.0819625854492 C 1307.2900390625 117.0819625854492 1307.337890625 117.0747833251953 1307.352172851563 117.0604248046875 C 1307.36669921875 117.0460586547852 1307.382446289063 116.9989471435547 1307.399169921875 116.9183349609375 C 1307.525390625 116.3787231445313 1307.649047851563 115.8439178466797 1307.769653320313 115.3130950927734 C 1307.890258789063 114.7822723388672 1308.016357421875 114.2466583251953 1308.14794921875 113.7070465087891 L 1309.043579101563 113.7070465087891 L 1309.775634765625 116.9271087646484 C 1309.79248046875 117.0069427490234 1309.808349609375 117.0532379150391 1309.822631835938 117.0644073486328 C 1309.837158203125 117.0763854980469 1309.884155273438 117.0819625854492 1309.96484375 117.0819625854492 L 1310.240234375 117.0819625854492 C 1310.32080078125 117.0819625854492 1310.367797851563 117.0763854980469 1310.382202148438 117.0644073486328 C 1310.396728515625 117.0532379150391 1310.412719726563 117.0069427490234 1310.429321289063 116.9271087646484 C 1310.561889648438 116.3875122070313 1310.689575195313 115.8511047363281 1310.8125 115.3170776367188 C 1310.936279296875 114.7830657958984 1311.06396484375 114.2466583251953 1311.195678710938 113.7070465087891 L 1312.168701171875 113.7070465087891 C 1312.23193359375 113.7070465087891 1312.269287109375 113.7030639648438 1312.280395507813 113.6942520141602 C 1312.291625976563 113.6854858398438 1312.298095703125 113.6527557373047 1312.298095703125 113.5952987670898 L 1312.298095703125 113.4659729003906 C 1312.298095703125 113.4029235839844 1312.291625976563 113.3669891357422 1312.280395507813 113.3590240478516 C 1312.269287109375 113.3502349853516 1312.23193359375 113.3454284667969 1312.168701171875 113.3454284667969 L 1311.264282226563 113.3454284667969 L 1311.790405273438 111.1766357421875 C 1311.807250976563 111.0960083007813 1311.810302734375 111.0489120483398 1311.798217773438 111.0345458984375 C 1311.787231445313 111.0201873779297 1311.738525390625 111.0129928588867 1311.652221679688 111.0129928588867 L 1311.445678710938 111.0129928588867 C 1311.364990234375 111.0129928588867 1311.31787109375 111.0185852050781 1311.303466796875 111.0297622680664 C 1311.2890625 111.0417327880859 1311.273071289063 111.0872421264648 1311.25634765625 111.1678619384766 C 1311.175659179688 111.5294647216797 1311.091064453125 111.8926544189453 1311.00244140625 112.2566528320313 C 1310.9130859375 112.6214447021484 1310.828491210938 112.9838485717773 1310.747924804688 113.3454284667969 L 1309.465942382813 113.3454284667969 L 1308.974975585938 111.1846160888672 C 1308.957397460938 111.0984115600586 1308.940551757813 111.0489120483398 1308.923217773438 111.0345458984375 C 1308.906372070313 111.0201873779297 1308.854370117188 111.0129928588867 1308.768188476563 111.0129928588867 L 1308.466552734375 111.0129928588867 C 1308.381103515625 111.0129928588867 1308.329223632813 111.0201873779297 1308.3125 111.0345458984375 C 1308.294799804688 111.0489120483398 1308.274169921875 111.0984115600586 1308.251708984375 111.1846160888672 C 1308.159912109375 111.5462188720703 1308.072265625 111.9078216552734 1307.9892578125 112.2694244384766 C 1307.90625 112.6310119628906 1307.824096679688 112.9902191162109 1307.744140625 113.3454284667969 L 1306.470092773438 113.3454284667969 L 1305.987182617188 111.1934051513672 C 1305.96484375 111.1016082763672 1305.944091796875 111.0489120483398 1305.927368164063 111.0345458984375 C 1305.909790039063 111.0201873779297 1305.85546875 111.0129928588867 1305.763671875 111.0129928588867 L 1305.60009765625 111.0129928588867 M 1308.966186523438 113.3454284667969 L 1308.243041992188 113.3454284667969 C 1308.300537109375 113.0987854003906 1308.3603515625 112.8417663574219 1308.42333984375 112.5751419067383 C 1308.486572265625 112.3085479736328 1308.546997070313 112.0514984130859 1308.6044921875 111.8048324584961 C 1308.667602539063 112.0802383422852 1308.728393554688 112.3380584716797 1308.785034179688 112.579948425293 C 1308.843383789063 112.820198059082 1308.903198242188 113.0756378173828 1308.966186523438 113.3454284667969 M 1307.107177734375 116.13525390625 C 1307.008911132813 115.7161865234375 1306.914794921875 115.3114929199219 1306.822143554688 114.921142578125 C 1306.731201171875 114.5308074951172 1306.636108398438 114.1261138916016 1306.538696289063 113.7070465087891 L 1307.692260742188 113.7070465087891 L 1307.107177734375 116.13525390625 M 1310.10302734375 116.1432647705078 C 1310.004638671875 115.7249755859375 1309.910522460938 115.3186721801758 1309.818725585938 114.9251556396484 C 1309.726806640625 114.5324020385742 1309.631958007813 114.1261138916016 1309.534545898438 113.7070465087891 L 1310.67041015625 113.7070465087891 L 1310.10302734375 116.1432647705078 M 1305.60009765625 110.0129928588867 L 1305.763671875 110.0129928588867 C 1305.911499023438 110.0129928588867 1306.257446289063 110.0129928588867 1306.559936523438 110.2600784301758 L 1306.569702148438 110.2679977416992 L 1306.579223632813 110.2761535644531 C 1306.818969726563 110.4822616577148 1306.908081054688 110.7482452392578 1306.958862304688 110.9569549560547 L 1306.9609375 110.9656829833984 L 1306.962890625 110.9744567871094 L 1307.110961914063 111.6343154907227 C 1307.165893554688 111.4045181274414 1307.223266601563 111.171760559082 1307.282470703125 110.9385452270508 L 1307.283203125 110.9355163574219 L 1307.284057617188 110.9324722290039 C 1307.337524414063 110.7272033691406 1307.430297851563 110.4663238525391 1307.675048828125 110.2640686035156 C 1307.978149414063 110.0129928588867 1308.33203125 110.0129928588867 1308.466552734375 110.0129928588867 L 1308.768188476563 110.0129928588867 C 1308.904174804688 110.0129928588867 1309.265014648438 110.0130004882813 1309.5703125 110.2721633911133 C 1309.85205078125 110.5110092163086 1309.922607421875 110.8275375366211 1309.952514648438 110.9735488891602 L 1310.11279296875 111.6788482666016 C 1310.169311523438 111.4398345947266 1310.224975585938 111.1979827880859 1310.27880859375 110.9567489624023 C 1310.308471679688 110.8142776489258 1310.378540039063 110.4980621337891 1310.66455078125 110.2605361938477 L 1310.677124023438 110.2499923706055 L 1310.690185546875 110.2398834228516 C 1310.982421875 110.0129928588867 1311.307006835938 110.0129928588867 1311.445678710938 110.0129928588867 L 1311.652221679688 110.0129928588867 C 1311.80419921875 110.0129928588867 1312.262084960938 110.0129699707031 1312.578369140625 110.4089889526367 C 1312.891235351563 110.7976150512695 1312.799682617188 111.2357482910156 1312.769287109375 111.3811950683594 L 1312.765991210938 111.396842956543 L 1312.76220703125 111.4123840332031 L 1312.525756835938 112.3873062133789 C 1312.636474609375 112.4171752929688 1312.758422851563 112.4683151245117 1312.876342773438 112.5559692382813 C 1313.072998046875 112.7015991210938 1313.298095703125 112.9755096435547 1313.298095703125 113.4659729003906 L 1313.298095703125 113.5952987670898 C 1313.298095703125 114.0677871704102 1313.080444335938 114.3378448486328 1312.897094726563 114.4814453125 C 1312.89697265625 114.4815139770508 1312.896850585938 114.4816055297852 1312.896850585938 114.4816741943359 C 1312.896606445313 114.481803894043 1312.896484375 114.48193359375 1312.896362304688 114.482063293457 C 1312.608764648438 114.70703125 1312.30078125 114.7070465087891 1312.168701171875 114.7070465087891 L 1311.983154296875 114.7070465087891 C 1311.916381835938 114.9874267578125 1311.850708007813 115.2667465209961 1311.78662109375 115.5428848266602 C 1311.665161132813 116.0708999633789 1311.536499023438 116.6115417480469 1311.404663085938 117.1486968994141 C 1311.372924804688 117.2994766235352 1311.2978515625 117.6134185791016 1311.006225585938 117.8458557128906 C 1310.711059570313 118.0819549560547 1310.382080078125 118.0819625854492 1310.240234375 118.0819625854492 L 1309.96484375 118.0819625854492 C 1309.8232421875 118.0819625854492 1309.494506835938 118.0819473266602 1309.199462890625 117.8464660644531 C 1309.19921875 117.8462905883789 1309.198974609375 117.8461151123047 1309.19873046875 117.8459396362305 L 1309.19873046875 117.8459167480469 C 1308.90185546875 117.6091461181641 1308.82958984375 117.2865295410156 1308.798828125 117.1411285400391 L 1308.588623046875 116.2169570922852 C 1308.521118164063 116.5099868774414 1308.450439453125 116.8143310546875 1308.37548828125 117.1351089477539 C 1308.332885742188 117.3356246948242 1308.2607421875 117.5652008056641 1308.061279296875 117.7655563354492 L 1308.061279296875 117.7655563354492 C 1307.74658203125 118.0819625854492 1307.342895507813 118.0819625854492 1307.210205078125 118.0819625854492 L 1306.95166015625 118.0819625854492 C 1306.817260742188 118.0819625854492 1306.4599609375 118.0819625854492 1306.153930664063 117.8190460205078 C 1305.908325195313 117.6083755493164 1305.823608398438 117.3449249267578 1305.777709960938 117.137077331543 L 1305.2177734375 114.7070465087891 L 1305.03173828125 114.7070465087891 C 1304.901733398438 114.7070465087891 1304.511108398438 114.7070159912109 1304.20458984375 114.3880996704102 C 1303.911987304688 114.0851974487305 1303.911987304688 113.7238540649414 1303.911987304688 113.5865173339844 L 1303.911987304688 113.4659729003906 C 1303.911987304688 113.3373413085938 1303.911987304688 112.9551086425781 1304.21875 112.6506576538086 C 1304.3681640625 112.5011672973633 1304.535522460938 112.4248809814453 1304.682495117188 112.3859634399414 C 1304.613037109375 112.0770568847656 1304.5439453125 111.7710571289063 1304.474487304688 111.4680557250977 C 1304.423706054688 111.2762908935547 1304.314208984375 110.8142547607422 1304.650634765625 110.404182434082 C 1304.96875 110.0129928588867 1305.427490234375 110.0129928588867 1305.60009765625 110.0129928588867 Z" stroke="none" fill="#383838"/>
          </g>
        </g>
      </g>
    </g>
  </g>
</svg>
