<svg xmlns="http://www.w3.org/2000/svg" width="105" height="105" viewBox="0 0 105 105">
  <g id="그룹_234" data-name="그룹 234" transform="translate(-1028 -1436)">
    <path id="패스_320" data-name="패스 320" d="M52.5,0A52.5,52.5,0,1,1,0,52.5,52.5,52.5,0,0,1,52.5,0Z" transform="translate(1028 1436)" fill="#fff"/>
    <g id="그룹_233" data-name="그룹 233" transform="translate(1046.204 1456.471)">
      <g id="그룹_225" data-name="그룹 225" transform="translate(0 0)">
        <g id="그룹_224" data-name="그룹 224" transform="translate(50.931 10.323)">
          <line id="선_5" data-name="선 5" y2="16.197" fill="#fff" stroke="#fff" stroke-width="0.6"/>
        </g>
        <path id="패스_404" data-name="패스 404" d="M669.169,480.274a5.877,5.877,0,0,0-1,.091,1.384,1.384,0,0,0-.482-.091h-49.57a4.352,4.352,0,0,0-4.348,4.347v54.968a4.353,4.353,0,0,0,4.348,4.348h43.626a4.353,4.353,0,0,0,4.348-4.348V525.67a1.391,1.391,0,0,0-2.783,0v13.92a1.567,1.567,0,0,1-1.566,1.566H618.121a1.567,1.567,0,0,1-1.566-1.566V484.621a1.567,1.567,0,0,1,1.566-1.565h46.073a5.808,5.808,0,0,0-.881,3.074v20.663a1.391,1.391,0,0,0,2.783,0v-14.54h7.54a1.391,1.391,0,0,0,1.391-1.391v-4.731A5.864,5.864,0,0,0,669.169,480.274Zm3.075,9.2H666.1v-3.34a3.074,3.074,0,0,1,6.149,0Z" transform="translate(-613.773 -480.274)" fill="#545454" stroke="#fff" stroke-width="0.6"/>
      </g>
      <path id="패스_405" data-name="패스 405" d="M694.674,500.633a5.086,5.086,0,0,0-6.974-1.714l-1.8,1.093h0l-30,18.163c-.017.01-.026.028-.042.038a1.359,1.359,0,0,0-.345.311L649.6,526.3l-1.285.778a1.391,1.391,0,1,0,1.44,2.38l1.287-.779,9.622-1.631c.023,0,.044-.015.067-.019a1.573,1.573,0,0,0,.155-.046,1.448,1.448,0,0,0,.191-.083c.024-.013.051-.018.075-.032l18.353-11.112h0l11.647-7.051,0,0,1.8-1.09A5.085,5.085,0,0,0,694.674,500.633Zm-15.418,12.018-2.377-3.928,9.266-5.61,2.378,3.927ZM660.9,523.763l-2.378-3.927,15.972-9.671,2.378,3.927Zm-4.42-1.926,1.7,2.806-4.4.746Zm35.035-16.61-.615.372-2.377-3.927.615-.373a2.3,2.3,0,0,1,2.377,3.928Z" transform="translate(-616.227 -481.572)" fill="#545454" stroke="#fff" stroke-width="0.6"/>
      <g id="그룹_231" data-name="그룹 231" transform="translate(8.713 9.212)">
        <g id="그룹_226" data-name="그룹 226">
          <path id="패스_406" data-name="패스 406" d="M643.979,490.2H624.451a1.284,1.284,0,1,0,0,2.568h19.529a1.284,1.284,0,1,0,0-2.568Z" transform="translate(-623.167 -490.205)" fill="#545454" stroke="#fff" stroke-width="0.6"/>
        </g>
        <g id="그룹_227" data-name="그룹 227" transform="translate(0 27.44)">
          <path id="패스_407" data-name="패스 407" d="M643.979,519.788H624.451a1.284,1.284,0,1,0,0,2.567h19.529a1.284,1.284,0,1,0,0-2.567Z" transform="translate(-623.167 -519.788)" fill="#545454" stroke="#fff" stroke-width="0.6"/>
        </g>
        <g id="그룹_228" data-name="그룹 228" transform="translate(12.516 9.147)">
          <path id="패스_408" data-name="패스 408" d="M657.614,500.066H637.944a1.284,1.284,0,1,0,0,2.568h19.671a1.284,1.284,0,1,0,0-2.568Z" transform="translate(-636.66 -500.066)" fill="#545454" stroke="#fff" stroke-width="0.6"/>
        </g>
        <g id="그룹_229" data-name="그룹 229" transform="translate(0 9.147)">
          <path id="패스_409" data-name="패스 409" d="M631.463,500.066h-7.012a1.284,1.284,0,1,0,0,2.568h7.012a1.284,1.284,0,1,0,0-2.568Z" transform="translate(-623.167 -500.066)" fill="#545454" stroke="#fff" stroke-width="0.6"/>
        </g>
        <g id="그룹_230" data-name="그룹 230" transform="translate(0 18.293)">
          <path id="패스_410" data-name="패스 410" d="M656.637,509.927H624.451a1.284,1.284,0,1,0,0,2.567h32.186a1.284,1.284,0,1,0,0-2.567Z" transform="translate(-623.167 -509.927)" fill="#545454" stroke="#fff" stroke-width="0.6"/>
        </g>
      </g>
      <g id="그룹_232" data-name="그룹 232" transform="translate(9.178 47.42)">
        <path id="패스_411" data-name="패스 411" d="M637.424,537.408a4.4,4.4,0,0,1-.832-.077,4.211,4.211,0,0,1-2.574-1.988c-.133-.183-.263-.366-.4-.531-.29-.341-.768-.661-2.082-.465a15.591,15.591,0,0,0-5.732,2.182,1.391,1.391,0,1,1-1.48-2.355,18.479,18.479,0,0,1,6.8-2.579,4.741,4.741,0,0,1,4.617,1.413c.187.222.364.463.54.707.284.393.607.839.838.883,1.165.227,3.1-.83,5.178-2.815a1.392,1.392,0,1,1,1.922,2.013C642.428,535.5,639.88,537.408,637.424,537.408Z" transform="translate(-623.668 -531.397)" fill="#545454" stroke="#fff" stroke-width="0.6"/>
      </g>
    </g>
  </g>
</svg>
