<svg xmlns="http://www.w3.org/2000/svg" width="105" height="105" viewBox="0 0 105 105">
  <g id="그룹_255" data-name="그룹 255" transform="translate(-258 -1664)">
    <path id="패스_326" data-name="패스 326" d="M52.5,0A52.5,52.5,0,1,1,0,52.5,52.5,52.5,0,0,1,52.5,0Z" transform="translate(258 1664)" fill="#fff"/>
    <path id="패스_421" data-name="패스 421" d="M768.89,923.29l-41.876-42.221a.959.959,0,0,0-1.322,0L683.814,923.29a.931.931,0,1,0,1.322,1.311l8.067-8.133v42.906a.931.931,0,0,0,.931.931h8.788a.93.93,0,0,0,.93-.931v-19.54h8.813v19.54a.931.931,0,0,0,.93.931h44.98a.931.931,0,0,0,.93-.931v-42.9l8.062,8.127a.931.931,0,1,0,1.322-1.311Zm-50.181,35.154c.419-.857,1.2-2.008,2.154-2.008h26.566c.951,0,1.729,1.151,2.151,2.008Zm30.758-25.253h8.178v2.567h-8.178Zm8.178-17.7v15.84h-8.335a3.138,3.138,0,0,0-2.988-2.214h-1.283v-4.78h.177a3.145,3.145,0,0,0,0-6.29H723.076a3.145,3.145,0,0,0,0,6.29h.176v20.278h-.176a3.144,3.144,0,1,0,0,6.289h22.139a3.144,3.144,0,1,0,0-6.289h-.177v-4.78h1.283a3.138,3.138,0,0,0,2.988-2.214h8.335v20.825H751.6c-.213-.589-1.519-3.869-4.173-3.869H720.862c-2.653,0-3.96,3.28-4.173,3.869h-2.162V938.9a.931.931,0,0,0-.931-.931H702.922a.931.931,0,0,0-.931.931v19.54h-6.926V915.489a.926.926,0,0,0-.256-.639l31.544-31.8L757.9,914.853A.924.924,0,0,0,757.645,915.489Zm-32.531,13.273h18.063v11.422H725.114Zm18.994-6.289H723.076a1.283,1.283,0,0,1,0-2.567h22.139a1.283,1.283,0,1,1,0,2.567Zm-.931,1.861V926.9H725.114v-2.566Zm-18.994,22.139h21.032a1.283,1.283,0,1,1,0,2.566H723.076a1.283,1.283,0,1,1,0-2.566Zm.931-1.861v-2.567h18.063v2.567Zm19.924-13.636h1.283a1.285,1.285,0,0,1,1.283,1.283v4.428a1.284,1.284,0,0,1-1.283,1.283h-1.283Z" transform="translate(-416.132 791.194)" fill="#545454"/>
  </g>
</svg>
