<svg xmlns="http://www.w3.org/2000/svg" width="105" height="105" viewBox="0 0 105 105">
  <g id="그룹_146" data-name="그룹 146" transform="translate(-1077 -1016)">
    <path id="패스_279" data-name="패스 279" d="M52.5,0A52.5,52.5,0,1,1,0,52.5,52.5,52.5,0,0,1,52.5,0Z" transform="translate(1077 1016)" fill="#fff"/>
    <g id="그룹_142" data-name="그룹 142" transform="translate(460.313 161.046)">
      <path id="패스_266" data-name="패스 266" d="M712.6,967.057a1.214,1.214,0,0,0,1.216-1.214v-1.015a5.132,5.132,0,0,0,4.211-4.9c0-2.429-1.425-5.027-5.427-5.027-1.978,0-2.98-.875-2.98-2.6a2.812,2.812,0,0,1,2.98-2.6,3,3,0,0,1,2.8,1.708,1.216,1.216,0,0,0,2.242-.94,5.27,5.27,0,0,0-3.827-3.059v-1.021a1.216,1.216,0,0,0-2.432,0v1.021a5.127,5.127,0,0,0-4.2,4.89c0,2.432,1.423,5.03,5.412,5.03,1.988,0,3,.872,3,2.6a2.814,2.814,0,0,1-2.982,2.6,3.005,3.005,0,0,1-2.8-1.708,1.215,1.215,0,1,0-2.241.94,5.268,5.268,0,0,0,3.811,3.055v1.025A1.214,1.214,0,0,0,712.6,967.057Z" transform="translate(-22.087 -23.836)" fill="#545454"/>
      <path id="패스_267" data-name="패스 267" d="M698.8,886.672A1.035,1.035,0,0,0,697.7,887.8a7.236,7.236,0,0,0,14.325.3,1.033,1.033,0,0,0-1.037-1.172h0a1.064,1.064,0,0,0-1.035.9,5.146,5.146,0,0,1-10.165-.217,1.063,1.063,0,0,0-.991-.947Z" transform="translate(-19.114 -5.518)" fill="#545454"/>
      <path id="패스_268" data-name="패스 268" d="M657.154,921.031a.314.314,0,0,0-.314-.314h-7.805a.314.314,0,0,0-.314.314v7.8a.314.314,0,0,0,.314.315h7.805a.314.314,0,0,0,.314-.315Zm-2.091,5.714a.314.314,0,0,1-.314.314h-3.623a.314.314,0,0,1-.315-.314v-3.623a.314.314,0,0,1,.315-.314h3.623a.314.314,0,0,1,.314.314Z" transform="translate(-4.034 -16.177)" fill="#545454"/>
      <path id="패스_280" data-name="패스 280" d="M657.154,921.031a.314.314,0,0,0-.314-.314h-7.805a.314.314,0,0,0-.314.314v7.8a.314.314,0,0,0,.314.315h7.805a.314.314,0,0,0,.314-.315Zm-2.091,5.714a.314.314,0,0,1-.314.314h-3.623a.314.314,0,0,1-.315-.314v-3.623a.314.314,0,0,1,.315-.314h3.623a.314.314,0,0,1,.314.314Z" transform="translate(9.966 -16.177)" fill="#545454"/>
      <path id="패스_269" data-name="패스 269" d="M658.553,892.076a5.144,5.144,0,0,1-5.1-4.463,1.047,1.047,0,1,0-2.08.244,7.235,7.235,0,0,0,14.316.247,1.011,1.011,0,0,0-1.038-1.172h0a1.064,1.064,0,0,0-1.035.9A5.153,5.153,0,0,1,658.553,892.076Z" transform="translate(-4.609 -5.517)" fill="#545454"/>
      <path id="패스_270" data-name="패스 270" d="M670.069,935.029H639.054a.314.314,0,0,1-.314-.314V899.994a.314.314,0,0,1,.314-.314H700.24a.314.314,0,0,1,.314.314v13.815a1.045,1.045,0,0,0,2.091,0V875.5a.959.959,0,0,0-.959-.959H690.275a.313.313,0,0,1-.314-.314v-.993a4.107,4.107,0,0,0-4.745-4.1,3.778,3.778,0,0,0-3.2,3.754v6.5c0,5.167,7.945,5.025,7.945,0v-2.438a.313.313,0,0,1,.314-.314h9.965a.314.314,0,0,1,.314.314v20.33a.314.314,0,0,1-.314.315H639.054a.314.314,0,0,1-.314-.315v-2.4a.314.314,0,0,1,.314-.314H695a1.045,1.045,0,0,0,0-2.091H639.054a.314.314,0,0,1-.314-.315V876.944a.314.314,0,0,1,.314-.314h10.452a.313.313,0,0,1,.314.314v2.438c0,5.167,7.945,5.025,7.945,0v-6.5c0-5.109-7.945-5.119-7.945,0v1.341a.313.313,0,0,1-.314.314h-11.9a.958.958,0,0,0-.958.959v60.664a.958.958,0,0,0,.958.958h32.462a1.045,1.045,0,1,0,0-2.091Zm17.8-55.647c0,2.349-3.763,2.291-3.763,0v-6.129a2.028,2.028,0,0,1,2.623-1.973,1.641,1.641,0,0,1,1.14,1.6Zm-35.96-6.5c0-2.348,3.763-2.291,3.763,0v6.5c0,2.349-3.763,2.291-3.763,0Z" fill="#545454"/>
      <rect id="사각형_63" data-name="사각형 63" width="20.123" height="2.091" rx="0.457" transform="translate(659.738 874.539)" fill="#545454"/>
      <path id="패스_271" data-name="패스 271" d="M676.37,940.958h-7.8a.313.313,0,0,0-.314.314v7.8a.313.313,0,0,0,.314.314h7.8a.313.313,0,0,0,.314-.314v-7.8A.313.313,0,0,0,676.37,940.958Zm-1.777,6.027a.313.313,0,0,1-.314.314h-3.623a.313.313,0,0,1-.314-.314v-3.622a.314.314,0,0,1,.314-.314h3.623a.314.314,0,0,1,.314.314Z" transform="translate(-9.565 -22.515)" fill="#545454"/>
      <path id="패스_273" data-name="패스 273" d="M656.84,940.958h-7.805a.314.314,0,0,0-.314.314v7.8a.314.314,0,0,0,.314.314h7.805a.314.314,0,0,0,.314-.314v-7.8A.314.314,0,0,0,656.84,940.958Zm-1.777,6.027a.314.314,0,0,1-.314.314h-3.623a.314.314,0,0,1-.315-.314v-3.622a.314.314,0,0,1,.315-.314h3.623a.314.314,0,0,1,.314.314Z" transform="translate(-4.034 -22.515)" fill="#545454"/>
      <path id="패스_274" data-name="패스 274" d="M696.214,928.835v-7.8a.314.314,0,0,0-.314-.314h-7.8a.314.314,0,0,0-.314.314v7.8a.314.314,0,0,0,.314.315h7.8A.314.314,0,0,0,696.214,928.835Zm-2.091-2.091a.314.314,0,0,1-.315.314h-3.622a.314.314,0,0,1-.314-.314v-3.623a.314.314,0,0,1,.314-.314h3.622a.314.314,0,0,1,.315.314Z" transform="translate(-16.095 -16.177)" fill="#545454"/>
      <path id="패스_275" data-name="패스 275" d="M707.626,920.717a.314.314,0,0,0-.315.314v7.8a.315.315,0,0,0,.315.315h7.8a.314.314,0,0,0,.314-.315v-7.8a.314.314,0,0,0-.314-.314Zm6.028,6.028a.314.314,0,0,1-.314.314h-3.623a.313.313,0,0,1-.314-.314v-3.623a.314.314,0,0,1,.314-.314h3.623a.314.314,0,0,1,.314.314Z" transform="translate(-21.624 -16.177)" fill="#545454"/>
      <path id="패스_276" data-name="패스 276" d="M722.729,947.743a1.064,1.064,0,0,0-1.977.79,14.05,14.05,0,1,1-3.114-4.719,1.065,1.065,0,0,0,1.506-1.505,16.116,16.116,0,1,0,3.585,5.434Z" transform="translate(-17.19 -21.456)" fill="#545454"/>
    </g>
  </g>
</svg>
