<svg xmlns="http://www.w3.org/2000/svg" width="105" height="105" viewBox="0 0 105 105">
  <g id="그룹_166" data-name="그룹 166" transform="translate(-531 -1016)">
    <g id="그룹_165" data-name="그룹 165">
      <g id="그룹_164" data-name="그룹 164">
        <g id="그룹_163" data-name="그룹 163">
          <path id="패스_279" data-name="패스 279" d="M52.5,0A52.5,52.5,0,1,1,0,52.5,52.5,52.5,0,0,1,52.5,0Z" transform="translate(531 1016)" fill="#fff"/>
          <g id="그룹_154" data-name="그룹 154" transform="translate(544.024 1022.945)">
            <path id="패스_287" data-name="패스 287" d="M1423.446,804.748h-.96a1.19,1.19,0,0,0,0,2.38h.96a1.19,1.19,0,1,0,0-2.38Z" transform="translate(-1397.314 -717.406)" fill="#545454"/>
            <path id="패스_288" data-name="패스 288" d="M1468.505,690.958a1.189,1.189,0,0,0-1.19,1.19v5.361h-27.09v-5.361a1.19,1.19,0,1,0-2.38,0V698.7a1.19,1.19,0,0,0,1.19,1.19h3.011v1.819h-.282a5.474,5.474,0,0,0-5.468,5.469v1.293h-29.016a1.189,1.189,0,0,0-1.19,1.189v16.832a1.19,1.19,0,1,0,2.38,0V710.849H1436.3v8.228a5.98,5.98,0,0,1-3.9-5.572,1.19,1.19,0,1,0-2.379,0,8.373,8.373,0,0,0,6.282,8.061V729.8a4.714,4.714,0,0,0,4.709,4.709l.047,0v28.873h-17.6V744.221a4.714,4.714,0,0,0-.049-.646c.1.028.194.059.295.081v.756a.9.9,0,0,0,1.793,0v-.748a3.785,3.785,0,0,0,3.106-3.611c0-1.792-1.051-3.707-4-3.707-1.459,0-2.2-.645-2.2-1.916a2.074,2.074,0,0,1,2.2-1.917,2.215,2.215,0,0,1,2.065,1.26.9.9,0,0,0,1.654-.694,3.887,3.887,0,0,0-2.823-2.255v-.754a.9.9,0,0,0-1.793,0v.754a3.781,3.781,0,0,0-3.095,3.606c0,1.793,1.05,3.709,3.991,3.709,1.466,0,2.21.643,2.21,1.914a2.075,2.075,0,0,1-2.2,1.916,2.217,2.217,0,0,1-2.065-1.259.894.894,0,0,0-1.174-.479c-.024.01-.04.031-.062.042a4.7,4.7,0,0,0-6.209.973,10.59,10.59,0,0,1-.436-1.257,1.152,1.152,0,1,0-2.22.613,12.724,12.724,0,0,0,.556,1.592,1.117,1.117,0,0,0,1.236.683,4.711,4.711,0,0,0-.2,1.342v8.967a5.861,5.861,0,0,1-4.661-5.729V730.538a1.189,1.189,0,0,0-1.19-1.19h-2.762a5.474,5.474,0,0,0-5.468,5.468v2.837h-1.572a5.474,5.474,0,0,0-5.468,5.468v31.01h-1.669a1.189,1.189,0,0,0-1.189,1.19v6.551a1.189,1.189,0,1,0,2.379,0V776.51h27.091v5.361a1.19,1.19,0,1,0,2.38,0v-6.551a1.19,1.19,0,0,0-1.19-1.19H1417.7v-1.819h.282a5.474,5.474,0,0,0,5.469-5.468v-1.086h18.792a1.189,1.189,0,0,0,1.19-1.19V733.86c0-.01,0-.019,0-.029a4.708,4.708,0,0,0,2.287-4.031v-8.968a5.861,5.861,0,0,1,4.661,5.729v42.448h-24.3a1.189,1.189,0,1,0,0,2.379h25.493a1.189,1.189,0,0,0,1.19-1.19V744.672h1.572a5.474,5.474,0,0,0,5.468-5.468v-2.837h1.573a5.475,5.475,0,0,0,5.468-5.469v-31.01h1.668a1.189,1.189,0,0,0,1.189-1.19v-6.551A1.189,1.189,0,0,0,1468.505,690.958Zm-47.433,75.886a3.093,3.093,0,0,1-3.09,3.089h-1.472a1.189,1.189,0,0,0-1.19,1.19v3.008h-20.03v-31.01a3.092,3.092,0,0,1,3.089-3.089h1.572V747.4a1.19,1.19,0,0,0,2.38,0V739c0-.028-.006-.053-.008-.08s.008-.052.008-.079v-4.027a3.093,3.093,0,0,1,3.089-3.089h1.573v15.733a8.239,8.239,0,0,0,8.23,8.23,1.189,1.189,0,0,0,1.189-1.19V744.221a2.331,2.331,0,0,1,4.662,0Zm43.386-35.945a3.093,3.093,0,0,1-3.089,3.09H1459.8v-7.368a1.19,1.19,0,1,0-2.38,0v8.4c0,.028.006.053.009.08s-.009.053-.009.08V739.2a3.092,3.092,0,0,1-3.089,3.089h-1.572V726.56a8.24,8.24,0,0,0-8.231-8.23,1.19,1.19,0,0,0-1.19,1.19V729.8a2.33,2.33,0,1,1-4.661,0V707.177a3.093,3.093,0,0,1,3.089-3.089h1.472a1.189,1.189,0,0,0,1.189-1.19v-3.009h20.032Z" transform="translate(-1390.052 -690.958)" fill="#545454"/>
            <path id="패스_289" data-name="패스 289" d="M1459.406,696.443h.959a1.189,1.189,0,1,0,0-2.379h-.959a1.189,1.189,0,0,0,0,2.379Z" transform="translate(-1405.896 -691.68)" fill="#545454"/>
            <path id="패스_290" data-name="패스 290" d="M1422.264,742.222a1.151,1.151,0,0,0,1.617-.192,10.225,10.225,0,0,1,.923-1.025,1.152,1.152,0,1,0-1.6-1.654,12.6,12.6,0,0,0-1.131,1.254A1.152,1.152,0,0,0,1422.264,742.222Z" transform="translate(-1397.437 -702.131)" fill="#545454"/>
            <path id="패스_291" data-name="패스 291" d="M1448.1,747.737a1.152,1.152,0,0,0,2.258-.453,12.645,12.645,0,0,0-.443-1.63,1.151,1.151,0,1,0-2.176.751A10.32,10.32,0,0,1,1448.1,747.737Z" transform="translate(-1403.447 -703.491)" fill="#545454"/>
            <path id="패스_292" data-name="패스 292" d="M1420.5,745.872a1.151,1.151,0,0,0-1.413.809,12.53,12.53,0,0,0-.332,1.655,1.15,1.15,0,0,0,.991,1.292,1.125,1.125,0,0,0,.152.01,1.151,1.151,0,0,0,1.14-1,10.2,10.2,0,0,1,.272-1.352A1.151,1.151,0,0,0,1420.5,745.872Z" transform="translate(-1396.722 -703.712)" fill="#545454"/>
            <path id="패스_293" data-name="패스 293" d="M1438.294,764.091a10.349,10.349,0,0,1-1.343.314,1.151,1.151,0,0,0,.184,2.287,1.188,1.188,0,0,0,.187-.015,12.861,12.861,0,0,0,1.644-.384,1.151,1.151,0,0,0-.673-2.2Z" transform="translate(-1400.729 -707.945)" fill="#545454"/>
            <path id="패스_294" data-name="패스 294" d="M1444.616,741.347a1.151,1.151,0,1,0,1.707-1.544,12.62,12.62,0,0,0-1.214-1.174,1.151,1.151,0,0,0-1.485,1.759A10.569,10.569,0,0,1,1444.616,741.347Z" transform="translate(-1402.409 -701.975)" fill="#545454"/>
            <path id="패스_295" data-name="패스 295" d="M1443.439,762.769a1.152,1.152,0,0,0,1.623.14,12.781,12.781,0,0,0,1.216-1.171,1.151,1.151,0,0,0-1.7-1.548,10.36,10.36,0,0,1-.994.958A1.151,1.151,0,0,0,1443.439,762.769Z" transform="translate(-1402.398 -706.962)" fill="#545454"/>
            <path id="패스_296" data-name="패스 296" d="M1448.431,756.483a1.152,1.152,0,0,0,1.469-.7,12.468,12.468,0,0,0,.45-1.629,1.152,1.152,0,0,0-2.257-.461,10.128,10.128,0,0,1-.366,1.326A1.152,1.152,0,0,0,1448.431,756.483Z" transform="translate(-1403.442 -705.324)" fill="#545454"/>
            <path id="패스_297" data-name="패스 297" d="M1439.034,735.431a12.611,12.611,0,0,0-1.643-.392,1.152,1.152,0,1,0-.382,2.271,10.25,10.25,0,0,1,1.34.32,1.152,1.152,0,1,0,.685-2.2Z" transform="translate(-1400.743 -701.2)" fill="#545454"/>
            <path id="패스_298" data-name="패스 298" d="M1429.333,737.982a1.149,1.149,0,0,0,.414-.077,10.33,10.33,0,0,1,1.319-.408,1.151,1.151,0,1,0-.533-2.24,12.645,12.645,0,0,0-1.613.5,1.151,1.151,0,0,0,.414,2.225Z" transform="translate(-1398.915 -701.247)" fill="#545454"/>
            <path id="패스_299" data-name="패스 299" d="M1423.935,718.783a1.19,1.19,0,0,0-1.19,1.19,5.94,5.94,0,0,1-5.932,5.934,1.189,1.189,0,1,0,0,2.379,8.322,8.322,0,0,0,8.312-8.313A1.19,1.19,0,0,0,1423.935,718.783Z" transform="translate(-1395.995 -697.425)" fill="#545454"/>
            <path id="패스_300" data-name="패스 300" d="M1443.306,780.853a1.19,1.19,0,0,0,1.19-1.19,5.94,5.94,0,0,1,5.933-5.933,1.189,1.189,0,1,0,0-2.379,8.321,8.321,0,0,0-8.313,8.312A1.189,1.189,0,0,0,1443.306,780.853Z" transform="translate(-1402.153 -709.644)" fill="#545454"/>
          </g>
        </g>
      </g>
    </g>
  </g>
</svg>
