<svg xmlns="http://www.w3.org/2000/svg" width="105" height="105" viewBox="0 0 105 105">
  <g id="그룹_144" data-name="그룹 144" transform="translate(-804 -791)">
    <path id="패스_265" data-name="패스 265" d="M52.5,0A52.5,52.5,0,1,1,0,52.5,52.5,52.5,0,0,1,52.5,0Z" transform="translate(804 791)" fill="#fff"/>
    <g id="그룹_139" data-name="그룹 139" transform="translate(-39.526 106.366)">
      <g id="그룹_138" data-name="그룹 138" transform="translate(860.579 696.688)">
        <path id="패스_261" data-name="패스 261" d="M912.158,707.088a5.345,5.345,0,0,0,5.03-.646L917.1,713.4l-6.743,7.713a1.055,1.055,0,0,0,1.588,1.389l5.113-5.848-.1,7.767a1.054,1.054,0,0,0,1.04,1.068h.014a1.055,1.055,0,0,0,1.054-1.042L919.2,714.2l4.572-5.23a5.469,5.469,0,0,0,.334,1,5.377,5.377,0,0,0,9.931-.269h0a5.373,5.373,0,0,0-9.668-4.615l-.014.014-5.113,5.847.1-7.767c0-.006,0-.012,0-.018a5.374,5.374,0,1,0-7.18,3.922Zm15.525-2.287a3.266,3.266,0,1,1-1.72,1.815A3.26,3.26,0,0,1,927.683,704.8Zm-16.653-3.9a3.273,3.273,0,0,1,3.05-2.1,3.288,3.288,0,0,1,1.169.217,3.269,3.269,0,0,1,1.883,4.22h0a3.267,3.267,0,0,1-6.1-2.337Z" transform="translate(-875.956 -696.688)" fill="#545454"/>
        <path id="패스_262" data-name="패스 262" d="M922.084,763.794h0a1.078,1.078,0,0,0,.165-.224c.011-.019.021-.037.031-.057a1.042,1.042,0,0,0,.092-.257l0-.016a1.064,1.064,0,0,0,.019-.193v-36.8a1.054,1.054,0,0,0-1.054-1.055h-12.12a1.055,1.055,0,0,0,0,2.11h11.065v34.694H907.3a1.055,1.055,0,0,0-1.055,1.055v12.984H862.688V727.3h29.479a1.055,1.055,0,1,0,0-2.11H861.634a1.055,1.055,0,0,0-1.055,1.055v50.843a1.054,1.054,0,0,0,1.055,1.055h45.675a1.017,1.017,0,0,0,.2-.02.853.853,0,0,0,.115-.035c.027-.008.055-.014.082-.025a.944.944,0,0,0,.123-.065c.02-.011.04-.019.059-.031a1.082,1.082,0,0,0,.161-.131h0Zm-13.729.308h10.437L908.355,774.54Z" transform="translate(-860.579 -705.794)" fill="#545454"/>
        <path id="패스_263" data-name="패스 263" d="M956.184,725.189H951.8a1.055,1.055,0,0,0,0,2.11h3.328v48.733H939.875a1.055,1.055,0,1,0,0,2.109h16.309a1.054,1.054,0,0,0,1.055-1.055V726.244A1.055,1.055,0,0,0,956.184,725.189Z" transform="translate(-885.578 -705.794)" fill="#545454"/>
        <rect id="사각형_58" data-name="사각형 58" width="5.424" height="2.076" transform="translate(9.45 35.519)" fill="#545454"/>
        <rect id="사각형_59" data-name="사각형 59" width="5.424" height="2.076" transform="translate(46.941 35.519)" fill="#545454"/>
        <rect id="사각형_60" data-name="사각형 60" width="5.424" height="2.076" transform="translate(37.568 35.519)" fill="#545454"/>
        <rect id="사각형_61" data-name="사각형 61" width="5.424" height="2.076" transform="translate(18.823 35.519)" fill="#545454"/>
        <rect id="사각형_62" data-name="사각형 62" width="5.424" height="2.076" transform="translate(28.195 35.519)" fill="#545454"/>
      </g>
      <path id="패스_264" data-name="패스 264" d="M872.234,774.384l3.659-2.69v12.981H873.83a1.072,1.072,0,0,0-1.072,1.072v2.014H874.9v-.944h22.563v.944H899.6v-.041h0v-1.976a1.067,1.067,0,0,0-1.068-1.068h-2V771.96l3.646,2.769a1.02,1.02,0,0,0,1.234-1.625l-4.88-3.707v-6.554a1.021,1.021,0,0,0-1.021-1.021h-3.434a1.021,1.021,0,0,0-1.021,1.021v2.4l-4.227-3.21a1.019,1.019,0,0,0-1.222-.01l-14.582,10.719a1.021,1.021,0,0,0,1.209,1.645Zm14.82,10.291h-1.683v-4.6h1.683Zm6.043-20.812h1.392v3.984l-1.392-1.058Zm-6.895.253,5.247,3.984.01.01,3.03,2.3v14.263H889.1v-5.622a1.021,1.021,0,0,0-1.021-1.021H884.35a1.021,1.021,0,0,0-1.021,1.021v5.622h-5.395V770.409a1.01,1.01,0,0,0-.021-.2Z" transform="translate(-3.205 -20.811)" fill="#545454"/>
    </g>
  </g>
</svg>
