<svg xmlns="http://www.w3.org/2000/svg" width="105" height="105" viewBox="0 0 105 105">
  <g id="그룹_256" data-name="그룹 256" transform="translate(-411 -1664)">
    <path id="패스_413" data-name="패스 413" d="M52.5,0A52.5,52.5,0,1,1,0,52.5,52.5,52.5,0,0,1,52.5,0Z" transform="translate(411 1664)" fill="#fff"/>
    <g id="그룹_254" data-name="그룹 254" transform="translate(2 -2.196)">
      <g id="그룹_253" data-name="그룹 253" transform="translate(434.781 1684.552)">
        <g id="그룹_247" data-name="그룹 247" transform="translate(0)">
          <path id="패스_414" data-name="패스 414" d="M979.8,897.678H964.235v-2.025a4.536,4.536,0,0,0-4.534-4.535H959.7a2.257,2.257,0,0,1-3.946-2.137,4.507,4.507,0,0,0-3.207-1.328h0a4.528,4.528,0,0,0-3.573,1.748,4.45,4.45,0,0,0-.371-.419,4.5,4.5,0,0,0-3.208-1.33h0a4.533,4.533,0,0,1-7.15,2.541h-.005a4.545,4.545,0,0,0-4.536,4.537v2.948H927.76a2.076,2.076,0,0,0-2.074,2.073v26.4a2.077,2.077,0,0,0,2.074,2.074h27.933a.959.959,0,0,0,0-1.919H934.2a7.637,7.637,0,0,0-6.6-6.6V906.2a7.636,7.636,0,0,0,6.6-6.6h39.259a7.667,7.667,0,0,0,6.5,6.582v13.542a7.618,7.618,0,0,0-5.289,3.332.96.96,0,0,0,1.6,1.062,5.69,5.69,0,0,1,3.691-2.441v4.473a.156.156,0,0,1-.155.156h-2.319a.959.959,0,0,0,0,1.919H979.8a2.076,2.076,0,0,0,2.073-2.074v-26.4A2.076,2.076,0,0,0,979.8,897.678ZM932.249,926.3h-4.49a.156.156,0,0,1-.156-.156v-4.491A5.7,5.7,0,0,1,932.249,926.3Zm-4.646-22.06v-4.491a.156.156,0,0,1,.156-.155h4.49A5.694,5.694,0,0,1,927.6,904.243Zm8.007-6.564v-2.946a2.623,2.623,0,0,1,2.619-2.62h0a2.62,2.62,0,0,1,2.617,2.557v3.01Zm7.159,0v-2.948c0-.027,0-.055,0-.082v-2.456a2.622,2.622,0,0,1,2.616-2.621h0A2.615,2.615,0,0,1,948,892.19l0,5.488Zm12.392-2.1v2.1h-5.238l0-5.487a2.624,2.624,0,0,1,2.618-2.62h0a2.621,2.621,0,0,1,2.62,2.62Zm7.156,2.1h-5.239V895.6a2.623,2.623,0,0,1,2.618-2.564h0a2.62,2.62,0,0,1,2.617,2.618Zm13.1,1.918H979.8a.156.156,0,0,1,.155.155v4.47A5.722,5.722,0,0,1,975.416,899.6Z" transform="translate(-925.685 -887.653)" fill="#545454"/>
        </g>
        <g id="그룹_248" data-name="그룹 248" transform="translate(8.522 20.946)">
          <path id="패스_415" data-name="패스 415" d="M943.172,922.073a3.487,3.487,0,0,0-3.483,3.483v1.736a3.488,3.488,0,0,0,3.483,3.484h1.737a3.487,3.487,0,0,0,3.482-3.484v-1.736a3.486,3.486,0,0,0-3.482-3.483Zm3.3,3.483v1.736a1.567,1.567,0,0,1-1.564,1.566h-1.737a1.569,1.569,0,0,1-1.566-1.566v-1.736a1.568,1.568,0,0,1,1.566-1.566h1.737A1.567,1.567,0,0,1,946.473,925.556Z" transform="translate(-939.689 -922.073)" fill="#545454"/>
        </g>
        <g id="그룹_249" data-name="그룹 249" transform="translate(23.332 15.533)">
          <path id="패스_416" data-name="패스 416" d="M968.785,932.7a.958.958,0,0,0,.958-.958v-1.03a4.515,4.515,0,0,0,3.813-4.321c0-2.132-1.254-4.412-4.772-4.412-1.886,0-2.841-.839-2.841-2.494A2.687,2.687,0,0,1,968.785,917a2.866,2.866,0,0,1,2.667,1.633.959.959,0,0,0,1.768-.744,4.642,4.642,0,0,0-3.477-2.707v-1.041a.959.959,0,0,0-1.918,0v1.032a4.516,4.516,0,0,0-3.8,4.321c0,2.133,1.25,4.412,4.759,4.412,1.868,0,2.854.863,2.854,2.494a2.688,2.688,0,0,1-2.841,2.493,2.862,2.862,0,0,1-2.667-1.633.959.959,0,1,0-1.768.744,4.639,4.639,0,0,0,3.462,2.7v1.043A.958.958,0,0,0,968.785,932.7Z" transform="translate(-964.026 -913.179)" fill="#545454"/>
        </g>
        <g id="그룹_250" data-name="그룹 250" transform="translate(7.138 26.171)">
          <path id="패스_417" data-name="패스 417" d="M972.981,930.761a5.442,5.442,0,0,0-6.505,5.341v4.2a7.937,7.937,0,0,1-2.717,5.844.959.959,0,0,0,1.356,1.356,9.831,9.831,0,0,0,3.279-7.2v-4.2a3.524,3.524,0,0,1,4.225-3.457,3.657,3.657,0,0,1,2.818,3.626v8.288a6.923,6.923,0,0,1-2.041,4.927l-4.232,4.232a7.655,7.655,0,0,0-2.2,4.486H940.2v-8.991a.959.959,0,1,0-1.917,0v9.01a.95.95,0,0,0-.87.941v9.477a.96.96,0,0,0,.959.96H942.5a.959.959,0,0,0,0-1.919h-3.164v-7.56h28.445v7.56H956.668a.959.959,0,0,0,0,1.919h12.07a.96.96,0,0,0,.959-.96v-9.477a.946.946,0,0,0-.781-.924,5.726,5.726,0,0,1,1.6-3.165l4.232-4.233a8.823,8.823,0,0,0,2.6-6.283v-8.288A5.531,5.531,0,0,0,972.981,930.761Z" transform="translate(-937.415 -930.659)" fill="#545454"/>
        </g>
        <g id="그룹_251" data-name="그룹 251" transform="translate(16.376 63.195)">
          <path id="패스_418" data-name="패스 418" d="M957.5,991.5h-3.942a.959.959,0,0,0,0,1.919H957.5a.959.959,0,0,0,0-1.919Z" transform="translate(-952.596 -991.501)" fill="#545454"/>
        </g>
        <g id="그룹_252" data-name="그룹 252" transform="translate(44.033 23.426)">
          <path id="패스_419" data-name="패스 419" d="M1002.711,931.638a.912.912,0,0,1-.827-.526,5.539,5.539,0,0,0-3.2-3.178.913.913,0,1,1,.544-1.742,7.346,7.346,0,0,1,4.307,4.147.913.913,0,0,1-.44,1.213A.9.9,0,0,1,1002.711,931.638Z" transform="translate(-998.045 -926.15)" fill="#545454"/>
        </g>
      </g>
      <path id="패스_420" data-name="패스 420" d="M947.887,876.735a43.4,43.4,0,0,0-47.1,39.392c-.112,1.247-.165,2.5-.169,3.755l-5.438-6.5a.973.973,0,0,0-1.493,1.249l7.587,9.071,9.383-7.848a.973.973,0,0,0-1.248-1.493l-6.846,5.724c0-1.261.051-2.529.163-3.785a41.435,41.435,0,1,1,21.943,40.366.973.973,0,1,0-.91,1.721,43.159,43.159,0,0,0,16.421,4.84q1.972.176,3.929.176a43.42,43.42,0,0,0,3.778-86.668Z" transform="translate(-481.453 798.634)" fill="#545454"/>
    </g>
  </g>
</svg>
