<svg xmlns="http://www.w3.org/2000/svg" width="105" height="105" viewBox="0 0 105 105">
  <g id="그룹_185" data-name="그룹 185" transform="translate(-531 -1228)">
    <g id="그룹_164" data-name="그룹 164" transform="translate(0 212)">
      <g id="그룹_163" data-name="그룹 163">
        <path id="패스_279" data-name="패스 279" d="M52.5,0A52.5,52.5,0,1,1,0,52.5,52.5,52.5,0,0,1,52.5,0Z" transform="translate(531 1016)" fill="#fff"/>
      </g>
    </g>
    <g id="그룹_172" data-name="그룹 172" transform="translate(551 1244)">
      <path id="패스_307" data-name="패스 307" d="M1717.8,767.74a1.928,1.928,0,0,1-1.925,1.926h-51.815a1.928,1.928,0,0,1-1.926-1.926V714h8.022a4.175,4.175,0,0,0,4.17-4.171v-8.021h41.549a1.928,1.928,0,0,1,1.925,1.925v35.052h2.245V703.733a4.174,4.174,0,0,0-4.17-4.17h-42.672a1.119,1.119,0,0,0-.793.329l-12.192,12.191a1.122,1.122,0,0,0-.329.794V767.74a4.175,4.175,0,0,0,4.17,4.171h51.815a4.175,4.175,0,0,0,4.17-4.171V754.024H1717.8Zm-47.645-55.985h-6.434l8.36-8.361v6.434A1.928,1.928,0,0,1,1670.16,711.755Z" transform="translate(-1659.894 -699.563)" fill="#545454"/>
      <path id="패스_308" data-name="패스 308" d="M1731.8,712.151a4.175,4.175,0,0,0-4.171-4.17h-3.048v2.245h3.048a1.928,1.928,0,0,1,1.926,1.925V715.2h2.245Z" transform="translate(-1677.741 -701.885)" fill="#545454"/>
      <rect id="사각형_83" data-name="사각형 83" width="3.048" height="2.244" transform="translate(40.745 6.096)" fill="#545454"/>
      <rect id="사각형_84" data-name="사각형 84" width="44.195" height="2.244" transform="translate(8.742 19.811)" fill="#545454"/>
      <rect id="사각형_85" data-name="사각형 85" width="44.195" height="2.244" transform="translate(8.742 27.432)" fill="#545454"/>
      <rect id="사각형_86" data-name="사각형 86" width="12.282" height="2.244" transform="translate(8.742 35.052)" fill="#545454"/>
      <rect id="사각형_87" data-name="사각형 87" width="9.385" height="2.244" transform="translate(8.742 42.671)" fill="#545454"/>
      <rect id="사각형_88" data-name="사각형 88" width="9.385" height="2.244" transform="translate(8.742 50.291)" fill="#545454"/>
      <rect id="사각형_89" data-name="사각형 89" width="13.032" height="2.244" transform="translate(8.742 57.911)" fill="#545454"/>
      <path id="패스_309" data-name="패스 309" d="M1716.129,753.992a12.86,12.86,0,1,0,.125,11.5l4.383-1.149,4.4,1.155,4.4-1.155,4.4,1.155,4.381-1.149,4.006-2.453v-4.373l-2.8-3.526Zm23.857,6.641-2.65,1.622-3.49.915-4.4-1.155-4.4,1.155-4.4-1.155-4.4,1.155-1.31-.345-.364.931a10.469,10.469,0,0,1-9.785,6.72,10.611,10.611,0,1,1,9.618-14.908l.3.67h23.66l1.639,2.062Z" transform="translate(-1668.752 -712.653)" fill="#545454"/>
      <rect id="사각형_90" data-name="사각형 90" width="2.93" height="2.247" transform="translate(28.992 46.089)" fill="#545454"/>
    </g>
  </g>
</svg>
