<svg xmlns="http://www.w3.org/2000/svg" width="105" height="105" viewBox="0 0 105 105">
  <g id="그룹_244" data-name="그룹 244" transform="translate(-412 -1550)">
    <path id="패스_325" data-name="패스 325" d="M52.5,0A52.5,52.5,0,1,1,0,52.5,52.5,52.5,0,0,1,52.5,0Z" transform="translate(412 1550)" fill="#fff"/>
    <g id="그룹_213" data-name="그룹 213" transform="translate(432 1569)">
      <path id="패스_376" data-name="패스 376" d="M654.225,19.228H627.813a1.352,1.352,0,0,0-.275.028,1.337,1.337,0,0,0-.173.053c-.029.009-.058.015-.087.027a1.468,1.468,0,0,0-.181.1c-.019.011-.039.019-.058.032a1.4,1.4,0,0,0-.211.173L615.793,30.672a1.355,1.355,0,0,0-.173.211c-.01.016-.018.034-.028.051a1.523,1.523,0,0,0-.1.187c-.01.026-.015.053-.024.079a1.206,1.206,0,0,0-.083.455V81.325a4.156,4.156,0,0,0,4.151,4.152h30.292a1.391,1.391,0,1,0,0-2.783H619.536a1.37,1.37,0,0,1-1.368-1.369V33.048h6.886A4.154,4.154,0,0,0,629.2,28.9V22.011h25.021a1.391,1.391,0,1,0,0-2.783Zm-27.8,9.67a1.369,1.369,0,0,1-1.368,1.367h-4.919l6.287-6.287Z" transform="translate(-615.385 -19.228)" fill="#545454" stroke="#fff" stroke-width="0.6"/>
      <path id="패스_377" data-name="패스 377" d="M645.5,39.315a1.391,1.391,0,1,0,0-2.783H634.625a1.391,1.391,0,0,0,0,2.783Z" transform="translate(-616.678 -20.482)" fill="#545454" stroke="#fff" stroke-width="0.6"/>
      <path id="패스_378" data-name="패스 378" d="M624.334,47.943a1.392,1.392,0,0,0,1.391,1.391h19.13a1.391,1.391,0,1,0,0-2.783h-19.13A1.391,1.391,0,0,0,624.334,47.943Z" transform="translate(-616.033 -21.207)" fill="#545454" stroke="#fff" stroke-width="0.6"/>
      <path id="패스_379" data-name="패스 379" d="M625.725,59.354H644.9a1.391,1.391,0,0,0,0-2.783H625.725a1.391,1.391,0,1,0,0,2.783Z" transform="translate(-616.033 -21.933)" fill="#545454" stroke="#fff" stroke-width="0.6"/>
      <path id="패스_380" data-name="패스 380" d="M625.725,69.374h19.13a1.391,1.391,0,1,0,0-2.783h-19.13a1.391,1.391,0,1,0,0,2.783Z" transform="translate(-616.033 -22.659)" fill="#545454" stroke="#fff" stroke-width="0.6"/>
      <path id="패스_381" data-name="패스 381" d="M649.549,76.611H625.725a1.391,1.391,0,1,0,0,2.783h23.823a1.391,1.391,0,1,0,0-2.783Z" transform="translate(-616.033 -23.385)" fill="#545454" stroke="#fff" stroke-width="0.6"/>
      <g id="그룹_212" data-name="그룹 212" transform="translate(38.763 0)">
        <path id="패스_382" data-name="패스 382" d="M670.916,31.989a6.381,6.381,0,1,0-6.381-6.382A6.389,6.389,0,0,0,670.916,31.989Zm0-9.89a3.509,3.509,0,1,1-3.509,3.508A3.513,3.513,0,0,1,670.916,22.1Z" transform="translate(-657.708 -19.228)" fill="#545454" stroke="#fff" stroke-width="0.6"/>
        <path id="패스_383" data-name="패스 383" d="M671.332,39.876a1.391,1.391,0,0,0-1.391,1.391v1.355a1.391,1.391,0,1,0,2.783,0V41.267A1.392,1.392,0,0,0,671.332,39.876Z" transform="translate(-658.1 -20.724)" fill="#545454" stroke="#fff" stroke-width="0.6"/>
        <path id="패스_384" data-name="패스 384" d="M677.608,35.43h-14.45a5.99,5.99,0,0,0-5.983,5.984V56.766a3.939,3.939,0,0,0,3.934,3.934,3.884,3.884,0,0,0,1.133-.186V81.9a4.747,4.747,0,0,0,8.14,3.326,4.747,4.747,0,0,0,8.14-3.326V60.513a3.9,3.9,0,0,0,1.134.186,3.938,3.938,0,0,0,3.933-3.934V41.414A5.99,5.99,0,0,0,677.608,35.43ZM668.966,81.9a1.971,1.971,0,1,1-3.941,0V58.1h3.941Zm6.774,0a1.971,1.971,0,1,1-3.941,0V58.1h3.941Zm5.067-25.131a1.151,1.151,0,1,1-2.3,0V42.087a1.391,1.391,0,1,0-2.783,0V55.321H665.042V42.087a1.391,1.391,0,1,0-2.783,0V56.766a1.151,1.151,0,1,1-2.3,0V42.087h0v-.673a3.2,3.2,0,0,1,3.2-3.2h14.45a3.2,3.2,0,0,1,3.2,3.2v.673h0Z" transform="translate(-657.175 -20.402)" fill="#545454" stroke="#fff" stroke-width="0.6"/>
      </g>
    </g>
  </g>
</svg>
