<svg xmlns="http://www.w3.org/2000/svg" width="105" height="105" viewBox="0 0 105 105">
  <g id="그룹_241" data-name="그룹 241" transform="translate(-412 -1436)">
    <path id="패스_316" data-name="패스 316" d="M52.5,0A52.5,52.5,0,1,1,0,52.5,52.5,52.5,0,0,1,52.5,0Z" transform="translate(412 1436)" fill="#fff"/>
    <g id="그룹_192" data-name="그룹 192" transform="translate(433.992 1447.128)">
      <path id="패스_328" data-name="패스 328" d="M276.725,244.963H259.942a4.731,4.731,0,0,0-3.549-1.62h-.175v-1.6a3.4,3.4,0,0,0-3.4-3.4h-10a3.4,3.4,0,0,0-3.4,3.4v1.6H239a4.734,4.734,0,0,0-3.55,1.62h-17.5a1.411,1.411,0,0,0-1.411,1.411v62.251a1.412,1.412,0,0,0,1.411,1.412h4.9v2.054h-5.024a1.411,1.411,0,0,0-1.411,1.411,7.588,7.588,0,0,0,7.579,7.58h40.551a6.915,6.915,0,0,0,6.906-6.844h0v-4.2h5.257a1.412,1.412,0,0,0,1.412-1.412V246.374A1.411,1.411,0,0,0,276.725,244.963Zm-34.483-3.218a.579.579,0,0,1,.578-.578h10a.579.579,0,0,1,.578.578v3.143a.578.578,0,0,1-.578.578h-10a.578.578,0,0,1-.578-.578Zm-2.568,4.421a3.4,3.4,0,0,0,3.146,2.123h10a3.4,3.4,0,0,0,3.147-2.123h.429a1.941,1.941,0,0,1,1.939,1.939v4.24H237.064V248.1A1.941,1.941,0,0,1,239,246.166Zm-20.3,61.048V247.786h14.9c-.007.108-.032.21-.032.319v2.722h-9.967a1.411,1.411,0,0,0-1.412,1.411v54.976Zm4.638,11.044a4.766,4.766,0,0,1-4.543-3.346H257.69A6.859,6.859,0,0,0,259,318.259Zm44.637-4.086a4.093,4.093,0,0,1-4.92,4,4.207,4.207,0,0,1-3.253-4.184,1.9,1.9,0,0,0-1.9-1.9H225.685V253.65H234.4a2.353,2.353,0,0,0,2.195,1.517h22.2a2.352,2.352,0,0,0,2.194-1.517h7.651Zm6.67-6.958h-3.847V252.238a1.411,1.411,0,0,0-1.412-1.411h-8.9V248.1c0-.109-.025-.211-.032-.319h14.193Z" transform="translate(-216.428 -238.345)" fill="#545454" stroke="#fff" stroke-width="0.6"/>
      <path id="패스_329" data-name="패스 329" d="M251.093,264.892a1.411,1.411,0,0,0,0,2.823h13.663a1.411,1.411,0,1,0,0-2.823Z" transform="translate(-218.837 -240.268)" fill="#545454" stroke="#fff" stroke-width="0.6"/>
      <path id="패스_330" data-name="패스 330" d="M264.756,271.734H251.093a1.411,1.411,0,0,0,0,2.823h13.663a1.411,1.411,0,1,0,0-2.823Z" transform="translate(-218.837 -240.764)" fill="#545454" stroke="#fff" stroke-width="0.6"/>
      <path id="패스_331" data-name="패스 331" d="M264.756,282.062H251.093a1.411,1.411,0,0,0,0,2.823h13.663a1.411,1.411,0,1,0,0-2.823Z" transform="translate(-218.837 -241.512)" fill="#545454" stroke="#fff" stroke-width="0.6"/>
      <path id="패스_332" data-name="패스 332" d="M264.756,300.36H251.093a1.411,1.411,0,0,0,0,2.823h13.663a1.411,1.411,0,1,0,0-2.823Z" transform="translate(-218.837 -242.838)" fill="#545454" stroke="#fff" stroke-width="0.6"/>
      <path id="패스_333" data-name="패스 333" d="M251.093,292.344h6.249a1.411,1.411,0,0,0,0-2.823h-6.249a1.411,1.411,0,0,0,0,2.823Z" transform="translate(-218.837 -242.052)" fill="#545454" stroke="#fff" stroke-width="0.6"/>
      <path id="패스_334" data-name="패스 334" d="M264.756,307.5H251.093a1.411,1.411,0,0,0,0,2.823h13.663a1.411,1.411,0,1,0,0-2.823Z" transform="translate(-218.837 -243.355)" fill="#545454" stroke="#fff" stroke-width="0.6"/>
      <path id="패스_335" data-name="패스 335" d="M242.93,263.8l-.317.317a3.175,3.175,0,0,0-2.555-1.3h-6.841A3.191,3.191,0,0,0,230.03,266v6.484a3.191,3.191,0,0,0,3.187,3.188h6.841a3.191,3.191,0,0,0,3.187-3.188v-5.011l1.682-1.681a1.411,1.411,0,1,0-2-2Zm-2.508,8.688a.366.366,0,0,1-.365.365h-6.841a.366.366,0,0,1-.365-.365V266a.365.365,0,0,1,.365-.365h6.841a.365.365,0,0,1,.365.365v.305l-2.884,2.884-2.1-2.1a1.411,1.411,0,1,0-2,2l3.1,3.1a1.413,1.413,0,0,0,2,0l1.886-1.887Z" transform="translate(-217.413 -240.118)" fill="#545454" stroke="#fff" stroke-width="0.6"/>
      <path id="패스_336" data-name="패스 336" d="M242.93,281.279l-.356.356a3.172,3.172,0,0,0-2.516-1.253h-6.841a3.19,3.19,0,0,0-3.187,3.187v6.484a3.19,3.19,0,0,0,3.187,3.187h6.841a3.19,3.19,0,0,0,3.187-3.187v-5.1l1.682-1.682a1.411,1.411,0,1,0-2-2Zm-2.508,8.774a.365.365,0,0,1-.365.365h-6.841a.365.365,0,0,1-.365-.365v-6.484a.365.365,0,0,1,.365-.365h6.841a.365.365,0,0,1,.365.365v.218l-2.884,2.884-2.1-2.1a1.411,1.411,0,0,0-2,2l3.1,3.1a1.411,1.411,0,0,0,2,0l1.886-1.886Z" transform="translate(-217.413 -241.39)" fill="#545454" stroke="#fff" stroke-width="0.6"/>
      <path id="패스_337" data-name="패스 337" d="M242.93,298.759l-.4.4a3.172,3.172,0,0,0-2.477-1.207h-6.841a3.191,3.191,0,0,0-3.187,3.188v6.484a3.19,3.19,0,0,0,3.187,3.187h6.841a3.19,3.19,0,0,0,3.187-3.187v-5.184l1.682-1.681a1.411,1.411,0,0,0-2-2Zm-2.508,8.861a.365.365,0,0,1-.365.365h-6.841a.365.365,0,0,1-.365-.365v-6.484a.365.365,0,0,1,.365-.365h6.841a.365.365,0,0,1,.365.365v.131l-2.884,2.884-2.1-2.1a1.411,1.411,0,1,0-2,2l3.1,3.1a1.411,1.411,0,0,0,2,0l1.886-1.886Z" transform="translate(-217.413 -242.663)" fill="#545454" stroke="#fff" stroke-width="0.6"/>
    </g>
  </g>
</svg>
