<svg xmlns="http://www.w3.org/2000/svg" width="105" height="105" viewBox="0 0 105 105">
  <g id="그룹_238" data-name="그룹 238" transform="translate(-720 -1550)">
    <path id="패스_323" data-name="패스 323" d="M52.5,0A52.5,52.5,0,1,1,0,52.5,52.5,52.5,0,0,1,52.5,0Z" transform="translate(720 1550)" fill="#fff"/>
    <g id="그룹_211" data-name="그룹 211" transform="translate(721.966 1568.377)">
      <path id="패스_369" data-name="패스 369" d="M688.561,276.925l-1.946-6.705c-.009-.031-.024-.057-.035-.087a1.426,1.426,0,0,0-.059-.146,1.233,1.233,0,0,0-.067-.113,1.3,1.3,0,0,0-.076-.115,1.385,1.385,0,0,0-.1-.11c-.027-.029-.053-.058-.083-.084a1.555,1.555,0,0,0-.149-.11c-.019-.013-.035-.029-.056-.041l-.014-.007a1.481,1.481,0,0,0-.195-.091c-.018-.006-.036-.017-.055-.023a1.3,1.3,0,0,0-.215-.052c-.016,0-.032-.008-.047-.01a1.276,1.276,0,0,0-.2-.008c-.024,0-.049,0-.074,0-.047,0-.1.014-.143.021s-.091.014-.135.026a.231.231,0,0,0-.024,0l-6.7,1.945a1.391,1.391,0,1,0,.776,2.672l3.315-.962-11.4,19.125-9.72,8.752-9.877-8.892a1.388,1.388,0,0,0-1.862,0l-20.71,18.647-9.879-8.419-.02-.013v-11.1a1.391,1.391,0,1,0-2.783,0v24.582a4.641,4.641,0,0,0,4.641,4.641h47.956a4.64,4.64,0,0,0,4.641-4.641v-15.3a1.391,1.391,0,1,0-2.783,0v15.3a1.858,1.858,0,0,1-1.858,1.858H620.671a1.858,1.858,0,0,1-1.859-1.858V305.78l9.021,7.689a1.393,1.393,0,0,0,1.834-.025l20.684-18.624,9.877,8.892a1.39,1.39,0,0,0,1.862,0l10.808-9.731a1.37,1.37,0,0,0,.263-.321l11.674-19.588,1.054,3.63a1.392,1.392,0,0,0,1.336,1,1.372,1.372,0,0,0,.388-.056A1.391,1.391,0,0,0,688.561,276.925Z" transform="translate(-596.874 -250.551)" fill="#545454" stroke="#fff" stroke-width="0.6"/>
      <path id="패스_370" data-name="패스 370" d="M635.429,286.506l.006,0a1.351,1.351,0,0,0,.264-.085l.007,0,7.547-3.342h2.3a1.391,1.391,0,1,0,0-2.783h-2.3l-7.546-3.342-.006,0a1.393,1.393,0,0,0-.3-.092c-.035-.006-.071-.006-.1-.011-.05,0-.1-.015-.149-.015H600.231a4.853,4.853,0,1,0,0,9.706h34.912A1.389,1.389,0,0,0,635.429,286.506Zm-37.268-4.823a2.073,2.073,0,0,1,2.07-2.07h.59v4.141h-.59A2.073,2.073,0,0,1,598.161,281.683Zm38.374,1.324v-2.647l2.989,1.324ZM603.6,279.613h30.148v4.141H603.6Z" transform="translate(-595.378 -251.102)" fill="#545454" stroke="#fff" stroke-width="0.6"/>
      <path id="패스_371" data-name="패스 371" d="M663,259.86h-35.38a1.411,1.411,0,1,0,0,2.823H663a1.411,1.411,0,1,0,0-2.823Z" transform="translate(-597.611 -249.873)" fill="#545454" stroke="#fff" stroke-width="0.6"/>
      <path id="패스_372" data-name="패스 372" d="M664.071,269.442H642.449a1.412,1.412,0,0,0,0,2.823h21.622a1.412,1.412,0,0,0,0-2.823Z" transform="translate(-598.686 -250.567)" fill="#545454" stroke="#fff" stroke-width="0.6"/>
      <path id="패스_373" data-name="패스 373" d="M627.617,269.442a1.412,1.412,0,0,0,0,2.823h7.709a1.412,1.412,0,0,0,0-2.823Z" transform="translate(-597.611 -250.567)" fill="#545454" stroke="#fff" stroke-width="0.6"/>
      <path id="패스_374" data-name="패스 374" d="M664.433,287.757H647.449a1.411,1.411,0,0,0,0,2.823h16.984a1.411,1.411,0,1,0,0-2.823Z" transform="translate(-599.048 -251.894)" fill="#545454" stroke="#fff" stroke-width="0.6"/>
      <path id="패스_375" data-name="패스 375" d="M617.42,271.165a1.391,1.391,0,0,0,1.391-1.391V253.734a1.859,1.859,0,0,1,1.859-1.859h50.889a6.263,6.263,0,0,0-1.075,3.517v25.495a1.391,1.391,0,1,0,2.783,0v-18.9h8.427a1.391,1.391,0,0,0,1.391-1.391v-4.256a7.513,7.513,0,0,0-3.122-6.18,5.374,5.374,0,0,0-4.282-.961,1.385,1.385,0,0,0-.52-.1H620.671a4.641,4.641,0,0,0-4.641,4.641v16.039A1.392,1.392,0,0,0,617.42,271.165Zm55.846-15.772a3.518,3.518,0,0,1,7.036,0V259.2h-7.036Z" transform="translate(-596.874 -249.093)" fill="#545454" stroke="#fff" stroke-width="0.6"/>
    </g>
  </g>
</svg>
