<svg xmlns="http://www.w3.org/2000/svg" width="105" height="105" viewBox="0 0 105 105">
  <g id="그룹_252" data-name="그룹 252" transform="translate(-1139 -1436)">
    <g id="그룹_251" data-name="그룹 251">
      <g id="그룹_250" data-name="그룹 250">
        <g id="그룹_249" data-name="그룹 249" transform="translate(111)">
          <path id="패스_320" data-name="패스 320" d="M52.5,0A52.5,52.5,0,1,1,0,52.5,52.5,52.5,0,0,1,52.5,0Z" transform="translate(1028 1436)" fill="#fff"/>
        </g>
        <g id="그룹_248" data-name="그룹 248" transform="translate(933.182 909.893)">
          <path id="패스_413" data-name="패스 413" d="M306.459,579.809a3.973,3.973,0,0,0-2.525.424,3.9,3.9,0,0,0-5.734-2.867,4,4,0,0,0-3.209-3.291,3.929,3.929,0,0,0-4.531,3.28,3.97,3.97,0,0,0-2.506-.413,4.041,4.041,0,0,0-3.273,4.025v10.7A6.762,6.762,0,0,0,280,589.792a1.057,1.057,0,0,0-1.058,1.058v15.77a6.555,6.555,0,0,0,5.734,6.726v7.61a1.057,1.057,0,0,0,1.057,1.058h20.071a1.058,1.058,0,0,0,1.058-1.058v-7.693a3.928,3.928,0,0,0,2.867-3.776V583.834A4.041,4.041,0,0,0,306.459,579.809Zm1.159,29.677a1.812,1.812,0,0,1-1.81,1.81h-1.434v2.115h.377V619.9H286.794v-6.486h.377V611.3h-1.434c-4.508,0-4.673-4.2-4.677-4.677V592.027a4.685,4.685,0,0,1,3.62,4.557v7.168h2.115V580.967a1.911,1.911,0,0,1,1.5-1.937,1.811,1.811,0,0,1,2.121,1.784v11.469h2.115V577.947a1.813,1.813,0,0,1,2.121-1.784,1.912,1.912,0,0,1,1.5,1.937v14.183h2.115V580.814a1.812,1.812,0,0,1,2.121-1.784,1.911,1.911,0,0,1,1.5,1.937v11.316H304v-8.6a1.813,1.813,0,0,1,2.122-1.784,1.912,1.912,0,0,1,1.5,1.937Z" transform="translate(-17.353 -9.344)" fill="#545454"/>
          <path id="패스_414" data-name="패스 414" d="M232.168,546.722h43.761v14.713h2.115v-15.77a1.058,1.058,0,0,0-1.058-1.058H231.11a6.8,6.8,0,0,0-6.792,6.793v54.476a6.8,6.8,0,0,0,6.792,6.793h32.973v-2.115H232.168Zm-5.734,59.154V551.4a4.683,4.683,0,0,1,3.62-4.553v63.581A4.682,4.682,0,0,1,226.433,605.876Z" fill="#545454"/>
          <path id="패스_415" data-name="패스 415" d="M276.882,567.64v-8.6a3.929,3.929,0,0,0-3.925-3.924h-25.8a3.929,3.929,0,0,0-3.924,3.924v11.47a3.929,3.929,0,0,0,3.924,3.925H270.09v-2.115H247.152a1.812,1.812,0,0,1-1.81-1.81v-11.47a1.811,1.811,0,0,1,1.81-1.809h25.8a1.811,1.811,0,0,1,1.81,1.809v8.6Z" transform="translate(-6.007 -3.337)" fill="#545454"/>
          <rect id="사각형_108" data-name="사각형 108" width="20.071" height="2.115" transform="translate(244.013 557.51)" fill="#545454"/>
          <rect id="사각형_109" data-name="사각형 109" width="15.77" height="2.115" transform="translate(244.013 563.245)" fill="#545454"/>
        </g>
      </g>
    </g>
  </g>
</svg>
