<svg xmlns="http://www.w3.org/2000/svg" width="105" height="105" viewBox="0 0 105 105">
  <g id="그룹_264" data-name="그룹 264" transform="translate(-258 -1440)">
    <g id="그룹_163" data-name="그룹 163" transform="translate(-273 424)">
      <path id="패스_279" data-name="패스 279" d="M52.5,0A52.5,52.5,0,1,1,0,52.5,52.5,52.5,0,0,1,52.5,0Z" transform="translate(531 1016)" fill="#fff"/>
    </g>
    <g id="그룹_263" data-name="그룹 263" transform="translate(-832.238 575.422)">
      <path id="패스_352" data-name="패스 352" d="M1196.038,965.951a44.511,44.511,0,0,1-14.455,7.512.961.961,0,0,0,.283,1.879.981.981,0,0,0,.284-.042,46.266,46.266,0,0,0,15.023-7.8c.229-.158,2.241-1.584,2.339-3.472a2.941,2.941,0,0,0-1.174-2.451,2.482,2.482,0,0,0-2.181-.469,4,4,0,0,0-.813-2.267,3.642,3.642,0,0,0-2.964-1.316,16.152,16.152,0,0,0-4.963,1.411,54.994,54.994,0,0,1-7.655,2.454,4.669,4.669,0,0,0-3.151-1.19c-8.753.1-10.224-.771-11.931-1.785a15.72,15.72,0,0,0-1.486-.8.961.961,0,0,0-.808,1.744,13.383,13.383,0,0,1,1.313.714c1.957,1.161,3.654,2.162,12.967,2.051a2.694,2.694,0,0,1,1.815.694,3.2,3.2,0,0,1,.662,2.523c-.018.284-.075,1.146-1.809,1.811-1.78.686-5.7,1.259-14.279.108a.96.96,0,1,0-.255,1.9,66.79,66.79,0,0,0,8.688.673,19.178,19.178,0,0,0,6.429-.859,70.757,70.757,0,0,0,14.983-4.685c1.949-.818,3.79-1.589,4.2-1.246.465.394.507.691.5.882C1197.558,964.666,1196.562,965.584,1196.038,965.951Zm-1.774-4.3c-.625.237-1.322.529-2.107.859a71.691,71.691,0,0,1-11.3,3.839,3.243,3.243,0,0,0,.2-.89,6.352,6.352,0,0,0-.24-2.342,57.985,57.985,0,0,0,7.285-2.394,15.382,15.382,0,0,1,4.3-1.282,1.769,1.769,0,0,1,1.443.6A2.29,2.29,0,0,1,1194.264,961.655Z" transform="translate(-25.81 -31.437)" fill="#545454"/>
      <path id="패스_353" data-name="패스 353" d="M1160.915,975.365a.961.961,0,0,0-.382-1.883,64.147,64.147,0,0,1-28.247-1.1,2.708,2.708,0,0,1-2.013-2.631V966.69a.961.961,0,0,0-1.922,0v4.976a.794.794,0,0,1-.792.8h-5.054a.8.8,0,0,1-.791-.8V957.194a.794.794,0,0,1,.791-.792h5.054a.793.793,0,0,1,.792.792v4.372a.961.961,0,0,0,1.922,0v-2.438c0-.01.006-.018.006-.029a2.711,2.711,0,0,1,2.771-2.7,76.827,76.827,0,0,1,8.216.562.961.961,0,0,0,.26-1.9,78.92,78.92,0,0,0-8.427-.578,4.541,4.541,0,0,0-3.262,1.248,2.706,2.706,0,0,0-2.278-1.251h-5.054a2.718,2.718,0,0,0-2.714,2.714v14.472a2.72,2.72,0,0,0,2.714,2.717h5.054a2.712,2.712,0,0,0,2.266-1.231,4.588,4.588,0,0,0,1.97,1.088,69.442,69.442,0,0,0,17.406,2.266A58.961,58.961,0,0,0,1160.915,975.365Z" transform="translate(-9.487 -30.257)" fill="#545454"/>
      <path id="패스_354" data-name="패스 354" d="M1126.621,977.6a1.065,1.065,0,1,0,1.063-1.065A1.064,1.064,0,0,0,1126.621,977.6Z" transform="translate(-12.139 -38.822)" fill="#545454"/>
      <path id="패스_355" data-name="패스 355" d="M1159.26,926.763a12.539,12.539,0,0,0,.119,1.631,10.549,10.549,0,0,1-15.073-1.406.96.96,0,0,0-1.5,1.2,12.461,12.461,0,0,0,17.017,2.288,12.488,12.488,0,0,0,24.41-3.718,12.7,12.7,0,0,0-.165-2.043.961.961,0,1,0-1.9.313,10.823,10.823,0,0,1,.141,1.73,10.567,10.567,0,1,1-2.076-6.289.961.961,0,0,0,1.543-1.145,12.488,12.488,0,0,0-22.523,7.434Z" transform="translate(-18.342 -14.644)" fill="#545454"/>
      <path id="패스_356" data-name="패스 356" d="M1138.427,916.293a12.52,12.52,0,0,0,.408,3.178.963.963,0,0,0,.929.717.9.9,0,0,0,.245-.034.959.959,0,0,0,.685-1.171,10.569,10.569,0,0,1,19.018-8.547.961.961,0,1,0,1.6-1.068,12.49,12.49,0,0,0-22.882,6.924Z" transform="translate(-16.723 -10.58)" fill="#545454"/>
      <path id="패스_357" data-name="패스 357" d="M1156.126,910.087a.962.962,0,0,0-.961.962v.8a4.052,4.052,0,0,0-3.317,3.865c0,1.922,1.125,3.975,4.277,3.975,1.572,0,2.369.691,2.369,2.053a2.222,2.222,0,0,1-2.357,2.051,2.375,2.375,0,0,1-2.214-1.349.961.961,0,0,0-1.771.746,4.154,4.154,0,0,0,3.012,2.412v.81a.961.961,0,1,0,1.922,0v-.8a4.053,4.053,0,0,0,3.328-3.867c0-1.922-1.126-3.975-4.289-3.975-1.563,0-2.355-.692-2.355-2.053a2.221,2.221,0,0,1,2.355-2.051,2.375,2.375,0,0,1,2.214,1.349.961.961,0,1,0,1.772-.745,4.16,4.16,0,0,0-3.025-2.415v-.807A.962.962,0,0,0,1156.126,910.087Z" transform="translate(-21.935 -13.018)" fill="#545454"/>
      <path id="패스_358" data-name="패스 358" d="M1187.539,937.848a.96.96,0,0,0,.961-.96v-.8a4.056,4.056,0,0,0,3.328-3.869c0-1.919-1.126-3.973-4.288-3.973-1.564,0-2.355-.692-2.355-2.053a2.222,2.222,0,0,1,2.355-2.053,2.372,2.372,0,0,1,2.213,1.349.961.961,0,0,0,1.773-.743,4.166,4.166,0,0,0-3.025-2.417v-.807a.961.961,0,0,0-1.922,0v.807a4.052,4.052,0,0,0-3.317,3.865c0,1.922,1.125,3.975,4.278,3.975,1.571,0,2.368.689,2.368,2.051a2.223,2.223,0,0,1-2.356,2.053,2.375,2.375,0,0,1-2.214-1.349.96.96,0,0,0-1.771.743,4.164,4.164,0,0,0,3.012,2.414v.81A.96.96,0,0,0,1187.539,937.848Z" transform="translate(-34.133 -17.085)" fill="#545454"/>
      <path id="패스_359" data-name="패스 359" d="M1190.6,903.4v-5.082a.961.961,0,0,0-1.922,0V903.4a.961.961,0,0,0,1.922,0Z" transform="translate(-36.238 -8.077)" fill="#545454"/>
      <path id="패스_360" data-name="패스 360" d="M1201.076,905.3v-5.082a.96.96,0,0,0-1.921,0V905.3a.96.96,0,0,0,1.921,0Z" transform="translate(-40.305 -8.814)" fill="#545454"/>
      <path id="패스_361" data-name="패스 361" d="M1159.2,893.194v-5.08a.96.96,0,1,0-1.921,0v5.08a.96.96,0,1,0,1.921,0Z" transform="translate(-24.045 -4.112)" fill="#545454"/>
      <path id="패스_362" data-name="패스 362" d="M1148.732,895.095v-5.083a.961.961,0,1,0-1.922,0v5.083a.961.961,0,0,0,1.922,0Z" transform="translate(-19.978 -4.849)" fill="#545454"/>
      <path id="패스_363" data-name="패스 363" d="M1169.674,896.994v-5.082a.961.961,0,0,0-1.922,0v5.082a.961.961,0,0,0,1.922,0Z" transform="translate(-28.11 -5.588)" fill="#545454"/>
      <path id="패스_364" data-name="패스 364" d="M1146.667,876.725a40.915,40.915,0,0,0-44.4,37.134c-.1,1.175-.155,2.359-.159,3.54l-5.126-6.129a.917.917,0,1,0-1.407,1.177l7.151,8.551,8.845-7.4a.917.917,0,0,0-1.177-1.408l-6.453,5.4c0-1.189.048-2.384.154-3.568a39.059,39.059,0,1,1,20.685,38.052.917.917,0,1,0-.857,1.622,40.685,40.685,0,0,0,15.479,4.563q1.86.166,3.7.166a40.931,40.931,0,0,0,3.561-81.7Z" fill="#545454"/>
    </g>
  </g>
</svg>
