<svg xmlns="http://www.w3.org/2000/svg" width="105" height="105" viewBox="0 0 105 105">
  <g id="그룹_133" data-name="그룹 133" transform="translate(-804 -587)">
    <circle id="타원_3" data-name="타원 3" cx="52.5" cy="52.5" r="52.5" transform="translate(804 587)" fill="#fff"/>
    <g id="그룹_70" data-name="그룹 70" transform="translate(816 598)">
      <g id="그룹_62" data-name="그룹 62" transform="translate(26.11 40.11)">
        <rect id="사각형_43" data-name="사각형 43" width="2.587" height="1.94" transform="matrix(0.992, -0.124, 0.124, 0.992, 0, 0.321)" fill="#545454"/>
      </g>
      <g id="그룹_63" data-name="그룹 63" transform="translate(31.734 39.406)">
        <rect id="사각형_44" data-name="사각형 44" width="2.587" height="1.94" transform="translate(0 0.321) rotate(-7.13)" fill="#545454"/>
      </g>
      <g id="그룹_64" data-name="그룹 64" transform="translate(41.557 32.268)">
        <rect id="사각형_45" data-name="사각형 45" width="2.587" height="1.94" fill="#545454"/>
      </g>
      <g id="그룹_65" data-name="그룹 65" transform="translate(8.924 40.731)">
        <path id="패스_232" data-name="패스 232" d="M269.078,752.643a1.6,1.6,0,0,0-1.79-1.391l-8.264,1.038a1.6,1.6,0,0,0-1.393,1.79l1.861,14.834a1.6,1.6,0,0,0,1.587,1.4,1.717,1.717,0,0,0,.2-.012l8.263-1.038a1.6,1.6,0,0,0,1.393-1.79Zm-7.62,15.587-1.753-13.975,7.406-.93,1.753,13.975Z" transform="translate(-257.619 -751.239)" fill="#545454"/>
      </g>
      <g id="그룹_66" data-name="그룹 66" transform="translate(27.57 12.931)">
        <rect id="사각형_46" data-name="사각형 46" width="2.036" height="4.809" rx="1.018" transform="translate(0 1.173) rotate(-35.175)" fill="#545454"/>
      </g>
      <g id="그룹_67" data-name="그룹 67" transform="translate(33.572 12.145)">
        <rect id="사각형_47" data-name="사각형 47" width="2.036" height="4.563" rx="1.018" fill="#545454"/>
      </g>
      <g id="그룹_68" data-name="그룹 68" transform="translate(0 19.793)">
        <path id="패스_233" data-name="패스 233" d="M319.337,725.117h-4.5a1.018,1.018,0,0,0-1.018,1.018h0a1.018,1.018,0,0,0,1.018,1.018h4.5a.259.259,0,0,1,.258.258v44.376a.259.259,0,0,1-.258.257H296.769l-2.231-6.64a6.854,6.854,0,0,0,1.942-.728,3.832,3.832,0,0,1,1.143-.461.978.978,0,0,0,.8-.954h0a.979.979,0,0,0-1.173-.953c-1.488.288-1.9,1.088-3.354,1.18l-4.466-13.295h6.04a.97.97,0,0,0,.97-.97h0a.97.97,0,0,0-.97-.97h-6.693l-1.933-5.756h8.626a.97.97,0,0,0,.97-.97h0a.97.97,0,0,0-.97-.97h-9.278l-4.519-13.452h14.041a.97.97,0,0,0,.97-.97h0a.97.97,0,0,0-.97-.97H281.02l-1.605-4.779h-2.148l3.876,11.538-34.667,4.349a2.3,2.3,0,0,0-1.99,2.562l3.588,28.6a2.347,2.347,0,0,0,.071.316,1.01,1.01,0,0,0,.379.885l18.207,14.148a1.017,1.017,0,0,0,.624.214,1,1,0,0,0,.32-.058c.014,0,.026,0,.04,0a2.34,2.34,0,0,0,.29-.018l29.044-3.644,1.133-.142a.764.764,0,0,0,.63-1l-1.361-4.051h21.884a2.293,2.293,0,0,0,2.294-2.293V727.411A2.293,2.293,0,0,0,319.337,725.117Zm-67.621,43.415,12.729-1.6,1.6,12.729Zm16.525,12.306-1.9-15.167a1.022,1.022,0,0,0-1.137-.883l-15.168,1.9-3.527-28.109a.259.259,0,0,1,.224-.288l35.074-4.4,4.347,12.939L272.5,748.54a.97.97,0,0,0-.842,1.083h0a.97.97,0,0,0,1.083.842l14.044-1.757,1.868,5.56-15.2,1.908a.971.971,0,0,0-.842,1.083h0a.97.97,0,0,0,1.084.842l15.587-1.956,4.3,12.791c-.081,0-.14,0-.14,0-1.274-.148-1.844-.968-4.021-.7-2.632.329-2.587,1.627-4.6,1.879s-2.294-1.017-4.925-.687-2.588,1.627-4.6,1.879c-1.691.212-2.153-.641-3.8-.734a.969.969,0,0,0-1,1.1h0a.984.984,0,0,0,.906.852c1.357.11,1.88.991,4.125.71a5.365,5.365,0,0,0,2.744-1.112c3.528-2.511,5.056,1.991,9.528-1.192,2.581-1.836,4.081.069,6.448-.007l2.144,6.38Z" transform="translate(-244.468 -720.386)" fill="#545454"/>
      </g>
      <g id="그룹_69" data-name="그룹 69" transform="translate(53.318 0)">
        <path id="패스_234" data-name="패스 234" d="M329.537,759.957a1.352,1.352,0,0,0,2.342-.023l6.36-11.461a1.02,1.02,0,0,0-.012-1.008,28.624,28.624,0,0,1-3.13-9.554.606.606,0,0,1,.02-.061c.208-.755.022,2.232,1.833-40.093a6.254,6.254,0,1,0-12.495,0c1.811,42.309,1.627,39.33,1.836,40.088l.022.033a28.613,28.613,0,0,1-3.136,9.59,1.02,1.02,0,0,0-.012,1.008Zm1.164-10.491a.812.812,0,1,1,.812-.812A.813.813,0,0,1,330.7,749.467Zm-3.118-54.974a4.313,4.313,0,0,1,6.237,0c1.439,1.505,1.2,3.055,1.137,4.44h-8.51C326.387,697.546,326.146,696,327.583,694.493Zm.369,39.623-.105-2.458h5.709l-.105,2.458Zm5.416,1.94-.03.684a2.641,2.641,0,0,1-5.274,0l-.029-.686Zm-5.6-6.338-1.077-25.179h8.03l-1.078,25.179ZM326.6,702.6l-.073-1.725h8.344L334.8,702.6Zm1.363,37.689a4.574,4.574,0,0,0,5.471,0,30.916,30.916,0,0,0,2.748,7.687l-4.467,8.051v-4.721a2.848,2.848,0,1,0-2.036,0v4.719l-4.467-8.05A30.909,30.909,0,0,0,327.967,740.288Z" transform="translate(-323.037 -691.219)" fill="#545454"/>
      </g>
    </g>
  </g>
</svg>
