<svg xmlns="http://www.w3.org/2000/svg" width="105" height="105" viewBox="0 0 105 105">
  <g id="그룹_239" data-name="그룹 239" transform="translate(-720 -1436)">
    <path id="패스_318" data-name="패스 318" d="M52.5,0A52.5,52.5,0,1,1,0,52.5,52.5,52.5,0,0,1,52.5,0Z" transform="translate(720 1436)" fill="#fff"/>
    <g id="그룹_210" data-name="그룹 210" transform="translate(724.111 1455.755)">
      <g id="그룹_208" data-name="그룹 208" transform="translate(31.282 0)">
        <path id="패스_359" data-name="패스 359" d="M282.01,479.062a5.846,5.846,0,0,0-.993.091,1.389,1.389,0,0,0-.482-.091H233.829a4.348,4.348,0,0,0-4.343,4.343V501.68a1.391,1.391,0,0,0,2.783,0V483.4a1.562,1.562,0,0,1,1.56-1.56h43.209a5.808,5.808,0,0,0-.878,3.067v50.7a1.391,1.391,0,1,0,2.783,0V491.027h7.526a1.392,1.392,0,0,0,1.391-1.391v-4.723A5.858,5.858,0,0,0,282.01,479.062Zm3.067,9.182h-6.135v-3.332a3.067,3.067,0,0,1,6.135,0Z" transform="translate(-229.486 -479.062)" fill="#545454" stroke="#fff" stroke-width="0.6"/>
        <path id="패스_360" data-name="패스 360" d="M269.5,488.98h-29.35a1.281,1.281,0,1,0,0,2.563H269.5a1.281,1.281,0,1,0,0-2.563Z" transform="translate(-230.166 -479.78)" fill="#545454" stroke="#fff" stroke-width="0.6"/>
        <path id="패스_361" data-name="패스 361" d="M248.078,497.683h-7.929a1.282,1.282,0,0,0,0,2.564h7.929a1.282,1.282,0,0,0,0-2.564Z" transform="translate(-230.166 -480.411)" fill="#545454" stroke="#fff" stroke-width="0.6"/>
      </g>
      <g id="그룹_209" data-name="그룹 209" transform="translate(0 19.452)">
        <path id="패스_362" data-name="패스 362" d="M238.536,539.5a1.391,1.391,0,1,0,1.793-2.128l-2.753-2.325a1.391,1.391,0,1,0-1.793,2.128Z" transform="translate(-198.624 -502.546)" fill="#545454" stroke="#fff" stroke-width="0.6"/>
        <path id="패스_363" data-name="패스 363" d="M275.289,521.59l-17.631-20.433a3.124,3.124,0,0,0-4.4-.323l-4.032,3.479a3.118,3.118,0,0,0-.325,4.4l17.63,20.432a3.121,3.121,0,0,0,4.4.324l4.032-3.479a3.12,3.12,0,0,0,.325-4.4Zm-2.143,2.293-4.032,3.479a.335.335,0,0,1-.475-.034l-17.63-20.433a.33.33,0,0,1-.081-.244.334.334,0,0,1,.116-.231l4.033-3.479a.337.337,0,0,1,.475.035l17.63,20.432a.336.336,0,0,1-.036.475Z" transform="translate(-199.556 -500.036)" fill="#545454" stroke="#fff" stroke-width="0.6"/>
        <path id="패스_364" data-name="패스 364" d="M270.589,522.8a1.391,1.391,0,1,0-2.107,1.816l.919,1.067a1.391,1.391,0,0,0,2.107-1.816Z" transform="translate(-201.004 -501.647)" fill="#545454" stroke="#fff" stroke-width="0.6"/>
        <path id="패스_365" data-name="패스 365" d="M218.548,500.79a3.135,3.135,0,0,0-2.267-.75,3.1,3.1,0,0,0-2.133,1.074l-17.629,20.431a3.119,3.119,0,0,0,.324,4.4l4.033,3.48a3.122,3.122,0,0,0,4.4-.324L222.9,508.669a3.118,3.118,0,0,0-.323-4.4Zm2.249,6.06-17.63,20.433a.337.337,0,0,1-.475.035l-4.032-3.48a.337.337,0,0,1-.035-.475l17.629-20.431a.329.329,0,0,1,.231-.116h.026a.33.33,0,0,1,.219.082l4.032,3.48a.335.335,0,0,1,.035.473Z" transform="translate(-195.761 -500.033)" fill="#545454" stroke="#fff" stroke-width="0.6"/>
        <path id="패스_366" data-name="패스 366" d="M203.108,522.751l-.919,1.066a1.392,1.392,0,0,0,2.107,1.818l.919-1.066a1.392,1.392,0,0,0-2.107-1.818Z" transform="translate(-196.202 -501.644)" fill="#545454" stroke="#fff" stroke-width="0.6"/>
        <path id="패스_367" data-name="패스 367" d="M246.743,511.178a1.393,1.393,0,0,0-1.717-.961,35.992,35.992,0,0,1-6.249.711,14.918,14.918,0,0,0-4.987,1.5,12.364,12.364,0,0,0-1.668,1.107l-4.4-3.692a1.391,1.391,0,1,0-1.788,2.131l4,3.356c-1.521,1.322-2.886,2.628-3.22,2.951a4.415,4.415,0,0,0-1.527,3.214,5.144,5.144,0,0,0,4.392,5.235,4.8,4.8,0,0,0,.638.043,4.367,4.367,0,0,0,2.84-1.029l4.709-4.01a4.858,4.858,0,0,1,3.747-1.289c.026,0,.062.013.08,0a1.391,1.391,0,0,0,0-2.783,7.863,7.863,0,0,0-5.563,1.9l-4.771,4.06a1.651,1.651,0,0,1-1.311.352,2.361,2.361,0,0,1-1.983-2.362,1.664,1.664,0,0,1,.575-1.231l.073-.066c1.285-1.243,4.948-4.639,6.448-5.411a12.415,12.415,0,0,1,3.886-1.2,38.762,38.762,0,0,0,6.834-.81A1.392,1.392,0,0,0,246.743,511.178Z" transform="translate(-197.892 -500.72)" fill="#545454" stroke="#fff" stroke-width="0.6"/>
        <path id="패스_368" data-name="패스 368" d="M262.549,531.732a1.39,1.39,0,0,0-1.96-.171l-5.111,4.288a4.377,4.377,0,0,0-1.38-2.1l-16.209-13.6a8.247,8.247,0,0,0-2.149,1.246l-.345.294,16.915,14.193a1.628,1.628,0,0,1-.9,2.868,1.594,1.594,0,0,1-1.146-.345l-10.727-9.039a1.391,1.391,0,1,0-1.793,2.128l10.655,8.978c.013.011.021.025.034.035s.031.019.045.031l1.788,1.506a1.632,1.632,0,1,1-2.092,2.494,1.363,1.363,0,0,0-.255-.168c-.086-.085-.16-.181-.254-.26l-5.751-4.846a1.391,1.391,0,1,0-1.793,2.128l5.753,4.848a1.627,1.627,0,1,1-2.09,2.493l-5.134-4.321-7.2-6.073a1.392,1.392,0,1,0-1.794,2.128L236.8,546.5l0,0,.269.226,3.058,2.58a1.6,1.6,0,0,1,.156,2.255,1.643,1.643,0,0,1-1.1.587,1.5,1.5,0,0,1-1.142-.349l-27.034-22.683a1.391,1.391,0,1,0-1.789,2.131l7.313,6.136a4.306,4.306,0,0,0-.592,1.808,4.348,4.348,0,0,0,2.65,4.415,4.415,4.415,0,0,0,.493,4.9,4.358,4.358,0,0,0,3.3,1.546,4.392,4.392,0,0,0,6.6,3.694,4.524,4.524,0,0,0,.838,1.512,4.455,4.455,0,0,0,2.938,1.579,4.6,4.6,0,0,0,.476.026,4.181,4.181,0,0,0,2.7-.983l1.494-1.253a4.285,4.285,0,0,0,1.59.313,4.225,4.225,0,0,0,.431-.021,4.4,4.4,0,0,0,3.848-3.3,4.38,4.38,0,0,0,5.91-3.879c.043,0,.085.011.129.011a4.319,4.319,0,0,0,3.854-6.352l9.184-7.706A1.391,1.391,0,0,0,262.549,531.732Zm-43.463,8.886a1.613,1.613,0,0,1-.374-1.187,1.635,1.635,0,0,1,.035-.19l2.188,1.836a1.545,1.545,0,0,1-.745.117A1.616,1.616,0,0,1,219.086,540.618Zm4.686,6.106a1.359,1.359,0,0,0-.2.134,1.63,1.63,0,1,1-2.09-2.5l1.642-1.383c.012-.01.027-.018.04-.028h0l2.529,2.121-1.759,1.482C223.875,546.605,223.83,546.669,223.772,546.724Zm4.047,4.453a1.627,1.627,0,1,1-2.09-2.494l2.132-1.8,2.533,2.126Zm5.239,2.89a1.721,1.721,0,0,1-1.506-1.795,1.44,1.44,0,0,1,.508-1.021l.5-.421,2.533,2.125-.943.791A1.427,1.427,0,0,1,233.057,554.068Z" transform="translate(-196.7 -501.49)" fill="#545454" stroke="#fff" stroke-width="0.6"/>
      </g>
    </g>
  </g>
</svg>
