<svg xmlns="http://www.w3.org/2000/svg" width="105" height="105" viewBox="0 0 105 105">
  <g id="그룹_183" data-name="그룹 183" transform="translate(-1077 -1228)">
    <g id="그룹_178" data-name="그룹 178" transform="translate(0 212)">
      <path id="패스_279" data-name="패스 279" d="M52.5,0A52.5,52.5,0,1,1,0,52.5,52.5,52.5,0,0,1,52.5,0Z" transform="translate(1077 1016)" fill="#fff"/>
    </g>
    <g id="그룹_174" data-name="그룹 174" transform="translate(1099 1244)">
      <path id="패스_304" data-name="패스 304" d="M1970.706,769.672a1.928,1.928,0,0,1-1.925,1.926h-51.814a1.928,1.928,0,0,1-1.926-1.926v-53.74h8.022a4.174,4.174,0,0,0,4.169-4.17V703.74h41.549a1.928,1.928,0,0,1,1.925,1.926v35.05h2.245v-35.05a4.175,4.175,0,0,0-4.17-4.171H1926.11a1.119,1.119,0,0,0-.794.329l-12.192,12.192a1.121,1.121,0,0,0-.329.794v54.863a4.175,4.175,0,0,0,4.171,4.17h51.814a4.174,4.174,0,0,0,4.17-4.17V755.956h-2.245Zm-47.644-55.985h-6.435l8.36-8.361v6.435A1.928,1.928,0,0,1,1923.062,713.687Z" transform="translate(-1912.796 -701.495)" fill="#545454"/>
      <path id="패스_305" data-name="패스 305" d="M1984.7,714.084a4.174,4.174,0,0,0-4.17-4.17h-3.048v2.245h3.048a1.928,1.928,0,0,1,1.926,1.925v3.048h2.244Z" transform="translate(-1930.643 -703.818)" fill="#545454"/>
      <rect id="사각형_76" data-name="사각형 76" width="3.048" height="2.244" transform="translate(40.746 6.096)" fill="#545454"/>
      <path id="패스_306" data-name="패스 306" d="M1987.941,754.619H1968.3a4.163,4.163,0,0,0-3.22-1.524h-1.926v-5.376h2a2.573,2.573,0,0,0,2.571-2.57v-3.2a2.574,2.574,0,0,0-2.571-2.571h-24.534a2.574,2.574,0,0,0-2.571,2.571v3.2a2.573,2.573,0,0,0,2.571,2.57h2v22.14h-2a2.574,2.574,0,0,0-2.571,2.571v3.2a2.574,2.574,0,0,0,2.571,2.571h24.534a2.574,2.574,0,0,0,2.571-2.571v-3.2a2.573,2.573,0,0,0-2.571-2.571h-2v-5.375h1.926a4.164,4.164,0,0,0,3.221-1.525h19.639a1.121,1.121,0,0,0,1.122-1.122v-6.1A1.122,1.122,0,0,0,1987.941,754.619Zm-47.645-9.47v-3.2a.327.327,0,0,1,.327-.326h24.534a.327.327,0,0,1,.327.326v3.2a.327.327,0,0,1-.327.326h-24.534A.327.327,0,0,1,1940.3,745.149Zm25.188,27.28v3.2a.327.327,0,0,1-.327.327h-24.534a.327.327,0,0,1-.327-.327v-3.2a.327.327,0,0,1,.327-.327h24.534A.327.327,0,0,1,1965.483,772.429Zm-20.615-2.571v-22.14h16.043v22.14Zm22.139-9.546a1.928,1.928,0,0,1-1.925,1.926h-1.926v-6.9h1.926a1.928,1.928,0,0,1,1.925,1.925Zm19.812.4h-17.587c.012-.133.02-.266.02-.4v-3.048c0-.135-.008-.269-.02-.4h17.587Z" transform="translate(-1919.764 -711.947)" fill="#545454"/>
      <rect id="사각형_77" data-name="사각형 77" width="44.195" height="2.244" transform="translate(8.742 19.812)" fill="#545454"/>
      <rect id="사각형_78" data-name="사각형 78" width="6.096" height="2.244" transform="translate(8.742 27.432)" fill="#545454"/>
      <rect id="사각형_79" data-name="사각형 79" width="6.096" height="2.244" transform="translate(8.742 35.051)" fill="#545454"/>
      <rect id="사각형_80" data-name="사각형 80" width="10.668" height="2.244" transform="translate(8.742 42.671)" fill="#545454"/>
      <rect id="사각형_81" data-name="사각형 81" width="10.668" height="2.244" transform="translate(8.742 50.291)" fill="#545454"/>
      <rect id="사각형_82" data-name="사각형 82" width="6.096" height="2.244" transform="translate(8.742 57.911)" fill="#545454"/>
    </g>
  </g>
</svg>
