<svg xmlns="http://www.w3.org/2000/svg" width="105" height="105" viewBox="0 0 105 105">
  <g id="그룹_235" data-name="그룹 235" transform="translate(-874 -1436)">
    <path id="패스_319" data-name="패스 319" d="M52.5,0A52.5,52.5,0,1,1,0,52.5,52.5,52.5,0,0,1,52.5,0Z" transform="translate(874 1436)" fill="#fff"/>
    <g id="그룹_207" data-name="그룹 207" transform="translate(888.214 1452.557)">
      <g id="그룹_203" data-name="그룹 203" transform="translate(41.606 2.129)">
        <path id="패스_347" data-name="패스 347" d="M258.939,602.745a6.184,6.184,0,1,1,6.183-6.184A6.191,6.191,0,0,1,258.939,602.745Zm0-9.584a3.4,3.4,0,1,0,3.4,3.4A3.405,3.405,0,0,0,258.939,593.161Z" transform="translate(-252.755 -590.378)" fill="#545454" stroke="#fff" stroke-width="0.6"/>
      </g>
      <g id="그룹_204" data-name="그룹 204" transform="translate(58.565 6.767)">
        <path id="패스_348" data-name="패스 348" d="M277.222,607.745a6.184,6.184,0,1,1,6.184-6.184A6.19,6.19,0,0,1,277.222,607.745Zm0-9.584a3.4,3.4,0,1,0,3.4,3.4A3.4,3.4,0,0,0,277.222,598.161Z" transform="translate(-271.039 -595.378)" fill="#545454" stroke="#fff" stroke-width="0.6"/>
      </g>
      <g id="그룹_205" data-name="그룹 205" transform="translate(46.423 20.656)">
        <line id="선_3" data-name="선 3" y2="1.356" transform="translate(1.391 1.391)" fill="#fff" stroke="#fff" stroke-width="0.6"/>
        <path id="패스_349" data-name="패스 349" d="M259.34,614.49a1.391,1.391,0,0,1-1.391-1.391v-1.355a1.391,1.391,0,1,1,2.783,0V613.1A1.392,1.392,0,0,1,259.34,614.49Z" transform="translate(-257.949 -610.352)" fill="#545454" stroke="#fff" stroke-width="0.6"/>
      </g>
      <g id="그룹_206" data-name="그룹 206" transform="translate(63.382 25.517)">
        <line id="선_4" data-name="선 4" y2="1.356" transform="translate(1.391 1.391)" fill="#fff" stroke="#fff" stroke-width="0.6"/>
        <path id="패스_350" data-name="패스 350" d="M277.623,619.731a1.391,1.391,0,0,1-1.391-1.391v-1.355a1.391,1.391,0,0,1,2.783,0v1.355A1.391,1.391,0,0,1,277.623,619.731Z" transform="translate(-276.232 -615.593)" fill="#545454" stroke="#fff" stroke-width="0.6"/>
      </g>
      <path id="패스_351" data-name="패스 351" d="M283.9,611.148h-14.45a5.989,5.989,0,0,0-5.983,5.983v16.28a3.938,3.938,0,0,0,3.934,3.933,3.884,3.884,0,0,0,1.133-.186v17.966a4.748,4.748,0,0,0,8.14,3.327,4.748,4.748,0,0,0,8.14-3.327V637.158a3.9,3.9,0,0,0,1.134.186,3.937,3.937,0,0,0,3.933-3.933v-16.28A5.989,5.989,0,0,0,283.9,611.148Zm-8.642,43.975a1.971,1.971,0,1,1-3.941,0V634.748h3.941Zm6.774,0a1.971,1.971,0,1,1-3.941,0V634.748h3.941Zm5.067-21.712a1.151,1.151,0,0,1-2.3,0V617.805a1.391,1.391,0,0,0-2.783,0v14.16H271.334v-14.16a1.391,1.391,0,0,0-2.783,0v15.606a1.151,1.151,0,0,1-2.3,0V617.805h0v-.673a3.2,3.2,0,0,1,3.2-3.2H283.9a3.2,3.2,0,0,1,3.2,3.2v.673h0Z" transform="translate(-211.925 -589.754)" fill="#545454" stroke="#fff" stroke-width="0.6"/>
      <path id="패스_352" data-name="패스 352" d="M263.723,634.818v14.9a1.971,1.971,0,1,1-3.941,0V629.312h3.726v-2.783H252.7V612.367a1.391,1.391,0,1,0-2.783,0v15.606a1.151,1.151,0,1,1-2.3,0v-16.28a3.2,3.2,0,0,1,3.2-3.2h14.45a3.2,3.2,0,0,1,3.2,3.2v.452h2.783v-.452a5.99,5.99,0,0,0-5.983-5.983h-14.45a5.99,5.99,0,0,0-5.983,5.983v16.28a3.919,3.919,0,0,0,5.392,3.647v18.1a4.747,4.747,0,0,0,8.14,3.326,4.747,4.747,0,0,0,8.14-3.326v-14.9Zm-6.774,14.9a1.971,1.971,0,1,1-3.941,0V629.312h3.941Z" transform="translate(-210.576 -589.36)" fill="#545454" stroke="#fff" stroke-width="0.6"/>
      <path id="패스_353" data-name="패스 353" d="M246.741,588.083H220.328a1.432,1.432,0,0,0-.275.028,1.346,1.346,0,0,0-.173.053c-.029.01-.058.016-.086.027a1.328,1.328,0,0,0-.182.1c-.019.011-.039.019-.058.031a1.412,1.412,0,0,0-.211.173l-11.036,11.036a1.411,1.411,0,0,0-.173.211c-.01.016-.017.034-.027.051a1.359,1.359,0,0,0-.1.188c-.01.025-.015.053-.024.078a1.367,1.367,0,0,0-.055.182,1.353,1.353,0,0,0-.028.275v49.669a4.156,4.156,0,0,0,4.151,4.151h30.293a1.391,1.391,0,1,0,0-2.783H212.051a1.37,1.37,0,0,1-1.368-1.368V601.9h6.887a4.155,4.155,0,0,0,4.15-4.151v-6.887h25.021a1.391,1.391,0,1,0,0-2.783Zm-27.8,9.67a1.369,1.369,0,0,1-1.367,1.368h-4.92l6.287-6.287Z" transform="translate(-207.9 -588.083)" fill="#545454" stroke="#fff" stroke-width="0.6"/>
      <path id="패스_354" data-name="패스 354" d="M238.015,608.17a1.391,1.391,0,0,0,0-2.783H227.14a1.391,1.391,0,0,0,0,2.783Z" transform="translate(-209.193 -589.336)" fill="#545454" stroke="#fff" stroke-width="0.6"/>
      <path id="패스_355" data-name="패스 355" d="M216.85,616.8a1.391,1.391,0,0,0,1.391,1.391H237.37a1.391,1.391,0,1,0,0-2.783H218.241A1.391,1.391,0,0,0,216.85,616.8Z" transform="translate(-208.548 -590.062)" fill="#545454" stroke="#fff" stroke-width="0.6"/>
      <path id="패스_356" data-name="패스 356" d="M218.241,628.21h19.171a1.391,1.391,0,1,0,0-2.783H218.241a1.391,1.391,0,1,0,0,2.783Z" transform="translate(-208.548 -590.788)" fill="#545454" stroke="#fff" stroke-width="0.6"/>
      <path id="패스_357" data-name="패스 357" d="M218.241,638.23H237.37a1.391,1.391,0,1,0,0-2.783H218.241a1.391,1.391,0,1,0,0,2.783Z" transform="translate(-208.548 -591.514)" fill="#545454" stroke="#fff" stroke-width="0.6"/>
      <path id="패스_358" data-name="패스 358" d="M242.065,645.467H218.241a1.391,1.391,0,1,0,0,2.783h23.823a1.391,1.391,0,1,0,0-2.783Z" transform="translate(-208.548 -592.24)" fill="#545454" stroke="#fff" stroke-width="0.6"/>
    </g>
  </g>
</svg>
