<svg xmlns="http://www.w3.org/2000/svg" width="105" height="105" viewBox="0 0 105 105">
  <g id="그룹_246" data-name="그룹 246" transform="translate(-566 -1550)">
    <path id="패스_321" data-name="패스 321" d="M52.5,0A52.5,52.5,0,1,1,0,52.5,52.5,52.5,0,0,1,52.5,0Z" transform="translate(566 1550)" fill="#fff"/>
    <g id="그룹_221" data-name="그룹 221" transform="translate(586.682 1561.447)">
      <g id="그룹_245" data-name="그룹 245" transform="translate(1.799 2.16)">
        <g id="그룹_214" data-name="그룹 214" transform="translate(0)">
          <path id="패스_385" data-name="패스 385" d="M675.687,133.4h-16.1a4.4,4.4,0,0,0-3.425-1.654h-.61V129.8a3.169,3.169,0,0,0-3.166-3.165H641.815a3.169,3.169,0,0,0-3.165,3.165v1.941h-.857a4.4,4.4,0,0,0-3.425,1.654H617.545a1.314,1.314,0,0,0-1.314,1.314v63.6a1.314,1.314,0,0,0,1.314,1.314h58.142A1.314,1.314,0,0,0,677,198.308v-63.6A1.314,1.314,0,0,0,675.687,133.4Zm-34.41-3.6a.538.538,0,0,1,.538-.538H652.39a.539.539,0,0,1,.539.538v3.572a.539.539,0,0,1-.539.538H641.815a.538.538,0,0,1-.538-.538Zm-3.484,4.569h1.034a3.158,3.158,0,0,0,2.988,2.168H652.39a3.158,3.158,0,0,0,2.989-2.168h.787a1.807,1.807,0,0,1,1.8,1.8v4.764H635.988v-4.764A1.807,1.807,0,0,1,637.793,134.37Zm36.58,62.623H618.858V136.025h14.518c0,.051-.015.1-.015.151v5.2a2.195,2.195,0,0,0,2.192,2.192h22.854a2.195,2.195,0,0,0,2.192-2.192v-5.2c0-.052-.013-.1-.015-.151h13.79Z" transform="translate(-616.231 -126.637)" fill="#545454" stroke="#fff" stroke-width="0.5"/>
          <path id="패스_386" data-name="패스 386" d="M650.251,160.226a4.773,4.773,0,1,0-4.773-4.774A4.779,4.779,0,0,0,650.251,160.226Zm0-6.919a2.146,2.146,0,1,1-2.145,2.146A2.148,2.148,0,0,1,650.251,153.307Z" transform="translate(-619.866 -129.625)" fill="#545454" stroke="#fff" stroke-width="0.5"/>
          <path id="패스_387" data-name="패스 387" d="M649.63,162.67c-5.384,0-9.144,3.34-9.144,8.121v2.415a1.314,1.314,0,0,0,1.314,1.314h15.661a1.314,1.314,0,0,0,1.314-1.314v-2.415C658.774,166.01,655.014,162.67,649.63,162.67Zm6.517,9.223H643.113v-1.1c0-3.8,3.273-5.494,6.517-5.494s6.517,1.7,6.517,5.494Z" transform="translate(-619.245 -131.115)" fill="#545454" stroke="#fff" stroke-width="0.5"/>
        </g>
        <g id="그룹_217" data-name="그룹 217" transform="translate(8.951 51.552)">
          <g id="그룹_215" data-name="그룹 215">
            <path id="패스_388" data-name="패스 388" d="M655.113,188.132H627.766a1.314,1.314,0,1,1,0-2.627h27.348a1.314,1.314,0,1,1,0,2.627Z" transform="translate(-626.452 -185.505)" fill="#545454" stroke="#fff" stroke-width="0.5"/>
          </g>
          <g id="그룹_216" data-name="그룹 216" transform="translate(32.378)">
            <path id="패스_389" data-name="패스 389" d="M672.6,188.132h-7.863a1.314,1.314,0,1,1,0-2.627H672.6a1.314,1.314,0,1,1,0,2.627Z" transform="translate(-663.425 -185.505)" fill="#545454" stroke="#fff" stroke-width="0.5"/>
          </g>
        </g>
        <g id="그룹_220" data-name="그룹 220" transform="translate(8.951 59.845)">
          <g id="그룹_218" data-name="그룹 218">
            <path id="패스_390" data-name="패스 390" d="M648.108,197.6H627.766a1.314,1.314,0,1,1,0-2.627h20.342a1.314,1.314,0,1,1,0,2.627Z" transform="translate(-626.452 -194.975)" fill="#545454" stroke="#fff" stroke-width="0.5"/>
          </g>
          <g id="그룹_219" data-name="그룹 219" transform="translate(25.372)">
            <path id="패스_391" data-name="패스 391" d="M671.607,197.6H656.739a1.314,1.314,0,0,1,0-2.627h14.869a1.314,1.314,0,1,1,0,2.627Z" transform="translate(-655.425 -194.975)" fill="#545454" stroke="#fff" stroke-width="0.5"/>
          </g>
        </g>
      </g>
    </g>
  </g>
</svg>
