<svg xmlns="http://www.w3.org/2000/svg" width="48.39" height="79.779" viewBox="0 0 48.39 79.779">
  <g id="그룹_1724" data-name="그룹 1724" transform="translate(-881.823 -227.112)">
    <path id="패스_1144" data-name="패스 1144" d="M914.887,266.578l-4.649,3.939-3.379,4.337-3.453-4.674-3.18-.981-3.15-1.743-1.632.464,8.627,10.918.63.181-1.026,2.45-.567,4.629v22.591h4.851v-22.4a13.4,13.4,0,0,1,3.1-8.572l8.152-9.8Z" transform="translate(-0.766 -2.297)" fill="#aae0ec"/>
    <path id="패스_1145" data-name="패스 1145" d="M882.618,308.741v-26.73a14.526,14.526,0,0,1,14.526-14.525h17.563a14.526,14.526,0,0,1,14.525,14.525v26.73" transform="translate(-0.006 -2.35)" fill="none" stroke="#383838" stroke-linecap="round" stroke-linejoin="round" stroke-width="1"/>
    <path id="패스_1146" data-name="패스 1146" d="M899.812,281.377" transform="translate(-1.024 -3.173)" fill="none" stroke="#383838" stroke-linecap="round" stroke-linejoin="round" stroke-width="1"/>
    <path id="패스_1147" data-name="패스 1147" d="M915.128,281.352" transform="translate(-1.932 -3.172)" fill="none" stroke="#383838" stroke-linecap="round" stroke-linejoin="round" stroke-width="1"/>
    <path id="패스_1148" data-name="패스 1148" d="M907.535,311.339" transform="translate(-1.482 -4.948)" fill="none" stroke="#383838" stroke-linecap="round" stroke-linejoin="round" stroke-width="1"/>
    <path id="패스_1149" data-name="패스 1149" d="M907.535,275.174" transform="translate(-1.482 -2.806)" fill="none" stroke="#383838" stroke-linecap="round" stroke-linejoin="round" stroke-width="1"/>
    <path id="패스_1150" data-name="패스 1150" d="M901.141,267.486l6.015,7.232,5.963-7.232" transform="translate(-1.103 -2.35)" fill="none" stroke="#383838" stroke-linecap="round" stroke-linejoin="round" stroke-width="1"/>
    <line id="선_141" data-name="선 141" y1="18.745" transform="translate(921.427 287.646)" fill="none" stroke="#383838" stroke-linecap="round" stroke-linejoin="round" stroke-width="1"/>
    <path id="패스_1151" data-name="패스 1151" d="M920,268l-8.153,9.8a13.4,13.4,0,0,0-3.1,8.572v22.4" transform="translate(-1.554 -2.381)" fill="none" stroke="#383838" stroke-linecap="round" stroke-linejoin="round" stroke-width="1"/>
    <path id="패스_1152" data-name="패스 1152" d="M906.951,304.221a1,1,0,1,1-1-1.006A1,1,0,0,1,906.951,304.221Z" transform="translate(-1.328 -4.467)" fill="#fff" stroke="#383838" stroke-linecap="round" stroke-linejoin="round" stroke-width="1"/>
    <path id="패스_1153" data-name="패스 1153" d="M906.951,294.844a1,1,0,1,1-1-1A1,1,0,0,1,906.951,294.844Z" transform="translate(-1.328 -3.912)" fill="#fff" stroke="#383838" stroke-linecap="round" stroke-linejoin="round" stroke-width="1"/>
    <path id="패스_1154" data-name="패스 1154" d="M906.951,285.468a1,1,0,1,1-1-1.006A1,1,0,0,1,906.951,285.468Z" transform="translate(-1.328 -3.356)" fill="#fff" stroke="#383838" stroke-linecap="round" stroke-linejoin="round" stroke-width="1"/>
    <g id="그룹_1723" data-name="그룹 1723" transform="translate(882.517 227.807)">
      <circle id="타원_41" data-name="타원 41" cx="16.914" cy="16.914" r="16.914" transform="translate(0 27.959) rotate(-55.743)" stroke-width="1" stroke="#383838" stroke-linecap="round" stroke-linejoin="round" fill="#ffcd73"/>
      <g id="그룹_1721" data-name="그룹 1721" transform="translate(34.502 17.69)">
        <line id="선_142" data-name="선 142" y1="3.336" x2="5.22" fill="none" stroke="#383838" stroke-linejoin="round" stroke-width="1"/>
      </g>
      <g id="그룹_1722" data-name="그룹 1722" transform="translate(7.281 17.69)">
        <line id="선_143" data-name="선 143" x1="5.05" y1="3.227" fill="none" stroke="#383838" stroke-linejoin="round" stroke-width="1"/>
      </g>
      <line id="선_144" data-name="선 144" x1="1.485" y2="1.335" transform="translate(12.882 35.139)" fill="none" stroke="#383838" stroke-linecap="round" stroke-linejoin="round" stroke-width="1"/>
      <line id="선_145" data-name="선 145" x2="1.485" y2="1.335" transform="translate(32.435 35.139)" fill="none" stroke="#383838" stroke-linecap="round" stroke-linejoin="round" stroke-width="1"/>
      <path id="패스_1155" data-name="패스 1155" d="M916.052,264.53H897.279L896.593,263a20.722,20.722,0,0,1-1.515-10.72l.268-2.123h22.639l.268,2.123A20.721,20.721,0,0,1,916.739,263Z" transform="translate(-883.252 -229.131)" fill="#fff" stroke="#383838" stroke-linecap="round" stroke-linejoin="round" stroke-width="1"/>
      <line id="선_146" data-name="선 146" x2="23.175" transform="translate(11.826 23.541)" stroke-dasharray="0.5 2.5" stroke="#383838" stroke-linecap="round" stroke-linejoin="round" stroke-width="1" fill="none"/>
      <line id="선_147" data-name="선 147" x2="20.576" transform="translate(13.257 33.041)" stroke-dasharray="0.5 2.5" stroke="#383838" stroke-linecap="round" stroke-linejoin="round" stroke-width="1" fill="none"/>
    </g>
    <path id="패스_1156" data-name="패스 1156" d="M903.59,309.013V286.422a19.27,19.27,0,0,1,4.375-12.228l1.74-2.121" transform="translate(-1.248 -2.622)" fill="none" stroke="#383838" stroke-linecap="round" stroke-linejoin="round" stroke-width="1"/>
    <line id="선_148" data-name="선 148" x2="9.219" y2="11.295" transform="translate(894.393 265.622)" fill="none" stroke="#383838" stroke-linecap="round" stroke-linejoin="round" stroke-width="1"/>
    <line id="선_149" data-name="선 149" y1="18.745" transform="translate(890.321 287.646)" fill="none" stroke="#383838" stroke-linecap="round" stroke-linejoin="round" stroke-width="1"/>
  </g>
</svg>
