<svg xmlns="http://www.w3.org/2000/svg" width="105" height="105" viewBox="0 0 105 105">
  <g id="그룹_242" data-name="그룹 242" transform="translate(-258 -1436)">
    <path id="패스_314" data-name="패스 314" d="M52.5,0A52.5,52.5,0,1,1,0,52.5,52.5,52.5,0,0,1,52.5,0Z" transform="translate(258 1436)" fill="#fff"/>
    <path id="패스_327" data-name="패스 327" d="M223.425,94.732a1.389,1.389,0,0,0,1.967,0l3.4-3.4a2.416,2.416,0,0,0,.082-3.343l4.915-4.914a16.075,16.075,0,0,1,4.741-3.208c.433-.213.834-.415,1.182-.607a18.59,18.59,0,0,0,8.986,4.383,20.873,20.873,0,0,0,2.208.415,12.675,12.675,0,0,1,7.768,3.5l2.067,2.01a2.417,2.417,0,0,0,.079,3.345h0l3.4,3.4a1.393,1.393,0,0,0,1.968,0l20.685-20.686a1.392,1.392,0,0,0,0-1.968l-3.4-3.4a2.433,2.433,0,0,0-3.343-.081l-4.915-4.914a16.084,16.084,0,0,1-3.206-4.737c-.214-.435-.416-.836-.607-1.183a18.582,18.582,0,0,0,4.38-8.99,20.892,20.892,0,0,0,.416-2.209,12.667,12.667,0,0,1,3.5-7.766l2.009-2.068a2.421,2.421,0,0,0,3.346-.079l3.4-3.4a1.393,1.393,0,0,0,0-1.969L267.77,12.168a1.392,1.392,0,0,0-1.967,0l-3.4,3.4a2.417,2.417,0,0,0-.081,3.343L257.4,23.828a16.075,16.075,0,0,1-4.738,3.207c-.436.214-.838.416-1.185.608a18.582,18.582,0,0,0-8.986-4.383,20.892,20.892,0,0,0-2.209-.416,12.666,12.666,0,0,1-7.767-3.5l-2.067-2.009a2.417,2.417,0,0,0-.08-3.346l-3.4-3.4a1.388,1.388,0,0,0-.984-.407h0a1.392,1.392,0,0,0-.984.407L204.316,31.277a1.392,1.392,0,0,0,0,1.968l3.4,3.4a2.42,2.42,0,0,0,3.343.081l4.915,4.915a16.077,16.077,0,0,1,3.207,4.739c.213.434.415.834.606,1.181a18.574,18.574,0,0,0-4.38,8.99,21.159,21.159,0,0,0-.416,2.209,12.666,12.666,0,0,1-3.5,7.767l-2.01,2.068a2.431,2.431,0,0,0-3.345.079l-3.4,3.4a1.393,1.393,0,0,0,0,1.968Zm60.5-20.094L265.209,93.357l-2.172-2.171,3.911-3.911,14.16-14.159.008-.01.638-.638Zm-10.676-7.413,4.9,4.9L265.177,85.111,262.7,87.585l-2.115-2.055a15.427,15.427,0,0,0-9.263-4.227,18.27,18.27,0,0,1-1.962-.366c-.037-.009-.074-.018-.112-.025a15.824,15.824,0,0,1-7.061-3.195c.146-.11.284-.23.425-.344s.256-.2.379-.307c.294-.253.58-.516.854-.789l6.018-6.018c.109-.093.223-.2.373-.345a.345.345,0,0,0,.025-.027h0l8.473-8.473a5.2,5.2,0,0,0,.214.565c.07.154.152.3.237.45.017.031.03.062.047.091.086.142.184.277.283.411.024.032.045.068.07.1a5.03,5.03,0,0,0,.418.472,5.168,5.168,0,0,0,7.293,0l2.063-2.063.153.309A18.7,18.7,0,0,0,273.251,67.225Zm-6.465-52.106,18.719,18.719-2.172,2.172-.659-.659,0-.006L268.519,21.2l-3.9-3.905ZM253.9,29.531a18.71,18.71,0,0,0,5.476-3.734l4.906-4.906,4.973,4.972,10.482,10.483-2.055,2.114a15.423,15.423,0,0,0-4.227,9.262,18.462,18.462,0,0,1-.367,1.963c-.009.037-.018.075-.025.113a15.829,15.829,0,0,1-4.4,8.414l-.011.011-3.314,3.313a2.442,2.442,0,0,1-3.358,0,2.415,2.415,0,0,1-.3-.365,2.3,2.3,0,0,1-.147-.276c-.021-.044-.05-.084-.069-.129a2.411,2.411,0,0,1,0-1.814c.025-.061.062-.117.093-.176a2.164,2.164,0,0,1,.122-.229,2.383,2.383,0,0,1,.3-.367h0l2.529-2.529a1.391,1.391,0,0,0-1.967-1.968l-2.594,2.593v0L248.3,67.919c-.026.026-.05.053-.073.08l0,0,0,0h0a2.4,2.4,0,0,1-.206.173,1.957,1.957,0,0,1-.981.4h-.012a2.019,2.019,0,0,1-.309,0,1.625,1.625,0,0,1-.179-.022,1.94,1.94,0,0,1-.208-.035c-.046-.012-.09-.031-.135-.045a1.96,1.96,0,0,1-.224-.083c-.045-.021-.087-.051-.131-.076a1.975,1.975,0,0,1-.195-.118,2.092,2.092,0,0,1-.292-.261,1.981,1.981,0,0,1-.2-2.43,1.936,1.936,0,0,1,.257-.315l7.741-7.742a1.391,1.391,0,0,0-1.967-1.968l-7.742,7.742h0a1.989,1.989,0,0,1-2.813-2.813h0l7.741-7.741A1.392,1.392,0,1,0,246.4,50.7l-7.741,7.741h0a1.989,1.989,0,0,1-2.814-2.811v0l7.742-7.74a1.392,1.392,0,1,0-1.968-1.968l-7.741,7.74,0,0a2.04,2.04,0,0,1-2.16.421,1.887,1.887,0,0,1-.651-.423,1.987,1.987,0,0,1,0-2.812l18.251-18.252a13.1,13.1,0,0,1,1.145-1c.07-.055.138-.111.209-.165a13.186,13.186,0,0,1,1.245-.836c.245-.146.492-.288.749-.42C253.043,29.951,253.457,29.748,253.9,29.531Zm-46.628,2.73,18.718-18.719,2.172,2.172-.661.661h0L210.086,33.785v0l-.646.647Zm10.676,7.414-4.9-4.906,15.455-15.455,2.114,2.056a15.424,15.424,0,0,0,9.261,4.226,18.485,18.485,0,0,1,1.964.367c.037.009.075.018.113.025A15.825,15.825,0,0,1,249,29.183c-.142.108-.276.224-.415.336s-.263.206-.39.315c-.294.253-.581.516-.854.789L232.464,45.507c-.034-.109-.081-.215-.122-.323-.02-.05-.035-.1-.057-.149a5.128,5.128,0,0,0-.406-.769c-.033-.052-.07-.1-.1-.152a5.15,5.15,0,0,0-7.881-.718l-2.063,2.063c-.05-.1-.1-.2-.152-.307A18.731,18.731,0,0,0,217.944,39.675ZM213.518,68.44a15.43,15.43,0,0,0,4.226-9.263,18.539,18.539,0,0,1,.367-1.962c.009-.037.018-.075.025-.113a15.82,15.82,0,0,1,4.4-8.418l3.321-3.321a2.442,2.442,0,0,1,3.358,0,2.028,2.028,0,0,1,.449.647c.02.042.047.081.065.123a2.413,2.413,0,0,1,0,1.815c-.019.046-.048.088-.07.133a2.416,2.416,0,0,1-.146.274,2.373,2.373,0,0,1-.3.363l-2.532,2.532a1.391,1.391,0,0,0,.984,2.375,1.369,1.369,0,0,0,.234-.045,4.722,4.722,0,0,0,1.187,2.042h0a4.736,4.736,0,0,0,1.512,1.018c.012.006.022.014.034.019a6.014,6.014,0,0,0,1.827.361h.011a4.761,4.761,0,0,0,4.77,4.778h.008v.011a4.769,4.769,0,0,0,4.772,4.77h.007a4.69,4.69,0,0,0,1.893,3.8c.052.04.1.081.154.118a4.835,4.835,0,0,0,.655.381c.08.038.16.072.241.107.051.021.1.048.153.068l-3.254,3.254a12.836,12.836,0,0,1-1.138,1c-.072.058-.145.117-.219.173a13.234,13.234,0,0,1-1.238.832c-.245.146-.493.288-.751.421-.38.216-.793.418-1.232.634a18.692,18.692,0,0,0-5.479,3.736l-4.906,4.906L211.462,70.554Zm-5.657,2.449.662.662h0l17.408,17.409,0,0,.645.645-2.172,2.172L205.69,73.061Z" transform="translate(64.669 1434.795)" fill="#545454" stroke="#fff" stroke-width="0.6"/>
  </g>
</svg>
