<svg xmlns="http://www.w3.org/2000/svg" width="105" height="105" viewBox="0 0 105 105">
  <g id="그룹_149" data-name="그룹 149" transform="translate(-804 -1016)">
    <g id="그룹_147" data-name="그룹 147" transform="translate(0 225)">
      <path id="패스_265" data-name="패스 265" d="M52.5,0A52.5,52.5,0,1,1,0,52.5,52.5,52.5,0,0,1,52.5,0Z" transform="translate(804 791)" fill="#fff"/>
    </g>
    <g id="그룹_148" data-name="그룹 148" transform="translate(-294.755 331.249)">
      <path id="패스_283" data-name="패스 283" d="M1198.9,774.574a2.728,2.728,0,0,0-2.4-.516,4.391,4.391,0,0,0-.893-2.491,4,4,0,0,0-3.256-1.445,17.757,17.757,0,0,0-5.452,1.549,60.431,60.431,0,0,1-8.41,2.7,5.125,5.125,0,0,0-3.462-1.306c-9.616.114-11.231-.847-13.107-1.961a17.186,17.186,0,0,0-1.632-.884,1.056,1.056,0,0,0-.887,1.916,14.7,14.7,0,0,1,1.443.785c2.15,1.275,4.014,2.375,14.245,2.253a2.962,2.962,0,0,1,1.994.762,3.522,3.522,0,0,1,.728,2.772c-.019.312-.082,1.258-1.988,1.99-1.955.753-6.263,1.383-15.686.119a1.055,1.055,0,1,0-.28,2.091,73.363,73.363,0,0,0,9.545.74,21.047,21.047,0,0,0,7.062-.944,77.78,77.78,0,0,0,16.46-5.146c2.141-.9,4.163-1.746,4.61-1.369.511.433.556.759.547.969-.04.816-1.133,1.825-1.709,2.228a48.881,48.881,0,0,1-15.878,8.252,1.055,1.055,0,0,0,.31,2.063,1.093,1.093,0,0,0,.312-.045,50.817,50.817,0,0,0,16.5-8.57c.251-.173,2.462-1.74,2.569-3.814A3.231,3.231,0,0,0,1198.9,774.574Zm-6.79,1.031a78.8,78.8,0,0,1-12.41,4.217,3.572,3.572,0,0,0,.221-.978,6.984,6.984,0,0,0-.263-2.574,63.489,63.489,0,0,0,8-2.63,16.94,16.94,0,0,1,4.72-1.408,1.947,1.947,0,0,1,1.586.658,2.514,2.514,0,0,1,.459,1.771C1193.738,774.922,1192.972,775.242,1192.108,775.605Z" transform="translate(-13.79 -23.083)" fill="#545454"/>
      <path id="패스_284" data-name="패스 284" d="M1161.511,787.953c-13.029,2.639-25.034.377-31.031-1.207a2.975,2.975,0,0,1-2.211-2.891v-3.364a1.056,1.056,0,0,0-2.111,0v5.466a.872.872,0,0,1-.87.873h-5.552a.873.873,0,0,1-.87-.873v-15.9a.871.871,0,0,1,.87-.87h5.552a.871.871,0,0,1,.87.87v4.8a1.056,1.056,0,0,0,2.111,0v-2.678c0-.011.006-.019.006-.031a2.979,2.979,0,0,1,3.045-2.964,84.245,84.245,0,0,1,9.025.618,1.056,1.056,0,0,0,.286-2.092,86.524,86.524,0,0,0-9.258-.634,4.988,4.988,0,0,0-3.584,1.371,2.974,2.974,0,0,0-2.5-1.375h-5.552a2.985,2.985,0,0,0-2.981,2.982v15.9a2.988,2.988,0,0,0,2.981,2.984h5.552a2.979,2.979,0,0,0,2.49-1.352,5.047,5.047,0,0,0,2.164,1.2,76.285,76.285,0,0,0,19.121,2.488,64.771,64.771,0,0,0,12.868-1.253,1.056,1.056,0,0,0-.419-2.069Z" transform="translate(0 -22.086)" fill="#545454"/>
      <path id="패스_285" data-name="패스 285" d="M1123.584,790.307a1.17,1.17,0,1,0,1.168-1.171A1.169,1.169,0,0,0,1123.584,790.307Z" transform="translate(-2.24 -29.322)" fill="#545454"/>
      <path id="패스_286" data-name="패스 286" d="M1157.865,740.593a13.8,13.8,0,0,0,.13,1.792,11.588,11.588,0,0,1-16.559-1.545,1.055,1.055,0,0,0-1.644,1.324,13.689,13.689,0,0,0,18.693,2.514,13.719,13.719,0,0,0,26.816-4.084,13.938,13.938,0,0,0-.182-2.244,1.056,1.056,0,0,0-2.083.343,11.788,11.788,0,0,1,.155,1.9,11.608,11.608,0,1,1-2.28-6.909,1.056,1.056,0,0,0,1.7-1.259,13.72,13.72,0,0,0-24.742,8.168Z" transform="translate(-7.481 -8.897)" fill="#545454"/>
      <path id="패스_287" data-name="패스 287" d="M1136.858,734.4a.988.988,0,0,0,.27-.037,1.054,1.054,0,0,0,.752-1.287,11.611,11.611,0,0,1,20.893-9.389,1.056,1.056,0,1,0,1.755-1.173,13.723,13.723,0,0,0-24.689,11.1A1.057,1.057,0,0,0,1136.858,734.4Z" transform="translate(-6.113 -5.463)" fill="#545454"/>
      <path id="패스_288" data-name="패스 288" d="M1153.511,722.686a1.056,1.056,0,0,0-1.056,1.057v.884a4.451,4.451,0,0,0-3.644,4.245c0,2.111,1.236,4.367,4.7,4.367,1.726,0,2.6.76,2.6,2.256a2.441,2.441,0,0,1-2.589,2.253,2.608,2.608,0,0,1-2.432-1.482,1.055,1.055,0,1,0-1.945.818,4.564,4.564,0,0,0,3.309,2.65v.89a1.056,1.056,0,1,0,2.111,0v-.882a4.451,4.451,0,0,0,3.655-4.248c0-2.111-1.236-4.367-4.711-4.367-1.717,0-2.588-.759-2.588-2.256a2.439,2.439,0,0,1,2.588-2.253,2.609,2.609,0,0,1,2.432,1.482,1.056,1.056,0,1,0,1.947-.819,4.571,4.571,0,0,0-3.323-2.652v-.887A1.056,1.056,0,0,0,1153.511,722.686Z" transform="translate(-10.516 -7.524)" fill="#545454"/>
      <path id="패스_289" data-name="패스 289" d="M1184.923,752.151a1.054,1.054,0,0,0,1.055-1.054v-.882a4.455,4.455,0,0,0,3.656-4.251c0-2.109-1.237-4.364-4.711-4.364-1.718,0-2.588-.759-2.588-2.256a2.442,2.442,0,0,1,2.588-2.256,2.607,2.607,0,0,1,2.431,1.482,1.056,1.056,0,0,0,1.947-.816,4.578,4.578,0,0,0-3.323-2.656v-.887a1.055,1.055,0,0,0-2.111,0v.887a4.452,4.452,0,0,0-3.643,4.245c0,2.111,1.236,4.367,4.7,4.367,1.725,0,2.6.757,2.6,2.253a2.442,2.442,0,0,1-2.589,2.256,2.609,2.609,0,0,1-2.432-1.482,1.055,1.055,0,1,0-1.945.816,4.574,4.574,0,0,0,3.309,2.653v.89A1.054,1.054,0,0,0,1184.923,752.151Z" transform="translate(-20.82 -10.958)" fill="#545454"/>
      <path id="패스_290" data-name="패스 290" d="M1186.7,717.653a1.056,1.056,0,0,0,1.055-1.054v-5.583a1.055,1.055,0,0,0-2.111,0V716.6A1.056,1.056,0,0,0,1186.7,717.653Z" transform="translate(-22.599 -3.349)" fill="#545454"/>
      <path id="패스_291" data-name="패스 291" d="M1197.173,719.55a1.053,1.053,0,0,0,1.054-1.054v-5.583a1.055,1.055,0,0,0-2.109,0V718.5A1.053,1.053,0,0,0,1197.173,719.55Z" transform="translate(-26.034 -3.972)" fill="#545454"/>
      <path id="패스_292" data-name="패스 292" d="M1155.3,707.445a1.056,1.056,0,0,0,1.056-1.057v-5.58a1.055,1.055,0,1,0-2.109,0v5.58A1.055,1.055,0,0,0,1155.3,707.445Z" transform="translate(-12.298 0)" fill="#545454"/>
      <path id="패스_293" data-name="패스 293" d="M1144.829,709.343a1.056,1.056,0,0,0,1.055-1.054v-5.583a1.055,1.055,0,1,0-2.111,0v5.583A1.056,1.056,0,0,0,1144.829,709.343Z" transform="translate(-8.863 -0.623)" fill="#545454"/>
      <path id="패스_294" data-name="패스 294" d="M1165.77,711.242a1.054,1.054,0,0,0,1.056-1.054v-5.583a1.056,1.056,0,0,0-2.111,0v5.583A1.055,1.055,0,0,0,1165.77,711.242Z" transform="translate(-15.732 -1.247)" fill="#545454"/>
    </g>
  </g>
</svg>
