<svg xmlns="http://www.w3.org/2000/svg" width="105" height="105" viewBox="0 0 105 105">
  <g id="그룹_186" data-name="그룹 186" transform="translate(-258 -1228)">
    <g id="그룹_163" data-name="그룹 163" transform="translate(-273 212)">
      <path id="패스_279" data-name="패스 279" d="M52.5,0A52.5,52.5,0,1,1,0,52.5,52.5,52.5,0,0,1,52.5,0Z" transform="translate(531 1016)" fill="#fff"/>
    </g>
    <g id="그룹_171" data-name="그룹 171" transform="translate(278 1244)">
      <path id="패스_301" data-name="패스 301" d="M1596.324,751.688a11.776,11.776,0,0,0-7.217,21.092v13.557a1.123,1.123,0,0,0,.693,1.037,1.106,1.106,0,0,0,.428.085,1.118,1.118,0,0,0,.794-.329l5.3-5.3,5.3,5.3a1.122,1.122,0,0,0,1.915-.794V772.78a11.776,11.776,0,0,0-7.219-21.092Zm4.974,31.94-4.181-4.18a1.122,1.122,0,0,0-1.586,0l-4.18,4.18v-9.476a11.643,11.643,0,0,0,9.948,0Zm-4.974-10.6a9.545,9.545,0,1,1,9.546-9.544A9.555,9.555,0,0,1,1596.324,773.023Z" transform="translate(-1541.863 -715.113)" fill="#545454"/>
      <path id="패스_302" data-name="패스 302" d="M1527.85,769.354v-53.74h8.022a4.175,4.175,0,0,0,4.17-4.171v-8.021h41.549a1.929,1.929,0,0,1,1.926,1.926V734.3h2.245V705.348a4.174,4.174,0,0,0-4.17-4.17h-42.672a1.122,1.122,0,0,0-.794.329L1525.935,713.7a1.119,1.119,0,0,0-.33.793v54.863a4.174,4.174,0,0,0,4.17,4.17h41.147v-2.245h-41.147A1.928,1.928,0,0,1,1527.85,769.354Zm8.022-55.984h-6.435l8.36-8.36v6.434A1.929,1.929,0,0,1,1535.871,713.37Z" transform="translate(-1525.605 -701.178)" fill="#545454"/>
      <rect id="사각형_69" data-name="사각형 69" width="33.527" height="2.244" transform="translate(19.41 19.811)" fill="#545454"/>
      <rect id="사각형_70" data-name="사각형 70" width="45.719" height="2.244" transform="translate(7.218 27.431)" fill="#545454"/>
      <rect id="사각형_71" data-name="사각형 71" width="36.576" height="2.244" transform="translate(7.218 35.05)" fill="#545454"/>
      <rect id="사각형_72" data-name="사각형 72" width="32.003" height="2.244" transform="translate(7.218 42.67)" fill="#545454"/>
      <rect id="사각형_73" data-name="사각형 73" width="32.003" height="2.244" transform="translate(7.218 50.291)" fill="#545454"/>
      <rect id="사각형_74" data-name="사각형 74" width="35.051" height="2.244" transform="translate(7.218 57.91)" fill="#545454"/>
      <path id="패스_303" data-name="패스 303" d="M1597.512,713.765a4.174,4.174,0,0,0-4.17-4.169h-3.048v2.244h3.048a1.928,1.928,0,0,1,1.925,1.925v3.048h2.245Z" transform="translate(-1543.452 -703.5)" fill="#545454"/>
      <rect id="사각형_75" data-name="사각형 75" width="3.048" height="2.244" transform="translate(40.745 6.095)" fill="#545454"/>
    </g>
  </g>
</svg>
