<svg xmlns="http://www.w3.org/2000/svg" width="105" height="105" viewBox="0 0 105 105">
  <g id="그룹_160" data-name="그룹 160" transform="translate(-804 -1016)">
    <g id="그룹_159" data-name="그룹 159">
      <g id="그룹_158" data-name="그룹 158">
        <g id="그룹_157" data-name="그룹 157">
          <g id="그룹_156" data-name="그룹 156">
            <g id="그룹_155" data-name="그룹 155">
              <path id="패스_279" data-name="패스 279" d="M52.5,0A52.5,52.5,0,1,1,0,52.5,52.5,52.5,0,0,1,52.5,0Z" transform="translate(804 1016)" fill="#fff"/>
              <path id="패스_283" data-name="패스 283" d="M1302.693,763.724a1.235,1.235,0,0,0-1.747,1.747l2.846,2.844a1.235,1.235,0,1,0,1.746-1.747Z" transform="translate(-445.972 313.789)" fill="#545454"/>
              <path id="패스_284" data-name="패스 284" d="M1271.691,764.49a2.606,2.606,0,0,1-.72-2.338,2.762,2.762,0,0,1,.794-1.431l1.326-1.325,3.7,3.7-1.441,1.442A2.619,2.619,0,0,1,1271.691,764.49Zm2.813,8.089a2.619,2.619,0,0,1-.724-2.341,2.75,2.75,0,0,1,.794-1.432l2.505-2.5c.019-.019.04-.038.06-.06l1.4-1.4,3.7,3.7-4.031,4.035A2.623,2.623,0,0,1,1274.5,772.579Zm11.077,3.51c-.014.015-.027.027-.039.04l-1.9,1.9a2.613,2.613,0,0,1-1.848.765h0a2.613,2.613,0,0,1-1.845-4.464l4.033-4.036,3.7,3.7Zm5.52,5.376a2.685,2.685,0,0,1-3.355.411,2.622,2.622,0,0,1-.447-4.012l2.13-2.129,3.7,3.7Zm-29.123-33.182,9.365,9.365-1.255,1.253a5.356,5.356,0,0,0-1.612,3.269,5.085,5.085,0,0,0,3.872,5.417,5.084,5.084,0,0,0,4.377,8.21c-.008.124-.014.249-.014.374a5.121,5.121,0,0,0,2.742,4.531,4.9,4.9,0,0,0,2.343.558h0a2.211,2.211,0,0,1,3.783,2.021,5.092,5.092,0,0,0,7.195,0l2.165-2.162a5.086,5.086,0,0,0,7.822-3,50.724,50.724,0,0,1,12.182-5.856,5.1,5.1,0,0,0,.892-5.982,5.042,5.042,0,0,0,2.621-1.4,5.129,5.129,0,0,0,1.237-5.225,4.7,4.7,0,0,0-1.245-1.975l-.039-.038,8.824-8.825a1.235,1.235,0,0,0,0-1.749h0a1.235,1.235,0,0,0-1.745,0l-8.825,8.825-18.54-18.539a9.341,9.341,0,0,1,1.7-.168,1.26,1.26,0,0,0,1.237-1.011,1.237,1.237,0,0,0-1.216-1.458,11.8,11.8,0,0,0-8.4,3.48l-4.172,4.168a3.587,3.587,0,0,1-5.535-.555,3.734,3.734,0,0,1,.589-4.646l7.284-7.282a7.3,7.3,0,0,1,5.159-2.137h6.445a8.518,8.518,0,0,0,3.572-.77,1.238,1.238,0,0,0,.38-1.968h0a1.229,1.229,0,0,0-1.417-.269,6.014,6.014,0,0,1-2.534.537h-6.443a9.676,9.676,0,0,0-6.36,2.365l-2.919-2.918a1.235,1.235,0,0,0-1.749,0h0a1.236,1.236,0,0,0,0,1.745l2.892,2.892-6.057,6.056a6.158,6.158,0,0,0-.888,7.78,6.092,6.092,0,0,0,4.466,2.667c.193.018.385.027.578.027a6.047,6.047,0,0,0,4.285-1.779l4.171-4.169a9.379,9.379,0,0,1,2.334-1.695l21.183,21.183a2.614,2.614,0,1,1-3.7,3.7s-.011-.006-.017-.01L1300.6,750.736a1.239,1.239,0,0,0-1.945.252,1.266,1.266,0,0,0,.231,1.529l14.3,14.3a2.623,2.623,0,0,1-.169,3.86,2.656,2.656,0,0,1-3.124.1l-.408-.264-6.795-6.795a1.27,1.27,0,0,0-1.531-.233,1.236,1.236,0,0,0-.253,1.943l6.835,6.835a2.616,2.616,0,1,1-3.7,3.7l-14.281-14.28a1.293,1.293,0,0,0-1.728-.131,1.238,1.238,0,0,0-.079,1.82l11.706,11.7,0,0a2.615,2.615,0,0,1-3.7,3.7l-32.243-32.243a1.235,1.235,0,0,0-1.725-.022h0A1.235,1.235,0,0,0,1261.979,748.283Z" transform="translate(-438.436 321.33)" fill="#545454"/>
              <path id="패스_285" data-name="패스 285" d="M1268.543,706.843l-25.049,25.049a2.384,2.384,0,0,0,0,3.372l7.216,7.216a2.385,2.385,0,0,0,3.373,0l25.049-25.049a2.385,2.385,0,0,0,0-3.373l-7.216-7.215A2.385,2.385,0,0,0,1268.543,706.843Zm-22.669,26.291,23.912-23.912a.628.628,0,0,1,.887,0l6.079,6.079a.627.627,0,0,1,0,.887L1252.84,740.1a.627.627,0,0,1-.887,0l-6.079-6.078A.628.628,0,0,1,1245.874,733.134Z" transform="translate(-434.796 324.855)" fill="#545454"/>
              <rect id="사각형_66" data-name="사각형 66" width="4.138" height="2.561" rx="1.281" transform="translate(815.146 1059.077) rotate(-45)" fill="#545454"/>
              <path id="패스_286" data-name="패스 286" d="M1323.309,706.843l-7.217,7.216a2.386,2.386,0,0,0,0,3.373l25.781,25.78a2.386,2.386,0,0,0,3.373,0l7.215-7.216a2.385,2.385,0,0,0,0-3.373l-25.779-25.78A2.385,2.385,0,0,0,1323.309,706.843Zm-4.836,8.458,6.079-6.078a.627.627,0,0,1,.887,0l24.643,24.644a.627.627,0,0,1,0,.887L1344,740.833a.627.627,0,0,1-.887,0l-24.644-24.644A.628.628,0,0,1,1318.473,715.3Z" transform="translate(-448.837 324.855)" fill="#545454"/>
              <rect id="사각형_67" data-name="사각형 67" width="2.561" height="4.138" rx="1.281" transform="matrix(0.707, -0.707, 0.707, 0.707, 890.978, 1058.694)" fill="#545454"/>
              <line id="선_2" data-name="선 2" x2="3.726" y2="3.726" transform="translate(844.476 1046.976)"/>
            </g>
          </g>
        </g>
      </g>
    </g>
  </g>
</svg>
