<svg xmlns="http://www.w3.org/2000/svg" width="94.93" height="66.148" viewBox="0 0 94.93 66.148">
  <g id="그룹_1518" data-name="그룹 1518" transform="translate(0.5 0.5)">
    <path id="패스_993" data-name="패스 993" d="M1131.182,128.44h-40.841v-9.708l-12.908,13.587h58.788Z" transform="translate(-1077.433 -67.171)" fill="#15376c"/>
    <path id="패스_994" data-name="패스 994" d="M1131.182,128.44h-40.841v-9.708l-12.908,13.587h58.788Z" transform="translate(-1077.433 -67.171)" fill="none" stroke="#383838" stroke-linejoin="round" stroke-width="1"/>
    <g id="그룹_1517" data-name="그룹 1517" transform="translate(17.774)">
      <g id="그룹_1511" data-name="그룹 1511" transform="translate(40.505 4.467)">
        <g id="그룹_1510" data-name="그룹 1510">
          <rect id="사각형_379" data-name="사각형 379" width="32.594" height="16.634" transform="translate(1.528 1.528)" fill="#aae0ec"/>
          <rect id="사각형_380" data-name="사각형 380" width="35.65" height="19.69" fill="none" stroke="#383838" stroke-linecap="round" stroke-linejoin="round" stroke-width="1"/>
          <rect id="사각형_381" data-name="사각형 381" width="32.594" height="16.634" transform="translate(1.528 1.528)" stroke-width="1" stroke="#383838" stroke-linecap="round" stroke-linejoin="round" fill="none"/>
        </g>
      </g>
      <g id="그룹_1515" data-name="그룹 1515" transform="translate(44.377 11.004)">
        <g id="그룹_1512" data-name="그룹 1512">
          <path id="패스_995" data-name="패스 995" d="M1146.19,81.827l-.758,3.373a.169.169,0,0,1-.037.081.217.217,0,0,1-.1.014h-.749c-.07,0-.109,0-.118-.014a.22.22,0,0,1-.033-.081l-.768-3.373h-.7l-.767,3.373a.219.219,0,0,1-.033.081.246.246,0,0,1-.118.014h-.75a.214.214,0,0,1-.1-.014.167.167,0,0,1-.037-.081l-.759-3.373h-1.118a.125.125,0,0,1-.085-.033.1.1,0,0,1-.038-.081V81.06a.1.1,0,0,1,.038-.081.125.125,0,0,1,.085-.033h.929l-.53-2.331a.129.129,0,0,1,0-.1q.018-.033.142-.033h.71a.229.229,0,0,1,.094.014.123.123,0,0,1,.048.082l.521,2.368h1.052l.54-2.368a.142.142,0,0,1,.042-.082.2.2,0,0,1,.09-.014h.8a.2.2,0,0,1,.09.014.147.147,0,0,1,.043.082l.54,2.368h1.052l.521-2.368a.127.127,0,0,1,.047-.082.236.236,0,0,1,.095-.014h.71c.082,0,.13.011.143.033a.14.14,0,0,1,0,.1l-.532,2.331h.92c.083,0,.123.038.123.114v.654a.105.105,0,0,1-.038.081.125.125,0,0,1-.085.033ZM1141.66,83.3l.333-1.468h-.654Zm1.469-2.35h.285l-.142-.644Zm1.753,2.35.323-1.468h-.654Z" transform="translate(-1139.112 -78.482)" fill="#383838"/>
        </g>
        <g id="그룹_1513" data-name="그룹 1513" transform="translate(9.784)">
          <path id="패스_996" data-name="패스 996" d="M1155.9,81.827l-.759,3.373a.168.168,0,0,1-.037.081.217.217,0,0,1-.1.014h-.749c-.068,0-.108,0-.117-.014a.2.2,0,0,1-.034-.081l-.767-3.373h-.7l-.768,3.373a.242.242,0,0,1-.032.081.247.247,0,0,1-.119.014h-.749a.217.217,0,0,1-.1-.014.168.168,0,0,1-.037-.081l-.758-3.373h-1.119a.125.125,0,0,1-.086-.033.1.1,0,0,1-.038-.081V81.06a.1.1,0,0,1,.038-.081.125.125,0,0,1,.086-.033h.929l-.531-2.331a.129.129,0,0,1,0-.1c.012-.022.061-.033.142-.033h.711a.236.236,0,0,1,.095.014.128.128,0,0,1,.047.082l.521,2.368h1.052l.54-2.368a.148.148,0,0,1,.043-.082.2.2,0,0,1,.09-.014h.8a.2.2,0,0,1,.09.014.148.148,0,0,1,.042.082l.54,2.368h1.052l.521-2.368a.124.124,0,0,1,.048-.082.23.23,0,0,1,.094-.014h.711c.083,0,.13.011.143.033a.138.138,0,0,1,0,.1l-.531,2.331h.919c.083,0,.124.038.124.114v.654a.1.1,0,0,1-.038.081.127.127,0,0,1-.086.033Zm-4.529,1.468.333-1.468h-.655Zm1.468-2.35h.285l-.142-.644Zm1.755,2.35.321-1.468h-.653Z" transform="translate(-1148.822 -78.482)" fill="#383838"/>
        </g>
        <g id="그룹_1514" data-name="그룹 1514" transform="translate(19.569)">
          <path id="패스_997" data-name="패스 997" d="M1165.611,81.827l-.758,3.373a.168.168,0,0,1-.037.081.22.22,0,0,1-.1.014h-.749c-.07,0-.109,0-.118-.014a.221.221,0,0,1-.033-.081l-.768-3.373h-.7l-.767,3.373a.1.1,0,0,1-.152.095h-.749a.215.215,0,0,1-.1-.014.168.168,0,0,1-.037-.081l-.759-3.373h-1.118a.124.124,0,0,1-.085-.033.1.1,0,0,1-.038-.081V81.06a.1.1,0,0,1,.038-.081.125.125,0,0,1,.085-.033h.929l-.53-2.331a.126.126,0,0,1,0-.1q.018-.033.142-.033h.71a.23.23,0,0,1,.094.014.122.122,0,0,1,.048.082l.521,2.368h1.052l.539-2.368a.147.147,0,0,1,.043-.082.2.2,0,0,1,.09-.014h.8a.2.2,0,0,1,.09.014.147.147,0,0,1,.043.082l.539,2.368h1.053l.521-2.368a.126.126,0,0,1,.047-.082.235.235,0,0,1,.095-.014h.71q.122,0,.142.033a.126.126,0,0,1,0,.1l-.531,2.331h.92c.082,0,.123.038.123.114v.654a.1.1,0,0,1-.038.081.126.126,0,0,1-.085.033Zm-4.529,1.468.332-1.468h-.654Zm1.469-2.35h.284l-.141-.644Zm1.753,2.35.322-1.468h-.654Z" transform="translate(-1158.533 -78.482)" fill="#383838"/>
        </g>
      </g>
      <g id="그룹_1516" data-name="그룹 1516">
        <path id="패스_998" data-name="패스 998" d="M1107.686,78.744a5.351,5.351,0,1,1,5.351-5.351,5.314,5.314,0,0,1-5.351,5.351Z" transform="translate(-1095.016 -67.558)" fill="#ffcd73"/>
        <path id="패스_999" data-name="패스 999" d="M1100.443,101.73a10.826,10.826,0,0,0,1.533,5.681l-.045-.06-.212,7.216a6.653,6.653,0,0,1-1.465,3.836l-4.268,5.861a4.122,4.122,0,0,0,6.079,5.544l5.974-6.551a6.669,6.669,0,0,0,1.989-4.158l.4-4.542.378.291c.962,1.022.969,2.11,1.757,3.712l3.559,9.649a4.123,4.123,0,0,0,8.12-1.343l-2.79-10.569c-.557-1.878-.585-3.115-1.625-4.313-1.134-1.306-2.281-2.625-3.354-3.986-.129-.164-.258-.329-.385-.495-2.319-3.021-1.3-7.447-1.1-11.024l2.531,2.638a6.424,6.424,0,0,0,1.445,1.127l5.011,2.856a3.166,3.166,0,0,0,4.369-1.2,3.106,3.106,0,0,0-1.149-4.114l-5.408-3.242a6.379,6.379,0,0,1-2.269-2.325l-4.381-7.72c-1.566-3.167-4.119-5.549-7.723-5.344a7.233,7.233,0,0,0-2.909.791,7.451,7.451,0,0,0-3.958,6.563c-.044,3.368-.163,6.733-.127,10.1C1100.443,98.1,1100.351,99.927,1100.443,101.73Z" transform="translate(-1095.072 -67.473)" fill="none" stroke="#383838" stroke-linecap="round" stroke-linejoin="round" stroke-width="1"/>
        <path id="패스_1000" data-name="패스 1000" d="M1127.2,97.789l-5.408-3.242a6.379,6.379,0,0,1-2.269-2.325l-4.381-7.72c-1.566-3.167-4.119-5.549-7.723-5.344a7.233,7.233,0,0,0-2.909.791,7.451,7.451,0,0,0-3.958,6.564c-.044,3.367-.163,6.732-.127,10.1.016,1.49-.075,3.313.016,5.117a10.826,10.826,0,0,0,1.533,5.681l-.045-.06-.212,7.216a6.653,6.653,0,0,1-1.465,3.836l-4.268,5.861a4.122,4.122,0,0,0,6.079,5.544l5.974-6.551a6.669,6.669,0,0,0,1.989-4.158l.4-4.542.378.291c.962,1.022.969,2.11,1.757,3.712l3.559,9.65a4.123,4.123,0,0,0,8.12-1.344l-2.79-10.569c-.557-1.878-.585-3.115-1.625-4.313-1.134-1.306-2.281-2.625-3.354-3.986-.129-.164-.258-.329-.385-.495-2.319-3.021-1.3-7.447-1.1-11.024l2.531,2.638a6.424,6.424,0,0,0,1.445,1.127l5.011,2.856a3.166,3.166,0,0,0,4.369-1.2A3.106,3.106,0,0,0,1127.2,97.789Z" transform="translate(-1095.072 -67.473)" fill="none" stroke="#383838" stroke-linecap="round" stroke-linejoin="round" stroke-width="1"/>
        <line id="선_126" data-name="선 126" x2="8.502" y2="7.207" transform="translate(6.858 39.877)" fill="none" stroke="#383838" stroke-linecap="round" stroke-linejoin="round" stroke-width="1"/>
        <line id="선_127" data-name="선 127" x2="5.288" y2="5.658" transform="translate(16.024 24.797)" fill="none" stroke="#383838" stroke-linecap="round" stroke-linejoin="round" stroke-width="1"/>
        <path id="패스_1001" data-name="패스 1001" d="M1118.82,100.114l1.982,1.13h-6.189V99.072c.086-.934.183-1.853.232-2.723l2.531,2.638A6.465,6.465,0,0,0,1118.82,100.114Z" transform="translate(-1094.922 -67.342)" fill="#e6e6e6" stroke="#383838" stroke-linecap="round" stroke-linejoin="round" stroke-width="1"/>
        <path id="패스_1002" data-name="패스 1002" d="M1130.633,84.462v16.872h-2.217a3.1,3.1,0,0,0-1.367-3.587l-5.407-3.24a6.4,6.4,0,0,1-2.268-2.327l-4.381-7.719Z" transform="translate(-1094.92 -67.433)" fill="#e6e6e6" stroke="#383838" stroke-linecap="round" stroke-linejoin="round" stroke-width="1"/>
        <rect id="사각형_382" data-name="사각형 382" width="3.686" height="3.66" transform="translate(23.831 17.029)" fill="#15376c"/>
        <rect id="사각형_383" data-name="사각형 383" width="3.686" height="3.66" transform="translate(23.831 17.029)" stroke-width="1" stroke="#383838" stroke-linecap="round" stroke-linejoin="round" fill="none"/>
        <path id="패스_1003" data-name="패스 1003" d="M1107.689,79.233a5.835,5.835,0,1,1,5.836-5.835A5.8,5.8,0,0,1,1107.689,79.233Z" transform="translate(-1095.02 -67.562)" fill="none" stroke="#383838" stroke-linecap="round" stroke-linejoin="round" stroke-width="1"/>
        <path id="패스_1004" data-name="패스 1004" d="M1130.642,76.589a2.423,2.423,0,1,1-1.93-2.831A2.424,2.424,0,0,1,1130.642,76.589Z" transform="translate(-1094.837 -67.515)" fill="none" stroke="#383838" stroke-linecap="round" stroke-linejoin="round" stroke-width="1"/>
        <path id="패스_1005" data-name="패스 1005" d="M1122.11,74.969a1.62,1.62,0,1,1-1.291-1.892A1.62,1.62,0,0,1,1122.11,74.969Z" transform="translate(-1094.89 -67.52)" fill="none" stroke="#383838" stroke-linecap="round" stroke-linejoin="round" stroke-width="1"/>
      </g>
    </g>
  </g>
</svg>
