<svg xmlns="http://www.w3.org/2000/svg" width="77.55" height="84.949" viewBox="0 0 77.55 84.949">
  <g id="그룹_1683" data-name="그룹 1683" transform="translate(-948.309 -547.576)">
    <g id="그룹_1532" data-name="그룹 1532">
      <g id="그룹_1528" data-name="그룹 1528">
        <g id="그룹_1526" data-name="그룹 1526">
          <path id="패스_1007" data-name="패스 1007" d="M1002.214,605.628h2.112l2.657,3.211-3.524,6.152" fill="#15376c"/>
          <path id="패스_1008" data-name="패스 1008" d="M1015.023,605.628h-1.811l-2.657,3.083,3.15,6.247" fill="#15376c"/>
        </g>
        <g id="그룹_1527" data-name="그룹 1527">
          <path id="패스_1009" data-name="패스 1009" d="M1008.619,605.628a8.751,8.751,0,1,1,8.751-8.752A8.762,8.762,0,0,1,1008.619,605.628Z" fill="#ffcd73"/>
          <circle id="타원_25" data-name="타원 25" cx="8.751" cy="8.751" r="8.751" transform="translate(997.184 601.613) rotate(-67.5)" stroke-width="1" stroke="#383838" stroke-linecap="round" stroke-linejoin="round" fill="none"/>
          <path id="패스_1010" data-name="패스 1010" d="M990.976,632.025V616.1a10.471,10.471,0,0,1,10.47-10.47h13.442a10.471,10.471,0,0,1,10.471,10.47v15.927" fill="none" stroke="#383838" stroke-linecap="round" stroke-linejoin="round" stroke-width="1"/>
          <path id="패스_1011" data-name="패스 1011" d="M1005.6,632.025l-3.4-26.4h2.112l2.657,3.211-3.557,6.209" fill="none" stroke="#383838" stroke-linecap="round" stroke-linejoin="round" stroke-width="1"/>
          <path id="패스_1012" data-name="패스 1012" d="M1011.617,632.025l3.4-26.4H1013.2l-2.657,3.083,3.169,6.147" fill="none" stroke="#383838" stroke-linecap="round" stroke-linejoin="round" stroke-width="1"/>
          <line id="선_128" data-name="선 128" y2="21.184" transform="translate(1008.654 610.841)" fill="none" stroke="#383838" stroke-linecap="round" stroke-linejoin="round" stroke-width="1"/>
          <path id="패스_1013" data-name="패스 1013" d="M1006.974,608.839l1.681,2,1.891-2.13" fill="none" stroke="#383838" stroke-linecap="round" stroke-linejoin="round" stroke-width="1"/>
        </g>
        <line id="선_129" data-name="선 129" y2="10.17" transform="translate(995.629 621.855)" fill="none" stroke="#383838" stroke-linecap="round" stroke-linejoin="round" stroke-width="1"/>
        <line id="선_130" data-name="선 130" y2="10.17" transform="translate(1020.584 621.855)" fill="none" stroke="#383838" stroke-linecap="round" stroke-linejoin="round" stroke-width="1"/>
      </g>
      <g id="그룹_1531" data-name="그룹 1531">
        <g id="그룹_1530" data-name="그룹 1530">
          <g id="그룹_1529" data-name="그룹 1529">
            <path id="패스_1014" data-name="패스 1014" d="M960.039,605.628h2.112l2.657,3.211-3.524,6.152" fill="#ffc7c0"/>
            <path id="패스_1015" data-name="패스 1015" d="M972.847,605.628h-1.811l-2.657,3.083,3.15,6.247" fill="#ffc7c0"/>
          </g>
          <path id="패스_1016" data-name="패스 1016" d="M966.452,605.628a8.751,8.751,0,1,1,8.751-8.752A8.762,8.762,0,0,1,966.452,605.628Z" fill="#ffcd73"/>
          <circle id="타원_26" data-name="타원 26" cx="8.751" cy="8.751" r="8.751" transform="translate(955.425 602.497) rotate(-72.012)" stroke-width="1" stroke="#383838" stroke-linecap="round" stroke-linejoin="round" fill="none"/>
          <path id="패스_1017" data-name="패스 1017" d="M948.809,632.025V616.1a10.471,10.471,0,0,1,10.471-10.47h13.442a10.47,10.47,0,0,1,10.47,10.47v15.927" fill="none" stroke="#383838" stroke-linecap="round" stroke-linejoin="round" stroke-width="1"/>
          <path id="패스_1018" data-name="패스 1018" d="M963.435,632.025l-3.4-26.4h2.112l2.657,3.211-3.524,6.152" fill="none" stroke="#383838" stroke-linecap="round" stroke-linejoin="round" stroke-width="1"/>
          <path id="패스_1019" data-name="패스 1019" d="M969.45,632.025l3.4-26.4h-1.811l-2.657,3.083,3.15,6.247" fill="none" stroke="#383838" stroke-linecap="round" stroke-linejoin="round" stroke-width="1"/>
          <line id="선_131" data-name="선 131" y2="21.184" transform="translate(966.488 610.841)" fill="none" stroke="#383838" stroke-linecap="round" stroke-linejoin="round" stroke-width="1"/>
          <path id="패스_1020" data-name="패스 1020" d="M964.807,608.839l1.681,2,1.891-2.13" fill="none" stroke="#383838" stroke-linecap="round" stroke-linejoin="round" stroke-width="1"/>
        </g>
        <line id="선_132" data-name="선 132" y2="10.17" transform="translate(953.462 621.855)" fill="none" stroke="#383838" stroke-linecap="round" stroke-linejoin="round" stroke-width="1"/>
        <line id="선_133" data-name="선 133" y2="10.17" transform="translate(978.417 621.855)" fill="none" stroke="#383838" stroke-linecap="round" stroke-linejoin="round" stroke-width="1"/>
      </g>
    </g>
    <g id="그룹_1534" data-name="그룹 1534">
      <g id="그룹_1533" data-name="그룹 1533">
        <ellipse id="타원_27" data-name="타원 27" cx="14.344" cy="14.332" rx="14.344" ry="14.332" transform="matrix(0.708, -0.707, 0.707, 0.708, 966.807, 568.553)" fill="#e6e6e6" stroke="#383838" stroke-linecap="round" stroke-linejoin="round" stroke-width="1"/>
      </g>
    </g>
    <g id="그룹_1535" data-name="그룹 1535">
      <g id="패스_1021" data-name="패스 1021" fill="#ffcd73" stroke-miterlimit="10">
        <path d="M 990.9819946289063 577.291015625 L 990.3259887695313 577.291015625 C 990.0237426757813 577.291015625 989.8294677734375 577.2665405273438 989.6716918945313 577.1380615234375 C 989.5145263671875 577.0106811523438 989.4473876953125 576.81787109375 989.3856811523438 576.5294189453125 L 987.7308959960938 569.25 L 986.3896484375 569.25 C 986.108642578125 570.4054565429688 985.8372192382813 571.5597534179688 985.5816040039063 572.6865844726563 C 985.298095703125 573.9364013671875 985.0014038085938 575.2232666015625 984.6998291015625 576.5116577148438 C 984.6320190429688 576.826416015625 984.567138671875 576.97900390625 984.4525756835938 577.0935668945313 C 984.2880859375 577.2579956054688 984.065673828125 577.291015625 983.760009765625 577.291015625 L 983.14501953125 577.291015625 C 982.8627319335938 577.291015625 982.6405639648438 577.2622680664063 982.4747314453125 577.1222534179688 C 982.3156127929688 576.9885864257813 982.2459716796875 576.7890014648438 982.1860961914063 576.5111694335938 L 980.5111694335938 569.25 L 978.5700073242188 569.25 C 978.3423461914063 569.25 978.1244506835938 569.2364501953125 977.9605712890625 569.0726318359375 C 977.7974853515625 568.9095458984375 977.7839965820313 568.6912231445313 977.7839965820313 568.4630126953125 L 977.7839965820313 568.1749877929688 C 977.7839965820313 567.951171875 977.796875 567.73681640625 977.9522094726563 567.5739135742188 L 977.9603881835938 567.5653076171875 L 977.968994140625 567.55712890625 C 978.1328125 567.4009399414063 978.3468017578125 567.3880004882813 978.5700073242188 567.3880004882813 L 980.0743408203125 567.3880004882813 C 979.9343872070313 566.7824096679688 979.791748046875 566.154296875 979.6420288085938 565.4840087890625 C 979.4745483398438 564.7391967773438 979.2755737304688 563.8568725585938 979.0696411132813 562.9622802734375 C 978.9815063476563 562.6287841796875 978.9205322265625 562.3099975585938 979.119384765625 562.070556640625 C 979.3042602539063 561.8474731445313 979.60546875 561.8289794921875 979.9240112304688 561.8289794921875 L 980.3140258789063 561.8289794921875 C 980.6363525390625 561.8289794921875 980.8557739257813 561.856201171875 981.0233154296875 561.9953002929688 L 981.02587890625 561.9973754882813 L 981.0283813476563 561.9995727539063 C 981.1638793945313 562.1150512695313 981.2435913085938 562.2821655273438 981.3329467773438 562.6382446289063 L 981.3345336914063 562.6444091796875 L 981.3359375 562.6506958007813 L 982.3973999023438 567.3880004882813 L 984.6333618164063 567.3880004882813 C 984.7948608398438 566.6740112304688 984.96142578125 565.94384765625 985.1296997070313 565.2119140625 C 985.3229370117188 564.37060546875 985.5344848632813 563.4971313476563 985.7583618164063 562.6159057617188 C 985.8470458984375 562.2791748046875 985.92919921875 562.11328125 986.0626220703125 561.9995727539063 L 986.0651245117188 561.9973754882813 L 986.0676879882813 561.9953002929688 C 986.2344970703125 561.8568115234375 986.4547119140625 561.8289794921875 986.7559814453125 561.8289794921875 L 987.4739990234375 561.8289794921875 C 987.775146484375 561.8289794921875 987.9953002929688 561.8567504882813 988.162109375 561.9951171875 L 988.1649169921875 561.9973754882813 L 988.1676635742188 561.999755859375 C 988.3275146484375 562.13623046875 988.396484375 562.343994140625 988.4550170898438 562.6345825195313 L 989.5342407226563 567.3880004882813 L 991.7914428710938 567.3880004882813 C 991.9541625976563 566.666015625 992.1286010742188 565.9232788085938 992.3112182617188 565.174560546875 C 992.525390625 564.297607421875 992.7281494140625 563.427978515625 992.913818359375 562.58984375 C 992.97509765625 562.3045043945313 993.0413818359375 562.1123657226563 993.197021484375 561.984130859375 L 993.2006225585938 561.981201171875 L 993.2042236328125 561.9783325195313 C 993.3616333007813 561.8533935546875 993.5616455078125 561.8289794921875 993.85400390625 561.8289794921875 L 994.3460083007813 561.8289794921875 C 994.632080078125 561.8289794921875 994.903564453125 561.8468017578125 995.0809326171875 562.0620727539063 L 995.0859985351563 562.0682373046875 L 995.0908813476563 562.0745849609375 C 995.25927734375 562.2928466796875 995.2192993164063 562.564208984375 995.1639404296875 562.8234252929688 L 995.1625366210938 562.830078125 L 995.1609497070313 562.836669921875 L 994.0585327148438 567.3880004882813 L 995.5770263671875 567.3880004882813 C 995.8234252929688 567.3880004882813 995.99462890625 567.4091186523438 996.1405639648438 567.5171508789063 C 996.385009765625 567.7007446289063 996.385009765625 568.00927734375 996.385009765625 568.1749877929688 L 996.385009765625 568.4829711914063 C 996.385009765625 568.6314086914063 996.385009765625 568.9383544921875 996.14306640625 569.1189575195313 C 995.9978637695313 569.2283935546875 995.824951171875 569.25 995.5770263671875 569.25 L 993.6515502929688 569.25 C 993.3738403320313 570.3902587890625 993.0989990234375 571.5485229492188 992.8331909179688 572.6986083984375 C 992.53369140625 573.994140625 992.2265625 575.2846069335938 991.9203491210938 576.5339965820313 C 991.8588256835938 576.8201904296875 991.7915649414063 577.0116577148438 991.6349487304688 577.1383666992188 C 991.4772338867188 577.2666015625 991.2833862304688 577.291015625 990.9819946289063 577.291015625 Z M 982.790283203125 569.25 C 982.9728393554688 570.0309448242188 983.1508178710938 570.7907104492188 983.32373046875 571.52783203125 C 983.3892822265625 571.8062744140625 983.4554443359375 572.0877685546875 983.522216796875 572.3721923828125 L 984.2750854492188 569.25 L 982.790283203125 569.25 Z M 989.9296875 569.25 C 990.11181640625 570.0322875976563 990.2900390625 570.7954711914063 990.4638671875 571.5392456054688 C 990.5264282226563 571.8080444335938 990.5895385742188 572.0790405273438 990.6533203125 572.3525390625 L 991.376953125 569.25 L 989.9296875 569.25 Z M 986.8524780273438 567.3880004882813 L 987.3147583007813 567.3880004882813 C 987.2354125976563 567.051025390625 987.1582641601563 566.7239379882813 987.0830078125 566.4071655273438 C 987.00439453125 566.7408447265625 986.927490234375 567.0679321289063 986.8524780273438 567.3880004882813 Z" stroke="none"/>
        <path d="M 979.9240112304688 562.3289794921875 C 979.6790161132813 562.3289794921875 979.5380249023438 562.3489990234375 979.5040283203125 562.3900146484375 C 979.469970703125 562.4310302734375 979.4860229492188 562.5819702148438 979.5549926757813 562.8419799804688 C 979.7470092773438 563.676025390625 979.93798828125 564.52099609375 980.1300048828125 565.375 C 980.3209838867188 566.22998046875 980.5120239257813 567.0679931640625 980.7039794921875 567.8880004882813 L 978.5700073242188 567.8880004882813 C 978.4199829101563 567.8880004882813 978.3350219726563 567.8989868164063 978.3140258789063 567.9190063476563 C 978.2940063476563 567.9400024414063 978.2839965820313 568.0250244140625 978.2839965820313 568.1749877929688 L 978.2839965820313 568.4630126953125 C 978.2839965820313 568.6129760742188 978.2940063476563 568.698974609375 978.3140258789063 568.718994140625 C 978.3350219726563 568.739990234375 978.4199829101563 568.75 978.5700073242188 568.75 L 980.9089965820313 568.75 L 982.6740112304688 576.4019775390625 C 982.7150268554688 576.593017578125 982.7559814453125 576.7059936523438 982.7969970703125 576.739990234375 C 982.8369750976563 576.7739868164063 982.9539794921875 576.791015625 983.14501953125 576.791015625 L 983.760009765625 576.791015625 C 983.9520263671875 576.791015625 984.0650024414063 576.7739868164063 984.0989990234375 576.739990234375 C 984.1329956054688 576.7059936523438 984.1710205078125 576.593017578125 984.2119750976563 576.4019775390625 C 984.5130004882813 575.1160278320313 984.8070068359375 573.8410034179688 985.093994140625 572.5759887695313 C 985.3809814453125 571.3109741210938 985.6820068359375 570.0360107421875 985.9970092773438 568.75 L 988.1300048828125 568.75 L 989.8740234375 576.4219970703125 C 989.9149780273438 576.614013671875 989.9530029296875 576.7230224609375 989.9869995117188 576.75 C 990.02099609375 576.7780151367188 990.1329956054688 576.791015625 990.3259887695313 576.791015625 L 990.9819946289063 576.791015625 C 991.1729736328125 576.791015625 991.2860107421875 576.7780151367188 991.3200073242188 576.75 C 991.35400390625 576.7230224609375 991.3920288085938 576.614013671875 991.4329833984375 576.4219970703125 C 991.7479858398438 575.1370239257813 992.052001953125 573.8579711914063 992.3460083007813 572.5859985351563 C 992.6400146484375 571.3140258789063 992.9439697265625 570.0360107421875 993.2589721679688 568.75 L 995.5770263671875 568.75 C 995.72802734375 568.75 995.8159790039063 568.739990234375 995.843017578125 568.718994140625 C 995.8709716796875 568.698974609375 995.885009765625 568.6199951171875 995.885009765625 568.4829711914063 L 995.885009765625 568.1749877929688 C 995.885009765625 568.0250244140625 995.8709716796875 567.9400024414063 995.843017578125 567.9190063476563 C 995.8159790039063 567.8989868164063 995.72802734375 567.8880004882813 995.5770263671875 567.8880004882813 L 993.4229736328125 567.8880004882813 L 994.6749877929688 562.718994140625 C 994.7160034179688 562.5269775390625 994.7219848632813 562.4149780273438 994.6950073242188 562.3800048828125 C 994.6669921875 562.3460083007813 994.551025390625 562.3289794921875 994.3460083007813 562.3289794921875 L 993.85400390625 562.3289794921875 C 993.6619873046875 562.3289794921875 993.5490112304688 562.343017578125 993.5150146484375 562.3699951171875 C 993.4810180664063 562.3980102539063 993.4429931640625 562.5070190429688 993.4019775390625 562.697998046875 C 993.2109985351563 563.5599975585938 993.0089721679688 564.4249877929688 992.7969970703125 565.2930297851563 C 992.5850219726563 566.1619873046875 992.3829956054688 567.0269775390625 992.1920166015625 567.8880004882813 L 989.135009765625 567.8880004882813 L 987.9660034179688 562.739013671875 C 987.9249877929688 562.5339965820313 987.8839721679688 562.4149780273438 987.843017578125 562.3800048828125 C 987.802001953125 562.3460083007813 987.6790161132813 562.3289794921875 987.4739990234375 562.3289794921875 L 986.7559814453125 562.3289794921875 C 986.551025390625 562.3289794921875 986.427978515625 562.3460083007813 986.3870239257813 562.3800048828125 C 986.3460083007813 562.4149780273438 986.2969970703125 562.5339965820313 986.2429809570313 562.739013671875 C 986.0239868164063 563.6010131835938 985.8150024414063 564.4619750976563 985.6170043945313 565.323974609375 C 985.4190063476563 566.1849975585938 985.2239990234375 567.041015625 985.0330200195313 567.8880004882813 L 981.9970092773438 567.8880004882813 L 980.8480224609375 562.760009765625 C 980.7930297851563 562.541015625 980.7449951171875 562.4149780273438 980.7039794921875 562.3800048828125 C 980.6630249023438 562.3460083007813 980.5330200195313 562.3289794921875 980.3140258789063 562.3289794921875 L 979.9240112304688 562.3289794921875 M 987.9459838867188 567.8880004882813 L 986.2219848632813 567.8880004882813 C 986.3590087890625 567.301025390625 986.5029907226563 566.68798828125 986.6530151367188 566.052001953125 C 986.802978515625 565.416015625 986.947021484375 564.8049926757813 987.083984375 564.2160034179688 C 987.2340087890625 564.8729858398438 987.3779907226563 565.4879760742188 987.5150146484375 566.06298828125 C 987.6519775390625 566.6370239257813 987.7949829101563 567.2459716796875 987.9459838867188 567.8880004882813 M 983.5150146484375 574.5349731445313 C 983.281982421875 573.5369873046875 983.0560302734375 572.572998046875 982.8369750976563 571.6420288085938 C 982.6190185546875 570.7130126953125 982.3930053710938 569.7479858398438 982.1599731445313 568.75 L 984.9099731445313 568.75 L 983.5150146484375 574.5349731445313 M 990.6530151367188 574.5549926757813 C 990.4210205078125 573.5570068359375 990.1950073242188 572.5900268554688 989.9769897460938 571.6530151367188 C 989.7579956054688 570.7160034179688 989.531982421875 569.7479858398438 989.2999877929688 568.75 L 992.0070190429688 568.75 L 990.6530151367188 574.5549926757813 M 979.9240112304688 561.3289794921875 L 980.3140258789063 561.3289794921875 C 980.6475830078125 561.3289794921875 981.0296630859375 561.3507080078125 981.3427124023438 561.6105346679688 L 981.3477783203125 561.6148071289063 L 981.3528442382813 561.6190795898438 C 981.6068725585938 561.835693359375 981.7191162109375 562.123046875 981.8179321289063 562.5164794921875 L 981.821044921875 562.5288696289063 L 981.8238525390625 562.5413818359375 L 982.7977294921875 566.8880004882813 L 984.2339477539063 566.8880004882813 C 984.3677368164063 566.2984008789063 984.5045166015625 565.69970703125 984.6424560546875 565.099853515625 C 984.8364868164063 564.2549438476563 985.0489501953125 563.3777465820313 985.2737426757813 562.4927978515625 L 985.2748413085938 562.488525390625 L 985.2760009765625 562.4842529296875 C 985.3720703125 562.11962890625 985.4874267578125 561.8329467773438 985.7381591796875 561.6190795898438 L 985.7432250976563 561.6148071289063 L 985.748291015625 561.6105346679688 C 986.0464477539063 561.3630981445313 986.4088134765625 561.3289794921875 986.7559814453125 561.3289794921875 L 987.4739990234375 561.3289794921875 C 987.8209838867188 561.3289794921875 988.1831665039063 561.363037109375 988.4812622070313 561.6101684570313 L 988.48681640625 561.6148071289063 L 988.4923095703125 561.6195068359375 C 988.7881469726563 561.8720703125 988.8815307617188 562.220703125 988.9439697265625 562.530029296875 L 989.9334106445313 566.8880004882813 L 991.3922729492188 566.8880004882813 C 991.5298461914063 566.286865234375 991.6748657226563 565.6734619140625 991.8255004882813 565.0560302734375 C 992.0386352539063 564.18310546875 992.2404174804688 563.31787109375 992.4251098632813 562.4840087890625 C 992.4901123046875 562.1822509765625 992.584716796875 561.8408203125 992.8790893554688 561.5982666015625 L 992.8861694335938 561.5924072265625 L 992.8934326171875 561.586669921875 C 993.1930541992188 561.348876953125 993.54638671875 561.3289794921875 993.85400390625 561.3289794921875 L 994.3460083007813 561.3289794921875 C 994.6181640625 561.3289794921875 995.124755859375 561.3289794921875 995.466796875 561.744140625 L 995.4769897460938 561.7565307617188 L 995.4867553710938 561.7691650390625 C 995.8107299804688 562.1890869140625 995.7041625976563 562.6881103515625 995.6528930664063 562.9279174804688 L 995.6500854492188 562.9412231445313 L 995.6469116210938 562.9544067382813 L 994.694091796875 566.8880004882813 L 995.5770263671875 566.8880004882813 C 995.8648071289063 566.8880004882813 996.1683349609375 566.91552734375 996.4381713867188 567.1154174804688 L 996.4407958984375 567.1173095703125 L 996.443359375 567.1192626953125 C 996.885009765625 567.4508056640625 996.885009765625 567.9769287109375 996.885009765625 568.1749877929688 L 996.885009765625 568.4829711914063 C 996.885009765625 568.6588745117188 996.885009765625 569.1900634765625 996.4413452148438 569.520263671875 C 996.15869140625 569.7319946289063 995.847412109375 569.75 995.5770263671875 569.75 L 994.044677734375 569.75 C 993.7990112304688 570.7646484375 993.5560913085938 571.7910766601563 993.3203125 572.8112182617188 C 993.0209350585938 574.1064453125 992.7139282226563 575.3964233398438 992.40771484375 576.645751953125 C 992.3424682617188 576.948486328125 992.24560546875 577.2879638671875 991.9486083984375 577.5277099609375 C 991.6486206054688 577.7705078125 991.2926025390625 577.791015625 990.9819946289063 577.791015625 L 990.3259887695313 577.791015625 C 990.0149536132813 577.791015625 989.6583862304688 577.7705078125 989.3583984375 577.5277099609375 C 989.0585327148438 577.2857055664063 988.9627075195313 576.94189453125 988.8973999023438 576.6370239257813 L 987.331787109375 569.75 L 986.782958984375 569.75 C 986.5354614257813 570.7752075195313 986.296142578125 571.7969970703125 986.0692138671875 572.7972412109375 C 985.7857666015625 574.0467529296875 985.4891967773438 575.333251953125 985.1876831054688 576.621337890625 C 985.114013671875 576.9619750976563 985.0201416015625 577.2330322265625 984.8060913085938 577.4470825195313 C 984.5038452148438 577.7493286132813 984.1246948242188 577.791015625 983.760009765625 577.791015625 L 983.14501953125 577.791015625 C 982.8057250976563 577.791015625 982.4508056640625 577.7562255859375 982.152587890625 577.504638671875 C 981.8710327148438 577.2677612304688 981.7671508789063 576.9395751953125 981.6978149414063 576.6190795898438 L 980.1134033203125 569.75 L 978.5700073242188 569.75 C 978.3466796875 569.75 977.9309692382813 569.75 977.6070556640625 569.42626953125 C 977.2839965820313 569.1031494140625 977.2839965820313 568.686767578125 977.2839965820313 568.4630126953125 L 977.2839965820313 568.1749877929688 C 977.2839965820313 567.9566040039063 977.2839965820313 567.550048828125 977.5903930664063 567.2288208007813 L 977.6068115234375 567.2116088867188 L 977.6240234375 567.1951904296875 C 977.9462890625 566.8880004882813 978.3519897460938 566.8880004882813 978.5700073242188 566.8880004882813 L 979.4464111328125 566.8880004882813 C 979.3512573242188 566.4712524414063 979.2542114257813 566.04150390625 979.154052734375 565.593017578125 C 978.9873657226563 564.8516235351563 978.7891845703125 563.9730224609375 978.5841064453125 563.0821533203125 C 978.5010375976563 562.7683715820313 978.3595581054688 562.202880859375 978.7347412109375 561.7510986328125 C 979.0845336914063 561.3289794921875 979.6100463867188 561.3289794921875 979.9240112304688 561.3289794921875 Z" stroke="none" fill="#383838"/>
      </g>
    </g>
    <path id="패스_1022" data-name="패스 1022" d="M1009.569,587.941A24.26,24.26,0,0,0,998.5,576.148" fill="none" stroke="#383838" stroke-linejoin="round" stroke-width="1" stroke-dasharray="0.959 0.959 0.959 0.959 0.959 0.959"/>
    <path id="패스_1023" data-name="패스 1023" d="M964.533,587.941A24.26,24.26,0,0,1,975.6,576.148" fill="none" stroke="#383838" stroke-linejoin="round" stroke-width="1" stroke-dasharray="0.959 0.959 0.959 0.959 0.959 0.959"/>
  </g>
</svg>
