<svg id="그룹_1670" data-name="그룹 1670" xmlns="http://www.w3.org/2000/svg" width="66.313" height="63.24" viewBox="0 0 66.313 63.24">
  <g id="그룹_461" data-name="그룹 461" transform="translate(0.442 14.02)">
    <path id="패스_368" data-name="패스 368" d="M385.87,349.567V333.2l-1.57-.508a5.531,5.531,0,0,1-4.741-6.22l2.534-18.74a8.019,8.019,0,0,1,15.958,1.412l-5.67-3.506a5.377,5.377,0,0,0-2.889-.862,4.372,4.372,0,0,0-3.929,2.243,4.967,4.967,0,0,0,2.5,6.642l8.83,4.3-2.145,15.867v15.736" transform="translate(-379.508 -300.789)" fill="#e6e6e6"/>
  </g>
  <g id="그룹_462" data-name="그룹 462" transform="translate(5.989 18.009)">
    <path id="패스_369" data-name="패스 369" d="M411.058,321.616h0a3.564,3.564,0,0,1-4.651,1.156L388.8,314.195a4.97,4.97,0,0,1-2.5-6.643h0a4.744,4.744,0,0,1,6.819-1.383l16.941,10.475A3.637,3.637,0,0,1,411.058,321.616Z" transform="translate(-385.793 -305.309)" fill="#e6e6e6"/>
  </g>
  <g id="그룹_463" data-name="그룹 463" transform="translate(47.325 14.02)">
    <path id="패스_370" data-name="패스 370" d="M435.936,349.567V333.831L433.783,317.9l8.706-4.239a4.972,4.972,0,0,0,2.5-6.642,4.372,4.372,0,0,0-3.929-2.243,5.377,5.377,0,0,0-2.891.862l-5.535,3.422a8.017,8.017,0,0,1,15.958-1.328l2.534,18.74a5.528,5.528,0,0,1-4.738,6.22l-1.573.508v16.367" transform="translate(-432.629 -300.789)" fill="#e6e6e6"/>
  </g>
  <g id="그룹_464" data-name="그룹 464" transform="translate(34.341 18.009)">
    <path id="패스_371" data-name="패스 371" d="M418.5,321.616h0a3.564,3.564,0,0,0,4.651,1.156l17.607-8.578a4.969,4.969,0,0,0,2.5-6.643h0a4.744,4.744,0,0,0-6.819-1.383L419.5,316.644A3.638,3.638,0,0,0,418.5,321.616Z" transform="translate(-417.917 -305.309)" fill="#e6e6e6"/>
  </g>
  <g id="그룹_466" data-name="그룹 466" transform="translate(24.366 62.799)">
    <g id="그룹_465" data-name="그룹 465">
      <path id="패스_372" data-name="패스 372" d="M406.615,356.058" transform="translate(-406.615 -356.058)" fill="none" stroke="#383838" stroke-linecap="round" stroke-linejoin="round" stroke-width="1"/>
    </g>
  </g>
  <g id="그룹_468" data-name="그룹 468" transform="translate(24.366 62.799)">
    <g id="그룹_467" data-name="그룹 467">
      <path id="패스_373" data-name="패스 373" d="M406.615,356.058" transform="translate(-406.615 -356.058)" fill="none" stroke="#383838" stroke-linecap="round" stroke-linejoin="round" stroke-width="1"/>
    </g>
  </g>
  <g id="그룹_470" data-name="그룹 470" transform="translate(24.366 62.799)">
    <g id="그룹_469" data-name="그룹 469">
      <path id="패스_374" data-name="패스 374" d="M406.615,356.058" transform="translate(-406.615 -356.058)" fill="none" stroke="#383838" stroke-linecap="round" stroke-linejoin="round" stroke-width="1"/>
    </g>
  </g>
  <g id="그룹_471" data-name="그룹 471" transform="translate(30.819 15.407)">
    <path id="패스_375" data-name="패스 375" d="M417.123,305.385l.93,8.753-2.007,7.2-.558-2.079a2.974,2.974,0,0,0,.3-.222,3.032,3.032,0,0,0,.521-4.1l-2.032-2.827.716-6.727-.612-1.717-.459-1.308H418.2l-.462,1.308Z" transform="translate(-413.927 -302.36)" fill="#15376c"/>
  </g>
  <g id="그룹_472" data-name="그룹 472" transform="translate(27.662 13.249)">
    <path id="패스_376" data-name="패스 376" d="M415.625,321.492h0a.44.44,0,0,1-.424-.327l-.558-2.08a.44.44,0,0,1,.194-.49,2.223,2.223,0,0,0,.254-.186,2.593,2.593,0,0,0,.446-3.5l-2.9-4.033a.449.449,0,0,1-.072-.164l-2.2-10.262a.441.441,0,0,1,.863-.185l2.185,10.172,2.843,3.957a3.43,3.43,0,0,1,.5.99l.46-1.651,3.029-13.263a.447.447,0,0,1,.528-.331.44.44,0,0,1,.331.529l-3.032,13.283-2.012,7.221A.442.442,0,0,1,415.625,321.492Zm-.052-2.339.06.225.1-.358c-.026.023-.052.045-.079.068S415.6,319.132,415.573,319.153Z" transform="translate(-410.35 -299.914)" fill="#383838"/>
  </g>
  <g id="그룹_475" data-name="그룹 475" transform="translate(5.755 0.164)">
    <g id="그룹_473" data-name="그룹 473" transform="translate(0.588 0.586)">
      <path id="패스_377" data-name="패스 377" d="M392.835,299.013a6.7,6.7,0,0,1-.9-.061,6.629,6.629,0,0,1,.877-13.2,6.839,6.839,0,0,1,.9.061,6.629,6.629,0,0,1-.877,13.2Z" transform="translate(-386.194 -285.753)" fill="#ffcd73"/>
    </g>
    <g id="그룹_474" data-name="그룹 474">
      <path id="패스_378" data-name="패스 378" d="M392.76,299.522a7.363,7.363,0,0,1-.981-.066,7.226,7.226,0,0,1-6.185-8.119h0a7.216,7.216,0,1,1,7.166,8.185Zm-6.292-8.067a6.334,6.334,0,1,0,2.439-4.19,6.341,6.341,0,0,0-2.439,4.19Z" transform="translate(-385.528 -285.089)" fill="#383838"/>
    </g>
  </g>
  <g id="그룹_476" data-name="그룹 476" transform="translate(0 13.58)">
    <path id="패스_379" data-name="패스 379" d="M394.687,349.949a.442.442,0,0,1-.441-.441V333.773l2.107-15.611L387.808,314a5.884,5.884,0,0,1-3.009-3.445,4.851,4.851,0,0,1,.315-3.806,4.791,4.791,0,0,1,4.317-2.474,5.809,5.809,0,0,1,3.126.931l4.987,3.085a7.578,7.578,0,0,0-15.074-.559l-2.533,18.739A5.088,5.088,0,0,0,384.3,332.2l1.646.524a.443.443,0,0,1,.305.42v16.367a.441.441,0,1,1-.883,0V333.462l-1.264-.409a5.847,5.847,0,0,1-3.874-2.282,5.927,5.927,0,0,1-1.169-4.417l2.533-18.739a8.46,8.46,0,0,1,16.837,1.49.442.442,0,0,1-.235.371.436.436,0,0,1-.439-.014l-5.67-3.506a4.93,4.93,0,0,0-2.657-.8,3.92,3.92,0,0,0-3.54,2.011,3.969,3.969,0,0,0-.251,3.117,5,5,0,0,0,2.558,2.921l8.827,4.3a.443.443,0,0,1,.244.456l-2.144,15.867,0,15.677A.441.441,0,0,1,394.687,349.949Z" transform="translate(-379.007 -300.29)" fill="#383838"/>
  </g>
  <g id="그룹_477" data-name="그룹 477" transform="translate(5.546 17.568)">
    <path id="패스_380" data-name="패스 380" d="M408.051,323.579a4.08,4.08,0,0,1-1.91-.477l-17.594-8.571a5.881,5.881,0,0,1-3.009-3.445,4.846,4.846,0,0,1,.314-3.8,4.665,4.665,0,0,1,2.98-2.305,5.694,5.694,0,0,1,4.463.759l16.937,10.473a4.1,4.1,0,0,1,1.134,5.59h0A3.957,3.957,0,0,1,408.051,323.579Zm-17.883-17.889a4.377,4.377,0,0,0-1.113.141,3.793,3.793,0,0,0-2.425,1.869,3.972,3.972,0,0,0-.25,3.117,5,5,0,0,0,2.558,2.921l17.6,8.576a3.116,3.116,0,0,0,4.089-1h0a3.205,3.205,0,0,0-.882-4.366l-16.921-10.463A4.971,4.971,0,0,0,390.167,305.691Z" transform="translate(-385.291 -304.809)" fill="#383838"/>
  </g>
  <g id="그룹_480" data-name="그룹 480" transform="translate(46.123 0.164)">
    <g id="그룹_478" data-name="그룹 478" transform="translate(0.953 0.951)">
      <path id="패스_381" data-name="패스 381" d="M438.6,298.7a6.265,6.265,0,0,1-.829-12.473,6.385,6.385,0,0,1,.849-.057,6.265,6.265,0,0,1,.829,12.473A6.385,6.385,0,0,1,438.6,298.7Z" transform="translate(-432.347 -286.166)" fill="#ffcd73"/>
    </g>
    <g id="그룹_479" data-name="그룹 479">
      <path id="패스_382" data-name="패스 382" d="M438.481,299.522a7.219,7.219,0,1,1,.971-.065A7.228,7.228,0,0,1,438.481,299.522Zm.018-13.553a6.64,6.64,0,0,0-.863.058,6.334,6.334,0,1,0,7.127,5.429h0a6.336,6.336,0,0,0-6.264-5.487Z" transform="translate(-431.267 -285.089)" fill="#383838"/>
    </g>
  </g>
  <g id="그룹_481" data-name="그룹 481" transform="translate(46.882 13.578)">
    <path id="패스_383" data-name="패스 383" d="M444.755,349.949a.441.441,0,0,1-.441-.441V333.141a.443.443,0,0,1,.305-.42l1.573-.507a5.141,5.141,0,0,0,3.444-1.977,5.05,5.05,0,0,0,.992-3.763l-2.534-18.74a7.577,7.577,0,0,0-15.066.468l4.85-3a5.8,5.8,0,0,1,3.124-.928,4.791,4.791,0,0,1,4.316,2.474,4.857,4.857,0,0,1,.313,3.807A5.879,5.879,0,0,1,442.625,314l-8.422,4.1,2.111,15.613,0,15.8a.441.441,0,0,1-.883,0V333.773L433.286,317.9a.442.442,0,0,1,.244-.455l8.706-4.239a5,5,0,0,0,2.553-2.919,3.977,3.977,0,0,0-.249-3.119,3.92,3.92,0,0,0-3.539-2.01,4.93,4.93,0,0,0-2.655.793l-5.541,3.425a.441.441,0,0,1-.673-.36,8.458,8.458,0,0,1,16.836-1.4l2.534,18.739a5.968,5.968,0,0,1-5.116,6.717l-1.19.389v16.048A.441.441,0,0,1,444.755,349.949Z" transform="translate(-432.128 -300.288)" fill="#383838"/>
  </g>
  <g id="그룹_482" data-name="그룹 482" transform="translate(46.882 13.578)">
    <path id="패스_384" data-name="패스 384" d="M444.755,349.949a.441.441,0,0,1-.441-.441V333.141a.443.443,0,0,1,.305-.42l1.573-.507a5.141,5.141,0,0,0,3.444-1.977,5.05,5.05,0,0,0,.992-3.763l-2.534-18.74a7.577,7.577,0,0,0-15.066.468l4.85-3a5.8,5.8,0,0,1,3.124-.928,4.791,4.791,0,0,1,4.316,2.474,4.857,4.857,0,0,1,.313,3.807A5.879,5.879,0,0,1,442.625,314l-8.422,4.1,2.111,15.613,0,15.8a.441.441,0,0,1-.883,0V333.773L433.286,317.9a.442.442,0,0,1,.244-.455l8.706-4.239a5,5,0,0,0,2.553-2.919,3.977,3.977,0,0,0-.249-3.119,3.92,3.92,0,0,0-3.539-2.01,4.93,4.93,0,0,0-2.655.793l-5.541,3.425a.441.441,0,0,1-.673-.36,8.458,8.458,0,0,1,16.836-1.4l2.534,18.739a5.968,5.968,0,0,1-5.116,6.717l-1.19.389v16.048A.441.441,0,0,1,444.755,349.949Z" transform="translate(-432.128 -300.288)" fill="#383838"/>
  </g>
  <g id="그룹_490" data-name="그룹 490" transform="translate(23.637 0)">
    <g id="그룹_483" data-name="그룹 483" transform="translate(3.007 0.75)">
      <path id="패스_385" data-name="패스 385" d="M415.513,298.385a6.316,6.316,0,1,1,6.315-6.316A6.324,6.324,0,0,1,415.513,298.385Z" transform="translate(-409.196 -285.753)" fill="#ffcd73"/>
    </g>
    <g id="그룹_484" data-name="그룹 484" transform="translate(2.258)">
      <path id="패스_386" data-name="패스 386" d="M415.412,299.034a7.065,7.065,0,1,1,7.065-7.065A7.073,7.073,0,0,1,415.412,299.034Zm0-13.248a6.183,6.183,0,1,0,6.182,6.183A6.189,6.189,0,0,0,415.412,285.786Z" transform="translate(-408.347 -284.903)" fill="#383838"/>
    </g>
    <g id="그룹_485" data-name="그룹 485" transform="translate(0 33.943)">
      <path id="패스_387" data-name="패스 387" d="M406.23,352.66a.442.442,0,0,1-.441-.441V323.8a.441.441,0,1,1,.882,0v28.415A.442.442,0,0,1,406.23,352.66Z" transform="translate(-405.789 -323.362)" fill="#383838"/>
    </g>
    <g id="그룹_486" data-name="그룹 486" transform="translate(6.741 14.965)">
      <path id="패스_388" data-name="패스 388" d="M417.078,305.763h-2.139a.441.441,0,0,1-.417-.294l-1.07-3.023a.44.44,0,0,1,.417-.588h4.279a.439.439,0,0,1,.417.588l-1.07,3.023A.441.441,0,0,1,417.078,305.763Zm-1.829-.883h1.518l.756-2.139h-3.031Z" transform="translate(-413.427 -301.859)" fill="#383838"/>
    </g>
    <g id="그룹_487" data-name="그룹 487" transform="translate(7.094 17.989)">
      <path id="패스_389" data-name="패스 389" d="M418.04,314.923a.442.442,0,0,1-.439-.4l-.875-8.359h-1.344l-.674,6.332a.427.427,0,0,1-.486.392.442.442,0,0,1-.392-.485l.717-6.727a.442.442,0,0,1,.439-.395h2.126a.456.456,0,0,1,.453.4l.916,8.753a.443.443,0,0,1-.394.485Z" transform="translate(-413.827 -305.286)" fill="#383838"/>
    </g>
    <g id="그룹_488" data-name="그룹 488" transform="translate(4.06 13.248)">
      <path id="패스_390" data-name="패스 390" d="M412.008,306.437a.433.433,0,0,1-.1-.011.442.442,0,0,1-.337-.339l-1.175-5.47a.586.586,0,0,1,.118-.49.579.579,0,0,1,.451-.214H412.9a.44.44,0,0,1,.416.294l1.07,3.025a.443.443,0,0,1-.063.412l-1.96,2.616A.442.442,0,0,1,412.008,306.437Zm-.665-5.64.892,4.159,1.237-1.651-.887-2.507Z" transform="translate(-410.389 -299.914)" fill="#383838"/>
    </g>
    <g id="그룹_489" data-name="그룹 489" transform="translate(10.571 13.248)">
      <path id="패스_391" data-name="패스 391" d="M420.264,306.618a.442.442,0,0,1-.356-.18l-2.056-2.8a.442.442,0,0,1-.06-.409l1.071-3.025a.441.441,0,0,1,.416-.294h1.989a.707.707,0,0,1,.688.867l-1.26,5.494a.442.442,0,0,1-.342.334A.432.432,0,0,1,420.264,306.618Zm-1.562-3.311,1.348,1.832,1-4.342h-1.455Zm2.393-2.725h0Z" transform="translate(-417.766 -299.914)" fill="#383838"/>
    </g>
  </g>
  <g id="그룹_491" data-name="그룹 491" transform="translate(23.637 33.943)">
    <path id="패스_392" data-name="패스 392" d="M406.23,352.66a.442.442,0,0,1-.441-.441V323.8a.441.441,0,1,1,.882,0v28.415A.442.442,0,0,1,406.23,352.66Z" transform="translate(-405.789 -323.362)" fill="#383838"/>
  </g>
  <g id="그룹_492" data-name="그룹 492" transform="translate(41.226 33.943)">
    <path id="패스_393" data-name="패스 393" d="M426.16,352.66a.441.441,0,0,1-.441-.441V323.8a.441.441,0,1,1,.882,0v28.415A.442.442,0,0,1,426.16,352.66Z" transform="translate(-425.719 -323.362)" fill="#383838"/>
  </g>
  <g id="그룹_493" data-name="그룹 493" transform="translate(32.632 45.501)">
    <path id="패스_394" data-name="패스 394" d="M416.422,354.2a.442.442,0,0,1-.441-.441V336.9a.441.441,0,1,1,.882,0v16.856A.441.441,0,0,1,416.422,354.2Z" transform="translate(-415.981 -336.459)" fill="#383838"/>
  </g>
  <g id="그룹_494" data-name="그룹 494" transform="translate(27.256 19.878)">
    <path id="패스_395" data-name="패스 395" d="M414.463,320.574a.441.441,0,0,1-.158-.853,2.548,2.548,0,0,0,.728-.428,2.59,2.59,0,0,0,.448-3.5l-5.508-7.666a.441.441,0,0,1,.717-.515l5.507,7.665a3.475,3.475,0,0,1-1.575,5.27A.438.438,0,0,1,414.463,320.574Z" transform="translate(-409.89 -307.426)" fill="#383838"/>
  </g>
  <g id="그룹_495" data-name="그룹 495" transform="translate(41.225 32.081)">
    <path id="패스_396" data-name="패스 396" d="M426.158,352.411a.441.441,0,0,1-.441-.441V326.645a.442.442,0,0,1,.441-.441h.253a3.178,3.178,0,0,0,.659-.067,3.277,3.277,0,0,0,2.61-3.2v-1.243a.441.441,0,1,1,.883,0v1.243A4.165,4.165,0,0,1,427.25,327a4.035,4.035,0,0,1-.65.081V351.97A.441.441,0,0,1,426.158,352.411Z" transform="translate(-425.717 -321.253)" fill="#383838"/>
  </g>
  <g id="그룹_496" data-name="그룹 496" transform="translate(19.678 13.248)">
    <path id="패스_397" data-name="패스 397" d="M404.358,311.8a.441.441,0,0,1-.343-.164l-1.176-1.448a6.2,6.2,0,0,1-1.537-4.079,6.2,6.2,0,0,1,6.194-6.195l12.177.009a8.345,8.345,0,0,1,5.573,2.44,8.551,8.551,0,0,1,1.143,1.431c.049.074.1.155.148.237a8.373,8.373,0,0,1,1.159,4.25v1.728a.441.441,0,1,1-.883,0v-1.728a7.487,7.487,0,0,0-1.037-3.8c-.041-.069-.084-.139-.128-.206a7.668,7.668,0,0,0-1.027-1.288,7.465,7.465,0,0,0-4.976-2.182l-.327-.008H407.5a5.318,5.318,0,0,0-5.311,5.312,5.313,5.313,0,0,0,1.328,3.509l1.186,1.463a.441.441,0,0,1-.342.719Z" transform="translate(-401.303 -299.914)" fill="#383838"/>
  </g>
  <g id="그룹_497" data-name="그룹 497" transform="translate(27.256 19.878)">
    <path id="패스_398" data-name="패스 398" d="M415.013,320.295a.442.442,0,0,1-.232-.817,2.223,2.223,0,0,0,.254-.186,2.591,2.591,0,0,0,.446-3.5l-5.508-7.666a.441.441,0,0,1,.717-.515l5.507,7.665a3.472,3.472,0,0,1-.6,4.7,3.264,3.264,0,0,1-.354.259A.438.438,0,0,1,415.013,320.295Z" transform="translate(-409.89 -307.426)" fill="#383838"/>
  </g>
  <g id="그룹_498" data-name="그룹 498" transform="translate(33.905 17.568)">
    <path id="패스_399" data-name="패스 399" d="M421.394,323.582a3.962,3.962,0,0,1-3.318-1.783h0a4.1,4.1,0,0,1,1.115-5.579l16.961-10.488a5.7,5.7,0,0,1,4.459-.756,4.665,4.665,0,0,1,2.98,2.305,4.846,4.846,0,0,1,.314,3.8,5.877,5.877,0,0,1-3.006,3.443l-17.61,8.579A4.06,4.06,0,0,1,421.394,323.582Zm17.88-17.891a4.969,4.969,0,0,0-2.654.79l-16.945,10.479a3.2,3.2,0,0,0-.862,4.354h0a3.109,3.109,0,0,0,4.076,1.008l17.62-8.584a5,5,0,0,0,2.555-2.919,3.972,3.972,0,0,0-.25-3.117,3.793,3.793,0,0,0-2.425-1.869A4.384,4.384,0,0,0,439.274,305.691Z" transform="translate(-417.423 -304.809)" fill="#383838"/>
  </g>
  <g id="그룹_499" data-name="그룹 499" transform="translate(32.048 35.694)">
    <path id="패스_400" data-name="패스 400" d="M415.345,325.346l.019.037-.045,0C415.328,325.374,415.336,325.36,415.345,325.346Z" transform="translate(-415.319 -325.346)" fill="#e6e6e6"/>
  </g>
  <g id="그룹_500" data-name="그룹 500" transform="translate(33.682 35.46)">
    <path id="패스_401" data-name="패스 401" d="M417.265,325.081s.056.065.163.172l-.257.014Z" transform="translate(-417.171 -325.081)" fill="#e6e6e6"/>
  </g>
</svg>
