<svg xmlns="http://www.w3.org/2000/svg" width="68.708" height="69.673" viewBox="0 0 68.708 69.673">
  <g id="그룹_1390" data-name="그룹 1390" transform="translate(0.5 0.5)">
    <path id="패스_891" data-name="패스 891" d="M853.476,111.23a31.167,31.167,0,0,1-3.46-.36l-.072-.014q-.249-.045-.468-.092c-.88-.193-1.4-.423-1.4-.671v-5.8l-8.055-3.646a.212.212,0,0,1,0-.387l5.351-2.42-.751-1.243-3.488-3.764H819.943L812.19,101.2a21.363,21.363,0,0,0,15.667,35.885h5.366a21.364,21.364,0,0,0,21.362-21.362,21.7,21.7,0,0,0-.21-3.008Z" transform="translate(-806.495 -68.413)" fill="#e6e6e6"/>
    <path id="패스_892" data-name="패스 892" d="M821.761,82.108,812.71,65.753h36.882l-9.051,16.355Z" transform="translate(-807.106 -65.753)" fill="#e6e6e6"/>
    <path id="패스_893" data-name="패스 893" d="M854.375,112.716a21.835,21.835,0,0,1,.21,3.008,21.364,21.364,0,0,1-21.362,21.362h-5.366A21.363,21.363,0,0,1,812.19,101.2l7.752-8.366h21.195l3.488,3.764" transform="translate(-806.495 -68.413)" fill="none" stroke="#383838" stroke-linecap="round" stroke-linejoin="round" stroke-width="1"/>
    <rect id="사각형_350" data-name="사각형 350" width="18.398" height="3.767" transform="translate(14.847 18.703)" stroke-width="1" stroke="#383838" stroke-linecap="round" stroke-linejoin="round" fill="#f2f2f2"/>
    <path id="패스_894" data-name="패스 894" d="M812.954,65.753l8.909,16.355h18.625L849.4,65.753Z" transform="translate(-807.13 -65.753)" fill="none" stroke="#383838" stroke-linecap="round" stroke-linejoin="round" stroke-width="1"/>
    <path id="패스_895" data-name="패스 895" d="M876.494,100.264l-16.327-7.386a.2.2,0,0,0-.175,0l-16.327,7.386a.212.212,0,0,0,0,.387l8.055,3.646v5.8c0,.675,3.8,1.222,8.479,1.222s8.478-.547,8.478-1.222v-5.908l7.816-3.536A.212.212,0,0,0,876.494,100.264Z" transform="translate(-810.135 -68.416)" fill="#aae0ec"/>
    <path id="패스_896" data-name="패스 896" d="M876.494,100.651l-7.815,3.536V102.04c0-.675-3.8-1.222-8.479-1.222s-8.479.547-8.479,1.222V104.3l-8.055-3.646a.212.212,0,0,1,0-.387l16.327-7.386a.207.207,0,0,1,.176,0l16.326,7.386A.212.212,0,0,1,876.494,100.651Z" transform="translate(-810.135 -68.416)" fill="none" stroke="#383838" stroke-linecap="round" stroke-linejoin="round" stroke-width="1"/>
    <path id="패스_897" data-name="패스 897" d="M869.57,102.908c0-.675-3.8-1.223-8.479-1.223s-8.48.547-8.48,1.223v8.054c0,.675,3.8,1.222,8.479,1.222s8.479-.547,8.479-1.222v-8.054Z" transform="translate(-811.026 -69.283)" fill="none" stroke="#383838" stroke-linecap="round" stroke-linejoin="round" stroke-width="1"/>
    <path id="패스_898" data-name="패스 898" d="M869.57,111.84c0,.675-3.8,1.222-8.479,1.222s-8.48-.547-8.48-1.222,3.8-1.222,8.48-1.222S869.57,111.164,869.57,111.84Z" transform="translate(-811.026 -70.161)" fill="none" stroke="#383838" stroke-linecap="round" stroke-linejoin="round" stroke-width="1"/>
    <line id="선_56" data-name="선 56" y2="6.604" transform="translate(66.486 32.042)" fill="none" stroke="#383838" stroke-linecap="round" stroke-linejoin="round" stroke-width="1"/>
    <path id="패스_899" data-name="패스 899" d="M881.314,109.832a1.222,1.222,0,1,1-1.223-1.222A1.223,1.223,0,0,1,881.314,109.832Z" transform="translate(-813.606 -69.963)" fill="none" stroke="#383838" stroke-linecap="round" stroke-linejoin="round" stroke-width="1"/>
    <g id="그룹_1389" data-name="그룹 1389" transform="translate(15.632 39.869)">
      <g id="패스_900" data-name="패스 900" transform="translate(-823.83 -109.965)" fill="#ffcd73" stroke-miterlimit="10">
        <path d="M 835.9702758789063 124.2924575805664 L 835.3425903320313 124.2924575805664 C 835.05712890625 124.2924575805664 834.861328125 124.2678680419922 834.705322265625 124.1421890258789 C 834.5498657226563 124.0169906616211 834.4837646484375 123.8290252685547 834.4224853515625 123.5468826293945 L 832.8442993164063 116.604133605957 L 831.5964965820313 116.604133605957 C 831.3302612304688 117.7016220092773 831.0722045898438 118.7993011474609 830.8281860351563 119.8724899291992 C 830.5703125 121.0106658935547 830.2948608398438 122.2068710327148 829.9862060546875 123.5291061401367 C 829.92919921875 123.7910766601563 829.87060546875 123.9687728881836 829.7432861328125 124.095947265625 C 829.5813598632813 124.2588729858398 829.3554077148438 124.2924575805664 829.0664672851563 124.2924575805664 L 828.4776000976563 124.2924575805664 C 828.2053833007813 124.2924575805664 827.990234375 124.2644119262695 827.82568359375 124.1277465820313 C 827.6672973632813 123.9966888427734 827.5982055664063 123.8011016845703 827.5388793945313 123.5286636352539 L 825.942626953125 116.604133605957 L 824.1040649414063 116.604133605957 C 823.8810424804688 116.604133605957 823.6673583984375 116.5906143188477 823.504638671875 116.4272918701172 C 823.3434448242188 116.2659683227539 823.3300170898438 116.0522537231445 823.3300170898438 115.8290939331055 L 823.3300170898438 115.5549545288086 C 823.3300170898438 115.3361740112305 823.3427734375 115.1264038085938 823.4968872070313 114.964714050293 L 823.5007934570313 114.9605941772461 L 823.5048217773438 114.9565734863281 C 823.6675415039063 114.7934417724609 823.8811645507813 114.7799301147461 824.1040649414063 114.7799301147461 L 825.5145263671875 114.7799301147461 C 825.3789672851563 114.1926879882813 825.2423706054688 113.5919876098633 825.1067504882813 112.9870071411133 C 824.9309692382813 112.2022094726563 824.7470703125 111.3908920288086 824.56005859375 110.5754165649414 C 824.475341796875 110.2551879882813 824.4166870117188 109.948600769043 824.6046142578125 109.7123718261719 L 824.6106567382813 109.7047500610352 L 824.6170043945313 109.697380065918 C 824.7843627929688 109.5030212402344 825.0301513671875 109.4650039672852 825.3981323242188 109.4650039672852 L 825.7714233398438 109.4650039672852 C 826.0713500976563 109.4650039672852 826.2903442382813 109.4913330078125 826.455078125 109.6223678588867 L 826.4625854492188 109.6283340454102 L 826.4698486328125 109.6345672607422 C 826.6023559570313 109.7485122680664 826.6798706054688 109.9111099243164 826.7659912109375 110.2559432983398 L 826.7674560546875 110.2618103027344 L 826.768798828125 110.267707824707 L 827.780517578125 114.7799301147461 L 829.8834228515625 114.7799301147461 C 830.0650024414063 113.9782180786133 830.2128295898438 113.3299407958984 830.3538818359375 112.7168731689453 C 830.5445556640625 111.8867645263672 830.7469482421875 111.0512619018555 830.9553833007813 110.2337341308594 C 831.041748046875 109.9048004150391 831.1227416992188 109.7424011230469 831.255126953125 109.6310577392578 L 831.2603149414063 109.6266632080078 L 831.2656860351563 109.6224136352539 C 831.4298706054688 109.4917678833008 831.6498413085938 109.4650039672852 831.9295043945313 109.4650039672852 L 832.6157836914063 109.4650039672852 C 832.8986206054688 109.4650039672852 833.12060546875 109.4923400878906 833.28466796875 109.6257629394531 L 833.2879028320313 109.6283721923828 L 833.2910766601563 109.6310195922852 C 833.4498291015625 109.764533996582 833.5181884765625 109.9677963256836 833.5762329101563 110.2521591186523 L 834.6038818359375 114.7799301147461 L 836.7267456054688 114.7799301147461 C 836.8910522460938 114.0515594482422 837.0534057617188 113.3611145019531 837.2205810546875 112.6800231933594 C 837.4210815429688 111.8565826416016 837.6145629882813 111.026123046875 837.7955322265625 110.2125091552734 C 837.85595703125 109.9275360107422 837.9226684570313 109.7376403808594 838.083740234375 109.6112976074219 C 838.239013671875 109.4890670776367 838.4336547851563 109.4650039672852 838.716064453125 109.4650039672852 L 839.1859130859375 109.4650039672852 C 839.450439453125 109.4650039672852 839.7235107421875 109.4822540283203 839.900146484375 109.6883697509766 L 839.9099731445313 109.699821472168 L 839.9190673828125 109.7118377685547 C 840.0814819335938 109.9263687133789 840.0430908203125 110.1901245117188 839.98974609375 110.4418716430664 L 839.98828125 110.4489974975586 L 839.986572265625 110.4560775756836 L 838.938720703125 114.7799301147461 L 840.3635864257813 114.7799301147461 C 840.6066284179688 114.7799301147461 840.7756958007813 114.8014984130859 840.920654296875 114.9117813110352 C 841.1575927734375 115.0913772583008 841.1575927734375 115.3929443359375 841.1575927734375 115.5549545288086 L 841.1575927734375 115.8489227294922 C 841.1575927734375 115.9949493408203 841.1575927734375 116.297981262207 840.9146118164063 116.4767837524414 C 840.77099609375 116.583137512207 840.603271484375 116.604133605957 840.3635864257813 116.604133605957 L 838.5396118164063 116.604133605957 C 838.2694091796875 117.7133178710938 838.008056640625 118.8147964477539 837.7613525390625 119.8839492797852 C 837.4708251953125 121.1403350830078 837.17724609375 122.3738174438477 836.8887329101563 123.5503692626953 C 836.829833984375 123.8266143798828 836.7651977539063 124.0116806030273 836.613037109375 124.1377944946289 L 836.6077270507813 124.1421585083008 L 836.6023559570313 124.1463775634766 C 836.4464111328125 124.2685623168945 836.2525024414063 124.2924575805664 835.9702758789063 124.2924575805664 Z M 828.1663818359375 116.604133605957 C 828.3385620117188 117.3411178588867 828.50634765625 118.0584182739258 828.6703491210938 118.7552719116211 C 828.7259521484375 118.9915161132813 828.781982421875 119.2300643920898 828.8385009765625 119.4708938598633 L 829.5298461914063 116.604133605957 L 828.1663818359375 116.604133605957 Z M 834.9916381835938 116.604133605957 L 835.1595458984375 117.3238906860352 L 835.495849609375 118.7650680541992 L 835.6563110351563 119.452995300293 L 836.3204956054688 116.604133605957 L 834.9916381835938 116.604133605957 Z M 832.0496826171875 114.7799301147461 L 832.4362182617188 114.7799301147461 C 832.3701171875 114.4992141723633 832.3055419921875 114.2258605957031 832.242431640625 113.9597549438477 C 832.17822265625 114.2322692871094 832.1134643554688 114.5073165893555 832.0496826171875 114.7799301147461 Z" stroke="none"/>
        <path d="M 825.3981323242188 109.9650039672852 C 825.1636962890625 109.9650039672852 825.029296875 109.9848403930664 824.9959106445313 110.0236129760742 C 824.96435546875 110.0632934570313 824.9796752929688 110.2075729370117 825.0455322265625 110.4555511474609 C 825.2285766601563 111.2536010742188 825.4116821289063 112.0606689453125 825.5946655273438 112.8776626586914 C 825.7777709960938 113.6946411132813 825.9608154296875 114.4953994750977 826.1438598632813 115.2799301147461 L 824.1040649414063 115.2799301147461 C 823.9607543945313 115.2799301147461 823.8786010742188 115.2898483276367 823.8588256835938 115.3096771240234 C 823.8399047851563 115.3295288085938 823.8300170898438 115.4106674194336 823.8300170898438 115.5549545288086 L 823.8300170898438 115.8290939331055 C 823.8300170898438 115.9733734130859 823.8399047851563 116.0554275512695 823.8588256835938 116.0743637084961 C 823.8786010742188 116.0942077636719 823.9607543945313 116.104133605957 824.1040649414063 116.104133605957 L 826.3404541015625 116.104133605957 L 828.0267333984375 123.4191284179688 C 828.0664672851563 123.6021881103516 828.1051635742188 123.7104034423828 828.1448364257813 123.7428741455078 C 828.1836547851563 123.7753219604492 828.2945556640625 123.7924575805664 828.4776000976563 123.7924575805664 L 829.0664672851563 123.7924575805664 C 829.2495727539063 123.7924575805664 829.3577270507813 123.7753219604492 829.3892211914063 123.7428741455078 C 829.422607421875 123.7104034423828 829.458740234375 123.6021881103516 829.4984130859375 123.4191284179688 C 829.78515625 122.1909637451172 830.0664672851563 120.9717788696289 830.3406372070313 119.7616271972656 C 830.6156005859375 118.5523681640625 830.9033203125 117.3332138061523 831.20361328125 116.104133605957 L 833.243408203125 116.104133605957 L 834.9107055664063 123.4389724731445 C 834.9503784179688 123.6220245361328 834.9864501953125 123.7266311645508 835.0189208984375 123.7527770996094 C 835.0513916015625 123.7789306640625 835.15869140625 123.7924575805664 835.3425903320313 123.7924575805664 L 835.9702758789063 123.7924575805664 C 836.1533203125 123.7924575805664 836.2606201171875 123.7789306640625 836.2940063476563 123.7527770996094 C 836.3255615234375 123.7266311645508 836.362548828125 123.6220245361328 836.4012451171875 123.4389724731445 C 836.7024536132813 122.2107772827148 836.9928588867188 120.9880218505859 837.274169921875 119.7715377807617 C 837.5546264648438 118.5559844970703 837.8458862304688 117.3332138061523 838.1470336914063 116.104133605957 L 840.3635864257813 116.104133605957 C 840.5069580078125 116.104133605957 840.591796875 116.0942077636719 840.6178588867188 116.0743637084961 C 840.64404296875 116.0554275512695 840.6575927734375 115.9796905517578 840.6575927734375 115.8489227294922 L 840.6575927734375 115.5549545288086 C 840.6575927734375 115.4106674194336 840.64404296875 115.3295288085938 840.6178588867188 115.3096771240234 C 840.591796875 115.2898483276367 840.5069580078125 115.2799301147461 840.3635864257813 115.2799301147461 L 838.3031005859375 115.2799301147461 L 839.5006103515625 110.3383178710938 C 839.5393676757813 110.1552734375 839.5457153320313 110.0470581054688 839.5204467773438 110.0136871337891 C 839.493408203125 109.9821319580078 839.3825073242188 109.9650039672852 839.1859130859375 109.9650039672852 L 838.716064453125 109.9650039672852 C 838.5330810546875 109.9650039672852 838.4248657226563 109.9785308837891 838.3923950195313 110.0046844482422 C 838.3590087890625 110.0308303833008 838.3228759765625 110.1354293823242 838.2841796875 110.318489074707 C 838.10107421875 111.1417770385742 837.9081420898438 111.9696044921875 837.7061767578125 112.7992095947266 C 837.5023193359375 113.6297073364258 837.3102416992188 114.4566192626953 837.127197265625 115.2799301147461 L 834.2046508789063 115.2799301147461 L 833.0873413085938 110.3572616577148 C 833.0476684570313 110.1615829467773 833.0089111328125 110.0470581054688 832.96923828125 110.0136871337891 C 832.930419921875 109.9821319580078 832.8123168945313 109.9650039672852 832.6157836914063 109.9650039672852 L 831.9295043945313 109.9650039672852 C 831.7337646484375 109.9650039672852 831.6166381835938 109.9821319580078 831.5769653320313 110.0136871337891 C 831.5372924804688 110.0470581054688 831.4912719726563 110.1615829467773 831.4398803710938 110.3572616577148 C 831.229736328125 111.1814575195313 831.0304565429688 112.0047607421875 830.8411254882813 112.8289642333984 C 830.6517333984375 113.6522674560547 830.4660034179688 114.4701538085938 830.2828979492188 115.2799301147461 L 827.3801879882813 115.2799301147461 L 826.2808837890625 110.3770980834961 C 826.2286376953125 110.1679000854492 826.1826782226563 110.0470581054688 826.1438598632813 110.0136871337891 C 826.1041870117188 109.9821319580078 825.980712890625 109.9650039672852 825.7714233398438 109.9650039672852 L 825.3981323242188 109.9650039672852 M 833.0675048828125 115.2799301147461 L 831.4200439453125 115.2799301147461 C 831.5498657226563 114.718132019043 831.6878662109375 114.1328887939453 831.8312377929688 113.5251235961914 C 831.9754638671875 112.9164276123047 832.1126098632813 112.3320999145508 832.2432861328125 111.7694091796875 C 832.3876342773438 112.3970336914063 832.524658203125 112.9858703613281 832.6554565429688 113.535041809082 C 832.7861938476563 114.0841979980469 832.9232177734375 114.6658325195313 833.0675048828125 115.2799301147461 M 828.8310546875 121.6345672607422 C 828.6083984375 120.6805191040039 828.3928833007813 119.758918762207 828.1836547851563 118.8698043823242 C 827.9744262695313 117.9806671142578 827.7589111328125 117.0581817626953 827.5361938476563 116.104133605957 L 830.1647338867188 116.104133605957 L 828.8310546875 121.6345672607422 M 835.656494140625 121.6544036865234 C 835.4337158203125 120.7003479003906 835.2181396484375 119.7751617431641 835.0089721679688 118.8788070678711 C 834.7998046875 117.9833831787109 834.5842895507813 117.0581817626953 834.3615112304688 116.104133605957 L 836.9505004882813 116.104133605957 L 835.656494140625 121.6544036865234 M 825.3981323242188 108.9650039672852 L 825.7714233398438 108.9650039672852 C 826.0909423828125 108.9650039672852 826.4577026367188 108.9855575561523 826.766357421875 109.2310485839844 L 826.7813110351563 109.2429733276367 L 826.7958374023438 109.2554397583008 C 827.0457153320313 109.4702911376953 827.1552734375 109.7511901855469 827.2510986328125 110.1347808837891 L 827.2540283203125 110.1465072631836 L 827.2566528320313 110.1583099365234 L 828.1807861328125 114.2799301147461 L 829.4840698242188 114.2799301147461 C 829.626708984375 113.6515197753906 829.7489624023438 113.1159820556641 829.8665771484375 112.6047821044922 C 830.05810546875 111.7709579467773 830.261474609375 110.9315643310547 830.4708862304688 110.1101913452148 L 830.4718017578125 110.1067199707031 L 830.47265625 110.1032485961914 C 830.5672607421875 109.7431488037109 830.6817626953125 109.4599685668945 830.9332275390625 109.2484283447266 L 830.9436645507813 109.2396392822266 L 830.9544067382813 109.2311325073242 C 831.2484130859375 108.9972381591797 831.5968017578125 108.9650039672852 831.9295043945313 108.9650039672852 L 832.6157836914063 108.9650039672852 C 832.9527587890625 108.9650039672852 833.3052978515625 108.9980545043945 833.6001586914063 109.2378387451172 L 833.6065673828125 109.2430419921875 L 833.6128540039063 109.2483520507813 C 833.9093017578125 109.4976348876953 834.0025634765625 109.8415298461914 834.06494140625 110.1465072631836 L 835.0031127929688 114.2799301147461 L 836.32763671875 114.2799301147461 C 836.462646484375 113.6898498535156 836.5972290039063 113.1221008300781 836.7349853515625 112.5608215332031 C 836.9342651367188 111.7422256469727 837.1268310546875 110.9159317016602 837.306884765625 110.1065063476563 C 837.3707275390625 109.8055725097656 837.465087890625 109.4658737182617 837.7670288085938 109.2243194580078 C 838.0654907226563 108.9850845336914 838.413330078125 108.9650039672852 838.716064453125 108.9650039672852 L 839.1859130859375 108.9650039672852 C 839.4490356445313 108.9650039672852 839.9387817382813 108.9650039672852 840.2798461914063 109.3630599975586 L 840.2994384765625 109.3859481811523 L 840.317626953125 109.4099884033203 C 840.6315307617188 109.8245010375977 840.5285034179688 110.3114242553711 840.4789428710938 110.5454177856445 L 840.4758911132813 110.5596771240234 L 840.4724731445313 110.5738372802734 L 839.5744018554688 114.2799301147461 L 840.3635864257813 114.2799301147461 C 840.6504516601563 114.2799301147461 840.9531860351563 114.3082733154297 841.223388671875 114.5138778686523 C 841.6575927734375 114.8429489135742 841.6575927734375 115.360221862793 841.6575927734375 115.5549545288086 L 841.6575927734375 115.8489227294922 C 841.6575927734375 116.0229568481445 841.6575927734375 116.5504989624023 841.2115478515625 116.8790512084961 C 840.9443969726563 117.0765914916992 840.6463012695313 117.104133605957 840.3635864257813 117.104133605957 L 838.9326782226563 117.104133605957 C 838.6958618164063 118.0821533203125 838.4664916992188 119.0519104003906 838.2485961914063 119.9963531494141 C 837.9580688476563 121.2525863647461 837.66455078125 122.4857635498047 837.3760986328125 123.6623001098633 C 837.3134155273438 123.9551086425781 837.2199096679688 124.2842483520508 836.9320068359375 124.5228042602539 L 836.9215087890625 124.5315399169922 L 836.9107055664063 124.5399780273438 C 836.6133422851563 124.77294921875 836.2693481445313 124.7924575805664 835.9702758789063 124.7924575805664 L 835.3425903320313 124.7924575805664 C 835.0392456054688 124.7924575805664 834.6905517578125 124.7723007202148 834.3916625976563 124.531608581543 C 834.0944213867188 124.2922210693359 833.9994506835938 123.9545059204102 833.9345092773438 123.6557922363281 L 832.4451904296875 117.104133605957 L 831.9900512695313 117.104133605957 C 831.7570190429688 118.0717697143555 831.5308837890625 119.0370864868164 831.3157348632813 119.9833602905273 C 831.0579833984375 121.1211776733398 830.7825317382813 122.3172073364258 830.4740600585938 123.6387329101563 C 830.3990478515625 123.9823532104492 830.3084716796875 124.2392807006836 830.0950927734375 124.4512405395508 C 829.75341796875 124.79248046875 829.2903442382813 124.7924575805664 829.0664672851563 124.7924575805664 L 828.4776000976563 124.7924575805664 C 828.1657104492188 124.7924575805664 827.8075561523438 124.7595062255859 827.511474609375 124.5167083740234 L 827.511474609375 124.5167083740234 C 827.2250366210938 124.2822799682617 827.1204223632813 123.9559783935547 827.0508422851563 123.6375427246094 L 825.5447387695313 117.104133605957 L 824.1040649414063 117.104133605957 C 823.8836059570313 117.104133605957 823.4732666015625 117.104133605957 823.1504516601563 116.7802200317383 C 822.8300170898438 116.459587097168 822.8300170898438 116.0494384765625 822.8300170898438 115.8290939331055 L 822.8300170898438 115.5549545288086 C 822.8300170898438 115.3399200439453 822.8300170898438 114.9396743774414 823.1349487304688 114.6197280883789 L 823.142822265625 114.6115112304688 L 823.1508178710938 114.6034698486328 C 823.4735717773438 114.2799301147461 823.8837280273438 114.2799301147461 824.1040649414063 114.2799301147461 L 824.88671875 114.2799301147461 C 824.79736328125 113.8889617919922 824.7078857421875 113.4935989379883 824.618896484375 113.0963592529297 C 824.44384765625 112.3150024414063 824.2608032226563 111.507453918457 824.0746459960938 110.6956176757813 C 823.9943237304688 110.3926696777344 823.8582153320313 109.8475646972656 824.2132568359375 109.4011306762695 L 824.2254028320313 109.3859024047852 L 824.2380981445313 109.3711471557617 C 824.5877685546875 108.9650039672852 825.1149291992188 108.9650039672852 825.3981323242188 108.9650039672852 Z" stroke="none" fill="#383838"/>
      </g>
    </g>
  </g>
</svg>
