<svg xmlns="http://www.w3.org/2000/svg" width="58.406" height="73.87" viewBox="0 0 58.406 73.87">
  <g id="그룹_1751" data-name="그룹 1751" transform="translate(-894.913 -333.188)">
    <path id="패스_1170" data-name="패스 1170" d="M939.149,371.445c-1.319-5.385-5.608-8.87-9.9-11.721a8.391,8.391,0,0,0-8.577-.633l-1.979,1.9a31.348,31.348,0,0,0-2.64,4.435c-2.309,5.385-4.948,10.137-7.257,15.522a20.075,20.075,0,0,0-1.32,8.87c.99,5.068,4.013,11.879,5.577,16.74h20.509c1.083-6.158-.4-14.081-.836-20.852-.1-1.55-.15-3.133-.189-4.722a6.468,6.468,0,0,0,6.939,3.132C939.479,380.008,940.139,375.246,939.149,371.445Z" fill="#dfdfdf"/>
    <path id="패스_1171" data-name="패스 1171" d="M913.056,406.558c-1.564-4.861-4.587-11.672-5.577-16.74a20.075,20.075,0,0,1,1.32-8.87c2.309-5.385,4.948-10.137,7.257-15.522a31.348,31.348,0,0,1,2.64-4.435l1.979-1.9a8.391,8.391,0,0,1,8.577.633c4.289,2.851,8.578,6.336,9.9,11.721.99,3.8.33,8.563.33,12.671h0c-3.3.633-7.088-1.338-7.418-4.822,0-1.267.028-3.837.028-3.837" fill="none" stroke="#383838" stroke-linecap="round" stroke-linejoin="round" stroke-width="1"/>
    <rect id="사각형_488" data-name="사각형 488" width="43.758" height="57.406" transform="translate(952.819 333.688) rotate(90)" fill="#fff"/>
    <g id="그룹_1761" data-name="그룹 1761">
      <g id="그룹_1757" data-name="그룹 1757">
        <rect id="사각형_489" data-name="사각형 489" width="57.406" height="43.758" transform="translate(895.413 333.688)" stroke-width="1" stroke="#383838" stroke-linecap="round" stroke-linejoin="round" fill="none"/>
        <line id="선_178" data-name="선 178" x2="21.657" transform="translate(902.46 344.529)" fill="none" stroke="#383838" stroke-linecap="round" stroke-linejoin="round" stroke-width="1"/>
        <line id="선_179" data-name="선 179" x2="21.657" transform="translate(902.46 349.721)" fill="none" stroke="#383838" stroke-linecap="round" stroke-linejoin="round" stroke-width="1"/>
        <line id="선_180" data-name="선 180" x2="14.311" transform="translate(902.46 354.914)" fill="none" stroke="#383838" stroke-linecap="round" stroke-linejoin="round" stroke-width="1"/>
        <line id="선_181" data-name="선 181" x2="6.763" transform="translate(902.46 367.176)" fill="none" stroke="#383838" stroke-linecap="round" stroke-linejoin="round" stroke-width="1"/>
      </g>
      <g id="그룹_1760" data-name="그룹 1760">
        <g id="그룹_1759" data-name="그룹 1759">
          <g id="그룹_1758" data-name="그룹 1758">
            <path id="패스_1172" data-name="패스 1172" d="M927,356.167a3.686,3.686,0,1,0,7.372,0Z" fill="#ffcd73" stroke="#383838" stroke-linecap="round" stroke-linejoin="round" stroke-width="1"/>
            <path id="패스_1173" data-name="패스 1173" d="M927,356.167l3.686-6.143,3.686,6.143" fill="none" stroke="#383838" stroke-linecap="round" stroke-linejoin="round" stroke-width="1"/>
            <path id="패스_1174" data-name="패스 1174" d="M940.518,356.167a3.686,3.686,0,1,0,7.372,0Z" fill="#ffcd73" stroke="#383838" stroke-linecap="round" stroke-linejoin="round" stroke-width="1"/>
            <path id="패스_1175" data-name="패스 1175" d="M940.518,356.167l3.686-6.143,3.686,6.143" fill="none" stroke="#383838" stroke-linecap="round" stroke-linejoin="round" stroke-width="1"/>
          </g>
          <line id="선_182" data-name="선 182" x2="13.516" transform="translate(930.688 350.023)" fill="none" stroke="#383838" stroke-linecap="round" stroke-linejoin="round" stroke-width="1"/>
          <circle id="타원_39" data-name="타원 39" cx="1.229" cy="1.229" r="1.229" transform="translate(936.217 345.108)" stroke-width="1" stroke="#383838" stroke-linecap="round" stroke-linejoin="round" fill="#ffcd73"/>
          <line id="선_183" data-name="선 183" y2="14.744" transform="translate(937.446 347.566)" fill="none" stroke="#383838" stroke-linecap="round" stroke-linejoin="round" stroke-width="1"/>
          <path id="사각형_490" data-name="사각형 490" d="M2,0H7.83a2,2,0,0,1,2,2v.457a0,0,0,0,1,0,0H0a0,0,0,0,1,0,0V2A2,2,0,0,1,2,0Z" transform="translate(932.531 362.31)" fill="none" stroke="#383838" stroke-linecap="round" stroke-linejoin="round" stroke-width="1"/>
        </g>
      </g>
    </g>
    <path id="패스_1176" data-name="패스 1176" d="M922.737,390.785v-13.4c0-1.941-.136-3.936.01-5.875.441-5.88,9.219-5.707,9.534.153.247,4.594.152,9.446.448,14.039.436,6.771,1.919,14.694.836,20.852" fill="#dfdfdf"/>
    <path id="패스_1177" data-name="패스 1177" d="M922.737,390.785v-13.4c0-1.941-.136-3.936.01-5.875.441-5.88,9.219-5.707,9.534.153.247,4.594.152,9.446.448,14.039.436,6.771,1.919,14.694.836,20.852" fill="none" stroke="#383838" stroke-linecap="round" stroke-linejoin="round" stroke-width="1"/>
  </g>
</svg>
