<svg xmlns="http://www.w3.org/2000/svg" width="66.492" height="64.577" viewBox="0 0 66.492 64.577">
  <g id="그룹_1438" data-name="그룹 1438" transform="translate(0.072 0.5)">
    <g id="그룹_1415" data-name="그룹 1415" transform="translate(3.767)">
      <path id="패스_913" data-name="패스 913" d="M851.144,199.733V172.5h7.8l-11.969-8.23v-11.1h-7.09V159.4l-10.051-6.915L800.717,172.5h8.028V192.37h4.663V171.05l16.328-11.677,16.328,11.677v30.787" transform="translate(-800.717 -152.482)" fill="#ffc7c0"/>
    </g>
    <path id="패스_914" data-name="패스 914" d="M857.447,199.24l-18.81,7.933c-3.527,1.488-7.058,2.214-10.817,1.065a3.54,3.54,0,0,0,4.075-4.781l0,0-.01-.021a3.546,3.546,0,0,0-.611-.993c-.03-.034-.062-.066-.093-.1a3.563,3.563,0,0,0-.339-.315c-.034-.028-.067-.058-.1-.085a3.637,3.637,0,0,0-.5-.322l-12.866-6.713a2.478,2.478,0,0,0-1.146-.281h-19.5v14.312h9.335l18.261,7.895a17.017,17.017,0,0,0,14.2-.317l21.92-10.665a3.634,3.634,0,0,0-3-6.616Z" transform="translate(-796.737 -154.741)" fill="#e6e6e6"/>
    <g id="그룹_1436" data-name="그룹 1436" transform="translate(0.428 0)">
      <g id="그룹_1425" data-name="그룹 1425" transform="translate(16.583 39.893)">
        <g id="그룹_1424" data-name="그룹 1424">
          <g id="그룹_1419" data-name="그룹 1419">
            <g id="그룹_1416" data-name="그룹 1416">
              <path id="패스_915" data-name="패스 915" d="M814.711,194.634h3.1l13.116,6.842.013.006" transform="translate(-814.711 -194.634)" fill="none" stroke="#383838" stroke-linecap="round" stroke-linejoin="round" stroke-width="1"/>
            </g>
            <g id="그룹_1417" data-name="그룹 1417" transform="translate(16.218 6.842)">
              <line id="선_61" data-name="선 61" x1="0.013" y1="0.006" stroke-width="1" stroke="#383838" stroke-linecap="round" stroke-linejoin="round" fill="none"/>
            </g>
            <g id="그룹_1418" data-name="그룹 1418" transform="translate(16.218 6.842)">
              <line id="선_62" data-name="선 62" x1="0.013" y1="0.006" stroke-width="1" stroke="#383838" stroke-linecap="round" stroke-linejoin="round" fill="none"/>
            </g>
          </g>
          <g id="그룹_1423" data-name="그룹 1423">
            <g id="그룹_1420" data-name="그룹 1420">
              <path id="패스_916" data-name="패스 916" d="M830.942,201.483l-.013-.006-13.116-6.842h-3.1" transform="translate(-814.711 -194.634)" fill="none" stroke="#383838" stroke-linecap="round" stroke-linejoin="round" stroke-width="1"/>
            </g>
            <g id="그룹_1421" data-name="그룹 1421" transform="translate(16.218 6.842)">
              <line id="선_63" data-name="선 63" x1="0.013" y1="0.006" stroke-width="1" stroke="#383838" stroke-linecap="round" stroke-linejoin="round" fill="none"/>
            </g>
            <g id="그룹_1422" data-name="그룹 1422" transform="translate(16.218 6.842)">
              <line id="선_64" data-name="선 64" x1="0.013" y1="0.006" stroke-width="1" stroke="#383838" stroke-linecap="round" stroke-linejoin="round" fill="none"/>
            </g>
          </g>
        </g>
      </g>
      <g id="그룹_1434" data-name="그룹 1434" transform="translate(0 39.893)">
        <g id="그룹_1433" data-name="그룹 1433">
          <g id="그룹_1432" data-name="그룹 1432">
            <g id="그룹_1427" data-name="그룹 1427">
              <g id="그룹_1426" data-name="그룹 1426">
                <path id="패스_917" data-name="패스 917" d="M797.189,194.634h19.687l13.4,6.994a3.554,3.554,0,0,1,1.91,3.151h0a3.554,3.554,0,0,1-5.082,3.207l-11.467-5.465" transform="translate(-797.189 -194.634)" fill="none" stroke="#383838" stroke-linecap="round" stroke-linejoin="round" stroke-width="1"/>
                <path id="패스_918" data-name="패스 918" d="M797.189,209.191h8.919l18.261,7.895a17.014,17.014,0,0,0,14.2-.318l21.92-10.664a3.635,3.635,0,0,0,1.723-4.761h0a3.635,3.635,0,0,0-4.725-1.856l-18.811,7.934c-4.531,1.911-9.067,2.58-14.086-.392h0" transform="translate(-797.189 -194.879)" fill="none" stroke="#383838" stroke-linecap="round" stroke-linejoin="round" stroke-width="1"/>
              </g>
            </g>
            <g id="그룹_1431" data-name="그룹 1431" transform="translate(13.934 0.001)">
              <g id="그룹_1428" data-name="그룹 1428">
                <path id="패스_919" data-name="패스 919" d="M832.724,203.464a3.548,3.548,0,0,0-1.655-1.835l-.292-.152-13.112-6.842h-5.753" transform="translate(-811.912 -194.635)" fill="none" stroke="#383838" stroke-linecap="round" stroke-linejoin="round" stroke-width="1"/>
              </g>
              <g id="그룹_1429" data-name="그룹 1429" transform="translate(18.866 6.842)">
                <path id="패스_920" data-name="패스 920" d="M831.846,201.864l.292.152a3.548,3.548,0,0,1,1.655,1.835" transform="translate(-831.846 -201.864)" fill="none" stroke="#383838" stroke-linecap="round" stroke-linejoin="round" stroke-width="1"/>
              </g>
              <g id="그룹_1430" data-name="그룹 1430" transform="translate(18.866 6.842)">
                <path id="패스_921" data-name="패스 921" d="M831.846,201.864l.292.152a3.548,3.548,0,0,1,1.655,1.835" transform="translate(-831.846 -201.864)" fill="none" stroke="#383838" stroke-linecap="round" stroke-linejoin="round" stroke-width="1"/>
              </g>
            </g>
          </g>
        </g>
      </g>
      <g id="그룹_1435" data-name="그룹 1435" transform="translate(3.339)">
        <path id="패스_922" data-name="패스 922" d="M858.942,172.5h-7.8v27.229l-6.815,2.874-5.465,2.3c-.438.185-.877.361-1.316.521a14.167,14.167,0,0,1-9.192.645c-.088-.025-.179-.052-.266-.079a3.548,3.548,0,0,1-.712-.237c-.405-.148-.081-.039-.081-.039a.1.1,0,0,1,.025.011c.078.03.154.058.233.085.124.045.251.088.375.127.055.018.109.033.164.048a3.366,3.366,0,0,0,.734.079,3.512,3.512,0,0,0,.975-.139c.026-.006.057-.015.087-.024.079-.027.157-.055.237-.085.029-.011.06-.024.09-.039a3.974,3.974,0,0,0,.412-.206,3.6,3.6,0,0,0,.8-.638,2.79,2.79,0,0,0,.22-.257c.037-.048.07-.094.1-.142.066-.094.127-.19.185-.291a3.639,3.639,0,0,0,.221-.478,3.29,3.29,0,0,0,.109-.339,3.637,3.637,0,0,0-1.793-4.068l-.291-.154-13.112-6.842h-8.321V172.5h-8.028l29.114-20.021,10.051,6.914v-6.219h7.091v11.095Z" transform="translate(-800.717 -152.482)" fill="none" stroke="#383838" stroke-linecap="round" stroke-linejoin="round" stroke-width="1"/>
      </g>
    </g>
    <g id="그룹_1437" data-name="그룹 1437" transform="translate(23.477 21.069)">
      <g id="패스_923" data-name="패스 923" transform="translate(-821.543 -174.744)" fill="#ffcd73" stroke-miterlimit="10">
        <path d="M 835.4760131835938 191.1133422851563 L 834.7557983398438 191.1133422851563 C 834.4456787109375 191.1133422851563 834.234619140625 191.0882873535156 834.0735473632813 190.9601898193359 C 833.9092407226563 190.8287200927734 833.8384399414063 190.6244659423828 833.7715454101563 190.3159637451172 L 831.9471435546875 182.2899780273438 L 830.3983764648438 182.2899780273438 C 830.10009765625 183.5165405273438 829.7991333007813 184.7957458496094 829.5023803710938 186.0983428955078 C 829.1992797851563 187.4385528564453 828.8829956054688 188.8114776611328 828.5355834960938 190.2948455810547 C 828.4650268554688 190.6261901855469 828.394775390625 190.7935180664063 828.277099609375 190.9111480712891 C 828.1087036132813 191.0795135498047 827.8750610351563 191.1133422851563 827.5526733398438 191.1133422851563 L 826.876953125 191.1133422851563 C 826.5795288085938 191.1133422851563 826.346435546875 191.0842437744141 826.1753540039063 190.9422760009766 L 826.1729125976563 190.9402465820313 L 826.1704711914063 190.9382019042969 C 826.0297241210938 190.8183441162109 825.9456787109375 190.6376647949219 825.8712158203125 190.2943725585938 L 824.0260009765625 182.2899780273438 L 821.8572387695313 182.2899780273438 C 821.6087646484375 182.2899780273438 821.3894653320313 182.2763977050781 821.2225341796875 182.1094665527344 C 821.0565185546875 181.9433746337891 821.0430297851563 181.7238006591797 821.0430297851563 181.474853515625 L 821.0430297851563 181.15966796875 C 821.0430297851563 180.9085540771484 821.056884765625 180.6870727539063 821.2259521484375 180.5216522216797 C 821.3925170898438 180.3579254150391 821.6104736328125 180.3445434570313 821.8572387695313 180.3445434570313 L 823.5692749023438 180.3445434570313 C 823.405517578125 179.6358795166016 823.2416381835938 178.9157257080078 823.0803833007813 178.1960144042969 C 822.8722534179688 177.2666625976563 822.6610107421875 176.3351440429688 822.4525756835938 175.4271850585938 C 822.34130859375 175.0061950683594 822.3128051757813 174.7184753417969 822.49267578125 174.4964599609375 L 822.49658203125 174.4916076660156 L 822.5006103515625 174.4868774414063 C 822.6737060546875 174.2837677001953 822.9406127929688 174.2440185546875 823.3430786132813 174.2440185546875 L 823.7708129882813 174.2440185546875 C 824.1619873046875 174.2440185546875 824.3634033203125 174.2894897460938 824.513916015625 174.4118041992188 L 824.5183715820313 174.4154052734375 L 824.522705078125 174.4190979003906 C 824.6611328125 174.5369567871094 824.7443237304688 174.7134857177734 824.8404541015625 175.0936737060547 L 824.8421020507813 175.1002655029297 L 824.8436279296875 175.1068878173828 L 826.0176391601563 180.3445434570313 L 828.5490112304688 180.3445434570313 C 828.7177124023438 179.5985260009766 828.9083251953125 178.7593078613281 829.1021118164063 177.9185333251953 C 829.328857421875 176.9340667724609 829.5609130859375 175.9759216308594 829.7919311523438 175.0708312988281 C 829.88720703125 174.7108917236328 829.972900390625 174.5354766845703 830.1091918945313 174.4193115234375 L 830.1136474609375 174.4154968261719 L 830.1182250976563 174.4118041992188 C 830.2901611328125 174.2720947265625 830.5213012695313 174.2440185546875 830.8385620117188 174.2440185546875 L 831.6260375976563 174.2440185546875 C 831.94384765625 174.2440185546875 832.1753540039063 174.2720947265625 832.3472900390625 174.4118041992188 L 832.349609375 174.4137115478516 L 832.3519287109375 174.4156341552734 C 832.5202026367188 174.5557556152344 832.59130859375 174.7690582275391 832.65625 175.0895538330078 L 833.8489990234375 180.3445434570313 L 836.4033203125 180.3445434570313 C 836.5945434570313 179.4949645996094 836.7889404296875 178.6668395996094 836.9825439453125 177.877685546875 C 837.2064208984375 176.9612731933594 837.4288330078125 176.0065765380859 837.6434936523438 175.0406036376953 C 837.70947265625 174.7370452880859 837.7791137695313 174.5343170166016 837.9381103515625 174.4029541015625 L 837.9417114257813 174.3999938964844 L 837.9453735351563 174.3970947265625 C 838.1063842773438 174.2690734863281 838.3174438476563 174.2440185546875 838.6275024414063 174.2440185546875 L 839.1669311523438 174.2440185546875 C 839.469482421875 174.2440185546875 839.7560424804688 174.2622833251953 839.9368286132813 174.4827270507813 L 839.9388427734375 174.4851531982422 L 839.9407958984375 174.4875946044922 C 840.11962890625 174.7112731933594 840.076171875 175.0004272460938 840.0162963867188 175.2774047851563 L 840.0150146484375 175.2834320068359 L 840.0135498046875 175.2894134521484 L 838.789794921875 180.3445434570313 L 840.5184326171875 180.3445434570313 C 840.7803955078125 180.3445434570313 840.9613037109375 180.3664703369141 841.11083984375 180.4785766601563 C 841.3363037109375 180.6456756591797 841.3553466796875 180.9178161621094 841.3553466796875 181.15966796875 L 841.3553466796875 181.4966125488281 C 841.3553466796875 181.6609649658203 841.3553466796875 181.9668731689453 841.1167602539063 182.1514129638672 L 841.1138305664063 182.1536560058594 L 841.1109008789063 182.1558685302734 C 840.96142578125 182.2680358886719 840.7804565429688 182.2899780273438 840.5184326171875 182.2899780273438 L 838.3670654296875 182.2899780273438 C 838.0587158203125 183.5551147460938 837.7537841796875 184.8387603759766 837.4594116210938 186.1113433837891 C 837.1264038085938 187.5516662597656 836.7896728515625 188.9675750732422 836.45849609375 190.3196411132813 C 836.3938598632813 190.6229095458984 836.3245239257813 190.824462890625 836.165283203125 190.9552459716797 L 836.1597900390625 190.9597625732422 L 836.1541748046875 190.9641265869141 C 835.9930419921875 191.0889129638672 835.7835083007813 191.1133422851563 835.4760131835938 191.1133422851563 Z M 826.4263916015625 182.2899780273438 C 826.6314697265625 183.1675872802734 826.8314819335938 184.0208282470703 827.02587890625 184.8490142822266 C 827.113037109375 185.21923828125 827.2010498046875 185.5944061279297 827.2901000976563 185.9744415283203 L 828.1784057617188 182.2899780273438 L 826.4263916015625 182.2899780273438 Z M 834.2601928710938 182.2899780273438 C 834.46484375 183.1690368652344 834.6651000976563 184.0261993408203 834.8602905273438 184.8607788085938 L 835.1157836914063 185.9573822021484 L 835.97119140625 182.2899780273438 L 834.2601928710938 182.2899780273438 Z M 830.8834228515625 180.3445434570313 L 831.5134887695313 180.3445434570313 C 831.4024658203125 179.8727264404297 831.2982177734375 179.4313354492188 831.1974487304688 179.0087127685547 C 831.0950927734375 179.4424896240234 830.9885864257813 179.8945922851563 830.8834228515625 180.3445434570313 Z" stroke="none"/>
        <path d="M 823.3430786132813 174.7440185546875 C 823.0733032226563 174.7440185546875 822.9190673828125 174.7667236328125 822.8811645507813 174.8111877441406 C 822.8443603515625 174.8566284179688 822.8623046875 175.0222473144531 822.9380493164063 175.30712890625 C 823.1481323242188 176.2222900390625 823.3582153320313 177.1488342285156 823.5682983398438 178.0867004394531 C 823.7784423828125 179.0245971679688 823.988525390625 179.9435729980469 824.1986083984375 180.8445434570313 L 821.8572387695313 180.8445434570313 C 821.6925048828125 180.8445434570313 821.5988159179688 180.8558959960938 821.5761108398438 180.8786010742188 C 821.5534057617188 180.9003601074219 821.5430297851563 180.9940795898438 821.5430297851563 181.15966796875 L 821.5430297851563 181.474853515625 C 821.5430297851563 181.6395263671875 821.5534057617188 181.7332153320313 821.5761108398438 181.7559204101563 C 821.5988159179688 181.7786254882813 821.6925048828125 181.7899780273438 821.8572387695313 181.7899780273438 L 824.423828125 181.7899780273438 L 826.3592529296875 190.185546875 C 826.4046630859375 190.3956604003906 826.4501342773438 190.5196228027344 826.49462890625 190.5574951171875 C 826.5391235351563 190.5944213867188 826.6668090820313 190.6133422851563 826.876953125 190.6133422851563 L 827.5526733398438 190.6133422851563 C 827.7618408203125 190.6133422851563 827.88671875 190.5944213867188 827.9236450195313 190.5574951171875 C 827.9615478515625 190.5196228027344 828.003173828125 190.3956604003906 828.0476684570313 190.185546875 C 828.3779296875 188.7754211425781 828.70068359375 187.3766174316406 829.014892578125 185.9873046875 C 829.3309326171875 184.5998840332031 829.6603393554688 183.2001342773438 830.0057373046875 181.7899780273438 L 832.3462524414063 181.7899780273438 L 834.2598266601563 190.2082824707031 C 834.3052978515625 190.4183654785156 834.346923828125 190.53857421875 834.384765625 190.56884765625 C 834.4216918945313 190.5982055664063 834.5447387695313 190.6133422851563 834.7557983398438 190.6133422851563 L 835.4760131835938 190.6133422851563 C 835.6860961914063 190.6133422851563 835.81005859375 190.5982055664063 835.8479614257813 190.56884765625 C 835.8848266601563 190.53857421875 835.926513671875 190.4183654785156 835.9710083007813 190.2082824707031 C 836.31640625 188.7981262207031 836.6495361328125 187.3945922851563 836.9722900390625 185.9986572265625 C 837.2949829101563 184.6036682128906 837.6290283203125 183.2001342773438 837.9745483398438 181.7899780273438 L 840.5184326171875 181.7899780273438 C 840.6831665039063 181.7899780273438 840.7805786132813 181.7786254882813 840.8108520507813 181.7559204101563 C 840.8402099609375 181.7332153320313 840.8553466796875 181.6470947265625 840.8553466796875 181.4966125488281 L 840.8553466796875 181.15966796875 C 840.8553466796875 180.9940795898438 840.8402099609375 180.9003601074219 840.8108520507813 180.8786010742188 C 840.7805786132813 180.8558959960938 840.6831665039063 180.8445434570313 840.5184326171875 180.8445434570313 L 838.154296875 180.8445434570313 L 839.527587890625 175.1717834472656 C 839.572998046875 174.961669921875 839.58056640625 174.8377075195313 839.55029296875 174.7998352050781 C 839.52001953125 174.762939453125 839.3931274414063 174.7440185546875 839.1669311523438 174.7440185546875 L 838.6275024414063 174.7440185546875 C 838.4174194335938 174.7440185546875 838.29345703125 174.7591247558594 838.2565307617188 174.7884826660156 C 838.2186889648438 174.8197326660156 838.1770629882813 174.9399108886719 838.131591796875 175.1490478515625 C 837.9215087890625 176.0945129394531 837.7009887695313 177.0437622070313 837.4681396484375 177.9967956542969 C 837.234375 178.9498291015625 837.013916015625 179.8990783691406 836.8038330078125 180.8445434570313 L 833.4497680664063 180.8445434570313 L 832.1673583984375 175.1944885253906 C 832.1219482421875 174.96923828125 832.0774536132813 174.8377075195313 832.031982421875 174.7998352050781 C 831.986572265625 174.762939453125 831.8521728515625 174.7440185546875 831.6260375976563 174.7440185546875 L 830.8385620117188 174.7440185546875 C 830.6143188476563 174.7440185546875 830.4789428710938 174.762939453125 830.4335327148438 174.7998352050781 C 830.3890991210938 174.8377075195313 830.3360595703125 174.96923828125 830.2764282226563 175.1944885253906 C 830.0350952148438 176.1399536132813 829.8070678710938 177.0854187011719 829.58935546875 178.0308532714844 C 829.3716430664063 178.9753723144531 829.1587524414063 179.9142150878906 828.9486083984375 180.8445434570313 L 825.6173095703125 180.8445434570313 L 824.355712890625 175.2162475585938 C 824.295166015625 174.9768371582031 824.2431030273438 174.8377075195313 824.1986083984375 174.7998352050781 C 824.1531982421875 174.762939453125 824.0103149414063 174.7440185546875 823.7708129882813 174.7440185546875 L 823.3430786132813 174.7440185546875 M 832.1446533203125 180.8445434570313 L 830.2537231445313 180.8445434570313 C 830.4032592773438 180.1990661621094 830.5613403320313 179.5271301269531 830.7259521484375 178.8296508789063 C 830.890625 178.1321411132813 831.0487060546875 177.4601745605469 831.1991577148438 176.815673828125 C 831.3638305664063 177.535888671875 831.5219116210938 178.210693359375 831.6714477539063 178.8410034179688 C 831.8218994140625 179.4712829589844 831.97900390625 180.1394653320313 832.1446533203125 180.8445434570313 M 827.2828979492188 188.1375427246094 C 827.0264282226563 187.0425415039063 826.7794799804688 185.9844665527344 826.5391235351563 184.9632873535156 C 826.2996215820313 183.9430847167969 826.0516967773438 182.8849792480469 825.796142578125 181.7899780273438 L 828.8132934570313 181.7899780273438 L 827.2828979492188 188.1375427246094 M 835.1153564453125 188.1602478027344 C 834.86083984375 187.0652465820313 834.6129150390625 186.0033874511719 834.3734130859375 184.9746398925781 C 834.133056640625 183.9468688964844 833.8850708007813 182.8849792480469 833.6304931640625 181.7899780273438 L 836.6012573242188 181.7899780273438 L 835.1153564453125 188.1602478027344 M 823.3430786132813 173.7440185546875 L 823.7708129882813 173.7440185546875 C 824.1163330078125 173.7440185546875 824.5115356445313 173.765625 824.8291625976563 174.0236663818359 L 824.8380737304688 174.0309448242188 L 824.8468627929688 174.0384368896484 C 825.1041870117188 174.2575073242188 825.2206420898438 174.5577087402344 825.3251953125 174.9710998535156 L 825.3284912109375 174.9842681884766 L 825.3314819335938 174.9975128173828 L 826.41796875 179.8445434570313 L 828.1495361328125 179.8445434570313 C 828.2953491210938 179.2011260986328 828.4539794921875 178.5042877197266 828.6149291992188 177.8062286376953 C 828.8424682617188 176.8180541992188 829.0755004882813 175.8560485839844 829.3074951171875 174.9471740722656 L 829.30859375 174.94287109375 L 829.3097534179688 174.9385833740234 C 829.4112548828125 174.5550537109375 829.5308837890625 174.2552947998047 829.7847290039063 174.0388641357422 L 829.7937622070313 174.0311584472656 L 829.802978515625 174.0236663818359 C 830.0886840820313 173.7915802001953 830.423583984375 173.7440185546875 830.8385620117188 173.7440185546875 L 831.6260375976563 173.7440185546875 C 832.0415649414063 173.7440185546875 832.3768310546875 173.7915802001953 832.6625366210938 174.0236663818359 L 832.6672973632813 174.0275573730469 L 832.6720581054688 174.0315093994141 C 832.979736328125 174.2878570556641 833.0784301757813 174.6565856933594 833.1451416015625 174.9844818115234 L 834.2482299804688 179.8445434570313 L 836.00390625 179.8445434570313 C 836.1671752929688 179.1283721923828 836.3323974609375 178.4294586181641 836.4969482421875 177.7585754394531 C 836.7199096679688 176.8459777832031 836.9415283203125 175.8947296142578 837.1553955078125 174.9321441650391 C 837.2261352539063 174.6067352294922 837.3211669921875 174.2640380859375 837.6197509765625 174.0174255371094 L 837.626953125 174.0115051269531 L 837.6342163085938 174.0057067871094 C 837.93798828125 173.7642364501953 838.2914428710938 173.7440185546875 838.6275024414063 173.7440185546875 L 839.1669311523438 173.7440185546875 C 839.4501953125 173.7440185546875 839.9775390625 173.7440185546875 840.3233642578125 174.1654968261719 L 840.327392578125 174.1704406738281 L 840.3314208984375 174.1754455566406 C 840.6735229492188 174.6034240722656 840.5639038085938 175.1105651855469 840.5050048828125 175.3830261230469 L 840.50244140625 175.3950805664063 L 840.49951171875 175.4070739746094 L 839.42529296875 179.8445434570313 L 840.5184326171875 179.8445434570313 C 840.7982177734375 179.8445434570313 841.12060546875 179.8624877929688 841.4077758789063 180.0763092041016 C 841.8553466796875 180.4091949462891 841.8553466796875 180.9349975585938 841.8553466796875 181.15966796875 L 841.8553466796875 181.4966125488281 C 841.8553466796875 181.6923370361328 841.8553466796875 182.2122344970703 841.4226684570313 182.5469055175781 L 841.4168701171875 182.5514068603516 L 841.4109497070313 182.5558166503906 C 841.1229858398438 182.7718963623047 840.7992553710938 182.7899780273438 840.5184326171875 182.7899780273438 L 838.7600708007813 182.7899780273438 C 838.4838256835938 183.9292602539063 838.2109375 185.0811309814453 837.946533203125 186.2240295410156 C 837.6136474609375 187.6639099121094 837.2769775390625 189.0794830322266 836.9458618164063 190.4315643310547 C 836.8757934570313 190.7591400146484 836.7799682617188 191.0974578857422 836.4826049804688 191.3416442871094 L 836.4715576171875 191.3507232666016 L 836.4602661132813 191.3594970703125 C 836.1577758789063 191.5937347412109 835.8081665039063 191.6133422851563 835.4760131835938 191.6133422851563 L 834.7557983398438 191.6133422851563 C 834.4197387695313 191.6133422851563 834.0662841796875 191.5931243896484 833.762451171875 191.3516387939453 C 833.453125 191.1041717529297 833.35595703125 190.7583465576172 833.2835083007813 190.4245910644531 L 831.5480346679688 182.7899780273438 L 830.7916870117188 182.7899780273438 C 830.5243530273438 183.8969268798828 830.2554321289063 185.0437469482422 829.9899291992188 186.2093963623047 C 829.6870727539063 187.5483856201172 829.370849609375 188.9209442138672 829.023681640625 190.4033660888672 C 828.945068359375 190.7714691162109 828.8510131835938 191.0445404052734 828.6304931640625 191.2648773193359 C 828.3242797851563 191.5710906982422 827.9314575195313 191.6133422851563 827.5526733398438 191.6133422851563 L 826.876953125 191.6133422851563 C 826.52587890625 191.6133422851563 826.1591186523438 191.5786437988281 825.85595703125 191.3269348144531 L 825.8511352539063 191.322998046875 L 825.846435546875 191.3189849853516 C 825.5626831054688 191.0774536132813 825.4557495117188 190.7368469238281 825.3833618164063 190.4038696289063 L 823.6281127929688 182.7899780273438 L 821.8572387695313 182.7899780273438 C 821.6260986328125 182.7899780273438 821.1959838867188 182.7899780273438 820.8690185546875 182.4630279541016 C 820.5430297851563 182.1369171142578 820.5430297851563 181.7224731445313 820.5430297851563 181.474853515625 L 820.5430297851563 181.15966796875 C 820.5430297851563 180.9077911376953 820.5430297851563 180.4868927001953 820.8802490234375 180.1604461669922 C 821.2057495117188 179.8445281982422 821.6287841796875 179.8445434570313 821.8572387695313 179.8445434570313 L 822.941162109375 179.8445434570313 C 822.8242797851563 179.3341369628906 822.7077026367188 178.8195953369141 822.5924682617188 178.3053283691406 C 822.3851318359375 177.3796997070313 822.1748046875 176.4519500732422 821.9672241210938 175.5475158691406 C 821.8756713867188 175.2026062011719 821.733642578125 174.6390686035156 822.1041259765625 174.1817321777344 L 822.1119995117188 174.1720428466797 L 822.1200561523438 174.1625366210938 C 822.44921875 173.7763671875 822.9239501953125 173.7440185546875 823.3430786132813 173.7440185546875 Z M 827.5435180664063 182.7899780273438 L 827.0567626953125 182.7899780273438 C 827.1375732421875 183.1352386474609 827.217529296875 183.4766082763672 827.296630859375 183.8140106201172 L 827.5435180664063 182.7899780273438 Z M 835.3411865234375 182.7899780273438 L 834.8900756835938 182.7899780273438 C 834.9659423828125 183.1153564453125 835.0411376953125 183.4374847412109 835.1156616210938 183.7566375732422 L 835.3411865234375 182.7899780273438 Z" stroke="none" fill="#383838"/>
      </g>
    </g>
    <path id="패스_924" data-name="패스 924" d="M814.127,192.761V171.44l16.328-11.677,16.328,11.677v30.787" transform="translate(-797.669 -152.872)" fill="none" stroke="#383838" stroke-linecap="round" stroke-linejoin="round" stroke-width="1"/>
  </g>
</svg>
