<svg xmlns="http://www.w3.org/2000/svg" width="56.391" height="63.798" viewBox="0 0 56.391 63.798">
  <g id="그룹_1740" data-name="그룹 1740" transform="translate(-1011.268 -277.239)">
    <circle id="타원_35" data-name="타원 35" cx="3.868" cy="3.868" r="3.868" transform="translate(1026.21 291.417)" fill="#ffcd73"/>
    <g id="그룹_1739" data-name="그룹 1739">
      <rect id="사각형_455" data-name="사각형 455" width="14.386" height="4.078" transform="matrix(0.33, -0.944, 0.944, 0.33, 1051.297, 326.848)" fill="#ffc7c0"/>
      <rect id="사각형_456" data-name="사각형 456" width="10.472" height="4.078" transform="translate(1057.571 308.88) rotate(-70.753)" fill="#15376c"/>
      <g id="그룹_1738" data-name="그룹 1738">
        <path id="패스_1148" data-name="패스 1148" d="M1051.3,326.848a13.417,13.417,0,0,0-.508,5.965l.167,1.193.875-.829a13.4,13.4,0,0,0,3.316-4.986l4.489-12.853v25.2h-47.869v-62.8h47.869v25.226l-2.065,5.914Z" fill="none" stroke="#383838" stroke-linecap="round" stroke-linejoin="round" stroke-width="1"/>
        <line id="선_153" data-name="선 153" x2="31.542" transform="translate(1020.243 309.429)" fill="none" stroke="#383838" stroke-linecap="round" stroke-linejoin="round" stroke-width="1"/>
        <line id="선_154" data-name="선 154" x2="31.542" transform="translate(1020.243 315.11)" fill="none" stroke="#383838" stroke-linecap="round" stroke-linejoin="round" stroke-width="1"/>
        <line id="선_155" data-name="선 155" x2="20.843" transform="translate(1025.28 320.79)" fill="none" stroke="#383838" stroke-linecap="round" stroke-linejoin="round" stroke-width="1"/>
        <line id="선_156" data-name="선 156" x2="9.85" transform="translate(1039.584 334.204)" fill="none" stroke="#383838" stroke-linecap="round" stroke-linejoin="round" stroke-width="1"/>
        <line id="선_157" data-name="선 157" x2="9.85" transform="translate(1021.492 334.204)" fill="none" stroke="#383838" stroke-linecap="round" stroke-linejoin="round" stroke-width="1"/>
        <g id="그룹_1735" data-name="그룹 1735">
          <rect id="사각형_457" data-name="사각형 457" width="19.032" height="4.078" transform="translate(1051.297 326.848) rotate(-70.753)" stroke-width="1" stroke="#383838" stroke-linecap="round" stroke-linejoin="round" fill="none"/>
          <rect id="사각형_458" data-name="사각형 458" width="10.472" height="4.078" transform="translate(1057.571 308.88) rotate(-70.753)" stroke-width="1" stroke="#383838" stroke-linecap="round" stroke-linejoin="round" fill="none"/>
          <line id="선_158" data-name="선 158" x1="3.85" y1="1.344" transform="translate(1056.04 313.266)" fill="none" stroke="#383838" stroke-linecap="round" stroke-linejoin="round" stroke-width="1"/>
          <path id="패스_1149" data-name="패스 1149" d="M1061.023,298.993l.52-1.489,5.615,1.961-4.924,14.1" fill="none" stroke="#383838" stroke-linecap="round" stroke-linejoin="round" stroke-width="1"/>
          <path id="패스_1150" data-name="패스 1150" d="M1053.462,327.6l-.478-.167-1.686-.589a13.407,13.407,0,0,0-.508,5.966l.282.1.478.167.282.1a13.416,13.416,0,0,0,3.316-4.986Z" fill="none" stroke="#383838" stroke-linecap="round" stroke-linejoin="round" stroke-width="1"/>
          <path id="패스_1151" data-name="패스 1151" d="M1050.79,332.814l.168,1.192.874-.828Z" fill="none" stroke="#383838" stroke-linecap="round" stroke-linejoin="round" stroke-width="1"/>
        </g>
        <g id="그룹_1737" data-name="그룹 1737">
          <rect id="사각형_459" data-name="사각형 459" width="24.48" height="11.879" transform="translate(1017.867 289.428)" stroke-width="1" stroke="#383838" stroke-linecap="round" stroke-linejoin="round" fill="none"/>
          <rect id="사각형_460" data-name="사각형 460" width="6.802" height="2.376" transform="translate(1045.556 298.932)" stroke-width="1" stroke="#383838" stroke-linecap="round" stroke-linejoin="round" fill="#ffcd73"/>
          <rect id="사각형_461" data-name="사각형 461" width="6.802" height="2.376" transform="translate(1045.556 296.556)" stroke-width="1" stroke="#383838" stroke-linecap="round" stroke-linejoin="round" fill="#ffcd73"/>
          <rect id="사각형_462" data-name="사각형 462" width="6.802" height="2.376" transform="translate(1045.04 291.804)" stroke-width="1" stroke="#383838" stroke-linecap="round" stroke-linejoin="round" fill="#ffcd73"/>
          <rect id="사각형_463" data-name="사각형 463" width="6.802" height="2.376" transform="translate(1046.386 289.428)" stroke-width="1" stroke="#383838" stroke-linecap="round" stroke-linejoin="round" fill="#ffcd73"/>
          <rect id="사각형_464" data-name="사각형 464" width="6.802" height="2.376" transform="translate(1045.239 287.053)" stroke-width="1" stroke="#383838" stroke-linecap="round" stroke-linejoin="round" fill="#ffcd73"/>
          <rect id="사각형_465" data-name="사각형 465" width="6.802" height="2.376" transform="translate(1045.239 284.677)" stroke-width="1" stroke="#383838" stroke-linecap="round" stroke-linejoin="round" fill="#ffcd73"/>
          <rect id="사각형_466" data-name="사각형 466" width="6.802" height="2.376" transform="translate(1046.736 294.18)" stroke-width="1" stroke="#383838" stroke-linecap="round" stroke-linejoin="round" fill="#ffcd73"/>
          <circle id="타원_36" data-name="타원 36" cx="3.869" cy="3.869" r="3.869" transform="translate(1025.668 298.567) rotate(-80.783)" stroke-width="1" stroke="#383838" stroke-linecap="round" stroke-linejoin="round" fill="none"/>
          <g id="그룹_1736" data-name="그룹 1736">
            <path id="패스_1152" data-name="패스 1152" d="M1026.165,299.523h-6.317v-8.031h6.317" fill="none" stroke="#383838" stroke-linecap="round" stroke-linejoin="round" stroke-width="1"/>
            <path id="패스_1153" data-name="패스 1153" d="M1034.049,299.523h6.317v-8.031h-6.317" fill="none" stroke="#383838" stroke-linecap="round" stroke-linejoin="round" stroke-width="1"/>
          </g>
          <path id="패스_1154" data-name="패스 1154" d="M1031.8,295.668l-.439,1.955a.094.094,0,0,1-.023.046.12.12,0,0,1-.06.008h-.434c-.04,0-.063,0-.068-.008a.112.112,0,0,1-.02-.046l-.444-1.955h-.407l-.444,1.955a.128.128,0,0,1-.02.046c-.005.006-.028.008-.068.008h-.434a.125.125,0,0,1-.061-.008.1.1,0,0,1-.021-.046l-.44-1.955h-.648a.077.077,0,0,1-.049-.019.06.06,0,0,1-.022-.047v-.379a.06.06,0,0,1,.022-.047.077.077,0,0,1,.049-.019h.538l-.307-1.351a.078.078,0,0,1,0-.057c.007-.013.034-.02.082-.02h.412a.122.122,0,0,1,.055.009c.011.005.02.021.028.046l.3,1.373h.61l.313-1.373c.007-.025.015-.041.025-.046a.1.1,0,0,1,.052-.009h.461a.1.1,0,0,1,.052.009.078.078,0,0,1,.025.046l.313,1.373h.609l.3-1.373c.008-.025.017-.041.028-.046a.122.122,0,0,1,.055-.009h.411c.048,0,.076.007.083.02a.078.078,0,0,1,0,.057l-.308,1.351h.533c.047,0,.071.022.071.066v.379a.063.063,0,0,1-.021.047.078.078,0,0,1-.05.019Zm-2.625.851.192-.851h-.379Zm.851-1.362h.165l-.082-.373Zm1.016,1.362.186-.851h-.378Z" fill="#383838"/>
        </g>
      </g>
    </g>
  </g>
</svg>
