<svg xmlns="http://www.w3.org/2000/svg" width="105" height="105" viewBox="0 0 105 105">
  <g id="그룹_131" data-name="그룹 131" transform="translate(-258 -587)">
    <circle id="타원_1" data-name="타원 1" cx="52.5" cy="52.5" r="52.5" transform="translate(258 587)" fill="#fff"/>
    <g id="그룹_85" data-name="그룹 85" transform="translate(282 600)">
      <g id="그룹_72" data-name="그룹 72" transform="translate(11.259 65.656)">
        <g id="그룹_71" data-name="그룹 71">
          <path id="패스_235" data-name="패스 235" d="M146.34,799.445a1.009,1.009,0,0,1-.567-.173,24.445,24.445,0,0,1-6.969-7.3,1.018,1.018,0,1,1,1.733-1.068,22.368,22.368,0,0,0,6.372,6.674,1.018,1.018,0,0,1-.569,1.863Z" transform="translate(-138.653 -790.424)" fill="#545454"/>
        </g>
      </g>
      <g id="그룹_84" data-name="그룹 84" transform="translate(0 0)">
        <g id="그룹_73" data-name="그룹 73" transform="translate(3.733 26.466)">
          <rect id="사각형_48" data-name="사각형 48" width="2.036" height="2.714" fill="#545454"/>
        </g>
        <g id="그룹_74" data-name="그룹 74" transform="translate(0 11.537)">
          <path id="패스_236" data-name="패스 236" d="M131.9,732.1V711.642a.967.967,0,0,0-.967-.967H123.08a1.018,1.018,0,0,0-1.018,1.018h0a1.018,1.018,0,0,0,1.018,1.018h6.786v18.323H123.08a1.018,1.018,0,0,0-1.018,1.018h0a1.018,1.018,0,0,0,1.018,1.018h7.855A.967.967,0,0,0,131.9,732.1Z" transform="translate(-122.062 -710.675)" fill="#545454"/>
        </g>
        <g id="그룹_75" data-name="그룹 75" transform="translate(27.7 42.571)">
          <path id="패스_237" data-name="패스 237" d="M168.186,778.182a1.069,1.069,0,0,0,1.069-1.068v-1.149a5.034,5.034,0,0,0,4.252-4.819c0-2.377-1.4-4.92-5.321-4.92-2.1,0-3.167-.936-3.167-2.781a3,3,0,0,1,3.167-2.78,3.2,3.2,0,0,1,2.974,1.821,1.07,1.07,0,0,0,1.972-.83,5.176,5.176,0,0,0-3.876-3.019v-1.161a1.07,1.07,0,0,0-2.139,0v1.151a5.035,5.035,0,0,0-4.237,4.818c0,2.379,1.394,4.92,5.306,4.92,2.083,0,3.183.962,3.183,2.781a3,3,0,0,1-3.167,2.78,3.193,3.193,0,0,1-2.974-1.821,1.07,1.07,0,0,0-1.972.83,5.176,5.176,0,0,0,3.861,3.015v1.163A1.068,1.068,0,0,0,168.186,778.182Z" transform="translate(-162.88 -756.407)" fill="#545454"/>
        </g>
        <g id="그룹_76" data-name="그룹 76" transform="translate(7.815 11.537)">
          <path id="패스_238" data-name="패스 238" d="M148,734.489c5.919-5.268,4.157-12.052,3.633-15.439a9.024,9.024,0,0,0,1.116-2.028h5.313a3.27,3.27,0,0,0,3.3-2.856,3.177,3.177,0,0,0-3.158-3.49H145a3.588,3.588,0,0,0-3.576,3.353h-3.781a1.018,1.018,0,0,0-1.018,1.018h0a1.018,1.018,0,0,0,1.018,1.018H139V727.98h-1.018A1.018,1.018,0,0,0,136.96,729h0a1.018,1.018,0,0,0,1.018,1.018h3.81a4.412,4.412,0,0,0,4.165,3.574c-9.508,8.661-15.348,17.074-10.806,28.806.007.025.166.445.166.445a1.018,1.018,0,0,0,1.9-.742l-.011-.026C134.084,754.439,134.188,746.78,148,734.489Zm-4.248-5.331a1.207,1.207,0,0,0-1.232-1.178h-1.483V716.064h1.2a1.213,1.213,0,0,0,1.213-1.213v-.592A1.547,1.547,0,0,1,145,712.711h13.2a1.137,1.137,0,0,1,0,2.275l-6.279,0a.916.916,0,0,0-.879.634c-.782,2.5-2.217,4.128-4.586,3.88a1.036,1.036,0,0,0-1.13.738h0a1.025,1.025,0,0,0,.881,1.284,5.565,5.565,0,0,0,3.628-.776c.381,2.491,1.412,6.654-1.876,10.819h-1.835A2.375,2.375,0,0,1,143.747,729.158Z" transform="translate(-133.578 -710.675)" fill="#545454"/>
        </g>
        <g id="그룹_77" data-name="그룹 77" transform="translate(35.201 14.711)">
          <path id="패스_239" data-name="패스 239" d="M184.636,719.815V716.37a1.018,1.018,0,0,0-1.018-1.018h-5.3a3.233,3.233,0,0,0-3.23,3.23,3.18,3.18,0,0,1-1.156,4.424,3.177,3.177,0,0,1,.481,4.424,3.175,3.175,0,0,1,1.228,4.423,3.233,3.233,0,0,0,3.23,3.23h4.746a1.018,1.018,0,0,0,1.018-1.018V730.62a1.015,1.015,0,0,0,.754-.979v-8.847A1.015,1.015,0,0,0,184.636,719.815Zm-6.992,8.808a1.194,1.194,0,0,1,0-2.387h5.71v2.387h-5.71Zm-.481-4.423a1.194,1.194,0,0,1,0-2.388h6.191V724.2h-6.191Zm1.156-6.811H182.6v2.387h-4.281a1.194,1.194,0,1,1,0-2.387Zm4.281,15.659h-3.728a1.194,1.194,0,0,1,0-2.388H182.6Z" transform="translate(-173.933 -715.352)" fill="#545454"/>
        </g>
        <g id="그룹_78" data-name="그룹 78" transform="translate(21.379 35.509)">
          <path id="패스_240" data-name="패스 240" d="M177.71,746h0a1.016,1.016,0,0,0-.694,1.758c6.863,6.319,10.478,12.168,10.478,17.023a22.783,22.783,0,0,1-32.373,20.613h0l-.128-.056a1.019,1.019,0,0,0-1.4.683,1.058,1.058,0,0,0,.63,1.2l.555.244a1.064,1.064,0,0,0,.1.033,24.812,24.812,0,0,0,34.648-22.722c0-5.509-3.748-11.728-11.125-18.51A1.032,1.032,0,0,0,177.71,746Z" transform="translate(-153.565 -746)" fill="#545454"/>
        </g>
        <g id="그룹_79" data-name="그룹 79" transform="translate(20.352 39.508)">
          <path id="패스_241" data-name="패스 241" d="M154.663,752.519l-.381-.4a.743.743,0,0,0-1.056-.018c-.273.269-.576.571-.958.956a.745.745,0,0,0,.007,1.057l.394.384a.746.746,0,0,0,1.048-.012c.372-.375.665-.666.928-.926A.743.743,0,0,0,154.663,752.519Z" transform="translate(-152.052 -751.893)" fill="#545454"/>
        </g>
        <g id="그룹_80" data-name="그룹 80" transform="translate(37.18 57.525)">
          <path id="패스_242" data-name="패스 242" d="M176.88,793.606h0a1.025,1.025,0,0,0,1.308.719,20.038,20.038,0,0,0,13.564-14.618,1.026,1.026,0,0,0-.815-1.251h0a1.009,1.009,0,0,0-1.16.756,18,18,0,0,1-12.231,13.18A1.008,1.008,0,0,0,176.88,793.606Z" transform="translate(-176.849 -778.442)" fill="#545454"/>
        </g>
        <g id="그룹_81" data-name="그룹 81" transform="translate(24.198 22.682)">
          <path id="패스_243" data-name="패스 243" d="M157.982,742.749h0a1.027,1.027,0,0,0,1.49.029,17.634,17.634,0,0,0,5.263-14.748,1.025,1.025,0,0,0-1.17-.919h0a1.007,1.007,0,0,0-.859,1.086,15.636,15.636,0,0,1-4.7,13.164A1.009,1.009,0,0,0,157.982,742.749Z" transform="translate(-157.719 -727.099)" fill="#545454"/>
        </g>
        <g id="그룹_82" data-name="그룹 82" transform="translate(50.318 51.63)">
          <path id="패스_244" data-name="패스 244" d="M198.425,771.493a10.378,10.378,0,0,0-.227-1.19.725.725,0,0,0-.905-.519l-.567.165a.727.727,0,0,0-.5.873,7.974,7.974,0,0,1,.181.964.715.715,0,0,0,.713.628h.425A.836.836,0,0,0,198.425,771.493Z" transform="translate(-196.209 -769.755)" fill="#545454"/>
        </g>
        <g id="그룹_83" data-name="그룹 83" transform="translate(19.719)">
          <path id="패스_245" data-name="패스 245" d="M152.409,703.249a.292.292,0,0,0,.289.247h1.468a.292.292,0,0,0,.289-.337l-1.167-7.448h16.28l-1.184,7.447a.292.292,0,0,0,.288.338h1.469a.292.292,0,0,0,.289-.246l.542-3.405h2.648l-1.055,6.016a.293.293,0,0,0,.288.343h1.473a.293.293,0,0,0,.288-.242l1.173-6.691a1.247,1.247,0,0,0-1.228-1.462H171.3l.428-2.692a1.245,1.245,0,0,0-1.23-1.441H152.366a1.245,1.245,0,0,0-1.231,1.439Z" transform="translate(-151.119 -693.675)" fill="#545454"/>
        </g>
      </g>
    </g>
  </g>
</svg>
