<svg xmlns="http://www.w3.org/2000/svg" width="66.492" height="64.577" viewBox="0 0 66.492 64.577">
  <g id="그룹_1414" data-name="그룹 1414" transform="translate(0.071 0.5)">
    <g id="그룹_1391" data-name="그룹 1391" transform="translate(3.767)">
      <path id="패스_901" data-name="패스 901" d="M768.667,199.733V172.5h7.8l-11.969-8.23v-11.1h-7.09V159.4l-10.051-6.915L718.241,172.5h8.028V192.37h4.663V171.05l16.328-11.677,16.328,11.677v30.787" transform="translate(-718.241 -152.482)" fill="#15376c"/>
    </g>
    <path id="패스_902" data-name="패스 902" d="M774.971,199.24l-18.811,7.933c-3.527,1.488-7.058,2.214-10.816,1.065a3.539,3.539,0,0,0,4.074-4.781l0,0-.01-.021a3.523,3.523,0,0,0-.611-.993c-.03-.034-.062-.066-.093-.1a3.559,3.559,0,0,0-.338-.315c-.035-.028-.068-.058-.1-.085a3.529,3.529,0,0,0-.5-.322L734.9,194.912a2.477,2.477,0,0,0-1.145-.281h-19.5v14.312H723.6l18.261,7.895a17.017,17.017,0,0,0,14.2-.317l21.92-10.665a3.634,3.634,0,0,0-3-6.616Z" transform="translate(-714.26 -154.741)" fill="#e6e6e6"/>
    <g id="그룹_1412" data-name="그룹 1412" transform="translate(0.429 0)">
      <g id="그룹_1401" data-name="그룹 1401" transform="translate(16.582 39.893)">
        <g id="그룹_1400" data-name="그룹 1400">
          <g id="그룹_1395" data-name="그룹 1395">
            <g id="그룹_1392" data-name="그룹 1392">
              <path id="패스_903" data-name="패스 903" d="M732.234,194.634h3.1l13.116,6.842.013.006" transform="translate(-732.234 -194.634)" fill="none" stroke="#383838" stroke-linecap="round" stroke-linejoin="round" stroke-width="1"/>
            </g>
            <g id="그룹_1393" data-name="그룹 1393" transform="translate(16.218 6.842)">
              <line id="선_57" data-name="선 57" x1="0.013" y1="0.006" stroke-width="1" stroke="#383838" stroke-linecap="round" stroke-linejoin="round" fill="none"/>
            </g>
            <g id="그룹_1394" data-name="그룹 1394" transform="translate(16.218 6.842)">
              <line id="선_58" data-name="선 58" x1="0.013" y1="0.006" stroke-width="1" stroke="#383838" stroke-linecap="round" stroke-linejoin="round" fill="none"/>
            </g>
          </g>
          <g id="그룹_1399" data-name="그룹 1399">
            <g id="그룹_1396" data-name="그룹 1396">
              <path id="패스_904" data-name="패스 904" d="M748.465,201.483l-.013-.006-13.116-6.842h-3.1" transform="translate(-732.234 -194.634)" fill="none" stroke="#383838" stroke-linecap="round" stroke-linejoin="round" stroke-width="1"/>
            </g>
            <g id="그룹_1397" data-name="그룹 1397" transform="translate(16.218 6.842)">
              <line id="선_59" data-name="선 59" x1="0.013" y1="0.006" stroke-width="1" stroke="#383838" stroke-linecap="round" stroke-linejoin="round" fill="none"/>
            </g>
            <g id="그룹_1398" data-name="그룹 1398" transform="translate(16.218 6.842)">
              <line id="선_60" data-name="선 60" x1="0.013" y1="0.006" stroke-width="1" stroke="#383838" stroke-linecap="round" stroke-linejoin="round" fill="none"/>
            </g>
          </g>
        </g>
      </g>
      <g id="그룹_1410" data-name="그룹 1410" transform="translate(0 39.893)">
        <g id="그룹_1409" data-name="그룹 1409">
          <g id="그룹_1408" data-name="그룹 1408">
            <g id="그룹_1403" data-name="그룹 1403">
              <g id="그룹_1402" data-name="그룹 1402">
                <path id="패스_905" data-name="패스 905" d="M714.713,194.634H734.4l13.4,6.994a3.554,3.554,0,0,1,1.91,3.151h0a3.553,3.553,0,0,1-5.082,3.207l-11.467-5.465" transform="translate(-714.713 -194.634)" fill="none" stroke="#383838" stroke-linecap="round" stroke-linejoin="round" stroke-width="1"/>
                <path id="패스_906" data-name="패스 906" d="M714.713,209.191h8.918l18.262,7.895a17.014,17.014,0,0,0,14.2-.318L778.009,206.1a3.634,3.634,0,0,0,1.723-4.761h0a3.634,3.634,0,0,0-4.725-1.856L756.2,207.421c-4.531,1.911-9.067,2.58-14.086-.392h0" transform="translate(-714.713 -194.879)" fill="none" stroke="#383838" stroke-linecap="round" stroke-linejoin="round" stroke-width="1"/>
              </g>
            </g>
            <g id="그룹_1407" data-name="그룹 1407" transform="translate(13.933 0.001)">
              <g id="그룹_1404" data-name="그룹 1404">
                <path id="패스_907" data-name="패스 907" d="M750.247,203.464a3.55,3.55,0,0,0-1.654-1.835l-.292-.152-13.112-6.842h-5.753" transform="translate(-729.435 -194.635)" fill="none" stroke="#383838" stroke-linecap="round" stroke-linejoin="round" stroke-width="1"/>
              </g>
              <g id="그룹_1405" data-name="그룹 1405" transform="translate(18.866 6.842)">
                <path id="패스_908" data-name="패스 908" d="M749.369,201.864l.292.152a3.55,3.55,0,0,1,1.654,1.835" transform="translate(-749.369 -201.864)" fill="none" stroke="#383838" stroke-linecap="round" stroke-linejoin="round" stroke-width="1"/>
              </g>
              <g id="그룹_1406" data-name="그룹 1406" transform="translate(18.866 6.842)">
                <path id="패스_909" data-name="패스 909" d="M749.369,201.864l.292.152a3.55,3.55,0,0,1,1.654,1.835" transform="translate(-749.369 -201.864)" fill="none" stroke="#383838" stroke-linecap="round" stroke-linejoin="round" stroke-width="1"/>
              </g>
            </g>
          </g>
        </g>
      </g>
      <g id="그룹_1411" data-name="그룹 1411" transform="translate(3.338)">
        <path id="패스_910" data-name="패스 910" d="M776.465,172.5h-7.8v27.229l-6.814,2.874-5.466,2.3c-.438.185-.877.361-1.316.521a14.166,14.166,0,0,1-9.192.645c-.088-.025-.178-.052-.266-.079a3.521,3.521,0,0,1-.711-.237c-.406-.148-.082-.039-.082-.039a.1.1,0,0,1,.025.011c.079.03.154.058.233.085.124.045.251.088.375.127.055.018.11.033.164.048a3.369,3.369,0,0,0,.735.079,3.511,3.511,0,0,0,.974-.139c.027-.006.058-.015.088-.024.078-.027.157-.055.236-.085a.936.936,0,0,0,.091-.039,3.96,3.96,0,0,0,.411-.206,3.6,3.6,0,0,0,.8-.638,2.8,2.8,0,0,0,.22-.257c.037-.048.07-.094.1-.142.066-.094.127-.19.185-.291a3.509,3.509,0,0,0,.221-.478,3.069,3.069,0,0,0,.109-.339,3.637,3.637,0,0,0-1.793-4.068l-.291-.154-13.112-6.842h-8.321V172.5H718.24l29.114-20.021,10.051,6.914v-6.219H764.5v11.095Z" transform="translate(-718.24 -152.482)" fill="none" stroke="#383838" stroke-linecap="round" stroke-linejoin="round" stroke-width="1"/>
      </g>
    </g>
    <g id="그룹_1413" data-name="그룹 1413" transform="translate(23.477 21.069)">
      <g id="패스_911" data-name="패스 911" transform="translate(-739.066 -174.744)" fill="#ffcd73" stroke-miterlimit="10">
        <path d="M 752.9999389648438 191.1133422851563 L 752.2797241210938 191.1133422851563 C 751.9690551757813 191.1133422851563 751.7576904296875 191.0882873535156 751.5966186523438 190.9602355957031 C 751.431396484375 190.8282012939453 751.3609619140625 190.6238250732422 751.2954711914063 190.3155364990234 L 749.4710693359375 182.2899780273438 L 747.9215698242188 182.2899780273438 C 747.6097412109375 183.574462890625 747.3090209960938 184.8536529541016 747.0263671875 186.0980529785156 C 746.72314453125 187.4349212646484 746.4068603515625 188.8077850341797 746.0594482421875 190.2950744628906 C 745.9865112304688 190.6313781738281 745.9185180664063 190.7928161621094 745.8001098632813 190.9111480712891 C 745.6317138671875 191.0795135498047 745.3980712890625 191.1133422851563 745.07568359375 191.1133422851563 L 744.3999633789063 191.1133422851563 C 744.1004028320313 191.1133422851563 743.8658447265625 191.0836486816406 743.695068359375 190.9387817382813 C 743.5316772460938 190.8026885986328 743.456298828125 190.5820159912109 743.39501953125 190.2934722900391 L 741.5490112304688 182.2899780273438 L 739.3802490234375 182.2899780273438 C 739.1317138671875 182.2899780273438 738.9124145507813 182.2763977050781 738.7454833984375 182.1094055175781 C 738.5794677734375 181.9433898925781 738.5659790039063 181.7238006591797 738.5659790039063 181.474853515625 L 738.5659790039063 181.15966796875 C 738.5659790039063 180.9083557128906 738.579833984375 180.6867065429688 738.7494506835938 180.5212097167969 C 738.9158935546875 180.3579254150391 739.1336669921875 180.3445434570313 739.3802490234375 180.3445434570313 L 741.09228515625 180.3445434570313 C 740.927734375 179.6326446533203 740.763916015625 178.9124908447266 740.6033935546875 178.1959838867188 C 740.39404296875 177.2613677978516 740.1828002929688 176.329833984375 739.9755249023438 175.4271240234375 C 739.8642578125 175.0059356689453 739.8358154296875 174.7180938720703 740.0159301757813 174.4961547851563 L 740.0197143554688 174.491455078125 L 740.0236206054688 174.4868774414063 C 740.1967163085938 174.2837677001953 740.463623046875 174.2440185546875 740.8660888671875 174.2440185546875 L 741.2938232421875 174.2440185546875 C 741.6898193359375 174.2440185546875 741.8842163085938 174.2878723144531 742.0366821289063 174.4116058349609 L 742.0411987304688 174.415283203125 L 742.045654296875 174.4190673828125 C 742.1849365234375 174.53759765625 742.2683715820313 174.7140960693359 742.3643798828125 175.0935668945313 L 742.3660888671875 175.1002349853516 L 742.3676147460938 175.1069641113281 L 743.5406494140625 180.3445434570313 L 746.072021484375 180.3445434570313 C 746.2481079101563 179.5669097900391 746.4336547851563 178.7529449462891 746.6250610351563 177.9190216064453 C 746.8428344726563 176.9728546142578 747.0748901367188 176.0148468017578 747.3148803710938 175.0712738037109 C 747.4108276367188 174.7085571289063 747.497802734375 174.5322570800781 747.636962890625 174.4160614013672 C 747.8099365234375 174.2726135253906 748.0423583984375 174.2440185546875 748.3616333007813 174.2440185546875 L 749.1499633789063 174.2440185546875 C 749.469970703125 174.2440185546875 749.7027587890625 174.2726440429688 749.8743896484375 174.4151611328125 C 750.0443115234375 174.5566711425781 750.117431640625 174.7785491943359 750.179443359375 175.0904083251953 L 751.3728637695313 180.3445434570313 L 753.9263305664063 180.3445434570313 C 754.1109008789063 179.5254058837891 754.3052978515625 178.6976013183594 754.5054931640625 177.8781280517578 C 754.7296142578125 176.9604949951172 754.9520263671875 176.0057830810547 755.16650390625 175.0405883789063 C 755.2325439453125 174.73681640625 755.30224609375 174.5339660644531 755.4614868164063 174.4026641845703 L 755.4649047851563 174.3998718261719 L 755.4683227539063 174.3971405029297 C 755.62939453125 174.2690734863281 755.8403930664063 174.2440185546875 756.1505126953125 174.2440185546875 L 756.69091796875 174.2440185546875 C 756.9901123046875 174.2440185546875 757.2738037109375 174.2618255615234 757.4557495117188 174.4767150878906 L 757.4627685546875 174.4849548339844 L 757.4693603515625 174.4934844970703 C 757.6410522460938 174.7149353027344 757.5987548828125 175.0011596679688 757.5406494140625 175.2753601074219 L 757.5391845703125 175.2824554443359 L 757.5374755859375 175.2895050048828 L 756.3128662109375 180.3445434570313 L 758.0414428710938 180.3445434570313 C 758.3050537109375 180.3445434570313 758.4873657226563 180.3668823242188 758.6365966796875 180.4806671142578 C 758.8604736328125 180.6503448486328 758.8793334960938 180.9199523925781 758.8793334960938 181.15966796875 L 758.8793334960938 181.4966125488281 C 758.8793334960938 181.6489868164063 758.8793334960938 181.966064453125 758.6398315429688 182.1513671875 C 758.4899291992188 182.2673034667969 758.3069458007813 182.2899780273438 758.0414428710938 182.2899780273438 L 755.8908081054688 182.2899780273438 C 755.5921630859375 183.5126647949219 755.2943115234375 184.7669830322266 754.9833374023438 186.1113433837891 C 754.6602172851563 187.5088806152344 754.3231201171875 188.9247589111328 753.9814453125 190.3198089599609 C 753.916748046875 190.6230010986328 753.8474731445313 190.8244934082031 753.6883544921875 190.9552001953125 L 753.6828002929688 190.9597625732422 L 753.6771240234375 190.9641571044922 C 753.5160522460938 191.0889282226563 753.3068237304688 191.1133422851563 752.9999389648438 191.1133422851563 Z M 743.9494018554688 182.2899780273438 C 744.1544799804688 183.1676025390625 744.3544921875 184.0208435058594 744.548828125 184.8490447998047 C 744.6362915039063 185.2191162109375 744.72412109375 185.5923156738281 744.8134765625 185.97314453125 L 745.701416015625 182.2899780273438 L 743.9494018554688 182.2899780273438 Z M 751.7835083007813 182.2899780273438 L 751.9139404296875 182.8493804931641 C 752.0734252929688 183.5335998535156 752.229736328125 184.2041473388672 752.38330078125 184.8607788085938 C 752.467529296875 185.2228088378906 752.5528564453125 185.5887756347656 752.6390991210938 185.9588470458984 L 753.4943237304688 182.2899780273438 L 751.7835083007813 182.2899780273438 Z M 748.4064331054688 180.3445434570313 L 749.0364990234375 180.3445434570313 C 748.9252319335938 179.8718109130859 748.8209838867188 179.4302215576172 748.720458984375 179.0087127685547 C 748.6185302734375 179.4404754638672 748.5122680664063 179.8915863037109 748.4064331054688 180.3445434570313 Z" stroke="none"/>
        <path d="M 740.8660888671875 174.7440185546875 C 740.5963134765625 174.7440185546875 740.4420776367188 174.7667236328125 740.4041748046875 174.8111877441406 C 740.3673095703125 174.8566284179688 740.3853149414063 175.0222473144531 740.4609985351563 175.30712890625 C 740.671142578125 176.2222900390625 740.8812255859375 177.1488342285156 741.09130859375 178.0867004394531 C 741.3013916015625 179.0245971679688 741.5115356445313 179.9435729980469 741.7216186523438 180.8445434570313 L 739.3802490234375 180.8445434570313 C 739.2155151367188 180.8445434570313 739.121826171875 180.8558959960938 739.09912109375 180.8786010742188 C 739.076416015625 180.9003601074219 739.0659790039063 180.9940795898438 739.0659790039063 181.15966796875 L 739.0659790039063 181.474853515625 C 739.0659790039063 181.6395263671875 739.076416015625 181.7332153320313 739.09912109375 181.7559204101563 C 739.121826171875 181.7786254882813 739.2155151367188 181.7899780273438 739.3802490234375 181.7899780273438 L 741.9468383789063 181.7899780273438 L 743.8832397460938 190.185546875 C 743.9276733398438 190.3956604003906 743.9730834960938 190.5196228027344 744.0185546875 190.5574951171875 C 744.0620727539063 190.5944213867188 744.1907958984375 190.6133422851563 744.3999633789063 190.6133422851563 L 745.07568359375 190.6133422851563 C 745.2857666015625 190.6133422851563 745.4097290039063 190.5944213867188 745.4466552734375 190.5574951171875 C 745.4845581054688 190.5196228027344 745.5261840820313 190.3956604003906 745.5715942382813 190.185546875 C 745.9010009765625 188.7754211425781 746.2236938476563 187.3766174316406 746.538818359375 185.9873046875 C 746.8539428710938 184.5998840332031 747.1842651367188 183.2001342773438 747.5287475585938 181.7899780273438 L 749.8701782226563 181.7899780273438 L 751.7838134765625 190.2082824707031 C 751.8283081054688 190.4183654785156 751.869873046875 190.53857421875 751.9077758789063 190.56884765625 C 751.9447021484375 190.5982055664063 752.0686645507813 190.6133422851563 752.2797241210938 190.6133422851563 L 752.9999389648438 190.6133422851563 C 753.2091064453125 190.6133422851563 753.3330688476563 190.5982055664063 753.3709716796875 190.56884765625 C 753.4078369140625 190.53857421875 753.449462890625 190.4183654785156 753.4939575195313 190.2082824707031 C 753.8394165039063 188.7981262207031 754.1734619140625 187.3945922851563 754.4962158203125 185.9986572265625 C 754.8189086914063 184.6036682128906 755.1520385742188 183.2001342773438 755.4984741210938 181.7899780273438 L 758.0414428710938 181.7899780273438 C 758.2070922851563 181.7899780273438 758.3045043945313 181.7786254882813 758.3338623046875 181.7559204101563 C 758.3632202148438 181.7332153320313 758.3793334960938 181.6470947265625 758.3793334960938 181.4966125488281 L 758.3793334960938 181.15966796875 C 758.3793334960938 180.9940795898438 758.3632202148438 180.9003601074219 758.3338623046875 180.8786010742188 C 758.3045043945313 180.8558959960938 758.2070922851563 180.8445434570313 758.0414428710938 180.8445434570313 L 755.6773071289063 180.8445434570313 L 757.051513671875 175.1717834472656 C 757.0960083007813 174.961669921875 757.1035766601563 174.8377075195313 757.07421875 174.7998352050781 C 757.04296875 174.762939453125 756.9161376953125 174.7440185546875 756.69091796875 174.7440185546875 L 756.1505126953125 174.7440185546875 C 755.9404296875 174.7440185546875 755.8164672851563 174.7591247558594 755.779541015625 174.7884826660156 C 755.7416381835938 174.8197326660156 755.7000732421875 174.9399108886719 755.6546020507813 175.1490478515625 C 755.4445190429688 176.0945129394531 755.2239990234375 177.0437622070313 754.9912109375 177.9967956542969 C 754.7583618164063 178.9498291015625 754.5369262695313 179.8990783691406 754.3267822265625 180.8445434570313 L 750.9736938476563 180.8445434570313 L 749.6903686523438 175.1944885253906 C 749.6458740234375 174.96923828125 749.6004638671875 174.8377075195313 749.5549926757813 174.7998352050781 C 749.5105590820313 174.762939453125 749.3751831054688 174.7440185546875 749.1499633789063 174.7440185546875 L 748.3616333007813 174.7440185546875 C 748.1373291015625 174.7440185546875 748.001953125 174.762939453125 747.9574584960938 174.7998352050781 C 747.912109375 174.8377075195313 747.8590698242188 174.96923828125 747.7994384765625 175.1944885253906 C 747.5590209960938 176.1399536132813 747.3300170898438 177.0854187011719 747.1123657226563 178.0308532714844 C 746.8956298828125 178.9753723144531 746.6817016601563 179.9142150878906 746.4716186523438 180.8445434570313 L 743.1402587890625 180.8445434570313 L 741.8796997070313 175.2162475585938 C 741.819091796875 174.9768371582031 741.76611328125 174.8377075195313 741.7216186523438 174.7998352050781 C 741.6761474609375 174.762939453125 741.5342407226563 174.7440185546875 741.2938232421875 174.7440185546875 L 740.8660888671875 174.7440185546875 M 749.6676635742188 180.8445434570313 L 747.7767333984375 180.8445434570313 C 747.9262084960938 180.1990661621094 748.0842895507813 179.5271301269531 748.2489624023438 178.8296508789063 C 748.41455078125 178.1321411132813 748.5717163085938 177.4601745605469 748.72216796875 176.815673828125 C 748.8877563476563 177.535888671875 749.044921875 178.210693359375 749.1944580078125 178.8410034179688 C 749.3449096679688 179.4712829589844 749.5020141601563 180.1394653320313 749.6676635742188 180.8445434570313 M 744.8059692382813 188.1375427246094 C 744.5504760742188 187.0425415039063 744.3034057617188 185.9844665527344 744.0620727539063 184.9632873535156 C 743.8226318359375 183.9430847167969 743.57470703125 182.8849792480469 743.3191528320313 181.7899780273438 L 746.3363037109375 181.7899780273438 L 744.8059692382813 188.1375427246094 M 752.639404296875 188.1602478027344 C 752.3838500976563 187.0652465820313 752.1358642578125 186.0033874511719 751.8964233398438 184.9746398925781 C 751.6560668945313 183.9468688964844 751.4089965820313 182.8849792480469 751.1535034179688 181.7899780273438 L 754.124267578125 181.7899780273438 L 752.639404296875 188.1602478027344 M 740.8660888671875 173.7440185546875 L 741.2938232421875 173.7440185546875 C 741.6390991210938 173.7440185546875 742.0340576171875 173.7655944824219 742.3516235351563 174.0232543945313 L 742.36083984375 174.0307006835938 L 742.3698120117188 174.0383605957031 C 742.6280517578125 174.2581634521484 742.74462890625 174.5581207275391 742.84912109375 174.9708709716797 L 742.8524780273438 174.9842376708984 L 742.8555297851563 174.9976959228516 L 743.9410400390625 179.8445434570313 L 745.6727294921875 179.8445434570313 C 745.8222045898438 179.1856536865234 745.9779663085938 178.5033569335938 746.1376953125 177.8071899414063 C 746.3564453125 176.8569946289063 746.5894165039063 175.8952789306641 746.8302612304688 174.9480438232422 L 746.8314819335938 174.9432983398438 L 746.832763671875 174.9385833740234 C 746.9351806640625 174.551513671875 747.056640625 174.2492828369141 747.31640625 174.0323333740234 C 747.6375122070313 173.76611328125 748.024169921875 173.7440185546875 748.3616333007813 173.7440185546875 L 749.1499633789063 173.7440185546875 C 749.488037109375 173.7440185546875 749.8753662109375 173.7661437988281 750.1937255859375 174.0303955078125 C 750.4747924804688 174.2645263671875 750.5875244140625 174.5819702148438 750.6685791015625 174.9863128662109 L 751.7720336914063 179.8445434570313 L 753.5270385742188 179.8445434570313 C 753.685546875 179.1504364013672 753.8505859375 178.4520416259766 754.019775390625 177.7594757080078 C 754.2430419921875 176.8453521728516 754.4646606445313 175.8940734863281 754.6784057617188 174.93212890625 C 754.7492065429688 174.6064605712891 754.8442993164063 174.2635040283203 755.1433715820313 174.0169372558594 L 755.1502685546875 174.0112609863281 L 755.1572265625 174.0057067871094 C 755.4609375 173.7642364501953 755.814453125 173.7440185546875 756.1505126953125 173.7440185546875 L 756.69091796875 173.7440185546875 C 756.9703369140625 173.7440185546875 757.4904174804688 173.7440185546875 757.8372192382813 174.1534576416016 L 757.8512573242188 174.1700439453125 L 757.8646240234375 174.1872253417969 C 758.1925659179688 174.6103668212891 758.086669921875 175.1103363037109 758.0298461914063 175.3789367675781 L 758.0267944335938 175.3931274414063 L 758.0233764648438 175.4072265625 L 756.948486328125 179.8445434570313 L 758.0414428710938 179.8445434570313 C 758.3243408203125 179.8445434570313 758.6497802734375 179.8629913330078 758.9378051757813 180.0815887451172 C 759.37939453125 180.4154205322266 759.3793334960938 180.9364013671875 759.3793334960938 181.15966796875 L 759.3793334960938 181.4966125488281 C 759.3793334960938 181.6920928955078 759.3793334960938 182.2113647460938 758.94580078125 182.5468139648438 C 758.65576171875 182.7711944580078 758.326904296875 182.7899780273438 758.0414428710938 182.7899780273438 L 756.2836303710938 182.7899780273438 C 756.0164794921875 183.890380859375 755.748779296875 185.0210723876953 755.470458984375 186.2240295410156 C 755.1474609375 187.6211395263672 754.8104858398438 189.0367431640625 754.4688720703125 190.4314727783203 C 754.3987426757813 190.7590484619141 754.302978515625 191.0973968505859 754.0057373046875 191.341552734375 L 753.9945678710938 191.3507232666016 L 753.983154296875 191.3595733642578 C 753.6806640625 191.59375 753.3316040039063 191.6133422851563 752.9999389648438 191.6133422851563 L 752.2797241210938 191.6133422851563 C 751.9432373046875 191.6133422851563 751.58935546875 191.5931396484375 751.2855834960938 191.3517150878906 C 750.974853515625 191.1034698486328 750.8751831054688 190.742919921875 750.8070678710938 190.4228820800781 L 749.0719604492188 182.7899780273438 L 748.3150024414063 182.7899780273438 C 748.0367431640625 183.9434051513672 747.7680053710938 185.0902557373047 747.5139770507813 186.2087860107422 C 747.2108154296875 187.5454254150391 746.89453125 188.918212890625 746.5472412109375 190.4050903320313 C 746.4671630859375 190.773193359375 746.3726806640625 191.0458526611328 746.1535034179688 191.2648773193359 C 745.8472900390625 191.5710906982422 745.4544677734375 191.6133422851563 745.07568359375 191.6133422851563 L 744.3999633789063 191.6133422851563 C 744.04541015625 191.6133422851563 743.6754150390625 191.5778045654297 743.3715209960938 191.3199768066406 C 743.0847778320313 191.0770721435547 742.9780883789063 190.7357788085938 742.9068603515625 190.4017028808594 L 741.1512451171875 182.7899780273438 L 739.3802490234375 182.7899780273438 C 739.1491088867188 182.7899780273438 738.718994140625 182.7899780273438 738.3920288085938 182.4630279541016 C 738.0659790039063 182.1368560791016 738.0659790039063 181.7224578857422 738.0659790039063 181.474853515625 L 738.0659790039063 181.15966796875 C 738.0659790039063 180.9078063964844 738.06591796875 180.4869537353516 738.4031982421875 180.1604461669922 C 738.728759765625 179.8445281982422 739.1517944335938 179.8445434570313 739.3802490234375 179.8445434570313 L 740.4641723632813 179.8445434570313 C 740.3468627929688 179.3324737548828 740.2303466796875 178.8179321289063 740.115478515625 178.3052825927734 C 739.906982421875 177.3744506835938 739.6966552734375 176.4467468261719 739.4901733398438 175.5475463867188 C 739.3986206054688 175.2024993896484 739.2565307617188 174.6384887695313 739.6276245117188 174.1811065673828 L 739.63525390625 174.1717376708984 L 739.64306640625 174.1625366210938 C 739.9722290039063 173.7763671875 740.4469604492188 173.7440185546875 740.8660888671875 173.7440185546875 Z M 745.0665283203125 182.7899780273438 L 744.5797729492188 182.7899780273438 C 744.6605834960938 183.1352386474609 744.7405395507813 183.4766540527344 744.8196411132813 183.8140716552734 L 745.0665283203125 182.7899780273438 Z M 752.8643798828125 182.7899780273438 L 752.4135131835938 182.7899780273438 C 752.4893798828125 183.1154479980469 752.5645141601563 183.4377593994141 752.6389770507813 183.7569885253906 L 752.8643798828125 182.7899780273438 Z" stroke="none" fill="#383838"/>
      </g>
    </g>
    <path id="패스_912" data-name="패스 912" d="M731.65,192.761V171.44l16.328-11.677,16.328,11.677v30.787" transform="translate(-715.192 -152.872)" fill="none" stroke="#383838" stroke-linecap="round" stroke-linejoin="round" stroke-width="1"/>
  </g>
</svg>
