<svg id="그룹_1683" data-name="그룹 1683" xmlns="http://www.w3.org/2000/svg" width="69.769" height="66.109" viewBox="0 0 69.769 66.109">
  <g id="그룹_667" data-name="그룹 667" transform="translate(44.586 0.666)">
    <ellipse id="타원_24" data-name="타원 24" cx="12.246" cy="12.246" rx="12.246" ry="12.246" fill="#ffc7c0"/>
  </g>
  <g id="그룹_668" data-name="그룹 668" transform="translate(40.365 7.43)">
    <path id="패스_887" data-name="패스 887" d="M4.781-.242C7.155-.242,8.6,2.015,8.6,4.5S7.249,8.726,4.874,8.726A4.4,4.4,0,0,1,.421,4.383,4.565,4.565,0,0,1,4.781-.242Z" transform="translate(-1)" fill="#ffc7c0"/>
  </g>
  <g id="그룹_682" data-name="그룹 682" transform="translate(0 0)">
    <g id="그룹_669" data-name="그룹 669" transform="translate(7.851 1.749)">
      <path id="패스_509" data-name="패스 509" d="M652.009,292.876a5.386,5.386,0,1,1,5.386-5.387,5.35,5.35,0,0,1-5.386,5.387Z" transform="translate(-646.623 -282.104)" fill="#ffcd73"/>
    </g>
    <g id="그룹_670" data-name="그룹 670" transform="translate(0 12.532)">
      <path id="패스_510" data-name="패스 510" d="M664.179,346.885a4.638,4.638,0,0,1-4.507-3.6l-3.565-9.655a13.842,13.842,0,0,1-.664-1.651,6.489,6.489,0,0,0-.646-1.47l-.317,3.54a7.2,7.2,0,0,1-2.144,4.487l-5.995,6.574a4.63,4.63,0,0,1-6.85-6.207l4.283-5.883a6.2,6.2,0,0,0,1.384-3.6l.208-7.1a11.442,11.442,0,0,1-1.493-5.77h0c-.06-1.177-.042-2.384-.027-3.448.008-.606.016-1.185.011-1.722-.025-2.29.023-4.614.068-6.861.022-1.1.045-2.212.06-3.316a7.945,7.945,0,0,1,4.245-7.03,7.786,7.786,0,0,1,3.121-.849c3.454-.181,6.336,1.81,8.232,5.647l4.4,7.746a5.939,5.939,0,0,0,2.113,2.164l5.442,3.264a3.615,3.615,0,0,1,1.336,4.778,3.51,3.51,0,0,1-2.148,1.743,3.777,3.777,0,0,1-2.915-.343l-5.044-2.875a6.919,6.919,0,0,1-1.564-1.219l-1.8-1.876q-.045.5-.094,1.014c-.3,3.122-.605,6.351,1.181,8.677l.383.495c1.047,1.328,2.184,2.636,3.281,3.9l.08.091a6.8,6.8,0,0,1,1.375,3.154c.1.418.212.869.359,1.367L668.78,341.7a4.634,4.634,0,0,1-4.6,5.183Zm-9.771-17.933a.484.484,0,0,1,.294.1l.38.294a5.66,5.66,0,0,1,1.269,2.316,13.132,13.132,0,0,0,.638,1.589l3.6,9.76a3.7,3.7,0,0,0,1.661,2.359,3.67,3.67,0,0,0,5.581-3.5l-2.795-10.565c-.148-.5-.262-.966-.368-1.4a5.878,5.878,0,0,0-1.166-2.751l-.08-.092c-1.106-1.274-2.249-2.592-3.311-3.939l-.391-.5c-2.016-2.625-1.676-6.2-1.374-9.354.066-.706.134-1.4.171-2.063a.48.48,0,0,1,.314-.423.486.486,0,0,1,.514.118l2.548,2.655a5.962,5.962,0,0,0,1.346,1.05l5.044,2.875a2.813,2.813,0,0,0,2.169.255,2.555,2.555,0,0,0,1.565-1.268,2.65,2.65,0,0,0-.979-3.5L665.6,309.7a6.937,6.937,0,0,1-2.456-2.515l-4.411-7.773c-1.226-2.477-3.469-5.359-7.327-5.135a6.829,6.829,0,0,0-2.737.744,6.988,6.988,0,0,0-3.723,6.185c-.013,1.108-.037,2.215-.059,3.324-.046,2.24-.093,4.556-.069,6.83.007.545,0,1.132-.01,1.746-.016,1.1-.033,2.24.026,3.387a10.171,10.171,0,0,0,1.454,5.464.482.482,0,0,1,.036.5l-.2,6.994a7.133,7.133,0,0,1-1.582,4.15l-4.283,5.882a3.669,3.669,0,0,0,5.4,4.952l5.993-6.573a6.261,6.261,0,0,0,1.879-3.905l.407-4.571a.479.479,0,0,1,.286-.4A.488.488,0,0,1,654.408,328.952Z" transform="translate(-638.465 -293.307)" fill="#383838"/>
    </g>
    <g id="그룹_671" data-name="그룹 671" transform="translate(0.001 12.532)">
      <path id="패스_511" data-name="패스 511" d="M664.179,346.885a4.638,4.638,0,0,1-4.507-3.6l-3.565-9.655a13.842,13.842,0,0,1-.664-1.651,6.489,6.489,0,0,0-.646-1.47l-.317,3.54a7.2,7.2,0,0,1-2.144,4.487l-5.995,6.574a4.63,4.63,0,0,1-6.85-6.207l4.283-5.883a6.2,6.2,0,0,0,1.384-3.6l.208-7.1a11.442,11.442,0,0,1-1.493-5.77c-.06-1.178-.042-2.385-.027-3.45.008-.605.016-1.184.011-1.721-.025-2.29.023-4.614.068-6.861.022-1.1.045-2.212.06-3.316a7.945,7.945,0,0,1,4.245-7.03,7.786,7.786,0,0,1,3.121-.849c3.454-.181,6.336,1.81,8.232,5.647l4.4,7.746a5.939,5.939,0,0,0,2.113,2.164l5.442,3.264a3.615,3.615,0,0,1,1.336,4.778,3.51,3.51,0,0,1-2.148,1.743,3.777,3.777,0,0,1-2.915-.343l-5.044-2.875a6.9,6.9,0,0,1-1.563-1.218l-1.8-1.877q-.045.5-.094,1.014c-.3,3.122-.605,6.351,1.181,8.677l.383.495c1.047,1.328,2.184,2.636,3.281,3.9l.08.091a6.8,6.8,0,0,1,1.375,3.154c.1.418.212.869.359,1.367L668.78,341.7a4.634,4.634,0,0,1-4.6,5.183Zm-9.771-17.933a.484.484,0,0,1,.294.1l.38.294a5.66,5.66,0,0,1,1.269,2.316,13.132,13.132,0,0,0,.638,1.589l3.6,9.76a3.7,3.7,0,0,0,1.661,2.359,3.67,3.67,0,0,0,5.581-3.5l-2.795-10.565c-.148-.5-.262-.966-.368-1.4a5.878,5.878,0,0,0-1.166-2.751l-.08-.092c-1.106-1.274-2.249-2.592-3.311-3.939l-.39-.5c-2.017-2.626-1.677-6.2-1.375-9.355.066-.706.134-1.4.171-2.063a.48.48,0,0,1,.314-.423.486.486,0,0,1,.514.118l2.548,2.656a6,6,0,0,0,1.346,1.049l5.044,2.875a2.813,2.813,0,0,0,2.169.255,2.555,2.555,0,0,0,1.565-1.268,2.65,2.65,0,0,0-.979-3.5h0L665.6,309.7a6.937,6.937,0,0,1-2.456-2.515l-4.411-7.773c-1.226-2.477-3.469-5.359-7.327-5.135a6.829,6.829,0,0,0-2.737.744,6.988,6.988,0,0,0-3.723,6.185c-.013,1.108-.037,2.215-.059,3.324-.046,2.24-.093,4.556-.069,6.83.007.545,0,1.131-.01,1.746-.016,1.1-.033,2.24.026,3.387a10.171,10.171,0,0,0,1.454,5.464.482.482,0,0,1,.036.5l-.2,6.994a7.133,7.133,0,0,1-1.582,4.15l-4.283,5.882a3.669,3.669,0,0,0,5.4,4.952l5.993-6.573a6.261,6.261,0,0,0,1.879-3.905l.407-4.571a.479.479,0,0,1,.286-.4A.488.488,0,0,1,654.408,328.952Z" transform="translate(-638.466 -293.307)" fill="#383838"/>
    </g>
    <g id="그룹_672" data-name="그룹 672" transform="translate(6.904 40.922)">
      <path id="패스_512" data-name="패스 512" d="M654.678,331.024a.48.48,0,0,1-.311-.115l-8.559-7.255a.482.482,0,0,1,.624-.734l8.558,7.255a.482.482,0,0,1-.312.849Z" transform="translate(-645.639 -322.806)" fill="#383838"/>
    </g>
    <g id="그룹_673" data-name="그룹 673" transform="translate(16.131 25.742)">
      <path id="패스_513" data-name="패스 513" d="M661.031,313.69a.477.477,0,0,1-.352-.152l-5.324-5.7a.481.481,0,0,1,.7-.656l5.323,5.695a.48.48,0,0,1-.351.809Z" transform="translate(-655.226 -307.033)" fill="#383838"/>
    </g>
    <g id="그룹_674" data-name="그룹 674" transform="translate(19.822 29.981)">
      <path id="패스_514" data-name="패스 514" d="M663.8,315.727l2,1.137h-6.231v-2.185c.087-.941.185-1.866.234-2.742l2.548,2.655A6.494,6.494,0,0,0,663.8,315.727Z" transform="translate(-659.08 -311.456)" fill="#e6e6e6"/>
      <path id="패스_515" data-name="패스 515" d="M665.772,317.325h-6.23a.481.481,0,0,1-.481-.481v-2.186l.064-.7c.067-.708.135-1.4.171-2.067a.48.48,0,0,1,.314-.424.486.486,0,0,1,.514.118l2.549,2.655a5.988,5.988,0,0,0,1.345,1.05l1.994,1.137a.481.481,0,0,1-.239.9Zm-5.749-.962h3.933l-.417-.238h0a6.987,6.987,0,0,1-1.561-1.218l-1.8-1.876q-.045.5-.094,1.019l-.062.653Z" transform="translate(-659.061 -311.437)" fill="#383838"/>
    </g>
    <g id="그룹_675" data-name="그룹 675" transform="translate(20.206 17.923)">
      <path id="패스_516" data-name="패스 516" d="M675.707,299.409v16.984h-2.232a3.125,3.125,0,0,0-1.377-3.611l-5.443-3.261a6.445,6.445,0,0,1-2.284-2.343l-4.41-7.77Z" transform="translate(-659.479 -298.928)" fill="#e6e6e6"/>
      <path id="패스_517" data-name="패스 517" d="M675.686,316.854h-2.231a.481.481,0,0,1-.459-.625,2.635,2.635,0,0,0-1.165-3.054l-5.443-3.262a6.961,6.961,0,0,1-2.454-2.518l-4.411-7.77a.481.481,0,0,1,.419-.718h15.745a.481.481,0,0,1,.481.481v16.983A.481.481,0,0,1,675.686,316.854Zm-1.635-.962h1.154v-16.02H660.768l4,7.05a5.961,5.961,0,0,0,2.113,2.167l5.442,3.261A3.6,3.6,0,0,1,674.051,315.892Z" transform="translate(-659.46 -298.909)" fill="#383838"/>
    </g>
    <g id="그룹_676" data-name="그룹 676" transform="translate(24.473 18.404)">
      <rect id="사각형_250" data-name="사각형 250" width="3.71" height="3.685" fill="#15376c"/>
    </g>
    <g id="그룹_677" data-name="그룹 677" transform="translate(23.992 17.922)">
      <path id="패스_518" data-name="패스 518" d="M667.584,303.556h-3.709a.481.481,0,0,1-.481-.481v-3.685a.481.481,0,0,1,.481-.481h3.709a.481.481,0,0,1,.481.481v3.685A.481.481,0,0,1,667.584,303.556Zm-3.228-.962H667.1V299.87h-2.747Z" transform="translate(-663.394 -298.908)" fill="#383838"/>
    </g>
    <g id="그룹_678" data-name="그룹 678" transform="translate(6.879 0.778)">
      <path id="패스_519" data-name="패스 519" d="M651.971,293.807a6.356,6.356,0,1,1,6.354-6.356A6.318,6.318,0,0,1,651.971,293.807Zm0-11.749a5.392,5.392,0,1,0,3.813,1.58A5.4,5.4,0,0,0,651.971,282.057Z" transform="translate(-645.613 -281.095)" fill="#383838"/>
    </g>
    <g id="그룹_679" data-name="그룹 679" transform="translate(39.401)">
      <path id="패스_520" data-name="패스 520" d="M696.927,305.94a12.84,12.84,0,0,1-12.256-9.067,4.958,4.958,0,1,1,.913-9.753,12.916,12.916,0,0,1,15.184-6.258h0a12.832,12.832,0,0,1-3.841,25.078Zm-11.906-10.07a.481.481,0,0,1,.464.354,11.868,11.868,0,1,0,15-14.444h0a11.936,11.936,0,0,0-14.219,6.131.477.477,0,0,1-.591.244l-.114-.043a4,4,0,0,0-2.389,7.628,3.917,3.917,0,0,0,1.781.135A.572.572,0,0,1,685.021,295.87Z" transform="translate(-679.404 -280.286)" fill="#383838"/>
    </g>
    <g id="그룹_680" data-name="그룹 680" transform="translate(31.209 7.024)">
      <path id="패스_521" data-name="패스 521" d="M673.814,293.422a3,3,0,0,1-.544-.051,2.92,2.92,0,1,1,3.413-2.326h0A2.928,2.928,0,0,1,673.814,293.422Zm0-4.879a1.96,1.96,0,1,0,.368.035A1.978,1.978,0,0,0,673.81,288.544Zm2.4,2.412h0Z" transform="translate(-670.893 -287.584)" fill="#383838"/>
    </g>
    <g id="그룹_681" data-name="그룹 681" transform="translate(24.17 6.345)">
      <path id="패스_522" data-name="패스 522" d="M665.7,291.1a2.157,2.157,0,0,1-.4-.038,2.111,2.111,0,1,1,2.469-1.68h0a2.114,2.114,0,0,1-2.07,1.719Zm-.008-3.262a1.15,1.15,0,1,0,1.131,1.363,1.148,1.148,0,0,0-.915-1.342A1.085,1.085,0,0,0,665.688,287.84Zm1.6,1.453h0Z" transform="translate(-663.579 -286.879)" fill="#383838"/>
    </g>
  </g>
  <g id="그룹_684" data-name="그룹 684" transform="translate(51.775 3.745)">
    <g id="그룹_683" data-name="그룹 683">
      <path id="패스_523" data-name="패스 523" d="M697.59,284.677a4.832,4.832,0,0,0-4.826,4.827v3.11h2.31V289.5a2.516,2.516,0,0,1,5.032,0v3.11h2.311V289.5A4.832,4.832,0,0,0,697.59,284.677Z" transform="translate(-692.281 -284.196)" fill="#fff"/>
      <path id="패스_524" data-name="패스 524" d="M702.4,293.075h-2.31a.481.481,0,0,1-.481-.481v-3.109a2.035,2.035,0,1,0-4.069,0v3.109a.483.483,0,0,1-.481.481h-2.312a.482.482,0,0,1-.481-.481v-3.109a5.308,5.308,0,1,1,10.615,0v3.109A.483.483,0,0,1,702.4,293.075Zm-1.829-.962h1.347v-2.627a4.345,4.345,0,1,0-8.691,0v2.627h1.349v-2.627a3,3,0,1,1,5.994,0Z" transform="translate(-692.262 -284.177)" fill="#383838"/>
    </g>
  </g>
  <g id="그룹_685" data-name="그룹 685" transform="translate(51.427 12.163)">
    <rect id="사각형_251" data-name="사각형 251" width="11.09" height="8.373" fill="#fff"/>
  </g>
  <g id="그룹_686" data-name="그룹 686" transform="translate(50.944 11.681)">
    <rect id="사각형_252" data-name="사각형 252" width="11.09" height="8.373" transform="translate(0.483 0.483)" fill="#fff"/>
    <path id="패스_525" data-name="패스 525" d="M702.971,301.758H691.879a.482.482,0,0,1-.481-.481V292.9a.483.483,0,0,1,.481-.481h11.092a.483.483,0,0,1,.481.481v8.373A.482.482,0,0,1,702.971,301.758ZM692.36,300.8H702.49v-7.411H692.36Z" transform="translate(-691.398 -292.423)" fill="#383838"/>
  </g>
  <g id="그룹_687" data-name="그룹 687" transform="translate(54.1 13.827)">
    <path id="패스_526" data-name="패스 526" d="M696.845,298.938h-.013a.479.479,0,0,1-.345-.158l-1.686-1.861a.481.481,0,1,1,.713-.646l1.346,1.486,2.961-2.964a.481.481,0,0,1,.681.679l-3.319,3.322A.477.477,0,0,1,696.845,298.938Z" transform="translate(-694.677 -294.654)" fill="#383838"/>
  </g>
</svg>
