<svg xmlns="http://www.w3.org/2000/svg" width="82.034" height="69.045" viewBox="0 0 82.034 69.045">
  <g id="그룹_1509" data-name="그룹 1509" transform="translate(0.504 0.5)">
    <g id="그룹_1503" data-name="그룹 1503" transform="translate(43.098 4.754)">
      <g id="그룹_1502" data-name="그룹 1502">
        <rect id="사각형_374" data-name="사각형 374" width="34.681" height="17.699" transform="translate(1.626 1.625)" fill="#aae0ec"/>
        <rect id="사각형_375" data-name="사각형 375" width="37.932" height="20.951" fill="none" stroke="#383838" stroke-linecap="round" stroke-linejoin="round" stroke-width="1"/>
        <rect id="사각형_376" data-name="사각형 376" width="34.681" height="17.699" transform="translate(1.626 1.626)" stroke-width="1" stroke="#383838" stroke-linecap="round" stroke-linejoin="round" fill="none"/>
      </g>
    </g>
    <g id="그룹_1507" data-name="그룹 1507" transform="translate(47.218 11.709)">
      <g id="그룹_1504" data-name="그룹 1504">
        <path id="패스_982" data-name="패스 982" d="M1052.54,81.206l-.807,3.589a.172.172,0,0,1-.04.086.239.239,0,0,1-.111.014h-.8c-.074,0-.116,0-.125-.014a.231.231,0,0,1-.036-.086l-.816-3.589h-.747l-.816,3.589a.254.254,0,0,1-.036.086.272.272,0,0,1-.126.014h-.8a.238.238,0,0,1-.111-.014.172.172,0,0,1-.04-.086l-.807-3.589h-1.19a.129.129,0,0,1-.091-.036.109.109,0,0,1-.041-.085v-.7a.114.114,0,0,1,.041-.085.133.133,0,0,1,.091-.035h.988l-.563-2.48a.131.131,0,0,1,0-.106c.012-.024.063-.036.15-.036h.756a.241.241,0,0,1,.1.015c.021.009.038.039.051.085l.554,2.521h1.119l.575-2.521c.013-.047.028-.076.046-.085a.2.2,0,0,1,.095-.015h.847a.2.2,0,0,1,.1.015c.017.009.032.039.046.085l.575,2.521h1.119l.554-2.521c.013-.047.03-.076.051-.085a.238.238,0,0,1,.1-.015h.756c.087,0,.137.011.151.036a.143.143,0,0,1,0,.106l-.566,2.48h.979c.088,0,.131.04.131.12v.7a.106.106,0,0,1-.041.085.129.129,0,0,1-.091.036Zm-4.819,1.564.354-1.564h-.7Zm1.562-2.5h.3l-.151-.686Zm1.866,2.5.343-1.564h-.7Z" transform="translate(-1045.009 -77.648)" fill="#383838"/>
      </g>
      <g id="그룹_1505" data-name="그룹 1505" transform="translate(10.411)">
        <path id="패스_983" data-name="패스 983" d="M1062.775,81.206l-.807,3.589a.193.193,0,0,1-.04.086.244.244,0,0,1-.112.014h-.8a.27.27,0,0,1-.125-.014.219.219,0,0,1-.036-.086l-.817-3.589h-.746l-.817,3.589a.287.287,0,0,1-.035.086.278.278,0,0,1-.126.014h-.8a.244.244,0,0,1-.112-.014.18.18,0,0,1-.04-.086l-.807-3.589h-1.19a.131.131,0,0,1-.09-.036.109.109,0,0,1-.041-.085v-.7a.114.114,0,0,1,.041-.085.135.135,0,0,1,.09-.035h.989l-.565-2.48a.132.132,0,0,1,0-.106c.013-.024.064-.036.151-.036h.756a.233.233,0,0,1,.1.015c.021.009.039.039.051.085l.555,2.521h1.12l.574-2.521c.014-.047.029-.076.046-.085a.206.206,0,0,1,.1-.015h.847a.206.206,0,0,1,.1.015.155.155,0,0,1,.046.085l.574,2.521h1.12l.553-2.521c.013-.047.031-.076.051-.085a.241.241,0,0,1,.1-.015h.756c.088,0,.138.011.152.036a.144.144,0,0,1,0,.106l-.565,2.48h.979c.087,0,.131.04.131.12v.7a.109.109,0,0,1-.041.085.133.133,0,0,1-.091.036Zm-4.82,1.564.354-1.564h-.7Zm1.562-2.5h.3l-.151-.686Zm1.866,2.5.343-1.564h-.695Z" transform="translate(-1055.243 -77.648)" fill="#383838"/>
      </g>
      <g id="그룹_1506" data-name="그룹 1506" transform="translate(20.823)">
        <path id="패스_984" data-name="패스 984" d="M1073.009,81.206,1072.2,84.8a.18.18,0,0,1-.04.086.242.242,0,0,1-.111.014h-.8a.27.27,0,0,1-.125-.014.252.252,0,0,1-.036-.086l-.817-3.589h-.745l-.817,3.589a.238.238,0,0,1-.035.086.278.278,0,0,1-.126.014h-.8a.236.236,0,0,1-.111-.014.179.179,0,0,1-.041-.086l-.807-3.589h-1.189a.127.127,0,0,1-.091-.036.106.106,0,0,1-.041-.085v-.7a.11.11,0,0,1,.041-.085.131.131,0,0,1,.091-.035h.988l-.563-2.48a.133.133,0,0,1,0-.106c.012-.024.063-.036.151-.036h.756a.242.242,0,0,1,.1.015c.02.009.037.039.051.085l.554,2.521h1.119l.575-2.521a.149.149,0,0,1,.045-.085.206.206,0,0,1,.1-.015h.847a.206.206,0,0,1,.1.015c.017.009.031.039.046.085l.574,2.521h1.12l.555-2.521c.013-.047.03-.076.051-.085a.232.232,0,0,1,.1-.015h.756c.088,0,.138.011.153.036a.143.143,0,0,1,0,.106l-.566,2.48h.979c.087,0,.131.04.131.12v.7a.109.109,0,0,1-.041.085.131.131,0,0,1-.09.036Zm-4.819,1.564.353-1.564h-.7Zm1.562-2.5h.3l-.151-.686Zm1.866,2.5.343-1.564h-.7Z" transform="translate(-1065.478 -77.648)" fill="#383838"/>
      </g>
    </g>
    <g id="그룹_1508" data-name="그룹 1508">
      <path id="패스_985" data-name="패스 985" d="M1011.941,78.031a5.693,5.693,0,1,1,5.694-5.694,5.656,5.656,0,0,1-5.694,5.694Z" transform="translate(-998.461 -66.129)" fill="#ffcd73"/>
      <path id="패스_986" data-name="패스 986" d="M1004.307,102.378a11.52,11.52,0,0,0,1.631,6.045c-.015-.021-.033-.043-.048-.065l-.225,7.678a7.079,7.079,0,0,1-1.559,4.081l-4.542,6.237a4.386,4.386,0,0,0,6.469,5.9l6.357-6.97a7.09,7.09,0,0,0,2.116-4.424l.431-4.833.4.31c1.023,1.087,1.031,2.245,1.869,3.949l3.787,10.268a4.386,4.386,0,0,0,8.639-1.429l-2.968-11.247c-.594-2-.623-3.314-1.73-4.588-1.206-1.39-2.426-2.793-3.568-4.242q-.208-.262-.41-.526c-2.467-3.216-1.386-7.924-1.168-11.73l2.694,2.807a6.76,6.76,0,0,0,1.537,1.2l5.332,3.039a3.368,3.368,0,0,0,4.649-1.275,3.305,3.305,0,0,0-1.222-4.378l-5.754-3.449a6.8,6.8,0,0,1-2.415-2.473l-4.662-8.214c-1.666-3.369-4.383-5.9-8.217-5.686a7.7,7.7,0,0,0-3.1.841,7.928,7.928,0,0,0-4.211,6.984c-.047,3.583-.173,7.164-.135,10.746C1004.307,98.519,1004.209,100.458,1004.307,102.378Z" transform="translate(-998.593 -65.927)" fill="none" stroke="#383838" stroke-linecap="round" stroke-linejoin="round" stroke-width="1"/>
      <path id="패스_987" data-name="패스 987" d="M1032.78,98.183l-5.754-3.449a6.8,6.8,0,0,1-2.415-2.473l-4.662-8.214c-1.666-3.369-4.383-5.9-8.217-5.686a7.7,7.7,0,0,0-3.1.841,7.928,7.928,0,0,0-4.211,6.984c-.047,3.583-.173,7.164-.135,10.746.017,1.587-.08,3.526.017,5.445a11.52,11.52,0,0,0,1.631,6.045c-.015-.022-.033-.043-.048-.065l-.225,7.678a7.079,7.079,0,0,1-1.559,4.081l-4.542,6.237a4.386,4.386,0,0,0,6.469,5.9l6.357-6.97a7.09,7.09,0,0,0,2.116-4.424l.431-4.833.4.31c1.023,1.087,1.031,2.245,1.869,3.949l3.787,10.268a4.386,4.386,0,0,0,8.639-1.429l-2.968-11.247c-.594-2-.623-3.314-1.73-4.588-1.206-1.39-2.426-2.793-3.568-4.242q-.208-.262-.41-.526c-2.467-3.216-1.386-7.924-1.168-11.73l2.694,2.808a6.784,6.784,0,0,0,1.537,1.2l5.332,3.039a3.368,3.368,0,0,0,4.649-1.275A3.305,3.305,0,0,0,1032.78,98.183Z" transform="translate(-998.593 -65.927)" fill="none" stroke="#383838" stroke-linecap="round" stroke-linejoin="round" stroke-width="1"/>
      <line id="선_124" data-name="선 124" x2="9.046" y2="7.668" transform="translate(7.297 42.43)" fill="none" stroke="#383838" stroke-linecap="round" stroke-linejoin="round" stroke-width="1"/>
      <line id="선_125" data-name="선 125" x2="5.626" y2="6.021" transform="translate(17.05 26.385)" fill="none" stroke="#383838" stroke-linecap="round" stroke-linejoin="round" stroke-width="1"/>
      <path id="패스_988" data-name="패스 988" d="M1023.665,100.484l2.108,1.2h-6.585V99.376c.092-.995.2-1.972.247-2.9l2.693,2.807A6.889,6.889,0,0,0,1023.665,100.484Z" transform="translate(-998.237 -65.614)" fill="#e6e6e6" stroke="#383838" stroke-linecap="round" stroke-linejoin="round" stroke-width="1"/>
      <path id="패스_989" data-name="패스 989" d="M1036.23,83.95V101.9h-2.358a3.3,3.3,0,0,0-1.456-3.817l-5.753-3.447a6.8,6.8,0,0,1-2.414-2.476l-4.662-8.212Z" transform="translate(-998.23 -65.83)" fill="#e6e6e6" stroke="#383838" stroke-linecap="round" stroke-linejoin="round" stroke-width="1"/>
      <rect id="사각형_377" data-name="사각형 377" width="3.922" height="3.895" transform="translate(25.357 18.12)" fill="#15376c"/>
      <rect id="사각형_378" data-name="사각형 378" width="3.922" height="3.895" transform="translate(25.357 18.12)" stroke-width="1" stroke="#383838" stroke-linecap="round" stroke-linejoin="round" fill="none"/>
      <path id="패스_990" data-name="패스 990" d="M1011.949,78.557a6.211,6.211,0,1,1,6.209-6.21A6.165,6.165,0,0,1,1011.949,78.557Z" transform="translate(-998.469 -66.138)" fill="none" stroke="#383838" stroke-linecap="round" stroke-linejoin="round" stroke-width="1"/>
      <path id="패스_991" data-name="패스 991" d="M1036.131,75.681a2.578,2.578,0,1,1-2.054-3.012A2.578,2.578,0,0,1,1036.131,75.681Z" transform="translate(-998.033 -66.026)" fill="none" stroke="#383838" stroke-linecap="round" stroke-linejoin="round" stroke-width="1"/>
      <path id="패스_992" data-name="패스 992" d="M1027.122,73.964a1.723,1.723,0,1,1-1.373-2.013A1.723,1.723,0,0,1,1027.122,73.964Z" transform="translate(-998.159 -66.038)" fill="none" stroke="#383838" stroke-linecap="round" stroke-linejoin="round" stroke-width="1"/>
    </g>
  </g>
</svg>
