<svg xmlns="http://www.w3.org/2000/svg" width="105" height="105" viewBox="0 0 105 105">
  <g id="그룹_135" data-name="그룹 135" transform="translate(-258 -791)">
    <circle id="타원_5" data-name="타원 5" cx="52.5" cy="52.5" r="52.5" transform="translate(258 791)" fill="#fff"/>
    <g id="그룹_60" data-name="그룹 60" transform="translate(275 808)">
      <g id="그룹_55" data-name="그룹 55" transform="translate(0 30.524)">
        <path id="패스_226" data-name="패스 226" d="M738.089,783.023H721.644v-5.6h10.6a1.068,1.068,0,1,0,0-2.137h-12.17v-5.6H730.9a1.068,1.068,0,0,0,0-2.137H715.88v-5.6h16.3a1.068,1.068,0,1,0,0-2.137H721.12v-5.6h17.87a1.069,1.069,0,0,0,1.068-1.069v-7.732a1.069,1.069,0,0,0-1.068-1.069H726.671a1.068,1.068,0,0,0,0,2.137h11.25v5.6h-22.5v-5.6h5.551a1.068,1.068,0,0,0,0-2.137h-6.62a1.07,1.07,0,0,0-1.069,1.069v7.732a1.07,1.07,0,0,0,1.069,1.069h4.63v5.6h-4.171a1.07,1.07,0,0,0-1.069,1.069v7.734a1.069,1.069,0,0,0,1.069,1.069h3.122v6.665A1.069,1.069,0,0,0,719,777.427h.5v6.664a1.069,1.069,0,0,0,1.069,1.069h17.513a1.068,1.068,0,0,0,0-2.137Z" transform="translate(-713.284 -744.357)" fill="#545454"/>
      </g>
      <g id="그룹_56" data-name="그룹 56" transform="translate(48.033 45.989)">
        <path id="패스_227" data-name="패스 227" d="M805.937,767.146H790.685a1.068,1.068,0,1,0,0,2.137h7.9v5.6H792.55a1.069,1.069,0,1,0,0,2.137H803.3v5.6H790.832a1.068,1.068,0,0,0,0,2.137h9.321v5.6h-15.02a1.069,1.069,0,1,0,0,2.137h16.088a1.068,1.068,0,0,0,1.069-1.069v-6.664h2.077a1.068,1.068,0,0,0,1.067-1.068v-7.734a1.068,1.068,0,0,0-1.067-1.068h-3.649v-5.6h5.22a1.068,1.068,0,0,0,0-2.137Z" transform="translate(-784.064 -767.146)" fill="#545454"/>
      </g>
      <g id="그룹_57" data-name="그룹 57" transform="translate(21.447 39.376)">
        <path id="패스_228" data-name="패스 228" d="M760.313,757.4a15.425,15.425,0,1,0,15.424,15.426A15.443,15.443,0,0,0,760.313,757.4Zm0,28.856a13.431,13.431,0,1,1,13.431-13.429A13.444,13.444,0,0,1,760.313,786.258Z" transform="translate(-744.887 -757.402)" fill="#545454"/>
      </g>
      <g id="그룹_58" data-name="그룹 58" transform="translate(31.947 44.703)">
        <path id="패스_229" data-name="패스 229" d="M765.285,774.353c-1.945,0-2.93-.867-2.93-2.573a2.771,2.771,0,0,1,2.93-2.571,2.953,2.953,0,0,1,2.75,1.682,1,1,0,0,0,1.84-.771,4.8,4.8,0,0,0-3.592-2.8v-1.07a1,1,0,1,0-2,0v1.061a4.674,4.674,0,0,0-3.928,4.471c0,2.208,1.294,4.568,4.925,4.568,1.926,0,2.944.89,2.944,2.571a2.772,2.772,0,0,1-2.93,2.572,2.954,2.954,0,0,1-2.75-1.685,1,1,0,1,0-1.838.774,4.8,4.8,0,0,0,3.578,2.8v1.073a1,1,0,0,0,2,0v-1.058a4.675,4.675,0,0,0,3.941-4.473C770.224,776.711,768.926,774.353,765.285,774.353Z" transform="translate(-760.36 -765.251)" fill="#545454"/>
      </g>
      <g id="그룹_59" data-name="그룹 59" transform="translate(35.917 0)">
        <path id="패스_230" data-name="패스 230" d="M800.2,737.635h-2.075v-6.664a1.069,1.069,0,0,0-1.068-1.069h-1.929v-4.7h0v-1.971a1.065,1.065,0,0,0-1.065-1.065h-2V709.49l3.636,2.761a1.018,1.018,0,0,0,1.232-1.621l-4.868-3.7V700.4a1.018,1.018,0,0,0-1.018-1.018h-3.424A1.018,1.018,0,0,0,786.6,700.4v2.39l-4.215-3.2a1.015,1.015,0,0,0-1.218-.01l-14.543,10.69a1.018,1.018,0,0,0,1.206,1.641l3.649-2.683V722.17h-2.058a1.069,1.069,0,0,0-1.07,1.069v7.732a1.068,1.068,0,0,0,1.069,1.068h1.928v3.107a1.11,1.11,0,0,0,.888,1.114,1.07,1.07,0,0,0,1.249-1.053v-3.167h22.5v5.6H779.9a1.11,1.11,0,0,0-1.112.887,1.07,1.07,0,0,0,1.054,1.25h19.293v.91a1.108,1.108,0,0,0,.89,1.11,1.069,1.069,0,0,0,1.247-1.055V738.7A1.068,1.068,0,0,0,800.2,737.635ZM782.61,722.17h-1.678v-4.589h1.678Zm6.028-20.755h1.388v3.973l-1.388-1.054ZM773.5,707.743l8.265-6.076,5.232,3.973.011.01,3.021,2.3V722.17h-5.379v-5.607a1.018,1.018,0,0,0-1.018-1.018h-3.714a1.018,1.018,0,0,0-1.018,1.018v5.607h-5.38V707.942A1.012,1.012,0,0,0,773.5,707.743Zm19.5,22.159h-22.5v-5.6h22.5Z" transform="translate(-766.21 -699.378)" fill="#545454"/>
      </g>
    </g>
  </g>
</svg>
