<svg id="그룹_1706" data-name="그룹 1706" xmlns="http://www.w3.org/2000/svg" width="77.925" height="60.578" viewBox="0 0 77.925 60.578">
  <g id="그룹_386" data-name="그룹 386" transform="translate(46.787 0.483)">
    <rect id="사각형_216" data-name="사각형 216" width="14.18" height="31.065" transform="translate(0 8.987) rotate(-39.329)" fill="#15376c"/>
  </g>
  <g id="그룹_387" data-name="그룹 387" transform="translate(0.482 0.483)">
    <rect id="사각형_217" data-name="사각형 217" width="31.065" height="14.18" transform="translate(0 24.029) rotate(-50.671)" fill="#ffcd73"/>
  </g>
  <g id="그룹_388" data-name="그룹 388" transform="translate(46.304 0)">
    <path id="패스_305" data-name="패스 305" d="M566.275,91.4a.481.481,0,0,1-.372-.177L546.215,67.2a.481.481,0,0,1,.067-.678l10.97-8.987a.481.481,0,0,1,.677.068l19.688,24.029a.482.482,0,0,1-.068.678l-10.969,8.987A.481.481,0,0,1,566.275,91.4ZM547.265,66.959l19.078,23.285,10.225-8.377L557.49,58.582Z" transform="translate(-546.106 -57.423)" fill="#383838"/>
  </g>
  <g id="그룹_389" data-name="그룹 389" transform="translate(53.082 6.648)">
    <ellipse id="타원_22" data-name="타원 22" cx="2.6" cy="2.6" rx="2.6" ry="2.6" transform="translate(0.483 0.48)" fill="#fff"/>
    <path id="패스_306" data-name="패스 306" d="M556.233,70.489a3.079,3.079,0,1,1,1.95-.7A3.078,3.078,0,0,1,556.233,70.489Zm-.007-5.2a2.119,2.119,0,0,0-1.635,3.462h0a2.119,2.119,0,1,0,1.848-3.451C556.367,65.294,556.3,65.291,556.226,65.291Z" transform="translate(-553.148 -64.33)" fill="#383838"/>
  </g>
  <g id="그룹_390" data-name="그룹 390" transform="translate(13.647 36.737)">
    <path id="패스_307" data-name="패스 307" d="M534.063,119.435a2.827,2.827,0,0,1-2.19-1.038l-.771-.94a2.83,2.83,0,0,1-.632-2.038,3.758,3.758,0,0,1-4.522-1l-1.078-1.317a2.9,2.9,0,0,1-.228-.315.782.782,0,0,1-.077-.128,1.68,1.68,0,0,1-.112-.188l-.049-.1-.045-.1-.111-.27-.041-.118c-.047-.149-.065-.221-.082-.293a1.3,1.3,0,0,1-.032-.147c-.012-.051-.024-.134-.035-.216,0,0-.013-.1-.014-.106-.009-.078-.013-.16-.017-.243,0-.008,0-.1,0-.1,0-.1,0-.192.007-.288.012-.155.025-.265.041-.375a.548.548,0,0,1,.03-.107c.011-.053.022-.1.035-.157a3.752,3.752,0,0,1-4.25-1.122l-1.078-1.317c-.078-.094-.149-.194-.218-.294a.993.993,0,0,1-.06-.108,1.577,1.577,0,0,1-.128-.209l-.043-.088c-.039-.076-.074-.152-.108-.233-.006-.011-.047-.115-.051-.128-.039-.111-.057-.161-.072-.214l-.036-.118c-.017-.069-.035-.136-.049-.2,0-.006-.026-.138-.027-.142-.012-.066-.019-.128-.026-.2-.006-.036-.013-.094-.017-.15s-.008-.122-.008-.177l0-.166c0-.018.007-.116.009-.135a3.456,3.456,0,0,1,.116-.771,3.74,3.74,0,0,1-1.19.2,1.223,1.223,0,0,1-.369-.018,3.767,3.767,0,0,1-2.538-1.356l-.962-1.175a3.777,3.777,0,0,1-.836-2.031,3.978,3.978,0,0,1,0-.719,2.974,2.974,0,0,1,.056-.363,3.744,3.744,0,0,1,1.3-2.172l.8-.721a.487.487,0,0,1,.425-.111.479.479,0,0,1,.338.281l.748,1.757,21.546,17.717a1.834,1.834,0,0,0,.839.39.481.481,0,0,1,.227.839l-2.618,2.2a2.8,2.8,0,0,1-1.256.592A2.9,2.9,0,0,1,534.063,119.435Zm-2.352-6a.482.482,0,0,1,.324.837,1.889,1.889,0,0,0-.189,2.57l.771.94a1.865,1.865,0,0,0,1.8.653,1.845,1.845,0,0,0,.829-.39l1.978-1.657a2.755,2.755,0,0,1-.427-.29h0L515.158,98.311a.494.494,0,0,1-.137-.183l-.53-1.247-.32.287a2.812,2.812,0,0,0-.983,1.633,2.443,2.443,0,0,0-.039.26,2.856,2.856,0,0,0,0,.544,2.8,2.8,0,0,0,.622,1.508l.961,1.172a2.778,2.778,0,0,0,1.357.9,2.829,2.829,0,0,0,.53.106.783.783,0,0,0,.274.013,2.8,2.8,0,0,0,1.769-.633l.236-.192a.486.486,0,0,1,.6-.011.539.539,0,0,1,.208.367.613.613,0,0,1-.032.246l0,0a.488.488,0,0,1-.079.126c-.042.05-.083.1-.123.154-.075.106-.113.159-.145.215-.061.1-.094.167-.13.238s-.067.149-.092.218a2.761,2.761,0,0,0-.179.881c0,.016-.008.113-.01.127l.047.465.021.109.038.154.032.1.031.093.05.132c.026.06.053.119.082.178.068.128.11.2.153.265a.962.962,0,0,1,.05.093,1.735,1.735,0,0,1,.132.16l1.077,1.317a2.792,2.792,0,0,0,3.93.387l.7-.572a.484.484,0,0,1,.618.008.488.488,0,0,1,.018.727,2.755,2.755,0,0,0-.869,1.6c0,.013,0,.027-.007.038-.011.069-.019.139-.024.209a.809.809,0,0,1-.013.107h0a.7.7,0,0,1,.006.161c.006.123.009.184.015.246.019.14.027.2.039.252l.022.1.133.418.061.126.046.1c.031.06.056.1.08.135l.052.09a2.651,2.651,0,0,0,.181.249l1.079,1.317a2.8,2.8,0,0,0,3.928.387l.787-.643A.477.477,0,0,1,531.711,113.439Z" transform="translate(-512.174 -95.594)" fill="#383838"/>
  </g>
  <g id="그룹_391" data-name="그룹 391" transform="translate(29.254 11.888)">
    <path id="패스_308" data-name="패스 308" d="M560.605,96.318a.44.44,0,0,1-.1-.013.482.482,0,0,1-.376-.486,3.33,3.33,0,0,0-.01-.416c-.011-.084-.025-.179-.041-.272a2.793,2.793,0,0,0-.968-1.606L542.05,79.482l-.029-.024-1.965,2.48a8.078,8.078,0,0,1-9.223,2.489l-.253-.1a6.994,6.994,0,0,1-.872-.433c-.091-.051-.189-.108-.283-.167l-.278-.184c-.1-.062-.191-.131-.289-.208a.5.5,0,0,1-.115-.13l-.283-.471a.48.48,0,0,1,.037-.549l9.6-12c.028-.192.131-.267.48-.3v-.013a.694.694,0,0,1,.077.007c.221-.014.529-.016.957-.017l4.952-.014,3.724-.067a.511.511,0,0,1,.382.175l15.262,18.629a.484.484,0,0,1,.071.493l-2.958,6.953A.483.483,0,0,1,560.605,96.318Zm-18.65-18.034a.477.477,0,0,1,.322.125c.123.112.25.22.383.329l8.5,6.967,8.555,7.077a3.753,3.753,0,0,1,1.065,1.411L563,88.963,548.075,70.74l-3.5.064-4.958.014c-.335,0-.619,0-.8.008l-9.36,11.694.063.1c.053.039.106.076.16.112l.265.175c.075.046.157.1.242.142a5.889,5.889,0,0,0,.773.384l.226.094a7.118,7.118,0,0,0,8.118-2.194l2.275-2.871a.482.482,0,0,1,.337-.181Z" transform="translate(-528.39 -69.775)" fill="#383838"/>
  </g>
  <g id="그룹_400" data-name="그룹 400" transform="translate(13.016 11.888)">
    <g id="그룹_392" data-name="그룹 392" transform="translate(31.162 39.94)">
      <path id="패스_309" data-name="패스 309" d="M543.909,111.288l-.013-.013a1.248,1.248,0,0,0,.123.092C543.977,111.339,543.94,111.312,543.909,111.288Z" transform="translate(-543.897 -111.275)" fill="#e6e6e6"/>
    </g>
    <g id="그룹_393" data-name="그룹 393" transform="translate(32.841 40.174)">
      <path id="패스_310" data-name="패스 310" d="M545.641,111.58c.052-.018.1-.04.151-.062l-.062.028A.853.853,0,0,0,545.641,111.58Z" transform="translate(-545.641 -111.518)" fill="#e6e6e6"/>
    </g>
    <g id="그룹_394" data-name="그룹 394" transform="translate(34.279 35.804)">
      <path id="패스_311" data-name="패스 311" d="M547.139,106.977l.089.083-.092-.077Z" transform="translate(-547.136 -106.977)" fill="#e6e6e6"/>
    </g>
    <g id="그룹_395" data-name="그룹 395" transform="translate(34.337 35.73)">
      <path id="패스_312" data-name="패스 312" d="M547.322,107.011l-.126-.1.006-.006Z" transform="translate(-547.196 -106.9)" fill="#e6e6e6"/>
    </g>
    <g id="그룹_396" data-name="그룹 396" transform="translate(34.337 35.73)">
      <path id="패스_313" data-name="패스 313" d="M547.2,106.9l.122.111-.127-.1Z" transform="translate(-547.196 -106.901)" fill="#e6e6e6"/>
    </g>
    <g id="그룹_397" data-name="그룹 397" transform="translate(34.337 35.73)">
      <path id="패스_314" data-name="패스 314" d="M547.322,107.011l-.126-.1.006-.006Z" transform="translate(-547.196 -106.9)" fill="#e6e6e6"/>
    </g>
    <g id="그룹_398" data-name="그룹 398">
      <path id="패스_315" data-name="패스 315" d="M538.56,115.776a2.808,2.808,0,0,1-1.789-.641L515.134,97.341a.494.494,0,0,1-.137-.183l-3.441-8.086a.481.481,0,0,1,.07-.493l15.262-18.628a.484.484,0,0,1,.372-.176h.01l3.734.067a.481.481,0,0,1,.472.49.455.455,0,0,1-.49.472l-3.5-.063L512.556,88.963l3.281,7.71,21.544,17.718a1.867,1.867,0,0,0,2.629-.263l.772-.941a1.869,1.869,0,0,0-.261-2.629l-.115-.1a.481.481,0,0,1,.608-.746l.116.1a2.831,2.831,0,0,1,.4,3.985l-.772.941a2.809,2.809,0,0,1-1.911,1.024C538.75,115.771,538.654,115.776,538.56,115.776Z" transform="translate(-511.518 -69.775)" fill="#383838"/>
    </g>
    <g id="그룹_399" data-name="그룹 399" transform="translate(28.617 42.067)">
      <path id="패스_316" data-name="패스 316" d="M541.266,113.565a.8.8,0,0,1,0,.083.9.9,0,0,0-.015-.163A.565.565,0,0,1,541.266,113.565Z" transform="translate(-541.253 -113.485)" fill="#e6e6e6"/>
    </g>
  </g>
  <g id="그룹_401" data-name="그룹 401" transform="translate(0 0.001)">
    <path id="패스_317" data-name="패스 317" d="M509.444,91.4a.481.481,0,0,1-.305-.11L498.17,82.306a.482.482,0,0,1-.068-.678L517.79,57.6a.485.485,0,0,1,.325-.174.479.479,0,0,1,.353.106l10.968,8.987a.481.481,0,0,1,.067.678l-19.687,24.03A.481.481,0,0,1,509.444,91.4Zm-10.292-9.537,10.225,8.377,19.078-23.285-10.224-8.377Z" transform="translate(-497.994 -57.424)" fill="#383838"/>
  </g>
  <g id="그룹_402" data-name="그룹 402" transform="translate(18.187 6.154)">
    <ellipse id="타원_23" data-name="타원 23" cx="2.6" cy="2.6" rx="2.6" ry="2.6" transform="matrix(0.522, -0.853, 0.853, 0.522, 0, 4.435)" fill="#fff"/>
    <path id="패스_318" data-name="패스 318" d="M520.481,70.49a3.08,3.08,0,1,1,2.386-1.127h0A3.077,3.077,0,0,1,520.481,70.49Zm0-5.2a2.118,2.118,0,1,0,1.341.478A2.122,2.122,0,0,0,520.486,65.291Zm2.008,3.765h0Z" transform="translate(-516.91 -63.836)" fill="#383838"/>
  </g>
  <g id="그룹_403" data-name="그룹 403" transform="translate(13.018 11.888)">
    <path id="패스_319" data-name="패스 319" d="M538.563,115.774a2.808,2.808,0,0,1-1.792-.641L515.134,97.341a.494.494,0,0,1-.137-.183l-3.439-8.086a.481.481,0,0,1,.07-.493L526.888,69.95a.483.483,0,0,1,.372-.175h.01l3.734.067,6.943.025a.481.481,0,0,1,.375.782l-9.529,11.906a7.11,7.11,0,0,0,9.875-1.219l2.275-2.87a.482.482,0,0,1,.337-.181.5.5,0,0,1,.363.123c.123.112.25.22.383.329l8.5,6.967,8.555,7.077a3.759,3.759,0,0,1,1.3,2.173c.02.12.038.234.052.348a3.926,3.926,0,0,1,0,.73,3.736,3.736,0,0,1-.835,2.028l-.963,1.174a3.7,3.7,0,0,1-1.826,1.219,3.814,3.814,0,0,1-.7.138,3.3,3.3,0,0,1-.348.021h0a3.843,3.843,0,0,1-1.214-.192,3.921,3.921,0,0,1,.118.8c0,.007,0,.093,0,.1a1.909,1.909,0,0,1-.006.2c0,.021,0,.078,0,.135s-.011.111-.018.166-.014.123-.024.185c0,.008-.031.141-.032.148-.018.086-.036.158-.057.227a1.008,1.008,0,0,1-.032.115c-.015.053-.04.121-.067.192s-.041.111-.06.147c-.02.054-.06.137-.1.216a3.93,3.93,0,0,1-.2.35l-.026.038h0a3.223,3.223,0,0,1-.223.305l-1.077,1.317a3.757,3.757,0,0,1-4.24,1.13,3.979,3.979,0,0,1,.1.682,3.775,3.775,0,0,1-.843,2.564l-1.075,1.313a3.688,3.688,0,0,1-.457.467,3.343,3.343,0,0,1-.312.24l-.021.015h0a3.617,3.617,0,0,1-.51.292l-.031.015h0a3.548,3.548,0,0,1-.376.148,3.744,3.744,0,0,1-2.822-.17,2.826,2.826,0,0,1-.629,2.039l-.772.943A2.834,2.834,0,0,1,538.563,115.774Zm-22.726-19.1,21.546,17.717a1.869,1.869,0,0,0,2.629-.261l.771-.942a1.872,1.872,0,0,0-.26-2.628h0a.481.481,0,0,1,.61-.745l.879.72a2.565,2.565,0,0,0,.408.277,2.77,2.77,0,0,0,2.253.208,2.541,2.541,0,0,0,.253-.1l.033-.015a2.609,2.609,0,0,0,.369-.206.316.316,0,0,1,.037-.026,2.306,2.306,0,0,0,.239-.183,2.562,2.562,0,0,0,.338-.346l1.076-1.313a2.8,2.8,0,0,0,.628-1.9,2.942,2.942,0,0,0-.127-.705,2.728,2.728,0,0,0-.771-1.216.481.481,0,0,1,.627-.73l.7.566a2.794,2.794,0,0,0,3.932-.39l1.076-1.315c.06-.073.114-.147.164-.222.006-.01.013-.017.019-.027.052-.087.09-.149.123-.21.054-.113.084-.171.106-.227l.483.084-.442-.192c.017-.044.035-.088.048-.133,0,0,.033-.119.034-.124a1.128,1.128,0,0,0,.027-.112l.5-.044-.475-.077.016-.135.014-.123,0-.1c0-.071.006-.108,0-.144,0-.009,0-.1,0-.1a2.821,2.821,0,0,0-.177-.862c-.026-.069-.057-.138-.089-.2-.041-.086-.074-.152-.114-.217-.052-.089-.1-.152-.139-.216-.062-.081-.106-.137-.153-.192a.392.392,0,0,1-.158-.332.449.449,0,0,1,.193-.346.534.534,0,0,1,.664-.048l.24.2a2.759,2.759,0,0,0,1.766.631c.089,0,.177,0,.265-.014a3.027,3.027,0,0,0,.541-.1,2.75,2.75,0,0,0,1.353-.9l.964-1.176a2.783,2.783,0,0,0,.622-1.509v0a2.86,2.86,0,0,0,0-.537c-.01-.08-.024-.175-.04-.269a2.793,2.793,0,0,0-.968-1.606L541.416,79.482l-.029-.024-1.965,2.48a8.072,8.072,0,0,1-11.209,1.385l-.394-.3a.483.483,0,0,1-.188-.324.476.476,0,0,1,.1-.36l9.217-11.515-9.465-.085L512.558,88.963Z" transform="translate(-511.52 -69.775)" fill="#383838"/>
  </g>
</svg>
