<svg xmlns="http://www.w3.org/2000/svg" width="65.494" height="65.862" viewBox="0 0 65.494 65.862">
  <g id="그룹_1770" data-name="그룹 1770" transform="translate(-1050.667 -1290.634)">
    <g id="그룹_1680" data-name="그룹 1680" transform="translate(1051 1290.634)">
      <g id="그룹_657" data-name="그룹 657" transform="translate(16.994 0)">
        <g id="그룹_655" data-name="그룹 655" transform="translate(4.367 4.229)">
          <g id="그룹_631" data-name="그룹 631" transform="translate(0.48 0.449)">
            <rect id="사각형_235" data-name="사각형 235" width="18.19" height="20.422" fill="#e6e6e6"/>
          </g>
          <g id="그룹_640" data-name="그룹 640" transform="translate(0 2.709)">
            <g id="그룹_632" data-name="그룹 632" transform="translate(5.584 0.85)">
              <path id="패스_493" data-name="패스 493" d="M407.589,428.64a4.228,4.228,0,1,1,4.228-4.228A4.233,4.233,0,0,1,407.589,428.64Z" transform="translate(-403.361 -420.184)" fill="#ffcd73"/>
            </g>
            <g id="그룹_633" data-name="그룹 633" transform="translate(0.448 9.697)">
              <path id="패스_494" data-name="패스 494" d="M397.643,438.547c0-1.9-.248-3.972.741-5.681A5.583,5.583,0,0,1,402.1,430.2a11.788,11.788,0,0,1,2.288-.105c1.938,0,3.878-.026,5.814,0a5.619,5.619,0,0,1,5.632,5.441c.03,1,0,2.009,0,3.012" transform="translate(-397.615 -430.082)" fill="#fff"/>
            </g>
            <g id="그룹_634" data-name="그룹 634" transform="translate(4.733)">
              <path id="패스_495" data-name="패스 495" d="M407.487,429.388a5.077,5.077,0,1,1,5.078-5.077A5.083,5.083,0,0,1,407.487,429.388Zm0-9.261a4.184,4.184,0,1,0,4.184,4.184A4.188,4.188,0,0,0,407.487,420.127Z" transform="translate(-402.409 -419.233)" fill="#383838"/>
            </g>
            <g id="그룹_635" data-name="그룹 635" transform="translate(0 9.251)">
              <path id="패스_496" data-name="패스 496" d="M415.783,438.941a.448.448,0,0,1-.447-.447c0-.333,0-.666.007-1,.006-.668.013-1.335-.007-2a5.146,5.146,0,0,0-5.191-5.006c-1.29-.017-2.578-.012-3.868-.005l-1.941.006-.421,0a8.988,8.988,0,0,0-1.78.1,5.158,5.158,0,0,0-3.418,2.451,8.535,8.535,0,0,0-.695,4.5c.007.324.014.646.014.964a.447.447,0,1,1-.894,0c0-.311-.007-.627-.014-.945a9.191,9.191,0,0,1,.814-4.962,6.067,6.067,0,0,1,4.019-2.88,9.855,9.855,0,0,1,1.962-.117l.412,0,1.937-.006c1.3,0,2.59-.011,3.884.006a6.1,6.1,0,0,1,6.073,5.872c.021.678.014,1.359.008,2.037,0,.331-.007.661-.007.99A.448.448,0,0,1,415.783,438.941Z" transform="translate(-397.114 -429.583)" fill="#383838"/>
            </g>
            <g id="그룹_636" data-name="그룹 636" transform="translate(5.97 9.261)">
              <path id="패스_497" data-name="패스 497" d="M405.324,438.942a.447.447,0,0,1-.442-.391L403.8,430.1a.447.447,0,0,1,.443-.5h1.092a.441.441,0,0,1,.341.16l1.432,1.7a.445.445,0,0,1,.047.509l-1.81,3.158.425,3.316a.447.447,0,0,1-.386.5A.414.414,0,0,1,405.324,438.942Zm-.577-8.454.406,3.164,1.067-1.862-1.1-1.3Z" transform="translate(-403.794 -429.594)" fill="#383838"/>
            </g>
            <g id="그룹_637" data-name="그룹 637" transform="translate(10.324 9.261)">
              <path id="패스_498" data-name="패스 498" d="M410.55,438.942a.415.415,0,0,1-.057,0,.447.447,0,0,1-.386-.5l.425-3.317-1.809-3.157a.445.445,0,0,1,.046-.509l1.432-1.7a.443.443,0,0,1,.342-.16h1.091a.447.447,0,0,1,.442.5l-1.084,8.453A.449.449,0,0,1,410.55,438.942Zm-.9-7.152,1.066,1.861.407-3.163h-.376Z" transform="translate(-408.664 -429.594)" fill="#383838"/>
            </g>
            <g id="그룹_638" data-name="그룹 638" transform="translate(9.382 12.02)">
              <path id="패스_499" data-name="패스 499" d="M408.058,439.287a.447.447,0,0,1-.447-.447v-5.712a.446.446,0,1,1,.893,0v5.712A.446.446,0,0,1,408.058,439.287Z" transform="translate(-407.611 -432.681)" fill="#383838"/>
            </g>
            <g id="그룹_639" data-name="그룹 639" transform="translate(8.494 10.893)">
              <path id="패스_500" data-name="패스 500" d="M407.952,433.441h-.006a.446.446,0,0,1-.336-.159l-.889-1.059a.447.447,0,0,1,.686-.575l.556.662.657-.74a.447.447,0,0,1,.668.594l-1,1.127A.447.447,0,0,1,407.952,433.441Z" transform="translate(-406.617 -431.42)" fill="#383838"/>
            </g>
          </g>
          <g id="그룹_641" data-name="그룹 641" transform="translate(0.032)">
            <path id="패스_501" data-name="패스 501" d="M415.786,437.519H397.6a.447.447,0,0,1-.447-.447V416.649a.448.448,0,0,1,.447-.447h18.19a.448.448,0,0,1,.447.447v20.423A.447.447,0,0,1,415.786,437.519Zm-17.743-.894h17.3V417.1h-17.3Z" transform="translate(-397.15 -416.202)" fill="#383838"/>
          </g>
          <g id="그룹_642" data-name="그룹 642" transform="translate(24.317 3.733)">
            <rect id="사각형_236" data-name="사각형 236" width="14.601" height="0.893" fill="#383838"/>
          </g>
          <g id="그룹_643" data-name="그룹 643" transform="translate(24.317 8.363)">
            <rect id="사각형_237" data-name="사각형 237" width="14.601" height="0.893" fill="#383838"/>
          </g>
          <g id="그룹_644" data-name="그룹 644" transform="translate(24.317 12.995)">
            <rect id="사각형_238" data-name="사각형 238" width="14.601" height="0.893" fill="#383838"/>
          </g>
          <g id="그룹_645" data-name="그룹 645" transform="translate(24.317 17.626)">
            <rect id="사각형_239" data-name="사각형 239" width="14.601" height="0.893" fill="#383838"/>
          </g>
          <g id="그룹_646" data-name="그룹 646" transform="translate(0.544 27.783)">
            <rect id="사각형_240" data-name="사각형 240" width="3.444" height="0.893" fill="#383838"/>
          </g>
          <g id="그룹_647" data-name="그룹 647" transform="translate(8.112 27.783)">
            <rect id="사각형_241" data-name="사각형 241" width="30.805" height="0.893" fill="#383838"/>
          </g>
          <g id="그룹_648" data-name="그룹 648" transform="translate(8.112 32.692)">
            <rect id="사각형_242" data-name="사각형 242" width="30.805" height="0.893" fill="#383838"/>
          </g>
          <g id="그룹_649" data-name="그룹 649" transform="translate(0.544 38.212)">
            <rect id="사각형_243" data-name="사각형 243" width="3.444" height="0.893" fill="#383838"/>
          </g>
          <g id="그룹_650" data-name="그룹 650" transform="translate(8.112 38.212)">
            <rect id="사각형_244" data-name="사각형 244" width="30.805" height="0.893" fill="#383838"/>
          </g>
          <g id="그룹_651" data-name="그룹 651" transform="translate(8.112 43.121)">
            <rect id="사각형_245" data-name="사각형 245" width="30.805" height="0.893" fill="#383838"/>
          </g>
          <g id="그룹_652" data-name="그룹 652" transform="translate(0.544 48.64)">
            <rect id="사각형_246" data-name="사각형 246" width="3.444" height="0.893" fill="#383838"/>
          </g>
          <g id="그룹_653" data-name="그룹 653" transform="translate(8.112 48.64)">
            <rect id="사각형_247" data-name="사각형 247" width="30.805" height="0.893" fill="#383838"/>
          </g>
          <g id="그룹_654" data-name="그룹 654" transform="translate(8.112 53.549)">
            <rect id="사각형_248" data-name="사각형 248" width="30.805" height="0.893" fill="#383838"/>
          </g>
        </g>
        <g id="그룹_656" data-name="그룹 656">
          <path id="패스_502" data-name="패스 502" d="M439.949,477.333H392.675a.446.446,0,0,1-.447-.447V411.918a.446.446,0,0,1,.447-.447h47.274a.446.446,0,0,1,.447.447v64.968A.446.446,0,0,1,439.949,477.333Zm-46.827-.894H439.5V412.365h-46.38Z" transform="translate(-392.228 -411.471)" fill="#383838"/>
        </g>
      </g>
    </g>
    <g id="그룹_1681" data-name="그룹 1681" transform="translate(811.959 883.464)">
      <g id="그룹_1388" data-name="그룹 1388" transform="translate(239.208 414.997)">
        <rect id="사각형_346" data-name="사각형 346" width="5.813" height="14.94" transform="translate(4.172 2.127)" fill="#15376c"/>
        <path id="패스_888" data-name="패스 888" d="M243.867,438.27h5.813c0,26.851-2.4,34.259-2.4,34.259h-1.014S243.867,463.574,243.867,438.27Z" transform="translate(-239.695 -417.432)" fill="#ffc7c0"/>
        <rect id="사각형_347" data-name="사각형 347" width="5.813" height="18.712" transform="translate(4.172 2.127)" stroke-width="1" stroke="#383838" stroke-linecap="round" stroke-linejoin="round" fill="none"/>
        <path id="패스_889" data-name="패스 889" d="M243.867,438.27h5.813c0,26.851-2.4,34.259-2.4,34.259h-1.014S243.867,463.574,243.867,438.27Z" transform="translate(-239.695 -417.432)" fill="none" stroke="#383838" stroke-linecap="round" stroke-linejoin="round" stroke-width="1"/>
        <path id="패스_890" data-name="패스 890" d="M249.4,417.124V415h-8.207v20.839" transform="translate(-239.415 -414.997)" fill="none" stroke="#383838" stroke-linecap="round" stroke-linejoin="round" stroke-width="1"/>
        <rect id="사각형_348" data-name="사각형 348" width="1.778" height="3.193" transform="translate(0 18.906)" stroke-width="1" stroke="#383838" stroke-linecap="round" stroke-linejoin="round" fill="none"/>
        <rect id="사각형_349" data-name="사각형 349" width="0.913" height="1.825" transform="translate(6.673 55.097)" stroke-width="1" stroke="#383838" stroke-linecap="round" stroke-linejoin="round" fill="none"/>
      </g>
      <line id="선_55" data-name="선 55" x2="5.389" transform="translate(243.591 431.979)" fill="none" stroke="#383838" stroke-linecap="round" stroke-linejoin="round" stroke-width="1"/>
    </g>
  </g>
</svg>
