<svg xmlns="http://www.w3.org/2000/svg" xmlns:xlink="http://www.w3.org/1999/xlink" width="532" height="297" viewBox="0 0 532 297">
  <defs>
    <filter id="다각형_10" x="173.5" y="230.156" width="36" height="51.734" filterUnits="userSpaceOnUse">
      <feOffset dy="3" input="SourceAlpha"/>
      <feGaussianBlur stdDeviation="3" result="blur"/>
      <feFlood flood-opacity="0.161"/>
      <feComposite operator="in" in2="blur"/>
      <feComposite in="SourceGraphic"/>
    </filter>
    <filter id="사각형_491" x="0" y="200" width="202" height="110" filterUnits="userSpaceOnUse">
      <feOffset dy="3" input="SourceAlpha"/>
      <feGaussianBlur stdDeviation="3" result="blur-2"/>
      <feFlood flood-opacity="0.161"/>
      <feComposite operator="in" in2="blur-2"/>
      <feComposite in="SourceGraphic"/>
    </filter>
  </defs>
  <g id="그룹_1848" data-name="그룹 1848" transform="translate(-863 -1809)">
    <g id="그룹_1847" data-name="그룹 1847">
      <g id="그룹_1846" data-name="그룹 1846">
        <g id="사각형_215" data-name="사각형 215" transform="translate(1054 1833)" fill="none" stroke="#15376c" stroke-width="1">
          <rect width="341" height="272.703" rx="2" stroke="none"/>
          <rect x="0.5" y="0.5" width="340" height="271.703" rx="1.5" fill="none"/>
        </g>
        <text id="_채권자1명_채무자_1명_기준_" data-name=" (채권자1명, 채무자 1명 기준)" transform="translate(1393 1824)" font-size="13" font-family="NotoSansCJKkr-Regular, Noto Sans CJK KR"><tspan x="-158.08" y="0" xml:space="preserve"> (채권자1명, 채무자 1명 기준)</tspan></text>
        <rect id="사각형_217" data-name="사각형 217" width="180" height="91" transform="translate(874 1924)" fill="#e9e9e9"/>
        <path id="패스_1121" data-name="패스 1121" d="M12027.5,853.5H12190" transform="translate(-11145 1070.407)" fill="none" stroke="#707070" stroke-width="0.5"/>
        <rect id="사각형_216" data-name="사각형 216" width="180" height="91" transform="translate(874 1833)" fill="#e9e9e9"/>
        <text id="_23_000원" data-name="23,000원" transform="translate(1348 1864.3)" fill="#333" font-size="15" font-family="NotoSansCJKkr-Regular, Noto Sans CJK KR"><tspan x="-59.595" y="0">23,000원</tspan></text>
        <text id="_207_000원" data-name="207,000원" transform="translate(1348 1965)" fill="#333" font-size="15" font-family="NotoSansCJKkr-Regular, Noto Sans CJK KR"><tspan x="-67.92" y="0">207,000원</tspan></text>
        <text id="최소_500만원_절감_" data-name="최소 500만원 절감!" transform="translate(1279 2087)" fill="#15376c" font-size="18" font-family="NotoSansCJKkr-Bold, Noto Sans CJK KR" font-weight="700"><tspan x="-72.999" y="0">최소 500만원 절감!</tspan></text>
        <text id="_57_600원" data-name="57,600원" transform="translate(1348 1892.2)" fill="#333" font-size="15" font-family="NotoSansCJKkr-Regular, Noto Sans CJK KR"><tspan x="-59.595" y="0">57,600원</tspan></text>
        <text id="_72_000원" data-name="72,000원" transform="translate(1348 1992)" fill="#333" font-size="15" font-family="NotoSansCJKkr-Regular, Noto Sans CJK KR"><tspan x="-59.595" y="0">72,000원</tspan></text>
        <text id="_5_000_000원" data-name="5,000,000원" transform="translate(1348 2019)" fill="#333" font-size="15" font-family="NotoSansCJKkr-Regular, Noto Sans CJK KR"><tspan x="-80.415" y="0">5,000,000원</tspan></text>
        <text id="부터" transform="translate(1367 2019)" fill="#333" font-size="9" font-family="NotoSansCJKkr-Regular, Noto Sans CJK KR"><tspan x="-16.56" y="0">부터</tspan></text>
        <text id="_80_600원" data-name="80,600원" transform="translate(1348 1921.2)" fill="#15376c" font-size="17" font-family="NotoSansCJKkr-Bold, Noto Sans CJK KR" font-weight="700"><tspan x="-71.23" y="0">80,600원</tspan></text>
        <text id="_5_279_000원" data-name="5,279,000원" transform="translate(1348 2048)" fill="#15376c" font-size="15" font-family="NotoSansCJKkr-Regular, Noto Sans CJK KR"><tspan x="-80.415" y="0">5,279,000원</tspan></text>
        <path id="패스_590" data-name="패스 590" d="M640.528,589.546a3.266,3.266,0,0,0,.963-.429l-.233.014c.125-.038.088.076,0,.121-.276.163-.438.074-.465.039l.213-.083c-.285-.172-.875.269-1.32.37l.14-.216-.417.259c-.108-.015-.2-.09.011-.178-.339.009-.262.142-.56.129-.034-.005-.023-.018,0-.032l-.294.141c.05-.053-.086-.1.111-.135-.584.069-.856.39-1.1.326l.043-.024c-.746.3-.037.144-.561.473l-.482-.172-.035.146c-.08.022-.238.064-.226.006-.265.18.067.036-.076.17-.418.008-1.018.408-1.17.25-.1.14.382-.06.007.149-.188-.164-.448.2-.823.235.065-.144.41-.207.033-.175-.139.253-.681.2-.952.358.042.146-.6.308-1.054.548a10.838,10.838,0,0,0-1.385.447l0-.029c-.022.179-.488.348-.8.527-.026-.09.017-.151.179-.266-.1.045-.207.091-.308.142a.9.9,0,0,1-.326.259l.028-.141a8.376,8.376,0,0,1-1.318.7c.02.111.545.064.03.4-.046-.041-.11-.119.021-.214a.79.79,0,0,1-.249.155l.173-.2c-.253.083-.086.136-.277.225-.034-.076-.165.02-.168-.053.044-.032.179-.054.236-.121a1.743,1.743,0,0,1-.609.174c.04.032.051.1-.1.188-.4.213-.183-.017-.437.067-.07.1-.354.181-.3.293a.286.286,0,0,1-.226.019c-.178.162-.945.546-.651.532l.056-.022-.031.023c-.61.471-1.412.726-2.034,1.166l-.02-.036c-.1.077-.219.155-.334.233a1.228,1.228,0,0,0-.271-.224c-.015-.075-.011-.192.1-.057a12.93,12.93,0,0,0-.929-1.2l-.237-.29-.15-.2-.165-.226a10.14,10.14,0,0,1-.578-.879.5.5,0,0,1,.076,0c-.189-.236-.291-.209-.519-.64,0-.043.051-.035-.034-.162-.045-.044-.152-.15-.271-.283l-.045-.052c-.015-.017-.035-.053-.032,0l-.015.2a2.407,2.407,0,0,1-.043.307l-.01-.509a14.061,14.061,0,0,0-.188,2.08c-.007.3-.01.591-.005.837a4.982,4.982,0,0,1,0,.55c-.181-.022-.323.7-.383,1.068l-.025-.015a11.51,11.51,0,0,0-.039,1.9c-.423.382-.731.815-1.239.942-.137.223.444-.244.337-.023-.355.233-.822.35-.927.433-.5.3-.3.5-.809.832.092-.01.232.048-.093.365-.336.257-.531.175-.351-.029.075-.069.122-.089.13-.073.093-.1.223-.228.056-.166l-.012.073c-.194.1-.637.478-.584.327-.215.243-.053.151.145.017-.462.3-.651.548-1.111.874.086-.037.187-.046.119.01-.661.5-.213.308-.612.7-.282.17-.043-.214-.407.236-.284.217-.148-.037-.076-.168-.305.442-.726.708-.926,1,.045-.1.091-.193.142-.28l-.252.432a1.581,1.581,0,0,1,.178-.1c-.114.139-.181.3-.218.27-.023.2.2-.064.139.32a1.009,1.009,0,0,0-.116.48c-.016.183.022.347-.033.414a3.027,3.027,0,0,1-.04-.379c-.009-.045-.028-.03-.05-.009s-.045.048-.063.018a.318.318,0,0,1-.021-.12,2.251,2.251,0,0,0,0,.391c-.008.039-.034-.031-.051-.1a2.074,2.074,0,0,0,.032.318.973.973,0,0,0,.08.193.361.361,0,0,0,.155.17,1.281,1.281,0,0,1,.191.124c.035.031.09.074.163.128s.147.1.237.149c-.133.01.107.225.228.25-.292-.137-.077-.163.189-.119.41.209.475.11.691.179l-.242-.1a1.663,1.663,0,0,1,.6.067c.011.063-.271-.026-.174.025.353-.049.678.3,1.141.326.191.1-.014.14.157.217.515.028.508.23,1.045.28-.125-.133-.157-.116.23-.121l-.867-.141.58-.006c-.256-.065-.556-.073-.706-.127.279-.015.246,0,.144-.108.315.231.717.086,1.1.284l-.071.237a6.609,6.609,0,0,0,1.452.286c.033.212.046.444.091.64l-.118-.012a16.655,16.655,0,0,0,.007,1.815l-.088-.166c0,.464.356.576.374,1l-.173.133a11.17,11.17,0,0,0,.1,2.418c-.027-.012-.079-.033-.093-.163.016.379-.041,1.475.194,1.322-.157.019.041.832.139,1.261l-.121-.059a2.119,2.119,0,0,1,.3.872.144.144,0,0,1-.01.045l-.009.024c-.024.032-.06,0-.048-.119a.841.841,0,0,0,.008.225l-.05.134.019.383c-.024.081-.1.136-.094.042l-.022.052.183.016a.716.716,0,0,0,.036.154l.609.054a1.182,1.182,0,0,0-.016-.152l.262.023c0-.27-.086.032-.144-.128-.025-.207.048-.28.1-.152-.024-.095-.048-.2-.074-.32.071-.152.152-.276.209-.29a.7.7,0,0,1,.032-.539c.048-.02.046.072.044.118.278-.639.168-1.025.421-1.446a.1.1,0,0,0,.091-.056c-.17.523-.3.946-.3.9.1.031.25-.387.289-.007a4.363,4.363,0,0,1,.222-1.394.193.193,0,0,1,.053-.043l0,.046a.833.833,0,0,0,.067-.266,2.718,2.718,0,0,0,.141-.331c.1-.021.208-.467.282-.676-.117-.02-.007-.289-.185-.062.019-.031,0,.044-.043.185a.682.682,0,0,0-.018.094l0-.018-.166.525a.937.937,0,0,1,.148-.587c-.035-.132-.069-.275-.081-.354.252-.236.522-.762.646-.8a7.72,7.72,0,0,0,.421-2c.038-.191.134-.188.191-.244a1.739,1.739,0,0,0-.055.3c.076-.382.363-1.083.251-1.222.21-.392.073.173.2-.189a.519.519,0,0,0,.19.054.138.138,0,0,0-.028-.022.289.289,0,0,1-.161-.033l.009-.025a.415.415,0,0,1,.152.058.518.518,0,0,1,.373-.028c.021.023-.01.039-.01.039.01-.039.374.035.194-.1.571.406,1.772.417,2.27.767.454.084,1,.191,1.409.285-.032.017-.011.039-.086.012.543.213.4-.145,1.019.1.294.21-.356-.014-.165.086.024.285.78.154,1.171.413l-.108-.01a.717.717,0,0,0,.125.053c.072.021.15.041.229.058.16.034.33.061.5.084a7.98,7.98,0,0,1,1.057.189s0,.024.059.057a1.029,1.029,0,0,1,.146-.013h.129c.013,0,.042.01.012-.024l-.386-.562-.631-.973c.213.162.216.271.272.15-.092-.149-.126-.121-.183-.13s-.133-.049-.279-.273c-.026-.163-.152-.487-.075-.583l.229.387c.015-.274-.293-.5-.388-.721l.071-.006c-.363-.586-.51-.512-.872-1.158l0,.091c-.345-.266-.093-.338-.4-.625l.08-.189c-.168-.211-.615-.722-.887-1.116a7.292,7.292,0,0,1,.825.879,3.8,3.8,0,0,0-.612-.843,1,1,0,0,1,.2.281,3.545,3.545,0,0,1-.823-1c.324-.087-.646-1.214-.638-1.669a13.185,13.185,0,0,1-1.114-1.8c.026-.051.048-.105.075-.156a1.479,1.479,0,0,0,.15-.8l.153-.053.025-.508c.131-.685.69-1.026.783-1.919l-.117.079c.12-.291.272-.958.347-.877a.234.234,0,0,1,.029-.228l.066.012.136-.768c.228-.555.221.171.5-.659.074-.318.1-.94.017-.836-.043.124-.14.307-.206.3l.057-.292a1.075,1.075,0,0,1-.09-.069,3.577,3.577,0,0,1,1.29-.589c-.108.053-.236.168-.15.127l.747-.416c-.1-.058-.126,0-.32.005a1.377,1.377,0,0,1,.466-.332c-.324.218.067.137.242.122-.038-.016,0-.069-.025-.09.479-.023-.011-.207.595-.348l-.009.059a3.813,3.813,0,0,1,.6-.348c.137.061-.2.146-.18.237.312-.146.541-.471.876-.482-.124.085-.321.16-.443.249a1.571,1.571,0,0,0,.631-.13l-.024.007.564-.163-.151.023c.294-.428.792-.389,1.274-.761-.468.364-.051.13-.047.263.152-.018.377-.059.33,0,.222-.19.457-.082.77-.356.03.033.277-.1.253.02.324-.153-.1-.038-.092-.1.472-.323,1.28-.251,1.971-.686.628-.279.712-.439,1.3-.688.224,0-.127.192-.127.192a2.85,2.85,0,0,0,.9-.26c-.054.051.02.063.128.082.25-.076.13-.187.48-.217a.887.887,0,0,1-.21.224c.287-.114.562-.265.862-.381C640.884,589.367,640.625,589.473,640.528,589.546ZM622,613.439l-.008-.021a.154.154,0,0,1,.038.074c-.031.145-.069.184-.1.2Zm1.443-15.238c.686.706.821,1.289,1.355,1.892a2.9,2.9,0,0,0,.541,1.1c-.021.03-.041.059-.062.1.14.094.007.565.012.847-.281.306-.1-.285-.284-.224.131.028-.105.672.043.588-.193.242-.132.221-.311.316.174.119-.062.269-.028.541-.242.364-.218.036-.321.5-.136.187-.06-.228-.06-.228-.168.445.064.262.113.387-.156.548-.2.207-.339.361-.084.347-.046.651-.143.9-.03.01-.057.055-.066-.013-.015.394-.38,1.047-.386,1.51a.129.129,0,0,1-.056.041.23.23,0,0,1,.222.01c-.071.2-.045.405-.167.446a.279.279,0,0,0,.005-.214l-.036.225c-.206.139.058-.3-.042-.341-.064.256-.114.543-.175.8a.345.345,0,0,0-.1.008c.01-.054,0-.06-.076.035l-.006,0,.214-.437c-.347.294.123-.289-.227-.031a4.135,4.135,0,0,0-.148.386c-.559-.23-1.188-.086-1.454-.416-.439-.066-.86-.134-1.274-.2l-.027-.084.157-.22-.029-.287c-.009.114-.061.242-.1.225a2.11,2.11,0,0,1,.17-1.1l-.083-1.062c.039.019.056.125.074.237-.061-.4.15-.03.051-.514-.031.069-.076-.04-.1-.052a4.909,4.909,0,0,0,.093-1.28l.085.087c.051-.784.035-1.657.091-2.537-.062.313-.211.231-.208-.028l.142-.095c-.073-.172-.068.267-.149-.082.037-.329.169-.211.2-.02l-.02-.4c.042-.021.057.074.107.1-.074-.17.181-.68.055-.927l.042-.019c.008-.105.015-.2.021-.3l.02-.007.034-.142-.047.039c0-.031,0-.061.006-.091a4.845,4.845,0,0,1,.424-.279c.235.028-.411.331-.168.324.572-.437,1.15-.941,1.746-1.345a1.916,1.916,0,0,0,.2.215l-.036-.034.6.68C623.745,598.425,623.327,597.91,623.441,598.2Zm-2.641-.281v-.029l.084-.033C620.856,597.881,620.829,597.9,620.8,597.92Zm.079-2.257c.056-.269.119-.682.114-.667a.338.338,0,0,0-.064-.145.226.226,0,0,1-.075-.123c.1.08.113-.124.164.1l.006-.151c0-.036-.007-.133.019-.088s.077.045.2.148c-.011-.091-.046-.175-.021-.2.066.062.11.235.073.271l-.016,0a.46.46,0,0,1,.124.12c.082.113.165.24.243.367.157.256.3.53.44.8.16.3.316.59.481.841-.087.025-.165.026-.151-.021a2.567,2.567,0,0,1-.739.488c.253-.249-.136.012.271-.238a2.175,2.175,0,0,0-.854.585c.051-.12-.122-.043-.291.065.011-.25.024-.5.05-.8-.116-.025-.064-.3-.138-.525C620.758,596.225,620.823,595.951,620.879,595.663ZM617.12,606.4c-.226-.082.151-.047.237-.059-.46-.073-.894-.185-1.318-.29s-.842-.193-1.226-.256c.008-.017.092-.01.174,0-.152-.035-.33-.128-.341-.042l.148.023c.1.094-.066.116-.263.108s-.417-.056-.445-.035c.175-.052-.007-.148-.091-.249a.217.217,0,0,1-.055-.149c.007-.039.058-.053.154-.051-.046-.039-.136-.08-.173-.043-.024-.1,0-.127.092-.079a1.37,1.37,0,0,1-.134-.236c-.028-.056-.052-.117.019-.319.04.016.017.1.063.149a.947.947,0,0,1,.281-.786c.005.035.06.016-.013.114a5.7,5.7,0,0,1,1.346-1.578c-.067.3.254-.142.392-.051l.313-.325-.187.059a8.561,8.561,0,0,1,.787-.744l-.182.239c.182-.165.361-.336.547-.5-.123.069-.239.147-.359.221.256-.318-.162-.129.275-.427a3.877,3.877,0,0,1,.531-.3h0a1.653,1.653,0,0,1,.5-.478c.09-.008.058.174.117.17.067-.228.708-.594.823-.847-.046.075,0,.142.031.14l.067-.181c.167-.082.2-.084.213-.014.435-.3-.2-.077.256-.34v.052a.321.321,0,0,1-.022.025l.023-.016c0,.056,0,.11,0,.168a23.828,23.828,0,0,0-.375,3.113c.04-.152.142.032.154.211-.046.235.1.657-.065.614l.007-.084c-.172.172-.149.66-.161,1.038l.219.069a7.273,7.273,0,0,0-.112,2.33A13.748,13.748,0,0,1,617.12,606.4Zm2.248.435c0,.03,0,.059,0,.088-.319-.058-.635-.118-.946-.18C618.485,606.605,619.11,606.836,619.368,606.835Zm1.452,8.016c-.011-.057-.1.147-.172.271l.125-.387C620.822,614.716,620.851,614.763,620.82,614.852Zm.11-.623h0l.064-.221Zm1.163-4.071a.8.8,0,0,1-.083.778l-.095-.216c-.232.618.094.432-.236,1.049-.019-.137.12-.507.069-.419-.267.382-.019.329-.131.654l-.157.022c-.2.675-.357,1.44-.567,2.191-.027-.054-.028-.195-.126-.034-.093.377-.216.767-.347,1.156a3.344,3.344,0,0,1,.018-.479l.045.13c.013-.532-.287-.583-.2-1.082l.027.093a20.518,20.518,0,0,1-.008-3.308c-.185-.163.051-1.141-.193-1.211a8.439,8.439,0,0,0,.235-1.4.441.441,0,0,0-.011-.094c.037.026.077.052.111.079,0-.063.578.148.69.006l.328.193c.577.184.761-.006,1.255.1-.018.051-.039.106-.063.165a1.064,1.064,0,0,1-.167-.005l.153.04c-.014.035-.026.066-.043.1.022.171.127-.008.149.163C622.553,609.786,622.154,609.425,622.093,610.157Zm4.173-7.421.038-.08c.176.144.1.243.172.386.037-.049-.067-.233.038-.141a49.576,49.576,0,0,1,2.749,4.912c.324.6.53.142.8.978l-.241-.144a6.838,6.838,0,0,1,.561.831c.041.051-.036.01-.063.008s-.071-.017-.1-.022a.851.851,0,0,0-.11-.009h-.032s-.072-.012-.1-.017l-.253-.039c.086-.011.1-.051.226-.019a1.848,1.848,0,0,0-1.049-.179c-.2-.059-.03-.083-.146-.155-.265-.126-.729-.048-.854-.181-.021-.022.086-.013.139-.008-.193,0-.843-.22-.7-.065-.48-.175-.956-.182-1.333-.346-.288.063-.83-.268-.955-.111.081-.175-.828-.361-1.161-.351.041-.01.022-.028-.013-.049.009-.029.019-.058.027-.087l.4.115c-.113-.038-.257-.078-.4-.116a7.933,7.933,0,0,1,.818-2.586c-.053.088-.079.132-.11.143.506-1.083.836-2.285,1.263-3.421A3.541,3.541,0,0,1,626.266,602.736Zm1.433-7.826-.139.127.122-.407a.747.747,0,0,0-.129.552.343.343,0,0,0-.163.169l.021.528c-.091.033-.074-.258-.218.044.009.247.232-.158.165.225-.16.2-.206.112-.224.4-.06.022-.071-.045-.057-.159-.021.259-.188.641-.133.8-.185.2-.251.816-.417.732a2.19,2.19,0,0,1-.079.69c-.067-.473-.3.815-.488.63a2.073,2.073,0,0,1-.176.9c-.061-.083-.132-.154-.2-.076a1.071,1.071,0,0,1-.2-.313l.02.049-.02-.053h0l-.29-.725c-.038-.193.179.17.214.12-.288-.474-.037-.254-.182-.6-.035.113-.215-.089-.36-.373l.146.437c-.538-.573-.191-.677-.735-1.254l.2.161c-.151-.18-.406-.565-.67-.9a.855.855,0,0,0,.184-.13c-.081.068-.052.175-.041.14.515-.26.97-.667,1.7-1.149l-.066.1c.321-.121.794-.41,1.126-.566.068-.1.255-.2.1-.208a3.408,3.408,0,0,0,1.021-.414Z" transform="translate(569.947 1475.186)" fill="#ffe872" stroke="#ffe872" stroke-linejoin="round" stroke-width="0.5"/>
        <text id="못받은_돈_1_000만원" data-name="못받은 돈
1,000만원" transform="translate(964 1965)" fill="#333" font-size="18" font-family="NotoSansCJKkr-Regular, Noto Sans CJK KR"><tspan x="-35.136" y="0">못받은 돈</tspan><tspan x="-39.042" y="25">1,000만원</tspan></text>
        <g transform="matrix(1, 0, 0, 1, 863, 1809)" filter="url(#다각형_10)">
          <path id="다각형_10-2" data-name="다각형 10" d="M16.867,0,33.733,18H0Z" transform="translate(200.5 236.16) rotate(90)" fill="#15376c"/>
        </g>
        <g transform="matrix(1, 0, 0, 1, 863, 1809)" filter="url(#사각형_491)">
          <rect id="사각형_491-2" data-name="사각형 491" width="184" height="92" rx="2" transform="translate(9 206)" fill="#15376c"/>
        </g>
        <text id="못받은_돈_5_000만원" data-name="못받은 돈
5,000만원" transform="translate(964 2057)" fill="#fff" font-size="19" font-family="NotoSansCJKkr-Medium, Noto Sans CJK KR" font-weight="500"><tspan x="-37.097" y="0">못받은 돈</tspan><tspan x="-41.971" y="25">5,000만원</tspan></text>
        <text id="못받은_돈_500만원" data-name="못받은 돈
500만원" transform="translate(964 1873)" font-size="18" font-family="NotoSansCJKkr-Regular, Noto Sans CJK KR"><tspan x="-35.136" y="0">못받은 돈</tspan><tspan x="-31.545" y="25">500만원</tspan></text>
        <text id="지급명령" transform="translate(1137 1866.297)" fill="#15376c" font-size="17" font-family="NotoSansCJKkr-Medium, Noto Sans CJK KR" font-weight="500"><tspan x="-31.28" y="0">지급명령</tspan></text>
        <text id="인지대" transform="translate(1226 1864.297)" fill="#333" font-size="15" font-family="NotoSansCJKkr-Regular, Noto Sans CJK KR"><tspan x="-20.7" y="0">인지대</tspan></text>
        <text id="인지대-2" data-name="인지대" transform="translate(1226 1965.06)" fill="#333" font-size="15" font-family="NotoSansCJKkr-Regular, Noto Sans CJK KR"><tspan x="-20.7" y="0">인지대</tspan></text>
        <text id="착수금_" data-name="착수금 " transform="translate(1228 2019.06)" fill="#333" font-size="15" font-family="NotoSansCJKkr-Regular, Noto Sans CJK KR"><tspan x="-22.38" y="0">착수금 </tspan></text>
        <text id="송달료" transform="translate(1226 1892.159)" fill="#333" font-size="15" font-family="NotoSansCJKkr-Regular, Noto Sans CJK KR"><tspan x="-20.7" y="0">송달료</tspan></text>
        <text id="송달료-2" data-name="송달료" transform="translate(1226 1991.992)" fill="#333" font-size="15" font-family="NotoSansCJKkr-Regular, Noto Sans CJK KR"><tspan x="-20.7" y="0">송달료</tspan></text>
        <text id="총" transform="translate(1249 1921.125)" fill="#15376c" font-size="17" font-family="NotoSansCJKkr-Bold, Noto Sans CJK KR" font-weight="700"><tspan x="-7.82" y="0">총</tspan></text>
        <text id="소송" transform="translate(1122 1964.011)" fill="#333" font-size="17" font-family="NotoSansCJKkr-Medium, Noto Sans CJK KR" font-weight="500"><tspan x="-15.64" y="0">소송</tspan></text>
        <path id="패스_579" data-name="패스 579" d="M12250,723h147.334" transform="translate(-11048.332 1177.784)" fill="none" stroke="#707070" stroke-width="0.5"/>
        <path id="패스_581" data-name="패스 581" d="M12250,726.5h267.5" transform="translate(-11159 1210.494)" fill="none" stroke="#707070" stroke-width="0.5"/>
        <path id="패스_582" data-name="패스 582" d="M12250,726.5h267.5" transform="translate(-11159 1332.5)" fill="none" stroke="#707070" stroke-width="0.5"/>
        <path id="패스_580" data-name="패스 580" d="M12250,723h147.334" transform="translate(-11048.332 1306.284)" fill="none" stroke="#707070" stroke-width="0.5"/>
      </g>
    </g>
  </g>
</svg>
