<svg xmlns="http://www.w3.org/2000/svg" width="706" height="79" viewBox="0 0 706 79">
  <g id="그룹_1849" data-name="그룹 1849" transform="translate(-780 -2163)">
    <rect id="사각형_203" data-name="사각형 203" width="706" height="79" transform="translate(780 2163)" fill="#f2f2f2"/>
    <text id="납부하신_인지대와_송달료는_독촉절차비용이라는_항목으로_지급명령_확정시_채무자가_지급해야_하는_금액입니다." data-name="납부하신 인지대와 송달료는 독촉절차비용이라는 항목으로
지급명령 확정시 채무자가 지급해야 하는 금액입니다." transform="translate(920 2198)" fill="#15376c" font-size="18" font-family="NotoSansCJKkr-Regular, Noto Sans CJK KR"><tspan x="0" y="0">납부하신 인지대와 송달료는 독촉절차비용이라는 항목으로</tspan><tspan x="0" y="25">지급명령 확정시 채무자가 지급해야 하는 금액입니다.</tspan></text>
    <g id="그룹_598" data-name="그룹 598" transform="translate(-3.197 827.384)">
      <g id="그룹_392" data-name="그룹 392" transform="translate(802.785 1354.095)">
        <g id="그룹_400" data-name="그룹 400" transform="translate(0 0)">
          <g id="그룹_399" data-name="그룹 399" transform="translate(0 7.14)">
            <g id="그룹_398" data-name="그룹 398" transform="translate(0 0)">
              <g id="그룹_397" data-name="그룹 397">
                <g id="그룹_396" data-name="그룹 396">
                  <g id="그룹_395" data-name="그룹 395" transform="translate(6.617)">
                    <g id="그룹_394" data-name="그룹 394">
                      <g id="그룹_393" data-name="그룹 393" transform="translate(1.103)">
                        <rect id="사각형_182" data-name="사각형 182" width="13.234" height="19.851" rx="2" transform="translate(13.234 19.851) rotate(180)" fill="none" stroke="#15376c" stroke-linejoin="round" stroke-width="1.5"/>
                        <path id="패스_428" data-name="패스 428" d="M-940.645,391.494a3.24,3.24,0,0,1-3.309-3.308s0,3.308-9.926,3.308" transform="translate(953.879 -382.672)" fill="none" stroke="#15376c" stroke-linejoin="round" stroke-width="1.5"/>
                      </g>
                      <path id="패스_429" data-name="패스 429" d="M-956.6,403.5h-1.1v3.308h1.1" transform="translate(957.708 -393.577)" fill="none" stroke="#15376c" stroke-linejoin="round" stroke-width="1.5"/>
                      <path id="패스_430" data-name="패스 430" d="M-907.928,406.811h1.1V403.5h-1.1" transform="translate(922.265 -393.577)" fill="none" stroke="#15376c" stroke-linejoin="round" stroke-width="1.5"/>
                    </g>
                    <path id="패스_431" data-name="패스 431" d="M-934.151,437.965v1.1a2.206,2.206,0,0,1-2.206,2.206h0a2.206,2.206,0,0,1-2.206-2.206v-1.1" transform="translate(944.076 -418.114)" fill="none" stroke="#15376c" stroke-linejoin="round" stroke-width="1.5"/>
                  </g>
                  <path id="패스_432" data-name="패스 432" d="M-960.832,445.623h20.954a3.309,3.309,0,0,1,3.309,3.309h0a3.309,3.309,0,0,1-3.309,3.308h-14.337v8.823h-26.468v-6.617a8.823,8.823,0,0,1,8.823-8.823" transform="translate(980.683 -423.566)" fill="none" stroke="#15376c" stroke-linejoin="round" stroke-width="1.5"/>
                  <path id="패스_433" data-name="패스 433" d="M-965.366,446.726l9.926,9.925,11.028-11.028" transform="translate(969.777 -423.567)" fill="none" stroke="#15376c" stroke-linejoin="round" stroke-width="1.5"/>
                  <line id="선_22" data-name="선 22" y1="4.411" transform="translate(14.337 33.085)" fill="none" stroke="#15376c" stroke-linejoin="round" stroke-width="1.5"/>
                  <line id="선_23" data-name="선 23" y1="4.411" transform="translate(5.514 33.085)" fill="none" stroke="#15376c" stroke-linejoin="round" stroke-width="1.5"/>
                </g>
              </g>
            </g>
          </g>
          <path id="패스_434" data-name="패스 434" d="M-886.782,342.249H-854.5a2,2,0,0,1,2,2v14.476a2,2,0,0,1-2,2h-24.285l-6,6v-6h-2a2,2,0,0,1-2-2V344.25A2,2,0,0,1-886.782,342.249Z" transform="translate(916.694 -344.249)" fill="#ffe872" stroke="#15376c" stroke-linejoin="round" stroke-width="1.5"/>
          <line id="선_24" data-name="선 24" y2="6.617" transform="translate(37.496 29.196)" fill="none" stroke="#15376c" stroke-linejoin="round" stroke-width="1.5"/>
        </g>
      </g>
      <text id="TIP" transform="translate(840.197 1365.5)" fill="#15376c" font-size="12" font-family="KoPubWorldDotumPB, KoPubWorldDotum_Pro" letter-spacing="0.05em"><tspan x="0" y="0">TIP</tspan></text>
    </g>
  </g>
</svg>
