<svg xmlns="http://www.w3.org/2000/svg" xmlns:xlink="http://www.w3.org/1999/xlink" width="71.238" height="71.238" viewBox="0 0 71.238 71.238">
  <defs>
    <filter id="사각형_207" x="35.705" y="41.702" width="17.427" height="7.373" filterUnits="userSpaceOnUse">
      <feOffset dx="1" dy="1" input="SourceAlpha"/>
      <feGaussianBlur stdDeviation="0.5" result="blur"/>
      <feFlood flood-opacity="0.149"/>
      <feComposite operator="in" in2="blur"/>
      <feComposite in="SourceGraphic"/>
    </filter>
    <filter id="사각형_208" x="35.705" y="27.339" width="17.427" height="7.373" filterUnits="userSpaceOnUse">
      <feOffset dx="1" dy="1" input="SourceAlpha"/>
      <feGaussianBlur stdDeviation="0.5" result="blur-2"/>
      <feFlood flood-opacity="0.149"/>
      <feComposite operator="in" in2="blur-2"/>
      <feComposite in="SourceGraphic"/>
    </filter>
    <filter id="사각형_209" x="37.859" y="30.211" width="13.118" height="15.991" filterUnits="userSpaceOnUse">
      <feOffset dx="1" dy="1" input="SourceAlpha"/>
      <feGaussianBlur stdDeviation="0.5" result="blur-3"/>
      <feFlood flood-opacity="0.149"/>
      <feComposite operator="in" in2="blur-3"/>
      <feComposite in="SourceGraphic"/>
    </filter>
    <filter id="패스_574" x="46.477" y="33.802" width="7.373" height="8.809" filterUnits="userSpaceOnUse">
      <feOffset dx="1" dy="1" input="SourceAlpha"/>
      <feGaussianBlur stdDeviation="0.5" result="blur-4"/>
      <feFlood flood-opacity="0.149"/>
      <feComposite operator="in" in2="blur-4"/>
      <feComposite in="SourceGraphic"/>
    </filter>
    <filter id="패스_575" x="49.35" y="34.52" width="13.836" height="7.373" filterUnits="userSpaceOnUse">
      <feOffset dx="1" dy="1" input="SourceAlpha"/>
      <feGaussianBlur stdDeviation="0.5" result="blur-5"/>
      <feFlood flood-opacity="0.149"/>
      <feComposite operator="in" in2="blur-5"/>
      <feComposite in="SourceGraphic"/>
    </filter>
    <filter id="패스_576" x="14.674" y="17.188" width="31.483" height="38.978" filterUnits="userSpaceOnUse">
      <feOffset dx="1" dy="1" input="SourceAlpha"/>
      <feGaussianBlur stdDeviation="0.5" result="blur-6"/>
      <feFlood flood-opacity="0.149"/>
      <feComposite operator="in" in2="blur-6"/>
      <feComposite in="SourceGraphic"/>
    </filter>
    <filter id="패스_577" x="17.672" y="17.188" width="28.485" height="38.978" filterUnits="userSpaceOnUse">
      <feOffset dx="1" dy="1" input="SourceAlpha"/>
      <feGaussianBlur stdDeviation="0.5" result="blur-7"/>
      <feFlood flood-opacity="0.149"/>
      <feComposite operator="in" in2="blur-7"/>
      <feComposite in="SourceGraphic"/>
    </filter>
    <filter id="패스_578" x="21.419" y="20.936" width="20.99" height="13.495" filterUnits="userSpaceOnUse">
      <feOffset dx="1" dy="1" input="SourceAlpha"/>
      <feGaussianBlur stdDeviation="0.5" result="blur-8"/>
      <feFlood flood-opacity="0.149"/>
      <feComposite operator="in" in2="blur-8"/>
      <feComposite in="SourceGraphic"/>
    </filter>
    <filter id="선_29" x="24.418" y="23.934" width="14.993" height="4.5" filterUnits="userSpaceOnUse">
      <feOffset dx="1" dy="1" input="SourceAlpha"/>
      <feGaussianBlur stdDeviation="0.5" result="blur-9"/>
      <feFlood flood-opacity="0.149"/>
      <feComposite operator="in" in2="blur-9"/>
      <feComposite in="SourceGraphic"/>
    </filter>
    <filter id="선_30" x="24.418" y="26.932" width="12.745" height="4.5" filterUnits="userSpaceOnUse">
      <feOffset dx="1" dy="1" input="SourceAlpha"/>
      <feGaussianBlur stdDeviation="0.5" result="blur-10"/>
      <feFlood flood-opacity="0.149"/>
      <feComposite operator="in" in2="blur-10"/>
      <feComposite in="SourceGraphic"/>
    </filter>
  </defs>
  <g id="그룹_1947" data-name="그룹 1947" transform="translate(-372.881 -403.881)">
    <circle id="타원_62" data-name="타원 62" cx="35.619" cy="35.619" r="35.619" transform="translate(372.881 403.881)" fill="#435062" opacity="0.6"/>
    <g id="그룹_1946" data-name="그룹 1946" transform="translate(388.805 422.319)">
      <g transform="matrix(1, 0, 0, 1, -15.92, -18.44)" filter="url(#사각형_207)">
        <rect id="사각형_207-2" data-name="사각형 207" width="12.927" height="2.873" rx="1.436" transform="translate(36.95 42.95)" stroke-width="1.5" stroke="#fff" stroke-linecap="round" stroke-linejoin="round" fill="none"/>
      </g>
      <g transform="matrix(1, 0, 0, 1, -15.92, -18.44)" filter="url(#사각형_208)">
        <rect id="사각형_208-2" data-name="사각형 208" width="12.927" height="2.873" rx="1.436" transform="translate(36.95 28.59)" stroke-width="1.5" stroke="#fff" stroke-linecap="round" stroke-linejoin="round" fill="none"/>
      </g>
      <g transform="matrix(1, 0, 0, 1, -15.92, -18.44)" filter="url(#사각형_209)">
        <rect id="사각형_209-2" data-name="사각형 209" width="8.618" height="11.491" transform="translate(39.11 31.46)" stroke-width="1.5" stroke="#fff" stroke-linecap="round" stroke-linejoin="round" fill="none"/>
      </g>
      <g transform="matrix(1, 0, 0, 1, -15.92, -18.44)" filter="url(#패스_574)">
        <path id="패스_574-2" data-name="패스 574" d="M1151.01,477.354h1.437a1.437,1.437,0,0,1,1.437,1.437v1.436a1.437,1.437,0,0,1-1.437,1.437h-1.437" transform="translate(-1103.28 -442.3)" fill="none" stroke="#fff" stroke-linecap="round" stroke-linejoin="round" stroke-width="1.5"/>
      </g>
      <g transform="matrix(1, 0, 0, 1, -15.92, -18.44)" filter="url(#패스_575)">
        <path id="패스_575-2" data-name="패스 575" d="M1155.3,478.426h9.336V481.3H1155.3" transform="translate(-1104.7 -442.66)" fill="none" stroke="#fff" stroke-linecap="round" stroke-linejoin="round" stroke-width="1.5"/>
      </g>
      <g transform="matrix(1, 0, 0, 1, -15.92, -18.44)" filter="url(#패스_576)">
        <path id="패스_576-2" data-name="패스 576" d="M1130.553,459.741V452.3h-25.362a1.622,1.622,0,0,0-1.622,1.622v31.235a1.622,1.622,0,0,0,1.622,1.622h1.376" transform="translate(-1087.65 -433.86)" fill="none" stroke="#fff" stroke-linecap="round" stroke-linejoin="round" stroke-width="1.5"/>
      </g>
      <g transform="matrix(1, 0, 0, 1, -15.92, -18.44)" filter="url(#패스_577)">
        <path id="패스_577-2" data-name="패스 577" d="M1108.042,452.3v34.478h23.985v-4.434" transform="translate(-1089.12 -433.86)" fill="none" stroke="#fff" stroke-linecap="round" stroke-linejoin="round" stroke-width="1.5"/>
      </g>
      <g transform="matrix(1, 0, 0, 1, -15.92, -18.44)" filter="url(#패스_578)">
        <path id="패스_578-2" data-name="패스 578" d="M1125.625,466.88h-10.494a1.5,1.5,0,0,1-1.5-1.5v-6a1.5,1.5,0,0,1,1.5-1.5h13.492a1.5,1.5,0,0,1,1.5,1.5v2.2" transform="translate(-1090.96 -435.7)" fill="none" stroke="#fff" stroke-linecap="round" stroke-linejoin="round" stroke-width="1.5"/>
      </g>
      <g transform="matrix(1, 0, 0, 1, -15.92, -18.44)" filter="url(#선_29)">
        <line id="선_29-2" data-name="선 29" x2="10.493" transform="translate(25.67 25.18)" fill="none" stroke="#fff" stroke-linecap="round" stroke-linejoin="round" stroke-width="1.5"/>
      </g>
      <g transform="matrix(1, 0, 0, 1, -15.92, -18.44)" filter="url(#선_30)">
        <line id="선_30-2" data-name="선 30" x2="8.245" transform="translate(25.67 28.18)" fill="none" stroke="#fff" stroke-linecap="round" stroke-linejoin="round" stroke-width="1.5"/>
      </g>
    </g>
  </g>
</svg>
