<svg xmlns="http://www.w3.org/2000/svg" width="85.654" height="85.654" viewBox="0 0 85.654 85.654">
  <g id="그룹_1784" data-name="그룹 1784" transform="translate(-780.5 -2349)">
    <ellipse id="타원_49" data-name="타원 49" cx="42.827" cy="42.827" rx="42.827" ry="42.827" transform="translate(780.5 2349)" fill="#f1f3f6"/>
    <ellipse id="타원_50" data-name="타원 50" cx="42.827" cy="42.827" rx="42.827" ry="42.827" transform="translate(780.5 2349)" fill="#f1f3f6"/>
    <rect id="사각형_474" data-name="사각형 474" width="10" height="5" transform="translate(818.5 2406)" fill="#cecece"/>
    <rect id="사각형_475" data-name="사각형 475" width="42" height="5" transform="translate(802.5 2401)" fill="#ffe872"/>
    <g id="그룹_1726" data-name="그룹 1726" transform="translate(316.592 1620.13)">
      <g id="그룹_1659" data-name="그룹 1659" transform="translate(485.5 754.413)">
        <g id="그룹_1654" data-name="그룹 1654" transform="translate(0.003 25.659)">
          <path id="패스_1144" data-name="패스 1144" d="M526.592,844.14H487.525a2.2,2.2,0,0,1-2.016-2.093v-4.2h42.813v4.255A1.89,1.89,0,0,1,526.592,844.14Zm-39.765-4.972v2.879a.913.913,0,0,0,.7.776h39.067c.243,0,.413-.378.413-.717v-2.937Z" transform="translate(-485.509 -837.851)" fill="#15376c"/>
        </g>
        <g id="그룹_1655" data-name="그룹 1655" transform="translate(14.613 31.264)">
          <path id="패스_1145" data-name="패스 1145" d="M530.394,860.985l-.525-1.208c.431-.188.807-.366,1.005-.476l.061-.034a1.647,1.647,0,0,0,.211-.129,1.681,1.681,0,0,0,.153-.55,13.742,13.742,0,0,0,.078-2.25c-.008-.562-.014-1.092.016-1.468l1.313.107c-.026.314-.019.814-.012,1.344a14.067,14.067,0,0,1-.1,2.521c-.193.985-.4,1.233-1.015,1.576l-.059.033C531.19,860.632,530.674,860.863,530.394,860.985Z" transform="translate(-529.869 -854.869)" fill="#15376c"/>
        </g>
        <g id="그룹_1656" data-name="그룹 1656" transform="translate(25.343 31.312)">
          <path id="패스_1146" data-name="패스 1146" d="M564.737,861.087c-.518-.228-.9-.408-1.129-.537l-.039-.022c-.659-.37-.819-.622-1.008-1.589a13.825,13.825,0,0,1-.1-2.492c.007-.52.013-1.012-.012-1.326l1.313-.106c.03.375.023.9.016,1.449a13.482,13.482,0,0,0,.078,2.222,2.108,2.108,0,0,0,.15.568,2.31,2.31,0,0,0,.209.126l.037.02c.132.073.419.218,1.018.482Z" transform="translate(-562.446 -855.015)" fill="#15376c"/>
        </g>
        <g id="그룹_1657" data-name="그룹 1657" transform="translate(13.737 36.047)">
          <rect id="사각형_433" data-name="사각형 433" width="15.349" height="1.317" fill="#15376c"/>
        </g>
        <g id="그룹_1658" data-name="그룹 1658" transform="translate(0 0)">
          <path id="패스_1147" data-name="패스 1147" d="M528.3,786.945H485.5V761.752a1.8,1.8,0,0,1,1.795-1.808h.561v1.317h-.561a.485.485,0,0,0-.477.49v23.876h40.169V761.752a.485.485,0,0,0-.478-.49h-.547v-1.317h.547a1.8,1.8,0,0,1,1.8,1.808Z" transform="translate(-485.5 -759.944)" fill="#15376c"/>
        </g>
      </g>
      <g id="그룹_1675" data-name="그룹 1675" transform="translate(489.739 751.697)">
        <g id="그룹_1662" data-name="그룹 1662" transform="translate(0)">
          <g id="그룹_1660" data-name="그룹 1660">
            <path id="패스_1148" data-name="패스 1148" d="M516.258,778.844h-1.317a1.853,1.853,0,0,0-1.837-1.864H498.372V751.7H513.1a3.172,3.172,0,0,1,3.154,3.182Zm-16.569-3.181H513.1a3.123,3.123,0,0,1,1.837.6v-21.38a1.853,1.853,0,0,0-1.837-1.865H499.689Z" transform="translate(-498.372 -751.697)" fill="#15376c"/>
          </g>
          <g id="그룹_1661" data-name="그룹 1661" transform="translate(16.637)">
            <path id="패스_1149" data-name="패스 1149" d="M550.2,778.844h-1.317V754.879a3.172,3.172,0,0,1,3.154-3.182H566.77V776.98H552.039A1.852,1.852,0,0,0,550.2,778.844Zm1.836-25.83a1.853,1.853,0,0,0-1.836,1.865v21.38a3.118,3.118,0,0,1,1.836-.6h13.414V753.014Z" transform="translate(-548.885 -751.697)" fill="#15376c"/>
          </g>
        </g>
        <g id="그룹_1674" data-name="그룹 1674" transform="translate(3.196 3.734)">
          <g id="그룹_1663" data-name="그룹 1663">
            <rect id="사각형_434" data-name="사각형 434" width="7.256" height="1.317" fill="#15376c"/>
          </g>
          <g id="그룹_1664" data-name="그룹 1664" transform="translate(0 3.268)">
            <rect id="사각형_435" data-name="사각형 435" width="11.318" height="1.317" fill="#15376c"/>
          </g>
          <g id="그룹_1665" data-name="그룹 1665" transform="translate(0 6.484)">
            <rect id="사각형_436" data-name="사각형 436" width="11.318" height="1.317" fill="#15376c"/>
          </g>
          <g id="그룹_1666" data-name="그룹 1666" transform="translate(0 9.699)">
            <rect id="사각형_437" data-name="사각형 437" width="11.318" height="1.317" fill="#15376c"/>
          </g>
          <g id="그룹_1667" data-name="그룹 1667" transform="translate(0 12.915)">
            <rect id="사각형_438" data-name="사각형 438" width="11.318" height="1.317" fill="#15376c"/>
          </g>
          <g id="그룹_1668" data-name="그룹 1668" transform="translate(0 16.13)">
            <rect id="사각형_439" data-name="사각형 439" width="11.318" height="1.317" fill="#15376c"/>
          </g>
          <g id="그룹_1669" data-name="그룹 1669" transform="translate(16.435 3.268)">
            <g id="사각형_440" data-name="사각형 440" fill="#ffc7c0" stroke="#15376c" stroke-width="1">
              <rect width="11.318" height="4.534" stroke="none"/>
              <rect x="0.5" y="0.5" width="10.318" height="3.534" fill="none"/>
            </g>
          </g>
          <g id="그룹_1671" data-name="그룹 1671" transform="translate(16.435 9.699)">
            <rect id="사각형_442" data-name="사각형 442" width="11.318" height="1.317" fill="#15376c"/>
          </g>
          <g id="그룹_1672" data-name="그룹 1672" transform="translate(16.435 12.915)">
            <rect id="사각형_443" data-name="사각형 443" width="11.318" height="1.317" fill="#15376c"/>
          </g>
          <g id="그룹_1673" data-name="그룹 1673" transform="translate(16.435 16.13)">
            <rect id="사각형_444" data-name="사각형 444" width="11.318" height="1.317" fill="#15376c"/>
          </g>
        </g>
      </g>
    </g>
  </g>
</svg>
