<svg xmlns="http://www.w3.org/2000/svg" width="85.654" height="85.654" viewBox="0 0 85.654 85.654">
  <g id="그룹_1948" data-name="그룹 1948" transform="translate(-793 -3432)">
    <ellipse id="타원_61" data-name="타원 61" cx="42.827" cy="42.827" rx="42.827" ry="42.827" transform="translate(793 3432)" fill="#f1f3f6"/>
    <g id="그룹_1945" data-name="그룹 1945" transform="translate(-468.256 2655.84)">
      <g id="그룹_1929" data-name="그룹 1929">
        <g id="그룹_1923" data-name="그룹 1923">
          <g id="그룹_1921" data-name="그룹 1921">
            <g id="그룹_1916" data-name="그룹 1916">
              <rect id="사각형_519" data-name="사각형 519" width="1.327" height="2.574" transform="translate(1312.034 805.074)" fill="#15376c"/>
            </g>
            <g id="그룹_1917" data-name="그룹 1917">
              <rect id="사각형_520" data-name="사각형 520" width="1.327" height="2.583" transform="translate(1306.687 807.914) rotate(-45.203)" fill="#15376c"/>
            </g>
            <g id="그룹_1918" data-name="그룹 1918">
              <rect id="사각형_521" data-name="사각형 521" width="2.592" height="1.327" transform="translate(1304.921 812.347)" fill="#15376c"/>
            </g>
            <g id="그룹_1919" data-name="그룹 1919">
              <rect id="사각형_522" data-name="사각형 522" width="2.592" height="1.327" transform="translate(1318.099 812.132)" fill="#15376c"/>
            </g>
            <g id="그룹_1920" data-name="그룹 1920">
              <rect id="사각형_523" data-name="사각형 523" width="2.583" height="1.327" transform="translate(1316.005 808.641) rotate(-44.801)" fill="#15376c"/>
            </g>
          </g>
          <g id="그룹_1922" data-name="그룹 1922">
            <path id="패스_1292" data-name="패스 1292" d="M1324.35,840.4h-1.327v-2.772l.267-.2a4.06,4.06,0,0,0,1.665-3.286v-8.283l-.088-1.8a1.128,1.128,0,0,0-1.125-1.144c-1.12,0-1.124.464-1.124.665v0h-1.327v-.444a1.124,1.124,0,0,0-2.247,0h-1.327v-.887a1.124,1.124,0,0,0-2.248,0v.91h-1.327c0-.429-.016-10.135-.016-10.135a1.186,1.186,0,0,0-2.372,0l-.009,17.938-1.327.028-.038-4.57a2.06,2.06,0,0,0-2.068-2.047h-.245v7l4.951,5.842a8.856,8.856,0,0,0,1.885.909l.508.122V840.4h-1.327V839.25a12.686,12.686,0,0,1-1.858-.963l-.087-.055-5.4-6.371.023-8.566a.246.246,0,0,1,.246-.245h1.3a3.39,3.39,0,0,1,2.109.732l.006-10.6a2.612,2.612,0,0,1,2.249-2.641,2.511,2.511,0,0,1,2.777,2.487s.006,4.075.011,7.062a4.148,4.148,0,0,0,4.7.613,2.454,2.454,0,0,1,2.108,1.2,3.163,3.163,0,0,1,1.466-.31,2.447,2.447,0,0,1,2.451,2.438l.089,1.8v8.315a5.367,5.367,0,0,1-1.932,4.139Z" fill="#15376c"/>
          </g>
        </g>
        <g id="그룹_1927" data-name="그룹 1927">
          <g id="그룹_1924" data-name="그룹 1924">
            <path id="패스_1293" data-name="패스 1293" d="M1287.422,838.1V828.024h-6.166V800.16h42.9v27.864h-26.52Zm-4.821-11.511h6.166v8.229l8.343-8.229h25.7V801.6H1282.6Z" fill="#15376c"/>
          </g>
          <g id="그룹_1926" data-name="그룹 1926">
            <g id="그룹_1925" data-name="그룹 1925">
              <rect id="사각형_524" data-name="사각형 524" width="13.702" height="1.436" transform="translate(1287.485 819.427)" fill="#15376c"/>
            </g>
          </g>
        </g>
        <path id="패스_1294" data-name="패스 1294" d="M1323.023,840.4v-2.772l.267-.2a4.06,4.06,0,0,0,1.665-3.286v-8.283l-.088-1.8a1.128,1.128,0,0,0-1.125-1.144c-1.12,0-1.124.464-1.124.665v0h-1.327v-.444a1.124,1.124,0,0,0-2.247,0h-1.327v-.887a1.124,1.124,0,0,0-2.248,0v.91h-1.327c0-.429-.016-10.135-.016-10.135a1.186,1.186,0,0,0-2.372,0l-.009,17.938-1.327.028-.038-4.57a2.06,2.06,0,0,0-2.068-2.047h-.245v7l4.951,5.842a8.856,8.856,0,0,0,1.885.909l.508.122V840.4Z" fill="#ffc7c0"/>
        <g id="그룹_1928" data-name="그룹 1928">
          <rect id="사각형_525" data-name="사각형 525" width="10.207" height="1.327" transform="translate(1314.143 839.069)" fill="#15376c"/>
        </g>
      </g>
      <g id="그룹_1930" data-name="그룹 1930">
        <rect id="사각형_454" data-name="사각형 454" width="13" height="6.021" transform="translate(1287.941 808.451)" fill="#ffe872"/>
        <g id="그룹_1687" data-name="그룹 1687">
          <g id="그룹_1686" data-name="그룹 1686">
            <path id="패스_1152" data-name="패스 1152" d="M1301.539,814.994h-14.407v-7.5h14.407Zm-13.087-1.32h11.767v-4.861h-11.767Z" fill="#15376c"/>
          </g>
        </g>
      </g>
    </g>
  </g>
</svg>
