<svg xmlns="http://www.w3.org/2000/svg" xmlns:xlink="http://www.w3.org/1999/xlink" width="37.465" height="35.825" viewBox="0 0 37.465 35.825">
  <defs>
    <clipPath id="clip-path">
      <rect width="37.251" height="35.611" fill="none"/>
    </clipPath>
  </defs>
  <g id="그룹_1737" data-name="그룹 1737" transform="translate(0.107 0.107)" opacity="0.7">
    <g id="심볼_10_138" data-name="심볼 10 – 138" clip-path="url(#clip-path)">
      <path id="패스_33" data-name="패스 33" d="M685.021,588.3l-.115.2.319-.119C685.294,588.319,685.229,588.229,685.021,588.3Z" transform="translate(-648.144 -588.129)" fill="rgba(255,255,255,0.2)" stroke="rgba(255,255,255,0.2)" stroke-linejoin="round" stroke-width="0.5"/>
      <path id="패스_34" data-name="패스 34" d="M682.26,588.526c-.087-.018-.021-.078-.01-.113-.232.136-.486.341-.289.455.209-.214.284-.161.507-.409.208-.068.382-.032.36.037.066-.06.337-.039.429-.168A1.474,1.474,0,0,0,682.26,588.526Z" transform="translate(-646.662 -588.145)" fill="rgba(255,255,255,0.2)" stroke="rgba(255,255,255,0.2)" stroke-linejoin="round" stroke-width="0.5"/>
      <path id="패스_35" data-name="패스 35" d="M621.833,617.58c.075-.068.1-.108.091-.124C621.859,617.525,621.807,617.583,621.833,617.58Z" transform="translate(-617.147 -602.469)" fill="rgba(255,255,255,0.2)" stroke="rgba(255,255,255,0.2)" stroke-linejoin="round" stroke-width="0.5"/>
      <path id="패스_36" data-name="패스 36" d="M618.2,620.225l.109-.079A.224.224,0,0,0,618.2,620.225Z" transform="translate(-615.366 -603.791)" fill="rgba(255,255,255,0.2)" stroke="rgba(255,255,255,0.2)" stroke-linejoin="round" stroke-width="0.5"/>
      <path id="패스_37" data-name="패스 37" d="M643.106,603.167l-.335.127C642.777,603.354,642.95,603.241,643.106,603.167Z" transform="translate(-627.439 -595.448)" fill="rgba(255,255,255,0.2)" stroke="rgba(255,255,255,0.2)" stroke-linejoin="round" stroke-width="0.5"/>
      <path id="패스_38" data-name="패스 38" d="M677.206,590.6a.8.8,0,0,0,.172-.091l-.168.062A.181.181,0,0,1,677.206,590.6Z" transform="translate(-644.36 -589.23)" fill="rgba(255,255,255,0.2)" stroke="rgba(255,255,255,0.2)" stroke-linejoin="round" stroke-width="0.5"/>
      <path id="패스_39" data-name="패스 39" d="M653.527,597.542l.1-.047a.566.566,0,0,0,.052-.1Z" transform="translate(-632.724 -592.611)" fill="rgba(255,255,255,0.2)" stroke="rgba(255,255,255,0.2)" stroke-linejoin="round" stroke-width="0.5"/>
      <path id="패스_40" data-name="패스 40" d="M661.536,594.165c-.1.032-.077.179-.09.251a.355.355,0,0,1,.169-.173A.153.153,0,0,0,661.536,594.165Z" transform="translate(-636.616 -591.024)" fill="rgba(255,255,255,0.2)" stroke="rgba(255,255,255,0.2)" stroke-linejoin="round" stroke-width="0.5"/>
      <path id="패스_41" data-name="패스 41" d="M675.008,590.079l.115-.055Z" transform="translate(-643.28 -588.99)" fill="rgba(255,255,255,0.2)" stroke="rgba(255,255,255,0.2)" stroke-linejoin="round" stroke-width="0.5"/>
      <path id="패스_42" data-name="패스 42" d="M645.432,610.163c.009.007.016,0,.024.008C645.451,610.143,645.444,610.131,645.432,610.163Z" transform="translate(-628.747 -598.876)" fill="rgba(255,255,255,0.2)" stroke="rgba(255,255,255,0.2)" stroke-linejoin="round" stroke-width="0.5"/>
      <path id="패스_43" data-name="패스 43" d="M649.924,600.969l-.014.071a.3.3,0,0,0,.072.038Z" transform="translate(-630.947 -594.368)" fill="rgba(255,255,255,0.2)" stroke="rgba(255,255,255,0.2)" stroke-linejoin="round" stroke-width="0.5"/>
      <path id="패스_44" data-name="패스 44" d="M612.919,627.477a.143.143,0,0,1,0-.029C612.906,627.282,612.9,627.376,612.919,627.477Z" transform="translate(-612.765 -607.334)" fill="rgba(255,255,255,0.2)" stroke="rgba(255,255,255,0.2)" stroke-linejoin="round" stroke-width="0.5"/>
      <path id="패스_45" data-name="패스 45" d="M642.973,614.235c.126.431-.518-.5-.285.123C642.7,614.276,643.194,614.73,642.973,614.235Z" transform="translate(-627.373 -600.838)" fill="rgba(255,255,255,0.2)" stroke="rgba(255,255,255,0.2)" stroke-linejoin="round" stroke-width="0.5"/>
      <path id="패스_46" data-name="패스 46" d="M676.807,590.714l-.176.047A1.007,1.007,0,0,0,676.807,590.714Z" transform="translate(-644.077 -589.329)" fill="rgba(255,255,255,0.2)" stroke="rgba(255,255,255,0.2)" stroke-linejoin="round" stroke-width="0.5"/>
      <path id="패스_47" data-name="패스 47" d="M631,634.559a.268.268,0,0,0-.079-.084C630.918,634.49,630.935,634.513,631,634.559Z" transform="translate(-621.615 -610.832)" fill="rgba(255,255,255,0.2)" stroke="rgba(255,255,255,0.2)" stroke-linejoin="round" stroke-width="0.5"/>
      <path id="패스_48" data-name="패스 48" d="M645.32,637.718c-.017-.015-.041-.03-.061-.045l-.12-.021Z" transform="translate(-628.603 -612.393)" fill="rgba(255,255,255,0.2)" stroke="rgba(255,255,255,0.2)" stroke-linejoin="round" stroke-width="0.5"/>
      <path id="패스_49" data-name="패스 49" d="M637.749,631.393a.56.56,0,0,1,.182-.122C637.815,631.292,637.975,630.751,637.749,631.393Z" transform="translate(-624.971 -609.163)" fill="rgba(255,255,255,0.2)" stroke="rgba(255,255,255,0.2)" stroke-linejoin="round" stroke-width="0.5"/>
      <path id="패스_50" data-name="패스 50" d="M677.07,590.541a.135.135,0,0,1-.093.088l.12-.039C677.1,590.567,677.1,590.546,677.07,590.541Z" transform="translate(-644.247 -589.244)" fill="rgba(255,255,255,0.2)" stroke="rgba(255,255,255,0.2)" stroke-linejoin="round" stroke-width="0.5"/>
      <path id="패스_51" data-name="패스 51" d="M643.621,635.039a1.288,1.288,0,0,0,.309.177.235.235,0,0,0,.077-.019Z" transform="translate(-627.857 -611.109)" fill="rgba(255,255,255,0.2)" stroke="rgba(255,255,255,0.2)" stroke-linejoin="round" stroke-width="0.5"/>
      <path id="패스_52" data-name="패스 52" d="M630.69,626.6c.006.037.013.079.024.13C630.705,626.686,630.7,626.642,630.69,626.6Z" transform="translate(-621.503 -606.962)" fill="rgba(255,255,255,0.2)" stroke="rgba(255,255,255,0.2)" stroke-linejoin="round" stroke-width="0.5"/>
      <path id="패스_53" data-name="패스 53" d="M613.062,626.666c.008-.085.016-.169.025-.236A.946.946,0,0,0,613.062,626.666Z" transform="translate(-612.841 -606.879)" fill="rgba(255,255,255,0.2)" stroke="rgba(255,255,255,0.2)" stroke-linejoin="round" stroke-width="0.5"/>
      <path id="패스_54" data-name="패스 54" d="M646.532,589.639a3.977,3.977,0,0,0,1.172-.522l-.284.017c.152-.047.107.093,0,.147-.336.2-.533.09-.566.048l.26-.1c-.347-.21-1.065.327-1.607.451l.17-.263-.507.315c-.131-.019-.244-.11.012-.216-.413.011-.319.172-.682.157-.041-.007-.027-.021,0-.039l-.358.172c.061-.065-.1-.125.135-.164-.711.083-1.042.475-1.343.4l.052-.029c-.909.364-.045.175-.683.576l-.586-.21-.042.178c-.1.026-.29.078-.275.008-.322.219.082.044-.092.208-.509.01-1.239.5-1.424.3-.123.171.465-.074.008.182-.229-.2-.545.249-1,.286.079-.175.5-.252.04-.214-.17.308-.829.248-1.159.436.051.178-.725.376-1.283.668a13.176,13.176,0,0,0-1.686.545l0-.036c-.027.218-.594.424-.976.642-.032-.109.021-.184.218-.325-.126.055-.252.111-.375.172a1.1,1.1,0,0,1-.4.315l.034-.172a10.209,10.209,0,0,1-1.6.848c.024.135.664.078.037.486-.056-.05-.134-.145.026-.26a.963.963,0,0,1-.3.189l.211-.243c-.309.1-.1.165-.337.274-.041-.092-.2.024-.2-.064.053-.039.217-.066.287-.147a2.12,2.12,0,0,1-.742.211c.049.039.062.12-.12.23-.484.259-.223-.02-.531.081-.086.123-.431.221-.368.357a.348.348,0,0,1-.275.023c-.217.2-1.15.665-.793.648l.069-.026-.037.029c-.743.573-1.72.883-2.477,1.419l-.025-.044c-.128.093-.267.189-.406.284a1.5,1.5,0,0,0-.33-.273c-.019-.091-.013-.233.127-.069a15.791,15.791,0,0,0-1.131-1.467l-.288-.354-.183-.241-.2-.275a12.245,12.245,0,0,1-.7-1.07.618.618,0,0,1,.092,0c-.23-.288-.355-.255-.632-.779,0-.052.063-.043-.041-.2-.054-.054-.186-.182-.331-.345l-.055-.063c-.019-.021-.043-.064-.039,0l-.018.239a2.972,2.972,0,0,1-.053.373l-.012-.62a17.1,17.1,0,0,0-.229,2.533c-.008.368-.012.719-.007,1.019a6.056,6.056,0,0,1,.006.669c-.221-.026-.394.858-.466,1.3l-.03-.019a13.993,13.993,0,0,0-.047,2.318c-.515.465-.89.993-1.509,1.146-.167.271.541-.3.411-.028-.432.283-1,.426-1.128.527-.614.366-.366.6-.985,1.013.112-.012.282.058-.113.444-.409.313-.646.214-.428-.035.092-.084.149-.108.158-.089.113-.125.272-.278.069-.2l-.014.089c-.236.116-.775.582-.711.4-.262.3-.064.184.177.021-.563.361-.793.667-1.353,1.064.1-.045.228-.057.145.013-.805.606-.259.375-.745.854-.344.207-.053-.261-.5.287-.345.264-.18-.045-.093-.2-.372.537-.884.862-1.127,1.215.054-.117.11-.234.172-.34l-.307.526a1.907,1.907,0,0,1,.217-.128c-.139.169-.22.36-.266.329-.028.248.244-.078.169.39a1.228,1.228,0,0,0-.141.585c-.02.223.027.422-.04.5a3.684,3.684,0,0,1-.048-.462c-.011-.055-.035-.036-.061-.011s-.054.059-.076.022a.387.387,0,0,1-.026-.146,2.739,2.739,0,0,0-.005.476c-.01.048-.041-.038-.062-.121a2.539,2.539,0,0,0,.039.388,1.209,1.209,0,0,0,.1.234.439.439,0,0,0,.189.207,1.549,1.549,0,0,1,.232.151c.042.038.11.09.2.156s.179.12.288.181c-.162.013.131.274.278.3-.356-.167-.094-.2.23-.145.5.255.578.134.841.218l-.295-.116a2.028,2.028,0,0,1,.734.082c.014.076-.33-.031-.212.03.43-.06.826.367,1.389.4.233.12-.017.17.191.265.627.034.619.28,1.272.341-.153-.162-.191-.142.28-.147l-1.055-.172.707-.008c-.312-.079-.678-.089-.86-.155.34-.018.3,0,.175-.131.384.282.872.105,1.337.346l-.087.288a8.031,8.031,0,0,0,1.767.348c.04.258.055.54.111.779l-.144-.015a20.271,20.271,0,0,0,.008,2.21l-.107-.2c0,.565.434.7.456,1.22l-.211.162a13.6,13.6,0,0,0,.127,2.943c-.033-.014-.1-.04-.114-.2.019.462-.049,1.8.237,1.61-.191.023.049,1.013.169,1.535l-.147-.072a2.578,2.578,0,0,1,.362,1.062.169.169,0,0,1-.012.055l-.011.03c-.029.039-.073,0-.058-.145a1.014,1.014,0,0,0,.01.274c-.02.053-.042.11-.061.163l.023.466c-.029.1-.117.166-.114.051l-.026.063.223.02a.881.881,0,0,0,.043.187l.742.066a1.439,1.439,0,0,0-.019-.185l.318.028c0-.328-.1.039-.175-.156-.031-.252.059-.341.116-.185-.029-.115-.059-.249-.09-.39.086-.186.185-.336.255-.353a.849.849,0,0,1,.039-.656c.058-.024.055.087.054.144.339-.778.2-1.248.513-1.76a.124.124,0,0,0,.11-.068c-.207.637-.365,1.152-.362,1.1.125.038.3-.471.352-.008a5.307,5.307,0,0,1,.271-1.7.239.239,0,0,1,.064-.053l0,.057a1.01,1.01,0,0,0,.082-.323,3.343,3.343,0,0,0,.171-.4c.12-.026.253-.569.343-.823-.143-.024-.008-.352-.226-.076.023-.037,0,.054-.052.226a.789.789,0,0,0-.023.114l-.006-.022c-.053.169-.124.389-.2.64a1.141,1.141,0,0,1,.18-.714c-.043-.16-.084-.335-.1-.431.307-.287.635-.927.786-.98a9.388,9.388,0,0,0,.513-2.429c.046-.232.163-.228.232-.3a2.144,2.144,0,0,0-.067.37c.093-.466.442-1.319.306-1.487.255-.477.089.211.241-.23a.634.634,0,0,0,.231.066.159.159,0,0,0-.035-.026.354.354,0,0,1-.2-.041l.011-.03a.5.5,0,0,1,.185.071.63.63,0,0,1,.455-.034c.026.027-.013.048-.013.048.013-.048.455.043.236-.125.7.494,2.158.508,2.764.934.553.1,1.218.232,1.715.347-.039.021-.013.048-.1.015.661.259.489-.176,1.241.116.359.255-.434-.017-.2.1.029.347.949.187,1.426.5l-.132-.012a.861.861,0,0,0,.152.065c.088.026.182.05.279.07.2.042.4.074.607.1a9.688,9.688,0,0,1,1.287.23s0,.03.072.069a1.284,1.284,0,0,1,.178-.016h.157c.016,0,.052.013.014-.029l-.47-.685-.768-1.184c.259.2.263.33.331.182-.112-.182-.153-.148-.223-.159s-.162-.06-.339-.333c-.032-.2-.186-.593-.092-.71l.278.471c.018-.334-.357-.612-.472-.878l.086-.008c-.443-.714-.621-.623-1.062-1.409l0,.111c-.42-.324-.114-.412-.489-.76l.1-.23c-.2-.256-.748-.879-1.08-1.359a8.915,8.915,0,0,1,1,1.07,4.613,4.613,0,0,0-.745-1.026,1.219,1.219,0,0,1,.249.342,4.316,4.316,0,0,1-1-1.214c.394-.106-.787-1.478-.777-2.032a16.07,16.07,0,0,1-1.357-2.195c.031-.062.059-.128.091-.19a1.8,1.8,0,0,0,.183-.971l.186-.065.031-.618c.16-.834.84-1.249.953-2.337l-.143.1c.146-.354.331-1.166.423-1.068a.284.284,0,0,1,.035-.278l.08.014.165-.935c.278-.676.27.208.606-.8.091-.388.117-1.144.02-1.018-.052.151-.17.374-.251.361l.069-.356a1.319,1.319,0,0,1-.109-.084,4.361,4.361,0,0,1,1.571-.717c-.131.064-.287.205-.183.155l.91-.507c-.123-.071-.153-.005-.389.006a1.677,1.677,0,0,1,.567-.4c-.394.265.082.167.295.148-.046-.019,0-.083-.03-.11.583-.029-.014-.252.724-.424l-.011.072a4.63,4.63,0,0,1,.726-.424c.167.075-.246.178-.219.288.38-.178.659-.574,1.067-.587-.151.1-.391.2-.539.3a1.913,1.913,0,0,0,.768-.159l-.029.008.687-.2-.184.028c.359-.521.964-.474,1.551-.927-.57.443-.062.158-.057.32.185-.022.459-.072.4,0,.271-.232.557-.1.938-.434.036.04.337-.119.308.025.395-.187-.125-.046-.112-.118.575-.392,1.558-.306,2.4-.835.765-.34.867-.535,1.587-.838.273,0-.155.234-.155.234a3.47,3.47,0,0,0,1.09-.317c-.066.062.024.077.156.1.3-.093.158-.228.584-.264a1.073,1.073,0,0,1-.256.273c.35-.139.685-.322,1.049-.464C646.965,589.422,646.649,589.55,646.532,589.639Zm-22.561,29.09-.01-.025a.187.187,0,0,1,.046.09c-.038.176-.085.224-.12.239Zm1.757-18.553c.835.859,1,1.569,1.649,2.3a3.53,3.53,0,0,0,.659,1.337c-.025.036-.049.072-.075.116.17.114.009.688.014,1.031-.342.373-.122-.347-.346-.273.16.034-.128.818.053.716-.235.295-.16.269-.379.385.212.145-.076.327-.035.658-.294.443-.265.044-.391.6-.165.227-.073-.278-.073-.278-.2.542.078.319.137.471-.19.667-.241.252-.413.44-.1.422-.056.793-.175,1.092-.037.012-.07.067-.08-.016-.019.48-.463,1.274-.47,1.839a.156.156,0,0,1-.068.049.28.28,0,0,1,.271.012c-.087.245-.055.493-.2.543a.339.339,0,0,0,.006-.261l-.044.274c-.25.169.071-.37-.051-.415-.078.312-.139.661-.213.972a.424.424,0,0,0-.118.01c.012-.066-.006-.073-.092.043l-.008,0,.26-.532c-.422.358.149-.352-.277-.038-.082.189-.138.339-.18.471-.681-.28-1.446-.1-1.771-.507-.534-.08-1.047-.163-1.551-.248l-.033-.1.191-.268-.036-.349c-.011.139-.074.295-.119.274a2.568,2.568,0,0,1,.206-1.341l-.1-1.294c.047.023.068.153.091.289-.075-.485.182-.037.062-.625-.038.083-.092-.048-.123-.064a5.973,5.973,0,0,0,.113-1.558l.1.106c.062-.955.042-2.017.11-3.089-.076.381-.257.282-.254-.034l.173-.115c-.089-.21-.083.325-.181-.1.045-.4.206-.257.244-.024l-.025-.49c.051-.025.07.09.131.125-.091-.207.22-.828.068-1.129l.051-.023c.01-.128.018-.247.026-.361l.024-.008.042-.174-.058.048c0-.038,0-.075.007-.111a5.9,5.9,0,0,1,.516-.34c.286.035-.5.4-.2.395.7-.532,1.4-1.146,2.126-1.637a2.3,2.3,0,0,0,.243.261l-.044-.041.725.828C626.1,600.45,625.589,599.822,625.728,600.176Zm-3.216-.342,0-.036.1-.04C622.58,599.787,622.547,599.809,622.512,599.835Zm.1-2.748c.068-.328.145-.831.138-.812a.41.41,0,0,0-.078-.176.276.276,0,0,1-.092-.15c.12.1.137-.15.2.125l.007-.183c.006-.044-.008-.162.024-.107.048.039.094.055.248.18-.013-.111-.057-.213-.026-.247.08.076.134.286.088.33l-.02,0a.561.561,0,0,1,.151.146c.1.137.2.292.3.447.191.311.364.645.536.97.194.367.384.718.585,1.024-.106.03-.2.032-.184-.025a3.132,3.132,0,0,1-.9.594c.308-.3-.166.014.33-.289a2.648,2.648,0,0,0-1.04.713c.062-.147-.149-.053-.354.079.014-.3.029-.6.06-.972-.141-.03-.077-.368-.168-.639C622.462,597.771,622.54,597.438,622.609,597.087Zm-4.576,13.072c-.275-.1.184-.057.288-.072-.56-.089-1.089-.225-1.6-.353s-1.025-.235-1.492-.312c.009-.02.112-.012.212,0-.185-.042-.4-.156-.415-.051l.181.028c.122.114-.081.141-.32.132s-.508-.068-.542-.043c.214-.063-.008-.18-.112-.3a.266.266,0,0,1-.067-.182c.009-.048.07-.065.187-.062-.056-.047-.166-.1-.211-.052-.029-.125,0-.154.112-.1a1.649,1.649,0,0,1-.163-.287c-.034-.068-.063-.143.023-.388.049.019.021.125.077.182a1.152,1.152,0,0,1,.342-.957c.006.043.073.02-.016.139a6.939,6.939,0,0,1,1.639-1.921c-.082.361.309-.173.477-.062l.38-.4-.227.072a10.44,10.44,0,0,1,.959-.906l-.222.291c.222-.2.439-.409.666-.6-.15.084-.291.18-.437.269.311-.387-.2-.157.335-.519a4.766,4.766,0,0,1,.646-.365v0a2.011,2.011,0,0,1,.61-.582c.11-.009.071.212.143.207.081-.277.861-.723,1-1.031-.056.091,0,.173.038.17l.081-.22c.2-.1.242-.1.26-.017.529-.364-.242-.094.312-.414v.063a.4.4,0,0,1-.028.031l.028-.019c0,.068,0,.134,0,.2a29,29,0,0,0-.457,3.79c.048-.185.173.039.187.257-.056.286.124.8-.079.747l.008-.1c-.21.209-.182.8-.2,1.264l.266.084a8.854,8.854,0,0,0-.137,2.837A16.728,16.728,0,0,1,618.032,610.159Zm2.737.53c0,.037,0,.072,0,.107-.389-.071-.774-.143-1.152-.219C619.693,610.409,620.455,610.69,620.769,610.69Zm1.768,9.76c-.013-.07-.12.179-.209.33l.152-.471C622.539,620.284,622.574,620.341,622.537,620.449Zm.134-.759h0l.078-.269Zm1.415-4.957a.974.974,0,0,1-.1.947l-.115-.263c-.283.753.114.526-.287,1.277-.023-.166.146-.617.084-.51-.325.465-.023.4-.159.8l-.192.026c-.247.821-.434,1.753-.69,2.667-.033-.066-.035-.237-.153-.042-.113.459-.263.934-.423,1.407a4.05,4.05,0,0,1,.022-.583l.055.159c.016-.648-.349-.71-.244-1.317l.032.113a25.02,25.02,0,0,1-.009-4.028c-.225-.2.063-1.39-.235-1.474a10.285,10.285,0,0,0,.286-1.7.555.555,0,0,0-.014-.115c.045.032.094.063.135.1,0-.076.7.18.84.008l.4.234c.7.224.926-.008,1.528.119-.022.062-.047.129-.076.2a1.315,1.315,0,0,1-.2-.006l.186.048c-.017.042-.032.08-.052.127.026.208.155-.01.181.2C624.647,614.281,624.161,613.842,624.086,614.733Zm5.081-9.035.046-.1c.214.175.124.3.209.47.045-.06-.082-.283.047-.172a60.345,60.345,0,0,1,3.347,5.98c.395.732.646.172.977,1.191l-.293-.175a8.333,8.333,0,0,1,.683,1.012c.05.061-.044.012-.077.01s-.086-.02-.128-.027a1.04,1.04,0,0,0-.134-.01h-.039s-.088-.015-.128-.021l-.308-.047c.1-.014.12-.062.275-.023a2.254,2.254,0,0,0-1.278-.218c-.247-.072-.036-.1-.177-.189-.322-.153-.888-.058-1.039-.22-.026-.027.1-.015.169-.009-.235,0-1.026-.268-.848-.079-.584-.213-1.164-.222-1.623-.421-.351.076-1.01-.327-1.163-.135.1-.212-1.008-.439-1.414-.428.049-.013.026-.035-.016-.06.011-.035.023-.07.033-.106l.493.14c-.137-.046-.313-.1-.492-.141a9.657,9.657,0,0,1,1-3.149c-.065.107-.1.161-.134.174.616-1.318,1.018-2.782,1.537-4.165A4.321,4.321,0,0,1,629.167,605.7Zm1.744-9.528-.169.154.149-.495a.909.909,0,0,0-.157.671.419.419,0,0,0-.2.206l.025.643c-.111.04-.09-.314-.266.054.011.3.283-.192.2.274-.195.246-.251.136-.272.493-.073.027-.087-.055-.07-.193-.026.315-.228.781-.162.972-.225.247-.306.993-.508.891a2.669,2.669,0,0,1-.1.84c-.081-.576-.368.992-.594.767a2.524,2.524,0,0,1-.214,1.095c-.074-.1-.161-.188-.249-.092a1.309,1.309,0,0,1-.241-.381l.024.06-.024-.064h0l-.353-.883c-.046-.235.218.207.261.146-.35-.578-.045-.309-.221-.728-.043.138-.262-.109-.438-.454l.177.532c-.654-.7-.232-.824-.9-1.527l.248.2c-.184-.219-.495-.688-.815-1.094a1.046,1.046,0,0,0,.224-.158c-.1.082-.064.213-.051.17.627-.316,1.182-.812,2.071-1.4l-.08.124c.391-.148.966-.5,1.371-.689.082-.126.31-.241.127-.253a4.155,4.155,0,0,0,1.244-.5Z" transform="translate(-612.776 -588.544)" fill="rgba(255,255,255,0.2)" stroke="rgba(255,255,255,0.2)" stroke-linejoin="round" stroke-width="0.5"/>
      <path id="패스_55" data-name="패스 55" d="M634.511,646.676a.711.711,0,0,1,.014-.073c-.023.031-.045.06-.065.091l.022.075Z" transform="translate(-623.355 -616.791)" fill="rgba(255,255,255,0.2)" stroke="rgba(255,255,255,0.2)" stroke-linejoin="round" stroke-width="0.5"/>
      <path id="패스_56" data-name="패스 56" d="M643.685,603.061a.161.161,0,0,1,.054-.006.171.171,0,0,1-.032,0Z" transform="translate(-627.888 -595.391)" fill="rgba(255,255,255,0.2)" stroke="rgba(255,255,255,0.2)" stroke-linejoin="round" stroke-width="0.5"/>
      <path id="패스_57" data-name="패스 57" d="M655.232,598.347a.211.211,0,0,0-.09,0A.163.163,0,0,0,655.232,598.347Z" transform="translate(-633.518 -593.077)" fill="rgba(255,255,255,0.2)" stroke="rgba(255,255,255,0.2)" stroke-linejoin="round" stroke-width="0.5"/>
      <path id="패스_58" data-name="패스 58" d="M660.031,596.216l.373-.1C660.24,596.156,660.123,596.188,660.031,596.216Z" transform="translate(-635.92 -591.985)" fill="rgba(255,255,255,0.2)" stroke="rgba(255,255,255,0.2)" stroke-linejoin="round" stroke-width="0.5"/>
      <path id="패스_59" data-name="패스 59" d="M663.866,594.866a.154.154,0,0,0,.016-.071h0Z" transform="translate(-637.805 -591.334)" fill="rgba(255,255,255,0.2)" stroke="rgba(255,255,255,0.2)" stroke-linejoin="round" stroke-width="0.5"/>
      <path id="패스_60" data-name="패스 60" d="M617.856,629.033a.521.521,0,0,0,.075.014C618.113,629.066,617.99,629.047,617.856,629.033Z" transform="translate(-615.196 -608.158)" fill="rgba(255,255,255,0.2)" stroke="rgba(255,255,255,0.2)" stroke-linejoin="round" stroke-width="0.5"/>
      <path id="패스_61" data-name="패스 61" d="M624.129,617.075c-.066.085-.13.168-.206.248C624.067,617.224,624.175,617.142,624.129,617.075Z" transform="translate(-618.178 -602.282)" fill="rgba(255,255,255,0.2)" stroke="rgba(255,255,255,0.2)" stroke-linejoin="round" stroke-width="0.5"/>
      <path id="패스_62" data-name="패스 62" d="M623.576,617.563a2.246,2.246,0,0,0-.359.281A1.425,1.425,0,0,0,623.576,617.563Z" transform="translate(-617.831 -602.522)" fill="rgba(255,255,255,0.2)" stroke="rgba(255,255,255,0.2)" stroke-linejoin="round" stroke-width="0.5"/>
      <path id="패스_63" data-name="패스 63" d="M680.817,589.737a.025.025,0,0,1,.006-.025l-.1.045Z" transform="translate(-646.086 -588.836)" fill="rgba(255,255,255,0.2)" stroke="rgba(255,255,255,0.2)" stroke-linejoin="round" stroke-width="0.5"/>
      <path id="패스_64" data-name="패스 64" d="M681.027,589.628c-.05.011-.092.023-.1.043Z" transform="translate(-646.186 -588.795)" fill="rgba(255,255,255,0.2)" stroke="rgba(255,255,255,0.2)" stroke-linejoin="round" stroke-width="0.5"/>
      <path id="패스_65" data-name="패스 65" d="M681.346,589.458l-.219.086A.414.414,0,0,0,681.346,589.458Z" transform="translate(-646.287 -588.711)" fill="rgba(255,255,255,0.2)" stroke="rgba(255,255,255,0.2)" stroke-linejoin="round" stroke-width="0.5"/>
      <path id="패스_66" data-name="패스 66" d="M674.69,591.232l.013-.047c-.1.111-.622.055-.778.192A3.894,3.894,0,0,0,674.69,591.232Z" transform="translate(-642.748 -589.56)" fill="rgba(255,255,255,0.2)" stroke="rgba(255,255,255,0.2)" stroke-linejoin="round" stroke-width="0.5"/>
      <path id="패스_67" data-name="패스 67" d="M667.006,592.149l.681-.185c-.135-.014-.313-.033-.013-.147C666.778,591.942,667.887,591.873,667.006,592.149Z" transform="translate(-639.348 -589.87)" fill="rgba(255,255,255,0.2)" stroke="rgba(255,255,255,0.2)" stroke-linejoin="round" stroke-width="0.5"/>
      <path id="패스_68" data-name="패스 68" d="M662.734,593.695c.346-.155-.032-.074-.025-.109C662.5,593.716,662.454,593.75,662.734,593.695Z" transform="translate(-637.153 -590.739)" fill="rgba(255,255,255,0.2)" stroke="rgba(255,255,255,0.2)" stroke-linejoin="round" stroke-width="0.5"/>
      <path id="패스_69" data-name="패스 69" d="M635.192,607.728l-.039-.13C634.918,607.773,635.178,607.642,635.192,607.728Z" transform="translate(-623.648 -597.625)" fill="rgba(255,255,255,0.2)" stroke="rgba(255,255,255,0.2)" stroke-linejoin="round" stroke-width="0.5"/>
      <path id="패스_70" data-name="패스 70" d="M627.105,612.653l-.364.328.273-.237Z" transform="translate(-619.562 -600.109)" fill="rgba(255,255,255,0.2)" stroke="rgba(255,255,255,0.2)" stroke-linejoin="round" stroke-width="0.5"/>
      <path id="패스_71" data-name="패스 71" d="M643.923,637.531l-.047-.177C643.678,637.336,643.6,637.5,643.923,637.531Z" transform="translate(-627.897 -612.246)" fill="rgba(255,255,255,0.2)" stroke="rgba(255,255,255,0.2)" stroke-linejoin="round" stroke-width="0.5"/>
      <path id="패스_72" data-name="패스 72" d="M652.866,630.447c.121.227.2.479.281.581A.871.871,0,0,0,652.866,630.447Z" transform="translate(-632.4 -608.853)" fill="rgba(255,255,255,0.2)" stroke="rgba(255,255,255,0.2)" stroke-linejoin="round" stroke-width="0.5"/>
      <path id="패스_73" data-name="패스 73" d="M628.122,626.884l.014-.2-.048-.232Z" transform="translate(-620.225 -606.888)" fill="rgba(255,255,255,0.2)" stroke="rgba(255,255,255,0.2)" stroke-linejoin="round" stroke-width="0.5"/>
    </g>
    <g id="심볼_10_2" data-name="심볼 10 – 2" transform="translate(0.143 0.144)">
      <path id="패스_33-2" data-name="패스 33" d="M685.021,588.3l-.115.2.319-.119C685.294,588.319,685.229,588.229,685.021,588.3Z" transform="translate(-648.287 -588.273)" fill="#ffa400" stroke="#ffa400" stroke-linejoin="round" stroke-width="0.5"/>
      <path id="패스_34-2" data-name="패스 34" d="M682.26,588.526c-.087-.018-.021-.078-.01-.113-.232.136-.486.341-.289.455.209-.214.284-.161.507-.409.208-.068.382-.032.36.037.066-.06.337-.039.429-.168A1.474,1.474,0,0,0,682.26,588.526Z" transform="translate(-646.805 -588.289)" fill="#ffa400" stroke="#ffa400" stroke-linejoin="round" stroke-width="0.5"/>
      <path id="패스_35-2" data-name="패스 35" d="M621.833,617.58c.075-.068.1-.108.091-.124C621.859,617.525,621.807,617.583,621.833,617.58Z" transform="translate(-617.291 -602.613)" fill="#ffa400" stroke="#ffa400" stroke-linejoin="round" stroke-width="0.5"/>
      <path id="패스_36-2" data-name="패스 36" d="M618.2,620.225l.109-.079A.224.224,0,0,0,618.2,620.225Z" transform="translate(-615.509 -603.935)" fill="#ffa400" stroke="#ffa400" stroke-linejoin="round" stroke-width="0.5"/>
      <path id="패스_37-2" data-name="패스 37" d="M643.106,603.167l-.335.127C642.777,603.354,642.95,603.241,643.106,603.167Z" transform="translate(-627.582 -595.592)" fill="#ffa400" stroke="#ffa400" stroke-linejoin="round" stroke-width="0.5"/>
      <path id="패스_38-2" data-name="패스 38" d="M677.206,590.6a.8.8,0,0,0,.172-.091l-.168.062A.181.181,0,0,1,677.206,590.6Z" transform="translate(-644.503 -589.374)" fill="#ffa400" stroke="#ffa400" stroke-linejoin="round" stroke-width="0.5"/>
      <path id="패스_39-2" data-name="패스 39" d="M653.527,597.542l.1-.047a.566.566,0,0,0,.052-.1Z" transform="translate(-632.868 -592.755)" fill="#ffa400" stroke="#ffa400" stroke-linejoin="round" stroke-width="0.5"/>
      <path id="패스_40-2" data-name="패스 40" d="M661.536,594.165c-.1.032-.077.179-.09.251a.355.355,0,0,1,.169-.173A.153.153,0,0,0,661.536,594.165Z" transform="translate(-636.759 -591.168)" fill="#ffa400" stroke="#ffa400" stroke-linejoin="round" stroke-width="0.5"/>
      <path id="패스_41-2" data-name="패스 41" d="M675.008,590.079l.115-.055Z" transform="translate(-643.423 -589.133)" fill="#ffa400" stroke="#ffa400" stroke-linejoin="round" stroke-width="0.5"/>
      <path id="패스_42-2" data-name="패스 42" d="M645.432,610.163c.009.007.016,0,.024.008C645.451,610.143,645.444,610.131,645.432,610.163Z" transform="translate(-628.89 -599.02)" fill="#ffa400" stroke="#ffa400" stroke-linejoin="round" stroke-width="0.5"/>
      <path id="패스_43-2" data-name="패스 43" d="M649.924,600.969l-.014.071a.3.3,0,0,0,.072.038Z" transform="translate(-631.09 -594.512)" fill="#ffa400" stroke="#ffa400" stroke-linejoin="round" stroke-width="0.5"/>
      <path id="패스_44-2" data-name="패스 44" d="M612.919,627.477a.143.143,0,0,1,0-.029C612.906,627.282,612.9,627.376,612.919,627.477Z" transform="translate(-612.908 -607.479)" fill="#ffa400" stroke="#ffa400" stroke-linejoin="round" stroke-width="0.5"/>
      <path id="패스_45-2" data-name="패스 45" d="M642.973,614.235c.126.431-.518-.5-.285.123C642.7,614.276,643.194,614.73,642.973,614.235Z" transform="translate(-627.516 -600.982)" fill="#ffa400" stroke="#ffa400" stroke-linejoin="round" stroke-width="0.5"/>
      <path id="패스_46-2" data-name="패스 46" d="M676.807,590.714l-.176.047A1.007,1.007,0,0,0,676.807,590.714Z" transform="translate(-644.221 -589.473)" fill="#ffa400" stroke="#ffa400" stroke-linejoin="round" stroke-width="0.5"/>
      <path id="패스_47-2" data-name="패스 47" d="M631,634.559a.268.268,0,0,0-.079-.084C630.918,634.49,630.935,634.513,631,634.559Z" transform="translate(-621.758 -610.976)" fill="#ffa400" stroke="#ffa400" stroke-linejoin="round" stroke-width="0.5"/>
      <path id="패스_48-2" data-name="패스 48" d="M645.32,637.718c-.017-.015-.041-.03-.061-.045l-.12-.021Z" transform="translate(-628.746 -612.537)" fill="#ffa400" stroke="#ffa400" stroke-linejoin="round" stroke-width="0.5"/>
      <path id="패스_49-2" data-name="패스 49" d="M637.749,631.393a.56.56,0,0,1,.182-.122C637.815,631.292,637.975,630.751,637.749,631.393Z" transform="translate(-625.115 -609.306)" fill="#ffa400" stroke="#ffa400" stroke-linejoin="round" stroke-width="0.5"/>
      <path id="패스_50-2" data-name="패스 50" d="M677.07,590.541a.135.135,0,0,1-.093.088l.12-.039C677.1,590.567,677.1,590.546,677.07,590.541Z" transform="translate(-644.391 -589.387)" fill="#ffa400" stroke="#ffa400" stroke-linejoin="round" stroke-width="0.5"/>
      <path id="패스_51-2" data-name="패스 51" d="M643.621,635.039a1.288,1.288,0,0,0,.309.177.235.235,0,0,0,.077-.019Z" transform="translate(-628 -611.253)" fill="#ffa400" stroke="#ffa400" stroke-linejoin="round" stroke-width="0.5"/>
      <path id="패스_52-2" data-name="패스 52" d="M630.69,626.6c.006.037.013.079.024.13C630.705,626.686,630.7,626.642,630.69,626.6Z" transform="translate(-621.646 -607.105)" fill="#ffa400" stroke="#ffa400" stroke-linejoin="round" stroke-width="0.5"/>
      <path id="패스_53-2" data-name="패스 53" d="M613.062,626.666c.008-.085.016-.169.025-.236A.946.946,0,0,0,613.062,626.666Z" transform="translate(-612.984 -607.022)" fill="#ffa400" stroke="#ffa400" stroke-linejoin="round" stroke-width="0.5"/>
      <path id="패스_54-2" data-name="패스 54" d="M646.532,589.639a3.977,3.977,0,0,0,1.172-.522l-.284.017c.152-.047.107.093,0,.147-.336.2-.533.09-.566.048l.26-.1c-.347-.21-1.065.327-1.607.451l.17-.263-.507.315c-.131-.019-.244-.11.012-.216-.413.011-.319.172-.682.157-.041-.007-.027-.021,0-.039l-.358.172c.061-.065-.1-.125.135-.164-.711.083-1.042.475-1.343.4l.052-.029c-.909.364-.045.175-.683.576l-.586-.21-.042.178c-.1.026-.29.078-.275.008-.322.219.082.044-.092.208-.509.01-1.239.5-1.424.3-.123.171.465-.074.008.182-.229-.2-.545.249-1,.286.079-.175.5-.252.04-.214-.17.308-.829.248-1.159.436.051.178-.725.376-1.283.668a13.176,13.176,0,0,0-1.686.545l0-.036c-.027.218-.594.424-.976.642-.032-.109.021-.184.218-.325-.126.055-.252.111-.375.172a1.1,1.1,0,0,1-.4.315l.034-.172a10.209,10.209,0,0,1-1.6.848c.024.135.664.078.037.486-.056-.05-.134-.145.026-.26a.963.963,0,0,1-.3.189l.211-.243c-.309.1-.1.165-.337.274-.041-.092-.2.024-.2-.064.053-.039.217-.066.287-.147a2.12,2.12,0,0,1-.742.211c.049.039.062.12-.12.23-.484.259-.223-.02-.531.081-.086.123-.431.221-.368.357a.348.348,0,0,1-.275.023c-.217.2-1.15.665-.793.648l.069-.026-.037.029c-.743.573-1.72.883-2.477,1.419l-.025-.044c-.128.093-.267.189-.406.284a1.5,1.5,0,0,0-.33-.273c-.019-.091-.013-.233.127-.069a15.791,15.791,0,0,0-1.131-1.467l-.288-.354-.183-.241-.2-.275a12.245,12.245,0,0,1-.7-1.07.618.618,0,0,1,.092,0c-.23-.288-.355-.255-.632-.779,0-.052.063-.043-.041-.2-.054-.054-.186-.182-.331-.345l-.055-.063c-.019-.021-.043-.064-.039,0l-.018.239a2.972,2.972,0,0,1-.053.373l-.012-.62a17.1,17.1,0,0,0-.229,2.533c-.008.368-.012.719-.007,1.019a6.056,6.056,0,0,1,.006.669c-.221-.026-.394.858-.466,1.3l-.03-.019a13.993,13.993,0,0,0-.047,2.318c-.515.465-.89.993-1.509,1.146-.167.271.541-.3.411-.028-.432.283-1,.426-1.128.527-.614.366-.366.6-.985,1.013.112-.012.282.058-.113.444-.409.313-.646.214-.428-.035.092-.084.149-.108.158-.089.113-.125.272-.278.069-.2l-.014.089c-.236.116-.775.582-.711.4-.262.3-.064.184.177.021-.563.361-.793.667-1.353,1.064.1-.045.228-.057.145.013-.805.606-.259.375-.745.854-.344.207-.053-.261-.5.287-.345.264-.18-.045-.093-.2-.372.537-.884.862-1.127,1.215.054-.117.11-.234.172-.34l-.307.526a1.907,1.907,0,0,1,.217-.128c-.139.169-.22.36-.266.329-.028.248.244-.078.169.39a1.228,1.228,0,0,0-.141.585c-.02.223.027.422-.04.5a3.684,3.684,0,0,1-.048-.462c-.011-.055-.035-.036-.061-.011s-.054.059-.076.022a.387.387,0,0,1-.026-.146,2.739,2.739,0,0,0-.005.476c-.01.048-.041-.038-.062-.121a2.539,2.539,0,0,0,.039.388,1.209,1.209,0,0,0,.1.234.439.439,0,0,0,.189.207,1.549,1.549,0,0,1,.232.151c.042.038.11.09.2.156s.179.12.288.181c-.162.013.131.274.278.3-.356-.167-.094-.2.23-.145.5.255.578.134.841.218l-.295-.116a2.028,2.028,0,0,1,.734.082c.014.076-.33-.031-.212.03.43-.06.826.367,1.389.4.233.12-.017.17.191.265.627.034.619.28,1.272.341-.153-.162-.191-.142.28-.147l-1.055-.172.707-.008c-.312-.079-.678-.089-.86-.155.34-.018.3,0,.175-.131.384.282.872.105,1.337.346l-.087.288a8.031,8.031,0,0,0,1.767.348c.04.258.055.54.111.779l-.144-.015a20.271,20.271,0,0,0,.008,2.21l-.107-.2c0,.565.434.7.456,1.22l-.211.162a13.6,13.6,0,0,0,.127,2.943c-.033-.014-.1-.04-.114-.2.019.462-.049,1.8.237,1.61-.191.023.049,1.013.169,1.535l-.147-.072a2.578,2.578,0,0,1,.362,1.062.169.169,0,0,1-.012.055l-.011.03c-.029.039-.073,0-.058-.145a1.014,1.014,0,0,0,.01.274c-.02.053-.042.11-.061.163l.023.466c-.029.1-.117.166-.114.051l-.026.063.223.02a.881.881,0,0,0,.043.187l.742.066a1.439,1.439,0,0,0-.019-.185l.318.028c0-.328-.1.039-.175-.156-.031-.252.059-.341.116-.185-.029-.115-.059-.249-.09-.39.086-.186.185-.336.255-.353a.849.849,0,0,1,.039-.656c.058-.024.055.087.054.144.339-.778.2-1.248.513-1.76a.124.124,0,0,0,.11-.068c-.207.637-.365,1.152-.362,1.1.125.038.3-.471.352-.008a5.307,5.307,0,0,1,.271-1.7.239.239,0,0,1,.064-.053l0,.057a1.01,1.01,0,0,0,.082-.323,3.343,3.343,0,0,0,.171-.4c.12-.026.253-.569.343-.823-.143-.024-.008-.352-.226-.076.023-.037,0,.054-.052.226a.789.789,0,0,0-.023.114l-.006-.022c-.053.169-.124.389-.2.64a1.141,1.141,0,0,1,.18-.714c-.043-.16-.084-.335-.1-.431.307-.287.635-.927.786-.98a9.388,9.388,0,0,0,.513-2.429c.046-.232.163-.228.232-.3a2.144,2.144,0,0,0-.067.37c.093-.466.442-1.319.306-1.487.255-.477.089.211.241-.23a.634.634,0,0,0,.231.066.159.159,0,0,0-.035-.026.354.354,0,0,1-.2-.041l.011-.03a.5.5,0,0,1,.185.071.63.63,0,0,1,.455-.034c.026.027-.013.048-.013.048.013-.048.455.043.236-.125.7.494,2.158.508,2.764.934.553.1,1.218.232,1.715.347-.039.021-.013.048-.1.015.661.259.489-.176,1.241.116.359.255-.434-.017-.2.1.029.347.949.187,1.426.5l-.132-.012a.861.861,0,0,0,.152.065c.088.026.182.05.279.07.2.042.4.074.607.1a9.688,9.688,0,0,1,1.287.23s0,.03.072.069a1.284,1.284,0,0,1,.178-.016h.157c.016,0,.052.013.014-.029l-.47-.685-.768-1.184c.259.2.263.33.331.182-.112-.182-.153-.148-.223-.159s-.162-.06-.339-.333c-.032-.2-.186-.593-.092-.71l.278.471c.018-.334-.357-.612-.472-.878l.086-.008c-.443-.714-.621-.623-1.062-1.409l0,.111c-.42-.324-.114-.412-.489-.76l.1-.23c-.2-.256-.748-.879-1.08-1.359a8.915,8.915,0,0,1,1,1.07,4.613,4.613,0,0,0-.745-1.026,1.219,1.219,0,0,1,.249.342,4.316,4.316,0,0,1-1-1.214c.394-.106-.787-1.478-.777-2.032a16.07,16.07,0,0,1-1.357-2.195c.031-.062.059-.128.091-.19a1.8,1.8,0,0,0,.183-.971l.186-.065.031-.618c.16-.834.84-1.249.953-2.337l-.143.1c.146-.354.331-1.166.423-1.068a.284.284,0,0,1,.035-.278l.08.014.165-.935c.278-.676.27.208.606-.8.091-.388.117-1.144.02-1.018-.052.151-.17.374-.251.361l.069-.356a1.319,1.319,0,0,1-.109-.084,4.361,4.361,0,0,1,1.571-.717c-.131.064-.287.205-.183.155l.91-.507c-.123-.071-.153-.005-.389.006a1.677,1.677,0,0,1,.567-.4c-.394.265.082.167.295.148-.046-.019,0-.083-.03-.11.583-.029-.014-.252.724-.424l-.011.072a4.63,4.63,0,0,1,.726-.424c.167.075-.246.178-.219.288.38-.178.659-.574,1.067-.587-.151.1-.391.2-.539.3a1.913,1.913,0,0,0,.768-.159l-.029.008.687-.2-.184.028c.359-.521.964-.474,1.551-.927-.57.443-.062.158-.057.32.185-.022.459-.072.4,0,.271-.232.557-.1.938-.434.036.04.337-.119.308.025.395-.187-.125-.046-.112-.118.575-.392,1.558-.306,2.4-.835.765-.34.867-.535,1.587-.838.273,0-.155.234-.155.234a3.47,3.47,0,0,0,1.09-.317c-.066.062.024.077.156.1.3-.093.158-.228.584-.264a1.073,1.073,0,0,1-.256.273c.35-.139.685-.322,1.049-.464C646.965,589.422,646.649,589.55,646.532,589.639Zm-22.561,29.09-.01-.025a.187.187,0,0,1,.046.09c-.038.176-.085.224-.12.239Zm1.757-18.553c.835.859,1,1.569,1.649,2.3a3.53,3.53,0,0,0,.659,1.337c-.025.036-.049.072-.075.116.17.114.009.688.014,1.031-.342.373-.122-.347-.346-.273.16.034-.128.818.053.716-.235.295-.16.269-.379.385.212.145-.076.327-.035.658-.294.443-.265.044-.391.6-.165.227-.073-.278-.073-.278-.2.542.078.319.137.471-.19.667-.241.252-.413.44-.1.422-.056.793-.175,1.092-.037.012-.07.067-.08-.016-.019.48-.463,1.274-.47,1.839a.156.156,0,0,1-.068.049.28.28,0,0,1,.271.012c-.087.245-.055.493-.2.543a.339.339,0,0,0,.006-.261l-.044.274c-.25.169.071-.37-.051-.415-.078.312-.139.661-.213.972a.424.424,0,0,0-.118.01c.012-.066-.006-.073-.092.043l-.008,0,.26-.532c-.422.358.149-.352-.277-.038-.082.189-.138.339-.18.471-.681-.28-1.446-.1-1.771-.507-.534-.08-1.047-.163-1.551-.248l-.033-.1.191-.268-.036-.349c-.011.139-.074.295-.119.274a2.568,2.568,0,0,1,.206-1.341l-.1-1.294c.047.023.068.153.091.289-.075-.485.182-.037.062-.625-.038.083-.092-.048-.123-.064a5.973,5.973,0,0,0,.113-1.558l.1.106c.062-.955.042-2.017.11-3.089-.076.381-.257.282-.254-.034l.173-.115c-.089-.21-.083.325-.181-.1.045-.4.206-.257.244-.024l-.025-.49c.051-.025.07.09.131.125-.091-.207.22-.828.068-1.129l.051-.023c.01-.128.018-.247.026-.361l.024-.008.042-.174-.058.048c0-.038,0-.075.007-.111a5.9,5.9,0,0,1,.516-.34c.286.035-.5.4-.2.395.7-.532,1.4-1.146,2.126-1.637a2.3,2.3,0,0,0,.243.261l-.044-.041.725.828C626.1,600.45,625.589,599.822,625.728,600.176Zm-3.216-.342,0-.036.1-.04C622.58,599.787,622.547,599.809,622.512,599.835Zm.1-2.748c.068-.328.145-.831.138-.812a.41.41,0,0,0-.078-.176.276.276,0,0,1-.092-.15c.12.1.137-.15.2.125l.007-.183c.006-.044-.008-.162.024-.107.048.039.094.055.248.18-.013-.111-.057-.213-.026-.247.08.076.134.286.088.33l-.02,0a.561.561,0,0,1,.151.146c.1.137.2.292.3.447.191.311.364.645.536.97.194.367.384.718.585,1.024-.106.03-.2.032-.184-.025a3.132,3.132,0,0,1-.9.594c.308-.3-.166.014.33-.289a2.648,2.648,0,0,0-1.04.713c.062-.147-.149-.053-.354.079.014-.3.029-.6.06-.972-.141-.03-.077-.368-.168-.639C622.462,597.771,622.54,597.438,622.609,597.087Zm-4.576,13.072c-.275-.1.184-.057.288-.072-.56-.089-1.089-.225-1.6-.353s-1.025-.235-1.492-.312c.009-.02.112-.012.212,0-.185-.042-.4-.156-.415-.051l.181.028c.122.114-.081.141-.32.132s-.508-.068-.542-.043c.214-.063-.008-.18-.112-.3a.266.266,0,0,1-.067-.182c.009-.048.07-.065.187-.062-.056-.047-.166-.1-.211-.052-.029-.125,0-.154.112-.1a1.649,1.649,0,0,1-.163-.287c-.034-.068-.063-.143.023-.388.049.019.021.125.077.182a1.152,1.152,0,0,1,.342-.957c.006.043.073.02-.016.139a6.939,6.939,0,0,1,1.639-1.921c-.082.361.309-.173.477-.062l.38-.4-.227.072a10.44,10.44,0,0,1,.959-.906l-.222.291c.222-.2.439-.409.666-.6-.15.084-.291.18-.437.269.311-.387-.2-.157.335-.519a4.766,4.766,0,0,1,.646-.365v0a2.011,2.011,0,0,1,.61-.582c.11-.009.071.212.143.207.081-.277.861-.723,1-1.031-.056.091,0,.173.038.17l.081-.22c.2-.1.242-.1.26-.017.529-.364-.242-.094.312-.414v.063a.4.4,0,0,1-.028.031l.028-.019c0,.068,0,.134,0,.2a29,29,0,0,0-.457,3.79c.048-.185.173.039.187.257-.056.286.124.8-.079.747l.008-.1c-.21.209-.182.8-.2,1.264l.266.084a8.854,8.854,0,0,0-.137,2.837A16.728,16.728,0,0,1,618.032,610.159Zm2.737.53c0,.037,0,.072,0,.107-.389-.071-.774-.143-1.152-.219C619.693,610.409,620.455,610.69,620.769,610.69Zm1.768,9.76c-.013-.07-.12.179-.209.33l.152-.471C622.539,620.284,622.574,620.341,622.537,620.449Zm.134-.759h0l.078-.269Zm1.415-4.957a.974.974,0,0,1-.1.947l-.115-.263c-.283.753.114.526-.287,1.277-.023-.166.146-.617.084-.51-.325.465-.023.4-.159.8l-.192.026c-.247.821-.434,1.753-.69,2.667-.033-.066-.035-.237-.153-.042-.113.459-.263.934-.423,1.407a4.05,4.05,0,0,1,.022-.583l.055.159c.016-.648-.349-.71-.244-1.317l.032.113a25.02,25.02,0,0,1-.009-4.028c-.225-.2.063-1.39-.235-1.474a10.285,10.285,0,0,0,.286-1.7.555.555,0,0,0-.014-.115c.045.032.094.063.135.1,0-.076.7.18.84.008l.4.234c.7.224.926-.008,1.528.119-.022.062-.047.129-.076.2a1.315,1.315,0,0,1-.2-.006l.186.048c-.017.042-.032.08-.052.127.026.208.155-.01.181.2C624.647,614.281,624.161,613.842,624.086,614.733Zm5.081-9.035.046-.1c.214.175.124.3.209.47.045-.06-.082-.283.047-.172a60.345,60.345,0,0,1,3.347,5.98c.395.732.646.172.977,1.191l-.293-.175a8.333,8.333,0,0,1,.683,1.012c.05.061-.044.012-.077.01s-.086-.02-.128-.027a1.04,1.04,0,0,0-.134-.01h-.039s-.088-.015-.128-.021l-.308-.047c.1-.014.12-.062.275-.023a2.254,2.254,0,0,0-1.278-.218c-.247-.072-.036-.1-.177-.189-.322-.153-.888-.058-1.039-.22-.026-.027.1-.015.169-.009-.235,0-1.026-.268-.848-.079-.584-.213-1.164-.222-1.623-.421-.351.076-1.01-.327-1.163-.135.1-.212-1.008-.439-1.414-.428.049-.013.026-.035-.016-.06.011-.035.023-.07.033-.106l.493.14c-.137-.046-.313-.1-.492-.141a9.657,9.657,0,0,1,1-3.149c-.065.107-.1.161-.134.174.616-1.318,1.018-2.782,1.537-4.165A4.321,4.321,0,0,1,629.167,605.7Zm1.744-9.528-.169.154.149-.495a.909.909,0,0,0-.157.671.419.419,0,0,0-.2.206l.025.643c-.111.04-.09-.314-.266.054.011.3.283-.192.2.274-.195.246-.251.136-.272.493-.073.027-.087-.055-.07-.193-.026.315-.228.781-.162.972-.225.247-.306.993-.508.891a2.669,2.669,0,0,1-.1.84c-.081-.576-.368.992-.594.767a2.524,2.524,0,0,1-.214,1.095c-.074-.1-.161-.188-.249-.092a1.309,1.309,0,0,1-.241-.381l.024.06-.024-.064h0l-.353-.883c-.046-.235.218.207.261.146-.35-.578-.045-.309-.221-.728-.043.138-.262-.109-.438-.454l.177.532c-.654-.7-.232-.824-.9-1.527l.248.2c-.184-.219-.495-.688-.815-1.094a1.046,1.046,0,0,0,.224-.158c-.1.082-.064.213-.051.17.627-.316,1.182-.812,2.071-1.4l-.08.124c.391-.148.966-.5,1.371-.689.082-.126.31-.241.127-.253a4.155,4.155,0,0,0,1.244-.5Z" transform="translate(-612.919 -588.688)" fill="#ffa400" stroke="#ffa400" stroke-linejoin="round" stroke-width="0.5"/>
      <path id="패스_55-2" data-name="패스 55" d="M634.511,646.676a.711.711,0,0,1,.014-.073c-.023.031-.045.06-.065.091l.022.075Z" transform="translate(-623.499 -616.935)" fill="#ffa400" stroke="#ffa400" stroke-linejoin="round" stroke-width="0.5"/>
      <path id="패스_56-2" data-name="패스 56" d="M643.685,603.061a.161.161,0,0,1,.054-.006.171.171,0,0,1-.032,0Z" transform="translate(-628.031 -595.535)" fill="#ffa400" stroke="#ffa400" stroke-linejoin="round" stroke-width="0.5"/>
      <path id="패스_57-2" data-name="패스 57" d="M655.232,598.347a.211.211,0,0,0-.09,0A.163.163,0,0,0,655.232,598.347Z" transform="translate(-633.661 -593.221)" fill="#ffa400" stroke="#ffa400" stroke-linejoin="round" stroke-width="0.5"/>
      <path id="패스_58-2" data-name="패스 58" d="M660.031,596.216l.373-.1C660.24,596.156,660.123,596.188,660.031,596.216Z" transform="translate(-636.064 -592.129)" fill="#ffa400" stroke="#ffa400" stroke-linejoin="round" stroke-width="0.5"/>
      <path id="패스_59-2" data-name="패스 59" d="M663.866,594.866a.154.154,0,0,0,.016-.071h0Z" transform="translate(-637.948 -591.478)" fill="#ffa400" stroke="#ffa400" stroke-linejoin="round" stroke-width="0.5"/>
      <path id="패스_60-2" data-name="패스 60" d="M617.856,629.033a.521.521,0,0,0,.075.014C618.113,629.066,617.99,629.047,617.856,629.033Z" transform="translate(-615.34 -608.302)" fill="#ffa400" stroke="#ffa400" stroke-linejoin="round" stroke-width="0.5"/>
      <path id="패스_61-2" data-name="패스 61" d="M624.129,617.075c-.066.085-.13.168-.206.248C624.067,617.224,624.175,617.142,624.129,617.075Z" transform="translate(-618.321 -602.426)" fill="#ffa400" stroke="#ffa400" stroke-linejoin="round" stroke-width="0.5"/>
      <path id="패스_62-2" data-name="패스 62" d="M623.576,617.563a2.246,2.246,0,0,0-.359.281A1.425,1.425,0,0,0,623.576,617.563Z" transform="translate(-617.974 -602.666)" fill="#ffa400" stroke="#ffa400" stroke-linejoin="round" stroke-width="0.5"/>
      <path id="패스_63-2" data-name="패스 63" d="M680.817,589.737a.025.025,0,0,1,.006-.025l-.1.045Z" transform="translate(-646.23 -588.98)" fill="#ffa400" stroke="#ffa400" stroke-linejoin="round" stroke-width="0.5"/>
      <path id="패스_64-2" data-name="패스 64" d="M681.027,589.628c-.05.011-.092.023-.1.043Z" transform="translate(-646.33 -588.939)" fill="#ffa400" stroke="#ffa400" stroke-linejoin="round" stroke-width="0.5"/>
      <path id="패스_65-2" data-name="패스 65" d="M681.346,589.458l-.219.086A.414.414,0,0,0,681.346,589.458Z" transform="translate(-646.43 -588.855)" fill="#ffa400" stroke="#ffa400" stroke-linejoin="round" stroke-width="0.5"/>
      <path id="패스_66-2" data-name="패스 66" d="M674.69,591.232l.013-.047c-.1.111-.622.055-.778.192A3.894,3.894,0,0,0,674.69,591.232Z" transform="translate(-642.891 -589.704)" fill="#ffa400" stroke="#ffa400" stroke-linejoin="round" stroke-width="0.5"/>
      <path id="패스_67-2" data-name="패스 67" d="M667.006,592.149l.681-.185c-.135-.014-.313-.033-.013-.147C666.778,591.942,667.887,591.873,667.006,592.149Z" transform="translate(-639.491 -590.014)" fill="#ffa400" stroke="#ffa400" stroke-linejoin="round" stroke-width="0.5"/>
      <path id="패스_68-2" data-name="패스 68" d="M662.734,593.695c.346-.155-.032-.074-.025-.109C662.5,593.716,662.454,593.75,662.734,593.695Z" transform="translate(-637.296 -590.883)" fill="#ffa400" stroke="#ffa400" stroke-linejoin="round" stroke-width="0.5"/>
      <path id="패스_69-2" data-name="패스 69" d="M635.192,607.728l-.039-.13C634.918,607.773,635.178,607.642,635.192,607.728Z" transform="translate(-623.791 -597.769)" fill="#ffa400" stroke="#ffa400" stroke-linejoin="round" stroke-width="0.5"/>
      <path id="패스_70-2" data-name="패스 70" d="M627.105,612.653l-.364.328.273-.237Z" transform="translate(-619.705 -600.253)" fill="#ffa400" stroke="#ffa400" stroke-linejoin="round" stroke-width="0.5"/>
      <path id="패스_71-2" data-name="패스 71" d="M643.923,637.531l-.047-.177C643.678,637.336,643.6,637.5,643.923,637.531Z" transform="translate(-628.04 -612.39)" fill="#ffa400" stroke="#ffa400" stroke-linejoin="round" stroke-width="0.5"/>
      <path id="패스_72-2" data-name="패스 72" d="M652.866,630.447c.121.227.2.479.281.581A.871.871,0,0,0,652.866,630.447Z" transform="translate(-632.543 -608.997)" fill="#ffa400" stroke="#ffa400" stroke-linejoin="round" stroke-width="0.5"/>
      <path id="패스_73-2" data-name="패스 73" d="M628.122,626.884l.014-.2-.048-.232Z" transform="translate(-620.368 -607.032)" fill="#ffa400" stroke="#ffa400" stroke-linejoin="round" stroke-width="0.5"/>
    </g>
  </g>
</svg>
