<svg xmlns="http://www.w3.org/2000/svg" xmlns:xlink="http://www.w3.org/1999/xlink" width="71.875" height="71.875" viewBox="0 0 71.875 71.875">
  <defs>
    <filter id="패스_384" x="31.932" y="41.207" width="26.568" height="14.145" filterUnits="userSpaceOnUse">
      <feOffset dx="1" dy="1" input="SourceAlpha"/>
      <feGaussianBlur stdDeviation="0.5" result="blur"/>
      <feFlood flood-opacity="0.2"/>
      <feComposite operator="in" in2="blur"/>
      <feComposite in="SourceGraphic"/>
    </filter>
    <filter id="패스_385" x="15.852" y="40.044" width="29.198" height="16.774" filterUnits="userSpaceOnUse">
      <feOffset dx="1" dy="1" input="SourceAlpha"/>
      <feGaussianBlur stdDeviation="0.5" result="blur-2"/>
      <feFlood flood-opacity="0.2"/>
      <feComposite operator="in" in2="blur-2"/>
      <feComposite in="SourceGraphic"/>
    </filter>
    <filter id="패스_386" x="18.464" y="48.481" width="4.331" height="4.332" filterUnits="userSpaceOnUse">
      <feOffset dx="1" dy="1" input="SourceAlpha"/>
      <feGaussianBlur stdDeviation="0.5" result="blur-3"/>
      <feFlood flood-opacity="0.2"/>
      <feComposite operator="in" in2="blur-3"/>
      <feComposite in="SourceGraphic"/>
    </filter>
    <filter id="패스_387" x="24.575" y="24.665" width="29.04" height="18.62" filterUnits="userSpaceOnUse">
      <feOffset dx="1" dy="1" input="SourceAlpha"/>
      <feGaussianBlur stdDeviation="0.5" result="blur-4"/>
      <feFlood flood-opacity="0.2"/>
      <feComposite operator="in" in2="blur-4"/>
      <feComposite in="SourceGraphic"/>
    </filter>
    <filter id="패스_388" x="22.98" y="20.661" width="17.411" height="13.244" filterUnits="userSpaceOnUse">
      <feOffset dx="1" dy="1" input="SourceAlpha"/>
      <feGaussianBlur stdDeviation="0.5" result="blur-5"/>
      <feFlood flood-opacity="0.2"/>
      <feComposite operator="in" in2="blur-5"/>
      <feComposite in="SourceGraphic"/>
    </filter>
    <filter id="패스_389" x="28.115" y="23.063" width="8.357" height="13.814" filterUnits="userSpaceOnUse">
      <feOffset dx="1" dy="1" input="SourceAlpha"/>
      <feGaussianBlur stdDeviation="0.5" result="blur-6"/>
      <feFlood flood-opacity="0.2"/>
      <feComposite operator="in" in2="blur-6"/>
      <feComposite in="SourceGraphic"/>
    </filter>
    <filter id="패스_390" x="40.13" y="27.068" width="8.357" height="13.813" filterUnits="userSpaceOnUse">
      <feOffset dx="1" dy="1" input="SourceAlpha"/>
      <feGaussianBlur stdDeviation="0.5" result="blur-7"/>
      <feFlood flood-opacity="0.2"/>
      <feComposite operator="in" in2="blur-7"/>
      <feComposite in="SourceGraphic"/>
    </filter>
    <filter id="패스_391" x="42.204" y="18.195" width="4.202" height="7.379" filterUnits="userSpaceOnUse">
      <feOffset dx="1" dy="1" input="SourceAlpha"/>
      <feGaussianBlur stdDeviation="0.5" result="blur-8"/>
      <feFlood flood-opacity="0.2"/>
      <feComposite operator="in" in2="blur-8"/>
      <feComposite in="SourceGraphic"/>
    </filter>
    <filter id="패스_392" x="46.21" y="18.921" width="4.201" height="7.378" filterUnits="userSpaceOnUse">
      <feOffset dx="1" dy="1" input="SourceAlpha"/>
      <feGaussianBlur stdDeviation="0.5" result="blur-9"/>
      <feFlood flood-opacity="0.2"/>
      <feComposite operator="in" in2="blur-9"/>
      <feComposite in="SourceGraphic"/>
    </filter>
    <filter id="패스_393" x="30.193" y="14.29" width="4.2" height="7.38" filterUnits="userSpaceOnUse">
      <feOffset dx="1" dy="1" input="SourceAlpha"/>
      <feGaussianBlur stdDeviation="0.5" result="blur-10"/>
      <feFlood flood-opacity="0.2"/>
      <feComposite operator="in" in2="blur-10"/>
      <feComposite in="SourceGraphic"/>
    </filter>
    <filter id="패스_394" x="26.187" y="15.016" width="4.202" height="7.38" filterUnits="userSpaceOnUse">
      <feOffset dx="1" dy="1" input="SourceAlpha"/>
      <feGaussianBlur stdDeviation="0.5" result="blur-11"/>
      <feFlood flood-opacity="0.2"/>
      <feComposite operator="in" in2="blur-11"/>
      <feComposite in="SourceGraphic"/>
    </filter>
    <filter id="패스_395" x="34.198" y="15.743" width="4.202" height="7.378" filterUnits="userSpaceOnUse">
      <feOffset dx="1" dy="1" input="SourceAlpha"/>
      <feGaussianBlur stdDeviation="0.5" result="blur-12"/>
      <feFlood flood-opacity="0.2"/>
      <feComposite operator="in" in2="blur-12"/>
      <feComposite in="SourceGraphic"/>
    </filter>
  </defs>
  <g id="그룹_293" data-name="그룹 293" transform="translate(-672 -204.114)">
    <circle id="타원_17" data-name="타원 17" cx="35.937" cy="35.937" r="35.937" transform="translate(672 204.114)" fill="#2e415e" opacity="0.8"/>
    <g id="그룹_288" data-name="그룹 288" transform="translate(2.5 -69.507)">
      <g transform="matrix(1, 0, 0, 1, 669.5, 273.62)" filter="url(#패스_384)">
        <path id="패스_384-2" data-name="패스 384" d="M1181.623,772.654a1.553,1.553,0,0,0-1.364-.294,2.5,2.5,0,0,0-.508-1.418,2.279,2.279,0,0,0-1.854-.823,10.112,10.112,0,0,0-3.1.882,34.374,34.374,0,0,1-4.787,1.534,2.917,2.917,0,0,0-1.971-.744c-5.474.065-6.394-.482-7.461-1.116a9.8,9.8,0,0,0-.929-.5.6.6,0,1,0-.5,1.091,8.382,8.382,0,0,1,.821.447c1.224.726,2.285,1.352,8.109,1.283a1.685,1.685,0,0,1,1.135.434,2,2,0,0,1,.415,1.578c-.011.177-.047.716-1.132,1.133-1.113.429-3.566.787-8.93.068a.6.6,0,1,0-.159,1.19,41.769,41.769,0,0,0,5.433.421,11.98,11.98,0,0,0,4.02-.537,44.277,44.277,0,0,0,9.37-2.929c1.219-.511,2.37-.994,2.624-.779.291.247.317.432.312.552-.023.465-.646,1.039-.973,1.268a27.832,27.832,0,0,1-9.039,4.7.6.6,0,0,0,.177,1.174.619.619,0,0,0,.177-.026,28.923,28.923,0,0,0,9.4-4.879,3.335,3.335,0,0,0,1.462-2.171A1.84,1.84,0,0,0,1181.623,772.654Zm-3.865.587a44.847,44.847,0,0,1-7.064,2.4,2.031,2.031,0,0,0,.126-.557,3.977,3.977,0,0,0-.15-1.465,36.141,36.141,0,0,0,4.556-1.5,9.639,9.639,0,0,1,2.687-.8,1.108,1.108,0,0,1,.9.374,1.43,1.43,0,0,1,.261,1.008C1178.685,772.853,1178.249,773.035,1177.757,773.242Z" transform="translate(-1126.36 -728.41)" fill="#fff"/>
      </g>
      <g transform="matrix(1, 0, 0, 1, 669.5, 273.62)" filter="url(#패스_385)">
        <path id="패스_385-2" data-name="패스 385" d="M1142.233,778.961a40.119,40.119,0,0,1-17.665-.687,1.694,1.694,0,0,1-1.258-1.646v-1.915a.6.6,0,0,0-1.2,0v3.112a.5.5,0,0,1-.5.5h-3.16a.5.5,0,0,1-.5-.5v-9.051a.5.5,0,0,1,.5-.495h3.16a.5.5,0,0,1,.5.495v2.735a.6.6,0,0,0,1.2,0v-1.525c0-.006,0-.011,0-.018a1.7,1.7,0,0,1,1.733-1.687,47.956,47.956,0,0,1,5.138.352.6.6,0,0,0,.163-1.191,49.289,49.289,0,0,0-5.27-.361,2.839,2.839,0,0,0-2.04.781,1.692,1.692,0,0,0-1.424-.783h-3.16a1.7,1.7,0,0,0-1.7,1.7v9.051a1.7,1.7,0,0,0,1.7,1.7h3.16a1.7,1.7,0,0,0,1.417-.77,2.875,2.875,0,0,0,1.232.681,43.429,43.429,0,0,0,10.885,1.416,36.864,36.864,0,0,0,7.325-.713.6.6,0,0,0-.239-1.178Z" transform="translate(-1100.4 -726.53)" fill="#fff"/>
      </g>
      <g transform="matrix(1, 0, 0, 1, 669.5, 273.62)" filter="url(#패스_386)">
        <path id="패스_386-2" data-name="패스 386" d="M1123.584,789.8a.666.666,0,1,0,.665-.666A.666.666,0,0,0,1123.584,789.8Z" transform="translate(-1104.62 -740.15)" fill="#fff"/>
      </g>
      <g transform="matrix(1, 0, 0, 1, 669.5, 273.62)" filter="url(#패스_387)">
        <path id="패스_387-2" data-name="패스 387" d="M1149.98,734.684a7.856,7.856,0,0,0,.074,1.02,6.6,6.6,0,0,1-9.427-.879.6.6,0,0,0-.936.754,7.792,7.792,0,0,0,10.641,1.431,7.81,7.81,0,0,0,15.265-2.325,7.938,7.938,0,0,0-.1-1.278.6.6,0,0,0-1.186.2,6.726,6.726,0,0,1,.088,1.083,6.608,6.608,0,1,1-1.3-3.933.6.6,0,0,0,.965-.716,7.81,7.81,0,0,0-14.085,4.65Z" transform="translate(-1114.48 -701.71)" fill="#fff"/>
      </g>
      <g transform="matrix(1, 0, 0, 1, 669.5, 273.62)" filter="url(#패스_388)">
        <path id="패스_388-2" data-name="패스 388" d="M1136.226,726.65a.561.561,0,0,0,.153-.021.6.6,0,0,0,.428-.732,6.61,6.61,0,0,1,11.893-5.345.6.6,0,1,0,1-.668,7.812,7.812,0,0,0-14.055,6.317A.6.6,0,0,0,1136.226,726.65Z" transform="translate(-1111.91 -695.25)" fill="#fff"/>
      </g>
      <g transform="matrix(1, 0, 0, 1, 669.5, 273.62)" filter="url(#패스_389)">
        <path id="패스_389-2" data-name="패스 389" d="M1151.487,722.686a.6.6,0,0,0-.6.6v.5a2.534,2.534,0,0,0-2.074,2.416,2.4,2.4,0,0,0,2.675,2.486c.983,0,1.481.433,1.481,1.284a1.389,1.389,0,0,1-1.474,1.283,1.485,1.485,0,0,1-1.384-.844.6.6,0,1,0-1.107.466,2.6,2.6,0,0,0,1.883,1.509v.506a.6.6,0,1,0,1.2,0v-.5a2.534,2.534,0,0,0,2.081-2.418,2.4,2.4,0,0,0-2.682-2.486c-.978,0-1.473-.432-1.473-1.284a1.389,1.389,0,0,1,1.473-1.283,1.486,1.486,0,0,1,1.385.844.6.6,0,1,0,1.108-.466,2.6,2.6,0,0,0-1.891-1.51v-.5A.6.6,0,0,0,1151.487,722.686Z" transform="translate(-1120.2 -699.12)" fill="#fff"/>
      </g>
      <g transform="matrix(1, 0, 0, 1, 669.5, 273.62)" filter="url(#패스_390)">
        <path id="패스_390-2" data-name="패스 390" d="M1182.9,743.969a.6.6,0,0,0,.6-.6v-.5a2.536,2.536,0,0,0,2.081-2.42,2.4,2.4,0,0,0-2.682-2.484c-.978,0-1.473-.432-1.473-1.284a1.39,1.39,0,0,1,1.473-1.284,1.484,1.484,0,0,1,1.384.844.6.6,0,0,0,1.108-.465,2.607,2.607,0,0,0-1.892-1.512v-.505a.6.6,0,0,0-1.2,0v.505a2.534,2.534,0,0,0-2.074,2.417,2.4,2.4,0,0,0,2.675,2.486c.982,0,1.48.431,1.48,1.283a1.39,1.39,0,0,1-1.473,1.284,1.485,1.485,0,0,1-1.384-.844.6.6,0,1,0-1.107.464,2.6,2.6,0,0,0,1.884,1.51v.506A.6.6,0,0,0,1182.9,743.969Z" transform="translate(-1139.59 -705.59)" fill="#fff"/>
      </g>
      <g transform="matrix(1, 0, 0, 1, 669.5, 273.62)" filter="url(#패스_391)">
        <path id="패스_391-2" data-name="패스 391" d="M1186.247,714.34a.6.6,0,0,0,.6-.6v-3.178a.6.6,0,0,0-1.2,0v3.178A.6.6,0,0,0,1186.247,714.34Z" transform="translate(-1142.94 -691.27)" fill="#fff"/>
      </g>
      <g transform="matrix(1, 0, 0, 1, 669.5, 273.62)" filter="url(#패스_392)">
        <path id="패스_392-2" data-name="패스 392" d="M1196.718,716.237a.6.6,0,0,0,.6-.6v-3.178a.6.6,0,0,0-1.2,0v3.178A.6.6,0,0,0,1196.718,716.237Z" transform="translate(-1149.41 -692.44)" fill="#fff"/>
      </g>
      <g transform="matrix(1, 0, 0, 1, 669.5, 273.62)" filter="url(#패스_393)">
        <path id="패스_393-2" data-name="패스 393" d="M1154.845,704.131a.6.6,0,0,0,.6-.6v-3.177a.6.6,0,1,0-1.2,0v3.177A.6.6,0,0,0,1154.845,704.131Z" transform="translate(-1123.55 -684.96)" fill="#fff"/>
      </g>
      <g transform="matrix(1, 0, 0, 1, 669.5, 273.62)" filter="url(#패스_394)">
        <path id="패스_394-2" data-name="패스 394" d="M1144.374,706.029a.6.6,0,0,0,.6-.6v-3.178a.6.6,0,1,0-1.2,0v3.178A.6.6,0,0,0,1144.374,706.029Z" transform="translate(-1117.09 -686.13)" fill="#fff"/>
      </g>
      <g transform="matrix(1, 0, 0, 1, 669.5, 273.62)" filter="url(#패스_395)">
        <path id="패스_395-2" data-name="패스 395" d="M1165.315,707.929a.6.6,0,0,0,.6-.6v-3.178a.6.6,0,0,0-1.2,0v3.178A.6.6,0,0,0,1165.315,707.929Z" transform="translate(-1130.02 -687.31)" fill="#fff"/>
      </g>
    </g>
  </g>
</svg>
