<svg xmlns="http://www.w3.org/2000/svg" width="115" height="101.155" viewBox="0 0 115 101.155">
  <g id="그룹_267" data-name="그룹 267" transform="translate(-1088.582 -778.08)" opacity="0.12">
    <path id="패스_363" data-name="패스 363" d="M1203.395,816.169a6.919,6.919,0,0,0-4.378-4.378,3.641,3.641,0,0,0-3.737.883l-3.973,3.974-.631-.191a1.308,1.308,0,0,0-1.3.326l-3.208,3.208V788.467a10.4,10.4,0,0,0-10.387-10.387H1152.3a1.3,1.3,0,0,0,0,2.609h16.6a10.377,10.377,0,0,0-3.429,6.474H1091.3a7.788,7.788,0,0,1,7.669-6.474h46.374a1.3,1.3,0,1,0,0-2.609h-46.374a10.4,10.4,0,0,0-10.387,10.387,1.3,1.3,0,0,0,1.3,1.3h76.81a1.3,1.3,0,0,0,1.3-1.3v0a7.779,7.779,0,0,1,15.557,0V822.6L1153.8,852.353c-.026.028-.036.063-.06.09a1.264,1.264,0,0,0-.2.27L1147.5,865.4a3.992,3.992,0,0,1-1.229-.8,6.692,6.692,0,0,0-9.444,0,1.3,1.3,0,1,0,1.844,1.843h0a4.073,4.073,0,0,1,5.754,0,6.827,6.827,0,0,0,3.508,1.835,1.135,1.135,0,0,0,.248.025h0a1.29,1.29,0,0,0,.509-.116c.016-.007.035,0,.051-.011l13.729-6.547a1.161,1.161,0,0,0,.263-.189.955.955,0,0,0,.1-.065l35.573-35.572a1.306,1.306,0,0,0,.326-1.3l-.191-.632,3.974-3.972A3.644,3.644,0,0,0,1203.395,816.169Zm-52.453,48.075,4.479-9.4,2.4.724a2.669,2.669,0,0,1,1.786,1.79h0l.725,2.4ZM1162.526,858l-.42-1.389a5.271,5.271,0,0,0-3.53-3.53l-1.389-.419,10.382-10.382,2.726.826a2.664,2.664,0,0,1,1.787,1.79l.826,2.726ZM1175,845.524l-.419-1.388a5.27,5.27,0,0,0-3.531-3.532l-1.39-.419,21.005-21.007,2.726.826a2.671,2.671,0,0,1,1.788,1.79l.826,2.726Zm25.667-27.46-2.985,2.983v-.011a5.263,5.263,0,0,0-3.53-3.529h-.011l2.984-2.984a1.05,1.05,0,0,1,1.074-.255,4.31,4.31,0,0,1,2.726,2.726,1.054,1.054,0,0,1-.259,1.069Z" fill="#fff"/>
    <path id="패스_364" data-name="패스 364" d="M1176.864,806.055a1.3,1.3,0,0,0-1.3-1.3h-44.946a1.3,1.3,0,0,0,0,2.608h44.946a1.3,1.3,0,0,0,1.3-1.3Z" transform="translate(-7.085 -0.51)" fill="#fff"/>
    <path id="패스_365" data-name="패스 365" d="M1164.607,817.732a1.305,1.305,0,0,0,0,2.61h13.606a1.305,1.305,0,1,0,0-2.61Z" transform="translate(-9.726 -2.768)" fill="#fff"/>
    <path id="패스_366" data-name="패스 366" d="M1117.719,817.732a1.305,1.305,0,0,0,0,2.61h32.663a1.305,1.305,0,0,0,0-2.61Z" transform="translate(-4.843 -2.768)" fill="#fff"/>
    <path id="패스_367" data-name="패스 367" d="M1117.718,833.322H1164.6a1.3,1.3,0,1,0,0-2.609h-46.884a1.3,1.3,0,0,0,0,2.609Z" transform="translate(-4.842 -5.026)" fill="#fff"/>
    <path id="패스_368" data-name="패스 368" d="M1117.711,846.3h36.773a1.3,1.3,0,0,0,.065-2.606h-36.838a1.3,1.3,0,1,0-.066,2.606Z" transform="translate(-4.835 -7.285)" fill="#fff"/>
    <path id="패스_368-2" data-name="패스 368" d="M1117.711,846.3h23.426a1.3,1.3,0,0,0,.065-2.606h-23.491a1.3,1.3,0,1,0-.066,2.606Z" transform="translate(-4.835 3.454)" fill="#fff"/>
    <path id="패스_369" data-name="패스 369" d="M1189.46,859.6a1.306,1.306,0,0,0-1.305,1.305v26.423h-71.829a1.3,1.3,0,0,0,0,2.609h73.136a1.306,1.306,0,0,0,1.3-1.305V860.908a1.3,1.3,0,0,0-1.3-1.309Z" transform="translate(-4.6 -10.702)" fill="#fff"/>
    <path id="패스_370" data-name="패스 370" d="M1102.186,852.8V798.872a1.351,1.351,0,0,0-1.085-1.356,1.306,1.306,0,0,0-1.523,1.285v54a1.3,1.3,0,0,0,1.3,1.3h0A1.3,1.3,0,0,0,1102.186,852.8Z" transform="translate(-1.913 -3.378)" fill="#fff"/>
  </g>
</svg>
