<svg xmlns="http://www.w3.org/2000/svg" xmlns:xlink="http://www.w3.org/1999/xlink" width="54.779" height="42.712" viewBox="0 0 54.779 42.712">
  <defs>
    <linearGradient id="linear-gradient" x1="0.5" y1="-0.043" x2="0.5" y2="0.949" gradientUnits="objectBoundingBox">
      <stop offset="0" stop-color="#fff"/>
      <stop offset="1" stop-color="#feca6f"/>
    </linearGradient>
  </defs>
  <g id="그룹_1706" data-name="그룹 1706" transform="translate(-1101.489 -1018.6)">
    <path id="패스_1158" data-name="패스 1158" d="M1168.348,413.138,1140.96,393.7h7.317V370.426h39.234V393.7h8.228Z" transform="translate(-39.472 648.174)" fill="url(#linear-gradient)"/>
    <path id="패스_1159" data-name="패스 1159" d="M-11.82-2.04A2.7,2.7,0,0,0-8.892.588,2.9,2.9,0,0,0-5.964-2.52C-5.964-4.548-7.2-5.6-8.652-5.6a2.1,2.1,0,0,0-1.656.624l.132-2.376H-6.42V-8.484h-4.752c-.252,0-.324.072-.324.324l-.132,4.644c0,.228.072.324.324.324h.72c.252,0,.288-.192.324-.324a1.393,1.393,0,0,1,1.4-.984c.9,0,1.524.6,1.524,1.992,0,1.3-.636,1.98-1.548,1.98-.864,0-1.416-.456-1.6-1.512Zm9.972,1.5c-1.476,0-1.6-2.28-1.6-3.576s.12-3.6,1.6-3.6,1.668,2.3,1.668,3.6S-.36-.54-1.848-.54ZM.624-.912a7.588,7.588,0,0,0,.588-3.2c0-2.208-.54-4.74-3.06-4.74s-2.988,2.532-2.988,4.74S-4.344.612-1.848.612A2.554,2.554,0,0,0,.624-.912ZM10.068-8.76H8.748L3.936.384h1.32ZM6.024-4.428a2.872,2.872,0,0,0,.528-1.7,2.237,2.237,0,0,0-2.1-2.484,2.237,2.237,0,0,0-2.1,2.484,2.216,2.216,0,0,0,2.1,2.46A1.957,1.957,0,0,0,6.024-4.428ZM11.112-.312a2.794,2.794,0,0,0,.552-1.716,2.248,2.248,0,0,0-2.112-2.46,2.215,2.215,0,0,0-2.088,2.46A2.236,2.236,0,0,0,9.552.456,1.894,1.894,0,0,0,11.112-.312ZM4.836-4.764a.622.622,0,0,1-.4.12c-.624,0-.816-.7-.816-1.476,0-.8.192-1.524.816-1.524s.852.744.852,1.524A1.665,1.665,0,0,1,4.836-4.764Zm5.1,4.1a.622.622,0,0,1-.4.12c-.612,0-.8-.7-.8-1.476s.192-1.5.8-1.5.864.72.864,1.5A1.668,1.668,0,0,1,9.936-.66ZM-3.732,6.3h-6.276V7.28h6.276Zm-.54,3.516A1,1,0,0,0-4.08,9.2c0-.852-1.008-1.536-2.8-1.536-1.824,0-2.8.684-2.8,1.536s1.008,1.56,2.8,1.56A3.013,3.013,0,0,0-4.272,9.812Zm-1.6-.108a2.9,2.9,0,0,1-1.008.144c-.864,0-1.4-.192-1.4-.636,0-.42.54-.684,1.4-.684.828,0,1.4.264,1.4.684C-5.472,9.44-5.6,9.6-5.868,9.7Zm4.332-1.212h1.4V7.328h-1.4V4.868H-2.892v6.108h1.356Zm.252,6.048H-7.092v-.648H-1.86c.24,0,.336-.084.336-.336V11.72a.294.294,0,0,0-.336-.336H-8.544v1h5.58v.612H-8.208c-.252,0-.336.1-.336.336V15.2c0,.252.084.336.336.336h6.924ZM-5.22,4.8H-8.568v.972H-5.22ZM5.76,9.884a2.9,2.9,0,0,0,.768-2.016A2.925,2.925,0,0,0,5.76,5.852a2.774,2.774,0,0,0-2.1-.84,2.821,2.821,0,0,0-2.112.84A2.841,2.841,0,0,0,.792,7.868a2.894,2.894,0,0,0,.756,2.016,2.784,2.784,0,0,0,2.112.852A2.814,2.814,0,0,0,5.76,9.884Zm-2.1-.3a1.338,1.338,0,0,1-1.116-.5,1.91,1.91,0,0,1-.4-1.212,1.523,1.523,0,1,1,3.024,0,1.91,1.91,0,0,1-.4,1.212A1.338,1.338,0,0,1,3.66,9.584ZM9.54,4.868H8.2v7.92H9.54Zm.252,9.384H3.684V11.8H2.316v3.264c0,.252.072.336.324.336H9.792Z" transform="translate(1127.915 1032.962)" fill="#15376c"/>
  </g>
</svg>
