<?xml version="1.0" encoding="utf-8"?>
<!-- Generator: Adobe Illustrator 23.1.1, SVG Export Plug-In . SVG Version: 6.00 Build 0)  -->
<svg version="1.1" id="Layer_1" xmlns="http://www.w3.org/2000/svg" xmlns:xlink="http://www.w3.org/1999/xlink" x="0px" y="0px"
	 viewBox="0 0 100 100" style="enable-background:new 0 0 100 100;" xml:space="preserve">
<style type="text/css">
	.st0{fill:#FCE917;}
	.st1{fill:#332D2C;}
</style>
<title>icon1-naver-kakeo</title>
<g id="bg">
	<path class="st0" d="M0,13v74c0,7.2,5.8,13,13,13h74c7.2,0,13-5.8,13-13V13c0-7.2-5.8-13-13-13H13C5.8,0,0,5.8,0,13z"/>
</g>
<g id="Shape_5_copy">
	<path class="st1" d="M58.9,31.8c0.6,0,0.7-0.5,0.7-1.1v-0.3c0-0.6-0.1-1.1-0.7-1.1s-0.7,0.5-0.7,1.1v0.3
		C58.2,31.3,58.3,31.8,58.9,31.8z M55.1,29.5c0-0.1-0.1-0.4-0.4-0.4c-0.2,0-0.4,0.2-0.4,0.4c0,0.2-0.2,1.6-0.2,1.6h1.2
		C55.3,31.1,55.1,29.6,55.1,29.5L55.1,29.5z M49.9,15.8C29.4,16,12.7,29.2,12.7,45.4c0,10.1,6.5,19,16.4,24.2
		c-0.4,4.6-6.8,12.3-7.1,12.5s-1.5,1.4-0.2,1.6S37.6,78.5,43,74c2.3,0.3,4.6,0.5,6.9,0.5c20.6-0.1,37.2-13.4,37.2-29.5
		S70.4,15.7,49.9,15.8z M57,30.3c-0.2-0.9,0.4-1.8,1.4-2c0.2,0,0.4,0,0.6,0c1.1,0,1.8,0.4,1.8,2v0.6c0,1.5-0.7,2-1.8,2s-2-0.3-2-2
		V30.3z M53.7,28.7c0.1-0.3,0.6-0.4,1-0.4s0.9,0.1,1,0.4s1,4.1,1,4.1h-1.2l-0.2-1h-1.1l-0.3,1h-1.2C52.8,32.8,53.6,29,53.7,28.7
		L53.7,28.7z M44.9,28.7c0.1-0.3,0.6-0.4,1-0.4s0.9,0.1,1,0.4s1,4.1,1,4.1h-1.2l-0.2-1h-1.1l-0.3,1H44C44,32.8,44.8,29,44.9,28.7
		L44.9,28.7z M39.6,28.3h1.2v2l1.4-2h1.4L42,30.5l1.6,2.3h-1.4l-1.4-2v2h-1.2L39.6,28.3z M30.6,53.3c0.1,1.2-0.8,2.2-2,2.3
		c-1.3,0-2-1.1-2-2.3V40.6h-3.3c-1.1,0.1-2.1-0.7-2.1-1.8c0-0.1,0-0.1,0-0.2c0-1,0.8-1.8,1.7-1.8c0.1,0,0.2,0,0.3,0h10.9
		c1.1,0.1,1.9,0.9,2,2c0,1.2-1.4,1.8-2.1,1.8h-3.3V53.3z M48.8,55.7c-1.6,0.6-2.5-1.3-2.7-1.8s-0.7-2-0.7-2h-7.3
		c-0.3,0.9-0.6,1.8-1,2.7c-0.6,0.9-1.8,1.3-2.7,0.8c-0.9-0.6-1.2-1.7-0.8-2.7c0.2-0.6,4.3-11.9,4.9-13.2s1.5-2.7,3.3-2.7
		s2.6,1.5,3.1,2.7s4.7,12.5,4.9,13.2S50.4,55.1,48.8,55.7L48.8,55.7z M49.6,30.9v2h-1.2v-4.5h1.2v2l1.4-2h1.4l-1.6,2.1l1.6,2.3H51
		L49.6,30.9z M60.1,55.7h-6h-0.3h-0.3c-1.3,0-2-1.1-2-2.3V39.3c0-1.3,0.6-2.3,2-2.3c1.2,0.1,2.1,1.1,2,2.3v12.5h4.7
		c1.3,0,2.3,0.6,2.3,2C62.4,54.9,61.3,55.8,60.1,55.7L60.1,55.7z M76.6,55.4c-1,0.8-2.2,0.3-3-0.7l-4.9-6.5l-1.4,1.4v3.8
		c0.1,1.2-0.8,2.2-2,2.3c-1.3,0-2-1.1-2-2.3V39.3c0-1.3,0.6-2.3,2-2.3c1.2,0.1,2.1,1.1,2,2.3V44l6.3-6.3c0.9-0.9,2.1-1.2,3-0.3
		c0.7,0.9,0.6,2.2-0.3,3l-4.9,4.9l5.3,7C77.6,53.1,77.6,54.5,76.6,55.4C76.7,55.4,76.7,55.4,76.6,55.4L76.6,55.4z M39.2,48.2h5.1
		l-2.5-7.4L39.2,48.2z M46.2,29.5c0-0.1-0.1-0.4-0.4-0.4c-0.2,0-0.4,0.2-0.4,0.4c0,0.2-0.2,1.6-0.2,1.6h1.2
		C46.4,31.1,46.3,29.6,46.2,29.5L46.2,29.5z"/>
</g>
</svg>
