<svg xmlns="http://www.w3.org/2000/svg" width="16" height="22" viewBox="0 0 16 22">
  <g id="다각형_1" data-name="다각형 1" transform="translate(0 22) rotate(-90)" fill="#15376c">
    <path d="M 20.09896850585938 15.50000286102295 L 1.901028990745544 15.50000286102295 C 1.628509044647217 15.50000286102295 1.500779032707214 15.31312274932861 1.458519101142883 15.23277282714844 C 1.41624903678894 15.15243244171143 1.334619045257568 14.94130229949951 1.489009022712708 14.71674251556396 L 10.58797931671143 1.481862783432007 C 10.68267917633057 1.344132781028748 10.83284950256348 1.265132784843445 10.99999904632568 1.265132784843445 C 11.16714859008789 1.265132784843445 11.3173189163208 1.344132781028748 11.41201877593994 1.481872797012329 L 20.51098823547363 14.7167329788208 C 20.66537857055664 14.94130229949951 20.58374977111816 15.15243244171143 20.54147911071777 15.23277282714844 C 20.49921989440918 15.31312274932861 20.37148857116699 15.50000286102295 20.09896850585938 15.50000286102295 Z" stroke="none"/>
    <path d="M 10.99988555908203 1.765297889709473 L 10.99999904632568 1.765132904052734 L 1.901031494140625 14.99999904632568 C 1.901031494140625 15 1.901033401489258 15.00000190734863 1.901029586791992 15.00000286102295 L 20.09896469116211 15.00000286102295 C 20.09896469116211 15.00000190734863 20.09896659851074 15 20.09896850585938 15.00000286102295 L 10.99988555908203 1.765297889709473 M 10.99999904632568 0.7651329040527344 C 11.31268119812012 0.7651329040527344 11.62536430358887 0.9096231460571289 11.82403945922852 1.198602676391602 L 20.92300987243652 14.43347263336182 C 21.37916946411133 15.09697246551514 20.90414810180664 16.00000190734863 20.09896850585938 16.00000190734863 L 1.901029586791992 16.00000190734863 C 1.095849990844727 16.00000190734863 0.6208286285400391 15.09697246551514 1.076988220214844 14.43347263336182 L 10.17595863342285 1.198602676391602 C 10.3746337890625 0.9096231460571289 10.68731689453125 0.7651329040527344 10.99999904632568 0.7651329040527344 Z" stroke="none" fill="#15376c"/>
  </g>
</svg>
