<svg xmlns="http://www.w3.org/2000/svg" width="43.331" height="43.113" viewBox="0 0 43.331 43.113"><defs><style>.a{fill:#ffa400;stroke:#ffa400;}</style></defs><g transform="translate(-932.281 -3389.311)"><path class="a" d="M88.611,142.733l-7.637-7.658a.639.639,0,0,0-.45-.186H58.8a.638.638,0,0,0,0,1.276H79.888v7.019a.637.637,0,0,0,.636.638h7v31.9H55.917a.638.638,0,0,0,0,1.277H88.161a.638.638,0,0,0,.636-.639v-33.18A.641.641,0,0,0,88.611,142.733Zm-7.45-.187v-5.478l5.464,5.478Z" transform="translate(886.315 3254.922)"/><path class="a" d="M55.926,145.821a.646.646,0,0,0,.645-.645v-9h5.837a.645.645,0,1,0,0-1.289H55.926a.645.645,0,0,0-.645.645v9.642A.646.646,0,0,0,55.926,145.821Z" transform="translate(886.206 3254.922)"/><path class="a" d="M64.5,173.168a13.337,13.337,0,0,0,13.323-13.322,13.185,13.185,0,0,0-2.841-8.223.645.645,0,1,0-1.014.8,11.9,11.9,0,0,1,2.565,7.426A12.013,12.013,0,0,1,58.222,170.1a.643.643,0,0,0-.793.094l-4.3,4.3a6.677,6.677,0,0,1-3.271-3.271l4.3-4.3a.645.645,0,0,0,.094-.793A12.026,12.026,0,0,1,70.816,149.6a.645.645,0,1,0,.679-1.1,13.311,13.311,0,0,0-18.6,17.853l-4.259,4.258-2.144,2.144a3.1,3.1,0,0,0,0,4.38l.716.715a3.1,3.1,0,0,0,4.379,0l2.144-2.145,4.259-4.258A13.262,13.262,0,0,0,64.5,173.168Zm-13.826,3.777a1.809,1.809,0,0,1-2.556,0l-.716-.717a1.809,1.809,0,0,1,0-2.554L48.9,172.18a7.965,7.965,0,0,0,3.271,3.271Z" transform="translate(887.415 3253.16)"/><path class="a" d="M65.8,151.642a8.785,8.785,0,1,0,8.785,8.785A8.795,8.795,0,0,0,65.8,151.642Zm0,16.329a7.544,7.544,0,1,1,7.544-7.544A7.553,7.553,0,0,1,65.8,167.971Z" transform="translate(885.94 3252.759)"/></g></svg>