<svg id="그룹_1712" data-name="그룹 1712" xmlns="http://www.w3.org/2000/svg" width="47.655" height="40.302" viewBox="0 0 47.655 40.302">
  <circle id="타원_38" data-name="타원 38" cx="1.859" cy="1.859" r="1.859" transform="translate(11.486 14.038)" fill="#fff"/>
  <circle id="타원_39" data-name="타원 39" cx="1.859" cy="1.859" r="1.859" transform="translate(21.894 14.038)" fill="#fff"/>
  <circle id="타원_40" data-name="타원 40" cx="1.859" cy="1.859" r="1.859" transform="translate(32.302 14.038)" fill="#fff"/>
  <g id="그룹_1648" data-name="그룹 1648">
    <path id="패스_1122" data-name="패스 1122" d="M396.316-240.764H355.246a3.612,3.612,0,0,0-3.291,3.857v24.538a3.61,3.61,0,0,0,3.291,3.854h16.226l3.924,7.807a.427.427,0,0,0,.774,0l3.923-7.807h16.223a3.611,3.611,0,0,0,3.294-3.854v-24.538A3.613,3.613,0,0,0,396.316-240.764Zm1.023,28.395c0,.787-.469,1.452-1.023,1.452H378.729l-2.947,5.862-2.946-5.862H355.246c-.553,0-1.02-.665-1.02-1.452v-24.538c0-.789.467-1.455,1.02-1.455h41.071c.555,0,1.023.666,1.023,1.455Z" transform="translate(-351.955 240.764)" fill="#ffa400"/>
    <path id="패스_1123" data-name="패스 1123" d="M385.055-208.817a3.94,3.94,0,0,0-3.927,3.944,3.942,3.942,0,0,0,3.927,3.947,3.941,3.941,0,0,0,3.926-3.947A3.939,3.939,0,0,0,385.055-208.817Zm0,5.489a1.537,1.537,0,0,1-1.524-1.545,1.535,1.535,0,0,1,1.524-1.542,1.535,1.535,0,0,1,1.524,1.542A1.536,1.536,0,0,1,385.055-203.328Z" transform="translate(-371.658 220.692)" fill="#ffa400"/>
    <path id="패스_1124" data-name="패스 1124" d="M413.113-208.817a3.94,3.94,0,0,0-3.928,3.944,3.942,3.942,0,0,0,3.928,3.947,3.941,3.941,0,0,0,3.925-3.947A3.939,3.939,0,0,0,413.113-208.817Zm0,5.489a1.538,1.538,0,0,1-1.526-1.545,1.536,1.536,0,0,1,1.526-1.542,1.535,1.535,0,0,1,1.524,1.542A1.536,1.536,0,0,1,413.113-203.328Z" transform="translate(-389.286 220.692)" fill="#ffa400"/>
    <path id="패스_1125" data-name="패스 1125" d="M441.173-208.817a3.94,3.94,0,0,0-3.926,3.944,3.942,3.942,0,0,0,3.926,3.947,3.941,3.941,0,0,0,3.927-3.947A3.939,3.939,0,0,0,441.173-208.817Zm0,5.489a1.537,1.537,0,0,1-1.524-1.545,1.535,1.535,0,0,1,1.524-1.542,1.536,1.536,0,0,1,1.525,1.542A1.537,1.537,0,0,1,441.173-203.328Z" transform="translate(-406.916 220.692)" fill="#ffa400"/>
  </g>
</svg>
