<svg xmlns="http://www.w3.org/2000/svg" viewBox="0 0 18 18">
    <defs>
        <style>.cls-1{fill:#fff;}</style>
    </defs>
    <g id="label" data-name="label">
        <g id="layer 1" data-name="layer 1">
            <path class="cls-1" fill="#fff" d="M14.59.59A2,2,0,0,0,13.17,0H2A2,2,0,0,0,0,2V16a2,2,0,0,0,2,2H16a2,2,0,0,0,2-2V4.83a2,2,0,0,0-.59-1.41ZM9,16a3,3,0,1,1,3-3A3,3,0,0,1,9,16ZM7.83,4.35H4.31A1.18,1.18,0,1,1,4.31,2H7.83a1.18,1.18,0,0,1,0,2.35ZM13.71,7.2H4.24a1.17,1.17,0,0,1,0-2.34h9.47a1.17,1.17,0,1,1,0,2.34Z"/>
        </g>
    </g>
</svg>