<svg xmlns="http://www.w3.org/2000/svg" xmlns:xlink="http://www.w3.org/1999/xlink" width="248" height="73.827" viewBox="0 0 248 73.827">
  <defs>
    <filter id="합치기_2" x="0" y="0" width="248" height="73.827" filterUnits="userSpaceOnUse">
      <feOffset dy="3" input="SourceAlpha"/>
      <feGaussianBlur stdDeviation="2.5" result="blur"/>
      <feFlood flood-opacity="0.18"/>
      <feComposite operator="in" in2="blur"/>
      <feComposite in="SourceGraphic"/>
    </filter>
  </defs>
  <g transform="matrix(1, 0, 0, 1, 0, 0)" filter="url(#합치기_2)">
    <g id="합치기_2-2" data-name="합치기 2" transform="translate(4508 5)" fill="#15376c">
      <path d="M -4470.48046875 57.90227508544922 L -4470.68017578125 57.6224250793457 L -4478.79638671875 46.24959945678711 L -4500.00048828125 46.24959945678711 L -4500.25048828125 46.24959945678711 L -4500.25048828125 45.99959945678711 L -4500.25048828125 1.154192796093412e-05 L -4500.25048828125 -0.2499884516000748 L -4500.00048828125 -0.2499884516000748 L -4268 -0.2499884516000748 L -4267.75 -0.2499884516000748 L -4267.75 1.154192796093412e-05 L -4267.75 45.99959945678711 L -4267.75 46.24959945678711 L -4268 46.24959945678711 L -4461.84765625 46.24959945678711 L -4470.27587890625 57.62601089477539 L -4470.48046875 57.90227508544922 Z" stroke="none"/>
      <path d="M -4470.4765625 57.47718811035156 L -4461.9736328125 45.99959945678711 L -4268 45.99959945678711 L -4268 1.154192796093412e-05 L -4500.00048828125 1.154192796093412e-05 L -4500.00048828125 45.99959945678711 L -4478.66748046875 45.99959945678711 L -4470.4765625 57.47718811035156 M -4470.48388671875 58.32733535766602 L -4470.8837890625 57.76762771606445 L -4478.9248046875 46.49959945678711 L -4500.00048828125 46.49959945678711 L -4500.50048828125 46.49959945678711 L -4500.50048828125 45.99959945678711 L -4500.50048828125 1.154192796093412e-05 L -4500.50048828125 -0.499988466501236 L -4500.00048828125 -0.499988466501236 L -4268 -0.499988466501236 L -4267.5 -0.499988466501236 L -4267.5 1.154192796093412e-05 L -4267.5 45.99959945678711 L -4267.5 46.49959945678711 L -4268 46.49959945678711 L -4461.7216796875 46.49959945678711 L -4470.07470703125 57.77483367919922 L -4470.48388671875 58.32733535766602 Z" stroke="none" fill="#fff"/>
    </g>
  </g>
</svg>
