<svg xmlns="http://www.w3.org/2000/svg" width="684" height="524.5" viewBox="0 0 684 524.5">
  <g id="그룹_1969" data-name="그룹 1969" transform="translate(-827 -2287)">
    <g id="그룹_1967" data-name="그룹 1967">
      <rect id="사각형_487" data-name="사각형 487" width="320" height="498" rx="4" transform="translate(1191 2312)" fill="#f3f3f3"/>
      <rect id="사각형_496" data-name="사각형 496" width="257" height="49" rx="24.5" transform="translate(1222 2664)" fill="#fff"/>
      <text id="_5_10분" data-name="5~10분" transform="translate(1350 2772)" fill="#14366b" font-size="26" font-family="NotoSansCJKkr-Bold, Noto Sans CJK KR" font-weight="700"><tspan x="-42.588" y="0">5~10분</tspan></text>
      <text id="작성부터_출력까지" data-name="작성부터 출력까지" transform="translate(1268 2697)" fill="#15376c" font-size="22" font-family="NotoSansCJKkr-Bold, Noto Sans CJK KR" font-weight="700"><tspan x="0" y="0">작성부터 출력까지</tspan></text>
      <g id="그룹_105" data-name="그룹 105" transform="matrix(0.998, -0.07, 0.07, 0.998, 1291.906, 2739.389)">
        <g id="그룹_103" data-name="그룹 103">
          <path id="패스_146" data-name="패스 146" d="M584.142,885.672c-.048.114.074.286.275.16l.024-.381Z" transform="translate(-505.91 -827.16)" fill="rgba(21,55,108,0.5)"/>
          <path id="패스_147" data-name="패스 147" d="M585.968,885.5c.184-.271.343-.67.048-.88-.1.413-.218.321-.327.8-.2.131-.421.064-.434-.068-.041.116-.362.074-.4.319a.893.893,0,0,0,1.03-.383C586,885.315,585.959,885.433,585.968,885.5Z" transform="translate(-504.475 -827.016)" fill="rgba(21,55,108,0.5)"/>
          <path id="패스_148" data-name="패스 148" d="M602.811,864.47l-.048.151A.4.4,0,0,0,602.811,864.47Z" transform="translate(-483.138 -830.214)" fill="rgba(21,55,108,0.5)"/>
          <path id="패스_149" data-name="패스 149" d="M596.851,848.043c.079.08.136.093.164.078C596.93,848.057,596.858,848.005,596.851,848.043Z" transform="translate(-482.114 -832.532)" fill="rgba(21,55,108,0.5)"/>
          <path id="패스_150" data-name="패스 150" d="M595.095,845.5l.093.121C595.169,845.554,595.139,845.5,595.095,845.5Z" transform="translate(-496.76 -832.885)" fill="rgba(21,55,108,0.5)"/>
          <path id="패스_151" data-name="패스 151" d="M602.821,864.387l.126-.393C602.838,863.965,602.857,864.2,602.821,864.387Z" transform="translate(-483.148 -830.228)" fill="rgba(21,55,108,0.5)"/>
          <path id="패스_152" data-name="패스 152" d="M589.074,883.031a.577.577,0,0,0-.128.179l.146-.127Z" transform="translate(-501.939 -826.741)" fill="rgba(21,55,108,0.5)"/>
          <path id="패스_153" data-name="패스 153" d="M601.357,872.229l-.049.111a.853.853,0,0,0,.088.148Z" transform="translate(-482.886 -829.093)" fill="rgba(21,55,108,0.5)"/>
          <path id="패스_154" data-name="패스 154" d="M598.325,877.457c.078-.085-.133-.292-.211-.4a.352.352,0,0,1,.015.318A.479.479,0,0,0,598.325,877.457Z" transform="translate(-482.333 -825.706)" fill="rgba(21,55,108,0.5)"/>
          <path id="패스_155" data-name="패스 155" d="M590.946,883.546l-.094.111Z" transform="translate(-500.365 -826.83)" fill="rgba(21,55,108,0.5)"/>
          <path id="패스_156" data-name="패스 156" d="M602.769,868.07a.228.228,0,0,0,.111-.024A.162.162,0,0,0,602.769,868.07Z" transform="translate(-483.139 -829.743)" fill="rgba(21,55,108,0.5)"/>
          <path id="패스_157" data-name="패스 157" d="M603.567,872.169a.426.426,0,0,0,.034.04C603.6,872.169,603.6,872.149,603.567,872.169Z" transform="translate(-483.277 -829.162)" fill="rgba(21,55,108,0.5)"/>
          <path id="패스_158" data-name="패스 158" d="M609.37,868.539l-.036.07a1.163,1.163,0,0,0,.12.112Z" transform="translate(-484.275 -829.634)" fill="rgba(21,55,108,0.5)"/>
          <path id="패스_159" data-name="패스 159" d="M591.032,841.527l.014.017C591.165,841.59,591.1,841.554,591.032,841.527Z" transform="translate(-500.223 -835.665)" fill="rgba(21,55,108,0.5)"/>
          <path id="패스_160" data-name="패스 160" d="M544.359,845.912c.433-.328-.011.844.547.308C544.773,846.236,544.759,845.438,544.359,845.912Z" transform="translate(-542.356 -832.807)" fill="rgba(21,55,108,0.5)"/>
          <path id="패스_161" data-name="패스 161" d="M589.251,882.971c.052-.036.106-.073.162-.1A.564.564,0,0,0,589.251,882.971Z" transform="translate(-501.666 -826.713)" fill="rgba(21,55,108,0.5)"/>
          <path id="패스_162" data-name="패스 162" d="M545.021,846.3h0l.055-.056Z" transform="translate(-542.471 -832.785)" fill="rgba(21,55,108,0.5)"/>
          <path id="패스_163" data-name="패스 163" d="M579.285,836a.379.379,0,0,0,.069.154C579.359,836.12,579.346,836.078,579.285,836Z" transform="translate(-510.212 -834.708)" fill="rgba(21,55,108,0.5)"/>
          <path id="패스_164" data-name="패스 164" d="M587.846,840.3l-.15-.132A.712.712,0,0,0,587.846,840.3Z" transform="translate(-503 -835.43)" fill="rgba(21,55,108,0.5)"/>
          <path id="패스_165" data-name="패스 165" d="M574.271,835.328a.435.435,0,0,0-.277-.076.186.186,0,0,0,.037.043A.229.229,0,0,1,574.271,835.328Z" transform="translate(-514.584 -834.578)" fill="rgba(21,55,108,0.5)"/>
          <path id="패스_166" data-name="패스 166" d="M569.206,834.693a.809.809,0,0,0,.075.064l.136-.007Z" transform="translate(-518.702 -834.482)" fill="rgba(21,55,108,0.5)"/>
          <path id="패스_167" data-name="패스 167" d="M590.73,878.938a.827.827,0,0,1,.25.2C590.864,878.956,591.408,878.715,590.73,878.938Z" transform="translate(-500.241 -826.017)" fill="rgba(21,55,108,0.5)"/>
          <path id="패스_168" data-name="패스 168" d="M589.192,883.164a.163.163,0,0,1,.037-.171l-.106.083C589.135,883.12,589.154,883.157,589.192,883.164Z" transform="translate(-501.824 -826.734)" fill="rgba(21,55,108,0.5)"/>
          <path id="패스_169" data-name="패스 169" d="M573.491,838.015l-.622-.153A5.277,5.277,0,0,0,573.491,838.015Z" transform="translate(-515.347 -835.031)" fill="rgba(21,55,108,0.5)"/>
          <path id="패스_170" data-name="패스 170" d="M557.14,874.417l.14.051A.174.174,0,0,0,557.14,874.417Z" transform="translate(-529.003 -828.845)" fill="rgba(21,55,108,0.5)"/>
          <path id="패스_171" data-name="패스 171" d="M570.526,837.553a.907.907,0,0,0-.333-.235.257.257,0,0,0-.08.069Z" transform="translate(-517.825 -834.936)" fill="rgba(21,55,108,0.5)"/>
          <path id="패스_172" data-name="패스 172" d="M591.034,879.2l0,0Z" transform="translate(-500.294 -826.078)" fill="rgba(21,55,108,0.5)"/>
          <path id="패스_173" data-name="패스 173" d="M640.951,882.892c-1.233.316-.249.634-.32.985-1.4.539-.929-.179-1.595-.3-.846.35-1.308.964-2.031,1.108-.1-.071-.257-.07-.154-.21-.772.651-3,.636-3.959,1.368a.539.539,0,0,1-.216-.1,1.205,1.205,0,0,1,.51.668c-.593.117-.965.539-1.342.229.377-.042.344-.195.469-.328-.185.088-.373.174-.566.252-.771-.39.789-.3.623-.673a13.433,13.433,0,0,1-3.421.982c-.37-.448,2.138-.49.723-.726l1.523-.034c-1.416-.584.894-.079-.451-.728-1.933.131-2,.586-3.95.673-.344.317.272.378-.076.7-2.615.792-2.477-.937-4.315-.13-.444.366-.521,1-2.037.795l.384-.59c-1.874.1-.937.865-2.977.613.322-.235,1.458-.262,1.162-.312-1.344-.367-.857.36-1.85.414l-.264-.478c-1.989.168-4.192.591-6.446.663.125-.146.508-.3-.013-.45a33.7,33.7,0,0,1-8.636-.64l-1.1.357c-.238-.019-.406-.217-.133-.282-1.011-.242-.107.265-.643.386-.6-.027-.736-.314-.331-.4-1.909.216-5.48.237-7.245-.479l.416-.065c-1.412-.393-2.007.584-3.243-.014l.3-.031c-1.586-.33-3.269-.634-4.851-.937a13.729,13.729,0,0,1-3.957-1.336c-.821.436-2.835-1.026-3.58-.339a13.723,13.723,0,0,0-2.931-1.893c-.571-.251-1.323.138-2.161-.06l.348-.389-1.418.029-.068-.667-.776-.184c.247.133.4.4.247.5-1.247-.281-2.331-1.325-2.114-1.531l-2.744-.837c.235-.113.7.029,1.122.088-1.717-.253.231-.464-1.322-.71.043.158-.353.159-.471.214a6.374,6.374,0,0,0-2.528-1.622l.506-.117a26.621,26.621,0,0,0-2.452-1.5c-.841-.523-1.676-1.083-2.471-1.669.386.509-.4.749-.948.425l.408-.428c-.656-.058.248.485-.8.219-.477-.513.327-.638.828-.463l-.863-.474c.144-.116.394-.025.665-.1-.651-.068-.486-1.24-1.547-1.29l.153-.108c-1.31-1.283-2.083-1.812-3.046-2.919-.6.163-.83-.32-1.571-.522a23.2,23.2,0,0,0-1.37-3.024c-.761-.671-.651-.094-1.22-.347.517-.184-.144-1.24.577-.774l-.969-1.481c-.283-.431-.632-.846-1.107-1.614-.183.2-.224.408-.455.33a.439.439,0,0,1,.349-.677l.077.071c-.687-.853-.308-1.96.2-2.921s1.12-1.836.782-2.636l.032.089a12.44,12.44,0,0,1,.031-1.594c.432-.667.226.492.826.054-.124-1.795,1.582-2.47,1.885-3.925a4.672,4.672,0,0,0,2.423-1.913,5.064,5.064,0,0,1,2.689-1.947l-.392-.113c.083-.432.638-.219.98-.368-.268-.112-.68.126-.606-.134,3.086-2.459,8.463-3.664,13.294-4.521,1.776-.323.309-1.5,2.922-1.351l-.434.581c3.41-1.272,7.6-1.01,11.414-1.7-.216.122-.2.265-.58.282.861.292,3-.117,3-.4.6.017.157.251.534.387.813.178,2.016-.474,2.454-.132.072.055-.227.114-.373.141.525-.18,2.439.061,1.953-.348,1.418.22,2.763-.1,3.879.205.822-.408,2.408.382,2.778-.222-.24.632,2.384.745,3.388.557-.36.158.732.292.3.519,1.033.106,2.022.115,1.95-.238,1.656,1,4.085-.1,4.724,1.05A59.258,59.258,0,0,1,616,840.427c-.484.568-2.928-.649-3.2.026,2.6.313,4.393.175,6.685,1.029.551.268-.547.144-.833.19,2.595.46,4.513,1.49,6.823,1.95a1.3,1.3,0,0,1-.575-.013c.414.133.841.433,1.048.165l-.456-.08c-.283-.615,2.355-.151,2.626-.3-1.41.433,1.8.991-.224,1.444.3.061.748.08.871-.108.327.207.34.352-.248.377,1.517.457,1.314,0,2.543.556-.142.112-.444.045-.728.124a4.82,4.82,0,0,1,2.661.718c-.148.038-.144.183-.442.033,1.754.806,3.685.935,5.149,2.188-1.22.139.374.5-.163.938l1.072.467-.054-.414c.776.513,1.939.708,2.355,1.3l-.82-.252,1.517.937-.542-.7c1.1.368.754-.5,1.578.323-.262-.12.708.577.671,1.064h0a2.343,2.343,0,0,1,1.477.877c-.1.212-.885.254-.954.393.93.019,1.673,1.288,2.67,1.423a.954.954,0,0,0-.711.146l.748.059c.119.342.08.411-.279.479.7.885.726-.623,1.218.557-.113-.068-.155,0-.379-.145.7,1.1,2.018,1.927,2.419,3-.6.492-.771-.818-1.231-.3,1.076,1.353,2.832,2.763,3.1,4.282l-.005-.286c1.286.046-.18,1.169.525,1.851-.133-.177-.732-.177-.584-.141.057,1.015.724,2.026,1.1,3.6l-.316-.195c-.275.6-.255,1.579-.519,2.214.292.213.159.583.665.392a3.581,3.581,0,0,0-1.258,2.82,2.849,2.849,0,0,1-1.458,2.578c.122-.2.009-.538-.076-.377-.181.494-.4.986-.625,1.478.575.019.431-.1,1.007-.309a.985.985,0,0,1-.129,1.08c.137-.733-.795-.209-1.259-.019.181,0,.279.139.447.159-1.425.47.88.414-.5,1.239l-.207-.134c-.187.406-.163.855-.59,1.226-.684-.031.1-.476-.327-.656-.44.55,0,1.446-1.02,1.725.1-.279.408-.612.486-.893a2.959,2.959,0,0,0-1.536.744l.054-.031c-.4.252-.8.506-1.22.742l.41-.143c.582,1.219-1.246,1.384-1.543,2.6.314-1.186-.268-.36-.721-.7-.429.125-1.011.339-1.041.172-.094.6-1.2.413-1.358,1.265-.2-.076-.612.362-.889.034-.592.525.447.068.589.228-.595,1.057-3.3,1.168-4.41,2.542-1.3.96-1.155,1.483-2.506,2.337-.728.03-.03-.6-.03-.6a5.477,5.477,0,0,0-2.3.912c.061-.167-.2-.19-.575-.23-.614.279-.017.6-1.057.738a1.377,1.377,0,0,1,.2-.724c-.658.391-1.222.889-1.952,1.272-.4-.143.213-.493.372-.729-.815.412-2.214.967-2.231,1.407l.7-.064c-.329.124-.414-.243-.214-.385a1.184,1.184,0,0,1,1.4-.136l-.523.272c1.237.538,2.279-.907,3.445-1.289l.009.693.771-.873c.381.037.845.252.347.549,1.09-.07.552-.46,1.543-.472.124.011.114.049.063.1l.641-.477c-.043.168.517.295-.055.427,1.767-.322,1.859-1.364,2.811-1.245l-.079.084c1.7-1.072-.237-.436.625-1.525q1.02.191,2.048.351l-.285-.43c.2-.088.606-.263.726-.094.37-.6-.322-.078-.229-.508,1.325-.2,2.127-1.531,3.122-1.164-.091-.419-1.1.321-.481-.4,1.12.345.86-.742,1.961-1.028.259.411-.673.769.466.478-.364-.732,1.556-.927,1.976-1.474-.647-.337.926-1.134,1.525-2.044.207.157,1.932-1.389,2.854-2.119l.107.064c-.632-.4.187-1.178.445-1.843.451.151.557.312.519.71l.419-.589c-.146-.205-.155-.424-.005-.831l.5.3c.484-.814.3-1.763,1.183-2.741-.547-.15-1.976.52-1.846-.616.327.014.878.063.869.37.005-.1-.094-.376.107-.545.118.175.229.351.329.527.453-.436-.327-.322-.12-.693.442.078.431-.234.763-.125,0,.105-.32.307-.2.483a2.635,2.635,0,0,1,1.127-1.045c-.268,0-.6-.081-.56-.412.231-.838.641-.22,1.016-.69-.264-.239.194-.755-.482-.827.061-.247.4-.266.593-.35-.194-.466.2-2.083-.6-1.609l-.057.11-.024-.072v0c-.532-1.429.414-2.985-.19-4.4l.227-.016c-.416-.828-.662-1.864-1.377-2.377a.488.488,0,0,1,.5-.579c-.468-.6-.747-.617-.828-1.59.69.553.231-.287.6.59-.192-.854.02-1.121-1.092-1.84.713.169.349-.786-.118-1.108a4.543,4.543,0,0,1-.008.654,7.5,7.5,0,0,1-.806-1.156h.852c-.342-1.915-3.741-2.343-3.521-3.975-.846-.213.482.938-.4.793-.549-.718-.449-1.776-.674-2-.671-1.081-1.9-.414-2.781-1.436-.076.228-.5.6-1.558.061-.741-.63-.144-1.2.557-.908.22.136.25.241.17.272.346.156.8.368.693.008l-.322.031c-.2-.414-1.392-1.243-.78-1.232-.841-.355-.61-.009-.246.389-.8-.94-1.741-1.192-2.752-2.061.089.183.041.432-.152.317-1.565-1.222-1.153-.242-2.451-.9-.436-.583.93-.322-.582-.853-.6-.557.311-.435.776-.367-1.51-.4-2.022-1.335-2.673-1.737l.789.216a5.564,5.564,0,0,1-1.113-.451l.031.454c-.318-.237-.641-.394-.5-.5-.621,0-.25.592-1.338.477-.351-.374-1.737-.557-1.5-1.008,1.49.862.242-.456,1.7.113a3.082,3.082,0,0,1-.985-.455c-.011-.069.144-.052.275-.024-1.231-1.025-1.2.1-2.852-.594.44-.128.035-.564-.288-.63.676.279-.05.487-.835.407-.92-.583-1.3-.329-1.856-.556l.573.323c-.43.132-.948-.093-1.772-.3.094-.2.8.132.6-.042-1.2.084-1.556-1.093-3.016-1.22-.436-.337.3-.445-.111-.712-1.63-.133-1.262-.787-2.946-.967.2.438.325.375-.939.39.863.155,1.73.309,2.586.485l-1.891,0c.723.209,1.678.253,2.066.44-.928.027-.789-.024-.651.336-.619-.766-2.146-.31-3.064-.934l.584-.772c-1.543-.826-3.417-.42-5.644-1.12l.678.3c-.492.247-1.473-.267-2.309-.284.209-.258-.22-.454-.471-.681-.055.208-1.756-.343-2.216.178l-.92-.539c-1.92-.445-2.512.467-4.33.128.662-.23-.118-.54,1.2-.592-.619-.088-1.17-.205-1.242-.015-.309-.225-1.848.162-2.345-.167a1.72,1.72,0,0,1-1.166.279c-.061-.064.041-.138.041-.138-.043.138-1.151.075-.621.448-1.715-1.088-5.4-.4-7.017-1.2l-4.369.143c.079-.086,0-.142.242-.114-1.767-.252-1.046.823-3.028.576-1.048-.425,1.029-.282.386-.435-.359-.933-2.384.211-3.781-.256l.316-.071c-1.078-.261-2.432.506-4.085.57,0,0,.063-.088-.02-.141a24.5,24.5,0,0,1-4.643,1.31c.346-.436.645-.286.207-.614-.686.156.416.549-.926.867-.528-.126-1.608-.132-1.918-.479.433-.1.878-.167,1.32-.245-.908-.4-1.719.316-2.449.362l-.018-.232c-1.994.491-1.719,1.008-3.816,1.506l.319.1c-.763.81-1.161-.054-1.983.658l-.732-.413c-.66.337-2.151,1.291-3.262,1.863.316-.643,1.665-1.342,2.44-1.875-.734.231-2.445.855-2.552,1.251a1.6,1.6,0,0,1,.832-.429,6.6,6.6,0,0,1-2.717,1.862c-.852-1.026-3.611,1.346-5.354,1.31-1.608,1.579-4.192,2.659-5.742,4.706,1.813-.3-.442.583.955.833-.231.452-.369.609-.482.624l-1.7,1.114c-.593.221-.009-.5-.325-.532-.754.952-.828.267-1.612.837.556-.021.462.512-.065,1.045l1.1-.662c-.116,1.549-1.87.958-1.885,2.576l-.2-.547c-.173.78-1.231,2.892-.231,3.779-.189.125-.61.286-.643-.079a5.549,5.549,0,0,0,.194,3.093,8.22,8.22,0,0,1,.63,2.738l-.386-.1c.207.356.861.525.721,1.021-.148,0-.4-.085-.342.084.2.194,1.011.776,1.052,1.239l-.566-.287c.479,1.782,2.355,2.372,3.493,3.66-.953.244-.34,1.617.03,2.3l-.148.017c1.418,1.921,3.441,2.922,5.578,4.33.161,1.4,3.569,3.432,5.391,5.037-.2-.295.619-.314,1.074-.116.345.434,1.963.515,1.231.9l-.181-.116c-.211.646,1.089,1.169,1.967,1.656l.93-.515c1.3,2.075,6.768,2.581,7.4,3.868.793.064,1.578.351,2.356.4l-.346.35a29.8,29.8,0,0,0,5,1.553l-.665.14c1.308.377,2.4-.642,3.591-.352l.007.65c1.159.257,2.251.643,3.388.966a12.826,12.826,0,0,0,3.628.46.638.638,0,0,1-.619.187c1.091.248,4.209,1.094,4.1.229-.179.554,2.462.4,3.82.308l-.324.369a6.9,6.9,0,0,1,2.878-.5c.347.085.238.346-.218.2,1.159.32,1.029-.29,2.439.056l-.6.2a2.679,2.679,0,0,0,1.911-.257c.808-.111,2.336.249,2.475.622a2.185,2.185,0,0,1,1.641-.338c.085.14-.192.216-.333.252,2.079.336,3.144-.336,4.561.051a.314.314,0,0,0,.237.241,24.1,24.1,0,0,1-2.885-.119c-.033.37,1.327.482.2.955,1.129-.22,3.005-.838,4.319-.652a.583.583,0,0,1,.176.128l-.137.041a2.288,2.288,0,0,0,.835-.055,6.186,6.186,0,0,0,1.1.093c.17.3,1.573.128,2.253.127-.087-.4.8-.359-.053-.674.109.026-.124.052-.569.079a1.6,1.6,0,0,0-.285.049l.044-.037-1.673.066a2.567,2.567,0,0,1,1.822-.2c.327-.268.682-.545.883-.675.954.563,2.763.744,3.061,1.086,2.033-.3,4.833-.5,5.918-1.35.549-.145.713.144.961.242a5.468,5.468,0,0,0-.863.266c1.105-.305,3.392-.465,3.493-1.013,1.516.062-.649.585,1.3.247l-.209.2c4.26.238,5.693-2.238,10.33-2.141-.324,0-.484,0-.591-.066,5.049-.61,9.174-2.878,13.97-3.882,1.312-.368,1.138-.706,1.608-1.217l.656.25c.248-.313.512-.607.724-.936,1.231-1.081,3.974-.529,5.179-2.2l-.573-.073c.78-.346,2-1.388,2.245-1.1.007-.081-.137-.353.294-.414l.283.146,1.137-1.317c1.39-.731.926.748,2.68-.513.527-.544.931-1.773.5-1.682a1.479,1.479,0,0,1-1.122.274l.4-.5a2.662,2.662,0,0,0-3.146-.492l-.388.951-.691.014.73-.593c-.809.134-.741.513-.821.87a1.657,1.657,0,0,0-.826.044l-.2,1.067c-.425-.1-.183-.639-1-.314-.1.5,1.127.116.6.748-.832.1-.972-.166-1.229.383-.275-.071-.283-.227-.152-.423-.227.486-1.279.862-1.148,1.289-.939.021-1.695,1.1-2.31.58a2.355,2.355,0,0,1-.976,1.144c.185-1.064-1.981.922-2.523.131-.105.846-2.318,1.4-3.373,2.2.031-.074.089-.222.238-.237a7.832,7.832,0,0,1-1.8.2c.351.513-.717,1.1-1.154,1.6-1.393-.175.1-.773-.613-1.136.4.387-1.344.931-.735,1.167-.995-.066-.767.057-1.48-.244.357.67-.593.342-.948.894-1.349-.02-.721-.529-1.8-.007C640.036,883.408,640.951,882.892,640.951,882.892Zm-30.578,4.976v-.008l.665-.019Zm-2.713-.011c.329.024.741.024,1.177.025.09.14-.017.284-.292.275C608.7,888.061,608.059,887.983,607.66,887.856Zm5.886,2.795c-.449.068-.6-.008-.669-.09.213-.011.46-.032.785-.068l.05-.05A.476.476,0,0,1,613.547,890.651Z" transform="translate(-541.937 -834.464)" fill="rgba(21,55,108,0.5)"/>
          <path id="패스_174" data-name="패스 174" d="M581.081,882.978a.425.425,0,0,1,.082-.024.938.938,0,0,0-.122-.061l-.067.094Z" transform="translate(-508.693 -826.717)" fill="rgba(21,55,108,0.5)"/>
          <path id="패스_175" data-name="패스 175" d="M602.745,864.68l.008-.026a.144.144,0,0,1-.045.054C602.724,864.69,602.734,864.69,602.745,864.68Z" transform="translate(-483.128 -830.211)" fill="rgba(21,55,108,0.5)"/>
          <path id="패스_176" data-name="패스 176" d="M558.569,875.118l-.036.064.122,0Z" transform="translate(-527.824 -828.743)" fill="rgba(21,55,108,0.5)"/>
          <path id="패스_177" data-name="패스 177" d="M599.551,872.306a.165.165,0,0,0-.1.048C599.467,872.359,599.507,872.336,599.551,872.306Z" transform="translate(-482.564 -829.141)" fill="rgba(21,55,108,0.5)"/>
          <path id="패스_178" data-name="패스 178" d="M597.754,875.279l-.308.277A2.417,2.417,0,0,0,597.754,875.279Z" transform="translate(-482.217 -828.656)" fill="rgba(21,55,108,0.5)"/>
          <path id="패스_179" data-name="패스 179" d="M596.1,877.293a.411.411,0,0,0,.068.112l0,0Z" transform="translate(-495.924 -825.748)" fill="rgba(21,55,108,0.5)"/>
          <path id="패스_180" data-name="패스 180" d="M586.789,842.444a.405.405,0,0,0-.08-.031C586.509,842.361,586.637,842.41,586.789,842.444Z" transform="translate(-503.9 -835.814)" fill="rgba(21,55,108,0.5)"/>
          <path id="패스_181" data-name="패스 181" d="M596.723,850.067a2.152,2.152,0,0,1-.316-.182C596.5,850.046,596.587,850.164,596.723,850.067Z" transform="translate(-482.037 -832.258)" fill="rgba(21,55,108,0.5)"/>
          <path id="패스_182" data-name="패스 182" d="M573.689,838.065l0,0-.07-.013Z" transform="translate(-515.023 -835.063)" fill="rgba(21,55,108,0.5)"/>
          <path id="패스_183" data-name="패스 183" d="M596.049,849.418a.834.834,0,0,0,.3.386A1.207,1.207,0,0,0,596.049,849.418Z" transform="translate(-495.747 -832.305)" fill="rgba(21,55,108,0.5)"/>
          <path id="패스_184" data-name="패스 184" d="M587,884.139l-.1.037a.074.074,0,0,1,.01.048Z" transform="translate(-503.723 -826.933)" fill="rgba(21,55,108,0.5)"/>
          <path id="패스_185" data-name="패스 185" d="M586.888,884.242l-.089.084C586.847,884.3,586.888,884.278,586.888,884.242Z" transform="translate(-503.813 -826.951)" fill="rgba(21,55,108,0.5)"/>
          <path id="패스_186" data-name="패스 186" d="M586.569,884.518l.19-.175C586.682,884.382,586.584,884.421,586.569,884.518Z" transform="translate(-503.926 -826.968)" fill="rgba(21,55,108,0.5)"/>
          <path id="패스_187" data-name="패스 187" d="M590.135,882.509l-.031-.107A.193.193,0,0,0,590.135,882.509Z" transform="translate(-501.056 -826.632)" fill="rgba(21,55,108,0.5)"/>
          <path id="패스_188" data-name="패스 188" d="M590.843,881.9c-.184.106-.56.114-.766.328l.023.086C590.126,882.109,590.783,882.169,590.843,881.9Z" transform="translate(-500.426 -826.545)" fill="rgba(21,55,108,0.5)"/>
          <path id="패스_189" data-name="패스 189" d="M595.395,880.2l-.623.475c.175-.01.412-.023.168.241C595.893,880.482,594.622,880.873,595.395,880.2Z" transform="translate(-496.518 -826.251)" fill="rgba(21,55,108,0.5)"/>
          <path id="패스_190" data-name="패스 190" d="M597.638,878.14c-.23.36.131.1.165.158C597.892,878.019,597.911,877.954,597.638,878.14Z" transform="translate(-482.237 -825.876)" fill="rgba(21,55,108,0.5)"/>
          <path id="패스_191" data-name="패스 191" d="M602.314,858.017l.269-.028C602.451,857.68,602.483,858.013,602.314,858.017Z" transform="translate(-483.06 -831.143)" fill="rgba(21,55,108,0.5)"/>
          <path id="패스_192" data-name="패스 192" d="M599.374,854.93l-.027.338.281.028Z" transform="translate(-482.546 -831.523)" fill="rgba(21,55,108,0.5)"/>
          <path id="패스_193" data-name="패스 193" d="M600.236,851.7l.109.1-.373-.424Z" transform="translate(-482.654 -832.02)" fill="rgba(21,55,108,0.5)"/>
          <path id="패스_194" data-name="패스 194" d="M570.153,834.445l.07.335C570.447,834.743,570.529,834.381,570.153,834.445Z" transform="translate(-517.871 -834.438)" fill="rgba(21,55,108,0.5)"/>
          <path id="패스_195" data-name="패스 195" d="M554.808,836.9a.59.59,0,0,0-.712.188C554.37,836.98,554.69,836.995,554.808,836.9Z" transform="translate(-544.042 -834.855)" fill="rgba(21,55,108,0.5)"/>
          <path id="패스_196" data-name="패스 196" d="M553.452,875.485l-.276-.074.448.23Z" transform="translate(-543.882 -828.652)" fill="rgba(21,55,108,0.5)"/>
        </g>
      </g>
      <g id="그룹_109" data-name="그룹 109" transform="matrix(0.766, 0.643, -0.643, 0.766, 1417.042, 2749.565)">
        <g id="그룹_106" data-name="그룹 106" transform="translate(0 4.159)">
          <path id="패스_197" data-name="패스 197" d="M1.881,9.369l3.044-1.6,3.044,1.6-.581-3.39,2.463-2.4-3.4-.494L4.925,0,3.4,3.084,0,3.578l2.463,2.4Z" transform="translate(0)" fill="#15376c"/>
          <path id="패스_198" data-name="패스 198" d="M1.279,1.159,1.85,0l.572,1.159L3.7,1.345l-.925.9L2.994,3.52l-1.143-.6-1.144.6L.925,2.246,0,1.345Z" transform="translate(3.075 3.233)" fill="#fff"/>
        </g>
        <g id="그룹_107" data-name="그룹 107" transform="translate(9.79 0)">
          <path id="패스_199" data-name="패스 199" d="M2.14,10.657,5.6,8.836l3.463,1.821L8.4,6.8l2.8-2.731L7.334,3.508,5.6,0,3.871,3.508,0,4.071,2.8,6.8Z" transform="translate(0 0)" fill="#15376c"/>
          <path id="패스_200" data-name="패스 200" d="M1.454,1.318,2.105,0l.651,1.318L4.21,1.53,3.158,2.555,3.406,4l-1.3-.684L.8,4l.248-1.449L0,1.53Z" transform="translate(3.498 3.678)" fill="#fff"/>
        </g>
        <g id="그룹_108" data-name="그룹 108" transform="translate(20.119 5.207)">
          <path id="패스_201" data-name="패스 201" d="M1.882,9.369l3.044-1.6,3.044,1.6-.582-3.39,2.463-2.4-3.4-.494L4.925,0,3.4,3.084,0,3.578l2.463,2.4Z" transform="translate(0 0)" fill="#15376c"/>
          <path id="패스_202" data-name="패스 202" d="M1.279,1.159,1.85,0l.572,1.159L3.7,1.345l-.925.9L2.994,3.52l-1.144-.6-1.143.6L.925,2.246,0,1.345Z" transform="translate(3.075 3.233)" fill="#fff"/>
        </g>
      </g>
      <path id="패스_1180" data-name="패스 1180" d="M2793,2108.967h320" transform="translate(-1602.5 201.967)" fill="none" stroke="#14366b" stroke-width="2"/>
      <path id="패스_1182" data-name="패스 1182" d="M2793,2108.967h320" transform="translate(-1602.5 701.533)" fill="none" stroke="#14366b" stroke-width="2"/>
      <rect id="사각형_529" data-name="사각형 529" width="76" height="50.667" rx="25.333" transform="translate(1313 2287)" fill="#14366b"/>
      <text id="로폼" transform="translate(1351 2322)" fill="#fff" font-size="26" font-family="NotoSansCJKkr-Medium, Noto Sans CJK KR" font-weight="500"><tspan x="-23.92" y="0">로폼</tspan></text>
      <rect id="사각형_495" data-name="사각형 495" width="257" height="49" rx="24.5" transform="translate(1222 2364)" fill="#fff"/>
      <text id="온라인_신청_즉시_완료" data-name="온라인 신청 즉시 완료" transform="translate(1253 2397)" fill="#15376c" font-size="22" font-family="NotoSansCJKkr-Bold, Noto Sans CJK KR" font-weight="700"><tspan x="0" y="0">온라인 신청 즉시 완료</tspan></text>
    </g>
    <g id="그룹_1966" data-name="그룹 1966">
      <g id="그룹_1965" data-name="그룹 1965">
        <g id="그룹_1964" data-name="그룹 1964">
          <rect id="사각형_486" data-name="사각형 486" width="320" height="499" transform="translate(827 2311)" fill="#f3f3f3"/>
          <path id="합치기_9" data-name="합치기 9" d="M14952-424.392h9.831v-22.764h25.7v22.764h9.688l-22.609,13.2Z" transform="translate(-13987.15 2850.155)" fill="#bebebe"/>
          <path id="합치기_10" data-name="합치기 10" d="M14952-424.392h9.831v-22.764h25.7v22.764h9.688l-22.609,13.2Z" transform="translate(-13987.15 2928.155)" fill="#bebebe"/>
          <path id="합치기_11" data-name="합치기 11" d="M14952-424.392h9.831v-22.764h25.7v22.764h9.688l-22.609,13.2Z" transform="translate(-13987.15 3005.155)" fill="#bebebe"/>
          <path id="합치기_12" data-name="합치기 12" d="M14952-424.392h9.831v-22.764h25.7v22.764h9.688l-22.609,13.2Z" transform="translate(-13987.15 3083.155)" fill="#bebebe"/>
          <g id="그룹_1962" data-name="그룹 1962" transform="translate(0 -32)">
            <rect id="사각형_490" data-name="사각형 490" width="209" height="39" rx="19.5" transform="translate(883 2474)" fill="#fff"/>
            <text id="작성방법_검색" data-name="작성방법 검색" transform="translate(933 2501)" font-size="19" font-family="NotoSansCJKkr-Medium, Noto Sans CJK KR" font-weight="500"><tspan x="0" y="0">작성방법 검색</tspan></text>
          </g>
          <g id="그룹_1961" data-name="그룹 1961" transform="translate(0 -54)">
            <rect id="사각형_491" data-name="사각형 491" width="209" height="39" rx="19.5" transform="translate(883 2573)" fill="#fff"/>
            <text id="법률용어_검색" data-name="법률용어 검색" transform="translate(933 2600)" font-size="19" font-family="NotoSansCJKkr-Medium, Noto Sans CJK KR" font-weight="500"><tspan x="0" y="0">법률용어 검색</tspan></text>
          </g>
          <g id="그룹_1960" data-name="그룹 1960" transform="translate(0 -75)">
            <rect id="사각형_492" data-name="사각형 492" width="209" height="39" rx="19.5" transform="translate(883 2672)" fill="#fff"/>
            <text id="계약서_검토" data-name="계약서 검토" transform="translate(941 2699)" font-size="19" font-family="NotoSansCJKkr-Medium, Noto Sans CJK KR" font-weight="500"><tspan x="0" y="0">계약서 검토</tspan></text>
          </g>
          <g id="그룹_1959" data-name="그룹 1959" transform="translate(0 -97)">
            <rect id="사각형_493" data-name="사각형 493" width="209" height="39" rx="19.5" transform="translate(883 2771)" fill="#fff"/>
            <text id="계약서_수정" data-name="계약서 수정" transform="translate(941 2798)" font-size="19" font-family="NotoSansCJKkr-Medium, Noto Sans CJK KR" font-weight="500"><tspan x="0" y="0">계약서 수정</tspan></text>
          </g>
          <text id="최소_하루" data-name="최소 하루" transform="translate(989 2776)" font-size="26" font-family="NotoSansCJKkr-Medium, Noto Sans CJK KR" font-weight="500"><tspan x="-50.765" y="0">최소 하루</tspan></text>
          <path id="패스_1179" data-name="패스 1179" d="M2793,2108.967h320" transform="translate(-1966 201.967)" fill="none" stroke="#515151" stroke-width="2"/>
          <path id="패스_1181" data-name="패스 1181" d="M2793,2108.967h320" transform="translate(-1966 701.533)" fill="none" stroke="#515151" stroke-width="2"/>
          <rect id="사각형_483" data-name="사각형 483" width="76" height="50.667" rx="25.333" transform="translate(949 2287)" fill="#515151"/>
          <text id="일반" transform="translate(987 2322)" fill="#fff" font-size="26" font-family="NotoSansCJKkr-Medium, Noto Sans CJK KR" font-weight="500"><tspan x="-23.92" y="0">일반</tspan></text>
          <g id="그룹_1963" data-name="그룹 1963" transform="translate(0 -12)">
            <rect id="사각형_489" data-name="사각형 489" width="209" height="39" rx="19.5" transform="translate(883 2376)" fill="#fff"/>
            <text id="웹상의_기업문서_검색" data-name="웹상의 기업문서 검색" transform="translate(904 2403)" font-size="19" font-family="NotoSansCJKkr-Medium, Noto Sans CJK KR" font-weight="500"><tspan x="0" y="0">웹상의 기업문서 검색</tspan></text>
          </g>
        </g>
      </g>
    </g>
  </g>
</svg>
