<svg xmlns="http://www.w3.org/2000/svg" width="60" height="60" viewBox="0 0 60 60">
  <g id="그룹_1780" data-name="그룹 1780" transform="translate(-1164 -891)">
    <g id="그룹_1760" data-name="그룹 1760" transform="translate(3 -187)">
      <ellipse id="타원_58" data-name="타원 58" cx="30" cy="30" rx="30" ry="30" transform="translate(1161 1078)" fill="#f1f3f6"/>
      <g id="그룹_1758" data-name="그룹 1758" transform="translate(2722.84 218.895)">
        <path id="패스_1130" data-name="패스 1130" d="M-1520.193,878.273h-1.888v-.77a.4.4,0,0,0-.4-.4.4.4,0,0,0-.4.4v.77h-2.942v-.77a.4.4,0,0,0-.4-.4.4.4,0,0,0-.4.4v.77h-2.942v-.77a.4.4,0,0,0-.4-.4.4.4,0,0,0-.4.4v.77h-2.942v-.77a.4.4,0,0,0-.4-.4.4.4,0,0,0-.4.4v.77h-2.942v-.77a.4.4,0,0,0-.4-.4.4.4,0,0,0-.4.4v.77h-2.942v-.77a.4.4,0,0,0-.4-.4.4.4,0,0,0-.4.4v.77h-1.69a1.592,1.592,0,0,0-1.59,1.59v19.181a1.592,1.592,0,0,0,1.59,1.59h23.057a1.592,1.592,0,0,0,1.59-1.59V879.863A1.592,1.592,0,0,0-1520.193,878.273Zm0,21.567h-23.057a.8.8,0,0,1-.8-.8V882.6h.2a.4.4,0,0,0,.4-.4.4.4,0,0,0-.4-.4h-.2v-1.938a.8.8,0,0,1,.8-.795h1.69v.77a.4.4,0,0,0,.4.4.4.4,0,0,0,.4-.4v-.77h2.942v.77a.4.4,0,0,0,.4.4.4.4,0,0,0,.4-.4v-.77h2.942v.77a.4.4,0,0,0,.4.4.4.4,0,0,0,.4-.4v-.77h2.942v.77a.4.4,0,0,0,.4.4.4.4,0,0,0,.4-.4v-.77h2.942v.77a.4.4,0,0,0,.4.4.4.4,0,0,0,.4-.4v-.77h2.942v.77a.4.4,0,0,0,.4.4.4.4,0,0,0,.4-.4v-.77h1.888a.8.8,0,0,1,.795.795V881.8h-.2a.4.4,0,0,0-.4.4.4.4,0,0,0,.4.4h.2v16.448A.8.8,0,0,1-1520.193,899.84Z" transform="translate(0 0)" fill="#15376c"/>
        <path id="패스_1131" data-name="패스 1131" d="M-1533.619,894.286a.4.4,0,0,0-.4-.4h-1.193a.4.4,0,0,0-.4.4.4.4,0,0,0,.4.4h1.193A.4.4,0,0,0-1533.619,894.286Z" transform="translate(-6.65 -12.087)" fill="#15376c"/>
        <path id="패스_1132" data-name="패스 1132" d="M-1501.114,894.684h1.193a.4.4,0,0,0,.4-.4.4.4,0,0,0-.4-.4h-1.193a.4.4,0,0,0-.4.4A.4.4,0,0,0-1501.114,894.684Z" transform="translate(-31.205 -12.087)" fill="#15376c"/>
        <path id="패스_1133" data-name="패스 1133" d="M-1523.844,894.684h1.192a.4.4,0,0,0,.4-.4.4.4,0,0,0-.4-.4h-1.192a.4.4,0,0,0-.4.4A.4.4,0,0,0-1523.844,894.684Z" transform="translate(-14.835 -12.087)" fill="#15376c"/>
        <path id="패스_1134" data-name="패스 1134" d="M-1478.384,894.684h1.193a.4.4,0,0,0,.4-.4.4.4,0,0,0-.4-.4h-1.193a.4.4,0,0,0-.4.4A.4.4,0,0,0-1478.384,894.684Z" transform="translate(-47.575 -12.087)" fill="#15376c"/>
        <path id="패스_1135" data-name="패스 1135" d="M-1488.556,893.889h-1.192a.4.4,0,0,0-.4.4.4.4,0,0,0,.4.4h1.192a.4.4,0,0,0,.4-.4A.4.4,0,0,0-1488.556,893.889Z" transform="translate(-39.39 -12.087)" fill="#15376c"/>
        <path id="패스_1136" data-name="패스 1136" d="M-1465.825,893.889h-1.193a.4.4,0,0,0-.4.4.4.4,0,0,0,.4.4h1.193a.4.4,0,0,0,.4-.4A.4.4,0,0,0-1465.825,893.889Z" transform="translate(-55.76 -12.087)" fill="#15376c"/>
        <path id="패스_1137" data-name="패스 1137" d="M-1511.287,893.889h-1.193a.4.4,0,0,0-.4.4.4.4,0,0,0,.4.4h1.193a.4.4,0,0,0,.4-.4A.4.4,0,0,0-1511.287,893.889Z" transform="translate(-23.02 -12.087)" fill="#15376c"/>
        <path id="패스_1138" data-name="패스 1138" d="M-1505.257,911.514h3.511a.4.4,0,0,0,.4-.4V907.6a.4.4,0,0,0-.4-.4h-3.511a.4.4,0,0,0-.4.4v3.511A.4.4,0,0,0-1505.257,911.514Zm.4-3.511h2.716v2.716h-2.716Z" transform="translate(-28.221 -21.679)" fill="#15376c"/>
        <path id="패스_1139" data-name="패스 1139" d="M-1477.591,907.208h-3.511a.4.4,0,0,0-.4.4v3.511a.4.4,0,0,0,.4.4h3.511a.4.4,0,0,0,.4-.4V907.6A.4.4,0,0,0-1477.591,907.208Zm-.4,3.511h-2.716V908h2.716Z" transform="translate(-45.616 -21.679)" fill="#15376c"/>
        <path id="패스_1140" data-name="패스 1140" d="M-1525.9,932.781h-3.511a.4.4,0,0,0-.4.4v3.511a.4.4,0,0,0,.4.4h3.511a.4.4,0,0,0,.4-.4v-3.511A.4.4,0,0,0-1525.9,932.781Zm-.4,3.511h-2.716v-2.716h2.716Z" transform="translate(-10.826 -40.096)" fill="#15376c"/>
        <path id="패스_1141" data-name="패스 1141" d="M-1477.591,932.781h-3.511a.4.4,0,0,0-.4.4v3.511a.4.4,0,0,0,.4.4h3.511a.4.4,0,0,0,.4-.4v-3.511A.4.4,0,0,0-1477.591,932.781Zm-.4,3.511h-2.716v-2.716h2.716Z" transform="translate(-45.616 -40.096)" fill="#15376c"/>
        <path id="패스_1142" data-name="패스 1142" d="M-1477.591,932.781h-3.511a.4.4,0,0,0-.4.4v3.511a.4.4,0,0,0,.4.4h3.511a.4.4,0,0,0,.4-.4v-3.511A.4.4,0,0,0-1477.591,932.781Zm-.4,3.511h-2.716v-2.716h2.716Z" transform="translate(-52.374 -40.096)" fill="#15376c"/>
      </g>
    </g>
  </g>
</svg>
