<svg xmlns="http://www.w3.org/2000/svg" width="208.5" height="81.326" viewBox="0 0 208.5 81.326">
    <defs>
        <style>
            .cls-1{fill:#fff8cf}.cls-2{fill:#484848}.cls-3{font-size:11px;font-family:NotoSansCJKkr-Regular,Noto Sans CJK KR;letter-spacing:.02em}.cls-4{filter:url(#패스_2183)}
        </style>
        <filter id="패스_2183" width="208.5" height="81.326" x="0" y="0" filterUnits="userSpaceOnUse">
            <feOffset dy="3"/>
            <feGaussianBlur result="blur" stdDeviation="3"/>
            <feFlood flood-opacity=".161"/>
            <feComposite in2="blur" operator="in"/>
            <feComposite in="SourceGraphic"/>
        </filter>
    </defs>
    <g id="그룹_2126" data-name="그룹 2126" transform="translate(-1707.25 -107.424)">
        <g id="합치기_1" data-name="합치기 1" transform="translate(5545 -1686)">
            <g class="cls-4" transform="translate(-3837.75 1793.42)">
                <path id="패스_2183-2" d="M-3641 1862.75h-185a2.753 2.753 0 0 1-2.75-2.75v-44a2.753 2.753 0 0 1 2.75-2.75h80.367l.07-.135 6.88-13.285a.737.737 0 0 1 .666-.406.738.738 0 0 1 .666.405l6.88 13.285.07.135h89.4a2.753 2.753 0 0 1 2.749 2.75v44a2.753 2.753 0 0 1-2.748 2.751z" class="cls-1" data-name="패스 2183" transform="translate(3837.75 -1793.42)"/>
            </g>
            <path id="패스_2184" d="M-3641 1862.5a2.5 2.5 0 0 0 2.5-2.5v-44a2.5 2.5 0 0 0-2.5-2.5h-89.554l-.14-.27-6.88-13.285a.492.492 0 0 0-.444-.27.49.49 0 0 0-.443.271l-6.88 13.285-.14.27H-3826a2.5 2.5 0 0 0-2.5 2.5v44a2.5 2.5 0 0 0 2.5 2.5h185m0 .5h-185a3 3 0 0 1-3-3v-44a3 3 0 0 1 3-3h80.215l6.88-13.285a.988.988 0 0 1 .888-.541.989.989 0 0 1 .888.541l6.88 13.285H-3641a3 3 0 0 1 3 3v44a3 3 0 0 1-3 2.999z" class="cls-2" data-name="패스 2184"/>
        </g>
        <g id="그룹_1708" data-name="그룹 1708" transform="translate(1235 80)">
            <g id="그룹">
                <text id="검토하고자_하는_부분을" class="cls-3" data-name="검토하고자 하는 부분을" transform="translate(523.726 68)">
                    <tspan x="0" y="0">검토하고자 하는 부분을</tspan>
                </text>
                <text id="클릭하여_재검토를_시작해주세요" class="cls-3" data-name="클릭하여 재검토를 시작해주세요" transform="translate(501.704 85)">
                    <tspan x="0" y="0">클릭하여 재검토를 시작해주세요</tspan>
                </text>
            </g>
        </g>
    </g>
</svg>
