<svg xmlns="http://www.w3.org/2000/svg" width="22" height="22" viewBox="0 0 22 22">
  <path id="패스_1219" data-name="패스 1219" d="M496.107,745h-4.213a.468.468,0,0,1-.468-.468v-2.166a8.776,8.776,0,0,1-1.53-.621l-1.522,1.523a.469.469,0,0,1-.331.137h0a.469.469,0,0,1-.331-.137l-2.977-2.979a.468.468,0,0,1,0-.662l1.481-1.482a8.823,8.823,0,0,1-.677-1.57h-2.07a.468.468,0,0,1-.468-.468v-4.213a.468.468,0,0,1,.468-.468h1.985a8.891,8.891,0,0,1,.663-1.668l-1.383-1.384a.468.468,0,0,1,0-.662l2.977-2.979a.469.469,0,0,1,.662,0l1.344,1.344a8.84,8.84,0,0,1,1.708-.72v-1.888a.468.468,0,0,1,.468-.468h4.213a.468.468,0,0,1,.468.468v1.889a8.845,8.845,0,0,1,1.709.72l1.343-1.344a.482.482,0,0,1,.662,0l2.978,2.979a.468.468,0,0,1,0,.662l-1.384,1.384a8.875,8.875,0,0,1,.663,1.668h1.985a.468.468,0,0,1,.468.468v4.213a.468.468,0,0,1-.468.468h-2.069a8.853,8.853,0,0,1-.678,1.57l1.483,1.482a.468.468,0,0,1,0,.662l-2.978,2.979a.468.468,0,0,1-.662,0l-1.523-1.523a8.771,8.771,0,0,1-1.53.62v2.166A.468.468,0,0,1,496.107,745Zm-3.745-.936h3.277v-2.053a.468.468,0,0,1,.351-.453,7.854,7.854,0,0,0,1.963-.8.468.468,0,0,1,.565.074l1.44,1.44,2.316-2.317-1.406-1.405a.468.468,0,0,1-.069-.574,7.932,7.932,0,0,0,.864-2,.468.468,0,0,1,.451-.343h1.95v-3.277h-1.878a.469.469,0,0,1-.455-.358,7.932,7.932,0,0,0-.832-2.1.467.467,0,0,1,.075-.564l1.3-1.3-2.316-2.317-1.266,1.267a.468.468,0,0,1-.574.069,7.94,7.94,0,0,0-2.128-.9.468.468,0,0,1-.351-.453v-1.776h-3.277v1.776a.468.468,0,0,1-.351.453,7.909,7.909,0,0,0-2.127.9.469.469,0,0,1-.574-.069l-1.268-1.267-2.316,2.317,1.3,1.3a.468.468,0,0,1,.075.564,7.922,7.922,0,0,0-.831,2.1.468.468,0,0,1-.455.358h-1.878v3.277h1.95a.469.469,0,0,1,.452.344,7.859,7.859,0,0,0,.862,2,.468.468,0,0,1-.069.574l-1.4,1.405,2.316,2.316,1.439-1.44a.468.468,0,0,1,.564-.074,7.865,7.865,0,0,0,1.964.8.468.468,0,0,1,.352.453Zm1.639-5.8a4.26,4.26,0,1,1,4.259-4.26A4.265,4.265,0,0,1,494,738.26Zm0-7.584A3.324,3.324,0,1,0,497.323,734,3.328,3.328,0,0,0,494,730.676Z" transform="translate(-483 -723)"/>
</svg>
