<svg xmlns="http://www.w3.org/2000/svg" width="20.496" height="20.581" viewBox="0 0 20.496 20.581">
  <path id="패스_1204" data-name="패스 1204" d="M11.556,27.581a.479.479,0,0,1-.478-.479V23.376H7.171A3.232,3.232,0,0,1,4,20.094V10.282A3.194,3.194,0,0,1,7.171,7H21.325a3.231,3.231,0,0,1,3.17,3.282v9.812a3.271,3.271,0,0,1-3.17,3.282H17.1l-5.254,4.1A.479.479,0,0,1,11.556,27.581ZM7.171,7.957a2.247,2.247,0,0,0-2.214,2.325v9.812a2.274,2.274,0,0,0,2.214,2.324h4.385a.479.479,0,0,1,.479.479v3.224l4.611-3.6a.477.477,0,0,1,.295-.1h4.385a2.3,2.3,0,0,0,2.213-2.324V10.282a2.274,2.274,0,0,0-2.213-2.325Z" transform="translate(-4 -7)"/>
</svg>
