<svg xmlns="http://www.w3.org/2000/svg" width="23.152" height="20.196" viewBox="0 0 23.152 20.196">
  <path id="패스_1207" data-name="패스 1207" d="M25.951,17.176,14.981,9.1a.493.493,0,0,0-.58,0L5.235,15.708a.49.49,0,0,0-.224.162L3.2,17.173a.493.493,0,1,0,.576.8l1.125-.812V28.7A.493.493,0,0,0,5.4,29.2h6.534a.493.493,0,0,0,.493-.493V24.042h4.148V28.7a.493.493,0,0,0,.493.493h6.767a.493.493,0,0,0,.493-.493V17.2l1.041.767a.493.493,0,0,0,.585-.793ZM23.34,28.211H17.558V23.55a.493.493,0,0,0-.493-.493H11.932a.493.493,0,0,0-.493.493v4.661H5.89V16.449l8.8-6.347,8.653,6.374Z" transform="translate(-3 -9)"/>
</svg>
