<svg xmlns="http://www.w3.org/2000/svg" width="18.908" height="22.496" viewBox="0 0 18.908 22.496">
  <path id="패스_1206" data-name="패스 1206" d="M389.169,139.674a9.179,9.179,0,0,0-5.031-6.206,6.193,6.193,0,0,0,.032-8.585A6.046,6.046,0,0,0,379.879,123h-.108a6.176,6.176,0,0,0-4.4,10.445c.022.023.044.044.066.066a9.187,9.187,0,0,0-4.916,6.089,3.368,3.368,0,0,0,.586,3.057c1.753,2.246,6.325,2.84,8.835,2.84h.112c4.66-.007,7.487-1.469,8.5-2.748A3.391,3.391,0,0,0,389.169,139.674Zm-14.552-10.6a5.188,5.188,0,0,1,5.155-5.117h.091a5.094,5.094,0,0,1,3.616,1.587,5.218,5.218,0,0,1-3.8,8.825,5.1,5.1,0,0,1-3.616-1.587A5.2,5.2,0,0,1,374.617,129.073Zm13.19,13.078c-1.35,1.7-5.152,2.43-8.109,2.384h-.018c-2.933-.038-6.523-.812-7.817-2.47a2.425,2.425,0,0,1-.414-2.229,8.182,8.182,0,0,1,4.8-5.637,6.031,6.031,0,0,0,3.418,1.126h.108a6.045,6.045,0,0,0,3.56-1.159l.017.007a8.237,8.237,0,0,1,4.894,5.729A2.447,2.447,0,0,1,387.807,142.151Z" transform="translate(-370.388 -122.999)"/>
</svg>
