<svg xmlns="http://www.w3.org/2000/svg" xmlns:xlink="http://www.w3.org/1999/xlink" width="706" height="224.5" viewBox="0 0 706 224.5">
  <defs>
    <filter id="패스_54" x="9.516" y="42.315" width="46.618" height="46.768" filterUnits="userSpaceOnUse">
      <feOffset dx="1" dy="1" input="SourceAlpha"/>
      <feGaussianBlur stdDeviation="0.5" result="blur"/>
      <feFlood flood-opacity="0.161"/>
      <feComposite operator="in" in2="blur"/>
      <feComposite in="SourceGraphic"/>
    </filter>
  </defs>
  <g id="그룹_1850" data-name="그룹 1850" transform="translate(-780 -2494)">
    <path id="패스_1185" data-name="패스 1185" d="M531.232,472.611A73.654,73.654,0,0,0,527.4,482.1l-1.462-3.389c-.447-1.036-1.963-.142-1.519.888l2.383,5.527c.31.717,1.43.466,1.607-.21a64.991,64.991,0,0,1,4.336-11.414C533.236,472.482,531.72,471.589,531.232,472.611Z" transform="translate(266.821 2037.105)" fill="#fff"/>
    <g id="사각형_463" data-name="사각형 463" transform="translate(1332 2548.444)" fill="#15376c" stroke="#15376c" stroke-width="1">
      <rect width="126.69" height="44.607" rx="7" stroke="none"/>
      <rect x="0.5" y="0.5" width="125.69" height="43.607" rx="6.5" fill="none"/>
    </g>
    <rect id="사각형_464" data-name="사각형 464" width="148.69" height="224.032" transform="translate(780.5 2494.164)" fill="#15376c"/>
    <path id="패스_1177" data-name="패스 1177" d="M0,52.791V0H99.21" transform="translate(1108.553 2681.552) rotate(-90)" fill="none" stroke="#d6d6d6" stroke-width="3"/>
    <path id="패스_1178" data-name="패스 1178" d="M9.665,0V9.665H0Z" transform="translate(1108.505 2590.126) rotate(-135)" fill="#d6d6d6"/>
    <path id="패스_1179" data-name="패스 1179" d="M0,0H37.245" transform="translate(919.755 2571.442)" fill="none" stroke="#15376c" stroke-width="8"/>
    <path id="패스_1180" data-name="패스 1180" d="M0,0H37.245" transform="translate(1088.755 2571.442)" fill="none" stroke="#15376c" stroke-width="8"/>
    <path id="패스_1181" data-name="패스 1181" d="M0,0H62.341" transform="translate(1259.755 2571.442)" fill="none" stroke="#15376c" stroke-width="8"/>
    <path id="패스_1182" data-name="패스 1182" d="M9.665,0V9.665H0Z" transform="translate(947.742 2571.395) rotate(-45)" fill="#15376c"/>
    <path id="패스_1183" data-name="패스 1183" d="M9.665,0V9.665H0Z" transform="translate(1116.742 2571.395) rotate(-45)" fill="#15376c"/>
    <path id="패스_1184" data-name="패스 1184" d="M9.665,0V9.665H0Z" transform="translate(1313.839 2571.395) rotate(-45)" fill="#15376c"/>
    <rect id="사각형_465" data-name="사각형 465" width="133.821" height="71.208" rx="10" transform="translate(786 2536)" fill="#fff"/>
    <text id="지급명령_신청서_작성" data-name="지급명령
신청서 작성" transform="translate(854.981 2566)" fill="#15376c" font-size="18" font-family="NotoSansCJKkr-Bold, Noto Sans CJK KR" font-weight="700"><tspan x="-33.12" y="0">지급명령</tspan><tspan x="-43.443" y="26">신청서 작성</tspan></text>
    <g id="사각형_466" data-name="사각형 466" transform="translate(963 2548.444)" fill="#fff" stroke="#15376c" stroke-width="1">
      <rect width="126.69" height="44.607" rx="7" stroke="none"/>
      <rect x="0.5" y="0.5" width="125.69" height="43.607" rx="6.5" fill="none"/>
    </g>
    <g id="사각형_467" data-name="사각형 467" transform="translate(1134 2548.444)" fill="#fff" stroke="#15376c" stroke-width="1">
      <rect width="126.69" height="44.607" rx="7" stroke="none"/>
      <rect x="0.5" y="0.5" width="125.69" height="43.607" rx="6.5" fill="none"/>
    </g>
    <text id="지급명령_신청서_제출" data-name="지급명령 신청서 제출" transform="translate(1026 2574.844)" fill="#15376c" font-size="13" font-family="NotoSansCJKkr-Medium, Noto Sans CJK KR" font-weight="500"><tspan x="-56.745" y="0">지급명령 신청서 제출</tspan></text>
    <text id="법원의_지급명령_결정" data-name="법원의 지급명령 결정" transform="translate(1197.679 2574.844)" fill="#15376c" font-size="13" font-family="NotoSansCJKkr-Medium, Noto Sans CJK KR" font-weight="500"><tspan x="-56.745" y="0">법원의 지급명령 결정</tspan></text>
    <g id="사각형_468" data-name="사각형 468" transform="translate(1332 2662)" fill="#d6d6d6" stroke="#d6d6d6" stroke-width="3">
      <rect width="126.899" height="37.172" rx="7" stroke="none"/>
      <rect x="1.5" y="1.5" width="123.899" height="34.172" rx="5.5" fill="none"/>
    </g>
    <text id="지급명령_확정" data-name="지급명령 확정" transform="translate(1395.357 2576.87)" fill="#fff" font-size="17" font-family="NotoSansCJKkr-Medium, Noto Sans CJK KR" font-weight="500"><tspan x="-48.833" y="0">지급명령 확정</tspan></text>
    <text id="민사_소송" data-name="민사 소송" transform="translate(1395 2685)" fill="#959595" font-size="13" font-family="NotoSansCJKkr-Medium, Noto Sans CJK KR" font-weight="500"><tspan x="-25.382" y="0">민사 소송</tspan></text>
    <text id="보정사항이_있는_경우" data-name="보정사항이
있는 경우" transform="translate(1201.254 2630.754)" fill="#959595" font-size="11" font-family="NotoSansCJKkr-Regular, Noto Sans CJK KR"><tspan x="0" y="0">보정사항이</tspan><tspan x="0" y="15">있는 경우</tspan></text>
    <text id="채무자_이의_신청_14일내_" data-name="채무자
이의 신청
(14일내)" transform="translate(1282.007 2640.084)" fill="#959595" font-size="11" font-family="NotoSansCJKkr-Regular, Noto Sans CJK KR"><tspan x="0" y="0">채무자</tspan><tspan x="0" y="15">이의 신청</tspan><tspan x="0" y="30">(14일내)</tspan></text>
    <text id="채무자의_이의_신청_없음_14일내_" data-name="채무자의
이의 신청 없음
(14일내)" transform="translate(1263.474 2529.823)" fill="#b4240d" font-size="11" font-family="NotoSansCJKkr-Regular, Noto Sans CJK KR"><tspan x="0" y="0">채무자의</tspan><tspan x="0" y="15">이의 신청 없음</tspan><tspan x="0" y="30">(14일내)</tspan></text>
    <text id="직접_법원_방문_또는_인터넷_신청" data-name="직접 법원 방문 또는 
인터넷 신청" transform="translate(970.791 2528.566)" fill="#707070" font-size="11" font-family="NotoSansCJKkr-Regular, Noto Sans CJK KR"><tspan x="0" y="0">직접 법원 방문 또는 </tspan><tspan x="0" y="15">인터넷 신청</tspan></text>
    <text id="로폼의_서비스_영역" data-name="로폼의 서비스 영역" transform="translate(858 2521.572)" fill="#fff" font-size="14" font-family="NotoSansCJKkr-Bold, Noto Sans CJK KR" font-weight="700"><tspan x="-54.698" y="0">로폼의 서비스 영역</tspan></text>
    <path id="패스_1185-2" data-name="패스 1185" d="M531.232,472.611A73.654,73.654,0,0,0,527.4,482.1l-1.462-3.389c-.447-1.036-1.963-.142-1.519.888l2.383,5.527c.31.717,1.43.466,1.607-.21a64.991,64.991,0,0,1,4.336-11.414C533.236,472.482,531.72,471.589,531.232,472.611Z" transform="translate(266.821 2036.105)" fill="#fff"/>
    <g id="그룹_1763" data-name="그룹 1763" transform="translate(-6.611 529)">
      <path id="패스_33" data-name="패스 33" d="M685.048,588.3l-.142.246.4-.147C685.386,588.33,685.306,588.219,685.048,588.3Z" transform="translate(157.364 1419.26)" fill="#ffe872" stroke="#ffe872" stroke-linejoin="round" stroke-width="0.5"/>
      <path id="패스_34" data-name="패스 34" d="M682.348,588.579c-.108-.023-.026-.1-.012-.14-.288.169-.6.423-.358.564.259-.265.352-.2.629-.508.258-.084.474-.039.447.046.081-.074.418-.048.532-.208A1.829,1.829,0,0,0,682.348,588.579Z" transform="translate(158.477 1419.248)" fill="#ffe872" stroke="#ffe872" stroke-linejoin="round" stroke-width="0.5"/>
      <path id="패스_35" data-name="패스 35" d="M621.835,617.609c.093-.085.119-.134.112-.153C621.867,617.542,621.8,617.613,621.835,617.609Z" transform="translate(180.661 1408.482)" fill="#ffe872" stroke="#ffe872" stroke-linejoin="round" stroke-width="0.5"/>
      <path id="패스_36" data-name="패스 36" d="M618.2,620.244l.135-.1A.277.277,0,0,0,618.2,620.244Z" transform="translate(182 1407.488)" fill="#ffe872" stroke="#ffe872" stroke-linejoin="round" stroke-width="0.5"/>
      <path id="패스_37" data-name="패스 37" d="M643.186,603.167l-.415.157C642.778,603.4,642.992,603.259,643.186,603.167Z" transform="translate(172.926 1413.759)" fill="#ffe872" stroke="#ffe872" stroke-linejoin="round" stroke-width="0.5"/>
      <path id="패스_38" data-name="패스 38" d="M677.206,590.626a.993.993,0,0,0,.214-.112l-.209.078A.251.251,0,0,1,677.206,590.626Z" transform="translate(160.207 1418.432)" fill="#ffe872" stroke="#ffe872" stroke-linejoin="round" stroke-width="0.5"/>
      <path id="패스_39" data-name="패스 39" d="M653.527,597.577l.12-.058a.7.7,0,0,0,.065-.125Z" transform="translate(168.953 1415.891)" fill="#ffe872" stroke="#ffe872" stroke-linejoin="round" stroke-width="0.5"/>
      <path id="패스_40" data-name="패스 40" d="M661.557,594.165c-.12.04-.1.221-.111.311a.439.439,0,0,1,.209-.215A.191.191,0,0,0,661.557,594.165Z" transform="translate(166.028 1417.084)" fill="#ffe872" stroke="#ffe872" stroke-linejoin="round" stroke-width="0.5"/>
      <path id="패스_41" data-name="패스 41" d="M675.008,590.092l.142-.068Z" transform="translate(161.019 1418.613)" fill="#ffe872" stroke="#ffe872" stroke-linejoin="round" stroke-width="0.5"/>
      <path id="패스_42" data-name="패스 42" d="M645.432,610.168c.011.009.02,0,.03.01C645.455,610.142,645.447,610.128,645.432,610.168Z" transform="translate(171.943 1411.182)" fill="#ffe872" stroke="#ffe872" stroke-linejoin="round" stroke-width="0.5"/>
      <path id="패스_43" data-name="패스 43" d="M649.927,600.969l-.018.088a.355.355,0,0,0,.089.047Z" transform="translate(170.289 1414.571)" fill="#ffe872" stroke="#ffe872" stroke-linejoin="round" stroke-width="0.5"/>
      <path id="패스_45" data-name="패스 45" d="M643.054,614.258c.156.534-.642-.617-.354.152C642.718,614.31,643.328,614.873,643.054,614.258Z" transform="translate(172.975 1409.708)" fill="#ffe872" stroke="#ffe872" stroke-linejoin="round" stroke-width="0.5"/>
      <path id="패스_46" data-name="패스 46" d="M676.849,590.714l-.218.059A1.218,1.218,0,0,0,676.849,590.714Z" transform="translate(160.42 1418.359)" fill="#ffe872" stroke="#ffe872" stroke-linejoin="round" stroke-width="0.5"/>
      <path id="패스_47" data-name="패스 47" d="M631.016,634.579a.333.333,0,0,0-.1-.1C630.917,634.494,630.939,634.522,631.016,634.579Z" transform="translate(177.303 1402.196)" fill="#ffe872" stroke="#ffe872" stroke-linejoin="round" stroke-width="0.5"/>
      <path id="패스_48" data-name="패스 48" d="M645.363,637.734c-.021-.019-.051-.037-.076-.055l-.148-.027Z" transform="translate(172.051 1401.023)" fill="#ffe872" stroke="#ffe872" stroke-linejoin="round" stroke-width="0.5"/>
      <path id="패스_49" data-name="패스 49" d="M637.749,631.469a.694.694,0,0,1,.225-.151C637.83,631.343,638.029,630.672,637.749,631.469Z" transform="translate(174.78 1403.451)" fill="#ffe872" stroke="#ffe872" stroke-linejoin="round" stroke-width="0.5"/>
      <path id="패스_50" data-name="패스 50" d="M677.092,590.541a.168.168,0,0,1-.115.109l.149-.048C677.133,590.573,677.129,590.547,677.092,590.541Z" transform="translate(160.292 1418.423)" fill="#ffe872" stroke="#ffe872" stroke-linejoin="round" stroke-width="0.5"/>
      <path id="패스_51" data-name="패스 51" d="M643.621,635.039a1.6,1.6,0,0,0,.383.22.294.294,0,0,0,.1-.023Z" transform="translate(172.612 1401.988)" fill="#ffe872" stroke="#ffe872" stroke-linejoin="round" stroke-width="0.5"/>
      <path id="패스_52" data-name="패스 52" d="M630.69,626.6c.008.047.016.1.03.161C630.709,626.707,630.7,626.652,630.69,626.6Z" transform="translate(177.388 1405.105)" fill="#ffe872" stroke="#ffe872" stroke-linejoin="round" stroke-width="0.5"/>
      <g transform="matrix(1, 0, 0, 1, 786.61, 1965)" filter="url(#패스_54)">
        <path id="패스_54-2" data-name="패스 54" d="M654.595,589.765a4.928,4.928,0,0,0,1.454-.648l-.352.021c.189-.058.133.115,0,.182-.416.247-.661.112-.7.059l.322-.126c-.43-.26-1.32.405-1.993.559l.211-.326-.629.391c-.163-.023-.3-.136.016-.268-.512.013-.4.214-.846.2-.051-.008-.034-.026.005-.049l-.444.213c.076-.08-.13-.155.167-.2-.881.1-1.292.588-1.665.491l.065-.036c-1.127.451-.055.217-.847.714l-.727-.26-.052.22c-.12.033-.359.1-.341.009-.4.271.1.054-.114.257-.631.013-1.537.615-1.766.377-.153.212.577-.091.01.225-.284-.247-.676.308-1.243.355.1-.217.619-.312.05-.265-.211.382-1.028.308-1.437.541.064.221-.9.465-1.591.827a16.379,16.379,0,0,0-2.091.675l0-.044c-.034.27-.737.526-1.21.8-.039-.135.026-.228.271-.4-.156.069-.312.138-.465.214a1.363,1.363,0,0,1-.493.391l.042-.213a12.654,12.654,0,0,1-1.989,1.051c.03.168.823.1.045.6-.069-.062-.167-.18.032-.323a1.194,1.194,0,0,1-.376.234l.262-.3c-.383.126-.13.2-.418.339-.051-.114-.25.03-.254-.08.066-.048.27-.082.356-.182a2.631,2.631,0,0,1-.919.262c.06.049.077.149-.149.284-.6.321-.276-.025-.659.1-.106.153-.534.274-.456.443a.432.432,0,0,1-.34.029c-.269.244-1.426.824-.983.8l.085-.033-.046.035c-.921.711-2.132,1.1-3.071,1.76l-.031-.054c-.158.116-.331.234-.5.352a1.854,1.854,0,0,0-.409-.338c-.023-.114-.016-.289.157-.086a19.508,19.508,0,0,0-1.4-1.819l-.358-.438-.226-.3-.249-.341a15.3,15.3,0,0,1-.873-1.327.749.749,0,0,1,.115,0c-.286-.356-.44-.316-.784-.966,0-.064.078-.053-.051-.245-.068-.067-.23-.226-.41-.428l-.068-.078c-.023-.026-.053-.079-.048.006l-.023.3a3.638,3.638,0,0,1-.065.463l-.015-.769a21.229,21.229,0,0,0-.284,3.141c-.01.456-.014.892-.008,1.264a7.524,7.524,0,0,1,.008.83c-.274-.033-.488,1.064-.578,1.613l-.038-.023a17.36,17.36,0,0,0-.059,2.873c-.639.577-1.1,1.231-1.871,1.422-.208.336.67-.368.509-.035-.535.351-1.242.528-1.4.654-.762.454-.453.749-1.222,1.256.139-.015.35.073-.141.551-.507.388-.8.265-.53-.044.113-.1.185-.134.2-.11.141-.155.337-.344.085-.251l-.018.11c-.293.144-.961.721-.882.493-.325.368-.079.227.22.026-.7.448-.983.827-1.678,1.319.13-.056.283-.07.18.016-1,.751-.322.465-.923,1.059-.426.256-.066-.323-.615.356-.428.327-.223-.055-.115-.253-.461.667-1.1,1.07-1.4,1.507.067-.145.137-.291.214-.422l-.381.651a2.374,2.374,0,0,1,.269-.158c-.173.209-.273.446-.33.408-.035.307.3-.1.21.483a1.523,1.523,0,0,0-.175.725c-.024.276.034.523-.05.624a4.569,4.569,0,0,1-.06-.573c-.014-.068-.043-.045-.075-.014s-.068.073-.095.027a.481.481,0,0,1-.032-.181,3.392,3.392,0,0,0-.006.59c-.012.059-.051-.047-.077-.15a3.133,3.133,0,0,0,.048.481,1.467,1.467,0,0,0,.121.291.547.547,0,0,0,.234.257,1.912,1.912,0,0,1,.288.187c.052.047.136.112.246.193s.222.148.357.225c-.2.016.162.339.344.377-.441-.207-.116-.246.286-.179.619.315.716.166,1.043.27l-.366-.144a2.512,2.512,0,0,1,.909.1c.017.095-.409-.039-.263.037.533-.074,1.024.455,1.722.493.289.15-.021.211.237.328.778.042.768.347,1.577.423-.189-.2-.237-.175.348-.182l-1.309-.213.876-.009c-.387-.1-.84-.11-1.066-.192.421-.023.372,0,.217-.163.476.349,1.082.13,1.658.429l-.108.358a9.986,9.986,0,0,0,2.191.432c.049.32.069.67.138.966l-.179-.018a25.154,25.154,0,0,0,.01,2.74l-.133-.25c0,.7.538.87.565,1.512l-.262.2a16.861,16.861,0,0,0,.158,3.65c-.04-.018-.119-.049-.141-.246.024.573-.061,2.226.293,2-.237.029.061,1.256.21,1.9l-.182-.09a3.2,3.2,0,0,1,.449,1.317.216.216,0,0,1-.015.068l-.014.037c-.036.048-.091,0-.073-.18a1.269,1.269,0,0,0,.013.339c-.025.066-.052.137-.076.2l.028.578c-.037.122-.145.206-.142.063l-.033.078.276.025a1.083,1.083,0,0,0,.054.233l.92.082a1.809,1.809,0,0,0-.024-.23l.395.035c0-.407-.129.049-.217-.194-.038-.313.072-.423.144-.229-.036-.143-.073-.309-.111-.484.107-.23.23-.417.316-.438a1.052,1.052,0,0,1,.048-.814c.073-.03.069.108.067.179.42-.964.254-1.548.636-2.183a.155.155,0,0,0,.137-.084c-.257.789-.453,1.428-.449,1.363.155.047.377-.584.436-.01a6.584,6.584,0,0,1,.335-2.1.294.294,0,0,1,.08-.065l0,.07a1.256,1.256,0,0,0,.1-.4,4.125,4.125,0,0,0,.213-.5c.149-.032.313-.706.426-1.021-.177-.03-.01-.436-.28-.094.029-.046,0,.067-.064.28a1,1,0,0,0-.028.141l-.007-.026c-.066.209-.153.482-.251.793a1.415,1.415,0,0,1,.223-.885c-.053-.2-.1-.416-.122-.534.381-.356.788-1.15.975-1.215a11.657,11.657,0,0,0,.636-3.012c.057-.288.2-.283.288-.368a2.613,2.613,0,0,0-.083.458c.115-.577.548-1.635.379-1.844.317-.592.11.262.3-.286a.787.787,0,0,0,.286.082.207.207,0,0,0-.043-.033.436.436,0,0,1-.243-.05l.013-.038a.629.629,0,0,1,.229.088.783.783,0,0,1,.563-.042c.032.034-.016.059-.016.059.016-.059.564.053.293-.156.862.612,2.675.63,3.427,1.159.686.126,1.51.288,2.127.431-.048.026-.016.059-.129.018.819.321.606-.219,1.539.144.445.317-.538-.021-.249.129.036.431,1.177.232,1.768.624l-.163-.015a1.083,1.083,0,0,0,.189.081c.109.032.226.061.346.087.242.052.5.091.752.127a12.035,12.035,0,0,1,1.6.285s0,.037.089.086a1.558,1.558,0,0,1,.221-.02h.194c.019,0,.064.016.018-.037l-.583-.849-.952-1.469c.322.245.327.409.411.226-.139-.225-.19-.183-.277-.2s-.2-.074-.421-.412c-.04-.246-.23-.735-.114-.88l.345.585c.023-.414-.442-.759-.585-1.089l.107-.009c-.549-.885-.769-.773-1.316-1.747l-.006.137c-.521-.4-.141-.511-.607-.943l.12-.286c-.254-.318-.928-1.09-1.339-1.685a11.018,11.018,0,0,1,1.246,1.327,5.736,5.736,0,0,0-.924-1.272,1.516,1.516,0,0,1,.308.424,5.353,5.353,0,0,1-1.243-1.5c.489-.132-.976-1.833-.964-2.52a19.9,19.9,0,0,1-1.682-2.721c.038-.078.072-.159.113-.236a2.232,2.232,0,0,0,.227-1.2l.23-.08.038-.766c.2-1.034,1.041-1.548,1.182-2.9l-.177.119c.181-.439.41-1.446.524-1.324a.353.353,0,0,1,.044-.344l.1.018.205-1.159c.344-.837.334.258.752-1,.112-.481.145-1.419.025-1.263-.064.187-.211.463-.311.447l.086-.441a1.614,1.614,0,0,1-.136-.1,5.4,5.4,0,0,1,1.948-.889c-.163.079-.356.254-.226.192l1.128-.628c-.153-.088-.19-.007-.482.008a2.079,2.079,0,0,1,.7-.5c-.489.328.1.208.365.184-.057-.024,0-.1-.037-.136.723-.035-.017-.313.9-.525l-.014.09a5.757,5.757,0,0,1,.9-.526c.208.093-.305.221-.271.358.472-.221.817-.711,1.323-.728-.187.128-.485.242-.668.376a2.371,2.371,0,0,0,.953-.2l-.036.01.851-.247-.228.034c.444-.646,1.2-.588,1.923-1.149-.707.549-.077.2-.071.4.229-.028.57-.09.5-.006.336-.288.69-.124,1.163-.538.045.049.418-.147.382.031.489-.231-.155-.057-.139-.146.713-.487,1.932-.38,2.976-1.035.948-.421,1.075-.663,1.968-1.039.338,0-.192.29-.192.29a4.3,4.3,0,0,0,1.352-.392c-.082.077.03.095.193.123.377-.115.2-.283.724-.327a1.337,1.337,0,0,1-.317.339c.434-.172.849-.4,1.3-.575C655.131,589.495,654.74,589.654,654.595,589.765Zm-27.974,36.07-.013-.031a.233.233,0,0,1,.057.112c-.047.218-.1.278-.148.3Zm2.178-23c1.035,1.065,1.24,1.946,2.045,2.856a4.377,4.377,0,0,0,.817,1.658c-.031.045-.061.089-.094.144.211.141.011.853.018,1.278-.424.462-.151-.431-.429-.339.2.042-.159,1.015.066.887-.291.365-.2.334-.47.477.263.18-.094.406-.043.817-.365.549-.329.055-.485.749-.2.282-.091-.344-.091-.344-.253.672.1.4.17.585-.235.827-.3.313-.511.545-.127.524-.069.983-.216,1.355-.046.014-.086.083-.1-.02-.023.595-.574,1.581-.583,2.28a.193.193,0,0,1-.085.061.347.347,0,0,1,.335.015c-.107.3-.068.612-.253.673a.421.421,0,0,0,.008-.324l-.055.34c-.31.21.088-.458-.064-.514-.1.387-.172.819-.264,1.205a.519.519,0,0,0-.146.013c.015-.081-.008-.09-.115.053l-.01,0,.322-.66c-.523.444.185-.437-.343-.047-.1.234-.171.421-.223.583-.844-.347-1.793-.129-2.2-.628-.662-.1-1.3-.2-1.923-.308l-.041-.127.237-.332-.044-.433c-.014.172-.092.366-.148.339a3.185,3.185,0,0,1,.256-1.663l-.125-1.6c.059.028.084.189.112.358-.093-.6.227-.045.077-.776-.047.1-.114-.06-.153-.079a7.41,7.41,0,0,0,.14-1.932l.129.132c.077-1.184.052-2.5.137-3.831-.094.473-.318.349-.315-.042l.215-.143c-.11-.26-.1.4-.225-.124.056-.5.255-.318.3-.03l-.031-.608c.063-.031.086.112.162.155-.112-.257.273-1.027.084-1.4l.064-.029c.013-.159.023-.306.032-.447l.03-.01.052-.215-.071.059c0-.047.006-.093.009-.138a7.3,7.3,0,0,1,.64-.422c.354.043-.62.5-.254.489.864-.659,1.736-1.421,2.636-2.03a2.876,2.876,0,0,0,.3.324l-.055-.051.9,1.027C629.257,603.169,628.626,602.391,628.8,602.83Zm-3.988-.424,0-.044.127-.05C624.9,602.348,624.855,602.374,624.811,602.406Zm.12-3.407c.084-.407.18-1.03.172-1.007a.511.511,0,0,0-.1-.218.342.342,0,0,1-.114-.186c.149.121.17-.187.247.155l.009-.227c.007-.054-.011-.2.029-.133.06.048.117.068.307.223-.016-.138-.07-.264-.032-.306.1.094.167.354.11.409l-.025-.006a.693.693,0,0,1,.187.181c.124.17.25.362.366.554.237.386.452.8.664,1.2.241.455.477.891.726,1.27-.131.037-.249.04-.228-.031a3.876,3.876,0,0,1-1.115.736c.382-.376-.206.018.409-.359a3.286,3.286,0,0,0-1.289.883c.076-.182-.185-.066-.439.1.017-.377.036-.749.075-1.205-.175-.038-.1-.456-.209-.792C624.748,599.847,624.846,599.434,624.931,599Zm-5.675,16.209c-.341-.123.228-.071.358-.089-.694-.11-1.35-.279-1.989-.438s-1.271-.292-1.85-.387c.011-.025.139-.015.262-.005-.229-.052-.5-.194-.515-.064l.224.035c.151.141-.1.175-.4.163s-.63-.085-.672-.053c.265-.078-.01-.223-.138-.376a.329.329,0,0,1-.083-.225c.011-.059.087-.08.232-.077-.07-.058-.206-.121-.261-.064-.037-.155,0-.191.139-.12a2.068,2.068,0,0,1-.2-.356c-.042-.084-.078-.177.029-.481.061.023.026.154.1.226a1.43,1.43,0,0,1,.424-1.186c.008.053.09.025-.02.172a8.6,8.6,0,0,1,2.032-2.382c-.1.448.383-.215.591-.077l.472-.491-.282.089a12.909,12.909,0,0,1,1.189-1.123l-.275.36c.275-.249.545-.507.826-.75-.186.1-.361.223-.542.334.386-.48-.244-.195.415-.644a5.865,5.865,0,0,1,.8-.453v0a2.493,2.493,0,0,1,.756-.721c.136-.011.088.263.177.256.1-.344,1.068-.9,1.242-1.278-.069.113,0,.215.047.211l.1-.273c.252-.123.3-.127.322-.021.656-.451-.3-.116.387-.513v.078a.486.486,0,0,1-.034.038l.035-.024c0,.085,0,.167,0,.253-.369.923-.334,3.189-.566,4.7.06-.23.215.048.232.318-.07.354.154.992-.1.927l.01-.127c-.26.259-.225,1-.243,1.568l.33.1a10.982,10.982,0,0,0-.17,3.518A20.747,20.747,0,0,1,619.256,615.209Zm3.394.657c0,.046,0,.09,0,.133-.482-.088-.959-.178-1.428-.271C621.316,615.518,622.26,615.867,622.65,615.866Zm2.192,12.1c-.016-.086-.148.221-.259.409l.189-.585C624.845,627.763,624.889,627.833,624.842,627.968Zm.166-.941h0l.1-.334Zm1.755-6.146a1.207,1.207,0,0,1-.126,1.174l-.143-.326c-.35.933.141.652-.356,1.584-.029-.206.182-.766.1-.633-.4.577-.028.5-.2.987l-.238.033c-.306,1.018-.539,2.174-.856,3.307-.041-.081-.043-.294-.19-.052-.141.569-.327,1.158-.525,1.745a5.046,5.046,0,0,1,.028-.723l.068.2c.019-.8-.433-.88-.3-1.633l.04.141a30.988,30.988,0,0,1-.012-4.994c-.279-.246.078-1.723-.291-1.828a12.742,12.742,0,0,0,.354-2.112.663.663,0,0,0-.017-.143c.056.039.116.078.168.119,0-.095.873.224,1.041.009l.494.291c.871.278,1.148-.009,1.9.148-.027.076-.059.16-.095.25a1.594,1.594,0,0,1-.251-.008l.231.06c-.021.052-.039.1-.064.158.033.257.192-.012.225.245C627.458,620.32,626.856,619.775,626.763,620.88Zm6.3-11.2.057-.121c.266.217.154.366.259.583.056-.074-.1-.351.057-.213a74.846,74.846,0,0,1,4.15,7.415c.489.907.8.214,1.212,1.477l-.364-.217a10.332,10.332,0,0,1,.847,1.255c.063.076-.055.015-.1.012s-.107-.025-.158-.033a1.27,1.27,0,0,0-.166-.013h-.048s-.109-.018-.158-.025l-.382-.059c.13-.017.148-.077.341-.029a2.792,2.792,0,0,0-1.584-.271c-.306-.089-.045-.126-.22-.234-.4-.19-1.1-.072-1.289-.273-.032-.034.129-.019.209-.011-.291,0-1.272-.332-1.051-.1-.725-.264-1.443-.276-2.012-.522-.435.095-1.252-.4-1.442-.167.122-.264-1.25-.545-1.753-.53.061-.016.033-.043-.02-.074.014-.043.028-.088.041-.131l.611.173c-.17-.057-.389-.118-.61-.175.368-1.256.318-2.465,1.235-3.9-.08.132-.119.2-.166.215.764-1.635,1.262-3.45,1.906-5.164A5.342,5.342,0,0,1,633.063,609.677Zm2.163-11.815-.209.191.185-.614a1.128,1.128,0,0,0-.194.833.517.517,0,0,0-.246.255l.031.8c-.138.05-.111-.39-.329.067.013.373.351-.238.249.339-.242.3-.311.169-.338.611-.091.033-.108-.068-.086-.24-.031.391-.283.968-.2,1.2-.279.307-.379,1.232-.629,1.1a3.309,3.309,0,0,1-.119,1.041c-.1-.714-.457,1.23-.737.951a3.129,3.129,0,0,1-.266,1.357c-.091-.125-.2-.233-.309-.114a1.618,1.618,0,0,1-.3-.472l.029.074-.029-.079h0l-.438-1.095c-.057-.291.271.257.324.181-.435-.716-.056-.383-.274-.9-.053.171-.325-.135-.543-.563l.22.66c-.812-.865-.288-1.022-1.11-1.893l.308.243c-.228-.271-.614-.853-1.011-1.357a1.289,1.289,0,0,0,.278-.2c-.122.1-.079.264-.062.211.778-.392,1.465-1.007,2.568-1.734l-.1.154c.484-.183,1.2-.62,1.7-.855.1-.156.385-.3.158-.314a5.144,5.144,0,0,0,1.542-.626Z" transform="translate(-602.66 -546.05)" fill="#ffe872" stroke="#ffe872" stroke-linejoin="round" stroke-width="0.5"/>
      </g>
      <path id="패스_55" data-name="패스 55" d="M634.523,646.694c.007-.032.006-.051.017-.091-.029.038-.055.074-.08.113l.028.093Z" transform="translate(175.995 1397.717)" fill="#ffe872" stroke="#ffe872" stroke-linejoin="round" stroke-width="0.5"/>
      <path id="패스_56" data-name="패스 56" d="M643.685,603.063a.2.2,0,0,1,.067-.008.213.213,0,0,1-.039,0Z" transform="translate(172.588 1413.802)" fill="#ffe872" stroke="#ffe872" stroke-linejoin="round" stroke-width="0.5"/>
      <path id="패스_57" data-name="패스 57" d="M655.254,598.348a.26.26,0,0,0-.112,0A.2.2,0,0,0,655.254,598.348Z" transform="translate(168.357 1415.541)" fill="#ffe872" stroke="#ffe872" stroke-linejoin="round" stroke-width="0.5"/>
      <path id="패스_58" data-name="패스 58" d="M660.031,596.239l.462-.118C660.29,596.164,660.145,596.2,660.031,596.239Z" transform="translate(166.551 1416.362)" fill="#ffe872" stroke="#ffe872" stroke-linejoin="round" stroke-width="0.5"/>
      <path id="패스_59" data-name="패스 59" d="M663.866,594.883a.194.194,0,0,0,.02-.088h-.005Z" transform="translate(165.134 1416.851)" fill="#ffe872" stroke="#ffe872" stroke-linejoin="round" stroke-width="0.5"/>
      <path id="패스_60" data-name="패스 60" d="M617.856,629.033a.685.685,0,0,0,.093.018C618.175,629.074,618.022,629.05,617.856,629.033Z" transform="translate(182.128 1404.206)" fill="#ffe872" stroke="#ffe872" stroke-linejoin="round" stroke-width="0.5"/>
      <path id="패스_61" data-name="패스 61" d="M624.178,617.075a3.988,3.988,0,0,1-.255.308C624.1,617.259,624.235,617.158,624.178,617.075Z" transform="translate(179.887 1408.623)" fill="#ffe872" stroke="#ffe872" stroke-linejoin="round" stroke-width="0.5"/>
      <path id="패스_62" data-name="패스 62" d="M623.662,617.563a2.788,2.788,0,0,0-.445.348A1.768,1.768,0,0,0,623.662,617.563Z" transform="translate(180.148 1408.442)" fill="#ffe872" stroke="#ffe872" stroke-linejoin="round" stroke-width="0.5"/>
      <path id="패스_63" data-name="패스 63" d="M680.84,589.744a.031.031,0,0,1,.008-.032l-.129.056Z" transform="translate(158.91 1418.729)" fill="#ffe872" stroke="#ffe872" stroke-linejoin="round" stroke-width="0.5"/>
      <path id="패스_64" data-name="패스 64" d="M681.052,589.628c-.062.013-.114.029-.129.053Z" transform="translate(158.835 1418.76)" fill="#ffe872" stroke="#ffe872" stroke-linejoin="round" stroke-width="0.5"/>
      <path id="패스_65" data-name="패스 65" d="M681.4,589.458l-.271.107A.513.513,0,0,0,681.4,589.458Z" transform="translate(158.759 1418.823)" fill="#ffe872" stroke="#ffe872" stroke-linejoin="round" stroke-width="0.5"/>
      <path id="패스_66" data-name="패스 66" d="M674.874,591.244l.016-.059c-.128.138-.771.068-.965.238A4.828,4.828,0,0,0,674.874,591.244Z" transform="translate(161.419 1418.185)" fill="#ffe872" stroke="#ffe872" stroke-linejoin="round" stroke-width="0.5"/>
      <path id="패스_67" data-name="패스 67" d="M667.006,592.228l.844-.23c-.167-.017-.388-.041-.016-.182C666.723,591.972,668.1,591.886,667.006,592.228Z" transform="translate(163.975 1417.951)" fill="#ffe872" stroke="#ffe872" stroke-linejoin="round" stroke-width="0.5"/>
      <path id="패스_68" data-name="패스 68" d="M662.781,593.721c.429-.192-.041-.091-.031-.135C662.493,593.747,662.433,593.79,662.781,593.721Z" transform="translate(165.625 1417.298)" fill="#ffe872" stroke="#ffe872" stroke-linejoin="round" stroke-width="0.5"/>
      <path id="패스_69" data-name="패스 69" d="M635.225,607.759l-.048-.161C634.885,607.814,635.208,607.653,635.225,607.759Z" transform="translate(175.775 1412.123)" fill="#ffe872" stroke="#ffe872" stroke-linejoin="round" stroke-width="0.5"/>
      <path id="패스_70" data-name="패스 70" d="M627.192,612.653l-.452.407.338-.294Z" transform="translate(178.846 1410.256)" fill="#ffe872" stroke="#ffe872" stroke-linejoin="round" stroke-width="0.5"/>
      <path id="패스_71" data-name="패스 71" d="M643.976,637.574l-.058-.219C643.673,637.331,643.57,637.536,643.976,637.574Z" transform="translate(172.582 1401.133)" fill="#ffe872" stroke="#ffe872" stroke-linejoin="round" stroke-width="0.5"/>
      <path id="패스_72" data-name="패스 72" d="M652.866,630.447c.15.281.244.593.348.72A1.08,1.08,0,0,0,652.866,630.447Z" transform="translate(169.197 1403.684)" fill="#ffe872" stroke="#ffe872" stroke-linejoin="round" stroke-width="0.5"/>
      <path id="패스_73" data-name="패스 73" d="M628.13,626.988l.018-.252-.059-.287Z" transform="translate(178.348 1405.16)" fill="#ffe872" stroke="#ffe872" stroke-linejoin="round" stroke-width="0.5"/>
    </g>
    <g id="그룹_1764" data-name="그룹 1764" transform="translate(1277.546 2575.458)">
      <path id="패스_206" data-name="패스 206" d="M0,0V105.162H42.934" transform="translate(0 0)" fill="none" stroke="#d6d6d6" stroke-width="3"/>
    </g>
    <g id="그룹_1765" data-name="그룹 1765" transform="translate(1311.617 2673.486)">
      <path id="패스_145" data-name="패스 145" d="M9.665,9.665V0H0Z" transform="translate(6.834 0) rotate(45)" fill="#d6d6d6"/>
    </g>
    <g id="그룹_1766" data-name="그룹 1766" transform="translate(-3.559 529)">
      <path id="패스_267" data-name="패스 267" d="M7039,308v60.467" transform="translate(-5838.72 1756.051)" fill="#d6d6d6" stroke="#d6d6d6" stroke-width="3"/>
      <g id="패스_268" data-name="패스 268" transform="translate(1200.392 2114.853) rotate(45)" fill="#d6d6d6">
        <path d="M 9.16481876373291 9.16481876373291 L 1.207098960876465 9.16481876373291 L 9.16481876373291 1.207098960876465 L 9.16481876373291 9.16481876373291 Z" stroke="none"/>
        <path d="M 8.66481876373291 2.414218902587891 L 2.414218902587891 8.66481876373291 L 8.66481876373291 8.66481876373291 L 8.66481876373291 2.414218902587891 M 9.66481876373291 -9.5367431640625e-07 L 9.66481876373291 9.66481876373291 L -9.5367431640625e-07 9.66481876373291 L 9.66481876373291 -9.5367431640625e-07 Z" stroke="none" fill="#d6d6d6"/>
      </g>
    </g>
    <g id="사각형_39" data-name="사각형 39" transform="translate(1134 2661.953)" fill="#d6d6d6" stroke="#d6d6d6" stroke-width="3">
      <rect width="124.899" height="37.172" rx="7" stroke="none"/>
      <rect x="1.5" y="1.5" width="121.899" height="34.172" rx="5.5" fill="none"/>
    </g>
    <text id="보정서_작성" data-name="보정서 작성" transform="translate(1196 2685)" fill="#959595" font-size="13" font-family="NotoSansCJKkr-Medium, Noto Sans CJK KR" font-weight="500"><tspan x="-31.362" y="0">보정서 작성</tspan></text>
    <g id="사각형_469" data-name="사각형 469" transform="translate(780 2494)" fill="none" stroke="#cecece" stroke-width="1">
      <rect width="706" height="224.5" stroke="none"/>
      <rect x="0.5" y="0.5" width="705" height="223.5" fill="none"/>
    </g>
  </g>
</svg>
