<svg xmlns="http://www.w3.org/2000/svg" width="254.287" height="67.813" viewBox="0 0 254.287 67.813">
  <g id="그룹_1716" data-name="그룹 1716" transform="translate(-15 0.013)">
    <g id="합치기_1" data-name="합치기 1" transform="translate(15 0.027)" fill="#f1f3f6">
      <path d="M 252.287109375 67.27272033691406 L 1.999799251556396 67.27272033691406 C 1.17283046245575 67.27272033691406 0.5000180006027222 66.59990692138672 0.5000180006027222 65.77291107177734 L 0.5000180006027222 12.81059646606445 C 0.5000180006027222 11.98362731933594 1.17283046245575 11.31081485748291 1.999799251556396 11.31081485748291 L 117.5549850463867 11.31081485748291 L 117.7506408691406 11.31081485748291 L 117.8943634033203 11.17800235748291 L 129.34716796875 0.593096137046814 C 129.4400482177734 0.507189929485321 129.5606384277344 0.459971159696579 129.6868591308594 0.459971159696579 C 129.8130493164063 0.459971159696579 129.9336395263672 0.507189929485321 130.0263977050781 0.59297114610672 L 141.4793548583984 11.17800235748291 L 141.6230773925781 11.31081485748291 L 141.8187408447266 11.31081485748291 L 252.287109375 11.31081485748291 C 253.1141052246094 11.31081485748291 253.7869262695313 11.98362731933594 253.7869262695313 12.81059646606445 L 253.7869262695313 65.77291107177734 C 253.7869262695313 66.59990692138672 253.1141052246094 67.27272033691406 252.287109375 67.27272033691406 Z" stroke="none"/>
      <path d="M 252.2871246337891 66.772705078125 C 252.8384246826172 66.772705078125 253.2869262695313 66.32420349121094 253.2869262695313 65.77290344238281 L 253.2869262695313 12.81060218811035 C 253.2869262695313 12.25930213928223 252.8384246826172 11.8108024597168 252.2871246337891 11.8108024597168 L 141.8187255859375 11.8108024597168 L 141.4273834228516 11.8108024597168 L 141.1399841308594 11.54520225524902 L 129.6865234375 0.9603024125099182 L 118.2337188720703 11.54520225524902 L 117.9463195800781 11.8108024597168 L 117.5549850463867 11.8108024597168 L 1.99982213973999 11.8108024597168 C 1.448522210121155 11.8108024597168 0.999988853931427 12.25930213928223 0.999988853931427 12.81060218811035 L 0.999988853931427 65.77290344238281 C 0.999988853931427 66.32420349121094 1.448522210121155 66.772705078125 1.99982213973999 66.772705078125 L 252.2871246337891 66.772705078125 M 252.2871246337891 67.772705078125 L 1.99982213973999 67.772705078125 C 0.8954888582229614 67.772705078125 -1.116129533329513e-05 66.87720489501953 -1.116129533329513e-05 65.77290344238281 L -1.116129533329513e-05 12.81060218811035 C -1.116129533329513e-05 11.70630264282227 0.8954888582229614 10.8108024597168 1.99982213973999 10.8108024597168 L 117.5549850463867 10.8108024597168 L 129.0077819824219 0.2259024083614349 C 129.1994934082031 0.04860240966081619 129.4431610107422 -0.04004758968949318 129.6868438720703 -0.04004758968949318 C 129.9305267333984 -0.04004758968949318 130.1742095947266 0.04860240966081619 130.3659210205078 0.2259024083614349 L 141.8187255859375 10.8108024597168 L 252.2871246337891 10.8108024597168 C 253.3923187255859 10.8108024597168 254.2869262695313 11.70630264282227 254.2869262695313 12.81060218811035 L 254.2869262695313 65.77290344238281 C 254.2869262695313 66.87720489501953 253.3923187255859 67.772705078125 252.2871246337891 67.772705078125 Z" stroke="none" fill="#15376c"/>
    </g>
    <text id="자동작성_보러가기" data-name="자동작성 보러가기" transform="translate(121.523 45.97)" fill="#15376c" font-size="19" font-family="NotoSansCJKkr-Bold, Noto Sans CJK KR" font-weight="700" letter-spacing="0.02em"><tspan x="-73.596" y="0">자동작성 보러가기</tspan></text>
    <path id="패스_1164" data-name="패스 1164" d="M0,1H254.084" transform="translate(15.204 59.8)" fill="none" stroke="#15376c" stroke-width="1"/>
    <g id="그룹_1765" data-name="그룹 1765" transform="translate(212.767 28.829)">
      <g id="그룹_1715" data-name="그룹 1715">
        <path id="패스_1162" data-name="패스 1162" d="M881.459,259.01v21.123H849.987V259.01h31.472" transform="translate(-847.937 -256.936)" fill="none" stroke="#15376c" stroke-linecap="square" stroke-miterlimit="10" stroke-width="1"/>
        <path id="패스_1163" data-name="패스 1163" d="M886.688,314.295v2.7h-8.011v-4.148h8.011" transform="translate(-864.897 -287.585)" fill="none" stroke="#15376c" stroke-miterlimit="10" stroke-width="1"/>
        <line id="선_34" data-name="선 34" x2="29.733" transform="translate(2.049 19.666)" fill="none" stroke="#15376c" stroke-miterlimit="10" stroke-width="1"/>
        <line id="선_35" data-name="선 35" x1="1.788" y2="1.788" transform="translate(4.811 4.835)" fill="none" stroke="#15376c" stroke-miterlimit="10" stroke-width="1"/>
        <line id="선_36" data-name="선 36" x1="4.207" y2="4.207" transform="translate(4.994 5.018)" fill="none" stroke="#15376c" stroke-miterlimit="10" stroke-width="1"/>
        <rect id="사각형_465" data-name="사각형 465" width="12.378" height="2.063" transform="translate(11.733 29.408)" fill="none" stroke="#15376c" stroke-width="1"/>
        <path id="패스_1166" data-name="패스 1166" d="M885.558,259.01v25.271H849.987V259.01h35.571" transform="translate(-849.987 -259.01)" fill="none" stroke="#15376c" stroke-linecap="square" stroke-miterlimit="10" stroke-width="1"/>
      </g>
      <g id="사각형_466" data-name="사각형 466" transform="translate(38.857 27.168)" fill="#fff" stroke="#15376c" stroke-width="1">
        <path d="M4,0H5.606a4,4,0,0,1,4,4v.8a0,0,0,0,1,0,0H0a0,0,0,0,1,0,0V4A4,4,0,0,1,4,0Z" stroke="none"/>
        <path d="M3.828.5H5.778A3.328,3.328,0,0,1,9.106,3.828v0a.475.475,0,0,1-.475.475H.975A.475.475,0,0,1,.5,3.828v0A3.328,3.328,0,0,1,3.828.5Z" fill="none"/>
      </g>
      <path id="패스_1167" data-name="패스 1167" d="M-9834-1456.344v3" transform="translate(9877.66 1482.221)" fill="none" stroke="#15376c" stroke-width="1"/>
    </g>
  </g>
</svg>
