<svg xmlns="http://www.w3.org/2000/svg" width="619.962" height="123.962" viewBox="0 0 619.962 123.962">
  <g id="그룹_1851" data-name="그룹 1851" transform="translate(-823 -2974)">
    <circle id="타원_47" data-name="타원 47" cx="61.981" cy="61.981" r="61.981" transform="translate(823 2974)" fill="#f1f3f6"/>
    <text id="법원_방문" data-name="법원 방문" transform="translate(850.444 3043)" font-size="18" font-family="NotoSansCJKkr-Regular, Noto Sans CJK KR"><tspan x="0" y="0">법원 방문</tspan></text>
    <circle id="타원_48" data-name="타원 48" cx="61.981" cy="61.981" r="61.981" transform="translate(988 2974)" fill="#f1f3f6"/>
    <text id="법원은행_인지대_소달료_납부" data-name="법원은행 
인지대/
소달료 납부" transform="translate(1050.054 3018)" font-size="18" font-family="NotoSansCJKkr-Regular, Noto Sans CJK KR"><tspan x="-35.136" y="0">법원은행 </tspan><tspan x="-28.368" y="25">인지대/</tspan><tspan x="-43.416" y="50">소달료 납부</tspan></text>
    <circle id="타원_49" data-name="타원 49" cx="61.981" cy="61.981" r="61.981" transform="translate(1154 2974)" fill="#f1f3f6"/>
    <text id="접수처에서_신청" data-name="접수처에서
신청" transform="translate(1216.285 3031)" font-size="18" font-family="NotoSansCJKkr-Regular, Noto Sans CJK KR"><tspan x="-41.4" y="0">접수처에서</tspan><tspan x="-16.56" y="25">신청</tspan></text>
    <circle id="타원_50" data-name="타원 50" cx="61.981" cy="61.981" r="61.981" transform="translate(1319 2974)" fill="#f1f3f6"/>
    <text id="완료" transform="translate(1380.518 3043)" font-size="18" font-family="NotoSansCJKkr-Regular, Noto Sans CJK KR"><tspan x="-16.56" y="0">완료</tspan></text>
    <path id="다각형_5" data-name="다각형 5" d="M11.857,0,23.714,12.857H0Z" transform="translate(975.857 3024) rotate(90)" fill="#15376c"/>
    <path id="다각형_8" data-name="다각형 8" d="M11.857,0,23.714,12.857H0Z" transform="translate(1141.857 3024) rotate(90)" fill="#15376c"/>
    <path id="다각형_9" data-name="다각형 9" d="M11.857,0,23.714,12.857H0Z" transform="translate(1306.857 3024) rotate(90)" fill="#15376c"/>
  </g>
</svg>
