<svg xmlns="http://www.w3.org/2000/svg" width="50" height="50" viewBox="0 0 50 50">
  <g id="af_m_new" transform="translate(-37 -88)">
    <path id="패스_1269" data-name="패스 1269" d="M0,0H50V50H0Z" transform="translate(37 88)" fill="none"/>
    <g id="그룹_1854" data-name="그룹 1854">
      <path id="패스_1264" data-name="패스 1264" d="M3.852-8.868H2.9v2.052A5.44,5.44,0,0,1,.516-2.172l.624.744A5.484,5.484,0,0,0,3.372-4.692,5.1,5.1,0,0,0,5.52-1.7l.588-.78A5.03,5.03,0,0,1,3.852-6.852ZM8.844-9.876v4.332H7.416V-9.636H6.48V.348h.936V-4.74H8.844V.888H9.78V-9.876Zm8.2,8.628V-3.276h3.444v-.792H13.86v-1.74h6.372V-9.084H12.864v.8h6.408V-6.6H12.888v3.324h3.156v2.028h-4.38v.8h9.78v-.8Zm11.928-3.36a3.626,3.626,0,0,1-2.616-3.3v-.42h2.376V-9.12H22.956v.792h2.412V-7.9a3.809,3.809,0,0,1-2.7,3.492l.516.78A4.524,4.524,0,0,0,25.872-6.24a4.349,4.349,0,0,0,2.592,2.4ZM24.06-2.016h6.024V.9h.984V-2.808H24.06Zm8.6-5.028h-1.6v-2.82h-.984v6.48h.984V-6.228h1.6ZM41.628-3.5h1v-6.36h-1v2.28h-2.34v.8h2.34Zm-1.56-1.272A3.691,3.691,0,0,1,37.452-8.2V-9.264h-.984v1.1a3.922,3.922,0,0,1-2.724,3.672l.516.8A4.552,4.552,0,0,0,36.984-6.42,4.406,4.406,0,0,0,39.54-4.008ZM39.072.1c-1.62,0-2.6-.468-2.6-1.248s.984-1.26,2.6-1.26,2.6.468,2.6,1.26S40.692.1,39.072.1Zm0-3.276c-2.208,0-3.588.732-3.588,2.028S36.864.876,39.072.876s3.576-.744,3.576-2.028S41.28-3.18,39.072-3.18Z" transform="translate(40 134)" fill="#111"/>
      <g id="그룹_1788" data-name="그룹 1788" transform="translate(47 91)">
        <path id="패스_3" data-name="패스 3" d="M103.667,27.714h-18v-24H98.183L103.667,9.2Z" transform="translate(-79.667 -3.714)" fill="none" stroke="#000" stroke-linecap="round" stroke-linejoin="round" stroke-width="0.8"/>
        <rect id="사각형_516" data-name="사각형 516" width="14" height="13.2" transform="translate(11 11.5)" fill="#fff"/>
        <path id="패스_1196" data-name="패스 1196" d="M17,18.875H29.437" transform="translate(-5.313 -0.656)" fill="none" stroke="#15376c" stroke-width="1"/>
        <path id="패스_1197" data-name="패스 1197" d="M0,0H12.438" transform="translate(17.906 12) rotate(90)" fill="none" stroke="#15376c" stroke-width="1"/>
      </g>
    </g>
  </g>
</svg>
