<svg xmlns="http://www.w3.org/2000/svg" width="50" height="50" viewBox="0 0 50 50"><g transform="translate(-127 -88)"><path d="M-13.705-5.613a7,7,0,0,1-2.648-.946A4.426,4.426,0,0,1-18-8.016a4.7,4.7,0,0,1-1.67,1.471,7.792,7.792,0,0,1-2.6,1l-.539-.732a6.462,6.462,0,0,0,3.05-1.116A2.539,2.539,0,0,0-18.445-9.4v-.492h.879V-9.4a2.505,2.505,0,0,0,1.289,2,6.257,6.257,0,0,0,3.088,1.069Zm-3.861,2.168v4.5h-.879v-4.5h-4.8v-.779h10.488v.779Zm14.842-.275V-6.926H-5.361v-.779h2.637v-2.543h.879v6.527ZM-5.15-4.365A7.118,7.118,0,0,1-6.691-5.531,5.083,5.083,0,0,1-7.775-6.937,5.985,5.985,0,0,1-8.889-5.358a6.594,6.594,0,0,1-1.576,1.28l-.621-.6A5.42,5.42,0,0,0-9.053-6.363a3.817,3.817,0,0,0,.82-2.314v-.287h-2.484v-.779H-4.9v.779H-7.383v.287a3.381,3.381,0,0,0,.85,2.168A5.056,5.056,0,0,0-4.559-5ZM-5.314.891A5.1,5.1,0,0,1-8.048.278a1.825,1.825,0,0,1-.964-1.585,1.812,1.812,0,0,1,.961-1.579,5.139,5.139,0,0,1,2.736-.606,5.139,5.139,0,0,1,2.736.606,1.812,1.812,0,0,1,.961,1.579A1.825,1.825,0,0,1-2.581.278,5.1,5.1,0,0,1-5.314.891Zm0-3.639a4.179,4.179,0,0,0-2.051.407,1.19,1.19,0,0,0-.709,1.034A1.187,1.187,0,0,0-7.362-.27a4.208,4.208,0,0,0,2.048.4,4.237,4.237,0,0,0,2.045-.4,1.185,1.185,0,0,0,.715-1.04,1.187,1.187,0,0,0-.709-1.037A4.2,4.2,0,0,0-5.314-2.748ZM.756-.732v-.779H3.469V-4.395A2.4,2.4,0,0,1,2.186-6.609,2.376,2.376,0,0,1,3.237-8.675,4.726,4.726,0,0,1,6-9.41a4.7,4.7,0,0,1,2.76.735A2.382,2.382,0,0,1,9.8-6.609,2.4,2.4,0,0,1,8.531-4.395v2.883h2.713v.779ZM3.094-6.609a1.688,1.688,0,0,0,.8,1.479A3.721,3.721,0,0,0,6-4.594a3.677,3.677,0,0,0,2.1-.539,1.694,1.694,0,0,0,.794-1.477,1.71,1.71,0,0,0-.8-1.488A3.653,3.653,0,0,0,6-8.643,3.678,3.678,0,0,0,3.9-8.1,1.708,1.708,0,0,0,3.094-6.609ZM4.342-4.031v2.52H7.658v-2.52A5.653,5.653,0,0,1,6-3.814,6.2,6.2,0,0,1,4.342-4.031Zm14.725.047a5.964,5.964,0,0,1-2.748-2.4A4.948,4.948,0,0,1,15.2-4.922,6.8,6.8,0,0,1,13.57-3.756l-.645-.674A5.041,5.041,0,0,0,15-5.842a2.894,2.894,0,0,0,.882-1.875v-.551H13.295v-.768h2.584v-1.318h.873v1.318H19.33v.768H16.752v.539a2.64,2.64,0,0,0,.891,1.781,4.513,4.513,0,0,0,2.016,1.242Zm2.092.264V-6.4H18.938v-.779h2.221v-3.07h.873v6.527ZM18.563.891A5.1,5.1,0,0,1,15.829.278a1.825,1.825,0,0,1-.964-1.585,1.812,1.812,0,0,1,.961-1.579,5.139,5.139,0,0,1,2.736-.606,5.139,5.139,0,0,1,2.736.606,1.812,1.812,0,0,1,.961,1.579A1.825,1.825,0,0,1,21.3.278,5.1,5.1,0,0,1,18.563.891Zm0-3.639a4.179,4.179,0,0,0-2.051.407A1.19,1.19,0,0,0,15.8-1.307,1.187,1.187,0,0,0,16.515-.27a4.208,4.208,0,0,0,2.048.4,4.237,4.237,0,0,0,2.045-.4,1.185,1.185,0,0,0,.715-1.04,1.187,1.187,0,0,0-.709-1.037A4.2,4.2,0,0,0,18.563-2.748Z" transform="translate(151 134)" fill="#111"/><g transform="translate(139 90)"><g transform="translate(9.285 0)"><path d="M10.305,20.745,4.993,23.713l.443-5.985L16.231.3,21.1,3.314Z" transform="translate(-4.993 -0.299)" fill="none" stroke="#000" stroke-linecap="round" stroke-linejoin="round" stroke-width="0.8"/><path d="M9.836,1.864l2.5,1.551,1.947,1.207" transform="translate(-0.254 1.232)" fill="none" stroke="#000" stroke-linecap="round" stroke-width="0.8"/><path d="M5.445,9l2.5,1.551L9.9,11.758" transform="translate(-4.551 8.215)" fill="none" stroke="#000" stroke-linecap="round" stroke-width="0.8"/></g><g transform="translate(0 26.156)"><path d="M13.869,13.519H.3" transform="translate(-0.3 -13.519)" fill="none" stroke="#15376c" stroke-linecap="round" stroke-linejoin="round" stroke-width="1"/></g></g><path d="M0,0H50V50H0Z" transform="translate(127 88)" fill="none"/></g></svg>