<svg xmlns="http://www.w3.org/2000/svg" width="50" height="50" viewBox="0 0 50 50">
  <g id="af_m_print" transform="translate(-305 -88)">
    <path id="패스_1272" data-name="패스 1272" d="M0,0H50V50H0Z" transform="translate(305 88)" fill="none"/>
    <g id="그룹_1857" data-name="그룹 1857">
      <path id="패스_1267" data-name="패스 1267" d="M-1.572-9.864h-.984V-2h.984ZM-9.192-6.48A1.76,1.76,0,0,1-7.356-8.268,1.766,1.766,0,0,1-5.5-6.48a1.771,1.771,0,0,1-1.86,1.812A1.765,1.765,0,0,1-9.192-6.48Zm4.656,0a2.649,2.649,0,0,0-2.82-2.64,2.635,2.635,0,0,0-2.8,2.64,2.647,2.647,0,0,0,2.8,2.664A2.66,2.66,0,0,0-4.536-6.48ZM-7.512-.156V-2.808H-8.5V.648h7.248v-.8Zm13.6-5.1a3.1,3.1,0,0,1-2.2-2.82v-.936H2.9v.936A3.315,3.315,0,0,1,.612-5.016l.492.768a3.984,3.984,0,0,0,2.3-2.316A3.762,3.762,0,0,0,5.58-4.5Zm-2.22.66H2.928v2.22c-.9.036-1.752.036-2.424.036l.144.816A31.171,31.171,0,0,0,6.132-1.9l-.048-.732a20.87,20.87,0,0,1-2.22.2Zm4.884-5.28v4.452h-1.3V-9.636H6.528V.324h.924V-4.62h1.3V.888h.936V-9.876Z" transform="translate(330 134)" fill="#111"/>
      <g id="그룹_264" data-name="그룹 264" transform="translate(317 90)">
        <path id="패스_5" data-name="패스 5" d="M163.166,27.856h5.9V15.3H142.7V27.856h5.9" transform="translate(-142.702 -9.234)" fill="none" stroke="#000" stroke-linecap="round" stroke-linejoin="round" stroke-width="0.8"/>
        <path id="패스_6" data-name="패스 6" d="M169.867,10.635h.847V12.47H150.455V10.635h.847" transform="translate(-147.401 -6.407)" fill="none" stroke="#000" stroke-linecap="round" stroke-linejoin="round" stroke-width="0.8"/>
        <path id="패스_7" data-name="패스 7" d="M157.689,5.965V-.1h14.559V4.13" transform="translate(-151.786 0.097)" fill="none" stroke="#000" stroke-linecap="round" stroke-linejoin="round" stroke-width="0.8"/>
        <path id="패스_1198" data-name="패스 1198" d="M2096.813,106.125v8.938h14.719v-8.937" transform="translate(-2091 -90.225)" fill="none" stroke="#15376c" stroke-width="1"/>
        <line id="선_9" data-name="선 9" x2="16.549" transform="translate(4.909 16.131)" fill="none" stroke="#000" stroke-linecap="round" stroke-linejoin="round" stroke-width="0.8"/>
      </g>
    </g>
  </g>
</svg>
