<svg xmlns="http://www.w3.org/2000/svg" width="50" height="50" viewBox="0 0 50 50">
  <g id="af_m_save" transform="translate(-215 -88)">
    <path id="패스_1271" data-name="패스 1271" d="M0,0H50V50H0Z" transform="translate(215 88)" fill="none"/>
    <g id="그룹_1856" data-name="그룹 1856">
      <path id="패스_1266" data-name="패스 1266" d="M-6.684-7.968h2.448v-.8H-10.1v.8h2.436V-6.72a5.605,5.605,0,0,1-2.82,4.7l.576.78A6.067,6.067,0,0,0-7.176-4.848,5.912,5.912,0,0,0-4.452-1.464l.588-.768A5.343,5.343,0,0,1-6.684-6.72ZM-2.52-9.876v3.912H-4.848v.8H-2.52V.9h.984V-9.876Zm9.4,5.208a3.5,3.5,0,0,1-2.6-3.192v-.42H6.648v-.792H.876v.792H3.288v.42a3.812,3.812,0,0,1-2.7,3.5l.5.78A4.444,4.444,0,0,0,3.8-6.216,4.185,4.185,0,0,0,6.408-3.9ZM5.568.1C3.96.1,3-.348,3-1.116s.96-1.2,2.568-1.2c1.584,0,2.556.444,2.556,1.2S7.152.1,5.568.1Zm0-3.192c-2.208,0-3.552.732-3.552,1.98S3.36.876,5.568.876c2.184,0,3.54-.732,3.54-1.992S7.752-3.1,5.568-3.1Zm3.42-4.056V-9.864H8v6.492h.984V-6.324h1.6v-.828Z" transform="translate(240 134)" fill="#111"/>
      <g id="그룹_262" data-name="그룹 262" transform="translate(228 91)">
        <path id="패스_4" data-name="패스 4" d="M89.542,48.406V39.454h15.684v8.951" transform="translate(-85.384 -24.406)" fill="none" stroke="#15376c" stroke-linejoin="round" stroke-width="1"/>
        <rect id="사각형_122" data-name="사각형 122" width="7.894" height="4.998" transform="translate(8.053)" stroke-width="0.8" stroke="#000" stroke-linecap="round" stroke-linejoin="round" fill="none"/>
        <path id="패스_3" data-name="패스 3" d="M103.667,27.714h-24v-24H98.183L103.667,9.2Z" transform="translate(-79.667 -3.714)" fill="none" stroke="#000" stroke-linecap="round" stroke-linejoin="round" stroke-width="0.8"/>
      </g>
    </g>
  </g>
</svg>
