<svg xmlns="http://www.w3.org/2000/svg" xmlns:xlink="http://www.w3.org/1999/xlink" width="120" height="65" viewBox="0 0 120 65"><defs><style>.a,.g{fill:none;}.b{fill:#fff;}.c{opacity:0.4;}.d{clip-path:url(#a);}.e{fill:#a2a2a2;}.f,.h{fill:#cecece;}.f,.g{stroke:#cecece;stroke-linejoin:round;stroke-width:2px;}.i{fill:#707070;font-size:15px;font-family:NotoSansCJKkr-Medium, Noto Sans CJK KR;font-weight:500;letter-spacing:0.02em;}</style><clipPath id="a"><rect class="a" width="120" height="65" rx="3" transform="translate(13.139 99.667)"/></clipPath></defs><g transform="translate(-1504 -10)"><rect class="b" width="120" height="65" rx="3" transform="translate(1504 10)"/><g class="c" transform="translate(1490.861 -89.667)"><g class="d"><g transform="matrix(1, 0.017, -0.017, 1, 5.582, 1.277)"><path class="e" d="M65.979,113.09l3.077,7.678,4.6-4.6Z" transform="translate(0 0)"/><rect class="f" width="15.775" height="69.852" transform="translate(73.438 131.703) rotate(-45)"/><path class="g" d="M65.979,113.09,73.438,131.7l11.154-11.154Z" transform="translate(0 0)"/></g></g></g><g class="c" transform="translate(720)"><rect class="h" width="59.444" height="2.367" transform="translate(837.047 17.667)"/><rect class="h" width="32.741" height="2.367" transform="translate(863.75 27.259)"/><rect class="h" width="23.352" height="2.367" transform="translate(873.139 36.851)"/></g><text class="i" transform="translate(1513.5 45)"><tspan x="0" y="0">문서</tspan><tspan x="0" y="20">작성하기</tspan></text></g></svg>