<svg xmlns="http://www.w3.org/2000/svg" xmlns:xlink="http://www.w3.org/1999/xlink" width="120" height="65" viewBox="0 0 120 65"><defs><clipPath id="a"><rect width="120" height="65" rx="3" transform="translate(292.639 99.667)" fill="none"/></clipPath></defs><g transform="translate(-1063.5 -10)"><rect width="120" height="65" rx="3" transform="translate(1063.5 10)" fill="#fff"/><g transform="translate(770.861 -89.667)" opacity="0.4"><g clip-path="url(#a)"><g transform="matrix(0.998, 0.07, -0.07, 0.998, 11.66, -23.942)"><path d="M373.66,125.556a1.111,1.111,0,0,0-.175.141,1.084,1.084,0,0,0-.006,1.533l.006.006a1.13,1.13,0,0,0,1.549,0,1.081,1.081,0,0,0,.242-1.171l-1.655-.328C373.629,125.711,373.643,125.644,373.66,125.556Z" transform="translate(-0.884 -1.86)" fill="#e6e6e6" opacity="0.42"/><g transform="translate(361.302 100.585)"><path d="M389.908,115.546l-.272-.271-16.714-1.757L361.3,125.112l1.757,16.679,36.789,36.718,26.576-26.515Zm-16.187.251h0" transform="translate(-361.302 -101.548)" fill="#cecece"/><path d="M396.415,102.238c-3.244-3.237-9.981-1.584-15.337,3.764-3.7,3.694-6.022,11.346-7.041,15.341a3.261,3.261,0,1,0,2.363.953,3.414,3.414,0,0,0-.292-.251c.945-3.746,3.15-11.152,6.5-14.5,4.347-4.335,9.963-6.056,12.266-3.764,1.9,1.9,1.083,6.17-1.951,10.154l1.731,1.317C398.419,110.309,399.142,104.954,396.415,102.238Zm-21.552,23.133a1.129,1.129,0,0,1-1.549,0,1.085,1.085,0,0,1-.006-1.534l.006,0a1.086,1.086,0,0,1,.176-.143c-.019.092-.033.16-.038.189l1.657.329a1.081,1.081,0,0,1-.243,1.164Z" transform="translate(-362.012 -100.585)" fill="#a2a2a2"/></g><g transform="translate(382.205 133.459)"><path d="M384.839,147.1l5.4,3.372,2.437-2.437-3.357-5.41,1.129-1.129,5.381,3.388,2.452-2.452-3.357-5.411.92-.92,3.341,5.425,1.932-1.931.6.6-2.069,2.069,4.843,7.817-1.028,1.026-7.779-4.874-1.7,1.7,4.844,7.818-1.012,1.012-7.786-4.874-2.038,2.039-.6-.6,1.882-1.882-5.38-3.388Zm11.939,7.495-3.633-5.84-2.192,2.193Zm-3.242-7.414,1.425-1.425L391.2,143.4Zm8.843,1.823-3.633-5.84-2.177,2.177Z" transform="translate(-383.887 -136.104)" fill="#fff" stroke="#fff" stroke-linejoin="round" stroke-width="0.75"/></g></g></g></g><text transform="translate(1101 65)" fill="#707070" font-size="15" font-family="NotoSansCJKkr-Medium, Noto Sans CJK KR" font-weight="500" letter-spacing="0.02em"><tspan x="-28.05" y="0">요금안내</tspan></text></g></svg>