<svg xmlns="http://www.w3.org/2000/svg" xmlns:xlink="http://www.w3.org/1999/xlink" width="120" height="65" viewBox="0 0 120 65"><defs><clipPath id="a"><rect width="120" height="65" rx="3" transform="translate(153.609 99.667)" fill="none"/></clipPath></defs><g transform="translate(-924.47 -10)"><rect width="120" height="65" rx="3" transform="translate(924.47 10)" fill="#fff"/><g transform="translate(770.861 -89.667)" opacity="0.4"><g clip-path="url(#a)"><g transform="translate(1 3.837)"><g transform="translate(225.269 109.944)"><path d="M241.5,142.4a15.565,15.565,0,0,0,11.174-4.715,16.124,16.124,0,0,0-.027-22.6,15.592,15.592,0,0,0-22.05-.243c-.09.088-.177.177-.264.265a16.14,16.14,0,0,0,.014,22.607,15.554,15.554,0,0,0,11.141,4.69m.009-25.709a9.424,9.424,0,0,0-6.763,2.856,9.718,9.718,0,0,0-2.8,6.854h-1.992a11.7,11.7,0,0,1,3.368-8.248,11.4,11.4,0,0,1,8.184-3.457Z" transform="translate(-225.716 -110.392)" fill="#a2a2a2"/><g transform="translate(29.335 29.714)"><path d="M256.794,141.872" transform="translate(-256.794 -141.872)" fill="#15376c" stroke="#282d33" stroke-width="4"/><g transform="translate(7.713 7.865)"><rect width="7.965" height="1.991" transform="translate(0 5.671) rotate(-45.396)" fill="#cecece"/></g></g></g><path d="M281.05,157.834l-.076-.182L265.331,141.8l-3.624,3.672-3.569-3.619a23.731,23.731,0,0,0-.693-32.551,23.03,23.03,0,0,0-32.568-.308q-.173.17-.343.344A23.6,23.6,0,0,0,241,149.493V147.5a21.614,21.614,0,0,1-15.041-36.769,21.038,21.038,0,0,1,29.751-.352c.109.106.215.212.322.321a21.743,21.743,0,0,1,.038,30.452,20.985,20.985,0,0,1-15.058,6.347l-.013,1,.016,1h0a22.917,22.917,0,0,0,15.726-6.22l3.569,3.616-3.624,3.672L272.308,166.4l.183.076a6.583,6.583,0,0,0,8.556-8.64Zm-2.267,5.111a4.511,4.511,0,0,1-5.341,1.762l-13.959-14.147,5.849-5.924,13.947,14.127a4.575,4.575,0,0,1-.5,4.181Z" transform="translate(0 0)" fill="#cecece"/></g></g></g><text transform="translate(933 45)" fill="#707070" font-size="15" font-family="NotoSansCJKkr-Medium, Noto Sans CJK KR" font-weight="500" letter-spacing="0.02em"><tspan x="0" y="0">문서</tspan><tspan x="0" y="20">상세설명</tspan></text></g></svg>