<svg xmlns="http://www.w3.org/2000/svg" width="165.95" height="38.601" viewBox="0 0 165.95 38.601"><g transform="translate(-6.687 -7.905)"><g transform="translate(6.687 7.905)"><path d="M41.435,122.753c-.161,0-4.065-.126-4.206-.126a2.014,2.014,0,0,0-.5,0c-.161.084-.2.21-.4.21-.161,0-.825-.084-1.268-.126a12.835,12.835,0,0,0-1.369.042c-.121,0-.322-.126-.463-.126-.2,0-1.691.21-1.892.21-.141,0-.644-.042-.946-.084a.271.271,0,0,0-.262-.21c-.161,0-.362.294-.543.294H26.623c-.1,0-.443.126-.6.126a1.18,1.18,0,0,1-1.107-1.281,5.776,5.776,0,0,1,.3-.966.6.6,0,0,1,.443-.294c.121,0,.463.147.724.168.644.021,1.711.189,1.872.189s2.737-.147,2.918-.147c0,.042,1.087-.21,1.187-.168a.5.5,0,0,0,.4-.336c.181-.819-.141-1.47-.04-2.1.1-.189.5-.1.765-.1.241,0,.684-.168.845-.168.966,0,.5.273,1.107,1.386,0,.063-.04.273-.181.315-.02.273.04.63.04.966a3.718,3.718,0,0,0,1.57.21H41.6c.161,0,.282-.168.483-.168a.993.993,0,0,1,.926,1.113C43.005,122.921,42.16,122.753,41.435,122.753Zm-.926-5.775H38.437c-.161,0-.362-.168-.543-.168-.161,0-1.328.231-1.489.231s-.483-.273-.644-.273-.906.273-1.067.273H32.2c-.141,0-.382-.126-.584-.126-.161,0-3.482.483-3.663.483-.6,0-.865-1.05-.926-1.47.1-1.806.1-1.911,0-1.974a11.909,11.909,0,0,0,.2-1.7,2.029,2.029,0,0,1,.121-.987.972.972,0,0,1,.543-.273,6.446,6.446,0,0,0,1.369.273,6.478,6.478,0,0,0,1.107-.231,19.631,19.631,0,0,1,2.234-.1c.262-.021.624-.084.805-.084.161,0,.221.084.322.147.906-.063,2.959,0,3.16,0a3.317,3.317,0,0,0,.483-.168,3.319,3.319,0,0,1,.624-.042c.2,0,.6.063.765.063a2.558,2.558,0,0,0,.765-.231,4.373,4.373,0,0,0,.081-.945c0-.252.161-.84-.161-.945-.765-.105-2.113-.168-2.274-.168-.1,0-2.737.315-2.918.315-.161,0-.523-.147-.684-.147s-1.167.147-1.348.147c-.161,0-1.288-.147-1.449-.147-.181,0-2.838.21-3.019.21a3.407,3.407,0,0,1-.765-.378c-.161-.315.362-1.008.5-1.47.725,0,1.691.147,1.892.147.181,0,.906-.147,1.047-.147.2,0,1.509.21,1.731.21.141,0,1.811-.294,2.7-.42.141.126.2.357.382.357.161,0,.564-.315.725-.315s.926.315,1.046.315c.161,0,.865-.441,1.026-.441a1.971,1.971,0,0,1,.523.21c.081,0,.04-.084.2-.084s.543-.126.684-.126c.161,0,.161.126.322.126s.141-.042.342-.042c.161,0,.825.21,1.228.294a.751.751,0,0,1,.221.294c0,.357.081.84.121,1.239-.04.063-.04.21-.081.294a13.965,13.965,0,0,1,.242,2.478,2.417,2.417,0,0,1-.282,1.155,27.118,27.118,0,0,1-3.683.315c-.181,0-.543-.189-.745-.189-.161,0-1.489.084-2.093.042a13.7,13.7,0,0,0-2.013.147c-.262.021-.825.1-1.026.1a2.859,2.859,0,0,1-.4-.1,14.32,14.32,0,0,0-1.811.063c-.4,0-.563.777-.563.9,0,.147-.04,1.218.4,1.218a9.3,9.3,0,0,1,1.228-.042c.121,0,.282.126.443.126s.7-.21.906-.21c.161,0,1.529.042,1.69.042s.644-.42.845-.42c.121,0,.563.252.825.294.5,0,1.57.084,1.731.084.181,0,1.187-.378,1.348-.378.2,0,1.469.21,1.63.21s.262-.042.443-.042c.161,0,.624.126,1.026.168A2.812,2.812,0,0,1,42,116.075C42,117.251,41.134,116.978,40.51,116.978Zm-12.82-3.822c.2-.1.2-.315,0-.315Zm2.234-.9v-.147H29.5v.147Zm2.174,9.576v.294h.261a.316.316,0,0,0,.06-.168C32.4,121.85,32.2,121.829,32.1,121.829Zm4.146-9.933a.724.724,0,0,0-.081-.21L36,111.9Zm3.764-2.184c0,.084.121.21.161.294a.508.508,0,0,0,.141-.21A.815.815,0,0,0,40.006,109.712Z" transform="translate(-23.519 -99.237)" fill="#fff"/><path d="M271.815,192.553a.9.9,0,0,1-.24.445.16.16,0,0,1-.12.052c-.519,0-.126-.065-.611-.086-.194-.022-1.476-.13-1.632-.13-.136,0-.194.173-.233.216-.155,0-.389.108-.544.108s-.855-.346-1.127-.389c-.816,0,.427.281-2,.281-.155,0-2.732-.108-2.888-.108s-.194.151-.272.151c-2.758,0-2.059-.151-2.408-.151a11.732,11.732,0,0,1-3.244.216c-.1,0-.427-.065-.583-.065s-.68.216-.816.216c-.6,0-.408-.757-.408-.93a.575.575,0,0,1-.1-.346c0-.195.058-.649.058-.865a6.82,6.82,0,0,1,1.126-.022h1.787c.078,0,.194.065.311.065a2.162,2.162,0,0,0,.544-.173,9.463,9.463,0,0,1,1.107,0c.408,0,.932.065,1.379.065.058,0,.194-.151.35-.151.291,0,.116.259.311.043l.1-1.06a4.465,4.465,0,0,0-.738-.151c-.155,0-1.651-.043-1.806-.043s-.7.195-.874.195c-.155,0-1.768.065-1.962.065-.117,0-.6.022-.8-.195a2.4,2.4,0,0,1-.369-1.081.971.971,0,0,1,.253-.605c.155-.151.253.043.408.043s.68-.367.835-.259c.35.216.466.3.661.3.136,0,1.262-.086,1.4-.086.408,0,.291-.216.291-.368,0-.108.35-.108.253-.562a9.737,9.737,0,0,1-.019-1.081c0-.216-.233-.259-.233-.432,0-.606,0-.389-.621-.389-.117,0-.408.065-.544.065-.155,0-.253-.108-.447-.108-.155,0-.427.108-.583.108s-.194-.108-.35-.108c-.194,0-.427.108-.583.108-.68,0-.874-.476-.835-1.579a1.117,1.117,0,0,1,.641-.432,6.924,6.924,0,0,1,1.224-.087c.175,0,.1.368.253.5a8.98,8.98,0,0,1,.99-.346c.719,0,3.224.108,4.661.108.155,0,.389-.173.544-.173s.388.173.583.173c.136,0,.33-.151.525-.216a10.386,10.386,0,0,1,1.068.151c.194,0,.544-.087.7-.087h2.894c.136,0,.194-.216.369-.216.6,0,.641.411.641.8v.627c-.039.151.117.476-.039.584-.233.173-.447.087-.621.087-.155,0-.893-.173-1.088-.173-.117,0-.447.108-.6.108-.136,0-.583-.065-.738-.065a.835.835,0,0,0-.68.173c.02.087-.33.26-.291.368.078.54.349.259.291.865-.058.259.039.324.058.584,0,.065.019.8,0,.822.194.151.525.043.68.043.136,0,.563.151.719.151.136,0,.622-.195.777-.195s.5-.173.66-.173c.291,0,.971.173.971.757,0,.173.117,1.189-.058,1.362-.155.216-.874.065-1.049.065-.155,0-.621-.022-.757-.022-.194,0-2.176-.086-2.331-.086s-2.02.086-2.176.086c.019.043-.136.8.039,1.038a1.348,1.348,0,0,0,.622.151c.155,0,1.644-.086,1.839-.086.117,0,.408.151.6.151.155,0,1.126-.216,1.282-.216s1.554.216,1.709.216c.136,0,.913-.216,1.029-.216.155,0,.486.065.738.065.233.216.214.216.233.476A7.789,7.789,0,0,1,271.815,192.553Zm-2.868,8.152c-.155,0-.214-.173-.388-.173-2.37,0-3.593.086-4.234.065l-3.593-.087c-.117,0-3.011.022-3.2.022-.136,0-.33.173-.427.173-.194,0-1.185-.043-1.768-.043v-2.184a5.112,5.112,0,0,1,.155-.908.85.85,0,0,1-.117-.346v-2.487c0-.173.311-.584.447-.584.485-.022,1.437-.108,1.573-.108.175,0,2.331.13,2.486.13s1.029-.151,1.126-.151c.194,0,1.379.022,1.573.022a3.42,3.42,0,0,1,1.127-.13,12.736,12.736,0,0,0,4.118.065c.233-.043.622.151.777.151.194,0,.233-.13.33-.216a2.806,2.806,0,0,1,.738,0c.544,0,.233.822.233,1.038a4.226,4.226,0,0,0,.194.432c-.039.432-.078,1.146-.078,1.3v1.795a10.219,10.219,0,0,0,.233,1.968C269.859,200.489,269.121,200.705,268.947,200.705Zm-13.324-11.547a.2.2,0,0,0,.136.13.538.538,0,0,0,.35-.346C255.855,188.856,255.7,189.072,255.622,189.158Zm1.126,3.135.058.346a.266.266,0,0,0,.233-.259C257,192.294,256.807,192.294,256.749,192.294Zm.194,4.173-.078-.108-.078.065.039.173Zm10.877.973a6.767,6.767,0,0,0,.039-.865,1.114,1.114,0,0,0-.272-.605,1.027,1.027,0,0,0-.5-.108,5.089,5.089,0,0,0-1.185-.108c-.155,0-.932.043-1.088.043-.175,0-.389-.151-.563-.151-.155,0-.389.151-.583.151-1.2,0-2.311.065-3.282.065-.447,0-.835-.065-1.088-.043-.486.043-1.34-.065-1.67,0-.349.108-.1,1.06-.1,1.514,0,.216.039.973.058,1.254.777.087,1.554.022,2.292.043.388.022,1.049.022,1.224.022.155,0,.388-.194.544-.173,1.321.087,4.856.108,4.953.108.33,0,1.224-.173,1.321-.389C267.917,197.981,267.82,197.613,267.82,197.44Zm-10.2,2.227a.2.2,0,0,0,.136.13.537.537,0,0,0,.35-.346C257.856,199.365,257.7,199.581,257.623,199.668Zm.447-15.807a.5.5,0,0,0-.272.454c.117-.087.369-.238.427-.368C258.167,183.947,258.07,183.861,258.07,183.861Zm6.2,3.352-.039-.757a2.886,2.886,0,0,1,.1-.886c-.7-.476.214-.5-.661-.5-.155,0-.466.173-.583.173h-1.593c-.68,0-.388.822-.388,1.081a6.052,6.052,0,0,0,.058.952c0,.3-.233.281-.175.476.155.368.155.324.816.389l.777-.022c.233-.259.583.022.7.022a2.772,2.772,0,0,0,.952-.173c0-.065.253-.216.214-.281C264.285,187.753,264.324,187.277,264.266,187.212Zm-2.933,7.741c0,.065.272.368.272.368.1-.108.078-.368.155-.324A.822.822,0,0,0,261.333,194.954Zm1.282-10.379a.4.4,0,0,0,.155.281c.039-.065.155-.151.155-.173Zm2.311-.281-.311-.173v.3Zm.926,7.655c0,.065.253.346.253.346.117-.087.1-.346.175-.3A.632.632,0,0,0,265.852,191.948Zm1.658-2.465-.019-.368-.136.043.058.368Zm.505,5.449a.528.528,0,0,0-.058-.216H267.7a.243.243,0,0,0,.039.281Zm1.049,1.492.155.216a.568.568,0,0,0,.155-.3Zm2.266-4.26a1.587,1.587,0,0,1-.33.151.581.581,0,0,0,.388.065A.528.528,0,0,0,271.329,192.164Z" transform="translate(-235.651 -169.757)" fill="#fff"/><path d="M25.988,46.506a19.3,19.3,0,1,1,19.3-19.3A19.323,19.323,0,0,1,25.988,46.506Zm0-37.186A17.886,17.886,0,1,0,43.873,27.206,17.906,17.906,0,0,0,25.988,9.32Z" transform="translate(-6.687 -7.905)" fill="#fff"/></g><g transform="translate(52.248 18.162)"><path d="M616.062,146.464h3.486v14.507h7.065v2.92H616.062Z" transform="translate(-616.062 -146.134)" fill="#fff"/><path d="M791.985,159.417h-5.652l-1.225,4.475h-3.533l5.581-17.427h4.1l5.605,17.427h-3.65Zm-.754-2.708-.518-1.908c-.542-1.813-1.013-3.815-1.531-5.7h-.094c-.447,1.908-.966,3.886-1.484,5.7l-.518,1.908Z" transform="translate(-768.929 -146.134)" fill="#fff"/><path d="M985.924,146.464h3.556l1.39,8.5c.259,1.837.542,3.7.8,5.558h.094c.353-1.86.73-3.744,1.107-5.558l2.025-8.5h2.967l2.025,8.5c.377,1.79.73,3.674,1.107,5.558h.118c.259-1.884.518-3.744.777-5.558l1.366-8.5h3.321l-3.226,17.427h-4.333l-1.955-8.619c-.283-1.366-.542-2.708-.754-4.027h-.094c-.235,1.319-.471,2.661-.754,4.027l-1.908,8.619h-4.263Z" transform="translate(-957.664 -146.134)" fill="#fff"/><path d="M1360.408,146.464h10.739v2.9h-7.253v4.545h6.194v2.92h-6.194v7.065h-3.486Z" transform="translate(-1303.534 -146.134)" fill="#fff"/><path d="M1525.615,151.122c0-5.676,3.179-8.973,7.8-8.973s7.8,3.321,7.8,8.973-3.179,9.114-7.8,9.114S1525.615,156.774,1525.615,151.122Zm12.034,0c0-3.744-1.649-5.982-4.239-5.982s-4.239,2.237-4.239,5.982c0,3.721,1.649,6.1,4.239,6.1S1537.649,154.843,1537.649,151.122Z" transform="translate(-1456.118 -142.149)" fill="#fff"/><path d="M1783.836,163.891l-3.579-6.594h-2.426v6.594h-3.486V146.464h6.076c3.65,0,6.547,1.272,6.547,5.275a4.989,4.989,0,0,1-3.321,5.016l4.074,7.136Zm-6.005-9.349h2.261c2.237,0,3.462-.942,3.462-2.8,0-1.884-1.225-2.52-3.462-2.52h-2.261Z" transform="translate(-1685.843 -146.134)" fill="#fff"/><path d="M1984.55,146.464h3.862l2.967,8.148c.377,1.083.707,2.237,1.06,3.368h.118c.377-1.13.683-2.284,1.06-3.368l2.9-8.148h3.862v17.427H1997.2v-7.277c0-1.648.259-4.074.424-5.723h-.094l-1.413,4.1-2.685,7.324h-2l-2.708-7.324-1.39-4.1h-.094c.165,1.649.448,4.074.448,5.723v7.277h-3.132Z" transform="translate(-1879.987 -146.134)" fill="#fff"/></g></g></svg>