<svg xmlns="http://www.w3.org/2000/svg" width="61.701" height="55.919" viewBox="0 0 61.701 55.919">
  <g id="그룹_1742" data-name="그룹 1742" opacity="0.6">
    <g id="그룹_1741" data-name="그룹 1741" transform="translate(0)">
      <path id="패스_1274" data-name="패스 1274" d="M-392.888,56.677a4.96,4.96,0,0,0-3.14-3.139,2.61,2.61,0,0,0-2.678.633l-2.848,2.848-.453-.137a.938.938,0,0,0-.931.233l-2.3,2.3v-5.8a7.453,7.453,0,0,0-7.445-7.444H-447.01a7.453,7.453,0,0,0-7.445,7.444.935.935,0,0,0,.935.935h34.328a.935.935,0,0,0,.934-.935,5.581,5.581,0,0,1,5.575-5.574,5.581,5.581,0,0,1,5.575,5.574v7.666l-21.327,21.326c-.019.02-.026.045-.043.065a.891.891,0,0,0-.141.193l-4.335,9.093a2.868,2.868,0,0,1-.881-.57,4.793,4.793,0,0,0-6.769,0,.933.933,0,0,0,0,1.321.935.935,0,0,0,1.322,0,2.919,2.919,0,0,1,4.124,0,4.9,4.9,0,0,0,2.514,1.315.856.856,0,0,0,.176.018h0a.925.925,0,0,0,.365-.083c.011-.005.025,0,.036-.008l9.84-4.692a.866.866,0,0,0,.188-.135.745.745,0,0,0,.07-.047l25.5-25.5a.934.934,0,0,0,.234-.931l-.137-.453,2.849-2.847A2.614,2.614,0,0,0-392.888,56.677Zm-27.18-3.993h-32.439a5.582,5.582,0,0,1,5.5-4.64h29.4A7.431,7.431,0,0,0-420.068,52.684Zm-10.416,38.449,3.21-6.735,1.722.52a1.916,1.916,0,0,1,1.281,1.283h0l.52,1.722Zm8.3-4.478-.3-1a3.78,3.78,0,0,0-2.53-2.531l-1-.3,7.441-7.441,1.955.59a1.91,1.91,0,0,1,1.281,1.283l.591,1.953Zm8.941-8.941-.3-.994a3.779,3.779,0,0,0-2.531-2.532l-1-.3,15.055-15.056,1.955.59a1.915,1.915,0,0,1,1.281,1.283l.591,1.955Zm18.4-19.681-2.139,2.138,0-.008a3.774,3.774,0,0,0-2.53-2.529l-.008,0,2.138-2.139a.753.753,0,0,1,.769-.182,3.087,3.087,0,0,1,1.953,1.952A.755.755,0,0,1-394.844,58.034Z" transform="translate(454.455 -46.174)" fill="#435062"/>
      <path id="패스_1275" data-name="패스 1275" d="M-365.4,99.149a.935.935,0,0,0-.934-.934h-14.958a.935.935,0,0,0-.935.934.935.935,0,0,0,.935.935h14.958A.934.934,0,0,0-365.4,99.149Z" transform="translate(401.677 -84.201)" fill="#435062"/>
      <path id="패스_1276" data-name="패스 1276" d="M-368.781,126.753a.936.936,0,0,0-.935.935.936.936,0,0,0,.935.935h9.128a.936.936,0,0,0,.935-.935.936.936,0,0,0-.935-.935Z" transform="translate(392.536 -105.054)" fill="#435062"/>
      <path id="패스_1277" data-name="패스 1277" d="M-403.372,126.753a.935.935,0,0,0-.934.935.935.935,0,0,0,.934.935h4.465a.936.936,0,0,0,.935-.935.936.936,0,0,0-.935-.935Z" transform="translate(417.811 -105.054)" fill="#435062"/>
      <path id="패스_1278" data-name="패스 1278" d="M-403.372,157.161h11.042a.936.936,0,0,0,.935-.934.936.936,0,0,0-.935-.936h-11.042a.936.936,0,0,0-.934.936A.935.935,0,0,0-403.372,157.161Z" transform="translate(417.811 -125.907)" fill="#435062"/>
      <path id="패스_1279" data-name="패스 1279" d="M-403.372,185.706h5.946a.935.935,0,0,0,.935-.934.935.935,0,0,0-.935-.934h-5.946a.934.934,0,0,0-.934.934A.934.934,0,0,0-403.372,185.706Z" transform="translate(417.811 -146.766)" fill="#435062"/>
      <path id="패스_1280" data-name="패스 1280" d="M-388.507,108.461a.936.936,0,0,0-.935.935v22.021h-38.969V89.8a.935.935,0,0,0-.935-.934.934.934,0,0,0-.934.934v42.554a.935.935,0,0,0,.934.935h40.839a.935.935,0,0,0,.934-.935V109.4A.935.935,0,0,0-388.507,108.461Z" transform="translate(436.79 -77.368)" fill="#435062"/>
    </g>
  </g>
</svg>
