<svg xmlns="http://www.w3.org/2000/svg" width="51.215" height="55.914" viewBox="0 0 51.215 55.914">
  <g id="그룹_1756" data-name="그룹 1756" transform="translate(0)" opacity="0.6">
    <g id="그룹_1743" data-name="그룹 1743" transform="translate(32.887 28.189)">
      <path id="패스_1281" data-name="패스 1281" d="M-552.508,169.227a9.175,9.175,0,0,1-9.164-9.164,9.175,9.175,0,0,1,9.164-9.164,9.175,9.175,0,0,1,9.164,9.164A9.175,9.175,0,0,1-552.508,169.227Zm0-16.443a7.287,7.287,0,0,0-7.279,7.279,7.287,7.287,0,0,0,7.279,7.279,7.287,7.287,0,0,0,7.279-7.279A7.287,7.287,0,0,0-552.508,152.784Z" transform="translate(561.672 -150.899)" fill="#435062"/>
    </g>
    <g id="그룹_1744" data-name="그룹 1744" transform="translate(36.411 44.4)">
      <path id="패스_1282" data-name="패스 1282" d="M-538.249,222.612a.942.942,0,0,1-.667-.276l-4.032-4.032-4.032,4.032a.941.941,0,0,1-1.027.2.942.942,0,0,1-.582-.871V211.1h1.885v8.3l3.089-3.089a.943.943,0,0,1,1.333,0l3.089,3.089v-8.3h1.885V221.67a.942.942,0,0,1-.582.871A.937.937,0,0,1-538.249,222.612Z" transform="translate(548.588 -211.099)" fill="#435062"/>
    </g>
    <g id="그룹_1755" data-name="그룹 1755" transform="translate(0 0)">
      <g id="그룹_1745" data-name="그룹 1745">
        <path id="패스_1283" data-name="패스 1283" d="M-649.734,102.136H-680.5a3.292,3.292,0,0,1-3.292-3.292V56.561a.943.943,0,0,1,.276-.667l9.4-9.4a.942.942,0,0,1,.667-.276h32.887a3.291,3.291,0,0,1,3.292,3.292V70.887a.943.943,0,0,1-.943.943h0a.943.943,0,0,1-.943-.943V49.514a1.406,1.406,0,0,0-1.407-1.407h-32.5l-8.844,8.844V98.844a1.407,1.407,0,0,0,1.407,1.407h30.77a.943.943,0,0,1,.943.943h0A.943.943,0,0,1-649.734,102.136Z" transform="translate(683.796 -46.222)" fill="#435062"/>
      </g>
      <g id="그룹_1746" data-name="그룹 1746" transform="translate(0.943 0.943)">
        <path id="패스_1284" data-name="패스 1284" d="M-673.249,60.061H-680.3V58.176h7.047a1.408,1.408,0,0,0,1.406-1.407V49.722h1.885v7.047A3.3,3.3,0,0,1-673.249,60.061Z" transform="translate(680.296 -49.722)" fill="#435062"/>
      </g>
      <g id="그룹_1747" data-name="그룹 1747" transform="translate(15.037 15.269)">
        <rect id="사각형_211" data-name="사각형 211" width="25.84" height="1.885" rx="0.943" fill="#435062"/>
      </g>
      <g id="그룹_1748" data-name="그룹 1748" transform="translate(5.641 22.61)">
        <rect id="사각형_212" data-name="사각형 212" width="35.236" height="1.885" rx="0.943" fill="#435062"/>
      </g>
      <g id="그룹_1749" data-name="그룹 1749" transform="translate(5.641 29.951)">
        <rect id="사각형_213" data-name="사각형 213" width="24.763" height="1.885" rx="0.943" fill="#435062"/>
      </g>
      <g id="그룹_1750" data-name="그룹 1750" transform="translate(5.641 37.291)">
        <rect id="사각형_214" data-name="사각형 214" width="21.832" height="1.885" rx="0.943" fill="#435062"/>
      </g>
      <g id="그룹_1751" data-name="그룹 1751" transform="translate(5.641 44.632)">
        <rect id="사각형_215" data-name="사각형 215" width="24.763" height="1.885" rx="0.943" fill="#435062"/>
      </g>
      <g id="그룹_1754" data-name="그룹 1754" transform="translate(31.481 4.698)">
        <g id="그룹_1752" data-name="그룹 1752" transform="translate(4.698)">
          <path id="패스_1285" data-name="패스 1285" d="M-544.751,69.308h0a.943.943,0,0,1-.943-.943V67.9a2.349,2.349,0,0,0-2.349-2.349h-.464a.943.943,0,0,1-.943-.943h0a.943.943,0,0,1,.943-.943h.464a4.234,4.234,0,0,1,4.234,4.234v.464A.943.943,0,0,1-544.751,69.308Z" transform="translate(549.449 -63.667)" fill="#435062"/>
        </g>
        <g id="그룹_1753" data-name="그룹 1753" transform="translate(0 0)">
          <rect id="사각형_216" data-name="사각형 216" width="2.349" height="1.885" rx="0.943" fill="#435062"/>
        </g>
      </g>
    </g>
  </g>
</svg>
