<svg xmlns="http://www.w3.org/2000/svg" width="40" height="40" viewBox="0 0 40 40"><defs><style>.a{fill:rgba(255,255,255,0);}.b{fill:none;stroke:#435062;stroke-linecap:round;stroke-linejoin:round;}.c{fill:#435062;}</style></defs><g transform="translate(-1049 -145)"><g transform="translate(-87)"><circle class="a" cx="20" cy="20" r="20" transform="translate(1136 145)"/><g transform="translate(1142 152.535)"><line class="b" x1="24.747" transform="translate(0 24.561)"/><g transform="translate(0 17.564)"><line class="b" x1="8.923" transform="translate(0 3.492)"/><line class="b" x1="6.474"/></g></g></g><g transform="translate(1040 130.603)"><path class="c" d="M39.239,52.345A1.189,1.189,0,0,1,38.4,52L32.52,46.118a1.188,1.188,0,1,1,1.68-1.68l5.038,5.038L51.33,37.384a1.188,1.188,0,1,1,1.68,1.68L40.079,52A1.189,1.189,0,0,1,39.239,52.345Z" transform="translate(-7.759 -9.052)"/></g></g></svg>