<svg xmlns="http://www.w3.org/2000/svg" width="21.15" height="20.744" viewBox="0 0 21.15 20.744">
  <g id="그룹_85" data-name="그룹 85" transform="translate(-873.698 -754.788)" opacity="0.8">
    <g id="그룹_78" data-name="그룹 78" transform="translate(-1 -0.046)">
      <g id="그룹_53" data-name="그룹 53" transform="translate(890.898 764.978)">
        <rect id="사각형_88" data-name="사각형 88" width="0.996" height="0.706" fill="#a5a5a5" stroke="#a5a5a5" stroke-width="0.4"/>
      </g>
      <g id="그룹_55" data-name="그룹 55" transform="translate(886.898 764.978)">
        <rect id="사각형_90" data-name="사각형 90" width="0.996" height="0.706" fill="#a5a5a5" stroke="#a5a5a5" stroke-width="0.4"/>
      </g>
      <g id="그룹_56" data-name="그룹 56" transform="translate(882.898 764.978)">
        <rect id="사각형_91" data-name="사각형 91" width="0.996" height="0.706" fill="#a5a5a5" stroke="#a5a5a5" stroke-width="0.4"/>
      </g>
      <g id="그룹_58" data-name="그룹 58" transform="translate(878.898 764.978)">
        <rect id="사각형_93" data-name="사각형 93" width="0.997" height="0.706" fill="#a5a5a5" stroke="#a5a5a5" stroke-width="0.4"/>
      </g>
    </g>
    <g id="그룹_80" data-name="그룹 80" transform="translate(-1 2.954)">
      <g id="그룹_53-2" data-name="그룹 53" transform="translate(890.898 764.978)">
        <rect id="사각형_88-2" data-name="사각형 88" width="0.996" height="0.706" fill="#a5a5a5" stroke="#a5a5a5" stroke-width="0.4"/>
      </g>
      <g id="그룹_55-2" data-name="그룹 55" transform="translate(886.898 764.978)">
        <rect id="사각형_90-2" data-name="사각형 90" width="0.996" height="0.706" fill="#a5a5a5" stroke="#a5a5a5" stroke-width="0.4"/>
      </g>
      <g id="그룹_56-2" data-name="그룹 56" transform="translate(882.898 764.978)">
        <rect id="사각형_91-2" data-name="사각형 91" width="0.996" height="0.706" fill="#a5a5a5" stroke="#a5a5a5" stroke-width="0.4"/>
      </g>
      <g id="그룹_58-2" data-name="그룹 58" transform="translate(878.898 764.978)">
        <rect id="사각형_93-2" data-name="사각형 93" width="0.997" height="0.706" fill="#a5a5a5" stroke="#a5a5a5" stroke-width="0.4"/>
      </g>
    </g>
    <g id="그룹_81" data-name="그룹 81" transform="translate(-1 5.954)">
      <g id="그룹_53-3" data-name="그룹 53" transform="translate(890.898 764.978)">
        <rect id="사각형_88-3" data-name="사각형 88" width="0.996" height="0.706" fill="#a5a5a5" stroke="#a5a5a5" stroke-width="0.4"/>
      </g>
      <g id="그룹_55-3" data-name="그룹 55" transform="translate(886.898 764.978)">
        <rect id="사각형_90-3" data-name="사각형 90" width="0.996" height="0.706" fill="#a5a5a5" stroke="#a5a5a5" stroke-width="0.4"/>
      </g>
      <g id="그룹_56-3" data-name="그룹 56" transform="translate(882.898 764.978)">
        <rect id="사각형_91-3" data-name="사각형 91" width="0.996" height="0.706" fill="#a5a5a5" stroke="#a5a5a5" stroke-width="0.4"/>
      </g>
      <g id="그룹_58-3" data-name="그룹 58" transform="translate(878.898 764.978)">
        <rect id="사각형_93-3" data-name="사각형 93" width="0.997" height="0.706" fill="#a5a5a5" stroke="#a5a5a5" stroke-width="0.4"/>
      </g>
    </g>
    <g id="그룹_73" data-name="그룹 73" transform="translate(874.227 763.513)">
      <path id="패스_115" data-name="패스 115" d="M896.56,815.093H876.466V803.274h.644v11.112h18.806V803.274h.644Z" transform="translate(-876.466 -803.274)" fill="#a5a5a5" stroke="#a5a5a5" stroke-width="0.4"/>
    </g>
    <g id="그룹_79" data-name="그룹 79">
      <g id="그룹_51" data-name="그룹 51" transform="translate(880.119 756.902)">
        <rect id="사각형_87" data-name="사각형 87" width="9.562" height="0.706" transform="translate(0 0)" fill="#a5a5a5" stroke="#a5a5a5" stroke-width="0.4"/>
      </g>
      <g id="그룹_52" data-name="그룹 52" transform="translate(873.898 756.902)">
        <path id="패스_114" data-name="패스 114" d="M894.648,771.39H873.9v-5.563h3.078v.706h-2.44v4.151H894.01v-4.151h-1.324v-.706h1.962Z" transform="translate(-873.898 -765.826)" fill="#a5a5a5" stroke="#a5a5a5" stroke-width="0.4"/>
      </g>
      <g id="그룹_76" data-name="그룹 76" transform="translate(876.783 754.988)">
        <g id="그룹_74" data-name="그룹 74" transform="translate(12.653 0)">
          <path id="패스_116" data-name="패스 116" d="M973.567,759.931h-2.329v-4.943h2.329Zm-1.691-.706h1.052v-3.53h-1.052Z" transform="translate(-971.238 -754.988)" fill="#a5a5a5" stroke="#a5a5a5" stroke-width="0.4"/>
        </g>
        <g id="그룹_75" data-name="그룹 75" transform="translate(0 0)">
          <path id="패스_117" data-name="패스 117" d="M894.3,759.931h-2.329v-4.943H894.3Zm-1.69-.706h1.052v-3.53h-1.052Z" transform="translate(-891.969 -754.988)" fill="#a5a5a5" stroke="#a5a5a5" stroke-width="0.4"/>
        </g>
      </g>
    </g>
  </g>
</svg>
