<svg id="레이어_1" data-name="레이어 1" xmlns="http://www.w3.org/2000/svg" viewBox="0 0 85 20"><defs><style>.cls-1{fill:#ccc;}.cls-2{fill:#435062;}</style></defs><title>자세히 보기 버튼</title><rect class="cls-1" x="0.75" y="0.75" width="83.5" height="18.5" rx="1.36"/><path class="cls-2" d="M82.89,1.5a.61.61,0,0,1,.61.61V17.89a.61.61,0,0,1-.61.61H2.11a.61.61,0,0,1-.61-.61V2.11a.61.61,0,0,1,.61-.61H82.89m0-1.5H2.11A2.1,2.1,0,0,0,0,2.11V17.89A2.1,2.1,0,0,0,2.11,20H82.89A2.1,2.1,0,0,0,85,17.89V2.11A2.1,2.1,0,0,0,82.89,0Z"/><path class="cls-2" d="M15.6,7.92a4.64,4.64,0,0,0,2.49,4l-.63.89a5,5,0,0,1-2.41-2.88,5.21,5.21,0,0,1-2.46,3.14l-.65-.91a4.91,4.91,0,0,0,2.53-4.25V7H12.3V6h5.4V7H15.6Zm5.77,2H19.81V15H18.68V5h1.13V9h1.56Z"/><path class="cls-2" d="M25.4,7.68a4.82,4.82,0,0,0,1.94,4.13l-.64.88a4.55,4.55,0,0,1-1.84-2.63,4.76,4.76,0,0,1-2,2.85l-.69-.86A5,5,0,0,0,24.3,7.74V6h1.1Zm2.33-2.46H28.8v9.29H27.73V9.43H26.27V8.51h1.46ZM30.84,5V15H29.76V5Z"/><path class="cls-2" d="M36.34,6.58h2.38V7.5H32.79V6.58h2.4V5.15h1.15Zm1.93,3.93a2.5,2.5,0,1,1-2.5-2.32A2.32,2.32,0,0,1,38.27,10.51Zm-1.09,0a1.41,1.41,0,0,0-2.81,0,1.41,1.41,0,0,0,2.81,0ZM40.76,5V15H39.61V5Z"/><path class="cls-2" d="M55,12.82v.94H46v-.94h3.92v-2H47V5.69h1.12V7.37h4.71V5.69H54v5.13H51.05v2ZM48.14,9.91h4.71V8.28H48.14Z"/><path class="cls-2" d="M61.5,6.08a7.34,7.34,0,0,1-4.59,7.12l-.61-.91c2.61-1.25,3.84-3,4-5.29H56.79V6.08Zm2.93-1V15H63.3V5Z"/><path class="cls-2" d="M70.78,6.38,75.06,10l-4.28,3.61-1-1L72.94,10,69.8,7.38Z"/></svg>