<svg xmlns="http://www.w3.org/2000/svg" width="29.299" height="29.3" viewBox="0 0 29.299 29.3">
  <g id="그룹_375" data-name="그룹 375" transform="translate(-391.141 -1023.51) rotate(30)">
    <path id="패스_91" data-name="패스 91" d="M225.142,143.065a1,1,0,0,0-1,1v3.188a1,1,0,0,0,2,0v-3.188A1,1,0,0,0,225.142,143.065Z" transform="translate(645.363 538.83)" fill="#fff" opacity="0.15"/>
    <path id="패스_92" data-name="패스 92" d="M225.142,166.446a1,1,0,0,0-1,1v3.186a1,1,0,0,0,2,0v-3.186A1,1,0,0,0,225.142,166.446Z" transform="translate(645.363 538.83)" fill="#fff" opacity="0.61"/>
    <path id="패스_93" data-name="패스 93" d="M232.284,144.979a1,1,0,0,0-1.366.366l-1.6,2.76a1,1,0,0,0,.367,1.367,1,1,0,0,0,1.366-.367l1.594-2.76A1,1,0,0,0,232.284,144.979Z" transform="translate(645.363 538.83)" fill="#fff" opacity="0.2"/>
    <path id="패스_94" data-name="패스 94" d="M220.593,165.228a1,1,0,0,0-1.366.366l-1.593,2.758a1,1,0,1,0,1.732,1l1.593-2.758A1,1,0,0,0,220.593,165.228Z" transform="translate(645.363 538.83)" fill="#fff" opacity="0.7"/>
    <path id="패스_95" data-name="패스 95" d="M233.886,153.3a.992.992,0,0,0,.5-.134l2.761-1.594a1,1,0,0,0-1-1.732l-2.761,1.594a1,1,0,0,0,.5,1.866Z" transform="translate(645.363 538.83)" fill="#fff" opacity="0.25"/>
    <path id="패스_96" data-name="패스 96" d="M215.9,161.531l-2.758,1.593a1,1,0,1,0,1,1.732l2.758-1.592a1,1,0,0,0-1-1.733Z" transform="translate(645.363 538.83)" fill="#fff" opacity="0.77"/>
    <path id="패스_97" data-name="패스 97" d="M238.426,156.349h-3.189a1,1,0,0,0,0,2h3.189a1,1,0,0,0,0-2Z" transform="translate(645.363 538.83)" fill="#fff" opacity="0.34"/>
    <path id="패스_98" data-name="패스 98" d="M216.044,157.349a1,1,0,0,0-1-1h-3.186a1,1,0,1,0,0,2h3.186A1,1,0,0,0,216.044,157.349Z" transform="translate(645.363 538.83)" fill="#fff" opacity="0.85"/>
    <path id="패스_99" data-name="패스 99" d="M237.146,163.124l-2.761-1.595a1,1,0,0,0-1,1.733l2.761,1.594a1,1,0,0,0,1-1.732Z" transform="translate(645.363 538.83)" fill="#fff" opacity="0.45"/>
    <path id="패스_100" data-name="패스 100" d="M216.9,151.433l-2.758-1.592a1,1,0,1,0-1,1.732l2.758,1.592a.992.992,0,0,0,.5.134,1,1,0,0,0,.5-1.866Z" transform="translate(645.363 538.83)" fill="#fff" opacity="0.9"/>
    <path id="패스_101" data-name="패스 101" d="M231.056,165.591a1,1,0,0,0-1.733,1l1.6,2.761a1,1,0,0,0,1.732-1Z" transform="translate(645.363 538.83)" fill="#fff" opacity="0.53"/>
    <path id="패스_102" data-name="패스 102" d="M219.366,145.345a1,1,0,1,0-1.732,1l1.593,2.758a1,1,0,1,0,1.732-1Z" transform="translate(645.363 538.83)" fill="#fff"/>
  </g>
</svg>
